<svg width="351" height="36" viewBox="0 0 351 36" fill="none" xmlns="http://www.w3.org/2000/svg">
<path fill-rule="evenodd" clip-rule="evenodd" d="M17.4474 25.9051L24.9642 30.5851C25.5167 30.9301 26.2 30.4201 26.0547 29.7751L24.0628 20.9551L30.6927 15.0301C31.1725 14.5951 30.9253 13.7701 30.2711 13.7101L21.5329 12.9451L18.1162 4.63508C17.869 4.02008 17.0257 4.02008 16.7786 4.63508L13.3618 12.9451L4.62366 13.7101C3.98393 13.7701 3.72222 14.5951 4.21656 15.0301L10.8465 20.9551L8.85461 29.7751C8.70921 30.4201 9.39256 30.9301 9.94506 30.5851L17.4474 25.9051Z" fill="#FF492C"/>
<path fill-rule="evenodd" clip-rule="evenodd" d="M87.2364 25.9051L94.7533 30.5851C95.3058 30.9301 95.9891 30.4201 95.8437 29.7751L93.8518 20.9551L100.482 15.0301C100.962 14.5951 100.714 13.7701 100.06 13.7101L91.322 12.9451L87.9052 4.63508C87.6581 4.02008 86.8148 4.02008 86.5676 4.63508L83.1509 12.9451L74.4127 13.7101C73.773 13.7701 73.5113 14.5951 74.0056 15.0301L80.6356 20.9551L78.6437 29.7751C78.4983 30.4201 79.1816 30.9301 79.7341 30.5851L87.2364 25.9051Z" fill="#FF492C"/>
<path fill-rule="evenodd" clip-rule="evenodd" d="M52.3419 25.9051L59.8587 30.5851C60.4112 30.9301 61.0946 30.4201 60.9492 29.7751L58.9573 20.9551L65.5872 15.0301C66.067 14.5951 65.8199 13.7701 65.1656 13.7101L56.4275 12.9451L53.0107 4.63508C52.7635 4.02008 51.9203 4.02008 51.6731 4.63508L48.2563 12.9451L39.5182 13.7101C38.8785 13.7701 38.6168 14.5951 39.1111 15.0301L45.741 20.9551L43.7491 29.7751C43.6037 30.4201 44.2871 30.9301 44.8396 30.5851L52.3419 25.9051Z" fill="#FF492C"/>
<path fill-rule="evenodd" clip-rule="evenodd" d="M122.131 25.9051L129.648 30.5851C130.2 30.9301 130.884 30.4201 130.738 29.7751L128.746 20.9551L135.376 15.0301C135.856 14.5951 135.609 13.7701 134.955 13.7101L126.217 12.9451L122.8 4.63508C122.553 4.02008 121.709 4.02008 121.462 4.63508L118.045 12.9451L109.307 13.7101C108.668 13.7701 108.406 14.5951 108.9 15.0301L115.53 20.9551L113.538 29.7751C113.393 30.4201 114.076 30.9301 114.629 30.5851L122.131 25.9051Z" fill="#FF492C"/>
<path fill-rule="evenodd" clip-rule="evenodd" d="M157.025 25.9051L164.542 30.5851C165.095 30.9301 165.778 30.4201 165.633 29.7751L163.641 20.9551L170.271 15.0301C170.751 14.5951 170.503 13.7701 169.849 13.7101L161.111 12.9451L157.694 4.63508C157.447 4.02008 156.604 4.02008 156.357 4.63508L152.94 12.9451L144.202 13.7101C143.562 13.7701 143.3 14.5951 143.795 15.0301L150.425 20.9551L148.433 29.7751C148.287 30.4201 148.971 30.9301 149.523 30.5851L157.025 25.9051Z" fill="url(#paint0_linear_2428_6838)" stroke="#FF492C"/>
<path d="M183.132 19.4545C183.132 17.8437 183.341 16.3629 183.759 15.0121C184.181 13.657 184.782 12.4105 185.561 11.2727H186.891C186.584 11.6946 186.297 12.2145 186.028 12.8324C185.764 13.446 185.532 14.1214 185.331 14.8587C185.131 15.5916 184.973 16.3501 184.858 17.1342C184.748 17.9183 184.692 18.6918 184.692 19.4545C184.692 20.4688 184.79 21.4979 184.986 22.5419C185.182 23.5859 185.446 24.5554 185.779 25.4503C186.111 26.3452 186.482 27.0739 186.891 27.6364H185.561C184.782 26.4986 184.181 25.2543 183.759 23.9034C183.341 22.5483 183.132 21.0653 183.132 19.4545ZM192.852 23.6989V15.2614H194.284V23.6989H192.852ZM189.349 20.196V18.7642H197.787V20.196H189.349ZM204.848 26.179C204.098 26.179 203.422 26.0298 202.821 25.7315C202.22 25.4332 201.739 25.0241 201.377 24.5043C201.014 23.9844 200.816 23.392 200.782 22.7273H202.316C202.376 23.3196 202.644 23.8097 203.122 24.1974C203.603 24.581 204.179 24.7727 204.848 24.7727C205.385 24.7727 205.862 24.647 206.279 24.3956C206.701 24.1442 207.032 23.799 207.27 23.3601C207.513 22.9169 207.635 22.4162 207.635 21.858C207.635 21.2869 207.509 20.7777 207.257 20.3303C207.01 19.8786 206.669 19.5227 206.235 19.2628C205.8 19.0028 205.304 18.8707 204.745 18.8665C204.345 18.8622 203.934 18.924 203.512 19.0518C203.09 19.1754 202.742 19.3352 202.47 19.5312L200.987 19.3523L201.779 12.9091H208.581V14.3153H203.109L202.649 18.1761H202.725C202.994 17.9631 203.331 17.7862 203.735 17.6456C204.14 17.505 204.562 17.4347 205.001 17.4347C205.802 17.4347 206.516 17.6264 207.142 18.0099C207.773 18.3892 208.267 18.9091 208.625 19.5696C208.987 20.2301 209.169 20.9844 209.169 21.8324C209.169 22.6676 208.981 23.4134 208.606 24.0696C208.235 24.7216 207.724 25.2372 207.072 25.6165C206.42 25.9915 205.679 26.179 204.848 26.179ZM215.878 26.179C214.915 26.179 214.094 25.9169 213.417 25.3928C212.739 24.8643 212.221 24.0994 211.864 23.098C211.506 22.0923 211.327 20.8778 211.327 19.4545C211.327 18.0398 211.506 16.8317 211.864 15.8303C212.226 14.8246 212.746 14.0575 213.423 13.5291C214.105 12.9964 214.923 12.7301 215.878 12.7301C216.832 12.7301 217.648 12.9964 218.326 13.5291C219.008 14.0575 219.528 14.8246 219.886 15.8303C220.248 16.8317 220.429 18.0398 220.429 19.4545C220.429 20.8778 220.25 22.0923 219.892 23.098C219.534 24.0994 219.016 24.8643 218.339 25.3928C217.661 25.9169 216.841 26.179 215.878 26.179ZM215.878 24.7727C216.832 24.7727 217.574 24.3125 218.102 23.392C218.631 22.4716 218.895 21.1591 218.895 19.4545C218.895 18.321 218.773 17.3558 218.53 16.5589C218.292 15.7621 217.947 15.1548 217.495 14.7372C217.047 14.3196 216.508 14.1108 215.878 14.1108C214.932 14.1108 214.192 14.5774 213.66 15.5107C213.127 16.4396 212.861 17.7543 212.861 19.4545C212.861 20.5881 212.98 21.5511 213.219 22.3438C213.457 23.1364 213.8 23.7393 214.248 24.1527C214.699 24.5661 215.243 24.7727 215.878 24.7727ZM227.028 26.179C226.065 26.179 225.244 25.9169 224.567 25.3928C223.889 24.8643 223.371 24.0994 223.014 23.098C222.656 22.0923 222.477 20.8778 222.477 19.4545C222.477 18.0398 222.656 16.8317 223.014 15.8303C223.376 14.8246 223.896 14.0575 224.573 13.5291C225.255 12.9964 226.073 12.7301 227.028 12.7301C227.982 12.7301 228.798 12.9964 229.476 13.5291C230.158 14.0575 230.678 14.8246 231.036 15.8303C231.398 16.8317 231.579 18.0398 231.579 19.4545C231.579 20.8778 231.4 22.0923 231.042 23.098C230.684 24.0994 230.166 24.8643 229.489 25.3928C228.811 25.9169 227.991 26.179 227.028 26.179ZM227.028 24.7727C227.982 24.7727 228.724 24.3125 229.252 23.392C229.781 22.4716 230.045 21.1591 230.045 19.4545C230.045 18.321 229.923 17.3558 229.68 16.5589C229.442 15.7621 229.097 15.1548 228.645 14.7372C228.197 14.3196 227.658 14.1108 227.028 14.1108C226.082 14.1108 225.342 14.5774 224.81 15.5107C224.277 16.4396 224.011 17.7543 224.011 19.4545C224.011 20.5881 224.13 21.5511 224.369 22.3438C224.607 23.1364 224.95 23.7393 225.398 24.1527C225.849 24.5661 226.393 24.7727 227.028 24.7727ZM237.155 19.4545C237.155 21.0653 236.944 22.5483 236.522 23.9034C236.105 25.2543 235.506 26.4986 234.726 27.6364H233.396C233.703 27.2145 233.989 26.6946 234.253 26.0767C234.521 25.4631 234.756 24.7898 234.956 24.0568C235.156 23.3196 235.312 22.5589 235.423 21.7749C235.538 20.9865 235.595 20.2131 235.595 19.4545C235.595 18.4403 235.497 17.4112 235.301 16.3672C235.105 15.3232 234.841 14.3537 234.509 13.4588C234.176 12.5639 233.806 11.8352 233.396 11.2727H234.726C235.506 12.4105 236.105 13.657 236.522 15.0121C236.944 16.3629 237.155 17.8437 237.155 19.4545Z" fill="#566271"/>
<path d="M244.864 23.571V21.6854L250.418 12.9091H251.991V15.5938H251.032L247.293 21.5192V21.6214H255.046V23.571H244.864ZM251.109 26V22.9957L251.134 22.152V12.9091H253.371V26H251.109ZM258.07 26.1406C257.682 26.1406 257.35 26.0043 257.073 25.7315C256.796 25.4588 256.66 25.1264 256.664 24.7344C256.66 24.3509 256.796 24.0227 257.073 23.75C257.35 23.4773 257.682 23.3409 258.07 23.3409C258.445 23.3409 258.771 23.4773 259.048 23.75C259.329 24.0227 259.472 24.3509 259.476 24.7344C259.472 24.9943 259.404 25.2308 259.272 25.4439C259.144 25.657 258.974 25.8274 258.761 25.9553C258.552 26.0788 258.322 26.1406 258.07 26.1406ZM266.133 26.179C265.281 26.179 264.518 26.0192 263.844 25.6996C263.171 25.3757 262.636 24.9325 262.24 24.37C261.848 23.8075 261.639 23.1641 261.614 22.4396H263.915C263.957 22.9766 264.19 23.4155 264.612 23.7564C265.033 24.093 265.541 24.2614 266.133 24.2614C266.597 24.2614 267.011 24.1548 267.373 23.9418C267.735 23.7287 268.021 23.4325 268.229 23.0533C268.438 22.674 268.541 22.2415 268.536 21.7557C268.541 21.2614 268.436 20.8224 268.223 20.4389C268.01 20.0554 267.718 19.755 267.347 19.5376C266.977 19.3161 266.55 19.2053 266.069 19.2053C265.677 19.201 265.291 19.2734 264.912 19.4226C264.533 19.5717 264.232 19.7678 264.011 20.0107L261.869 19.6591L262.553 12.9091H270.147V14.8906H264.516L264.139 18.3615H264.215C264.458 18.076 264.801 17.8395 265.244 17.652C265.688 17.4602 266.173 17.3643 266.702 17.3643C267.494 17.3643 268.202 17.5518 268.824 17.9268C269.446 18.2976 269.936 18.8089 270.294 19.4609C270.652 20.1129 270.831 20.8587 270.831 21.6982C270.831 22.5632 270.631 23.3345 270.23 24.0121C269.834 24.6854 269.282 25.2159 268.575 25.6037C267.871 25.9872 267.058 26.179 266.133 26.179ZM282.041 26.2045C281.154 26.2045 280.377 25.9936 279.708 25.5717C279.043 25.1499 278.523 24.5597 278.148 23.8011C277.777 23.0426 277.592 22.1562 277.592 21.142C277.592 20.1193 277.777 19.2266 278.148 18.4638C278.523 17.701 279.043 17.1087 279.708 16.6868C280.377 16.2649 281.154 16.054 282.041 16.054C282.927 16.054 283.703 16.2649 284.368 16.6868C285.037 17.1087 285.556 17.701 285.927 18.4638C286.302 19.2266 286.49 20.1193 286.49 21.142C286.49 22.1562 286.302 23.0426 285.927 23.8011C285.556 24.5597 285.037 25.1499 284.368 25.5717C283.703 25.9936 282.927 26.2045 282.041 26.2045ZM282.041 24.8494C282.714 24.8494 283.268 24.6768 283.703 24.3317C284.137 23.9865 284.459 23.5327 284.668 22.9702C284.877 22.4077 284.981 21.7983 284.981 21.142C284.981 20.4858 284.877 19.8743 284.668 19.3075C284.459 18.7408 284.137 18.2827 283.703 17.9332C283.268 17.5838 282.714 17.4091 282.041 17.4091C281.368 17.4091 280.814 17.5838 280.379 17.9332C279.944 18.2827 279.622 18.7408 279.414 19.3075C279.205 19.8743 279.1 20.4858 279.1 21.142C279.1 21.7983 279.205 22.4077 279.414 22.9702C279.622 23.5327 279.944 23.9865 280.379 24.3317C280.814 24.6768 281.368 24.8494 282.041 24.8494ZM294.88 21.9858V16.1818H296.388V26H294.88V24.3381H294.778C294.548 24.8366 294.19 25.2607 293.704 25.6101C293.218 25.9553 292.604 26.1278 291.863 26.1278C291.249 26.1278 290.704 25.9936 290.226 25.7251C289.749 25.4524 289.374 25.0433 289.101 24.4979C288.829 23.9482 288.692 23.2557 288.692 22.4205V16.1818H290.201V22.3182C290.201 23.0341 290.401 23.6051 290.802 24.0312C291.207 24.4574 291.722 24.6705 292.349 24.6705C292.724 24.6705 293.105 24.5746 293.493 24.3828C293.885 24.1911 294.213 23.897 294.477 23.5007C294.746 23.1044 294.88 22.5994 294.88 21.9858ZM303.321 16.1818V17.4602H298.233V16.1818H303.321ZM299.716 13.8295H301.225V23.1875C301.225 23.6136 301.286 23.9332 301.41 24.1463C301.538 24.3551 301.7 24.4957 301.896 24.5682C302.096 24.6364 302.307 24.6705 302.529 24.6705C302.695 24.6705 302.831 24.6619 302.938 24.6449C303.044 24.6236 303.13 24.6065 303.193 24.5938L303.5 25.9489C303.398 25.9872 303.255 26.0256 303.072 26.0639C302.889 26.1065 302.656 26.1278 302.375 26.1278C301.949 26.1278 301.531 26.0362 301.122 25.853C300.718 25.6697 300.381 25.3906 300.112 25.0156C299.848 24.6406 299.716 24.1676 299.716 23.5966V13.8295ZM314.442 26.2045C313.555 26.2045 312.778 25.9936 312.108 25.5717C311.444 25.1499 310.924 24.5597 310.549 23.8011C310.178 23.0426 309.993 22.1562 309.993 21.142C309.993 20.1193 310.178 19.2266 310.549 18.4638C310.924 17.701 311.444 17.1087 312.108 16.6868C312.778 16.2649 313.555 16.054 314.442 16.054C315.328 16.054 316.104 16.2649 316.768 16.6868C317.437 17.1087 317.957 17.701 318.328 18.4638C318.703 19.2266 318.89 20.1193 318.89 21.142C318.89 22.1562 318.703 23.0426 318.328 23.8011C317.957 24.5597 317.437 25.1499 316.768 25.5717C316.104 25.9936 315.328 26.2045 314.442 26.2045ZM314.442 24.8494C315.115 24.8494 315.669 24.6768 316.104 24.3317C316.538 23.9865 316.86 23.5327 317.069 22.9702C317.278 22.4077 317.382 21.7983 317.382 21.142C317.382 20.4858 317.278 19.8743 317.069 19.3075C316.86 18.7408 316.538 18.2827 316.104 17.9332C315.669 17.5838 315.115 17.4091 314.442 17.4091C313.768 17.4091 313.214 17.5838 312.78 17.9332C312.345 18.2827 312.023 18.7408 311.814 19.3075C311.606 19.8743 311.501 20.4858 311.501 21.142C311.501 21.7983 311.606 22.4077 311.814 22.9702C312.023 23.5327 312.345 23.9865 312.78 24.3317C313.214 24.6768 313.768 24.8494 314.442 24.8494ZM325.465 16.1818V17.4602H320.173V16.1818H325.465ZM321.758 26V14.8267C321.758 14.2642 321.89 13.7955 322.154 13.4205C322.418 13.0455 322.761 12.7642 323.183 12.5767C323.605 12.3892 324.051 12.2955 324.519 12.2955C324.89 12.2955 325.193 12.3253 325.427 12.3849C325.661 12.4446 325.836 12.5 325.951 12.5511L325.516 13.8551C325.44 13.8295 325.333 13.7976 325.197 13.7592C325.065 13.7209 324.89 13.7017 324.673 13.7017C324.174 13.7017 323.814 13.8274 323.592 14.0788C323.375 14.3303 323.266 14.6989 323.266 15.1847V26H321.758ZM336.776 26.179C335.924 26.179 335.161 26.0192 334.487 25.6996C333.814 25.3757 333.279 24.9325 332.883 24.37C332.491 23.8075 332.282 23.1641 332.257 22.4396H334.558C334.6 22.9766 334.833 23.4155 335.255 23.7564C335.676 24.093 336.183 24.2614 336.776 24.2614C337.24 24.2614 337.654 24.1548 338.016 23.9418C338.378 23.7287 338.664 23.4325 338.872 23.0533C339.081 22.674 339.183 22.2415 339.179 21.7557C339.183 21.2614 339.079 20.8224 338.866 20.4389C338.653 20.0554 338.361 19.755 337.99 19.5376C337.62 19.3161 337.193 19.2053 336.712 19.2053C336.32 19.201 335.934 19.2734 335.555 19.4226C335.176 19.5717 334.875 19.7678 334.654 20.0107L332.512 19.6591L333.196 12.9091H340.79V14.8906H335.159L334.781 18.3615H334.858C335.101 18.076 335.444 17.8395 335.887 17.652C336.331 17.4602 336.816 17.3643 337.345 17.3643C338.137 17.3643 338.845 17.5518 339.467 17.9268C340.089 18.2976 340.579 18.8089 340.937 19.4609C341.295 20.1129 341.474 20.8587 341.474 21.6982C341.474 22.5632 341.274 23.3345 340.873 24.0121C340.477 24.6854 339.925 25.2159 339.218 25.6037C338.514 25.9872 337.701 26.179 336.776 26.179Z" fill="#2C3B4E"/>
<defs>
<linearGradient id="paint0_linear_2428_6838" x1="143.456" y1="20" x2="170.596" y2="20.4698" gradientUnits="userSpaceOnUse">
<stop offset="0.505208" stop-color="#FF492C"/>
<stop offset="0.505308" stop-color="white" stop-opacity="0"/>
</linearGradient>
</defs>
</svg>
