<?xml version="1.0" encoding="UTF-8"?>
<svg xmlns="http://www.w3.org/2000/svg" width="46" height="16" viewBox="0 0 46 16">
    <g fill="#41297F" fill-rule="evenodd">
        <path d="M10.638.165l-.793 3.424h-.309c-.037-.932-.266-1.627-.686-2.086-.42-.458-.968-.687-1.644-.687-.73 0-1.456.313-2.18.938-.725.624-1.338 1.58-1.84 2.868-.406 1.043-.61 2.073-.61 3.09 0 .911.223 1.606.67 2.086.447.479 1.058.718 1.835.718.629 0 1.202-.137 1.72-.413.518-.275 1.041-.723 1.57-1.342h.38c-.655.985-1.317 1.676-1.985 2.073-.669.397-1.487.596-2.454.596-1.295 0-2.337-.393-3.127-1.18C.395 9.464 0 8.438 0 7.172c0-1.187.314-2.319.943-3.396.63-1.078 1.534-1.95 2.715-2.614C4.84.497 6.014.165 7.182.165c.444 0 .996.095 1.656.286.339.095.574.143.706.143.264 0 .531-.143.8-.43h.294zM11.6 9.742c.217 0 .4.076.551.228.15.152.226.336.226.55 0 .214-.076.397-.228.547-.152.15-.335.226-.549.226-.213 0-.395-.075-.545-.226-.151-.15-.226-.333-.226-.547 0-.214.075-.398.226-.55.15-.152.332-.228.545-.228M21.838 11.439L22.836 0h1.589l-.999 11.439h-1.588zM17.118 2.4c-.691 0-1.016 1.232-1.134 2.58-.119 1.361-.006 2.568.685 2.568.705 0 1.028-1.207 1.147-2.568.118-1.348.007-2.58-.697-2.58zm2.435 8.512l.46-5.277h-.704c-.298 1.797-1.155 3.544-2.795 3.544-1.831 0-2.319-2.196-2.142-4.224.173-1.978 1.04-4.134 2.872-4.134 1.588 0 2.153 1.605 2.169 3.325h.73l.343-3.929h1.563l-.934 10.695h-1.562zM32.16 11.439L33.16 0h1.69l-.998 11.439h-1.69zm-2.888-6.535h-2.088l-.209 2.388h2.089l.208-2.388zm-4.091 3.723l.673-7.715h1.679l-.236 2.696h2.088l.236-2.696h1.703l-.673 7.715h-5.47zM36.946 4.866l.383-4.39h1.704l-.264 3.029h6.033l-.119 1.36h-7.737zm.463 6.586l.343-3.928h-2.357l.118-1.361h10.312l-.118 1.36h-2.422l-.342 3.929h-1.704l.343-3.928h-2.1l-.344 3.928h-1.73z" transform="translate(0 2.2)"/>
    </g>
</svg>
