<svg width="209" height="25" viewBox="0 0 209 25" fill="none" xmlns="http://www.w3.org/2000/svg">
<path fill-rule="evenodd" clip-rule="evenodd" d="M7.60894 16.0108C9.10763 16.0108 10.4747 15.2645 11.2634 14.4377V9.10474C10.5011 8.27792 9.13408 7.47792 7.60894 7.47792C4.84844 7.47792 3.08705 9.34438 3.08705 11.7712C3.08705 14.1712 4.84844 16.0108 7.60894 16.0108ZM6.87253 5.05109C8.81847 5.05109 10.2907 5.71816 11.2634 6.70474V5.29133H13.9974V17.7444C13.9974 22.1974 11.1846 24.5175 7.34624 24.5175C4.63863 24.5175 3.0083 23.531 2.14083 23.0773L2.74559 20.5974C3.61306 21.1572 5.21694 22.0645 7.34624 22.0645C9.42323 22.0645 11.2634 20.998 11.2634 18.3047V16.8108C10.2642 17.7444 8.73912 18.4377 6.87253 18.4377C2.92955 18.4377 0.30069 15.4243 0.30069 11.7712C0.30069 8.06511 2.92955 5.05109 6.87253 5.05109Z" fill="#15573F"/>
<path d="M11.2634 14.4377L11.4804 14.6447L11.5634 14.5578V14.4377H11.2634ZM11.2634 9.10474H11.5634V8.98756L11.4839 8.9014L11.2634 9.10474ZM11.2634 6.70474L11.0497 6.91537L11.5634 7.43635V6.70474H11.2634ZM11.2634 5.29133V4.99133H10.9634V5.29133H11.2634ZM13.9974 5.29133H14.2974V4.99133H13.9974V5.29133ZM2.14083 23.0773L1.84937 23.0062L1.79374 23.2343L2.0018 23.3431L2.14083 23.0773ZM2.74559 20.5974L2.90825 20.3454L2.55402 20.1168L2.45413 20.5264L2.74559 20.5974ZM11.2634 16.8108H11.5634V16.12L11.0586 16.5916L11.2634 16.8108ZM7.60894 16.3108C9.20152 16.3108 10.6439 15.5217 11.4804 14.6447L11.0463 14.2306C10.3054 15.0073 9.01373 15.7108 7.60894 15.7108V16.3108ZM11.5634 14.4377V9.10474H10.9634V14.4377H11.5634ZM11.4839 8.9014C10.6764 8.02541 9.23342 7.17792 7.60894 7.17792V7.77792C9.03473 7.77792 10.3259 8.53042 11.0428 9.30809L11.4839 8.9014ZM7.60894 7.17792C6.1592 7.17792 4.95043 7.6693 4.10279 8.50027C3.25549 9.33091 2.78705 10.4835 2.78705 11.7712H3.38705C3.38705 10.6321 3.79929 9.63803 4.52282 8.92873C5.24601 8.21976 6.29817 7.77792 7.60894 7.77792V7.17792ZM2.78705 11.7712C2.78705 13.0467 3.25631 14.1863 4.1042 15.0066C4.95213 15.827 6.16049 16.3108 7.60894 16.3108V15.7108C6.29689 15.7108 5.2443 15.2748 4.52141 14.5754C3.79848 13.876 3.38705 12.8958 3.38705 11.7712H2.78705ZM6.87253 5.35109C8.74675 5.35109 10.1392 5.9918 11.0497 6.91537L11.477 6.49412C10.4422 5.44452 8.89019 4.75109 6.87253 4.75109V5.35109ZM11.5634 6.70474V5.29133H10.9634V6.70474H11.5634ZM11.2634 5.59133H13.9974V4.99133H11.2634V5.59133ZM13.6974 5.29133V17.7444H14.2974V5.29133H13.6974ZM13.6974 17.7444C13.6974 19.9057 13.0166 21.5149 11.9034 22.5845C10.7879 23.6563 9.20582 24.2176 7.34624 24.2176V24.8175C9.32504 24.8175 11.0685 24.2188 12.3191 23.0172C13.5719 21.8135 14.2974 20.0361 14.2974 17.7444H13.6974ZM7.34624 24.2176C4.71985 24.2176 3.14839 23.2657 2.27986 22.8115L2.0018 23.3431C2.86821 23.7963 4.55741 24.8175 7.34624 24.8175V24.2176ZM2.43229 23.1484L3.03705 20.6685L2.45413 20.5264L1.84937 23.0062L2.43229 23.1484ZM2.58293 20.8495C3.46754 21.4203 5.13076 22.3645 7.34624 22.3645V21.7645C5.30313 21.7645 3.75858 20.8941 2.90825 20.3454L2.58293 20.8495ZM7.34624 22.3645C8.43148 22.3645 9.48697 22.0863 10.2764 21.4245C11.0745 20.7555 11.5634 19.7255 11.5634 18.3047H10.9634C10.9634 19.5773 10.5322 20.4272 9.89095 20.9647C9.24107 21.5095 8.33799 21.7645 7.34624 21.7645V22.3645ZM11.5634 18.3047V16.8108H10.9634V18.3047H11.5634ZM11.0586 16.5916C10.1156 17.4727 8.66393 18.1377 6.87253 18.1377V18.7377C8.8143 18.7377 10.4129 18.0161 11.4682 17.03L11.0586 16.5916ZM6.87253 18.1377C3.1094 18.1377 0.60069 15.2731 0.60069 11.7712H0.000689685C0.000689685 15.5754 2.74969 18.7377 6.87253 18.7377V18.1377ZM0.60069 11.7712C0.60069 8.21464 3.11094 5.35109 6.87253 5.35109V4.75109C2.74815 4.75109 0.000689685 7.91558 0.000689685 11.7712H0.60069Z" fill="#15573F"/>
<path fill-rule="evenodd" clip-rule="evenodd" d="M21.7755 8.9981C21.7755 8.03834 21.5386 7.42493 20.6718 7.42493C20.1193 7.42493 19.541 7.66456 19.1989 7.87798L19.015 5.71822C19.3047 5.45176 20.4872 5.05115 21.6967 5.05115C23.2742 5.05115 24.1939 5.82493 24.4308 7.45176C25.1408 5.98529 26.1657 5.05115 28.0065 5.05115C29.2942 5.05115 30.2145 5.53103 30.5037 6.01151L30.0041 8.46456C29.715 8.01151 28.821 7.61151 27.6115 7.61151C25.6668 7.61151 24.8781 9.42432 24.5096 11.2914V19.2377H21.7755V8.9981Z" fill="#15573F"/>
<path fill-rule="evenodd" clip-rule="evenodd" d="M21.7755 8.9981C21.7755 8.03834 21.5386 7.42493 20.6718 7.42493C20.1193 7.42493 19.541 7.66456 19.1989 7.87798L19.015 5.71822C19.3047 5.45176 20.4872 5.05115 21.6967 5.05115C23.2742 5.05115 24.1939 5.82493 24.4308 7.45176C25.1408 5.98529 26.1657 5.05115 28.0065 5.05115C29.2942 5.05115 30.2145 5.53103 30.5037 6.01151L30.0041 8.46456C29.715 8.01151 28.821 7.61151 27.6115 7.61151C25.6668 7.61151 24.8781 9.42432 24.5096 11.2914V19.2377H21.7755V8.9981Z" stroke="#15573F" stroke-width="0.6"/>
<path fill-rule="evenodd" clip-rule="evenodd" d="M44.9344 10.2783C44.9344 8.67833 43.8565 7.23809 41.3851 7.23809C38.8092 7.23809 37.3099 8.99785 37.1001 11.0247H44.8814C44.9079 10.8113 44.9344 10.5186 44.9344 10.2783ZM47.3793 17.7174C45.9599 18.8911 43.9875 19.6113 41.6743 19.6113C36.4953 19.6113 34.2344 16.3582 34.2344 12.3046C34.2344 8.19846 37.0207 4.91797 41.438 4.91797C45.6179 4.91797 47.5632 7.53138 47.5632 10.7314C47.5632 11.5582 47.4316 12.6783 47.2741 13.185H37.0472C37.3099 15.6113 38.7563 17.2643 41.753 17.2643C43.6461 17.2643 45.2494 16.5174 46.3014 15.718L47.3793 17.7174Z" fill="#15573F"/>
<path d="M37.1001 11.0247L36.8017 10.9938L36.7674 11.3247H37.1001V11.0247ZM44.8814 11.0247V11.3247H45.1466L45.1792 11.0616L44.8814 11.0247ZM47.3793 17.7174L47.5704 17.9485L47.7601 17.7917L47.6433 17.575L47.3793 17.7174ZM47.2741 13.185V13.485H47.495L47.5605 13.2741L47.2741 13.185ZM37.0472 13.185V12.885H36.7129L36.7489 13.2173L37.0472 13.185ZM46.3014 15.718L46.5655 15.5756L46.3991 15.267L46.1199 15.4791L46.3014 15.718ZM45.2344 10.2783C45.2344 9.41091 44.9412 8.5682 44.2952 7.94269C43.6485 7.3165 42.6796 6.93809 41.3851 6.93809V7.53809C42.562 7.53809 43.3677 7.8798 43.8778 8.37373C44.3886 8.86834 44.6344 9.54576 44.6344 10.2783H45.2344ZM41.3851 6.93809C38.6393 6.93809 37.0256 8.8307 36.8017 10.9938L37.3985 11.0556C37.5942 9.16499 38.9791 7.53809 41.3851 7.53809V6.93809ZM37.1001 11.3247H44.8814V10.7247H37.1001V11.3247ZM45.1792 11.0616C45.2063 10.8424 45.2344 10.5361 45.2344 10.2783H44.6344C44.6344 10.5011 44.6095 10.7801 44.5837 10.9878L45.1792 11.0616ZM47.1881 17.4862C45.8281 18.6109 43.9253 19.3113 41.6743 19.3113V19.9113C44.0498 19.9113 46.0918 19.1714 47.5704 17.9485L47.1881 17.4862ZM41.6743 19.3113C39.1503 19.3113 37.3775 18.5208 36.2331 17.2751C35.0846 16.0248 34.5344 14.2783 34.5344 12.3046H33.9344C33.9344 14.3844 34.5146 16.2913 35.7913 17.681C37.0721 19.0752 39.0193 19.9113 41.6743 19.9113V19.3113ZM34.5344 12.3046C34.5344 10.3192 35.2075 8.54847 36.3987 7.27654C37.5877 6.00699 39.3078 5.21797 41.438 5.21797V4.61797C39.151 4.61797 37.2693 5.46919 35.9607 6.86641C34.6544 8.26125 33.9344 10.1838 33.9344 12.3046H34.5344ZM41.438 5.21797C43.4632 5.21797 44.91 5.84922 45.8514 6.83218C46.7955 7.81798 47.2632 9.19082 47.2632 10.7314H47.8632C47.8632 9.07195 47.3582 7.53808 46.2847 6.41717C45.2085 5.29342 43.5926 4.61797 41.438 4.61797V5.21797ZM47.2632 10.7314C47.2632 11.5431 47.1325 12.6296 46.9876 13.096L47.5605 13.2741C47.7306 12.727 47.8632 11.5734 47.8632 10.7314H47.2632ZM47.2741 12.885H37.0472V13.485H47.2741V12.885ZM36.7489 13.2173C36.8857 14.4804 37.3346 15.5753 38.1703 16.354C39.0079 17.1344 40.1987 17.5643 41.753 17.5643V16.9643C40.3106 16.9643 39.2798 16.5677 38.5793 15.915C37.877 15.2607 37.4714 14.3159 37.3454 13.1527L36.7489 13.2173ZM41.753 17.5643C43.7245 17.5643 45.3899 16.7873 46.4829 15.9568L46.1199 15.4791C45.1088 16.2474 43.5677 16.9643 41.753 16.9643V17.5643ZM46.0373 15.8603L47.1152 17.8597L47.6433 17.575L46.5655 15.5756L46.0373 15.8603Z" fill="#15573F"/>
<path fill-rule="evenodd" clip-rule="evenodd" d="M63.097 10.2783C63.097 8.67833 62.0192 7.23809 59.5478 7.23809C56.9719 7.23809 55.4726 8.99785 55.2628 11.0247H63.0441C63.0706 10.8113 63.097 10.5186 63.097 10.2783ZM65.5419 17.7174C64.1226 18.8911 62.1502 19.6113 59.837 19.6113C54.658 19.6113 52.3971 16.3582 52.3971 12.3046C52.3971 8.19846 55.1834 4.91797 59.6007 4.91797C63.7806 4.91797 65.7259 7.53138 65.7259 10.7314C65.7259 11.5582 65.5942 12.6783 65.4367 13.185H55.2099C55.4726 15.6113 56.919 17.2643 59.9157 17.2643C61.8088 17.2643 63.412 16.5174 64.4641 15.718L65.5419 17.7174Z" fill="#15573F"/>
<path d="M55.2628 11.0247L54.9644 10.9938L54.9301 11.3247H55.2628V11.0247ZM63.0441 11.0247V11.3247H63.3093L63.3419 11.0616L63.0441 11.0247ZM65.5419 17.7174L65.7331 17.9485L65.9228 17.7917L65.806 17.575L65.5419 17.7174ZM65.4367 13.185V13.485H65.6576L65.7232 13.2741L65.4367 13.185ZM55.2099 13.185V12.885H54.8756L54.9116 13.2173L55.2099 13.185ZM64.4641 15.718L64.7281 15.5756L64.5618 15.267L64.2826 15.4791L64.4641 15.718ZM63.397 10.2783C63.397 9.41091 63.1039 8.5682 62.4579 7.94269C61.8112 7.3165 60.8423 6.93809 59.5478 6.93809V7.53809C60.7247 7.53809 61.5304 7.8798 62.0405 8.37373C62.5513 8.86834 62.797 9.54576 62.797 10.2783H63.397ZM59.5478 6.93809C56.8019 6.93809 55.1883 8.8307 54.9644 10.9938L55.5612 11.0556C55.7569 9.16499 57.1418 7.53809 59.5478 7.53809V6.93809ZM55.2628 11.3247H63.0441V10.7247H55.2628V11.3247ZM63.3419 11.0616C63.369 10.8424 63.397 10.5361 63.397 10.2783H62.797C62.797 10.5011 62.7722 10.7801 62.7464 10.9878L63.3419 11.0616ZM65.3508 17.4862C63.9907 18.6109 62.088 19.3113 59.837 19.3113V19.9113C62.2125 19.9113 64.2545 19.1714 65.7331 17.9485L65.3508 17.4862ZM59.837 19.3113C57.3129 19.3113 55.5402 18.5208 54.3958 17.2751C53.2473 16.0248 52.6971 14.2783 52.6971 12.3046H52.0971C52.0971 14.3844 52.6773 16.2913 53.954 17.681C55.2348 19.0752 57.182 19.9113 59.837 19.9113V19.3113ZM52.6971 12.3046C52.6971 10.3192 53.3702 8.54847 54.5614 7.27654C55.7503 6.00699 57.4705 5.21797 59.6007 5.21797V4.61797C57.3137 4.61797 55.432 5.46919 54.1234 6.86641C52.8171 8.26125 52.0971 10.1838 52.0971 12.3046H52.6971ZM59.6007 5.21797C61.6259 5.21797 63.0727 5.84922 64.0141 6.83218C64.9582 7.81798 65.4259 9.19082 65.4259 10.7314H66.0259C66.0259 9.07195 65.5209 7.53808 64.4474 6.41717C63.3712 5.29342 61.7553 4.61797 59.6007 4.61797V5.21797ZM65.4259 10.7314C65.4259 11.5431 65.2952 12.6296 65.1503 13.096L65.7232 13.2741C65.8933 12.727 66.0259 11.5734 66.0259 10.7314H65.4259ZM65.4367 12.885H55.2099V13.485H65.4367V12.885ZM54.9116 13.2173C55.0484 14.4804 55.4973 15.5753 56.333 16.354C57.1706 17.1344 58.3614 17.5643 59.9157 17.5643V16.9643C58.4733 16.9643 57.4425 16.5677 56.742 15.915C56.0397 15.2607 55.6341 14.3159 55.5081 13.1527L54.9116 13.2173ZM59.9157 17.5643C61.8872 17.5643 63.5526 16.7873 64.6456 15.9568L64.2826 15.4791C63.2715 16.2474 61.7304 16.9643 59.9157 16.9643V17.5643ZM64.2 15.8603L65.2779 17.8597L65.806 17.575L64.7281 15.5756L64.2 15.8603Z" fill="#15573F"/>
<path fill-rule="evenodd" clip-rule="evenodd" d="M74.2666 5.29127V7.42481C75.2393 5.98517 76.8696 5.05103 78.9989 5.05103C82.5475 5.05103 84.1778 7.74432 84.1778 11.2114V15.5577C84.1778 16.4913 84.4406 17.1309 85.2822 17.1309C85.7553 17.1309 86.2542 16.9443 86.728 16.651L86.9119 18.8644C86.2807 19.2108 85.2822 19.5047 84.2566 19.5047C82.39 19.5047 81.4438 18.4644 81.4438 16.1711V11.6376C81.4438 9.26505 80.313 7.61139 78.0521 7.61139C76.1067 7.61139 74.7397 9.10468 74.2666 10.6248V19.2376H71.5325V5.29127H74.2666Z" fill="#15573F"/>
<path fill-rule="evenodd" clip-rule="evenodd" d="M74.2666 5.29127V7.42481C75.2393 5.98517 76.8696 5.05103 78.9989 5.05103C82.5475 5.05103 84.1778 7.74432 84.1778 11.2114V15.5577C84.1778 16.4913 84.4406 17.1309 85.2822 17.1309C85.7553 17.1309 86.2542 16.9443 86.728 16.651L86.9119 18.8644C86.2807 19.2108 85.2822 19.5047 84.2566 19.5047C82.39 19.5047 81.4438 18.4644 81.4438 16.1711V11.6376C81.4438 9.26505 80.313 7.61139 78.0521 7.61139C76.1067 7.61139 74.7397 9.10468 74.2666 10.6248V19.2376H71.5325V5.29127H74.2666Z" stroke="#15573F" stroke-width="0.6"/>
<path fill-rule="evenodd" clip-rule="evenodd" d="M104.074 1.7453V5.29103H109.437V7.47762H104.074V14.4112C104.074 16.2246 104.863 17.0782 106.282 17.0782C107.334 17.0782 108.569 16.5709 109.332 16.0112L110.226 18.1709C108.99 18.9441 107.36 19.5044 105.467 19.5044C102.917 19.5044 101.34 17.9313 101.34 14.9441V7.47762H98.7633V5.29103H101.34L101.655 1.7453H104.074Z" fill="#1A825A"/>
<path fill-rule="evenodd" clip-rule="evenodd" d="M104.074 1.7453V5.29103H109.437V7.47762H104.074V14.4112C104.074 16.2246 104.863 17.0782 106.282 17.0782C107.334 17.0782 108.569 16.5709 109.332 16.0112L110.226 18.1709C108.99 18.9441 107.36 19.5044 105.467 19.5044C102.917 19.5044 101.34 17.9313 101.34 14.9441V7.47762H98.7633V5.29103H101.34L101.655 1.7453H104.074Z" stroke="#1A825A" stroke-width="0.6"/>
<path fill-rule="evenodd" clip-rule="evenodd" d="M118.057 0.304871V7.39816C119.03 5.9317 120.66 5.05121 122.79 5.05121C126.338 5.05121 127.969 7.7445 127.969 11.2116V15.5579C127.969 16.4915 128.231 17.1311 129.073 17.1311C129.546 17.1311 129.993 16.9445 130.519 16.6512L130.703 18.864C130.098 19.211 129.099 19.5043 128.047 19.5043C126.181 19.5043 125.235 18.464 125.235 16.1713V11.6378C125.235 9.26463 124.104 7.61097 121.843 7.61097C119.897 7.61097 118.53 9.10487 118.057 10.625V19.2378H115.323V0.304871H118.057Z" fill="#1A825A"/>
<path fill-rule="evenodd" clip-rule="evenodd" d="M118.057 0.304871V7.39816C119.03 5.9317 120.66 5.05121 122.79 5.05121C126.338 5.05121 127.969 7.74451 127.969 11.2116V15.5579C127.969 16.4915 128.231 17.1311 129.073 17.1311C129.546 17.1311 129.993 16.9445 130.519 16.6512L130.703 18.864C130.098 19.211 129.099 19.5043 128.047 19.5043C126.181 19.5043 125.235 18.464 125.235 16.1713V11.6378C125.235 9.26463 124.104 7.61097 121.843 7.61097C119.897 7.61097 118.53 9.10487 118.057 10.625V19.2378H115.323V0.304871H118.057Z" stroke="#1A825A" stroke-width="0.6"/>
<path fill-rule="evenodd" clip-rule="evenodd" d="M147.919 5.29126V15.5577C147.919 16.4913 148.156 17.1309 148.997 17.1309C149.496 17.1309 149.969 16.9443 150.469 16.651L150.679 18.8644C150.048 19.2108 148.997 19.5047 147.997 19.5047C146.499 19.5047 145.605 18.8376 145.289 17.3974C144.264 18.7577 142.582 19.5047 140.452 19.5047C136.903 19.5047 135.3 17.0242 135.3 13.3711V5.29126H138.034V12.9711C138.034 15.5309 138.927 16.9443 141.425 16.9443C143.397 16.9443 144.632 15.6913 145.185 14.4644V5.29126H147.919Z" fill="#1A825A"/>
<path fill-rule="evenodd" clip-rule="evenodd" d="M147.919 5.29126V15.5577C147.919 16.4913 148.156 17.1309 148.997 17.1309C149.496 17.1309 149.969 16.9443 150.469 16.651L150.679 18.8644C150.048 19.2108 148.997 19.5047 147.997 19.5047C146.499 19.5047 145.605 18.8376 145.289 17.3974C144.264 18.7577 142.582 19.5047 140.452 19.5047C136.903 19.5047 135.3 17.0242 135.3 13.3711V5.29126H138.034V12.9711C138.034 15.5309 138.927 16.9443 141.425 16.9443C143.397 16.9443 144.632 15.6913 145.185 14.4644V5.29126H147.919Z" stroke="#1A825A" stroke-width="0.6"/>
<path fill-rule="evenodd" clip-rule="evenodd" d="M158.431 5.29127V7.37115C159.377 5.95835 160.928 5.02481 163.032 5.02481C165.503 5.02481 166.922 6.0114 167.606 7.93152C168.474 6.27786 170.182 5.05103 172.601 5.05103C176.15 5.05103 177.622 7.74432 177.622 11.2114V15.5577C177.622 16.4913 177.885 17.1309 178.7 17.1309C179.173 17.1309 179.673 16.9443 180.172 16.651L180.383 18.8644C179.778 19.2108 178.674 19.5047 177.701 19.5047C175.861 19.5047 174.888 18.4644 174.888 16.1712V11.6376C174.888 9.26505 173.863 7.6114 171.602 7.6114C169.709 7.6114 168.5 8.97115 168.053 10.4913V19.2376H165.319V11.6114C165.319 9.23823 164.32 7.6114 162.059 7.6114C160.114 7.6114 158.904 8.99798 158.431 10.5181V19.2376H155.697V5.29127H158.431Z" fill="#1A825A"/>
<path fill-rule="evenodd" clip-rule="evenodd" d="M158.431 5.29127V7.37115C159.377 5.95835 160.928 5.02481 163.032 5.02481C165.503 5.02481 166.922 6.0114 167.606 7.93152C168.474 6.27786 170.182 5.05103 172.601 5.05103C176.15 5.05103 177.622 7.74432 177.622 11.2114V15.5577C177.622 16.4913 177.885 17.1309 178.7 17.1309C179.173 17.1309 179.673 16.9443 180.172 16.651L180.383 18.8644C179.778 19.2108 178.674 19.5047 177.701 19.5047C175.861 19.5047 174.888 18.4644 174.888 16.1712V11.6376C174.888 9.26505 173.863 7.6114 171.602 7.6114C169.709 7.6114 168.5 8.97115 168.053 10.4913V19.2376H165.319V11.6114C165.319 9.23823 164.32 7.6114 162.059 7.6114C160.114 7.6114 158.904 8.99798 158.431 10.5181V19.2376H155.697V5.29127H158.431Z" stroke="#1A825A" stroke-width="0.6"/>
<path fill-rule="evenodd" clip-rule="evenodd" d="M191.577 7.47786C190.052 7.47786 188.685 8.27786 187.896 9.10469V15.5047C188.632 16.2779 190.026 17.0779 191.577 17.0779C194.311 17.0779 196.099 15.1047 196.099 12.251C196.099 9.4242 194.311 7.47786 191.577 7.47786ZM192.313 19.5047C190.341 19.5047 188.869 18.7846 187.896 17.7443V19.2376H185.162V0.304688H187.896V6.73152C188.895 5.74493 190.42 5.05164 192.313 5.05164C196.256 5.05164 198.912 8.03822 198.912 12.251C198.912 16.4644 196.256 19.5047 192.313 19.5047Z" fill="#1A825A"/>
<path d="M187.896 9.10469L187.679 8.89762L187.596 8.98455V9.10469H187.896ZM187.896 15.5047H187.596V15.6247L187.679 15.7116L187.896 15.5047ZM187.896 17.7443L188.115 17.5394L187.596 16.9846V17.7443H187.896ZM187.896 19.2376V19.5376H188.196V19.2376H187.896ZM185.162 19.2376H184.862V19.5376H185.162V19.2376ZM185.162 0.304688V0.00468749H184.862V0.304688H185.162ZM187.896 0.304688H188.196V0.00468749H187.896V0.304688ZM187.896 6.73152H187.596V7.44936L188.107 6.94498L187.896 6.73152ZM191.577 7.17786C189.952 7.17786 188.51 8.02588 187.679 8.89762L188.113 9.31176C188.859 8.52984 190.152 7.77786 191.577 7.77786V7.17786ZM187.596 9.10469V15.5047H188.196V9.10469H187.596ZM187.679 15.7116C188.462 16.5336 189.93 17.3779 191.577 17.3779V16.7779C190.122 16.7779 188.803 16.0222 188.113 15.2978L187.679 15.7116ZM191.577 17.3779C193.02 17.3779 194.232 16.8552 195.083 15.9386C195.931 15.0242 196.399 13.7404 196.399 12.251H195.799C195.799 13.6153 195.372 14.7449 194.643 15.5305C193.916 16.3139 192.868 16.7779 191.577 16.7779V17.3779ZM196.399 12.251C196.399 10.7743 195.931 9.50337 195.082 8.59902C194.231 7.69283 193.018 7.17786 191.577 7.17786V7.77786C192.869 7.77786 193.918 8.23606 194.644 9.00974C195.373 9.78527 195.799 10.9009 195.799 12.251H196.399ZM192.313 19.2047C190.419 19.2047 189.028 18.5156 188.115 17.5394L187.677 17.9493C188.71 19.0535 190.262 19.8047 192.313 19.8047V19.2047ZM187.596 17.7443V19.2376H188.196V17.7443H187.596ZM187.896 18.9376H185.162V19.5376H187.896V18.9376ZM185.462 19.2376V0.304688H184.862V19.2376H185.462ZM185.162 0.604688H187.896V0.00468749H185.162V0.604688ZM187.596 0.304688V6.73152H188.196V0.304688H187.596ZM188.107 6.94498C189.047 6.01671 190.495 5.35164 192.313 5.35164V4.75164C190.345 4.75164 188.743 5.47315 187.685 6.51805L188.107 6.94498ZM192.313 5.35164C194.204 5.35164 195.772 6.06587 196.869 7.27326C197.968 8.4831 198.612 10.2073 198.612 12.251H199.212C199.212 10.0819 198.527 8.20646 197.313 6.8698C196.096 5.5307 194.364 4.75164 192.313 4.75164V5.35164ZM198.612 12.251C198.612 14.2952 197.968 16.0337 196.868 17.2573C195.77 18.4783 194.203 19.2047 192.313 19.2047V19.8047C194.366 19.8047 196.098 19.0109 197.314 17.6585C198.527 16.3086 199.212 14.4203 199.212 12.251H198.612Z" fill="#1A825A"/>
<path fill-rule="evenodd" clip-rule="evenodd" d="M205.98 15.8245C207.163 15.8245 207.846 16.4916 207.846 17.6916C207.846 18.9178 207.163 19.5574 205.98 19.5574C204.797 19.5574 204.139 18.9178 204.139 17.6916C204.139 16.4916 204.797 15.8245 205.98 15.8245Z" fill="#1A825A"/>
<path fill-rule="evenodd" clip-rule="evenodd" d="M205.98 15.8245C207.163 15.8245 207.846 16.4916 207.846 17.6916C207.846 18.9178 207.163 19.5574 205.98 19.5574C204.797 19.5574 204.139 18.9178 204.139 17.6916C204.139 16.4916 204.797 15.8245 205.98 15.8245Z" stroke="#1A825A" stroke-width="0.6"/>
</svg>
