<svg enable-background="new 0 0 36 36" height="512" viewBox="0 0 36 36" width="512" xmlns="http://www.w3.org/2000/svg"><g id="bg"><g><path d="m34.904 20.355c-3.782-5.791-3.38-11.727-5.203-14.518s-7.256-7.603-20.093.782-9.572 17.5-7.566 20.569c9.388 14.372 39.561 3.423 32.862-6.833z" fill="#efefef"/></g></g><g id="color"><g><path d="m23.75 26.75v.5c0 1.105-.895 2-2 2h-12c-1.105 0-2-.895-2-2v-16c0-1.105.895-2 2-2h.5 13.5z" fill="#f3f3f1"/></g><g><path d="m10 26.837v-17.587h-.25c-1.105 0-2 .895-2 2v16c0 1.105.895 2 2 2h2.25c-1.105 0-2-1.08-2-2.413z" fill="#d5dbe1"/></g><g><path d="m28.25 8.75v13.5c0 1.105-.895 2-2 2h-11.5c-1.105 0-2-.895-2-2v-13.5c0-1.105.895-2 2-2h11.5c1.105 0 2 .895 2 2z" fill="#2fdf84"/></g><g><path d="m15 22.25v-13.5c0-1.105.895-2 2-2h-2.25c-1.105 0-2 .895-2 2v13.5c0 1.105.895 2 2 2h2.25c-1.105 0-2-.895-2-2z" fill="#00b871"/></g><g><path d="m30.5 32.25c-.827 0-1.5-.673-1.5-1.5s.673-1.5 1.5-1.5 1.5.673 1.5 1.5-.673 1.5-1.5 1.5zm0-2c-.275 0-.5.224-.5.5s.225.5.5.5.5-.224.5-.5-.225-.5-.5-.5z" fill="#a4afc1"/></g></g><g id="regular"><g><path d="m26.25 25h-11.5c-1.517 0-2.75-1.233-2.75-2.75v-13.5c0-1.517 1.233-2.75 2.75-2.75h11.5c1.517 0 2.75 1.233 2.75 2.75v13.5c0 1.517-1.233 2.75-2.75 2.75zm-11.5-17.5c-.689 0-1.25.561-1.25 1.25v13.5c0 .689.561 1.25 1.25 1.25h11.5c.689 0 1.25-.561 1.25-1.25v-13.5c0-.689-.561-1.25-1.25-1.25z"/></g><g><path d="m21.75 30h-12c-1.517 0-2.75-1.233-2.75-2.75v-16c0-1.517 1.233-2.75 2.75-2.75h.5v1.5h-.5c-.689 0-1.25.561-1.25 1.25v16c0 .689.561 1.25 1.25 1.25h12c.689 0 1.25-.561 1.25-1.25v-.5h1.5v.5c0 1.517-1.233 2.75-2.75 2.75z"/></g><g><path d="m16.75 13h7.5v1.5h-7.5z"/></g><g><path d="m16.75 16h7.5v1.5h-7.5z"/></g><g><path d="m16.75 19h7.5v1.5h-7.5z"/></g></g></svg>