<svg enable-background="new 0 0 36 36" height="512" viewBox="0 0 36 36" width="512" xmlns="http://www.w3.org/2000/svg"><g id="bg"><g><path d="m8.114 5.564c-1.805 6.677-6.504 10.327-7.374 13.545s-.847 10.475 13.955 14.477 19.432-4.501 20.388-8.041c4.481-16.572-23.772-31.807-26.969-19.981z" fill="#efefef"/></g></g><g id="color"><g><circle cx="18" cy="18" fill="#f3f3f1" r="11.25"/></g><g><path d="m9 18c0-5.833 4.44-10.629 10.125-11.193-.37-.037-.745-.057-1.125-.057-6.213 0-11.25 5.037-11.25 11.25s5.037 11.25 11.25 11.25c.38 0 .755-.02 1.125-.057-5.685-.564-10.125-5.36-10.125-11.193z" fill="#d5dbe1"/></g><g><circle cx="18" cy="18" fill="#2fdf84" r="7.25"/></g><g><path d="m13 18c0-3.62 2.657-6.612 6.125-7.154-.368-.057-.741-.096-1.125-.096-4.004 0-7.25 3.246-7.25 7.25s3.246 7.25 7.25 7.25c.384 0 .757-.039 1.125-.096-3.468-.542-6.125-3.534-6.125-7.154z" fill="#00b871"/></g><g><circle cx="18" cy="18" fill="#f3f3f1" r="3.25"/></g><g><g><path d="m4.957 4.467h1v2h-1z" fill="#a4afc1" transform="matrix(.707 -.707 .707 .707 -2.268 5.46)"/></g><g><path d="m4.28 9.033h2v1h-2z" fill="#a4afc1" transform="matrix(.707 -.707 .707 .707 -5.194 6.526)"/></g><g><path d="m8.346 4.967h2v1h-2z" fill="#a4afc1" transform="matrix(.707 -.707 .707 .707 -1.129 8.21)"/></g></g></g><g id="regular"><g><path d="m18 30c-6.617 0-12-5.383-12-12s5.383-12 12-12 12 5.383 12 12-5.383 12-12 12zm0-22.5c-5.79 0-10.5 4.71-10.5 10.5s4.71 10.5 10.5 10.5 10.5-4.71 10.5-10.5-4.71-10.5-10.5-10.5z"/></g><g><path d="m18 26c-4.411 0-8-3.589-8-8s3.589-8 8-8 8 3.589 8 8c0 2.137-.832 4.146-2.343 5.657l-1.061-1.061c1.228-1.227 1.904-2.86 1.904-4.596 0-3.584-2.916-6.5-6.5-6.5s-6.5 2.916-6.5 6.5 2.916 6.5 6.5 6.5c1.187 0 2.347-.322 3.356-.932l.776 1.283c-1.243.752-2.672 1.149-4.132 1.149z"/></g><g><path d="m18 22c-2.206 0-4-1.794-4-4s1.794-4 4-4 4 1.794 4 4-1.794 4-4 4zm0-6.5c-1.378 0-2.5 1.122-2.5 2.5s1.122 2.5 2.5 2.5 2.5-1.122 2.5-2.5-1.122-2.5-2.5-2.5z"/></g></g></svg>