<svg id="Layer_2" data-name="Layer 2" xmlns="http://www.w3.org/2000/svg" xmlns:xlink="http://www.w3.org/1999/xlink" viewBox="0 0 400 300"><defs><linearGradient id="linear-gradient" x1="156.47" y1="264.43" x2="205.08" y2="208.02" gradientUnits="userSpaceOnUse"><stop offset="0.01" stop-color="#2e3192" stop-opacity="0"/><stop offset="1" stop-color="#0071bc"/></linearGradient><linearGradient id="linear-gradient-2" x1="114.04" y1="227.87" x2="162.66" y2="171.46" xlink:href="#linear-gradient"/><linearGradient id="linear-gradient-3" x1="319.96" y1="211.61" x2="338.31" y2="196.24" xlink:href="#linear-gradient"/><linearGradient id="linear-gradient-4" x1="161.85" y1="166.22" x2="201.9" y2="132.68" gradientUnits="userSpaceOnUse"><stop offset="0.01" stop-color="#2e3192" stop-opacity="0"/><stop offset="1" stop-color="#9e005d"/></linearGradient></defs><title>PP</title><path d="M196.24,288.6,23.74,186.65c-5.49-3.08-10.2-8.15-4.85-11.46L192,75.41c2.6-1.61,6.54-2.66,9.18-1.13L382.28,179.37c5.49,3.19,6.48,12.1,1,15.29L219,288.44A22.94,22.94,0,0,1,196.24,288.6Z" fill="#ffe41f"/><path d="M310.08,132.65c-.1.21-.62,2.15-1,1.74s-2.56.52-2.56.52l-6-7.65.8-2.5h5.42" fill="#68e1fd"/><path d="M281,99.69l-.57-2-6.33-3.45V83.48c0-.21,6.12,3.6,6.12,3.6l.29-.6a14.46,14.46,0,0,1,1.86-4.66l-4.45-8.22,5.66-4.3,4.23,8.48,0,0a9.63,9.63,0,0,1,4.67.08V69.73l8.09,4.49v8.51a35.8,35.8,0,0,1,4.32,5l4.88-3.12,5.51,10.48L311,98.55l.37,1.76a48.06,48.06,0,0,1,1.35,5.67l6.49,3.57v10.73L313,116.59a13.91,13.91,0,0,1-2,5.5l4.63,7.86-5.87,4.44-4.12-8.09h-5.13v8.09l-7.72-4.71v-8a31.9,31.9,0,0,1-4.66-5.77l-4.65,3.18-5.6-10.71,4.65-3.44-.46-1.61C281.67,102.14,281.31,100.91,281,99.69Z" fill="#68e1fd"/><polyline points="266.36 87.96 273.51 83.64 275.29 86.28 272.53 92.07" fill="#68e1fd"/><polyline points="275.71 123.63 281.01 121.43 281.01 118.22" fill="#68e1fd"/><polygon points="292.74 138.88 300.51 134.39 298.54 128.51 291.55 130.57 292.74 138.88" fill="#68e1fd"/><polygon points="283.6 69.29 275.82 73.77 280.09 82.28 284.75 82.36 285.83 73.77 283.6 69.29" fill="#68e1fd"/><ellipse cx="288.36" cy="106.4" rx="3.51" ry="6.03" transform="translate(-18.94 112.84) rotate(-21.45)" fill="#68e1fd"/><polygon points="300.62 74.22 292.84 78.7 284.75 74.22 292.53 69.73 300.62 74.22" fill="#68e1fd"/><polygon points="302.04 89.07 309.82 84.59 315.33 95.07 307.55 99.56 302.04 89.07" fill="#68e1fd"/><polygon points="315.64 129.95 307.86 134.44 301.99 138.88 309.77 134.39 315.64 129.95" fill="#68e1fd"/><path d="M310.08,132.65c-.1.21-.62,2.15-1,1.74s-2.56.52-2.56.52l-6-7.65.8-2.5h5.42" fill="#053855" opacity="0.44"/><path d="M281,99.69l-.57-2-6.33-3.45V83.48c0-.21,6.12,3.6,6.12,3.6l.29-.6a14.46,14.46,0,0,1,1.86-4.66l-4.45-8.22,5.66-4.3,4.23,8.48,0,0a9.63,9.63,0,0,1,4.67.08V69.73l8.09,4.49v8.51a35.8,35.8,0,0,1,4.32,5l4.88-3.12,5.51,10.48L311,98.55l.37,1.76a48.06,48.06,0,0,1,1.35,5.67l6.49,3.57v10.73L313,116.59a13.91,13.91,0,0,1-2,5.5l4.63,7.86-5.87,4.44-4.12-8.09h-5.13v8.09l-7.72-4.71v-8a31.9,31.9,0,0,1-4.66-5.77l-4.65,3.18-5.6-10.71,4.65-3.44-.46-1.61C281.67,102.14,281.31,100.91,281,99.69Z" fill="#68e1fd"/><polyline points="266.36 87.96 273.51 83.64 275.29 86.28 272.53 92.07" fill="#053855" opacity="0.44"/><polyline points="275.71 123.63 281.01 121.43 281.01 118.22" fill="#68e1fd"/><polygon points="292.74 138.88 300.51 134.39 298.54 128.51 291.55 130.57 292.74 138.88" fill="#68e1fd"/><polygon points="283.6 69.29 275.82 73.77 280.09 82.28 284.75 82.36 285.83 73.77 283.6 69.29" fill="#68e1fd"/><ellipse cx="288.36" cy="106.4" rx="3.51" ry="6.03" transform="translate(-18.94 112.84) rotate(-21.45)" fill="#68e1fd"/><polygon points="302.04 89.07 309.82 84.59 315.33 95.07 307.55 99.56 302.04 89.07" fill="#68e1fd"/><polygon points="315.64 129.95 307.86 134.44 301.99 138.88 309.77 134.39 315.64 129.95" fill="#68e1fd"/><path d="M281,99.69l-.57-2-6.33-3.45V83.48c0-.21,6.12,3.6,6.12,3.6l.29-.6a14.46,14.46,0,0,1,1.86-4.66l-4.45-8.22,5.66-4.3,4.23,8.48,0,0a9.63,9.63,0,0,1,4.67.08V69.73l8.09,4.49v8.51a35.8,35.8,0,0,1,4.32,5l4.88-3.12,5.51,10.48L311,98.55l.37,1.76a48.06,48.06,0,0,1,1.35,5.67l6.49,3.57v10.73L313,116.59a13.91,13.91,0,0,1-2,5.5l4.63,7.86-5.87,4.44-4.12-8.09h-5.13v8.09l-7.72-4.71v-8a31.9,31.9,0,0,1-4.66-5.77l-4.65,3.18-5.6-10.71,4.65-3.44-.46-1.61C281.67,102.14,281.31,100.91,281,99.69Z" fill="#053855" opacity="0.44"/><polyline points="275.71 123.63 281.01 121.43 281.01 118.22" fill="#053855" opacity="0.1"/><polygon points="292.74 138.88 300.51 134.39 298.54 128.51 291.55 130.57 292.74 138.88" fill="#053855" opacity="0.1"/><ellipse cx="288.36" cy="106.4" rx="3.51" ry="6.03" transform="translate(-18.94 112.84) rotate(-21.45)" fill="#053855" opacity="0.1"/><polygon points="302.04 89.07 309.82 84.59 315.33 95.07 307.55 99.56 302.04 89.07" fill="#053855" opacity="0.1"/><polygon points="315.64 129.95 307.86 134.44 301.99 138.88 309.77 134.39 315.64 129.95" fill="#053855" opacity="0.1"/><polyline points="275.71 123.63 281.01 121.43 281.01 118.22" fill="#053855" opacity="0.1"/><polygon points="292.74 138.88 300.51 134.39 298.54 128.51 291.55 130.57 292.74 138.88" fill="#053855" opacity="0.44"/><path d="M273.25,104.17l-.57-2-6.33-3.45V88c0-.21,6.12,3.6,6.12,3.6l.29-.6a14.46,14.46,0,0,1,1.86-4.66l-4.45-8.22,5.66-4.3L280,82.25l0,0a9.63,9.63,0,0,1,4.67.08V74.22l8.09,4.49v8.51a35.8,35.8,0,0,1,4.32,5L302,89.07l5.51,10.48L303.19,103l.37,1.76a48.06,48.06,0,0,1,1.35,5.67L311.4,114v10.73l-6.18-3.69a13.91,13.91,0,0,1-2,5.5l4.63,7.86L302,138.88l-4.12-8.09h-5.13v8.09L285,134.17v-8a31.9,31.9,0,0,1-4.66-5.77l-4.65,3.18-5.6-10.71,4.65-3.44-.46-1.61C273.89,106.63,273.54,105.39,273.25,104.17Z" fill="#68e1fd"/><ellipse cx="288.36" cy="106.4" rx="3.51" ry="6.03" transform="translate(-18.94 112.84) rotate(-21.45)" fill="#053855" opacity="0.44"/><polygon points="315.64 129.95 307.86 134.44 301.99 138.88 309.77 134.39 315.64 129.95" fill="#053855" opacity="0.44"/><polygon points="300.62 74.22 292.84 78.7 284.75 74.22 292.53 69.73 300.62 74.22" fill="#68e1fd"/><polygon points="300.62 74.19 292.86 78.7 284.75 74.25 292.51 69.73 300.62 74.19" fill="#053855" opacity="0.44"/><polygon points="319.18 109.54 311.4 114.03 311.4 124.76 319.18 120.28 319.18 109.54" fill="#68e1fd"/><polygon points="319.18 109.54 311.4 114.03 311.4 124.76 319.18 120.28 319.18 109.54" fill="#053855" opacity="0.44"/><path d="M255.74,71.34c-.08.15-.46,1.6-.76,1.29s-1.9.38-1.9.38l-4.47-5.68.59-1.86h4" fill="#68e1fd"/><path d="M234.17,46.87l-.42-1.47-4.7-2.56v-8c0-.16,4.54,2.67,4.54,2.67l.21-.45a10.73,10.73,0,0,1,1.38-3.46l-3.31-6.11,4.2-3.19,3.14,6.29,0,0a7.15,7.15,0,0,1,3.46.06v-6l6,3.33v6.32A26.58,26.58,0,0,1,251.92,38l3.62-2.31,4.09,7.78L256.39,46l.28,1.31a35.68,35.68,0,0,1,1,4.21l4.82,2.65v8l-4.59-2.74a10.32,10.32,0,0,1-1.48,4.08l3.44,5.84-4.36,3.3-3.06-6h-3.81v6l-5.73-3.49v-5.9A23.69,23.69,0,0,1,239.45,59L236,61.31l-4.16-7.95,3.45-2.55L235,49.62C234.64,48.69,234.38,47.77,234.17,46.87Z" fill="#68e1fd"/><polyline points="223.28 38.16 228.59 34.95 229.91 36.91 227.86 41.22" fill="#68e1fd"/><polyline points="230.22 64.64 234.16 63.01 234.16 60.63" fill="#68e1fd"/><polygon points="242.86 75.96 248.64 72.64 247.17 68.27 241.98 69.8 242.86 75.96" fill="#68e1fd"/><polygon points="236.08 24.3 230.3 27.63 233.47 33.94 236.94 34 237.74 27.63 236.08 24.3" fill="#68e1fd"/><ellipse cx="239.61" cy="51.85" rx="2.6" ry="4.48" transform="translate(-2.36 91.23) rotate(-21.45)" fill="#68e1fd"/><polygon points="248.72 27.96 242.94 31.29 236.94 27.96 242.71 24.63 248.72 27.96" fill="#68e1fd"/><polygon points="249.77 38.99 255.55 35.66 259.64 43.44 253.86 46.77 249.77 38.99" fill="#68e1fd"/><polygon points="259.86 69.34 254.09 72.67 249.73 75.96 255.51 72.64 259.86 69.34" fill="#68e1fd"/><path d="M255.74,71.34c-.08.15-.46,1.6-.76,1.29s-1.9.38-1.9.38l-4.47-5.68.59-1.86h4" fill="#053855" opacity="0.44"/><path d="M234.17,46.87l-.42-1.47-4.7-2.56v-8c0-.16,4.54,2.67,4.54,2.67l.21-.45a10.73,10.73,0,0,1,1.38-3.46l-3.31-6.11,4.2-3.19,3.14,6.29,0,0a7.15,7.15,0,0,1,3.46.06v-6l6,3.33v6.32A26.58,26.58,0,0,1,251.92,38l3.62-2.31,4.09,7.78L256.39,46l.28,1.31a35.68,35.68,0,0,1,1,4.21l4.82,2.65v8l-4.59-2.74a10.32,10.32,0,0,1-1.48,4.08l3.44,5.84-4.36,3.3-3.06-6h-3.81v6l-5.73-3.49v-5.9A23.69,23.69,0,0,1,239.45,59L236,61.31l-4.16-7.95,3.45-2.55L235,49.62C234.64,48.69,234.38,47.77,234.17,46.87Z" fill="#68e1fd"/><polyline points="223.28 38.16 228.59 34.95 229.91 36.91 227.86 41.22" fill="#053855" opacity="0.44"/><polyline points="230.22 64.64 234.16 63.01 234.16 60.63" fill="#68e1fd"/><polygon points="242.86 75.96 248.64 72.64 247.17 68.27 241.98 69.8 242.86 75.96" fill="#68e1fd"/><polygon points="236.08 24.3 230.3 27.63 233.47 33.94 236.94 34 237.74 27.63 236.08 24.3" fill="#68e1fd"/><ellipse cx="239.61" cy="51.85" rx="2.6" ry="4.48" transform="translate(-2.36 91.23) rotate(-21.45)" fill="#68e1fd"/><polygon points="249.77 38.99 255.55 35.66 259.64 43.44 253.86 46.77 249.77 38.99" fill="#68e1fd"/><polygon points="259.86 69.34 254.09 72.67 249.73 75.96 255.51 72.64 259.86 69.34" fill="#68e1fd"/><path d="M234.17,46.87l-.42-1.47-4.7-2.56v-8c0-.16,4.54,2.67,4.54,2.67l.21-.45a10.73,10.73,0,0,1,1.38-3.46l-3.31-6.11,4.2-3.19,3.14,6.29,0,0a7.15,7.15,0,0,1,3.46.06v-6l6,3.33v6.32A26.58,26.58,0,0,1,251.92,38l3.62-2.31,4.09,7.78L256.39,46l.28,1.31a35.68,35.68,0,0,1,1,4.21l4.82,2.65v8l-4.59-2.74a10.32,10.32,0,0,1-1.48,4.08l3.44,5.84-4.36,3.3-3.06-6h-3.81v6l-5.73-3.49v-5.9A23.69,23.69,0,0,1,239.45,59L236,61.31l-4.16-7.95,3.45-2.55L235,49.62C234.64,48.69,234.38,47.77,234.17,46.87Z" fill="#053855" opacity="0.44"/><polyline points="230.22 64.64 234.16 63.01 234.16 60.63" fill="#053855" opacity="0.1"/><polygon points="242.86 75.96 248.64 72.64 247.17 68.27 241.98 69.8 242.86 75.96" fill="#053855" opacity="0.1"/><ellipse cx="239.61" cy="51.85" rx="2.6" ry="4.48" transform="translate(-2.36 91.23) rotate(-21.45)" fill="#053855" opacity="0.1"/><polygon points="249.77 38.99 255.55 35.66 259.64 43.44 253.86 46.77 249.77 38.99" fill="#053855" opacity="0.1"/><polygon points="259.86 69.34 254.09 72.67 249.73 75.96 255.51 72.64 259.86 69.34" fill="#053855" opacity="0.1"/><polyline points="230.22 64.64 234.16 63.01 234.16 60.63" fill="#053855" opacity="0.1"/><polygon points="242.86 75.96 248.64 72.64 247.17 68.27 241.98 69.8 242.86 75.96" fill="#053855" opacity="0.44"/><path d="M228.39,50.2,228,48.72l-4.7-2.56v-8c0-.16,4.54,2.67,4.54,2.67l.21-.45a10.73,10.73,0,0,1,1.38-3.46l-3.31-6.11,4.2-3.19,3.14,6.29,0,0a7.15,7.15,0,0,1,3.46.06V28l6,3.33v6.32a26.58,26.58,0,0,1,3.21,3.69L249.77,39l4.09,7.78-3.24,2.58.28,1.31a35.68,35.68,0,0,1,1,4.21l4.82,2.65v8l-4.59-2.74a10.32,10.32,0,0,1-1.48,4.08l3.44,5.84L249.73,76l-3.06-6h-3.81v6l-5.73-3.49v-5.9a23.69,23.69,0,0,1-3.46-4.28l-3.45,2.36-4.16-7.95,3.45-2.55-.34-1.19C228.87,52,228.61,51.1,228.39,50.2Z" fill="#68e1fd"/><ellipse cx="239.61" cy="51.85" rx="2.6" ry="4.48" transform="translate(-2.36 91.23) rotate(-21.45)" fill="#053855" opacity="0.44"/><polygon points="259.86 69.34 254.09 72.67 249.73 75.96 255.51 72.64 259.86 69.34" fill="#053855" opacity="0.44"/><polygon points="248.72 27.96 242.94 31.29 236.94 27.96 242.71 24.63 248.72 27.96" fill="#68e1fd"/><polygon points="248.72 27.94 242.96 31.29 236.94 27.98 242.7 24.63 248.72 27.94" fill="#053855" opacity="0.44"/><polygon points="262.49 54.19 256.72 57.52 256.72 65.48 262.49 62.16 262.49 54.19" fill="#68e1fd"/><polygon points="262.49 54.19 256.72 57.52 256.72 65.48 262.49 62.16 262.49 54.19" fill="#053855" opacity="0.44"/><path d="M245.47,20.52c8.66,6.65,16.89,15.1,25.24,22.43C284,54.59,297.23,66.36,308.84,79.7c10.5,12.06,19.3,26.36,17.58,43a47,47,0,0,1-1.08,6.23,43.66,43.66,0,0,1-3.09,8.63c-4,8.31-11.9,13.09-21.12,10.92-10.38-2.44-17.53-11.14-24.33-18.75-9.79-11-18.51-22.8-27.35-34.52-8.2-10.88-18.11-20.91-25.2-32.58,0,0-13.76-22.72-4.73-38.8S245.47,20.52,245.47,20.52Z" fill="none" stroke="#2e3192" stroke-linecap="round" stroke-miterlimit="10" stroke-width="2" stroke-dasharray="4 7.01"/><path d="M178.77,256.64l-54.3-17.09,71.06-39.48,17.69-9.83L258,208.66C252.86,211.77,183.78,253.4,178.77,256.64Z" opacity="0.48" fill="url(#linear-gradient)"/><polyline points="187.49 193.62 172.82 173.26 153.71 166.56 124.47 179.47 78.9 208.04 124.47 239.55 185.81 205.19" opacity="0.48" fill="url(#linear-gradient-2)"/><path d="M208.24,119.62,211,122l-.42,71.66,2.49,1.64,3.42-2.14L220,119.62C216.85,119.59,211.35,119.75,208.24,119.62Z" fill="#f2f2f2"/><polyline points="175.14 150.95 150.9 165.99 150.6 172.26 176.17 155.34" fill="#e27623"/><path d="M175.44,140.72l13,36.66-1.82,1.23a11.85,11.85,0,0,1-1.48-.78c-.59-.39-16.24-38.35-16.24-38.35" fill="#e27623"/><polyline points="151.01 135.13 145.5 157.72 149.23 201.85 150.9 202.78 152.99 201.25 151.51 157.26 156.34 134.75" fill="#e27623"/><path d="M178.61,130.51s1.13,4.84-.36,7.68-6.44-3.61-6.44-3.61" fill="#ffb469"/><polyline points="153.26 105.48 155.52 123.3 151 126.06 148.78 106.95" fill="#ca6b00"/><polyline points="124.74 120.74 123.31 145.14 122.64 180.94 124.78 182 126.72 180.58 128.78 145.31 130.07 120.36" fill="#e27623"/><path d="M128.14,123.53c-1.29.5-4.27-1.38-5.22-2.66-5.17-7-4.53-17,3.51-22.22,3.56-2.31,7.24-4.62,10.78-7,3.14-2.1,6.5-3.94,9.53-6.21a7.29,7.29,0,0,1,1.27-.82,4.52,4.52,0,0,1,4.88,1.29" fill="#ffb469"/><path d="M127.77,123.24c-2.24.08-3.74-2.79-4.52-4.49-2.16-4.67-3.16-13.76,2.11-16.89a.66.66,0,0,0,.35-.55l10.06-6.8,7.78-5.26c1.36-.92,2.64-1.95,4-2.87s2.69-2,4.31-1.15c1.79.91,2.16,2.83,2.56,4.63a29.06,29.06,0,0,1,.24,12.6c-.66,2.78-2.68,4.79-5,6.35l-7.23,4.9-13.4,9a3,3,0,0,1-.7.39A2.09,2.09,0,0,1,127.77,123.24Z" fill="#fcbd4c"/><path d="M127.62,142.71l-.41.27a10.52,10.52,0,0,0-3,2.58c-1.93,2.81.33,5.7,2.57,7.42,6,4.65,14.95,8.17,22.52,5.76,6.59-2.1,12.63-5.68,18.26-9.64,4.62-3.24,10.4-7.17,11.23-13.24a8.67,8.67,0,0,0-2.82-7.29c-13.09-13.16-29.18,1.21-40.65,8.92Z" fill="#ffb469"/><path d="M123.46,143.56c-.09.1-.35,4,.12,5.14a14.48,14.48,0,0,0,3.82,4.72c1.49,1,.08-6.81.08-6.81" fill="#ffb469"/><path d="M127.38,139.34l-.41.27a10.52,10.52,0,0,0-3,2.58c-1.93,2.81.33,5.7,2.57,7.42,6,4.65,14.95,8.17,22.52,5.76,6.59-2.1,12.63-5.68,18.26-9.64,4.62-3.24,10.4-7.17,11.23-13.24a8.67,8.67,0,0,0-2.82-7.29c-13.09-13.16-29.18,1.21-40.65,8.92Z" fill="#fcbd4c"/><path d="M143.07,161.78l.94,68.7,2.49,1.64,3.42-2.14,2.52-67.62Q147.75,162.12,143.07,161.78Z" fill="#f2f2f2"/><path d="M249.54,140.5l2.52,67.65,3.42,2.14,2.49-1.64.49-73.52C255.29,135.14,252.56,141.28,249.54,140.5Z" fill="#f2f2f2"/><path d="M205.58,207.29a25.43,25.43,0,0,0-5.05-3.08c-1.87-.81-7.23-7.08-7.63-7.71s-1.31-3.61-2.27-3.82-3.13.94-3.13.94-3-3.11-5.64-2.12c0,0-2.43,1.29-2.38,8.22a1.63,1.63,0,0,0-.23.17,28.18,28.18,0,0,0-.26,3.27,9.22,9.22,0,0,0,4,3.68c2.12,1.11,6.72,5,9.7,5.79s8.85.48,10.82-.28a3.53,3.53,0,0,0,2.38-2.88A3.09,3.09,0,0,0,205.58,207.29Z" fill="#e05e00"/><path d="M188.11,193.36s-3.56-2.94-6.26-1.86-2.36,7.3-2.36,7.3,0,3.55,4.31,5.62,3.58,3.91,9.2,5.65,11.58.35,12.67-1.35-2.42-3.18-2.67-3.4-5.28-3.31-6.42-4.86-3.17-4.21-3.9-5.53-1-2.5-2.36-2.39A4.15,4.15,0,0,0,188.11,193.36Z" fill="#ffc019"/><path d="M198.54,202.09h0a13.48,13.48,0,0,0-2.24-.27q.22-.67.43-1.35a7.89,7.89,0,0,1-.54-.62l-.05,0a9.13,9.13,0,0,0-1.66-.15l.48-.87a.37.37,0,0,0,0-.25.31.31,0,0,0-.22-.28.4.4,0,0,0-.21,0c-.64-.12-1.28-.23-1.91-.31q.3-.49.64-1c.29-.4-.37-.79-.67-.39a12.9,12.9,0,0,0-.81,1.26,10.78,10.78,0,0,0-3.42.21c-.48.12-.28.86.21.74a9.62,9.62,0,0,1,2.82-.21,13.16,13.16,0,0,0-.76,1.95c-.38.23,0,.84.43.64a8.1,8.1,0,0,1,2.05-.61l-.5,1a4.94,4.94,0,0,0-.24.51.55.55,0,0,1-.07.14h0a.39.39,0,0,0,.25.73,12.7,12.7,0,0,1,2.63-.41q-.32.93-.67,1.86a.39.39,0,0,0,.57.44,27.26,27.26,0,0,1,3.52-2l.11,0a.38.38,0,0,0,.47-.31C199,202.45,198.75,202.27,198.54,202.09Zm-7-1.88a12.19,12.19,0,0,1,.65-1.5c.59.07,1.18.16,1.76.27l-.44.81A9,9,0,0,0,191.58,200.21Zm1.77,1.84c.12-.29.21-.58.32-.79l.38-.74a8.31,8.31,0,0,1,1.8.12q-.19.59-.39,1.18A13.39,13.39,0,0,0,193.35,202Zm2.3,1.57.36-1a12.31,12.31,0,0,1,1.31.09C196.76,203,196.2,203.28,195.65,203.61Z" fill="#e05e00"/><path d="M192.88,210.38a25.43,25.43,0,0,0-5.05-3.08c-1.87-.81-7.23-7.08-7.63-7.71s-1.31-3.61-2.27-3.82-3.13.94-3.13.94-3-3.11-5.64-2.12c0,0-2.43,1.29-2.38,8.22a1.63,1.63,0,0,0-.23.17,28.18,28.18,0,0,0-.26,3.27,9.22,9.22,0,0,0,4,3.68c2.12,1.11,6.72,5,9.7,5.79s8.85.48,10.82-.28a3.53,3.53,0,0,0,2.38-2.88A3.09,3.09,0,0,0,192.88,210.38Z" fill="#e05e00"/><path d="M175.41,196.45s-3.56-2.94-6.26-1.86-2.36,7.3-2.36,7.3,0,3.55,4.31,5.62,3.58,3.91,9.2,5.65,11.58.35,12.67-1.35-2.42-3.18-2.67-3.4-5.28-3.31-6.42-4.86-3.17-4.21-3.9-5.53-1-2.5-2.36-2.39A4.15,4.15,0,0,0,175.41,196.45Z" fill="#ffc019"/><path d="M185.83,205.18h0a13.48,13.48,0,0,0-2.24-.27q.22-.67.43-1.35a7.89,7.89,0,0,1-.54-.62l-.05,0a9.13,9.13,0,0,0-1.66-.15l.48-.87a.37.37,0,0,0,0-.25.31.31,0,0,0-.22-.28.4.4,0,0,0-.21,0c-.64-.12-1.28-.23-1.91-.31q.3-.49.64-1c.29-.4-.37-.79-.67-.39a12.9,12.9,0,0,0-.81,1.26,10.78,10.78,0,0,0-3.42.21c-.48.12-.28.86.21.74a9.62,9.62,0,0,1,2.82-.21,13.16,13.16,0,0,0-.76,1.95c-.38.23,0,.84.43.64a8.1,8.1,0,0,1,2.05-.61l-.5,1a4.94,4.94,0,0,0-.24.51.55.55,0,0,1-.07.14h0a.39.39,0,0,0,.25.73,12.7,12.7,0,0,1,2.63-.41q-.32.93-.67,1.86a.39.39,0,0,0,.57.44,27.26,27.26,0,0,1,3.52-2l.11,0a.38.38,0,0,0,.47-.31C186.26,205.54,186,205.36,185.83,205.18Zm-7-1.88a12.19,12.19,0,0,1,.65-1.5c.59.07,1.18.16,1.76.27l-.44.81A9,9,0,0,0,178.88,203.31Zm1.77,1.84c.12-.29.21-.58.32-.79l.38-.74a8.31,8.31,0,0,1,1.8.12q-.19.59-.39,1.18A13.39,13.39,0,0,0,180.65,205.14Zm2.3,1.57.36-1a12.31,12.31,0,0,1,1.31.09C184.05,206.06,183.5,206.38,183,206.71Z" fill="#e05e00"/><path d="M164.55,118.69c.84,1.75,27,26.92,30.69,34s-2.46,40.75-2.46,40.75-7.32,3.26-13-.31c0,0-.32-27.88-2-29.8s-21.94-18.37-24-21.71,5.8-22.18,5.8-22.18" fill="#68e1fd"/><path d="M158.54,122.68c.84,1.75,21.33,27.61,25,34.66s-2.46,40.75-2.46,40.75-7.32,3.26-13-.31c0,0-.32-27.88-2-29.8s-22.28-18.17-24-21.71c-5.45-10.9.41-25,.41-25" fill="#68e1fd"/><path d="M169.11,108.65c.37-4.2,1.37-8.31,1.73-12.51.81-9.46-4.72-15.38-13.24-16.82a55.93,55.93,0,0,0-13,10c-3.88,4.36-3.61,22.51-3.61,22.51.77,5,.32,8.85.56,11.56,6.38,6.51,18,3.26,25.84-1.48C168.75,117.62,168.72,113.12,169.11,108.65Z" fill="#8fdb5e"/><path d="M154.51,77.58,154,83.9s1.95,1.59,7.59-.26l.8-3.66" fill="#efbd95"/><path d="M156.23,70.9h-.87a.52.52,0,0,0,0,1h.87A.52.52,0,0,0,156.23,70.9Z" fill="#1c5028"/><path d="M163.65,75.35A8,8,0,0,1,155.52,77c-.63-.22-.9.78-.28,1a9,9,0,0,0,9.14-1.89C164.88,75.63,164.14,74.9,163.65,75.35Z" fill="#1c5028"/><path d="M167.36,68.65s-.95,12.81-4.19,13.42-6.8-1-7.93-2.67-3.51-9.7-2.36-11.18S165.55,66.31,167.36,68.65Z" fill="#ffdab6"/><path d="M169.47,64.13a5.22,5.22,0,0,0-2.26-.35,5.05,5.05,0,0,0-1.75-2.8,5.29,5.29,0,0,0-5.52-.45,4,4,0,0,0-.85.6,4.72,4.72,0,0,0-3.66-1.24A4,4,0,0,0,152,62.53a3.35,3.35,0,0,0-.16,1.24,3.8,3.8,0,0,0-3.41,2.66,3.77,3.77,0,0,0,.47,3.31,3.32,3.32,0,0,0-.74,3.51,3.69,3.69,0,0,0,3,2.33,3.52,3.52,0,0,0-.1,1.89c.67,1.52,2.51,2.15,4.21,2.54.07-.8.15-1.61.2-2.41a.87.87,0,0,1,.06-.22,7.13,7.13,0,0,1-1.44-1.78c-.54-.88-.93-2.13,0-2.93a1.87,1.87,0,0,1,2.85.64,9.74,9.74,0,0,1,.63-1.19h0c.82-2.05,2.95-2.27,5-2.28,3,1.61,7.5,2.77,8.74-1.11A3.62,3.62,0,0,0,169.47,64.13Z" fill="#ff8e0e"/><path d="M176.94,180.32l2.8,2.36-.42,71.66,2.49,1.64,3.42-2.14,3.43-73.51C185.55,180.29,180,180.45,176.94,180.32Z" fill="#f2f2f2"/><polygon points="258.47 128.22 258.47 135.14 254.22 135.14 258.47 128.22" fill="#d3514a"/><polygon points="140.27 160.4 140.27 154.5 144.02 159.21 140.27 160.4" fill="#d3514a"/><path d="M199.42,118.13l-51.25,29.28s-16.47,11-1.83,23.79,34.78,12.81,47.59,7.32,58.57-32.95,58.57-32.95,17.5-13.15-7.32-27.45A44.47,44.47,0,0,0,199.42,118.13Z" fill="#d3514a"/><path d="M199.42,112.5l-51.25,29.28s-16.47,11-1.83,23.79,34.78,12.81,47.59,7.32,58.57-32.95,58.57-32.95,17.5-13.15-7.32-27.45A44.47,44.47,0,0,0,199.42,112.5Z" fill="#f1756b"/><path d="M345.88,200.87,341.68,195l-5.49-1.92-8.39,3.71L314.72,205l10.54,7.29C332.07,208.4,339.18,205,345.88,200.87Z" opacity="0.48" fill="url(#linear-gradient-3)"/><path d="M324.58,152.93a8,8,0,0,1,3.9.76,6.34,6.34,0,0,1,2.75,3.14c.6,1.26.87,3.06,2.11,3.88a3.67,3.67,0,0,1,1.24,1.07,3.22,3.22,0,0,1,.38,3c-.55,1.11-2.86,1.79-3.92,1.59" fill="#8fdb5e"/><path d="M323.56,153.07a7.54,7.54,0,0,0-6.65,5.71,10,10,0,0,0,0,4.7c.3,1.25,1,3.41,2.56,3.5,2.06.13,2.72-1.8,3.37-3.38s1.33-3.32,3-3.94a4.43,4.43,0,0,1,4.75,1.07Z" fill="#1e8c0e"/><path d="M333,161.42c-1.24-1.61-2.27-3.36-3.47-5a14.88,14.88,0,0,0-2.41-2.92c-2.86-1.39-6.46-.11-8.57,2.32.29.09.69.11.92.19a8.14,8.14,0,0,1,3.27,2.32c1.27,1.4,2.25,3.11,3.37,4.6,1.82,2.41,4.23,4.4,7.35,3C335.4,165,333.84,162.56,333,161.42Z" fill="#8fdb5e"/><path d="M343.06,140.74s6.44-.51,6.32,9.68-9.75,3.49-7.63-2.65" fill="#1e8c0e"/><path d="M342.13,150.76c-.07-3.1,3.41-5.36,6.35-5.76a6,6,0,0,0-5.83-4.55c-4.41.11-7.72,4.6-8.46,9.88a10.11,10.11,0,0,0,3.24,8.63l2.13,1.82C343.49,159.24,342,153.59,342.13,150.76Z" fill="#8fdb5e"/><path d="M359.67,158.06a13.46,13.46,0,0,0-1.49-5.54,6.09,6.09,0,0,0-4.19-3.25l-3.63,7s5.41-9.45,3.2-2.17,5.07,15.44,6.07,4.59C359.65,158.46,359.66,158.26,359.67,158.06Z" fill="#1e8c0e"/><path d="M334,176.24s-4.85,3.15-3.5,10.53a40.51,40.51,0,0,0,2.15,7.48c.94,2.4,1.63,5.5,4,6.85a8.59,8.59,0,0,0,8,.1c2.08-1.27,2.82-4.15,3.58-6.3a39.1,39.1,0,0,0,1.86-8.14C352.49,168.94,334,176.24,334,176.24Z" fill="#68e1fd"/><ellipse cx="340.57" cy="177.32" rx="7.07" ry="2.56" fill="#34323d"/><path d="M341.14,163.7c-1-2.38-2.83-4.39-3.42-6.94a9.09,9.09,0,0,1,3.62-9.27c.54-.39,0-1.3-.53-.9-4.52,3.28-5.39,8.89-2.76,13.67a24.84,24.84,0,0,1,2.38,4.53c.65,2.13-.08,3.66-1.07,5.26a6.06,6.06,0,0,0-1.57-4.29c-1.17-1.09-2.91-1.27-4.36-1.76-2.82-1-5.29-2.56-5.77-5.7-.1-.66-1.11-.38-1,.28a7.54,7.54,0,0,0,4.35,5.57,30.28,30.28,0,0,0,4.2,1.46,4.88,4.88,0,0,1,2.77,2.7c.67,1.54.21,2.59-.16,4.09-.49,1.94-1.26,3.6.07,5.44.39.54,1.3,0,.9-.53-2.12-2.92,1.27-5.7,2.41-8.22A6.46,6.46,0,0,0,341.14,163.7Z" fill="#1e8c0e"/><path d="M354.19,157.29c-4.47-.79-7.51,2.67-7.25,7a16.41,16.41,0,0,0,.6,3.2,8.38,8.38,0,0,1,.59,2.78,4.22,4.22,0,0,1-2.55,3,6.09,6.09,0,0,0-3.77,4.14.52.52,0,0,0,1,.28c1-3.79,6.32-3.24,6.36-7.41,0-2-1.06-3.95-1.19-6-.22-3.56,2.11-6.66,5.93-6C354.57,158.41,354.85,157.4,354.19,157.29Z" fill="#1e8c0e"/><path d="M358.18,152.52c-1.73-3.19-4.88-3.94-8-3a10.16,10.16,0,0,0-1.24.6c-7.76,5.75-2.25,18.73-1.06,18.63,4-.33,3.55-2.65,4.87-9.16a6.14,6.14,0,0,1,6.18-5.2A11.5,11.5,0,0,0,358.18,152.52Z" fill="#8fdb5e"/><path d="M356.48,150.4a6.47,6.47,0,0,0-6.61,3.17c-2.84,4.75-2.18,10.27-1.8,15.51,0,.67,1.09.67,1,0-.27-3.78-.81-7.53.22-11.25.5-1.82,1.11-3.85,2.57-5.15a5.36,5.36,0,0,1,5.84-.84l-.4-.54C357,151,356.76,150.71,356.48,150.4Z" fill="#1e8c0e"/><path d="M194.78,145.83a20.27,20.27,0,0,0-2.78-3.11,22.42,22.42,0,0,0-2.21-1.45,7.91,7.91,0,0,1-4.89-4.61l-12.13-3.5L147,147.78l36.4,23.12c7.93-4.56,21.53-12.11,29.51-16.57C212,152.58,195.94,147.41,194.78,145.83Z" opacity="0.48" fill="url(#linear-gradient-4)"/><polyline points="194.36 164.72 156.28 142.53 206.81 113.49 244.82 134.04" fill="#68e1fd"/><polyline points="194.36 164.72 156.28 142.53 206.81 113.49 244.82 134.04" opacity="0.38"/><path d="M174.52,130.9l4,.82s4.68,1,4.59,1.56-4.59.59-4.59.59,6.47,2.18,6.7,3-1.19.79-1.19.79,1,1.14.3,2-1.73,0-1.73,0,1.6,1.15.2,1.64-4.29-1.91-4.29-1.91a2.79,2.79,0,0,1-.81,1.64c-.66.51-8.21-5.31-9.36-7" fill="#ffb92c"/><path d="M152.44,110s21.54,18.37,22,19.87-4.85,4.51-8.21,5.3c-1.69.4-4.11-1-5.54-1.73a68.61,68.61,0,0,1-8.87-5.17,54,54,0,0,1-8.34-6.74,12.85,12.85,0,0,1-4.15-10.23c.19-6.59.63-15.65,4.64-21.21,0,0,3.05-4.22,6.7-1C150.72,89.1,156.39,94.12,152.44,110Z" fill="#008404"/><path d="M192.35,117.06c.32,0,8.75,3.07,8.75,3.07l7.17,4.85a1.47,1.47,0,0,1-1.09.62s.74.65.07,1.12a1.07,1.07,0,0,1-1.26,0,2.14,2.14,0,0,1-1.63.81c-.94-.07-6-3.82-6.42-3.32s2.45,1.93,1.77,2.83-3.26-.67-4.12-1.43-5.23-4.8-5.23-4.8" fill="#ffb92c"/><path d="M170.12,89.1s5.05,15.31,6.82,17.05,17.76,10.17,17.76,10.17.16,6-5.5,7.89c0,0-15.74-3.35-20.87-10.76" fill="#008404"/><path d="M204.22,121s-10,44.32-9.86,43.77,49.32-27,49.65-27.92S257,90.9,257,90.9Z" fill="#68e1fd"/><path d="M164.07,79.18a1.12,1.12,0,0,0-1.57-.78,1,1,0,0,0-.56.63c-1.86-.07-4.06-.53-5.26-1.91A4.64,4.64,0,0,0,159.09,73a4.25,4.25,0,1,0-4.23,4.61,3.91,3.91,0,0,0,.86-.09c1.39,1.83,4.05,2.48,6.36,2.55a1.23,1.23,0,0,0,.15.2.45.45,0,0,0,.27.14,1,1,0,0,0,.35.12A1.11,1.11,0,0,0,164.07,79.18Z" fill="#535259"/><path d="M155.8,69.77s.47-7.49,3.29-8.64c0,0-1.3-2.43-5.06-.83,0,0-2.36,3.63-1.15,9.47" fill="#535259"/><path d="M125.66,22.41c3.67-1.95,6.7,0,6.76,4.25L133,60.2c.07,4.29-2.84,9.33-6.52,11.28L77.61,97.33c-3.67,1.94-6.7,0-6.76-4.25l-.53-33.54c-.07-4.29,2.85-9.34,6.52-11.28Z" fill="#68e1fd"/><polyline points="126.15 66.94 138.38 77.72 116.66 74.63" fill="#68e1fd"/><line x1="78.29" y1="59.76" x2="124.98" y2="35.04" fill="#fff"/><path d="M79,61.05l46.69-24.72c1.71-.9.19-3.49-1.51-2.59L77.53,58.46c-1.71.9-.19,3.49,1.51,2.59Z" fill="#fff"/><line x1="78.29" y1="68.86" x2="124.98" y2="44.14" fill="#fff"/><path d="M79,70.16l46.69-24.72c1.71-.9.19-3.49-1.51-2.59L77.53,67.57c-1.71.9-.19,3.49,1.51,2.59Z" fill="#fff"/><path d="M78.69,77.75l14.74-7.8" fill="#fff"/><path d="M79.45,79l14.74-7.8c1.71-.9.19-3.49-1.51-2.59l-14.74,7.8c-1.71.9-.19,3.49,1.51,2.59Z" fill="#fff"/><ellipse cx="154.46" cy="73.06" rx="1.93" ry="2.15" fill="#aaa"/><ellipse cx="227.05" cy="127.51" rx="9.3" ry="5.08" transform="translate(11.39 273.46) rotate(-63.41)" fill="#fff"/></svg>