<svg width="28" height="21" viewBox="0 0 28 21" fill="none" xmlns="http://www.w3.org/2000/svg">
<g id="Icon/Big/Pet">
<g id="Group 17">
<path id="Combined Shape" fill-rule="evenodd" clip-rule="evenodd" d="M7.96129 3.43614C7.89115 3.43614 7.821 3.41004 7.76614 3.35782C7.653 3.2497 7.64876 3.07006 7.75652 2.95683C9.39296 1.23285 11.6004 0.283875 13.9722 0.283875C16.2651 0.283875 18.4206 1.1795 20.0417 2.80614C20.1523 2.9171 20.1523 3.09674 20.0417 3.20742C19.9314 3.31837 19.7524 3.31837 19.6418 3.20742C18.1276 1.68804 16.1141 0.851442 13.9722 0.851442C11.7568 0.851442 9.69474 1.73827 8.16605 3.34789C8.11034 3.40663 8.03595 3.43614 7.96129 3.43614ZM5.94353 2.9725C5.87028 2.9725 5.78685 2.9935 5.70709 3.06104C4.50338 4.0801 3.24282 6.92785 2.02383 9.68167L2.02381 9.68172C1.82895 10.1221 1.63521 10.5597 1.44345 10.9857C0.548016 12.975 0.339572 14.485 0.805956 15.602C1.35917 16.9264 2.80923 17.5559 4.24713 18.0871C4.74547 18.271 5.28143 18.2015 5.71812 17.8958C6.15792 17.5882 6.4102 17.1032 6.4102 16.5657V3.44699C6.4102 3.22535 6.25775 3.07523 6.12709 3.0145C6.09032 2.99747 6.02301 2.9725 5.94353 2.9725ZM4.80652 18.7563C4.55396 18.7563 4.29941 18.7111 4.05165 18.6198C2.56511 18.0704 0.92527 17.3561 0.284381 15.8211C-0.246205 14.5512 -0.0357805 12.893 0.927815 10.7524C1.11901 10.327 1.31218 9.89086 1.50677 9.45128C2.75178 6.6387 4.03921 3.73077 5.3422 2.62713C5.62616 2.38705 6.01788 2.33796 6.36547 2.49972C6.73626 2.67254 6.97582 3.0443 6.97582 3.44699V16.5657C6.97582 17.2809 6.62652 17.952 6.04163 18.3615C5.6683 18.6226 5.24095 18.7563 4.80652 18.7563ZM21.8596 2.9725C21.7802 2.9725 21.7128 2.99747 21.6761 3.0145C21.5454 3.07523 21.393 3.22535 21.393 3.44699V16.5657C21.393 17.1032 21.6452 17.5882 22.085 17.8958C22.5217 18.2015 23.058 18.271 23.556 18.0871C24.9939 17.5559 26.444 16.9264 26.9972 15.602C27.4636 14.485 27.2551 12.975 26.36 10.9857C26.1679 10.5597 25.9742 10.1221 25.7793 9.68172L25.7793 9.68166C24.5603 6.92784 23.2998 4.0801 22.0961 3.06104C22.0163 2.9935 21.9329 2.9725 21.8596 2.9725ZM22.9966 18.7563C22.5622 18.7563 22.1351 18.6226 21.7615 18.3615C21.1766 17.952 20.8273 17.2809 20.8273 16.5657V3.44699C20.8273 3.0443 21.0669 2.67254 21.4377 2.49972C21.7847 2.33796 22.1767 2.38705 22.461 2.62713C23.764 3.73077 25.0514 6.6387 26.2964 9.45128C26.491 9.89086 26.6842 10.327 26.8753 10.7524C27.8389 12.893 28.0494 14.5512 27.5188 15.8211C26.8779 17.3561 25.2381 18.0704 23.7515 18.6198C23.5037 18.7111 23.2489 18.7563 22.9966 18.7563ZM13.9016 16.1294C14.9874 16.1294 15.8676 15.5406 15.8676 14.8144C15.8676 14.0879 14.9874 13.499 13.9016 13.499C12.8156 13.499 11.9357 14.0879 11.9357 14.8144C11.9357 15.5406 12.8156 16.1294 13.9016 16.1294ZM10.4065 10.4307C10.4065 10.7937 10.1132 11.0879 9.75117 11.0879C9.38915 11.0879 9.09586 10.7937 9.09586 10.4307C9.09586 10.0675 9.38915 9.77318 9.75117 9.77318C10.1132 9.77318 10.4065 10.0675 10.4065 10.4307ZM18.0521 11.0879C18.4138 11.0879 18.7074 10.7937 18.7074 10.4307C18.7074 10.0675 18.4138 9.77318 18.0521 9.77318C17.69 9.77318 17.3967 10.0675 17.3967 10.4307C17.3967 10.7937 17.69 11.0879 18.0521 11.0879ZM7.76139 18.4478C9.38256 20.0747 11.5383 20.9706 13.8309 20.9706C16.2027 20.9706 18.4102 20.0213 20.0466 18.2976C20.1544 18.1844 20.1501 18.0048 20.037 17.8967C19.9239 17.7885 19.7451 17.7925 19.6371 17.9063C18.1084 19.5162 16.0463 20.403 13.8309 20.403C11.6893 20.403 9.67586 19.5662 8.16131 18.0465C8.05073 17.9358 7.8717 17.9358 7.76139 18.0465C7.65081 18.1575 7.65081 18.3371 7.76139 18.4478Z" fill="#6E6E6E"/>
</g>
</g>
</svg>
