<svg width="20" height="19" viewBox="0 0 20 19" fill="none" xmlns="http://www.w3.org/2000/svg">
<path fill-rule="evenodd" clip-rule="evenodd" d="M0.487785 10.6722C0.487785 7.26396 6.25559 1.59221 7.31705 0.577386C8.37852 1.59221 14.1463 7.26396 14.1463 10.6722C14.1463 14.4172 11.0827 17.4636 7.31705 17.4636C3.55144 17.4636 0.487785 14.4172 0.487785 10.6722ZM0 10.6722C0 14.6845 3.28244 17.9487 7.31708 17.9487C11.3517 17.9487 14.6342 14.6845 14.6342 10.6722C14.6342 6.7272 7.77512 0.335323 7.48317 0.0651242C7.38951 -0.0217081 7.24464 -0.0217081 7.15098 0.0651242C6.85903 0.335323 0 6.7272 0 10.6722ZM12.0056 17.9179C12.2303 17.9383 12.4583 17.9487 12.683 17.9487C16.7176 17.9487 20 14.6845 20 10.6723C20 6.72722 13.141 0.335347 12.8491 0.0651485C12.7554 -0.0216838 12.6105 -0.0216838 12.5169 0.0651485L12.5162 0.0657793C12.4889 0.0911398 11.7068 0.817958 10.6854 1.90245C10.5932 2.0002 10.5983 2.15373 10.6966 2.24517C10.7947 2.33661 10.9491 2.33152 11.0415 2.23402C11.7859 1.44355 12.4008 0.846154 12.6827 0.577411C13.7437 1.59151 19.5122 7.26374 19.5122 10.6723C19.5122 14.417 16.4486 17.4636 12.683 17.4636C12.473 17.4636 12.26 17.4539 12.0503 17.4348C11.9152 17.4226 11.7974 17.5209 11.7852 17.6543C11.7727 17.7877 11.8715 17.9055 12.0056 17.9179Z" fill="#6E6E6E"/>
</svg>
