<svg width="36" height="48" viewBox="0 0 36 48" fill="none" xmlns="http://www.w3.org/2000/svg">
<path d="M9.06374 33.9949C8.25268 33.1802 8.67548 33.4099 6.71921 32.8839C5.83161 32.6449 5.05134 32.1855 4.34574 31.6352L0.111208 42.0639C-0.298526 43.0736 0.466808 44.1705 1.55134 44.1292L6.46908 43.9408L9.85148 47.5296C10.5981 48.3208 11.9085 48.0742 12.3183 47.0646L17.1763 35.1002C16.1645 35.6664 15.0417 35.9983 13.8807 35.9983C12.0607 35.9983 10.3508 35.2867 9.06374 33.9949ZM35.7272 42.0639L31.4927 31.6352C30.7871 32.1864 30.0068 32.6449 29.1192 32.8839C27.1527 33.4127 27.5839 33.1821 26.7747 33.9949C25.4876 35.2867 23.7768 35.9983 21.9568 35.9983C20.7957 35.9983 19.6729 35.6655 18.6612 35.1002L23.5192 47.0646C23.9289 48.0742 25.2403 48.3208 25.986 47.5296L29.3693 43.9408L34.2871 44.1292C35.3716 44.1705 36.1369 43.0727 35.7272 42.0639ZM24.5459 31.8733C25.972 30.4155 26.1353 30.5411 28.1663 29.9852C29.4627 29.6299 30.4763 28.5939 30.8235 27.2683C31.5216 24.6058 31.3405 24.9274 33.2455 22.9792C34.1947 22.0089 34.5652 20.5942 34.218 19.2686C33.5208 16.608 33.5199 16.9792 34.218 14.3158C34.5652 12.9902 34.1947 11.5755 33.2455 10.6052C31.3405 8.65706 31.5216 8.97769 30.8235 6.31613C30.4763 4.9905 29.4627 3.95456 28.1663 3.59925C25.5641 2.88581 25.8777 3.07238 23.9709 1.12331C23.0217 0.153002 21.6376 -0.226685 20.3412 0.128627C17.74 0.841127 18.1031 0.842064 15.4972 0.128627C14.2008 -0.226685 12.8167 0.152065 11.8675 1.12331C9.96254 3.07144 10.2761 2.88581 7.67308 3.59925C6.37668 3.95456 5.36308 4.9905 5.01588 6.31613C4.31868 8.97769 4.49881 8.65706 2.59387 10.6052C1.64467 11.5755 1.27321 12.9902 1.62134 14.3158C2.31854 16.9746 2.31947 16.6033 1.62134 19.2677C1.27414 20.5933 1.64467 22.008 2.59387 22.9792C4.49881 24.9274 4.31774 24.6058 5.01588 27.2683C5.36308 28.5939 6.37668 29.6299 7.67308 29.9852C9.76188 30.5571 9.91774 30.4671 11.2925 31.8733C12.5273 33.1361 14.4509 33.3621 15.9349 32.4189C16.5284 32.0405 17.2168 31.8396 17.9197 31.8396C18.6226 31.8396 19.311 32.0405 19.9044 32.4189C21.3875 33.3621 23.3111 33.1361 24.5459 31.8733ZM9.11414 16.4946C9.11414 11.523 13.0565 7.49269 17.9192 7.49269C22.7819 7.49269 26.7243 11.523 26.7243 16.4946C26.7243 21.4661 22.7819 25.4964 17.9192 25.4964C13.0565 25.4964 9.11414 21.4661 9.11414 16.4946Z" fill="#0D5C63"/>
</svg>
