<svg width="48" height="28" viewBox="0 0 48 28" fill="none" xmlns="http://www.w3.org/2000/svg">
<path d="M43.1506 12.2819C42.5751 12.2861 42.005 12.3959 41.4678 12.6061L35.7275 7.82142C35.8687 7.29981 35.9692 6.7587 35.9692 6.18834C35.9692 2.81004 33.3026 0.0947266 29.9848 0.0947266C26.667 0.0947266 24.0003 2.81004 24.0003 6.18834C24.0003 7.15356 24.2397 8.05298 24.6275 8.86221L17.664 17.2421C17.3852 17.189 17.1025 17.1605 16.819 17.1568C16.3905 17.1568 15.9859 17.23 15.5934 17.3372L9.4581 11.09C9.56582 10.6927 9.63763 10.2808 9.63763 9.8445C9.63763 7.14381 7.50238 4.96961 4.85006 4.96961C2.19775 4.96961 0.0625 7.14381 0.0625 9.8445C0.0625 12.5452 2.19775 14.7194 4.85006 14.7194C5.27855 14.7194 5.6831 14.6463 6.07568 14.539L12.2109 20.7862C12.0959 21.1911 12.0355 21.6102 12.0314 22.0317C12.0314 24.7324 14.1667 26.9066 16.819 26.9066C19.4713 26.9066 21.6065 24.7324 21.6065 22.0317C21.6065 21.454 21.4916 20.9105 21.3121 20.3962L28.2852 12.0065C28.8286 12.1674 29.3911 12.2819 29.9848 12.2819C30.9295 12.2766 31.8593 12.0418 32.6969 11.597L38.4396 16.3817C38.3946 16.6377 38.369 16.8968 38.363 17.1568C38.363 19.8575 40.4983 22.0317 43.1506 22.0317C45.8029 22.0317 47.9381 19.8575 47.9381 17.1568C47.9381 14.4561 45.8029 12.2819 43.1506 12.2819Z" fill="#0D5C63"/>
</svg>
