<svg width="49" height="48" viewBox="0 0 49 48" fill="none" xmlns="http://www.w3.org/2000/svg">
<g clip-path="url(#clip0)">
<g clip-path="url(#clip1)">
<path d="M24.8406 22.8025C29.1448 22.8025 32.4925 19.3071 32.4925 15.0173C32.4925 10.7276 28.9854 7.39111 24.6812 7.39111C20.377 7.39111 17.0293 10.8865 17.0293 15.0173C17.0293 19.3071 20.5364 22.8025 24.8406 22.8025ZM24.6812 10.5687C24.8406 10.5687 24.8406 10.5687 24.6812 10.5687C27.2318 10.5687 29.3042 12.6342 29.3042 15.1762C29.3042 17.7183 27.2318 19.6249 24.6812 19.6249C22.1306 19.6249 20.2176 17.5594 20.2176 15.1762C20.2176 12.6342 22.29 10.5687 24.6812 10.5687Z" fill="#0D5C63"/>
<path d="M48.4335 21.8487C45.4046 19.1477 41.4193 17.7178 37.2745 17.8767H35.9992C35.6804 19.1477 35.2021 20.2599 34.5645 21.2132C35.5209 21.0543 36.318 21.0543 37.2745 21.0543C40.3034 20.8954 43.3323 21.8487 45.7235 23.5964V35.0357H48.9118V22.3253L48.4335 21.8487Z" fill="#0D5C63"/>
<path d="M33.6088 7.70826C34.4058 5.8017 36.6376 4.84842 38.71 5.64282C40.623 6.43722 41.5795 8.66154 40.7824 10.727C40.1448 12.1569 38.71 13.1102 37.2753 13.1102C36.9565 13.1102 36.4782 13.1102 36.1594 12.9513C36.3188 13.7457 36.3188 14.5401 36.3188 15.1756V16.1289C36.6376 16.1289 36.9565 16.2878 37.2753 16.2878C41.2607 16.2878 44.449 13.1102 44.449 9.29706C44.449 5.32506 41.2607 2.14746 37.4347 2.14746C34.8841 2.14746 32.6523 3.4185 31.377 5.64282C32.174 6.11946 32.9711 6.75498 33.6088 7.70826Z" fill="#0D5C63"/>
<path d="M15.4352 21.3724C14.7975 20.4191 14.3193 19.3069 14.0005 18.0359H12.7252C8.58037 17.877 4.59501 19.3069 1.56613 21.849L1.08789 22.3257V35.0361H4.27618V23.5967C6.82681 21.849 9.69628 20.8957 12.7252 21.0546C13.6816 21.0546 14.6381 21.2135 15.4352 21.3724Z" fill="#0D5C63"/>
<path d="M12.7246 16.1295C13.0435 16.1295 13.3623 16.1295 13.6811 15.9706V15.0174C13.6811 14.223 13.6811 13.4286 13.8405 12.793C13.5217 12.9519 13.0435 12.9519 12.7246 12.9519C10.6522 12.9519 8.89869 11.2042 8.89869 9.1388C8.89869 7.07336 10.6522 5.32568 12.7246 5.32568C14.3188 5.32568 15.7535 6.27896 16.3912 7.70888C17.0288 6.91448 17.9853 6.12008 18.7824 5.48456C16.71 2.14809 12.4058 1.03593 9.0581 3.10136C5.7104 5.1668 4.59449 9.45656 6.66688 12.793C7.9422 14.8585 10.174 16.1295 12.7246 16.1295Z" fill="#0D5C63"/>
<path d="M37.9128 31.3817L37.594 30.9051C34.4057 27.4097 29.9421 25.3443 25.1596 25.5032C20.3772 25.3443 15.7542 27.4097 12.5659 30.9051L12.2471 31.3817V43.4566C12.2471 44.8865 13.363 46.1576 14.9571 46.1576H35.3622C36.7969 46.1576 38.0722 44.8865 38.0722 43.4566V31.3817H37.9128ZM34.7245 42.98H15.4354V32.4939C17.986 29.9518 21.4931 28.6808 25.1596 28.6808C28.6668 28.5219 32.1739 29.9518 34.7245 32.4939V42.98Z" fill="#0D5C63"/>
</g>
</g>
<defs>
<clipPath id="clip0">
<rect width="48" height="48" fill="white" transform="translate(0.5)"/>
</clipPath>
<clipPath id="clip1">
<rect width="48" height="44.2105" fill="white" transform="translate(1 2)"/>
</clipPath>
</defs>
</svg>
