<svg width="76" height="46" viewBox="0 0 76 46" fill="none" xmlns="http://www.w3.org/2000/svg">
<g id="Frame" clip-path="url(#clip0_1_9)">
<g id="Group">
<path id="Vector" d="M0 0H2.32086V27.4049H9.25075V0H11.5716V46H9.25075V29.7131H2.32086V46H0V0Z" fill="url(#paint0_linear_1_9)"/>
<path id="Vector_2" d="M28.7329 0L22.9798 29.7131V46H20.6589V29.7131L14.8731 0H16.9978L21.8357 24.7717L26.6408 0H28.7329Z" fill="url(#paint1_linear_1_9)"/>
<path id="Vector_3" d="M38.997 46H32.0344V0H38.9643C41.5467 0 43.5733 2.04806 43.5733 4.58375V41.3837C43.606 43.8869 41.5467 46 38.997 46ZM34.3553 2.30813V43.6919H38.9643C40.2065 43.6919 41.2852 42.6516 41.2852 41.3837V4.58375C41.2852 3.34841 40.2392 2.27562 38.9643 2.27562H34.3553V2.30813Z" fill="url(#paint2_linear_1_9)"/>
<path id="Vector_4" d="M58.806 46H56.4198L52.3338 29.7131H49.5553V46H47.2344V0H54.1643C56.7467 0 58.7733 2.04806 58.7733 4.58375V25.0968C58.7733 27.4049 56.9755 29.3555 54.6873 29.6155L58.806 46ZM49.5553 27.4049H54.1643C55.4064 27.4049 56.4852 26.3647 56.4852 25.0968V4.58375C56.4852 3.34841 55.4391 2.27562 54.1643 2.27562H49.5553V27.4049Z" fill="url(#paint3_linear_1_9)"/>
<path id="Vector_5" d="M65.8013 29.7131L64.1996 46H62.1075L66.7492 0H71.3583L75.9673 46H73.8753L72.2735 29.7131H65.8013ZM69.495 2.30813H68.5798L66.0628 27.4049H72.012L69.495 2.30813Z" fill="url(#paint4_linear_1_9)"/>
</g>
</g>
<defs>
<linearGradient id="paint0_linear_1_9" x1="5.78581" y1="0" x2="5.78581" y2="46" gradientUnits="userSpaceOnUse">
<stop stop-color="#C0B7E8"/>
<stop offset="1" stop-color="#8176AF"/>
</linearGradient>
<linearGradient id="paint1_linear_1_9" x1="21.803" y1="0" x2="21.803" y2="46" gradientUnits="userSpaceOnUse">
<stop stop-color="#C0B7E8"/>
<stop offset="1" stop-color="#8176AF"/>
</linearGradient>
<linearGradient id="paint2_linear_1_9" x1="37.8041" y1="0" x2="37.8041" y2="46" gradientUnits="userSpaceOnUse">
<stop stop-color="#C0B7E8"/>
<stop offset="1" stop-color="#8176AF"/>
</linearGradient>
<linearGradient id="paint3_linear_1_9" x1="53.0202" y1="0" x2="53.0202" y2="46" gradientUnits="userSpaceOnUse">
<stop stop-color="#C0B7E8"/>
<stop offset="1" stop-color="#8176AF"/>
</linearGradient>
<linearGradient id="paint4_linear_1_9" x1="69.0374" y1="0" x2="69.0374" y2="46" gradientUnits="userSpaceOnUse">
<stop stop-color="#C0B7E8"/>
<stop offset="1" stop-color="#8176AF"/>
</linearGradient>
<clipPath id="clip0_1_9">
<rect width="76" height="46" fill="white"/>
</clipPath>
</defs>
</svg>
