<svg width="59" height="59" viewBox="0 0 59 59" fill="none" xmlns="http://www.w3.org/2000/svg">
<path d="M35.6458 15.9792C37.458 16.3327 39.2569 17.1319 40.5625 18.4375C41.8681 19.7431 42.6673 21.542 43.0208 23.3542M36.875 7.375C40.64 7.79326 44.028 9.61471 46.7083 12.2917C49.3887 14.9686 51.202 18.3605 51.625 22.125M51.6237 40.5051V47.1666C51.634 49.7131 49.3443 51.8395 46.7734 51.6077C24.5835 51.625 7.37515 34.2568 7.39252 12.2159C7.16097 9.65866 9.27686 7.37761 11.8201 7.37522H18.4948C19.5746 7.36461 20.6214 7.74621 21.4401 8.4489C23.7676 10.4467 25.2648 17.2274 24.6887 19.923C24.239 22.0276 22.1175 23.4999 20.6752 24.9394C23.8425 30.4985 28.4545 35.1014 34.0247 38.2624C35.467 36.823 36.9423 34.7057 39.051 34.2568C41.7561 33.6811 48.5805 35.1803 50.5702 37.5241C51.2758 38.3552 51.6507 39.4161 51.6237 40.5051Z" stroke="#C0B7E8" stroke-width="6" stroke-linecap="round" stroke-linejoin="round"/>
</svg>
