<svg width="815" height="648" viewBox="0 0 815 648" fill="none" xmlns="http://www.w3.org/2000/svg">
  <path opacity="0.52" d="M738.015 360.789C736.372 350.105 733.701 339.421 729.797 329.147C700.21 250.865 611.859 229.907 542.001 201.758C459.198 168.473 388.928 110.326 302.427 85.0535C222.295 61.6304 120.795 50.9461 56.4842 115.668C8.61061 163.747 21.555 232.989 77.6472 266.891C109.7 286.205 169.696 297.3 170.518 344.352C170.929 369.624 163.943 395.718 159.834 420.374C151.615 470.713 142.78 535.435 188.599 571.186C235.24 607.759 296.263 621.937 354.821 617.416C404.955 613.512 448.924 587.624 492.894 565.433C514.674 554.544 537.069 544.065 560.698 537.695C586.587 530.71 613.297 531.737 639.186 524.751C709.456 505.848 748.289 430.648 738.015 360.789Z" fill="#F9DABE"/>
  <path d="M708.839 90.6009C697.333 67.1778 675.554 49.0967 648.843 46.8366C629.735 45.1929 610.832 51.7678 593.778 60.6029C558.849 78.4784 526.385 104.367 486.936 111.148C466.595 114.64 453.239 104.778 447.281 86.2861C441.528 68.4106 434.542 48.2749 422.214 33.8923C381.737 -13.365 285.99 20.537 257.841 66.1505C222.09 123.886 320.508 202.375 254.143 245.933C212.433 273.26 145.862 268.124 120.795 318.052C95.7283 367.775 133.329 419.141 177.709 441.332C258.252 481.398 355.027 454.892 419.337 396.745C467.828 352.981 507.688 301.409 566.246 269.973C623.982 238.948 705.141 223.127 717.058 146.488C720.345 126.557 716.853 107.038 708.839 90.6009Z" fill="url(#paint0_linear_408_37)"/>
  <path d="M783.013 298.944C774.383 283.328 762.671 268.946 748.289 256.618C701.853 217.168 640.214 201.553 581.861 190.047C560.904 185.937 540.357 170.938 549.192 147.31C555.767 130.256 564.602 115.873 559.465 96.5595C540.357 25.6737 437.213 46.6312 394.682 76.8348C375.368 90.601 358.52 109.504 335.713 117.517C305.92 127.996 271.196 121.01 240.171 125.325C206.886 130.051 176.271 146.693 156.341 173.815C133.74 204.84 138.26 247.988 159.217 278.397C192.708 326.682 245.308 365.926 290.305 402.91C343.931 447.085 403.311 497.219 468.033 523.313C530.289 548.38 604.873 554.749 667.952 529.066C724.866 505.848 772.739 461.262 792.259 401.882C804.381 366.337 799.861 329.969 783.013 298.944Z" fill="url(#paint1_linear_408_37)"/>
  <path d="M91.4136 312.915C83.4004 290.931 61.2099 267.507 36.3485 266.685C2.03569 265.453 -8.03211 303.464 6.35053 329.353C17.8566 349.899 37.376 365.104 51.3477 383.801C63.4702 400.033 82.9894 399.417 92.0299 380.925C100.865 362.844 100.043 336.133 91.4136 312.915Z" fill="url(#paint2_linear_408_37)"/>
  <path d="M135.794 444.414C135.178 441.948 134.151 439.483 132.712 437.222C131.479 435.168 129.63 432.908 127.781 431.264C124.083 428.182 121.412 426.538 116.686 424.894C114.015 423.867 111.344 423.867 108.673 423.456C101.687 422.84 93.0572 427.771 90.1807 434.14C88.1261 438.25 86.8933 441.948 86.8933 446.674C86.8933 448.523 87.3042 451.194 87.7151 453.043C88.126 455.098 89.1535 457.358 90.3863 459.207C92.6464 462.906 95.5228 466.193 99.4267 468.453C103.536 470.919 107.645 471.741 112.371 471.946C115.042 471.946 117.713 471.535 120.384 470.508C122.644 469.892 124.699 469.07 126.548 467.631C127.987 466.604 129.219 465.577 130.658 464.344C132.712 462.495 134.15 460.235 134.972 457.769C136.616 453.454 137.027 449.139 135.794 444.414Z" fill="url(#paint3_linear_408_37)"/>
  <path d="M760.207 95.3267C757.741 89.3682 752.81 85.0534 746.029 86.0807C740.276 86.9026 734.112 92.4502 734.729 98.8196C736.783 116.079 740.687 132.105 738.633 149.775C736.783 167.034 731.03 183.677 722.606 198.676C716.031 210.182 732.88 219.839 740.276 208.95C751.372 192.512 759.179 174.02 762.467 154.501C765.549 136.214 767.192 113.202 760.207 95.3267Z" fill="url(#paint4_linear_408_37)"/>
  <path d="M786.095 221.072C773.15 216.552 753.015 213.47 741.098 221.483C735.55 225.181 738.221 232.373 744.18 233.195C750.138 234.016 755.891 232.578 761.85 233.195C768.219 233.811 774.589 235.66 780.342 238.331C789.177 242.646 798.012 255.179 808.491 254.358C811.162 254.152 813.627 252.714 814.244 249.837C818.558 234.838 797.19 225.181 786.095 221.072Z" fill="url(#paint5_linear_408_37)"/>
  <path d="M794.724 182.444C793.286 180.184 790.615 178.335 787.944 177.513C785.273 176.486 782.191 176.486 779.314 177.719H779.108C775.41 177.308 771.712 180.184 769.863 183.061C767.397 186.759 766.781 191.69 768.013 196.005C769.657 201.964 775.821 206.895 781.985 206.689C793.697 206.073 801.093 192.101 794.724 182.444Z" fill="url(#paint6_linear_408_37)"/>
  <path d="M653.568 565.433C651.719 558.242 645.555 553.722 638.159 553.722C629.323 553.722 623.159 561.529 617.201 566.872C606.106 576.734 592.545 583.72 578.162 587.624C561.931 592.144 544.877 591.733 528.234 593.171C490.223 596.459 453.033 610.019 428.172 639.812C425.296 643.305 427.967 649.058 432.898 647.825C464.745 639.196 494.743 624.402 528.44 623.786C562.752 623.169 594.805 621.936 624.598 602.623C635.693 595.226 657.678 581.46 653.568 565.433Z" fill="url(#paint7_linear_408_37)"/>
  <path d="M240.171 46.2203C232.569 37.3853 221.268 32.6596 209.967 29.9885C201.132 27.9338 186.133 24.8518 178.531 30.6049C175.86 32.6595 174.627 35.7415 176.271 38.8235C180.791 46.8367 193.119 49.9187 201.543 53.2062C211.817 57.3155 222.912 60.8084 234.213 59.9866C241.609 59.5756 244.897 51.5624 240.171 46.2203Z" fill="url(#paint8_linear_408_37)"/>
  <path d="M269.553 0.195892C261.745 -1.6533 255.17 10.0583 252.705 15.6059C248.595 24.4409 247.363 32.4541 250.239 41.9055C251.266 45.3984 256.403 45.3984 257.43 41.9055C260.101 32.865 263.389 23.619 268.936 15.8113C271.813 11.9075 278.388 2.25055 269.553 0.195892Z" fill="url(#paint9_linear_408_37)"/>

  <defs>
    <linearGradient id="paint0_linear_408_37" x1="787.526" y1="47.3037" x2="44.7006" y2="347.896" gradientUnits="userSpaceOnUse">
      <stop stop-color="#F9DABE"/>
      <stop offset="1" stop-color="#E9B7D4"/>
    </linearGradient>

    <linearGradient id="paint1_linear_408_37" x1="141.496" y1="297.419" x2="799.177" y2="297.419" gradientUnits="userSpaceOnUse">
      <stop stop-color="#C6DEDE"/>
      <stop offset="0.3018" stop-color="#C9E1E1"/>
      <stop offset="1" stop-color="#E9B7D4"/>
    </linearGradient>

    <linearGradient id="paint2_linear_408_37" x1="92.2083" y1="314.644" x2="13.0292" y2="346.685" gradientUnits="userSpaceOnUse">
      <stop stop-color="#F9DABE"/>
      <stop offset="1" stop-color="#E9B7D4"/>
    </linearGradient>

    <linearGradient id="paint3_linear_408_37" x1="133.682" y1="438.387" x2="88.9068" y2="456.506" gradientUnits="userSpaceOnUse">
      <stop stop-color="#F9DABE"/>
      <stop offset="1" stop-color="#E9B7D4"/>
    </linearGradient>

    <linearGradient id="paint4_linear_408_37" x1="776.235" y1="134.994" x2="704.353" y2="164.082" gradientUnits="userSpaceOnUse">
      <stop stop-color="#F9DABE"/>
      <stop offset="1" stop-color="#E9B7D4"/>
    </linearGradient>

    <linearGradient id="paint5_linear_408_37" x1="807.386" y1="224.72" x2="746.691" y2="249.281" gradientUnits="userSpaceOnUse">
      <stop stop-color="#F9DABE"/>
      <stop offset="1" stop-color="#E9B7D4"/>
    </linearGradient>

    <linearGradient id="paint6_linear_408_37" x1="796.376" y1="185.733" x2="768.546" y2="196.995" gradientUnits="userSpaceOnUse">
      <stop stop-color="#F9DABE"/>
      <stop offset="1" stop-color="#E9B7D4"/>
    </linearGradient>

    <linearGradient id="paint7_linear_408_37" x1="652.937" y1="563.543" x2="430.613" y2="653.509" gradientUnits="userSpaceOnUse">
      <stop stop-color="#F6DEBA"/>
      <stop offset="1" stop-color="#E9B7D4"/>
    </linearGradient>

    <linearGradient id="paint8_linear_408_37" x1="235.676" y1="33.5303" x2="182.981" y2="54.8536" gradientUnits="userSpaceOnUse">
      <stop stop-color="#F9E1BD"/>
      <stop offset="1" stop-color="#E9B7D4"/>
    </linearGradient>

    <linearGradient id="paint9_linear_408_37" x1="278.46" y1="15.0229" x2="244.619" y2="28.717" gradientUnits="userSpaceOnUse">
      <stop stop-color="#F9DABE"/>
      <stop offset="1" stop-color="#E9B7D4"/>
    </linearGradient>

  </defs>
</svg>
