<?xml version="1.0" encoding="UTF-8" standalone="no"?>
<!-- Generator: Adobe Illustrator 19.0.0, SVG Export Plug-In . SVG Version: 6.00 Build 0)  -->

<svg
   version="1.1"
   id="Capa_1"
   x="0px"
   y="0px"
   viewBox="0 0 512.001 512.001"
   style="enable-background:new 0 0 512.001 512.001;"
   xml:space="preserve"
   sodipodi:docname="arabic-icon1.svg"
   inkscape:version="1.1 (c68e22c387, 2021-05-23)"
   xmlns:inkscape="http://www.inkscape.org/namespaces/inkscape"
   xmlns:sodipodi="http://sodipodi.sourceforge.net/DTD/sodipodi-0.dtd"
   xmlns="http://www.w3.org/2000/svg"
   xmlns:svg="http://www.w3.org/2000/svg"><defs
   id="defs47" /><sodipodi:namedview
   id="namedview45"
   pagecolor="#ffffff"
   bordercolor="#666666"
   borderopacity="1.0"
   inkscape:pageshadow="2"
   inkscape:pageopacity="0.0"
   inkscape:pagecheckerboard="0"
   showgrid="false"
   inkscape:zoom="1.6249969"
   inkscape:cx="211.07733"
   inkscape:cy="241.53892"
   inkscape:window-width="1920"
   inkscape:window-height="1017"
   inkscape:window-x="-8"
   inkscape:window-y="-8"
   inkscape:window-maximized="1"
   inkscape:current-layer="g8" />
<g
   id="g12">
	<g
   id="g10">
		<g
   id="g8">
			
			
			<path
   d="M438.142,256l71.924-151.419c2.943-6.196,2.506-13.469-1.159-19.267C505.241,79.516,498.859,76,492,76H20     C8.954,76,0,84.954,0,96v320c0,11.046,8.954,20,20,20h472c6.859,0,13.241-3.516,16.906-9.314     c3.665-5.798,4.103-13.07,1.159-19.267L438.142,256z M40,396V116h420.358l-62.424,131.419c-2.579,5.43-2.579,11.732,0,17.162     L460.358,396H40z"
   id="path6"
   style="fill:#00ab67;fill-opacity:1" />
		<text
   xml:space="preserve"
   style="font-style:normal;font-weight:normal;font-size:40px;line-height:1.25;font-family:sans-serif;fill:#00ab67;fill-opacity:1;stroke:none"
   x="91.692482"
   y="321.84677"
   id="text1801"><tspan
     sodipodi:role="line"
     id="tspan1799"
     x="91.692482"
     y="321.84677"
     style="font-style:normal;font-variant:normal;font-weight:bold;font-stretch:normal;font-size:173.333px;font-family:sans-serif;-inkscape-font-specification:'sans-serif, Bold';font-variant-ligatures:normal;font-variant-caps:normal;font-variant-numeric:normal;font-variant-east-asian:normal;fill:#00ab67;fill-opacity:1">AR</tspan></text></g>
	</g>
</g>
<g
   id="g14">
</g>
<g
   id="g16">
</g>
<g
   id="g18">
</g>
<g
   id="g20">
</g>
<g
   id="g22">
</g>
<g
   id="g24">
</g>
<g
   id="g26">
</g>
<g
   id="g28">
</g>
<g
   id="g30">
</g>
<g
   id="g32">
</g>
<g
   id="g34">
</g>
<g
   id="g36">
</g>
<g
   id="g38">
</g>
<g
   id="g40">
</g>
<g
   id="g42">
</g>
</svg>
