<?xml version="1.0" encoding="UTF-8" standalone="no"?>
<!DOCTYPE svg PUBLIC "-//W3C//DTD SVG 1.1//EN" "http://www.w3.org/Graphics/SVG/1.1/DTD/svg11.dtd">
<svg version="1.1" xmlns="http://www.w3.org/2000/svg" xmlns:xlink="http://www.w3.org/1999/xlink" preserveAspectRatio="xMidYMid meet" viewBox="0 0 1500 1500" width="1500" height="1500"><defs><path d="M813.88 828.62C813.88 828.62 816.68 767.24 874.15 774.38" id="bUgRTo2ew"></path><path d="M813.2 1036.62C813.13 1035.97 806.35 972.01 833.81 938.16C843.95 925.67 857.53 918.68 874.18 917.37C874.2 917.61 874.35 919.54 874.37 919.78C858.38 921.03 845.36 927.74 835.65 939.7C808.83 972.75 815.49 1035.71 815.56 1036.34C815.09 1036.4 813.68 1036.56 813.2 1036.62Z" id="hsElhvdAY"></path><path d="M813.27 765.87C813.27 765.87 813.27 765.87 813.27 765.87C813.27 927.22 813.27 1016.86 813.27 1034.79C813.27 1034.79 813.27 1034.79 813.27 1034.79C811.84 1034.79 811.04 1034.79 810.88 1034.79C810.88 1034.79 810.88 1034.79 810.88 1034.79C810.88 873.43 810.88 783.79 810.88 765.87C810.88 765.87 810.88 765.87 810.88 765.87C812.32 765.87 813.11 765.87 813.27 765.87Z" id="aT2W3Koya"></path><path d="M813.88 727.29C803.04 727.29 794.26 736.23 794.26 747.27C794.26 758.3 803.04 767.24 813.88 767.24C824.72 767.24 833.5 758.3 833.5 747.27C833.5 736.23 824.72 727.29 813.88 727.29Z" id="b7bg4CXJOv"></path><path d="M874.27 898.73C863.5 898.73 854.77 907.61 854.77 918.58C854.77 929.54 863.5 938.43 874.27 938.43C885.04 938.43 893.77 929.54 893.77 918.58C893.77 907.61 885.04 898.73 874.27 898.73Z" id="b65Iq7Iqr9"></path><path d="M1476.81 389.99C1476.77 394.94 1476.56 398.86 1476.53 399.84C1470.48 520.91 1369.17 614.07 1250.25 607.91C1140.86 602.24 1053.02 513.99 1046.03 402.71C1045.59 395.74 1045.63 390.08 1045.59 388.67C1045.51 343.21 1059.37 298.86 1085.23 261.79C1088.34 257.31 1091.04 253.88 1091.69 253C1093.23 251 1094.81 249.04 1096.41 247.1C1172.12 155.79 1305.66 142.89 1396.89 218.07C1399.48 220.21 1402.04 222.42 1404.53 224.67C1407.52 227.38 1409.82 229.66 1410.41 230.21C1448.35 267.16 1471.7 316.95 1476.06 370.22C1476.56 376.31 1476.81 382.46 1476.81 388.67C1476.81 389.46 1476.81 389.9 1476.81 389.99Z" id="c57MEzn2yt"></path><path d="M1091.69 253C1091.79 253.04 1091.89 253.1 1091.98 253.18C1093.14 254.15 1091.69 256.02 1091.86 257.55C1092.07 259.52 1094.65 259.96 1096.6 260.15C1098.55 260.36 1101.02 261.96 1100.09 263.72C1095.19 265.44 1090.24 263.75 1085.23 261.79C1059.37 298.86 1045.51 343.21 1045.59 388.67C1045.59 395.75 1045.98 401.3 1046.03 402.71C1046.44 403.01 1046.89 403.26 1047.36 403.44C1048.83 404.01 1050.53 403.9 1051.88 404.71C1052.95 405.35 1053.67 406.49 1054.74 407.08C1057.81 408.79 1062.06 405.51 1064.92 407.55C1065.66 408.23 1066.36 408.96 1067.02 409.73C1069.66 412.06 1074 410.49 1077.05 412.23C1079.02 413.35 1080.03 415.59 1081.08 417.62C1083.71 422.7 1087.96 427.69 1093.58 428.09C1095.35 428.01 1097.13 428.07 1098.89 428.27C1100.62 428.67 1102.32 430.21 1102.04 431.99C1101.56 435.05 1103.04 438.4 1102.64 441.46C1101.93 447.06 1094.14 449.5 1093.48 455.1C1093.48 456.34 1093.41 457.57 1093.27 458.79C1092.92 460.26 1091.83 461.45 1091.45 462.91C1090.72 465.68 1092.67 468.44 1094.8 470.29C1096.94 472.16 1099.49 473.77 1100.66 476.37C1101.9 479.13 1101.3 482.34 1101.69 485.34C1102.57 491.9 1108.13 496.75 1113.85 499.89C1115.68 500.67 1117.31 501.87 1118.6 503.41C1120.07 505.57 1119.92 508.43 1120.42 511.01C1121.62 517.33 1126.85 522.54 1126.99 528.97C1127.1 533.56 1124.6 537.71 1123.11 542.02C1121.57 546.55 1121.11 551.38 1121.77 556.12C1130.13 563.34 1139.02 569.9 1148.36 575.76C1148.87 574.99 1149.24 574.14 1149.46 573.25C1149.83 571.22 1148.92 569.18 1147.19 568.11C1148.77 567.5 1150.2 566.57 1151.4 565.36C1152.61 564.1 1152.91 562.2 1152.16 560.61C1154.74 560.94 1157.81 561.11 1159.51 559.09C1160.87 557.48 1160.79 555.06 1160.24 553.01C1159.7 550.95 1158.79 548.97 1158.78 546.83C1164.76 547.13 1170.75 546.92 1176.7 546.22C1175.84 543.27 1173.88 540.77 1171.24 539.26C1173.94 538.8 1176.39 535.51 1177.24 532.87C1177.98 530.17 1178.02 527.33 1177.36 524.61C1177.16 523.91 1177.13 523.18 1177.27 522.46C1177.71 521.52 1178.47 520.77 1179.41 520.36C1186.1 516.44 1191.45 513.32 1192.79 512.53C1193.59 512.12 1194.31 511.58 1194.93 510.94C1196.33 509.25 1196.12 506.72 1195.4 504.65C1194.68 502.57 1193.54 500.62 1193.26 498.44C1192.44 491.91 1199.3 487.22 1201.62 481.07C1202.41 478.62 1202.83 476.05 1202.88 473.47C1203.07 470.69 1203.09 467.48 1201 465.71C1199 463.99 1195.87 464.38 1193.77 462.78C1191.85 461.32 1191.19 458.49 1189.09 457.31C1187.19 456.24 1184.81 456.93 1182.68 456.42C1178.96 455.54 1176.61 451.16 1172.8 450.76C1170.66 450.52 1168.22 451.6 1166.46 450.33C1164.91 449.19 1164.85 446.94 1164.56 445.03C1163.49 438.93 1158.81 434.15 1152.82 433.05C1150.61 432.69 1148.2 432.83 1146.31 431.59C1144.4 430.33 1143.54 427.99 1142.03 426.24C1139.62 423.45 1135.81 422.45 1132.24 421.6C1124.98 419.87 1119.19 418.48 1117.74 418.13C1115.17 417.51 1111.86 417.18 1110.46 419.48C1110.05 420.35 1109.76 421.28 1109.61 422.24C1108.54 425.77 1105.35 428.21 1101.72 428.27C1100.51 426.16 1098.54 424.61 1096.23 423.94C1094.73 423.68 1093.24 423.32 1091.78 422.87C1088.68 421.32 1087.4 417.51 1088.91 414.36C1088.97 414.25 1089.02 414.14 1089.08 414.04C1090.79 410.93 1090.24 407.03 1087.74 404.53C1085.28 402.27 1081.71 401.72 1078.4 401.95C1077.53 400.02 1078.99 397.85 1080.54 396.45C1082.11 395.06 1084 393.69 1084.34 391.6C1084.88 388.31 1080.76 385.82 1077.64 386.79C1074.51 387.78 1072.52 390.87 1071.2 393.91C1070.56 395.71 1069.68 397.41 1068.6 398.97C1067.47 400.55 1065.57 401.35 1063.67 401.04C1061.09 400.36 1060.11 397.24 1059.54 394.61C1058.62 391.1 1058.16 387.48 1058.16 383.85C1058.18 380.18 1059.61 376.66 1062.15 374.05C1066.42 370.05 1072.99 370.44 1078.75 371.08C1077.47 369.35 1077.66 366.92 1079.19 365.41C1080.76 363.99 1082.91 363.46 1084.94 363.97C1086.68 364.34 1088.24 365.29 1089.39 366.68C1091.03 368.71 1091.5 371.47 1092.73 373.77C1093.98 376.08 1096.76 378.05 1099.04 376.82C1101.02 375.74 1101.32 372.96 1100.84 370.74C1100.34 368.53 1099.3 366.36 1099.48 364.09C1099.81 359.78 1104.23 357.17 1108.12 355.39C1112 353.61 1116.45 351.21 1117.06 346.91C1117.09 346.07 1117.25 345.24 1117.53 344.46C1117.96 343.76 1118.56 343.18 1119.28 342.79C1130.62 335.16 1142.16 327.42 1155.12 323.25C1155.8 323.03 1155.87 323.27 1156.56 323.11C1157.53 322.54 1156.88 320.97 1155.96 320.34C1155.04 319.72 1153.8 319.22 1153.57 318.12C1153.41 317.31 1153.88 316.51 1154 315.68C1154.1 314.01 1152.85 312.57 1151.2 312.46C1150.82 312.44 1150.44 312.49 1150.08 312.61C1149.04 311.2 1151.09 309.58 1152.76 309.1C1157.77 307.7 1162.91 306.85 1168.09 306.56C1168.69 306.46 1169.3 306.56 1169.84 306.86C1170.63 307.64 1170.69 308.91 1169.97 309.76C1169.26 310.55 1168.48 311.28 1167.64 311.92C1165.92 313.62 1165.28 316.14 1165.96 318.48C1168.68 319.88 1171.61 321.33 1174.62 320.84C1177.61 320.34 1180.26 316.91 1178.86 314.18C1177.55 311.62 1173.61 311.04 1172.93 308.25C1172.14 304.98 1176.69 302.07 1175.66 298.87C1175.22 297.47 1173.84 296.63 1172.78 295.63C1170.24 293.08 1169.49 289.21 1170.89 285.86C1167.41 286.48 1163.84 285.35 1161.33 282.82C1159.04 280.47 1157.22 276.76 1153.97 276.88C1150.99 276.97 1148.42 280.5 1145.63 279.43C1144.95 279.16 1144.23 278.62 1143.57 278.94C1143.13 279.22 1142.84 279.7 1142.79 280.24C1142.09 283.68 1143.3 287.61 1141.45 290.6C1139.45 293.84 1134.8 294.29 1132.36 297.21C1131.04 298.8 1130.53 300.93 1129.31 302.6C1128.09 304.28 1125.53 305.35 1124.06 303.89C1125.54 300.8 1124.72 297.08 1122.09 294.93C1120.74 294.03 1119.28 293.3 1117.75 292.78C1116.04 292.04 1114.41 291.12 1112.9 290.03C1112.14 289.56 1111.53 288.89 1111.12 288.09C1110.8 287.08 1110.84 285.99 1111.24 285.01C1112.75 280.62 1116.53 277.44 1121.05 276.74C1122.99 276.47 1125.25 276.56 1126.54 275.05C1127.21 274.26 1127.56 273.05 1128.56 272.74C1129.19 272.61 1129.84 272.68 1130.42 272.96C1132.84 273.83 1135.25 274.7 1137.67 275.56C1138.48 275.94 1139.37 276.09 1140.25 275.99C1141.16 275.88 1141.82 275.06 1141.76 274.13C1141.53 272.9 1139.68 272.32 1139.86 271.08C1139.94 270.68 1140.15 270.31 1140.46 270.04C1145.75 264.3 1153.29 261.27 1161.01 261.78C1161.92 263.32 1160.48 265.12 1159.26 266.42C1158.06 267.74 1157.09 270.07 1158.56 271.07C1159.15 271.38 1159.81 271.54 1160.48 271.51C1162.26 271.76 1164 272.29 1165.61 273.1C1168.12 274.2 1170.58 275.43 1172.99 276.74C1172.64 275.14 1172.7 273.47 1173.17 271.9C1173.71 270.31 1175.37 269.4 1176.98 269.8C1178.42 270.37 1179.15 272.31 1180.69 272.49C1182.73 272.72 1183.54 269.65 1182.68 267.74C1181.83 265.83 1180.13 264.24 1180 262.14C1179.9 260.73 1180.43 258.99 1179.33 258.14C1178.93 257.87 1178.49 257.71 1178.02 257.66C1164.2 255.08 1153.14 253.01 1150.37 252.49C1148.73 252.18 1146.37 252.42 1146.29 254.1C1146.25 255.06 1147.09 256 1146.72 256.87C1146.32 257.79 1145.03 257.72 1144.09 258.05C1142.65 258.72 1141.81 260.28 1142.04 261.88C1142.29 263.44 1142.88 264.91 1143.77 266.2C1141.97 265.44 1139.25 265.3 1137.45 264.53C1137.19 262.4 1136.66 260.32 1135.87 258.33C1135.7 257.13 1134.61 256.31 1133.43 256.48C1133.31 256.5 1133.18 256.53 1133.06 256.57C1130.69 256.94 1128.31 257.3 1125.94 257.67C1125.34 257.7 1124.77 257.93 1124.31 258.32C1123.38 259.32 1124.29 260.91 1124.26 262.29C1124.09 263.86 1122.95 265.15 1121.43 265.5C1119.94 265.81 1118.4 265.79 1116.92 265.44C1113.59 264.92 1110.27 264.39 1106.94 263.87C1109.88 262.92 1112.49 261.14 1114.48 258.73C1115.8 257.15 1116.51 254.19 1114.6 253.45C1114.04 253.29 1113.45 253.24 1112.87 253.31C1108.35 253.34 1104.79 249.51 1100.56 247.88C1099.23 247.37 1097.83 247.11 1096.41 247.1C1095.47 248.28 1092.63 251.82 1091.69 253Z" id="b2YN1q2qiZ"></path><path d="M1476.53 399.84C1475.48 401.28 1473.8 402.09 1472.04 402.01C1467.45 401.6 1465.52 394.87 1460.97 394.11C1460.57 394 1460.14 394.04 1459.77 394.23C1459.09 394.6 1458.98 395.53 1458.93 396.3C1458.74 400.15 1458.58 404.16 1460.06 407.71C1462.22 412.91 1467.81 417.27 1466.63 422.78C1460.32 419.8 1457.04 412.59 1455.56 405.68C1454.06 398.77 1453.83 391.51 1451.16 384.97C1449.12 387.61 1444.87 385.43 1443.02 382.65C1441.26 380.03 1440.17 376.98 1438.47 374.31C1436.77 371.65 1434.16 369.26 1431.05 369.11C1427.78 368.96 1424.93 371.25 1422.44 373.41C1420.27 375.04 1418.45 377.1 1417.09 379.47C1415.34 383.06 1415.79 387.27 1415.71 391.25C1415.62 395.56 1414.72 400.11 1411.83 403.28C1408.94 406.43 1403.62 407.53 1400.44 404.68C1398.9 403.05 1397.8 401.03 1397.25 398.84C1393.79 388.57 1390.91 378.11 1388.63 367.51C1388.1 369.93 1386 373.05 1384.01 371.63C1383.56 371.25 1383.2 370.77 1382.95 370.23C1379.23 363.82 1372.35 359.97 1365.38 357.66C1358.43 355.36 1351.11 354.28 1344.23 351.74C1340.37 350.32 1336.69 348.45 1333.25 346.18C1331.46 348.85 1331.26 352.3 1332.72 355.16C1334.31 358 1337.57 359.39 1340.67 358.55C1342.19 358.05 1343.48 356.97 1344.99 356.43C1346.51 355.91 1348.54 356.16 1349.2 357.66C1349.85 359.08 1348.88 360.79 1349.37 362.29C1350.08 364.54 1353.44 364.72 1354.62 366.78C1355.32 368.46 1354.88 370.41 1353.52 371.59C1352.17 372.71 1350.68 373.64 1349.09 374.37C1344.16 377.16 1340.65 381.92 1336.34 385.63C1332.03 389.34 1325.94 392.05 1320.81 389.67C1322.03 383.36 1314.65 378.73 1313.28 372.44C1312.83 370.37 1313.06 368.17 1312.43 366.15C1311.51 363.23 1308.96 361.23 1306.87 359.02C1301.76 353.54 1299.04 346.19 1299.32 338.63C1299.44 336.04 1299.91 333.39 1299.32 330.85C1298.75 328.33 1296.68 325.88 1294.13 325.99C1288.31 326.26 1280.96 326.7 1277.91 321.64C1276.81 319.84 1276.34 317.19 1277.92 315.8C1279.04 314.83 1280.68 314.92 1282.13 315.07C1286.52 315.5 1290.89 315.95 1295.27 316.39C1298.34 316.68 1301.65 316.94 1304.29 315.31C1306.93 313.68 1308.08 309.34 1305.63 307.41C1303.85 306.01 1300.65 306.08 1300.13 303.86C1299.7 301.99 1301.73 299.89 1300.63 298.32C1299.85 297.21 1298.09 297.51 1297.02 298.35C1296.08 299.34 1295.07 300.24 1293.98 301.05C1291.88 302.16 1289.39 301.1 1287.13 300.38C1284.87 299.66 1281.85 299.6 1280.77 301.74C1279.53 304.11 1281.84 307.25 1280.63 309.64C1279.02 312.79 1273.59 311 1271.33 313.71C1268.75 316.82 1273.09 321.48 1272.23 325.45C1269.96 326.59 1267.27 326.44 1265.15 325.05C1263.05 323.6 1261.92 321.1 1262.18 318.54C1262.39 316.74 1263.31 314.91 1262.7 313.22C1262.03 311.92 1260.93 310.9 1259.6 310.34C1253.22 306.73 1248.12 303.87 1246.84 303.16C1245.65 305.4 1247.15 308.16 1249.03 309.85C1250.89 311.52 1253.24 312.79 1254.47 315C1256.09 318.18 1254.99 322.09 1251.97 323.93C1251.6 324.19 1251.13 324.27 1250.7 324.15C1250.29 323.91 1249.99 323.5 1249.88 323.03C1247.63 317.16 1244.24 311.38 1238.85 308.32C1233.43 305.25 1225.67 305.89 1222.13 311.04C1221.29 312.26 1220.72 313.67 1219.98 314.97C1216.1 321.85 1207.74 325.11 1199.93 324.9C1199.17 324.95 1198.41 324.77 1197.75 324.37C1196.49 323.49 1196.55 321.61 1196.74 320.06C1197.01 317.86 1197.28 315.68 1197.56 313.49C1197.56 312.15 1198.07 310.86 1198.98 309.89C1200.43 308.73 1202.51 309.46 1204.36 309.43C1207.22 309.3 1209.69 307.36 1210.54 304.57C1211.3 301.78 1210.47 298.79 1208.4 296.81C1207.56 296 1206.43 294.99 1206.87 293.9C1207.23 293.29 1207.84 292.88 1208.53 292.76C1211.83 291.79 1215.33 291.54 1218.58 290.37C1221.83 289.22 1224.99 286.87 1225.76 283.45C1226 282.4 1226.1 281.13 1227.02 280.61C1227.49 280.42 1227.99 280.32 1228.49 280.31C1232.15 279.78 1234.8 276.49 1234.61 272.74C1236.16 271.63 1238.35 272.46 1239.86 273.64C1241.35 274.82 1242.69 276.37 1244.52 276.88C1247.94 277.83 1251.24 274.74 1254.79 274.73C1256.29 274.73 1257.83 275.26 1259.22 274.74C1260.64 274.22 1261.49 272.78 1262.58 271.72C1263.68 270.65 1265.58 270.01 1266.6 271.16C1266.3 268.99 1266.02 266.84 1265.73 264.69C1269.23 265.59 1272.93 264.9 1275.9 262.81C1272.2 261.54 1268.52 260.27 1264.82 259C1264.43 258.9 1264.08 258.71 1263.78 258.43C1262.97 257.55 1263.78 256.18 1264.43 255.18C1266 252.78 1266.26 248.82 1263.68 247.62C1261.92 246.8 1259.91 247.79 1258.22 248.74C1255.52 250.27 1252.82 251.8 1250.13 253.33C1249.88 254.9 1251.75 255.79 1252.91 256.84C1254.84 258.58 1255.02 261.59 1253.31 263.55C1252.43 264.56 1251.18 265.14 1249.86 265.15C1250.94 266.58 1251.32 268.43 1250.9 270.19C1249.1 270.32 1247.28 270.45 1245.46 270.59C1244.85 270.71 1244.22 270.58 1243.7 270.23C1243.11 269.71 1243.2 268.78 1243.06 268.01C1242.56 266.11 1240.98 264.71 1239.07 264.47C1237.2 264.25 1235.31 264.43 1233.51 264.99C1232.73 265.27 1231.87 265.25 1231.1 264.93C1230.67 264.64 1230.34 264.21 1230.16 263.71C1229.51 261.62 1229.98 259.35 1231.4 257.7C1232.8 256.11 1234.36 254.66 1236.03 253.36C1239.83 249.98 1242.61 245.58 1244.08 240.67C1247.07 239.38 1250.17 237.65 1253.18 236.37C1255.59 235.22 1258.13 234.36 1260.73 233.78C1263.18 233.4 1265.66 233.28 1268.14 233.42C1271.51 233.48 1274.9 233.54 1278.27 233.62C1281.28 233.49 1284.29 233.93 1287.15 234.92C1289.92 236.08 1292.37 238.6 1292.56 241.65C1292.68 242.36 1292.43 243.07 1291.9 243.55C1291.51 243.77 1291.07 243.87 1290.62 243.85C1287.82 243.94 1286.63 244.65 1283.83 244.76C1285.61 246.68 1287.6 248.71 1290.18 249.06C1294.73 249.65 1298 244.86 1300.1 240.7C1300.25 242.9 1302.11 244.58 1304.28 244.47C1305.4 244.28 1306.47 243.85 1307.43 243.22C1316.45 238.2 1326.56 235.54 1336.84 235.48C1336.63 233.84 1337.68 232.31 1339.26 231.93C1341.36 231.51 1343.23 233.35 1344.25 235.26C1345.24 237.17 1345.87 239.38 1347.49 240.81C1349.09 242.25 1352.18 242.17 1352.81 240.11C1353.43 238.13 1351.39 236.42 1349.7 235.25C1348 234.08 1346.23 231.92 1347.37 230.18C1356 228.23 1364.69 226.29 1373.54 225.9C1375.04 225.94 1376.54 225.68 1377.94 225.12C1379.36 224.51 1380.21 222.99 1379.99 221.43C1376.04 222.37 1371.93 220.79 1369.58 217.43C1378.66 216.67 1388.16 216 1396.89 218.07C1397.65 218.73 1403.77 224.01 1404.53 224.67C1403.08 226.21 1401.14 227.66 1402.2 229.2C1402.9 229.91 1403.89 230.26 1404.88 230.14C1406.73 230.17 1408.58 230.21 1410.41 230.21C1448.35 267.16 1471.7 316.95 1476.06 370.22C1472.98 370.1 1470.15 374.07 1470.55 377.53C1471.02 381.55 1473.86 384.77 1475.9 388.24C1476.24 388.8 1476.54 389.39 1476.81 389.99C1476.76 391.96 1476.59 397.87 1476.53 399.84Z" id="h1sabFWcsm"></path><path d="M1191.46 529.28C1171 529.28 1154.41 546.17 1154.41 567C1154.41 587.84 1171 604.72 1191.46 604.72C1211.93 604.72 1228.52 587.84 1228.52 567C1228.52 546.17 1211.93 529.28 1191.46 529.28Z" id="c1MDQNOzil"></path><path d="M1158.26 614.14C1158.26 614.14 1186.71 630.82 1186.71 630.82C1186.71 630.82 1192.74 597.47 1195.33 595.71C1197.91 593.96 1173.78 586.06 1173.78 586.06C1170.67 591.68 1161.71 613.27 1158.26 614.14Z" id="eS5Kqq7jQ"></path><path d="M1079.81 873.04L1103.95 882.69L1145.33 799.32L1102.23 808.97L1102.23 808.97L1079.81 873.04Z" id="fV2Re35PV"></path><path d="M1228.09 875.67C1230.67 876.55 1248.77 860.75 1248.77 860.75C1248.77 860.75 1226.36 805.46 1219.46 802.83C1212.57 800.2 1180.67 810.73 1180.67 810.73C1190.15 823.72 1225.5 874.79 1228.09 875.67Z" id="c2GfDfKoP"></path><path d="M1041.02 955.53C1041.02 955.53 1043.61 960.8 1041.02 961.67C1041.02 961.67 1032.4 976.59 1032.4 977.47C1032.4 977.47 1026.36 979.23 1026.36 981.86C1026.36 981.86 1021.19 1005.56 1021.19 1005.56C1021.19 1005.56 1030.67 1026.62 1036.71 1020.47C1042.74 1014.33 1045.33 1002.04 1045.33 1002.04C1046.19 999.76 1053.09 981.51 1053.95 979.23C1053.95 979.23 1053.09 966.94 1059.12 965.19C1059.12 965.19 1068.61 941.49 1068.61 941.49C1068.61 941.49 1078.09 931.84 1079.81 929.2C1079.81 929.2 1111.71 880.06 1109.12 879.18C1106.54 878.3 1076.36 861.63 1076.36 861.63C1069.29 880.41 1044.55 946.14 1041.02 955.53Z" id="bF1PU7fa"></path><path d="M1222.91 873.91C1238.43 863.38 1247.05 857.53 1248.77 856.36C1248.77 856.36 1293.6 939.73 1293.6 941.49C1293.6 941.49 1291.88 948.51 1293.6 950.27C1293.6 950.27 1309.98 980.1 1319.46 982.74C1319.46 982.74 1330.67 995.9 1322.91 997.66C1322.91 997.66 1304.81 1003.8 1302.22 997.66C1300.71 994.04 1298.98 990.53 1297.05 987.13C1297.05 987.13 1288.43 989.76 1287.57 988C1286.57 985.42 1285.71 982.78 1284.98 980.1C1284.98 980.1 1278.08 967.82 1278.08 963.43C1278.08 963.43 1273.77 958.16 1273.77 958.16C1273.77 958.16 1264.29 935.35 1258.26 931.84C1258.26 931.84 1247.05 910.77 1247.05 910.77C1243.83 905.86 1235.79 893.57 1222.91 873.91Z" id="cgaq7AljF"></path><path d="M1191.88 555.34C1178.07 555.34 1166.88 566.74 1166.88 580.79C1166.88 594.85 1178.07 606.24 1191.88 606.24C1205.69 606.24 1216.88 594.85 1216.88 580.79C1216.88 566.74 1205.69 555.34 1191.88 555.34Z" id="am71xZc55"></path><path d="M1085.91 835.32C1085.91 835.32 1234.18 838.49 1238.49 831.47C1238.49 831.47 1201.36 754.56 1199.64 753.68C1197.91 752.8 1117.74 735.25 1117.74 735.25C1111.38 755.27 1080.74 835.32 1085.91 835.32Z" id="b3O1hqRRgH"></path><path d="M1080.67 526.38C1065.16 502.16 1056.54 488.7 1054.81 486.01C1054.81 486.01 1061.21 443.66 1052.59 451.56C1052.59 451.56 1041.24 491.36 1041.24 491.36C1043.24 494.45 1053.22 509.93 1071.19 537.79L1080.67 526.38Z" id="eXQ5EdeNy"></path><path d="M1315.15 600.1C1329.12 599.05 1336.88 598.46 1338.43 598.35C1338.43 598.35 1366.01 568.51 1367.74 578.16C1367.74 578.16 1345.32 608.88 1345.32 608.88C1343.2 609.11 1332.57 610.28 1313.43 612.39L1315.15 600.1Z" id="c5wRcidwC"></path><path d="M1145.33 600.1C1145.33 600.1 1122.91 585.18 1123.78 582.55C1124.64 579.92 1122.05 578.16 1122.05 578.16C1122.05 578.16 1119.47 574.65 1119.47 573.77C1119.47 572.9 1116.02 572.02 1116.02 572.02C1113.86 569.47 1096.62 549.11 1094.47 546.57C1094.47 546.57 1082.4 521.99 1079.81 522.87C1079.81 522.87 1063.43 529.02 1065.16 532.53C1065.16 532.53 1115.16 611.51 1115.16 611.51C1115.16 611.51 1117.74 628.18 1122.05 628.18C1126.36 628.18 1145.33 608.88 1145.33 608.88C1145.33 607.12 1145.33 600.98 1145.33 600.1Z" id="a3mXklChT"></path><path d="M1203.09 619.41C1203.09 619.41 1222.05 618.53 1222.91 619.41C1222.91 619.41 1235.84 619.41 1235.84 619.41C1235.84 619.41 1268.6 611.51 1271.19 608.88C1271.19 608.88 1316.88 594.84 1318.6 600.1C1318.6 600.1 1324.64 615.9 1320.32 617.65C1320.32 617.65 1199.64 649.25 1199.64 649.25C1200.33 643.28 1202.4 625.38 1203.09 619.41Z" id="c12CW8U319"></path><path d="M1178.5 511.69C1170.03 511.69 1163.17 518.68 1163.17 527.3C1163.17 535.92 1170.03 542.91 1178.5 542.91C1186.97 542.91 1193.83 535.92 1193.83 527.3C1193.83 518.68 1186.97 511.69 1178.5 511.69Z" id="bivZv43Oc"></path><path d="M1171.79 503.32C1171.26 503.27 1170.73 503.24 1170.2 503.24C1161.73 503.24 1154.86 510.23 1154.86 518.85C1154.86 527.47 1161.73 534.46 1170.2 534.46C1170.73 534.46 1171.26 534.43 1171.79 534.37C1163.99 533.54 1158.06 526.84 1158.06 518.85C1158.06 510.86 1163.99 504.16 1171.79 503.32Z" id="cafAIUInzI"></path><path d="M1221.33 559C1221.33 567.63 1209.89 574.61 1195.77 574.61C1181.66 574.61 1170.22 567.63 1170.22 559C1170.22 550.38 1181.66 543.4 1195.77 543.4C1209.89 543.4 1221.33 550.38 1221.33 559Z" id="b3qslWZZX9"></path><path d="M1156.97 606.68C1156.97 606.68 1144.9 598.78 1143.17 598.78C1143.17 598.78 1119.04 625.11 1119.04 625.11C1119.04 625.11 1123.2 630 1119.04 654.95C1117.47 664.31 1114.37 704.32 1114.37 709.59C1114.37 714.85 1097.48 727.79 1113 739.2C1128.52 750.61 1202.65 762.9 1203.52 755.88C1204.38 748.86 1194.9 730.43 1199.21 721.65C1203.52 712.87 1203.52 680.4 1203.52 680.4C1203.86 678.12 1205.59 666.71 1208.69 646.18C1211.28 629.85 1212.71 620.78 1213 618.97C1213 618.97 1192.74 613.27 1191.02 613.27C1189.29 613.27 1181.53 625.55 1166.45 599.66C1164.55 601.07 1158.69 605.81 1156.97 606.68Z" id="gRcPTw6vR"></path><path d="M1473.4 1034.67C1473.4 1034.67 1473.4 1034.67 1473.4 1034.67C1473.4 1036.3 1473.4 1037.21 1473.4 1037.39C1473.4 1037.39 1473.4 1037.39 1473.4 1037.39C997.2 1037.39 732.65 1037.39 679.74 1037.39C679.74 1037.39 679.74 1037.39 679.74 1037.39C679.74 1035.76 679.74 1034.85 679.74 1034.67C679.74 1034.67 679.74 1034.67 679.74 1034.67C1155.93 1034.67 1420.49 1034.67 1473.4 1034.67Z" id="jPIF2JMV7"></path><path d="M665.95 1366.53L187.65 1366.53C187.78 1328.94 187.85 1308.06 187.86 1303.89C188.41 1145.37 290.83 1014.76 419.13 1012.06C420.52 1012.03 421.91 1012.02 423.3 1012.02C423.3 1012.02 423.3 1012.02 423.3 1012.02C452.17 1011.99 480.81 1018.35 507.86 1030.79C598.65 1072.55 659.58 1178.66 663.63 1298.23C663.94 1307.34 664.72 1330.1 665.95 1366.53Z" id="n5dOqaLmy"></path><path d="M813.88 1366.53C813.88 1366.53 813.88 1366.53 813.88 1366.53C813.88 1367.99 813.88 1368.81 813.88 1368.97C813.88 1368.97 813.88 1368.97 813.88 1368.97C341.1 1368.97 78.44 1368.97 25.91 1368.97C25.91 1368.97 25.91 1368.97 25.91 1368.97C25.91 1367.51 25.91 1366.69 25.91 1366.53C25.91 1366.53 25.91 1366.53 25.91 1366.53C498.69 1366.53 761.35 1366.53 813.88 1366.53Z" id="aazjeGxG"></path><path d="M439.77 1105.28L460.85 1327.76L510.66 1327.76L493.42 1074.51L424.45 1041.37L418.7 1086.34L418.7 1086.34L439.77 1105.28Z" id="e2kaMGJfdr"></path><path d="M330.56 1015.34C330.56 1015.34 324.82 1095.81 347.81 1098.18C347.81 1098.18 458.93 1074.51 458.93 1074.51C461.74 1086.81 475.79 1148.35 501.08 1259.12C539.02 1234.98 560.1 1221.57 564.31 1218.88C564.31 1218.88 525.99 1010.6 503 998.77C503 998.77 403.37 963.27 403.37 963.27C399.67 964.06 381.15 968 347.81 975.1C338.61 996.56 332.86 1009.97 330.56 1015.34Z" id="c1bPR27nh"></path><path d="M468.51 1323.02C468.51 1323.02 457.02 1377.46 464.68 1382.19C469.29 1385.04 473.77 1388.2 478.09 1391.66C478.09 1390.71 478.09 1383.14 478.09 1382.19C478.09 1382.19 487.67 1394.03 487.67 1403.5C487.67 1403.5 539.4 1415.33 539.4 1403.5C539.4 1403.5 537.49 1377.46 527.91 1370.36C527.91 1370.36 506.83 1323.02 506.83 1323.02C499.17 1323.02 476.18 1323.02 468.51 1323.02Z" id="a6Tpsly8A"></path><path d="M527.91 1270.95L541.32 1299.36L573.89 1254.39L548.98 1204.68L524.08 1225.98L524.08 1225.98L527.91 1270.95Z" id="b8kOj1ityV"></path><path d="M568.8 1244.22C568.8 1244.22 602.63 1278.05 602.63 1278.05C604.55 1279.47 619.87 1290.83 621.79 1292.25C621.79 1292.25 660.11 1296.99 648.61 1311.19C648.61 1311.19 594.97 1344.32 575.81 1334.86C575.81 1334.86 552.82 1323.02 552.82 1323.02C552.43 1323.34 550.52 1324.92 547.07 1327.76L524.08 1320.66C526.38 1290.83 527.65 1274.27 527.91 1270.95C527.91 1270.95 533.66 1292.25 554.73 1270.95C557.54 1265.61 561.79 1241.15 568.8 1244.22Z" id="d4ky8YR3i2"></path><path d="M591.51 845.17C591.51 845.17 591.51 845.17 591.51 845.17C592.21 846.3 592.6 846.93 592.67 847.05C592.67 847.05 592.67 847.05 592.67 847.05C559.33 878.29 540.81 895.65 537.11 899.12C537.11 899.12 537.11 899.12 537.11 899.12C536.41 897.99 536.03 897.36 535.95 897.24C535.95 897.24 535.95 897.24 535.95 897.24C569.29 865.99 587.81 848.64 591.51 845.17Z" id="acoKh1a2V"></path><path d="M587.68 871.2C587.68 871.2 587.68 871.2 587.68 871.2C588.38 872.33 588.76 872.96 588.84 873.09C588.84 873.09 588.84 873.09 588.84 873.09C555.5 904.33 536.98 921.69 533.28 925.16C533.28 925.16 533.28 925.16 533.28 925.16C532.58 924.02 532.2 923.4 532.12 923.27C532.12 923.27 532.12 923.27 532.12 923.27C565.46 892.03 583.98 874.67 587.68 871.2Z" id="c2ehjqMna5"></path><path d="M381.58 880.47C381.58 880.47 381.58 880.47 381.58 880.47C464.35 907.45 510.33 922.44 519.53 925.44C519.53 925.44 519.53 925.44 519.53 925.44C519.24 926.81 519.07 927.57 519.04 927.73C519.04 927.73 519.04 927.73 519.04 927.73C436.27 900.74 390.29 885.75 381.09 882.76C381.09 882.76 381.09 882.76 381.09 882.76C381.39 881.38 381.55 880.62 381.58 880.47Z" id="ciwS1UFTn"></path><path d="M383.5 868.63C383.5 868.63 383.5 868.63 383.5 868.63C466.27 895.62 512.25 910.6 521.45 913.6C521.45 913.6 521.45 913.6 521.45 913.6C521.15 914.98 520.99 915.74 520.96 915.89C520.96 915.89 520.96 915.89 520.96 915.89C438.19 888.91 392.21 873.92 383.01 870.92C383.01 870.92 383.01 870.92 383.01 870.92C383.3 869.55 383.47 868.79 383.5 868.63Z" id="a808x7Ax8"></path><path d="M333.46 895.66C333.46 895.66 376.55 863.86 395.71 885.16C395.71 885.16 340.14 937.23 340.14 937.23C338.81 928.92 334.79 903.97 333.46 895.66Z" id="c6TAKHENAx"></path><path d="M342.06 885.16C342.06 885.16 332.48 930.13 351.64 932.5C348.96 936.52 327.5 968.71 324.82 972.73C324.82 972.73 271.17 972.73 286.5 911.2C297.61 905.99 336.5 887.77 342.06 885.16Z" id="fQI5UzGuU"></path><path d="M618.92 758.54L603.59 822.44L546.11 874.51L563.35 810.61L563.35 810.61L618.92 758.54Z" id="csL3p5UGs"></path><path d="M312.36 900.55L342.06 890.08L318.11 891.08L314.28 808.24L314.28 808.24L312.36 900.55Z" id="a1iPzjhRHS"></path><path d="M554.51 646.54C554.51 646.54 554.51 646.54 554.51 646.54C554.51 668.47 554.51 680.65 554.51 683.09C554.51 683.09 554.51 683.09 554.51 683.09C536.76 683.09 526.9 683.09 524.92 683.09C524.92 683.09 524.92 683.09 524.92 683.09C524.92 661.16 524.92 648.98 524.92 646.54C524.92 646.54 524.92 646.54 524.92 646.54C542.68 646.54 552.54 646.54 554.51 646.54Z" id="f2oLKO7Rq5"></path><path d="M389.25 833.13C389.25 833.13 389.25 833.13 389.25 833.13C472.02 860.11 518 875.1 527.19 878.1C527.19 878.1 527.19 878.1 527.19 878.1C526.9 879.47 526.74 880.24 526.71 880.39C526.71 880.39 526.71 880.39 526.71 880.39C443.94 853.41 397.95 838.42 388.76 835.42C388.76 835.42 388.76 835.42 388.76 835.42C389.05 834.05 389.21 833.28 389.25 833.13Z" id="cphNSJKXd"></path><path d="M387.33 844.97C387.33 844.97 387.33 844.97 387.33 844.97C470.1 871.95 516.08 886.94 525.28 889.93C525.28 889.93 525.28 889.93 525.28 889.93C524.99 891.31 524.82 892.07 524.79 892.22C524.79 892.22 524.79 892.22 524.79 892.22C442.02 865.24 396.04 850.25 386.84 847.25C386.84 847.25 386.84 847.25 386.84 847.25C387.13 845.88 387.3 845.12 387.33 844.97Z" id="c1FSKrxsHU"></path><path d="M391.16 821.3C391.16 821.3 391.16 821.3 391.16 821.3C473.93 848.28 519.91 863.27 529.11 866.27C529.11 866.27 529.11 866.27 529.11 866.27C528.82 867.64 528.65 868.4 528.62 868.55C528.62 868.55 528.62 868.55 528.62 868.55C445.85 841.57 399.87 826.58 390.67 823.59C390.67 823.59 390.67 823.59 390.67 823.59C390.97 822.21 391.13 821.45 391.16 821.3Z" id="a4zOPxpeW"></path><path d="M394.99 797.63C394.99 797.63 394.99 797.63 394.99 797.63C477.76 824.61 523.75 839.6 532.94 842.6C532.94 842.6 532.94 842.6 532.94 842.6C532.65 843.97 532.49 844.73 532.45 844.89C532.45 844.89 532.45 844.89 532.45 844.89C449.68 817.9 403.7 802.91 394.5 799.92C394.5 799.92 394.5 799.92 394.5 799.92C394.8 798.54 394.96 797.78 394.99 797.63Z" id="d4UhViy2ai"></path><path d="M398.83 785.79C398.83 785.79 398.83 785.79 398.83 785.79C481.59 812.78 527.58 827.77 536.77 830.76C536.77 830.76 536.77 830.76 536.77 830.76C536.48 832.14 536.32 832.9 536.29 833.05C536.29 833.05 536.29 833.05 536.29 833.05C453.52 806.07 407.53 791.08 398.34 788.08C398.34 788.08 398.34 788.08 398.34 788.08C398.63 786.71 398.79 785.95 398.83 785.79Z" id="b15DRcElqZ"></path><path d="M395.71 610.61C371.37 610.61 351.64 634.98 351.64 665.05C351.64 695.11 371.37 719.48 395.71 719.48C420.04 719.48 439.77 695.11 439.77 665.05C439.77 634.98 420.04 610.61 395.71 610.61Z" id="b2hWVJSi2J"></path><path d="M360.26 746.7C348.77 746.7 362.18 808.24 392.83 808.24C423.49 808.24 434.98 734.87 434.98 734.87C434.98 734.87 413.91 725.4 417.74 694.63C421.57 663.86 367.93 697 367.93 697C366.39 706.94 371.76 746.7 360.26 746.7Z" id="f5KF01MBf"></path><path d="M348.77 751.44C322.54 765.14 307.97 772.76 305.05 774.28C301.43 776.17 299.25 780.78 299.69 785.61C301.34 803.73 314.54 948.7 316.19 966.82C316.19 966.82 298.95 1011.79 325.77 1014.15C326.03 1015.26 327.31 1020.78 329.61 1030.72L360.26 985.75L475.22 981.02L477.14 751.44C445.58 736.03 428.04 727.47 424.54 725.76C424.54 725.76 417.38 774.62 364.87 742.91C362.73 744.05 357.36 746.89 348.77 751.44Z" id="e12EfNHkjR"></path><path d="M311.4 781.02C307.16 779.52 304.8 778.69 304.32 778.52C301.22 777.43 297.99 779.65 297.11 783.48C297.04 783.75 296.99 784.04 296.96 784.32C295.08 798.88 280.05 915.35 278.17 929.91C276.7 940.69 278.11 951.77 282.17 961.49C287.97 975.06 300.03 987.38 324.82 972.73C325.97 962.48 331.71 911.2 342.06 818.89L311.4 781.02Z" id="aYC0CJYf"></path><path d="M455.1 747.89L478.09 752.62L541.32 861.49L547.07 880.43C568.91 871.91 581.04 867.17 583.47 866.23C583.47 866.23 581.56 887.53 600.71 885.16C600.71 885.16 577.72 963.27 529.82 939.6C481.93 915.93 466.6 844.93 466.6 844.93C465.06 831.99 461.23 799.64 455.1 747.89Z" id="eKonwrNco"></path><path d="M395.71 752.62L391.88 766.82L432.11 809.42L481.93 795.22L481.93 795.22L395.71 752.62Z" id="bBQZA69dW"></path><path d="M371.1 663.23C371.39 652.09 376.82 640.67 385.45 637.42C388.76 636.3 392.23 636.07 395.62 636.73C400.46 637.53 405.13 639.45 409.39 642.41C411.64 643.97 413.85 645.85 416.4 646.33C418.08 646.64 425.37 649.26 427.05 649.63C430.73 650.44 434.16 654.51 437.7 653C441.08 651.55 441.83 646.13 441.91 641.71C442.1 631.63 435.9 617.68 430.45 610.18C426.31 604.49 420.08 601.87 413.98 600.5C406.86 599.09 399.65 598.55 392.45 598.88C382.69 599.1 372.67 600.03 363.88 605.24C355.08 610.45 347.7 620.83 347.28 632.86C347.19 635.37 347.4 637.89 347.23 640.39C346.81 646.49 344.19 652 342.96 657.93C341.18 666.73 342.5 676.05 346.59 683.59C349.85 689.52 362.9 694.91 362.71 702.07C365.07 699.06 359.51 696.02 361.87 693C364.05 690.94 364.77 687.29 363.6 684.23C363.34 683.02 361.34 673.37 361.09 672.16C360.63 669.95 360.18 667.56 360.87 665.44C363.56 657.25 366.46 669.41 369.18 668.52C370.8 667.98 371.04 665.31 371.1 663.23Z" id="d2jtypWTb"></path><path d="M355.47 941.96L497.25 1003.5L579.64 918.3L631.37 726.59L547.07 802.32L391.88 766.82L391.88 766.82L355.47 941.96Z" id="n16kp4EoQJ"></path><path d="M393.08 809.46C393.08 809.46 393.08 809.46 393.08 809.46C475.85 836.44 521.83 851.43 531.03 854.43C531.03 854.43 531.03 854.43 531.03 854.43C530.73 855.81 530.57 856.57 530.54 856.72C530.54 856.72 530.54 856.72 530.54 856.72C447.77 829.74 401.79 814.75 392.59 811.75C392.59 811.75 392.59 811.75 392.59 811.75C392.88 810.38 393.04 809.62 393.08 809.46Z" id="g2a5Yi5vWN"></path><path d="M385.41 856.8C385.41 856.8 385.41 856.8 385.41 856.8C468.18 883.78 514.17 898.77 523.36 901.77C523.36 901.77 523.36 901.77 523.36 901.77C523.07 903.14 522.91 903.9 522.87 904.06C522.87 904.06 522.87 904.06 522.87 904.06C440.1 877.08 394.12 862.09 384.92 859.09C384.92 859.09 384.92 859.09 384.92 859.09C385.22 857.71 385.38 856.95 385.41 856.8Z" id="fcCWtJ3I"></path><path d="M506.44 940.92L488.99 987.91L415.26 957.21L432.71 910.23L432.71 910.23L506.44 940.92Z" id="bcwCPYm3n"></path><path d="M612.21 837.83C612.21 837.83 581.56 878.06 581.56 878.06C581.56 878.06 579.64 889.9 594.97 887.53C598.42 877.59 642.87 852.03 612.21 837.83Z" id="bMKqgSwk"></path><path d="M131.71 1369.08C131.71 1369.08 142.52 1341.67 136.53 1314.32C130.54 1286.97 110.02 1270.03 110.02 1270.03C110.02 1270.03 99.22 1297.44 105.21 1324.79C111.2 1352.14 126.41 1360.22 131.71 1369.08Z" id="cTajZ0jfq"></path><path d="M132.45 1369.05C132.45 1369.05 107.81 1367.39 91.38 1347.63C74.95 1327.87 72.94 1297.48 72.94 1297.48C72.94 1297.48 97.58 1299.15 114.01 1318.91C130.45 1338.67 128.76 1359.03 132.45 1369.05Z" id="a5oIb55Wbg"></path><path d="M672.85 1060.75C672.85 1060.75 672.85 1060.75 672.85 1060.75C672.85 1082.68 672.85 1094.86 672.85 1097.3C672.85 1097.3 672.85 1097.3 672.85 1097.3C655.1 1097.3 645.24 1097.3 643.27 1097.3C643.27 1097.3 643.27 1097.3 643.27 1097.3C643.27 1075.37 643.27 1063.19 643.27 1060.75C643.27 1060.75 643.27 1060.75 643.27 1060.75C661.02 1060.75 670.88 1060.75 672.85 1060.75Z" id="a1PBonMimX"></path><path d="M182.72 980.34C174.55 980.34 167.92 988.53 167.92 998.62C167.92 1008.71 174.55 1016.89 182.72 1016.89C190.89 1016.89 197.51 1008.71 197.51 998.62C197.51 988.53 190.89 980.34 182.72 980.34Z" id="ei0fR8FP"></path><path d="M865.48 430.19C865.48 430.19 865.48 430.19 865.48 430.19C865.48 441.45 856.74 450.58 845.97 450.58C844.93 450.58 836.6 450.58 835.56 450.58C824.79 450.58 816.05 441.45 816.05 430.19C816.05 430.19 816.05 430.19 816.05 430.19L865.48 430.19Z" id="csoxCQq4g"></path><path d="M877.03 384.54C877.03 373.17 877.03 366.86 877.03 365.59C877.03 342.7 900.85 321.04 916.31 305.59C938.1 283.83 949.55 254.59 949.55 220.33C949.55 157.54 900.84 106.65 840.76 106.65C780.92 106.65 732.31 157.16 731.98 219.7C731.98 220.02 731.98 220.27 731.98 220.33C731.98 253.36 743.92 284.59 765.22 305.59C780.59 320.76 804.5 342.46 804.5 365.59C804.5 366.86 804.5 373.17 804.5 384.54" id="bizOCOR0t"></path><path d="M874.48 384.54C874.48 384.54 874.48 384.54 874.48 384.54C874.48 382.65 874.48 367.49 874.48 365.59C874.48 343.32 895.5 322.53 910.85 307.35C912.12 306.09 913.36 304.86 914.55 303.67C935.78 282.46 947 253.64 947 220.33C947 158.07 900.34 109.31 840.77 109.31C840.67 109.31 840.57 109.31 840.47 109.31C782.1 109.37 734.76 158.71 734.53 219.71C734.53 219.77 734.53 220.26 734.53 220.33C734.53 252.95 746.35 283.32 766.97 303.66C768.01 304.69 769.1 305.75 770.21 306.84C785.76 322.05 807.05 342.89 807.05 365.59C807.05 367.49 807.05 382.65 807.05 384.54C807.05 386.01 805.91 387.2 804.5 387.2C803.1 387.2 801.96 386.01 801.96 384.54C801.96 382.65 801.96 367.49 801.96 365.59C801.96 345.19 781.6 325.27 766.73 310.73C765.61 309.63 764.52 308.56 763.47 307.53C741.84 286.19 729.44 254.41 729.44 220.33C729.44 220.27 729.44 219.76 729.44 219.69C729.61 155.83 779.39 103.99 840.46 103.99C840.57 103.99 840.66 103.99 840.77 103.99C901.94 103.66 951.78 155.2 952.09 219.12C952.1 219.52 952.1 219.93 952.09 220.33C952.09 255.13 940.33 285.28 918.07 307.52C916.87 308.71 915.63 309.94 914.35 311.21C899.67 325.73 879.57 345.61 879.57 365.59C879.57 367.49 879.57 382.65 879.57 384.54C879.57 386.01 878.43 387.2 877.03 387.2C877.03 387.2 877.03 387.2 877.03 387.2C875.62 387.2 874.48 386.01 874.48 384.54Z" id="a1QOAsUP6h"></path><path d="M816.59 421.33C814.25 421.33 812.35 419.34 812.35 416.89C812.35 414.45 814.25 412.46 816.59 412.46C821.43 412.46 860.1 412.46 864.94 412.46C867.28 412.46 869.18 414.45 869.18 416.89C869.18 419.34 867.28 421.33 864.94 421.33C855.27 421.33 821.43 421.33 816.59 421.33Z" id="afsZDUBIy"></path><path d="M725.5 114.76C721.85 111.43 692.71 84.85 689.07 81.53C687.31 79.92 687.12 77.12 688.66 75.28C690.2 73.43 692.88 73.24 694.64 74.85C694.65 74.85 694.65 74.85 694.65 74.85C698.29 78.17 727.43 104.76 731.07 108.08C732.84 109.69 733.02 112.49 731.48 114.33C730.67 115.3 729.51 115.85 728.28 115.85C727.26 115.85 726.27 115.46 725.5 114.76Z" id="dpUP4ZEZ9"></path><path d="M942.96 111.42C942.96 110.14 943.49 108.92 944.41 108.08C948.06 104.76 977.19 78.17 980.84 74.85C982.6 73.24 985.28 73.44 986.82 75.28C988.36 77.13 988.18 79.92 986.42 81.53C982.77 84.85 953.63 111.43 949.99 114.76C949.22 115.46 948.23 115.85 947.2 115.85C944.86 115.85 942.96 113.87 942.96 111.42Z" id="b1ybDjPbQI"></path><path d="M804.5 405.59C802.16 405.59 800.26 403.61 800.26 401.16C800.26 398.71 802.16 396.73 804.5 396.73C811.76 396.73 869.77 396.73 877.03 396.73C879.37 396.73 881.27 398.71 881.27 401.16C881.27 403.61 879.37 405.59 877.03 405.59C862.52 405.59 811.76 405.59 804.5 405.59Z" id="dBkd5wiip"></path><path d="M836.52 384.54C836.52 384.54 836.52 384.54 836.52 384.54C836.52 374.44 836.52 293.59 836.52 283.49C836.52 281.04 838.42 279.06 840.77 279.06C843.11 279.06 845.01 281.04 845.01 283.49C845.01 293.59 845.01 374.44 845.01 384.54C845.01 386.99 843.11 388.97 840.77 388.97C840.77 388.97 840.77 388.97 840.77 388.97C838.42 388.97 836.52 386.99 836.52 384.54Z" id="e1iXSSaAa8"></path><path d="M809.53 274.41C807.65 272.95 807.26 270.18 808.66 268.21C810.05 266.25 812.71 265.84 814.59 267.3C814.59 267.3 814.59 267.3 814.59 267.3C818.81 270.57 831.73 279.06 840.77 279.06C849.8 279.06 862.73 270.57 866.94 267.3C868.82 265.84 871.48 266.25 872.88 268.21C874.27 270.18 873.88 272.95 872 274.41C871.29 274.97 854.47 287.92 840.77 287.92C827.06 287.92 810.24 274.97 809.53 274.41Z" id="a1dVAZeqUP"></path><path d="M836.52 67.17C836.52 59.59 836.52 -1.04 836.52 -8.62C836.52 -11.06 838.42 -13.05 840.76 -13.05C843.11 -13.05 845.01 -11.06 845.01 -8.62C845.01 -1.04 845.01 59.59 845.01 67.17C845.01 69.62 843.11 71.61 840.76 71.61C838.42 71.61 836.52 69.62 836.52 67.17Z" id="gzBVFf9ra"></path></defs><g><g><g><use xlink:href="#bUgRTo2ew" opacity="1" fill="#e6e6e6" fill-opacity="1"></use><g><use xlink:href="#bUgRTo2ew" opacity="1" fill-opacity="0" stroke="#000000" stroke-width="1" stroke-opacity="0"></use></g></g><g><use xlink:href="#hsElhvdAY" opacity="1" fill="#e6e6e6" fill-opacity="1"></use><g><use xlink:href="#hsElhvdAY" opacity="1" fill-opacity="0" stroke="#000000" stroke-width="1" stroke-opacity="0"></use></g></g><g><use xlink:href="#aT2W3Koya" opacity="1" fill="#e6e6e6" fill-opacity="1"></use><g><use xlink:href="#aT2W3Koya" opacity="1" fill-opacity="0" stroke="#000000" stroke-width="1" stroke-opacity="0"></use></g></g><g><use xlink:href="#b7bg4CXJOv" opacity="1" fill="#00b541" fill-opacity="1"></use><g><use xlink:href="#b7bg4CXJOv" opacity="1" fill-opacity="0" stroke="#000000" stroke-width="1" stroke-opacity="0"></use></g></g><g><use xlink:href="#b65Iq7Iqr9" opacity="1" fill="#e6e6e6" fill-opacity="1"></use><g><use xlink:href="#b65Iq7Iqr9" opacity="1" fill-opacity="0" stroke="#000000" stroke-width="1" stroke-opacity="0"></use></g></g><g><use xlink:href="#c57MEzn2yt" opacity="1" fill="#00b541" fill-opacity="1"></use><g><use xlink:href="#c57MEzn2yt" opacity="1" fill-opacity="0" stroke="#000000" stroke-width="1" stroke-opacity="0"></use></g></g><g><use xlink:href="#b2YN1q2qiZ" opacity="1" fill="#3f3d56" fill-opacity="1"></use><g><use xlink:href="#b2YN1q2qiZ" opacity="1" fill-opacity="0" stroke="#000000" stroke-width="1" stroke-opacity="0"></use></g></g><g><use xlink:href="#h1sabFWcsm" opacity="1" fill="#3f3d56" fill-opacity="1"></use><g><use xlink:href="#h1sabFWcsm" opacity="1" fill-opacity="0" stroke="#000000" stroke-width="1" stroke-opacity="0"></use></g></g><g><use xlink:href="#c1MDQNOzil" opacity="1" fill="#2f2e41" fill-opacity="1"></use><g><use xlink:href="#c1MDQNOzil" opacity="1" fill-opacity="0" stroke="#000000" stroke-width="1" stroke-opacity="0"></use></g></g><g><use xlink:href="#eS5Kqq7jQ" opacity="1" fill="#ffb9b9" fill-opacity="1"></use><g><use xlink:href="#eS5Kqq7jQ" opacity="1" fill-opacity="0" stroke="#000000" stroke-width="1" stroke-opacity="0"></use></g></g><g><use xlink:href="#fV2Re35PV" opacity="1" fill="#ffb9b9" fill-opacity="1"></use><g><use xlink:href="#fV2Re35PV" opacity="1" fill-opacity="0" stroke="#000000" stroke-width="1" stroke-opacity="0"></use></g></g><g><use xlink:href="#c2GfDfKoP" opacity="1" fill="#ffb9b9" fill-opacity="1"></use><g><use xlink:href="#c2GfDfKoP" opacity="1" fill-opacity="0" stroke="#000000" stroke-width="1" stroke-opacity="0"></use></g></g><g><use xlink:href="#bF1PU7fa" opacity="1" fill="#2f2e41" fill-opacity="1"></use><g><use xlink:href="#bF1PU7fa" opacity="1" fill-opacity="0" stroke="#000000" stroke-width="1" stroke-opacity="0"></use></g></g><g><use xlink:href="#cgaq7AljF" opacity="1" fill="#2f2e41" fill-opacity="1"></use><g><use xlink:href="#cgaq7AljF" opacity="1" fill-opacity="0" stroke="#000000" stroke-width="1" stroke-opacity="0"></use></g></g><g><use xlink:href="#am71xZc55" opacity="1" fill="#ffb9b9" fill-opacity="1"></use><g><use xlink:href="#am71xZc55" opacity="1" fill-opacity="0" stroke="#000000" stroke-width="1" stroke-opacity="0"></use></g></g><g><use xlink:href="#b3O1hqRRgH" opacity="1" fill="#2f2e41" fill-opacity="1"></use><g><use xlink:href="#b3O1hqRRgH" opacity="1" fill-opacity="0" stroke="#000000" stroke-width="1" stroke-opacity="0"></use></g></g><g><use xlink:href="#eXQ5EdeNy" opacity="1" fill="#ffb9b9" fill-opacity="1"></use><g><use xlink:href="#eXQ5EdeNy" opacity="1" fill-opacity="0" stroke="#000000" stroke-width="1" stroke-opacity="0"></use></g></g><g><use xlink:href="#c5wRcidwC" opacity="1" fill="#ffb9b9" fill-opacity="1"></use><g><use xlink:href="#c5wRcidwC" opacity="1" fill-opacity="0" stroke="#000000" stroke-width="1" stroke-opacity="0"></use></g></g><g><use xlink:href="#a3mXklChT" opacity="1" fill="#3f3d56" fill-opacity="1"></use><g><use xlink:href="#a3mXklChT" opacity="1" fill-opacity="0" stroke="#000000" stroke-width="1" stroke-opacity="0"></use></g></g><g><use xlink:href="#c12CW8U319" opacity="1" fill="#3f3d56" fill-opacity="1"></use><g><use xlink:href="#c12CW8U319" opacity="1" fill-opacity="0" stroke="#000000" stroke-width="1" stroke-opacity="0"></use></g></g><g><use xlink:href="#bivZv43Oc" opacity="1" fill="#2f2e41" fill-opacity="1"></use><g><use xlink:href="#bivZv43Oc" opacity="1" fill-opacity="0" stroke="#000000" stroke-width="1" stroke-opacity="0"></use></g></g><g><use xlink:href="#cafAIUInzI" opacity="1" fill="#2f2e41" fill-opacity="1"></use><g><use xlink:href="#cafAIUInzI" opacity="1" fill-opacity="0" stroke="#000000" stroke-width="1" stroke-opacity="0"></use></g></g><g><use xlink:href="#b3qslWZZX9" opacity="1" fill="#2f2e41" fill-opacity="1"></use><g><use xlink:href="#b3qslWZZX9" opacity="1" fill-opacity="0" stroke="#000000" stroke-width="1" stroke-opacity="0"></use></g></g><g><use xlink:href="#gRcPTw6vR" opacity="1" fill="#3f3d56" fill-opacity="1"></use><g><use xlink:href="#gRcPTw6vR" opacity="1" fill-opacity="0" stroke="#000000" stroke-width="1" stroke-opacity="0"></use></g></g><g><use xlink:href="#jPIF2JMV7" opacity="1" fill="#3f3d56" fill-opacity="1"></use><g><use xlink:href="#jPIF2JMV7" opacity="1" fill-opacity="0" stroke="#000000" stroke-width="1" stroke-opacity="0"></use></g></g><g><use xlink:href="#n5dOqaLmy" opacity="1" fill="#b58b00" fill-opacity="1"></use><g><use xlink:href="#n5dOqaLmy" opacity="1" fill-opacity="0" stroke="#000000" stroke-width="1" stroke-opacity="0"></use></g></g><g><use xlink:href="#aazjeGxG" opacity="1" fill="#2f2e41" fill-opacity="1"></use><g><use xlink:href="#aazjeGxG" opacity="1" fill-opacity="0" stroke="#000000" stroke-width="1" stroke-opacity="0"></use></g></g><g><use xlink:href="#e2kaMGJfdr" opacity="1" fill="#2f2e41" fill-opacity="1"></use><g><use xlink:href="#e2kaMGJfdr" opacity="1" fill-opacity="0" stroke="#000000" stroke-width="1" stroke-opacity="0"></use></g></g><g><use xlink:href="#c1bPR27nh" opacity="1" fill="#2f2e41" fill-opacity="1"></use><g><use xlink:href="#c1bPR27nh" opacity="1" fill-opacity="0" stroke="#000000" stroke-width="1" stroke-opacity="0"></use></g></g><g><use xlink:href="#a6Tpsly8A" opacity="1" fill="#2f2e41" fill-opacity="1"></use><g><use xlink:href="#a6Tpsly8A" opacity="1" fill-opacity="0" stroke="#000000" stroke-width="1" stroke-opacity="0"></use></g></g><g><use xlink:href="#b8kOj1ityV" opacity="1" fill="#2f2e41" fill-opacity="1"></use><g><use xlink:href="#b8kOj1ityV" opacity="1" fill-opacity="0" stroke="#000000" stroke-width="1" stroke-opacity="0"></use></g></g><g><use xlink:href="#d4ky8YR3i2" opacity="1" fill="#2f2e41" fill-opacity="1"></use><g><use xlink:href="#d4ky8YR3i2" opacity="1" fill-opacity="0" stroke="#000000" stroke-width="1" stroke-opacity="0"></use></g></g><g><use xlink:href="#acoKh1a2V" opacity="1" fill="#e6e6e6" fill-opacity="1"></use><g><use xlink:href="#acoKh1a2V" opacity="1" fill-opacity="0" stroke="#000000" stroke-width="1" stroke-opacity="0"></use></g></g><g><use xlink:href="#c2ehjqMna5" opacity="1" fill="#e6e6e6" fill-opacity="1"></use><g><use xlink:href="#c2ehjqMna5" opacity="1" fill-opacity="0" stroke="#000000" stroke-width="1" stroke-opacity="0"></use></g></g><g><use xlink:href="#ciwS1UFTn" opacity="1" fill="#e6e6e6" fill-opacity="1"></use><g><use xlink:href="#ciwS1UFTn" opacity="1" fill-opacity="0" stroke="#000000" stroke-width="1" stroke-opacity="0"></use></g></g><g><use xlink:href="#a808x7Ax8" opacity="1" fill="#e6e6e6" fill-opacity="1"></use><g><use xlink:href="#a808x7Ax8" opacity="1" fill-opacity="0" stroke="#000000" stroke-width="1" stroke-opacity="0"></use></g></g><g><use xlink:href="#c6TAKHENAx" opacity="1" fill="#9f616a" fill-opacity="1"></use><g><use xlink:href="#c6TAKHENAx" opacity="1" fill-opacity="0" stroke="#000000" stroke-width="1" stroke-opacity="0"></use></g></g><g><use xlink:href="#fQI5UzGuU" opacity="1" fill="#3f3d56" fill-opacity="1"></use><g><use xlink:href="#fQI5UzGuU" opacity="1" fill-opacity="0" stroke="#000000" stroke-width="1" stroke-opacity="0"></use></g></g><g><use xlink:href="#csL3p5UGs" opacity="1" fill="#cccccc" fill-opacity="1"></use><g><use xlink:href="#csL3p5UGs" opacity="1" fill-opacity="0" stroke="#000000" stroke-width="1" stroke-opacity="0"></use></g></g><g><use xlink:href="#a1iPzjhRHS" opacity="1" fill="#000000" fill-opacity="1"></use><g><use xlink:href="#a1iPzjhRHS" opacity="1" fill-opacity="0" stroke="#000000" stroke-width="1" stroke-opacity="0"></use></g></g><g><use xlink:href="#f2oLKO7Rq5" opacity="1" fill="#f2f2f2" fill-opacity="1"></use><g><use xlink:href="#f2oLKO7Rq5" opacity="1" fill-opacity="0" stroke="#000000" stroke-width="1" stroke-opacity="0"></use></g></g><g><use xlink:href="#cphNSJKXd" opacity="1" fill="#e6e6e6" fill-opacity="1"></use><g><use xlink:href="#cphNSJKXd" opacity="1" fill-opacity="0" stroke="#000000" stroke-width="1" stroke-opacity="0"></use></g></g><g><use xlink:href="#c1FSKrxsHU" opacity="1" fill="#e6e6e6" fill-opacity="1"></use><g><use xlink:href="#c1FSKrxsHU" opacity="1" fill-opacity="0" stroke="#000000" stroke-width="1" stroke-opacity="0"></use></g></g><g><use xlink:href="#a4zOPxpeW" opacity="1" fill="#e6e6e6" fill-opacity="1"></use><g><use xlink:href="#a4zOPxpeW" opacity="1" fill-opacity="0" stroke="#000000" stroke-width="1" stroke-opacity="0"></use></g></g><g><use xlink:href="#d4UhViy2ai" opacity="1" fill="#e6e6e6" fill-opacity="1"></use><g><use xlink:href="#d4UhViy2ai" opacity="1" fill-opacity="0" stroke="#000000" stroke-width="1" stroke-opacity="0"></use></g></g><g><use xlink:href="#b15DRcElqZ" opacity="1" fill="#e6e6e6" fill-opacity="1"></use><g><use xlink:href="#b15DRcElqZ" opacity="1" fill-opacity="0" stroke="#000000" stroke-width="1" stroke-opacity="0"></use></g></g><g><use xlink:href="#b2hWVJSi2J" opacity="1" fill="#9f616a" fill-opacity="1"></use><g><use xlink:href="#b2hWVJSi2J" opacity="1" fill-opacity="0" stroke="#000000" stroke-width="1" stroke-opacity="0"></use></g></g><g><use xlink:href="#f5KF01MBf" opacity="1" fill="#9f616a" fill-opacity="1"></use><g><use xlink:href="#f5KF01MBf" opacity="1" fill-opacity="0" stroke="#000000" stroke-width="1" stroke-opacity="0"></use></g></g><g><use xlink:href="#e12EfNHkjR" opacity="1" fill="#3f3d56" fill-opacity="1"></use><g><use xlink:href="#e12EfNHkjR" opacity="1" fill-opacity="0" stroke="#000000" stroke-width="1" stroke-opacity="0"></use></g></g><g><use xlink:href="#aYC0CJYf" opacity="1" fill="#3f3d56" fill-opacity="1"></use><g><use xlink:href="#aYC0CJYf" opacity="1" fill-opacity="0" stroke="#000000" stroke-width="1" stroke-opacity="0"></use></g></g><g><use xlink:href="#eKonwrNco" opacity="1" fill="#3f3d56" fill-opacity="1"></use><g><use xlink:href="#eKonwrNco" opacity="1" fill-opacity="0" stroke="#000000" stroke-width="1" stroke-opacity="0"></use></g></g><g><use xlink:href="#bBQZA69dW" opacity="1" fill="#cccccc" fill-opacity="1"></use><g><use xlink:href="#bBQZA69dW" opacity="1" fill-opacity="0" stroke="#000000" stroke-width="1" stroke-opacity="0"></use></g></g><g><use xlink:href="#d2jtypWTb" opacity="1" fill="#2f2e41" fill-opacity="1"></use><g><use xlink:href="#d2jtypWTb" opacity="1" fill-opacity="0" stroke="#000000" stroke-width="1" stroke-opacity="0"></use></g></g><g><use xlink:href="#n16kp4EoQJ" opacity="1" fill="#f2f2f2" fill-opacity="1"></use><g><use xlink:href="#n16kp4EoQJ" opacity="1" fill-opacity="0" stroke="#000000" stroke-width="1" stroke-opacity="0"></use></g></g><g><use xlink:href="#g2a5Yi5vWN" opacity="1" fill="#e6e6e6" fill-opacity="1"></use><g><use xlink:href="#g2a5Yi5vWN" opacity="1" fill-opacity="0" stroke="#000000" stroke-width="1" stroke-opacity="0"></use></g></g><g><use xlink:href="#fcCWtJ3I" opacity="1" fill="#e6e6e6" fill-opacity="1"></use><g><use xlink:href="#fcCWtJ3I" opacity="1" fill-opacity="0" stroke="#000000" stroke-width="1" stroke-opacity="0"></use></g></g><g><use xlink:href="#bcwCPYm3n" opacity="1" fill="#e6e6e6" fill-opacity="1"></use><g><use xlink:href="#bcwCPYm3n" opacity="1" fill-opacity="0" stroke="#000000" stroke-width="1" stroke-opacity="0"></use></g></g><g><use xlink:href="#bMKqgSwk" opacity="1" fill="#9f616a" fill-opacity="1"></use><g><use xlink:href="#bMKqgSwk" opacity="1" fill-opacity="0" stroke="#000000" stroke-width="1" stroke-opacity="0"></use></g></g><g><use xlink:href="#cTajZ0jfq" opacity="1" fill="#8985a8" fill-opacity="1"></use><g><use xlink:href="#cTajZ0jfq" opacity="1" fill-opacity="0" stroke="#000000" stroke-width="1" stroke-opacity="0"></use></g></g><g><use xlink:href="#a5oIb55Wbg" opacity="1" fill="#3f3d56" fill-opacity="1"></use><g><use xlink:href="#a5oIb55Wbg" opacity="1" fill-opacity="0" stroke="#000000" stroke-width="1" stroke-opacity="0"></use></g></g><g><use xlink:href="#a1PBonMimX" opacity="1" fill="#f2f2f2" fill-opacity="1"></use><g><use xlink:href="#a1PBonMimX" opacity="1" fill-opacity="0" stroke="#000000" stroke-width="1" stroke-opacity="0"></use></g></g><g><use xlink:href="#ei0fR8FP" opacity="1" fill="#f2f2f2" fill-opacity="1"></use><g><use xlink:href="#ei0fR8FP" opacity="1" fill-opacity="0" stroke="#000000" stroke-width="1" stroke-opacity="0"></use></g></g><g><use xlink:href="#csoxCQq4g" opacity="1" fill="#3f3d56" fill-opacity="1"></use><g><use xlink:href="#csoxCQq4g" opacity="1" fill-opacity="0" stroke="#000000" stroke-width="1" stroke-opacity="0"></use></g></g><g><use xlink:href="#bizOCOR0t" opacity="1" fill="#ffd606" fill-opacity="1"></use><g><use xlink:href="#bizOCOR0t" opacity="1" fill-opacity="0" stroke="#000000" stroke-width="1" stroke-opacity="0"></use></g></g><g><use xlink:href="#a1QOAsUP6h" opacity="1" fill="#3f3d56" fill-opacity="1"></use><g><use xlink:href="#a1QOAsUP6h" opacity="1" fill-opacity="0" stroke="#000000" stroke-width="1" stroke-opacity="0"></use></g></g><g><use xlink:href="#afsZDUBIy" opacity="1" fill="#00b541" fill-opacity="1"></use><g><use xlink:href="#afsZDUBIy" opacity="1" fill-opacity="0" stroke="#000000" stroke-width="1" stroke-opacity="0"></use></g></g><g><use xlink:href="#dpUP4ZEZ9" opacity="1" fill="#e6e6e6" fill-opacity="1"></use><g><use xlink:href="#dpUP4ZEZ9" opacity="1" fill-opacity="0" stroke="#000000" stroke-width="1" stroke-opacity="0"></use></g></g><g><use xlink:href="#b1ybDjPbQI" opacity="1" fill="#e6e6e6" fill-opacity="1"></use><g><use xlink:href="#b1ybDjPbQI" opacity="1" fill-opacity="0" stroke="#000000" stroke-width="1" stroke-opacity="0"></use></g></g><g><use xlink:href="#dBkd5wiip" opacity="1" fill="#00b541" fill-opacity="1"></use><g><use xlink:href="#dBkd5wiip" opacity="1" fill-opacity="0" stroke="#000000" stroke-width="1" stroke-opacity="0"></use></g></g><g><use xlink:href="#e1iXSSaAa8" opacity="1" fill="#ffffff" fill-opacity="1"></use><g><use xlink:href="#e1iXSSaAa8" opacity="1" fill-opacity="0" stroke="#000000" stroke-width="1" stroke-opacity="0"></use></g></g><g><use xlink:href="#a1dVAZeqUP" opacity="1" fill="#ffffff" fill-opacity="1"></use><g><use xlink:href="#a1dVAZeqUP" opacity="1" fill-opacity="0" stroke="#000000" stroke-width="1" stroke-opacity="0"></use></g></g><g><use xlink:href="#gzBVFf9ra" opacity="1" fill="#e6e6e6" fill-opacity="1"></use><g><use xlink:href="#gzBVFf9ra" opacity="1" fill-opacity="0" stroke="#000000" stroke-width="1" stroke-opacity="0"></use></g></g></g></g></svg>