<svg id="Capa_1" enable-background="new 0 0 512 512" height="512" viewBox="0 0 512 512" width="512" xmlns="http://www.w3.org/2000/svg"><g><path d="m54.201 223.453v276.381c0 2.577 2.089 4.667 4.667 4.667h387.866c2.577 0 4.667-2.089 4.667-4.667v-276.381z" fill="#f0e9e6"/><path d="m421.443 223.453v276.381c0 2.578-2.089 4.667-4.667 4.667h29.958c2.577 0 4.667-2.089 4.667-4.667v-276.381z" fill="#dcd2cd"/><g><ellipse cx="252.801" cy="363.977" fill="#717ed4" rx="17.5" ry="17.5" transform="matrix(.383 -.924 .924 .383 -180.212 458.246)"/></g><path d="m54.201 223.453h397.2v55.665h-397.2z" fill="#e9a761"/><path d="m54.201 223.453h397.2v19.547h-397.2z" fill="#e38523"/><path d="m421.443 223.453h29.958v55.665h-29.958z" fill="#e38523"/><path d="m54.201 448.835v50.998c0 2.577 2.089 4.667 4.667 4.667h387.866c2.577 0 4.667-2.09 4.667-4.667v-50.998z" fill="#77d1b3"/><path d="m421.443 499.833c0 2.578-2.089 4.667-4.667 4.667h29.958c2.577 0 4.667-2.09 4.667-4.667v-50.998h-29.958z" fill="#67b59f"/><path d="m49.534 174.192v44.594c0 2.577 2.089 4.667 4.667 4.667h418.978c2.577 0 4.667-2.089 4.667-4.667v-44.594c0-2.577-2.089-4.667-4.667-4.667h-418.978c-2.578 0-4.667 2.089-4.667 4.667z" fill="#655e67"/><g fill="#f0e9e6"><path d="m392.075 169.525-44.189 53.928h60.15l44.19-53.928z"/><path d="m255.71 169.525-44.19 53.928h60.151l44.189-53.928z"/><path d="m119.344 169.525-44.19 53.928h60.151l44.19-53.928z"/></g><path d="m50.398 160.269-11.042-43.206c-.638-2.497.869-5.039 3.366-5.677l405.932-103.739c2.497-.638 5.039.869 5.677 3.366l11.042 43.206c.638 2.497-.869 5.039-3.366 5.677l-405.932 103.739c-2.498.638-5.039-.869-5.677-3.366z" fill="#655e67"/><g fill="#f0e9e6"><path d="m383.428 79.977-56.166-41.308 58.278-14.893 56.166 41.308z"/><path d="m251.309 113.741-56.166-41.307 58.277-14.894 56.166 41.308z"/><path d="m119.189 147.505-56.166-41.307 58.278-14.893 56.166 41.307z"/></g><g><path d="m134.795 223.384h-89.814c-5.523.043-10.409-4.052-10.452-9.575v-96.95c-.043-5.523 4.025-10.19 9.547-10.232h40.185c3.48-.027 6.724 1.602 8.564 4.555l50.255 80.642c.975 1.565 1.56 3.368 1.574 5.212v15.924c.044 5.522-4.337 10.381-9.859 10.424z" fill="#717ed4"/></g><g><path d="m280.281 356.478h-3.821c-.472-1.498-1.082-2.935-1.815-4.297l2.787-3.168c2.736-3.11 2.432-7.85-.678-10.585-3.112-2.736-7.85-2.432-10.585.678l-2.267 2.578c-1.211-.616-2.477-1.141-3.791-1.555v-3.819c0-4.142-3.358-7.5-7.5-7.5s-7.5 3.358-7.5 7.5v3.819c-1.408.444-2.759 1.013-4.048 1.687l-2.71-2.709c-2.93-2.929-7.677-2.928-10.607 0-2.929 2.929-2.928 7.678 0 10.607l2.707 2.707c-.677 1.292-1.247 2.647-1.692 4.059h-3.821c-4.142 0-7.5 3.358-7.5 7.5s3.358 7.5 7.5 7.5h3.821c.444 1.41 1.014 2.763 1.69 4.053l-2.704 2.704c-2.929 2.929-2.929 7.678 0 10.607 1.465 1.464 3.384 2.197 5.304 2.197 1.919 0 3.839-.732 5.303-2.196l2.705-2.705c1.29.675 2.643 1.245 4.052 1.689v3.813c0 4.142 3.358 7.5 7.5 7.5s7.5-3.358 7.5-7.5v-3.813c1.409-.444 2.762-1.014 4.052-1.689l2.705 2.705c1.465 1.464 3.384 2.196 5.303 2.196s3.839-.732 5.304-2.197c2.929-2.929 2.928-7.678 0-10.607l-2.704-2.704c.675-1.29 1.245-2.644 1.69-4.053h3.821c4.142 0 7.5-3.358 7.5-7.5s-3.359-7.502-7.501-7.502zm-20.607 14.572c-1.81 1.806-4.31 2.928-7.063 2.928-2.754 0-5.254-1.122-7.064-2.929l-.005-.005c-1.808-1.81-2.931-4.311-2.931-7.065 0-5.515 4.486-10.001 10-10.001s10 4.486 10 10.001c0 2.754-1.119 5.25-2.926 7.061z"/><path d="m274.574 310.952c-5.952-5.503-13.775-8.601-21.963-8.601s-16.011 3.097-21.963 8.601c-8.101.318-15.823 3.659-21.612 9.448-5.79 5.79-9.131 13.511-9.449 21.612-5.503 5.952-8.601 13.774-8.601 21.963 0 8.188 3.097 16.01 8.601 21.963.317 8.101 3.659 15.822 9.449 21.612 5.79 5.789 13.511 9.13 21.612 9.448 5.952 5.504 13.775 8.601 21.963 8.601 8.187 0 16.011-3.097 21.963-8.601 8.1-.318 15.823-3.66 21.612-9.449 5.79-5.79 9.131-13.511 9.449-21.612 5.503-5.953 8.601-13.775 8.601-21.963s-3.097-16.011-8.601-21.963c-.317-8.101-3.659-15.822-9.449-21.612-5.79-5.788-13.51-9.13-21.612-9.447zm18.62 66.182c-1.8 1.552-2.758 3.865-2.583 6.235.375 5.055-1.459 10.002-5.032 13.575-3.572 3.572-8.521 5.406-13.576 5.032-2.379-.173-4.684.783-6.235 2.583-3.31 3.839-8.105 6.042-13.158 6.042-5.052 0-9.848-2.202-13.158-6.042-1.43-1.659-3.507-2.603-5.68-2.603-.184 0-.37.007-.555.021-5.053.376-10.002-1.459-13.576-5.032-3.573-3.573-5.407-8.521-5.032-13.575.176-2.37-.782-4.684-2.583-6.235-3.839-3.31-6.042-8.105-6.042-13.158s2.202-9.848 6.041-13.157c1.801-1.552 2.759-3.865 2.583-6.236-.375-5.055 1.459-10.002 5.032-13.575 3.572-3.573 8.519-5.411 13.575-5.032 2.373.179 4.684-.782 6.235-2.583 3.31-3.839 8.105-6.041 13.158-6.041s9.848 2.202 13.158 6.041c1.552 1.8 3.874 2.762 6.235 2.583 5.054-.374 10.003 1.46 13.576 5.033s5.407 8.52 5.032 13.575c-.176 2.371.782 4.684 2.583 6.236 3.839 3.309 6.041 8.104 6.041 13.157.003 5.05-2.2 9.846-6.039 13.156z"/><path d="m472.992 162.018h-339.837l-5.59-8.97c21.291-5.44 179.258-45.802 202.784-51.814 4.013-1.025 6.435-5.11 5.41-9.124-1.025-4.012-5.105-6.435-9.124-5.41l-15.653 4-40.542-29.816 55.054-14.07 40.539 29.815-5.528 1.412c-4.013 1.025-6.436 5.11-5.41 9.123s5.109 6.437 9.123 5.41l99.471-25.413c6.492-1.668 10.421-8.31 8.759-14.8l-11.042-43.22c-1.668-6.492-8.309-10.421-14.801-8.76-76.539 19.56-386.374 98.743-386.374 98.743h-16.404c-9.603.075-17.064 7.889-16.989 17.732v39.616c0 4.142 3.358 7.5 7.5 7.5s7.5-3.358 7.5-7.5v-39.674c-.01-1.289.725-2.664 2.047-2.675h17.199c.024 0 .046.006.07.006.031 0 .063-.005.094-.006h2.099c.019 0 .038.004.056.004.026 0 .051-.004.077-.004h20.672c.464 0 1.546.105 2.118 1.023l50.256 80.643c.276.443.437.918.439 1.245v15.981c.012 1.45-1.142 2.827-2.327 2.862-.026.002-.052.003-.078.005h-89.827c-1.375.033-2.855-.846-2.894-2.096l.201-22.246c.038-4.142-3.29-7.53-7.432-7.567-.023 0-.046 0-.069 0-4.11 0-7.461 3.313-7.498 7.432 0 0-.203 22.419-.203 22.461.073 9.413 8.073 17.017 17.806 17.017h1.866v268.952c0 6.709 5.458 12.167 12.167 12.167h387.868c6.709 0 12.167-5.458 12.167-12.167v-163.526c0-4.142-3.358-7.5-7.5-7.5s-7.5 3.358-7.5 7.5v105.026h-382.202v-154.719h382.202v14.692c0 4.142 3.358 7.5 7.5 7.5s7.5-3.358 7.5-7.5v-70.36h14.279c6.711 0 12.17-5.455 12.17-12.16v-44.6c.001-6.71-5.458-12.17-12.169-12.17zm-109.451 53.93 31.9-38.93h40.758l-31.9 38.93zm-76.216 0 31.9-38.93h56.823l-31.9 38.93zm-60.15 0 31.9-38.93h40.758l-31.9 38.93zm-75.454 0c.06-.376.125-.75.161-1.134l30.968-37.797h56.831l-31.9 38.93h-56.06zm11.738-38.93-12.29 15c-.453-1.441-1.089-2.842-1.913-4.164l-6.753-10.836zm29.915-96.438 40.537 29.813-55.056 14.068-40.535-29.812zm98.818 14.921-39.491 10.091-40.538-29.814 39.489-10.092zm52.09-53.488 39.489-10.092 40.544 29.818-39.492 10.09zm103.296-26.399 9.637 37.72-14.11 3.605-40.546-29.819zm-350.143 89.484 22.097-5.647 40.533 29.811-39.496 10.092-2.84-2.087-18.729-30.053c-.469-.754-.996-1.456-1.565-2.116zm346.278 351.237v40.665h-382.203v-40.665zm0-184.719h-382.203v-40.735c115.008.105 12.712.067 382.202.067v40.668zm26.449-55.668h-46.47l31.9-38.93h14.57z"/></g></g></svg>