<?xml version="1.0" encoding="iso-8859-1"?>
<!-- Generator: Adobe Illustrator 19.0.0, SVG Export Plug-In . SVG Version: 6.00 Build 0)  -->
<svg version="1.1" id="Capa_1" xmlns="http://www.w3.org/2000/svg" xmlns:xlink="http://www.w3.org/1999/xlink" x="0px" y="0px"
	 viewBox="0 0 490.667 490.667" style="enable-background:new 0 0 490.667 490.667;" xml:space="preserve">
<path style="fill:#FFC107;" d="M416,96c-1.668-0.003-3.312-0.398-4.8-1.152c-22.933-11.541-87.829-41.515-112.533-41.515
	c-18.821-3.175-37.205,7.618-43.605,25.6c-2.631,5.271-9.037,7.411-14.308,4.779c-4.958-2.475-7.195-8.334-5.148-13.483
	c9.644-25.799,35.728-41.611,63.061-38.229C332.8,32,411.904,71.339,420.8,75.819c5.255,2.663,7.356,9.082,4.693,14.336
	C423.68,93.733,420.012,95.992,416,96z"/>
<g>
	<path style="fill:#FFD54F;" d="M416,160c-5.891,0-10.667-4.776-10.667-10.667V128c0-5.891,4.776-10.667,10.667-10.667
		c5.891,0,10.667,4.776,10.667,10.667v21.333C426.667,155.224,421.891,160,416,160z"/>
	<path style="fill:#FFD54F;" d="M416,53.333c-5.891,0-10.667-4.776-10.667-10.667V21.333c0-5.891,4.776-10.667,10.667-10.667
		c5.891,0,10.667,4.776,10.667,10.667v21.333C426.667,48.558,421.891,53.333,416,53.333z"/>
	<path style="fill:#FFD54F;" d="M461.248,141.248c-2.831,0.005-5.548-1.115-7.552-3.115l-15.083-15.083
		c-4.093-4.237-3.975-10.99,0.262-15.083c4.134-3.993,10.687-3.993,14.821,0l15.083,15.083c4.171,4.16,4.179,10.914,0.019,15.085
		c-2.006,2.011-4.731,3.139-7.571,3.134L461.248,141.248z"/>
	<path style="fill:#FFD54F;" d="M480,96h-21.333C452.776,96,448,91.224,448,85.333s4.776-10.667,10.667-10.667H480
		c5.891,0,10.667,4.776,10.667,10.667S485.891,96,480,96z"/>
	<path style="fill:#FFD54F;" d="M446.165,65.835c-5.891,0.011-10.675-4.757-10.686-10.648c-0.005-2.84,1.123-5.565,3.134-7.571
		l15.083-15.083c4.237-4.093,10.99-3.976,15.083,0.262c3.993,4.134,3.993,10.687,0,14.821l-15.083,15.083
		C451.7,64.701,448.992,65.828,446.165,65.835z"/>
	<path style="fill:#FFD54F;" d="M370.752,141.248c-5.891,0.011-10.675-4.757-10.686-10.648c-0.005-2.84,1.123-5.565,3.134-7.571
		l15.083-15.083c4.093-4.237,10.845-4.354,15.083-0.262c4.237,4.093,4.354,10.845,0.262,15.083
		c-0.086,0.089-0.173,0.176-0.262,0.262l-15.083,15.083C376.287,140.114,373.579,141.242,370.752,141.248z"/>
</g>
<path style="fill:#607D8B;" d="M314.091,105.237C275.06,78.314,228.749,63.929,181.333,64c-4.597-0.006-8.681,2.934-10.133,7.296
	l-18.091,54.315c-1.15,3.446-0.466,7.241,1.813,10.069c2.296,2.781,5.816,4.25,9.408,3.925
	c41.547-4.301,83.139,7.717,115.989,33.515c1.885,1.483,4.215,2.287,6.613,2.283c4.311,0.003,8.2-2.59,9.856-6.571l21.12-50.731
	C319.831,113.449,318.239,108.087,314.091,105.237z"/>
<path style="fill:#455A64;" d="M181.333,117.333C81.186,117.333,0,198.519,0,298.667S81.186,480,181.333,480
	s181.333-81.186,181.333-181.333C362.549,198.568,281.432,117.451,181.333,117.333z"/>
<path style="fill:#607D8B;" d="M53.333,309.333c-5.891,0-10.667-4.776-10.667-10.667C42.761,222.122,104.789,160.094,181.333,160
	c5.891,0,10.667,4.776,10.667,10.667s-4.776,10.667-10.667,10.667C116.566,181.416,64.082,233.899,64,298.667
	C64,304.558,59.224,309.333,53.333,309.333z"/>
<g>
</g>
<g>
</g>
<g>
</g>
<g>
</g>
<g>
</g>
<g>
</g>
<g>
</g>
<g>
</g>
<g>
</g>
<g>
</g>
<g>
</g>
<g>
</g>
<g>
</g>
<g>
</g>
<g>
</g>
</svg>
