<?xml version="1.0" encoding="UTF-8"?>
<svg width="16px" height="16px" viewBox="0 0 33 33" version="1.1" xmlns="http://www.w3.org/2000/svg" xmlns:xlink="http://www.w3.org/1999/xlink">
    <!-- Generator: Sketch 58 (84663) - https://sketch.com -->
    <title>Shape</title>
    <desc>Created with Sketch.</desc>
    <g id="Page-1" stroke="none" stroke-width="1" fill="none" fill-rule="evenodd">
        <g id="close" fill="#777" fill-rule="nonzero">
            <path d="M16.0401609,32.9412811 C24.7930694,32.9412811 32.04023,25.6942458 32.04023,16.9413406 C32.04023,8.20410927 24.7773922,0.9414 16.0244838,0.9414 C7.28725246,0.9414 0.04023,8.20410927 0.04023,16.9413406 C0.04023,25.6942458 7.30296176,32.9412811 16.0401609,32.9412811 Z M10.4088097,23.9060228 C9.6872419,23.9060228 9.09118795,23.3099367 9.09118795,22.5726918 C9.09118795,22.2118918 9.2323468,21.8981877 9.4833423,21.6629015 L14.1735167,16.9570177 L9.4833423,12.2511661 C9.2323468,12.0315571 9.09118795,11.7021436 9.09118795,11.3413758 C9.09118795,10.6198081 9.6872419,10.0393991 10.4088097,10.0393991 C10.7852868,10.0393991 11.0833138,10.1805901 11.3186321,10.4315534 L16.0244838,15.1217279 L20.7617219,10.4158762 C21.0283945,10.1335264 21.3264215,10.0080448 21.6715122,10.0080448 C22.4087571,10.0080448 22.989166,10.6040987 22.989166,11.3256665 C22.989166,11.6864665 22.8793615,11.9844935 22.5970117,12.2354889 L17.891128,16.9570177 L22.5813024,21.631515 C22.8322979,21.8825105 22.9734889,22.1962147 22.9734889,22.5726918 C22.9734889,23.3099367 22.3930799,23.9060228 21.655835,23.9060228 C21.2793578,23.9060228 20.9499444,23.7491547 20.7146582,23.5138685 L16.0244838,18.8079848 L11.3499865,23.5138685 C11.1147003,23.7648319 10.7852868,23.9060228 10.4088097,23.9060228 Z" id="Shape"></path>
        </g>
    </g>
</svg>