<svg id="Capa_1" enable-background="new 0 0 512.002 512.002" height="512" viewBox="0 0 512.002 512.002" width="512" xmlns="http://www.w3.org/2000/svg"><g><path d="m425.863 447.078 53.033 53.033c5.855 5.855 15.358 5.855 21.213 0s5.855-15.358 0-21.213l-53.033-53.033h-21.213z" fill="#ff7a3c"/><path d="m404.649 425.864 21.214 21.214 21.213-21.214-21.213-21.213h-21.214z" fill="#ff372b"/><path d="m383.436 404.651 21.213 21.213 21.214-21.213-21.214-21.213h-21.213z" fill="#ffba48"/><path d="m363.133 355.635h30v45h-30z" fill="#0ab84f" transform="matrix(.707 -.707 .707 .707 -156.629 378.134)"/><path d="m330.246 234.789-53.033 53.033-239.715-239.715-21.213 21.213c-11.717 11.717-11.71 30.717 0 42.426l287.602 287.602c11.717 11.717 30.71 11.717 42.426 0l21.213-21.213 5.146-100.92z" fill="#ffba48"/><path d="m111.745 16.287c-11.71-11.71-30.71-11.717-42.426 0l-31.82 31.82c-11.717 11.717-11.71 30.717 0 42.426l218.501 218.502 74.246-74.246z" fill="#ffd185"/><path d="m298.426 351.461 26.673 26.673c11.717 11.717 30.71 11.717 42.426 0l31.82-31.82c11.717-11.717 11.717-30.71 0-42.426l-26.673-26.673z" fill="#ffd185"/><path d="m86.138 447.078-53.033 53.033c-5.855 5.855-15.358 5.855-21.213 0s-5.855-15.358 0-21.213l53.033-53.033h21.213z" fill="#ff7a3c"/><path d="m107.351 425.864-21.213 21.214-21.214-21.214 21.214-21.213h21.213z" fill="#ff372b"/><path d="m128.564 404.651-21.213 21.213-21.213-21.213 21.213-21.213h21.213z" fill="#ffba48"/><path d="m111.367 363.135h45v30h-45z" fill="#0ab84f" transform="matrix(.707 -.707 .707 .707 -228.173 205.412)"/><path d="m495.715 69.32-21.213-21.213-330.028 330.028 21.213 21.213c11.717 11.717 30.71 11.717 42.426 0l287.602-287.602c11.71-11.709 11.717-30.709 0-42.426z" fill="#ffd185"/><path d="m474.502 48.107-31.82-31.82c-11.717-11.717-30.717-11.71-42.426 0l-287.602 287.601c-11.717 11.717-11.717 30.71 0 42.426l31.82 31.82c11.717 11.717 30.71 11.717 42.426 0l287.602-287.601c11.71-11.71 11.717-30.709 0-42.426z" fill="#ffe8c2"/><circle cx="256.002" cy="45" fill="#ff372b" r="37.5"/><path d="m505.412 473.591-111.369-111.369 10.606-10.606c14.621-14.622 14.621-38.412 0-53.034l-42.581-42.581 138.95-138.95c14.621-14.621 14.621-38.412 0-53.033l-53.033-53.033c-7.083-7.082-16.5-10.983-26.517-10.983s-19.434 3.901-26.517 10.983l-234.41 234.411-138.95-138.95c-8.773-8.772-8.773-23.047 0-31.819l53.033-53.033c4.249-4.249 9.899-6.59 15.909-6.59s11.66 2.341 15.909 6.591l123.044 123.039c2.928 2.928 7.677 2.927 10.606-.001 2.929-2.929 2.929-7.677-.001-10.606l-123.041-123.041c-7.083-7.082-16.5-10.983-26.517-10.983s-19.433 3.901-26.516 10.983l-53.034 53.033c-7.082 7.083-10.983 16.5-10.983 26.517s3.901 19.434 10.983 26.517l138.95 138.95-42.579 42.579c-7.082 7.083-10.983 16.5-10.983 26.517 0 10.018 3.901 19.435 10.983 26.518l10.606 10.606-111.367 111.368c-4.25 4.249-6.591 9.899-6.591 15.91s2.341 11.661 6.59 15.909c4.249 4.25 9.899 6.591 15.91 6.591s11.661-2.341 15.91-6.59l111.37-111.369 10.606 10.605c7.083 7.083 16.5 10.984 26.517 10.984s19.434-3.901 26.517-10.983l42.581-42.581 42.582 42.581c7.083 7.082 16.5 10.983 26.517 10.983s19.434-3.901 26.517-10.983l10.606-10.606 111.37 111.368c4.249 4.25 9.899 6.591 15.91 6.591s11.661-2.341 15.909-6.59c4.25-4.249 6.591-9.899 6.591-15.91s-2.344-11.661-6.593-15.91zm-79.549-58.335 10.606 10.606-10.606 10.606-10.606-10.606zm-21.214-.002-10.606-10.606 10.606-10.606 10.606 10.606zm-307.9-10.606 10.606-10.606 10.606 10.606-10.606 10.606zm-.001 21.214-10.606 10.606-10.606-10.606 10.606-10.606zm-68.943 68.943c-1.416 1.416-3.3 2.196-5.303 2.196s-3.887-.78-5.304-2.197c-1.416-1.416-2.196-3.3-2.196-5.303s.78-3.887 2.197-5.303l47.73-47.73 10.606 10.606zm100.763-100.763-10.606-10.606 10.607-10.607 10.606 10.606zm74.245-.001c-4.249 4.25-9.899 6.591-15.909 6.591s-11.66-2.341-15.909-6.591l-53.033-53.032c-8.773-8.772-8.773-23.047 0-31.819l287.598-287.598c4.249-4.25 9.899-6.591 15.909-6.591s11.66 2.341 15.909 6.59c0 .001 53.033 53.034 53.033 53.034 8.773 8.772 8.773 23.046 0 31.818zm138.196 0c-8.771 8.773-23.047 8.773-31.818 0l-42.582-42.581 84.852-84.852 42.581 42.581c8.773 8.772 8.773 23.047 0 31.819zm42.427-21.212 10.607 10.606-10.606 10.606-10.606-10.606zm111.369 121.976c-1.416 1.416-3.3 2.196-5.303 2.196s-3.887-.78-5.303-2.197l-47.73-47.729 10.606-10.606 47.73 47.73c1.416 1.416 2.196 3.3 2.196 5.303s-.779 3.886-2.196 5.303z"/><path d="m256.002 90.001c24.813 0 45-20.187 45-45s-20.187-45-45-45-45 20.187-45 45 20.186 45 45 45zm0-75c16.542 0 30 13.458 30 30s-13.458 30-30 30-30-13.458-30-30 13.458-30 30-30z"/></g></svg>