<?xml version="1.0" encoding="UTF-8" standalone="no"?>
<!-- Created with Inkscape (http://www.inkscape.org/) -->
<svg
   xmlns:dc="http://purl.org/dc/elements/1.1/"
   xmlns:cc="http://web.resource.org/cc/"
   xmlns:rdf="http://www.w3.org/1999/02/22-rdf-syntax-ns#"
   xmlns:svg="http://www.w3.org/2000/svg"
   xmlns="http://www.w3.org/2000/svg"
   xmlns:sodipodi="http://sodipodi.sourceforge.net/DTD/sodipodi-0.dtd"
   xmlns:inkscape="http://www.inkscape.org/namespaces/inkscape"
   id="svg2"
   sodipodi:version="0.32"
   inkscape:version="0.45"
   width="565"
   height="339"
   version="1.0"
   sodipodi:docbase="M:\internet"
   sodipodi:docname="pirate-flag-drapeau-virus-hacker,B-0-4284-3.jpg"
   sodipodi:modified="true">
  <metadata
     id="metadata7">
    <rdf:RDF>
      <cc:Work
         rdf:about="">
        <dc:format>image/svg+xml</dc:format>
        <dc:type
           rdf:resource="http://purl.org/dc/dcmitype/StillImage" />
      </cc:Work>
    </rdf:RDF>
  </metadata>
  <defs
     id="defs5" />
  <sodipodi:namedview
     inkscape:window-height="712"
     inkscape:window-width="1024"
     inkscape:pageshadow="2"
     inkscape:pageopacity="0.0"
     guidetolerance="10.0"
     gridtolerance="10.0"
     objecttolerance="10.0"
     borderopacity="1.0"
     bordercolor="#666666"
     pagecolor="#ffffff"
     id="base"
     inkscape:zoom="0.45165067"
     inkscape:cx="148.30474"
     inkscape:cy="-144.82617"
     inkscape:window-x="-4"
     inkscape:window-y="-4"
     inkscape:current-layer="svg2" />
  <rect
     style="fill:#000000;fill-opacity:1"
     id="rect3615"
     width="600"
     height="358.29382"
     x="-30.388742"
     y="-4.210825" />
  <g
     id="g5555"
     transform="matrix(1.0541179,0,0,1.0541179,117.86855,-409.84426)">
    <path
       sodipodi:nodetypes="cssssssssssssssssssssssssssssccssscccsssssssssccsssssssssssssssssccsssssccssssssssssssssssssscccccssssssc"
       d="M 97.35562,692.96022 C 98.12722,686.80812 100.66406,678.7327 104.12868,671.39983 C 107.38728,664.50298 107.7815,659.35153 105.53743,652.99115 C 103.45412,647.0864 103.80331,641.16584 106.28127,640.37937 C 107.61424,639.9563 108.04822,639.15122 107.68731,637.77106 C 107.40017,636.67307 108.29173,632.42075 109.66854,628.32147 C 112.68505,619.3402 112.48872,614.71975 108.87529,609.65231 C 107.38188,607.55796 105.8629,604.40796 105.49978,602.65231 C 104.88254,599.66795 100.78863,590.64754 97.47023,584.96022 C 96.50057,583.29833 96.05813,579.94588 96.15047,574.96022 C 96.29431,567.19488 94.5127,558.00747 92.614435,556.72553 C 89.858055,554.8641 89.174115,555.99014 89.738685,561.46022 C 90.129015,565.24223 89.950265,566.96022 89.166425,566.96022 C 88.539485,566.96022 88.026525,566.21022 88.026525,565.29355 C 88.026525,562.90645 86.554475,564.69927 86.384655,567.2932 C 86.306625,568.48506 85.050645,573.73522 83.593595,578.96022 C 79.709335,592.88913 77.165735,604.98116 76.947595,610.55457 C 76.742135,615.80421 77.910155,626.83691 78.838775,628.41792 C 79.148155,628.94465 79.505945,630.35724 79.633865,631.557 C 79.761775,632.75676 81.027455,636.27663 82.446475,639.37894 C 83.865505,642.48124 85.026525,645.61141 85.026525,646.33487 C 85.026525,647.05833 85.926525,648.46473 87.026525,649.46022 C 88.126525,650.45571 89.026525,652.04535 89.026525,652.99276 C 89.026525,653.94018 89.652895,655.23517 90.418465,655.87053 C 92.224485,657.3694 93.107945,660.79187 91.884085,661.54825 C 91.334465,661.88794 91.296695,662.63085 91.795075,663.29925 C 92.271195,663.93778 92.774865,670.93711 92.914345,678.85331 C 93.108985,689.90075 93.531655,693.80152 94.73268,695.63452 C 95.5933,696.94798 96.40854,697.89609 96.54433,697.74143 C 96.68012,697.58676 97.0452,695.43522 97.35562,692.96022 z M 93.77925,640.96022 C 91.944975,634.96305 88.993585,621.00867 89.126195,618.96022 C 89.215205,617.58522 88.818035,614.50767 88.243585,612.12121 C 87.669125,609.73476 87.361925,603.53543 87.560915,598.34494 C 87.849545,590.81601 88.323785,588.39777 89.906165,586.3861 L 91.889635,583.86454 L 92.596215,588.57636 C 93.005135,591.30328 92.882315,593.96149 92.304645,594.88648 C 91.704105,595.8481 91.649855,597.41295 92.168455,598.81485 C 92.642525,600.09639 92.751975,601.59544 92.411665,602.14607 C 92.071355,602.6967 92.328345,605.91764 92.982745,609.30372 C 95.31352,621.3639 94.95352,620.46179 96.7276,618.68771 C 97.59915,617.81616 98.50628,615.1626 98.74345,612.79091 C 99.18928,608.33262 99.62885,607.22922 100.58015,608.18052 C 102.21478,609.81514 100.41462,626.29776 97.87383,632.96022 C 96.72022,635.98522 95.43024,639.36022 95.0072,640.46022 C 94.40943,642.01458 94.13582,642.12599 93.77925,640.96022 z M 76.063715,659.71022 C 76.606945,658.47272 77.856705,656.11022 78.840945,654.46022 C 80.994845,650.84941 80.933445,645.47763 78.652355,637.96022 C 74.664835,624.81922 72.756665,605.39904 74.898635,599.75727 C 76.968745,594.30479 78.287175,589.41985 78.484825,586.47004 C 78.601565,584.72777 78.987025,582.83315 79.341385,582.25978 C 80.584565,580.24828 81.850315,564.62694 80.959885,562.28494 C 80.298025,560.54412 79.299785,559.96022 76.985535,559.96022 C 75.285765,559.96022 73.071875,559.51968 72.065785,558.98123 C 69.761625,557.74808 67.592185,560.01639 68.460175,562.75117 C 68.789565,563.78898 68.362425,566.30538 67.510985,568.34318 C 66.659535,570.38097 66.211685,572.45079 66.515745,572.94278 C 66.819805,573.43476 66.460895,574.20246 65.718145,574.64876 C 63.851265,575.77054 61.236325,584.33588 59.915445,593.65571 C 57.766335,608.81929 60.866705,626.1167 67.628265,636.68673 C 69.492625,639.60119 70.940435,642.31751 70.845615,642.72299 C 70.750795,643.12846 71.199315,645.29572 71.842335,647.53911 C 72.485355,649.7825 73.112715,653.945 73.236465,656.78911 C 73.477175,662.32145 74.468055,663.34521 76.063715,659.71022 z M 64.693195,602.29355 C 63.458805,601.05917 64.043675,593.51367 65.959225,585.96022 C 68.508265,575.90877 69.812735,572.72229 71.190505,573.18155 C 72.331515,573.56188 73.195915,582.96022 72.089875,582.96022 C 71.251335,582.96022 68.676685,589.04633 68.282545,591.96022 C 68.096565,593.33522 67.690605,596.37272 67.380425,598.71022 C 66.839405,602.78726 66.131225,603.73159 64.693195,602.29355 z M 93.278595,490.14856 C 96.71495,486.76784 102.22652,482.04893 105.52652,479.66211 C 111.68301,475.20924 135.33372,461.96022 137.12601,461.96022 C 139.76699,461.96022 144.04674,458.60567 146.33267,454.74387 C 151.43456,446.12486 159.87411,437.20539 170.52652,429.17422 C 173.82652,426.68626 176.97652,424.12991 177.52652,423.49346 C 178.07652,422.85701 179.42652,421.99452 180.52652,421.57683 C 182.41805,420.85857 182.43066,420.74679 180.75915,419.51585 C 179.7791,418.79413 179.24997,417.54149 179.57137,416.70394 C 180.00425,415.57587 179.18599,415.02718 176.33874,414.53627 C 170.74912,413.57252 149.43787,411.30771 144.2867,411.83721 C 132.50375,413.04839 130.28425,413.6583 125.47802,415.37001 C 122.168,416.54885 115.65378,418.36771 111.68737,420.91756 C 107.21844,423.79047 103.02652,426.30752 103.02652,426.73201 C 103.02652,427.1565 100.70489,428.22631 98.229893,430.9221 C 95.754893,433.61788 91.044794,437.94777 88.227422,442.23169 C 85.570348,446.27187 84.08248,449.15229 80.791736,455.65628 C 78.486553,460.21235 77.027895,466.30176 76.601885,468.78316 C 75.247662,476.67117 74.229565,489.14678 75.943195,496.83405 C 75.989025,497.03966 78.502455,497.00256 81.528595,496.75161 C 86.690925,496.32351 87.416465,495.91578 93.278595,490.14856 z M 164.42474,450.50625 C 181.91368,444.52648 198.17141,442.59471 207.46608,445.39199 L 212.2235,446.82376 L 211.53323,443.14428 C 211.15358,441.12057 210.40434,439.19372 209.86825,438.8624 C 209.33217,438.53108 208.76962,437.41558 208.61814,436.3835 C 208.46666,435.35142 207.48408,434.27147 206.43462,433.98361 C 205.38517,433.69574 203.27325,432.35285 201.74146,430.9994 C 194.61511,424.70271 187.81834,425.87494 173.38311,435.89034 C 163.26044,442.91361 151.207,453.96022 153.66627,453.96022 C 154.02745,453.96022 158.86876,452.40593 164.42474,450.50625 z "
       style="fill:#e40000;fill-opacity:1"
       id="path2593" />
    <path
       d="M 90.026525,580.96022 C 90.026525,579.67884 90.734585,579.67884 91.526525,580.96022 C 91.866445,581.51022 91.668005,581.96022 91.085545,581.96022 C 90.503085,581.96022 90.026525,581.51022 90.026525,580.96022 z M -20.991265,663.96974 C -19.180625,663.00072 -17.425625,658.50085 -14.942385,648.46022 C -14.262255,645.71022 -12.684275,641.65391 -11.435775,639.4462 C -6.0136448,629.85836 14.498735,614.63226 43.002745,599.03714 C 56.738765,591.52188 58.715025,589.81034 59.524065,584.72876 C 59.897845,582.38106 60.880435,578.06435 61.707605,575.13607 C 62.534775,572.20778 63.042425,569.64278 62.835705,569.43606 C 62.628985,569.22934 59.549855,571.10023 55.993185,573.59359 C 52.436525,576.08695 44.126525,580.77761 37.526525,584.01727 C 16.150255,594.50999 -5.8888748,600.48601 -28.473475,601.91351 C -37.730845,602.49864 -41.559095,603.18721 -45.223475,604.92623 C -47.835975,606.16607 -49.973475,607.54475 -49.973475,607.98998 C -49.973475,608.43521 -47.665519,609.56607 -44.844683,610.503 C -40.794985,611.84809 -37.481195,612.09704 -29.094685,611.68624 C -12.758695,610.88603 2.8654452,606.12517 15.472305,598.10615 C 21.293615,594.40331 24.862615,593.84808 19.924405,597.41354 C 5.5366753,607.80167 -9.6232748,612.96434 -30.223475,614.49121 L -38.973475,615.13976 L -38.973475,619.14878 C -38.973475,622.36501 -38.344055,623.74577 -35.790595,626.13106 L -32.607705,629.10432 L -24.562335,626.44529 C -15.123435,623.3257 -14.140195,622.83758 -8.2716048,618.35799 C -5.8233748,616.48922 -3.0672548,614.9619 -2.1468748,614.96396 C -1.0901548,614.96632 -1.6309548,615.67349 -3.6143648,616.88291 C -5.3418548,617.93627 -7.0671848,619.30282 -7.4484248,619.91969 C -7.8296648,620.53655 -9.9212448,622.16471 -12.096375,623.53781 C -16.364345,626.23205 -17.433835,628.21645 -19.599875,637.46022 C -22.262855,648.82475 -22.156965,648.69009 -32.559555,653.94027 C -35.262215,655.3043 -37.654675,656.5355 -37.876135,656.67627 C -38.454535,657.04391 -33.253975,661.15334 -29.607295,663.21022 C -26.091285,665.19339 -23.675575,665.40634 -20.991265,663.96974 z M 71.041835,567.71022 C 71.054225,565.89078 71.242655,565.74726 72.026525,566.96022 C 73.279445,568.89898 73.279445,569.96022 72.026525,569.96022 C 71.476525,569.96022 71.033415,568.94772 71.041835,567.71022 z M -42.544905,658.38879 C -41.680615,657.52451 -40.973475,656.48991 -40.973475,656.08968 C -40.973475,655.68945 -39.462965,654.81579 -37.616785,654.1482 C -35.770595,653.48061 -33.421205,652.00745 -32.395915,650.87452 C -30.568875,648.85566 -30.588295,648.71007 -33.370735,643.56636 C -35.748565,639.17063 -36.095305,637.64079 -35.505295,634.14855 C -34.866925,630.37008 -35.090335,629.68951 -37.887165,626.89269 C -39.781375,624.99848 -40.978745,622.77389 -40.987125,621.1333 C -41.010495,616.55971 -42.050115,614.24633 -44.605282,613.08212 C -48.8819,611.13356 -50.730127,611.69284 -51.919038,615.29527 C -52.524405,617.12955 -54.359304,619.91375 -55.99659,621.48237 C -59.5096,624.84804 -59.635709,625.84861 -56.973475,629.23309 C -55.873475,630.63151 -54.973475,632.8794 -54.973475,634.2284 C -54.973475,635.5774 -53.816365,638.38622 -52.402118,640.47023 C -50.635343,643.07372 -49.896826,645.38592 -50.041896,647.85978 C -50.395878,653.89619 -50.056074,655.49444 -47.93452,657.77166 C -45.509348,660.37477 -44.631414,660.4753 -42.544905,658.38879 z M 324.06233,647.36604 C 325.4076,643.82771 322.0166,637.8812 316.61527,634.30677 C 314.38079,632.82806 313.10265,631.43484 313.77497,631.21074 C 317.42546,629.99391 327.02652,641.15123 327.02652,646.61026 C 327.02652,648.45274 327.43982,649.96022 327.94496,649.96022 C 329.16235,649.96022 333.02652,643.6487 333.02652,641.66028 C 333.02652,640.80015 334.32534,639.17157 335.91278,638.04121 C 337.50022,636.91085 339.51915,634.18628 340.39928,631.98661 C 341.27942,629.78694 342.87154,627.1152 343.93733,626.04941 C 348.10037,621.88637 349.27034,615.78422 346.90207,610.58642 C 345.96529,608.53043 346.1322,607.62055 347.90207,605.135 C 350.71787,601.18056 350.5861,599.61805 347.10855,595.726 C 344.49507,592.80101 343.62656,592.46022 338.78552,592.46022 C 334.60791,592.46022 332.46794,593.0641 329.36216,595.1194 C 321.44297,600.36008 313.12745,601.2041 300.96486,598.00173 C 291.59468,595.53458 269.38408,586.68489 257.28259,580.59677 C 252.19843,578.03898 241.39843,573.28868 233.28259,570.04054 C 225.16675,566.7924 215.02514,562.68442 210.74569,560.91169 C 206.46623,559.13897 202.6939,557.95951 202.36274,558.29067 C 201.67898,558.97442 201.50836,562.94195 201.81527,571.02117 L 202.02652,576.58212 L 207.27652,577.89096 C 221.30185,581.38752 249.47908,594.49713 264.52652,604.52684 C 273.26642,610.35232 286.39897,622.35921 290.20503,628.00431 C 292.22821,631.00506 297.40333,637.17272 301.70528,641.71022 L 309.52702,649.96022 L 316.30152,649.96022 C 322.6731,649.96022 323.13468,649.80593 324.06233,647.36604 z M 328.02652,634.31373 C 326.10152,633.45121 323.40152,632.34362 322.02652,631.85241 C 320.16136,631.18609 320.74296,631.08293 324.31684,631.44615 C 329.44265,631.96711 333.02652,633.42756 333.02652,634.9954 C 333.02652,636.28671 332.16899,636.1698 328.02652,634.31373 z M 321.64582,627.9258 C 317.77069,626.76553 314.42534,623.46364 311.29177,617.70625 C 308.02952,611.71241 302.61233,608.05026 290.71066,603.79293 C 283.25371,601.12551 282.04606,600.42201 284.06249,599.92015 C 286.68995,599.26621 292.64322,601.0252 305.2863,606.19106 L 313.04608,609.36164 L 319.55289,607.24612 C 325.90324,605.18147 330.21962,605.32543 333.5752,607.71381 C 335.27086,608.92071 337.13641,616.64784 336.46224,619.67192 C 335.15728,625.52546 334.74093,626.1816 331.46228,627.55151 C 327.70666,629.12071 325.87049,629.19072 321.64582,627.9258 z M 333.08246,624.39281 C 333.79792,623.53074 334.41552,620.64263 334.45491,617.97479 C 334.59087,608.76571 327.84665,605.44842 318.34224,610.04943 C 315.9686,611.19849 314.02652,612.82472 314.02652,613.66327 C 314.02652,616.59238 318.36483,622.87449 321.43308,624.38837 C 325.48809,626.38912 331.42379,626.39139 333.08246,624.39281 z M 337.88494,603.9991 C 340.41185,601.64843 341.12706,600.26649 340.77361,598.41756 C 340.4144,596.53843 340.73058,595.96022 342.11738,595.96022 C 343.5862,595.96022 343.87067,596.63144 343.61403,599.49157 C 343.23578,603.70688 343.42253,603.48817 338.47516,605.50979 L 334.52652,607.12329 L 337.88494,603.9991 z M 330.02652,601.96022 C 328.84016,601.19354 329.055,600.98764 331.05401,600.97553 C 332.44414,600.96711 334.58164,600.2597 335.80401,599.40352 C 337.62949,598.12491 338.02652,598.09623 338.02652,599.243 C 338.02652,600.0109 336.88035,601.16142 335.47947,601.7997 C 332.41745,603.19485 331.95791,603.20838 330.02652,601.96022 z M -24.782255,644.9505 C -24.379365,643.58085 -22.977145,638.93039 -21.666215,634.61614 L -19.282715,626.77207 L -22.204915,627.35651 C -26.032525,628.12203 -32.714185,632.9366 -33.369905,635.40159 C -33.653935,636.46935 -33.045575,638.94435 -32.017985,640.90159 C -30.990395,642.85884 -29.886365,645.28098 -29.564585,646.28413 C -28.746495,648.83449 -25.672625,647.9773 -24.782255,644.9505 z M 146.57141,634.37702 C 149.72287,633.06025 151.07272,632.99322 154.59244,633.97868 C 156.91999,634.63035 160.17074,634.86782 161.81634,634.50638 C 166.07719,633.57054 176.89874,623.42817 179.43441,617.99405 C 180.59798,615.50044 183.00721,611.35414 184.78825,608.78004 C 186.5693,606.20595 188.02652,603.79355 188.02652,603.41915 C 188.02652,601.02835 195.77658,583.9616 197.90862,581.65735 C 200.32812,579.04242 200.50923,578.17074 200.6097,568.65735 C 200.66893,563.04893 200.88802,558.01022 201.09656,557.46022 C 201.55124,556.26107 199.05642,546.82584 197.95754,545.58866 C 197.53177,545.10931 196.05866,546.90931 194.68396,549.58866 C 193.30927,552.26802 191.02397,556.01015 189.60552,557.9045 C 188.18707,559.79885 187.00677,562.27385 186.98263,563.4045 C 186.89963,567.29178 184.09662,573.43372 181.56343,575.27902 C 180.16813,576.29543 179.02652,577.7645 179.02652,578.54363 C 179.02652,579.32275 178.28863,579.96022 177.38676,579.96022 C 176.4849,579.96022 175.14921,580.74772 174.41857,581.71022 C 172.816,583.82134 172.61689,586.96022 174.08554,586.96022 C 174.668,586.96022 174.83675,587.45826 174.46054,588.06698 C 173.97375,588.85463 173.55646,588.81769 173.01332,587.93887 C 172.08466,586.43625 170.02652,587.52525 170.02652,589.51924 C 170.02652,590.31178 169.57652,590.96022 169.02652,590.96022 C 168.47652,590.96022 168.02652,591.58644 168.02652,592.35181 C 168.02652,593.11719 166.87595,594.03218 165.46971,594.38512 C 163.38249,594.90898 163.03797,595.43397 163.59393,597.24353 C 164.55794,600.38124 164.79363,600.48095 166.84913,598.62076 C 167.85831,597.70746 169.27578,596.96022 169.99906,596.96022 C 170.72235,596.96022 169.12658,598.63054 166.45291,600.67203 L 161.59169,604.38385 L 149.55911,604.78483 L 137.52652,605.18581 L 137.52652,601.32302 C 137.52652,598.76611 137.10393,597.54474 136.27652,597.71022 C 135.58902,597.84772 135.02652,597.51022 135.02652,596.96022 C 135.02652,596.41022 134.35152,595.96022 133.52652,595.96022 C 132.70152,595.96022 132.02652,596.63522 132.02652,597.46022 C 132.02652,598.28522 131.31938,598.96022 130.45509,598.96022 C 129.02652,598.96022 129.02652,598.81736 130.45509,597.38879 C 132.27022,595.57367 132.44747,594.33842 131.01946,593.45585 C 130.46557,593.11354 129.74243,593.53698 129.41247,594.39684 C 128.74135,596.14574 126.02652,596.55014 126.02652,594.9012 C 126.02652,594.31874 126.40871,594.0784 126.87584,594.3671 C 128.38023,595.29686 131.90887,590.36684 130.83601,588.83416 C 130.09147,587.77053 129.7597,587.74254 129.36706,588.71022 C 129.08809,589.39772 128.22235,589.96022 127.44319,589.96022 C 126.66402,589.96022 126.02652,590.46532 126.02652,591.08266 C 126.02652,591.85817 125.56288,591.82032 124.52652,590.96022 C 123.70152,590.27553 123.03341,588.98293 123.04183,588.08778 C 123.05517,586.67031 123.18425,586.65384 124.04183,587.96022 C 124.91711,589.29355 125.13593,589.29355 126.01121,587.96022 C 127.48325,585.71782 127.23268,584.7702 125.27652,585.18172 C 122.96156,585.66873 120.02652,582.29137 120.02652,579.14054 C 120.02652,577.75803 119.7832,576.87021 119.48581,577.1676 C 118.81239,577.84102 113.02652,572.85221 113.02652,571.59813 C 113.02652,571.09394 111.61731,568.39115 109.89493,565.59194 C 108.17256,562.79272 106.26006,559.11755 105.64493,557.42488 C 104.44377,554.1196 96.74892,546.57116 95.67521,547.64486 C 94.54182,548.77825 94.97512,557.34268 96.4529,563.01626 C 97.33776,566.41346 97.67214,570.77678 97.33369,574.50937 C 96.81835,580.19254 97.04418,581.02357 101.40552,589.49323 C 103.94511,594.42508 106.03364,599.13522 106.0467,599.96022 C 106.10866,603.87402 110.04361,610.00072 113.57774,611.68604 C 116.26129,612.96573 117.98351,614.89821 120.04702,618.94511 C 123.06704,624.86791 130.95094,633.23688 135.02652,634.84625 C 138.71541,636.30292 142.31193,636.15674 146.57141,634.37702 z M 134.16976,603.06991 C 133.3355,602.5413 133.19887,601.97174 133.81497,601.59096 C 134.36606,601.25037 135.07498,601.64412 135.39035,602.46596 C 136.05298,604.19275 135.99057,604.22363 134.16976,603.06991 z M 170.10547,593.54355 C 170.06205,592.48939 170.2984,591.89876 170.63069,592.23105 C 170.96298,592.56335 170.9985,593.42584 170.70963,594.14772 C 170.39041,594.94545 170.15345,594.7085 170.10547,593.54355 z M 143.02652,599.94476 C 143.02652,598.14159 140.70986,596.61021 139.62429,597.69579 C 138.81992,598.50015 138.86262,602.46299 139.68451,603.28488 C 140.68609,604.28645 143.02652,601.94735 143.02652,599.94476 z M 148.02652,600.46022 C 148.02652,597.9839 147.57862,596.96022 146.49514,596.96022 C 144.38872,596.96022 143.64595,599.38059 144.9847,601.88208 C 146.66329,605.01855 148.02652,604.38132 148.02652,600.46022 z M 152.84294,600.6331 C 153.06719,598.73883 152.70307,597.96022 151.59294,597.96022 C 150.50973,597.96022 150.02652,598.91137 150.02652,601.04355 C 150.02652,604.86952 152.38206,604.52623 152.84294,600.6331 z M 158.02652,599.87689 C 158.02652,596.05092 155.67098,596.39421 155.2101,600.28734 C 154.98585,602.18161 155.34997,602.96022 156.4601,602.96022 C 157.54331,602.96022 158.02652,602.00907 158.02652,599.87689 z M 163.02652,600.01924 C 163.02652,596.7737 161.42754,595.1592 159.8126,596.77414 C 158.38643,598.20031 159.71988,602.96022 161.54557,602.96022 C 162.5178,602.96022 163.02652,601.94996 163.02652,600.01924 z M 172.23001,582.9539 C 173.16693,581.30737 173.53475,579.96022 173.0474,579.96022 C 172.56004,579.96022 171.87565,580.86022 171.52652,581.96022 C 171.17739,583.06022 170.47207,583.96022 169.95913,583.96022 C 169.4462,583.96022 169.02652,584.41022 169.02652,584.96022 C 169.02652,586.87449 170.53759,585.92812 172.23001,582.9539 z M 129.52652,583.96022 C 129.1866,583.41022 128.23349,582.96022 127.40849,582.96022 C 126.58349,582.96022 126.1866,583.41022 126.52652,583.96022 C 126.86644,584.51022 127.81955,584.96022 128.64455,584.96022 C 129.46955,584.96022 129.86644,584.51022 129.52652,583.96022 z M 128.448,579.83318 C 128.07316,579.22667 127.33607,579.28835 126.4813,579.99775 C 125.72936,580.62181 124.67551,580.86132 124.13942,580.53 C 122.95622,579.79874 121.68362,581.59638 122.47641,582.87913 C 122.79843,583.40017 124.34397,583.1497 126.04593,582.30065 C 127.69682,581.47708 128.77775,580.36672 128.448,579.83318 z M 140.51386,577.9807 C 140.89483,577.36428 141.86603,577.45696 143.13378,578.2307 C 144.83496,579.26896 145.37219,579.15827 146.58742,577.51909 C 148.3587,575.1299 148.45513,570.81022 146.77652,569.04783 C 145.75717,567.97759 145.93472,567.85865 147.73875,568.40322 C 148.95547,568.77051 150.79522,568.61919 151.82707,568.06696 C 154.63773,566.56274 158.03204,567.80617 157.99611,570.32685 C 157.96861,572.25643 157.86834,572.29305 156.94642,570.71022 C 155.77637,568.70137 151.99487,568.39187 150.22652,570.16022 C 148.45072,571.93602 148.71591,577.62705 150.60831,578.35323 C 153.69337,579.53708 156.21265,578.96444 156.73677,576.96022 C 157.35566,574.5936 159.02652,574.27721 159.02652,576.52664 C 159.02652,577.64551 159.81225,578.00266 161.77652,577.77664 C 164.15016,577.50353 164.49879,577.04964 164.32394,574.46022 C 164.1414,571.75708 164.19361,571.70027 164.85152,573.88608 C 165.84529,577.18774 167.82941,577.62572 168.96438,574.79397 C 169.72585,572.89408 169.91153,572.80625 169.96313,574.32151 C 170.01774,575.92487 170.54586,576.08537 173.77423,575.47973 C 175.83547,575.09304 177.81016,574.3103 178.16242,573.74032 C 178.51469,573.17034 179.30322,573.0132 179.91472,573.39112 C 180.54886,573.78304 181.02652,573.40845 181.02652,572.51924 C 181.02652,571.66178 181.58902,571.07272 182.27652,571.21022 C 183.92215,571.53935 183.92215,566.75876 182.27652,566.21022 C 181.51701,565.95705 181.02051,566.70913 181.01121,568.12689 C 181.0023,569.48483 180.68878,569.98712 180.26121,569.32846 C 179.85713,568.70599 178.40152,568.25851 177.02652,568.33404 C 174.99344,568.44573 174.57151,568.93726 174.76741,570.9658 C 175.00504,573.42646 174.99533,573.42977 174.04964,571.21022 C 172.94675,568.62174 170.02652,568.16622 170.02652,570.58266 C 170.02652,571.84113 169.71991,571.95065 168.65981,571.07084 C 167.90811,570.44699 166.44561,570.01319 165.40981,570.10684 C 161.82414,570.43102 160.35985,569.95357 160.35985,568.46022 C 160.35985,567.54489 161.29234,566.96022 162.7522,566.96022 C 164.09246,566.96022 164.87276,567.39999 164.52652,567.96022 C 164.1866,568.51022 164.6366,568.96022 165.52652,568.96022 C 166.41644,568.96022 166.85529,568.49218 166.50175,567.92014 C 166.09255,567.25804 166.7113,567.09398 168.20435,567.46872 C 169.49432,567.79248 172.23202,567.35448 174.28813,566.49538 C 177.14804,565.30043 178.03399,565.23027 178.05832,566.1968 C 178.07973,567.04716 178.48841,566.94111 179.30832,565.87245 C 179.97833,564.99918 181.06348,564.46566 181.71976,564.68686 C 182.53675,564.96223 182.90473,563.57097 182.88678,560.27463 C 182.87236,557.62671 183.31354,554.28381 183.86718,552.84597 C 185.09182,549.66548 191.34244,544.34873 194.90942,543.45347 C 198.53999,542.54226 200.02652,541.09171 200.02652,538.46022 C 200.02652,536.2178 197.82095,533.49913 196.81657,534.50351 C 196.5273,534.79277 196.49858,533.94161 196.75275,532.61205 C 197.32333,529.62725 195.51664,528.34146 193.23272,530.1069 C 191.6975,531.29359 191.70189,531.21916 193.27652,529.36425 C 194.23902,528.23042 195.02652,526.23966 195.02652,524.94035 C 195.02652,522.71166 195.10295,522.68248 196.37698,524.42483 C 197.26707,525.6421 198.46069,526.07994 199.87836,525.70922 C 201.06137,525.39985 201.7771,525.55477 201.46888,526.05348 C 201.16066,526.55219 199.78349,526.96022 198.40849,526.96022 C 196.85302,526.96022 196.16398,527.37361 196.58472,528.05439 C 196.95665,528.65618 198.41873,528.92724 199.83379,528.65673 L 202.40663,528.1649 L 200.05332,529.94001 L 197.70001,531.71511 L 199.79082,532.83408 C 200.94077,533.44951 202.70173,533.65336 203.70408,533.28707 C 205.46514,532.64352 205.46539,532.69082 203.71138,534.69138 C 202.35113,536.24283 202.20263,536.95103 203.11885,537.51728 C 204.82339,538.57075 212.51472,529.61181 213.91329,524.94381 C 215.41435,519.93371 215.32088,518.26712 213.35187,514.93385 C 211.9099,512.49279 211.83972,511.35983 212.84679,506.77956 C 214.7985,497.90294 215.32259,484.9589 214.11487,475.46022 C 213.4855,470.51022 212.57488,463.40741 212.09127,459.67621 C 211.13249,452.27898 209.13705,448.32297 205.72422,447.05341 C 198.21883,444.26142 155.1442,454.35035 147.95546,460.58399 C 147.09138,461.33327 144.21909,465.36446 141.5726,469.54219 C 136.13684,478.12305 135.20537,482.66013 137.2919,490.39295 C 138.7225,495.69483 140.93813,497.64132 141.1627,493.79355 L 141.29888,491.46022 L 141.73225,493.71022 C 141.97061,494.94772 142.48618,495.96022 142.87796,495.96022 C 143.26975,495.96022 143.6602,497.19772 143.74564,498.71022 C 143.89664,501.38361 143.87061,501.39754 142.81093,499.21022 C 141.02671,495.52733 139.02652,496.43244 139.02652,500.92271 C 139.02652,508.81817 132.76024,521.81657 126.81429,526.25504 C 121.10757,530.51493 118.90249,531.21083 111.38825,531.12334 C 106.17864,531.06268 103.85902,531.43111 103.30437,532.40732 C 102.64794,533.56266 102.05824,533.55569 99.52652,532.36262 C 96.59614,530.98168 96.58891,530.96069 99.21523,531.45822 C 103.63789,532.29604 103.47231,530.14422 98.72347,525.06733 C 93.658395,519.65234 91.900495,516.53903 90.052225,509.71022 C 89.345135,507.09772 88.209545,504.96022 87.528695,504.96022 C 86.018545,504.96022 79.026525,522.84761 79.026525,526.71095 C 79.026525,529.94145 84.405285,538.51277 88.026525,541.05289 C 91.443805,543.44994 97.17899,544.58871 96.8051,542.79595 C 96.65188,542.0613 95.62652,541.16758 94.52652,540.8099 C 92.661825,540.20357 92.678735,540.15284 94.77652,540.0599 C 96.48327,539.98429 97.02652,539.35661 97.02652,537.46022 C 97.02652,536.08522 97.55152,534.96022 98.19319,534.96022 C 98.83485,534.96022 99.06376,535.25632 98.70186,535.61821 C 98.33997,535.98011 98.60247,536.96649 99.2852,537.81017 C 100.11927,538.84088 100.14444,539.11508 99.36193,538.64595 C 97.87659,537.75546 97.30271,539.48198 97.84835,543.19961 C 98.28572,546.17963 98.50703,546.3511 103.25818,547.39115 C 104.76059,547.72003 107.57309,549.37923 109.50818,551.07826 C 112.83755,554.00149 113.02652,554.50778 113.02652,560.5048 C 113.02652,563.99036 113.48386,567.12484 114.04283,567.4703 C 114.6018,567.81576 114.78695,568.53883 114.45427,569.07712 C 114.12159,569.61541 115.01425,571.22068 116.43796,572.64439 C 117.86167,574.06809 119.02652,574.89148 119.02652,574.47414 C 119.02652,574.05679 119.72059,574.29136 120.5689,574.99539 C 122.47971,576.58122 123.56834,575.49694 124.36928,571.21022 C 125.00827,567.79027 124.274,567.12703 122.15509,569.21022 C 121.13554,570.21259 120.94734,570.16307 121.20509,568.96022 C 121.43293,567.89695 120.79863,567.5293 119.02652,567.69748 C 116.8638,567.90274 116.76482,567.79361 118.29284,566.88866 C 120.06048,565.84179 128.66969,566.57383 129.45061,567.8374 C 129.67034,568.19293 132.79074,568.46139 136.38485,568.43398 C 140.79021,568.40039 142.63998,568.7224 142.06153,569.42219 C 141.58961,569.9931 141.0061,571.81022 140.76484,573.46022 L 140.32618,576.46022 L 140.17635,573.17884 C 140.01662,569.68067 137.692,567.89474 135.7831,569.80364 C 134.9768,570.60994 134.31278,570.61276 133.35031,569.81398 C 132.38052,569.00912 131.62541,569.04823 130.52652,569.96022 C 129.29801,570.97979 129.02652,570.91146 129.02652,569.58266 C 129.02652,567.66268 127.89481,567.49193 126.22652,569.16022 C 124.75936,570.62738 124.62778,575.96022 126.05874,575.96022 C 126.62647,575.96022 127.49794,574.94772 127.99536,573.71022 C 128.8773,571.51608 128.90132,571.52583 128.96313,574.10323 C 129.0156,576.29085 130.59329,577.96022 132.60831,577.96022 C 132.83832,577.96022 133.07872,576.72272 133.14252,575.21022 C 133.2293,573.15299 133.37651,572.96405 133.72688,574.46022 C 134.54621,577.95896 139.07535,580.30827 140.51386,577.9807 z M 138.28532,551.25564 C 135.04649,550.63103 133.02652,547.15242 133.02652,542.1994 C 133.02652,536.45054 142.56655,512.96636 144.90996,512.94657 C 145.79907,512.93906 147.50961,512.66926 148.71117,512.34702 C 150.58834,511.8436 151.04865,512.3287 151.98168,515.79368 C 152.5789,518.01158 155.29959,524.11868 158.02767,529.365 C 162.0328,537.06719 162.87599,539.53494 162.40703,542.18199 C 161.74345,545.92754 156.94446,550.96022 154.03642,550.96022 C 152.04764,550.96022 149.02652,546.46744 149.02652,543.50988 C 149.02652,542.65757 148.57652,541.96022 148.02652,541.96022 C 147.47652,541.96022 147.02652,543.31022 147.02652,544.96022 C 147.02652,548.07035 143.97241,552.06327 141.77652,551.82404 C 141.08902,551.74914 139.51798,551.49336 138.28532,551.25564 z M 175.52652,526.33975 C 166.91281,524.32119 162.02652,520.52033 162.02652,515.83862 C 162.02652,515.16712 161.4415,513.90727 160.72648,513.03896 C 160.01146,512.17065 158.63438,508.31022 157.66629,504.46022 C 156.69821,500.61022 155.24823,496.9533 154.44412,496.33374 C 153.32308,495.46998 153.21473,494.59538 153.97956,492.58374 C 155.2413,489.26511 155.89399,489.2027 155.27127,492.46022 C 154.73471,495.26705 156.95585,495.95523 158.91859,493.59027 C 159.54391,492.8368 162.82475,490.97757 166.20934,489.45866 C 171.65309,487.01565 173.18762,486.75936 179.5087,487.23742 C 196.31353,488.50837 202.39053,494.94478 200.0253,508.96746 C 198.05508,520.64826 193.14875,525.82508 183.47118,526.43425 C 180.20162,526.64005 176.62652,526.59753 175.52652,526.33975 z M 150.09681,497.71022 C 150.04987,496.54148 149.21702,495.96022 147.58939,495.96022 C 145.33694,495.96022 145.19611,495.67605 145.73093,492.21022 C 146.47632,487.37981 147.02652,486.7782 147.02652,490.79355 C 147.02652,492.53522 147.47652,493.96022 148.02652,493.96022 C 148.57652,493.96022 149.02652,493.51022 149.02652,492.96022 C 149.02652,492.41022 149.42404,491.96022 149.90989,491.96022 C 151.22103,491.96022 151.82845,495.2065 150.94198,497.47619 C 150.28159,499.16707 150.15671,499.20165 150.09681,497.71022 z M 85.122155,555.89213 C 86.719555,554.75467 88.026525,553.22782 88.026525,552.49911 C 88.026525,551.00359 85.246405,549.52307 83.114855,549.88346 C 79.837045,550.43767 75.114665,548.81328 74.515495,546.92548 C 74.172435,545.84459 73.322075,544.96022 72.625805,544.96022 C 71.885865,544.96022 71.359855,543.71371 71.359855,541.96022 C 71.359855,540.31022 71.622355,538.95933 71.943195,538.95823 C 72.264025,538.95714 72.620905,537.60714 72.736265,535.95823 C 73.037675,531.65004 71.563115,532.26667 69.662385,537.24365 C 67.744705,542.26502 67.661345,544.10484 69.114375,549.33795 C 71.368505,557.45624 78.706315,560.46061 85.122155,555.89213 z M 93.83428,548.55941 C 94.09948,544.47099 93.89206,543.84623 92.334285,544.04126 C 91.340015,544.16575 89.719615,543.91784 88.733395,543.49037 C 86.119475,542.35737 85.494695,543.57787 87.084375,546.71173 C 91.475235,555.36775 93.359195,555.88346 93.83428,548.55941 z M 205.95656,545.94088 C 208.59205,540.87696 208.84499,539.82779 207.55018,539.33093 C 205.80095,538.65968 201.1997,541.34535 200.3629,543.52602 C 199.63164,545.43164 200.87602,551.96022 201.97049,551.96022 C 202.43983,551.96022 204.23356,549.25152 205.95656,545.94088 z M 84.026525,543.08266 C 84.026525,542.05001 83.431065,540.71092 82.703275,540.10691 C 81.644075,539.22785 81.467175,539.60251 81.816775,541.98447 C 82.294675,545.24057 84.026525,546.10127 84.026525,543.08266 z M 79.736265,540.96221 C 79.510775,537.73907 79.255765,537.52875 77.173275,538.84836 C 76.117755,539.51722 76.070495,540.17386 76.958465,541.83305 C 78.593325,544.8878 79.980485,544.45293 79.736265,540.96221 z M 70.554105,530.89907 C 71.504325,528.79185 72.013465,526.36857 71.685535,525.514 C 71.317265,524.5543 71.637355,523.96022 72.522725,523.96022 C 73.311115,523.96022 74.482945,522.94772 75.126795,521.71022 C 75.770645,520.47272 75.940385,519.79382 75.503985,520.20154 C 74.634145,521.01425 72.026525,519.24175 72.026525,517.83778 C 72.026525,517.35512 72.914965,516.96022 74.000845,516.96022 C 75.194035,516.96022 76.604615,515.743 77.566115,513.88367 C 79.076815,510.96229 79.057025,510.78096 77.173675,510.28845 C 76.082805,510.00318 74.639025,508.43892 73.965265,506.81232 C 72.928795,504.31007 72.262025,503.90144 69.633385,504.15754 C 67.314675,504.38344 66.601065,504.90416 66.820365,506.21022 C 67.047205,507.56121 66.413035,507.96022 64.038975,507.96022 C 60.536735,507.96022 59.123545,510.16727 61.100515,512.54938 C 62.028565,513.6676 63.342395,513.93594 65.712395,513.49133 C 68.950745,512.88381 69.026525,512.94947 69.026525,516.36289 C 69.026525,519.81006 68.986915,519.84237 66.026525,518.81038 C 64.376525,518.23518 63.026525,517.41108 63.026525,516.97903 C 63.026525,516.05435 58.994885,514.86174 57.983035,515.4871 C 56.750685,516.24873 60.168275,524.83255 61.876475,525.26612 C 62.784005,525.49646 62.514025,525.58427 61.276525,525.46124 C 58.956155,525.23057 58.151425,527.30134 60.094695,528.50235 C 60.682195,528.86545 60.903825,529.83758 60.587215,530.66265 C 60.269385,531.49091 60.998015,533.1877 62.214085,534.4512 C 65.115525,537.46579 68.181845,536.1598 70.554105,530.89907 z M 65.026525,530.96022 C 63.744625,530.13179 63.780975,529.98862 65.276525,529.97553 C 66.239025,529.96711 67.026525,530.41022 67.026525,530.96022 C 67.026525,532.17983 66.913735,532.17983 65.026525,530.96022 z M 78.026525,533.4012 C 78.026525,533.15866 77.576525,532.96022 77.026525,532.96022 C 76.476525,532.96022 76.026525,533.43678 76.026525,534.01924 C 76.026525,534.6017 76.476525,534.80014 77.026525,534.46022 C 77.576525,534.1203 78.026525,533.64374 78.026525,533.4012 z M 232.52652,519.44002 C 254.52889,506.98518 269.87055,500.0773 292.1198,492.60699 C 297.8435,490.68523 304.55152,488.18841 307.02652,487.05851 C 310.07859,485.66516 313.77885,484.96993 318.52652,484.8978 C 326.88811,484.77077 336.6886,483.63147 337.64475,482.67532 C 338.02265,482.29742 337.12916,481.04219 335.6592,479.88592 C 331.57528,476.67351 329.72614,472.3175 330.29688,467.25392 C 330.56809,464.84775 331.56229,462.02567 332.50622,460.98265 C 334.83651,458.40771 333.64856,456.95826 329.2175,456.96999 C 324.67514,456.98201 317.5463,460.22774 307.88109,466.68437 C 299.5645,472.24008 288.1291,477.65762 282.98144,478.48061 C 279.69603,479.00587 279.7473,478.9371 284.02652,477.07879 C 293.5276,472.95283 304.80406,466.98575 311.52652,462.52683 C 315.37652,459.97317 319.53902,457.62722 320.77652,457.31361 C 323.65406,456.58437 323.65406,455.15313 320.77652,454.04156 C 318.22429,453.05567 314.86303,449.59565 313.05204,446.09014 C 311.8544,443.77189 311.75875,443.84418 308.67707,449.39693 C 302.4917,460.5421 293.47039,467.19643 273.31251,475.48266 C 259.22668,481.27286 218.11812,502.4866 215.77652,505.17363 C 213.84659,507.38826 213.47576,511.00946 215.02069,512.55439 C 216.32145,513.85515 216.4704,517.23024 215.5174,523.80932 L 214.74257,529.15842 L 218.13454,527.41259 C 220.00013,526.45239 226.47652,522.86473 232.52652,519.44002 z M 57.842945,510.70167 C 58.016975,509.19387 58.578185,507.96022 59.090065,507.96022 C 59.601945,507.96022 61.728665,506.41723 63.816095,504.53136 C 65.903535,502.64549 68.829825,500.79671 70.318975,500.42295 C 71.808125,500.0492 73.026525,499.41 73.026525,499.0025 C 73.026525,498.08429 54.991725,490.42639 41.356645,485.55489 C 31.592205,482.06628 13.735045,474.65378 3.4611852,469.8245 C 0.77256519,468.5607 -5.6565148,463.81476 -10.825675,459.27797 C -17.762395,453.18985 -21.566445,450.61169 -25.348805,449.43506 C -28.167375,448.55825 -31.111385,447.58007 -31.891065,447.26134 C -32.856395,446.86671 -32.631295,447.77782 -31.185475,450.1172 C -26.792645,457.22494 -27.373365,465.71671 -32.683845,472.02786 C -34.080015,473.68711 -34.976895,475.29013 -34.676905,475.59012 C -34.376925,475.8901 -31.283425,476.38293 -27.802475,476.68529 C -24.321525,476.98764 -19.887915,478.03034 -17.950005,479.00238 C -16.012095,479.97442 -12.187095,481.08238 -9.4500048,481.46451 C -1.7554748,482.53875 15.409785,486.97469 16.526525,488.17751 C 17.229255,488.9344 16.931985,489.03773 15.526525,488.5251 C 11.661915,487.11553 -5.9070548,482.96022 -8.0022148,482.96022 C -9.1674648,482.96022 -13.350185,481.8945 -17.297155,480.59197 C -23.767665,478.45664 -34.973475,476.46182 -34.973475,477.44528 C -34.973475,477.66024 -34.258365,480.90153 -33.384335,484.64817 C -32.510315,488.3948 -32.017495,493.14772 -32.289185,495.21022 C -32.868895,499.61103 -31.222645,500.21742 -28.022055,496.78199 C -26.136965,494.75858 -25.121315,494.61229 -13.733095,494.7238 C 0.90739519,494.86717 2.8378952,495.33539 32.026525,505.82224 C 44.401525,510.26831 55.201525,513.80185 56.026525,513.67456 C 56.851525,513.54727 57.668915,512.20947 57.842945,510.70167 z M -34.878495,498.78276 C -33.353135,495.93259 -34.287205,484.71586 -36.513195,479.15256 C -38.321205,474.63389 -49.401269,463.60462 -53.106015,462.63581 C -57.546113,461.4747 -61.973475,469.94047 -61.973475,479.5917 C -61.973475,490.84482 -51.767134,500.62607 -39.758655,500.88127 C -36.918175,500.94164 -35.769565,500.44772 -34.878495,498.78276 z M 103.02652,494.48664 C 109.25562,492.84459 122.69444,486.10838 127.68419,482.12695 C 131.35477,479.19813 141.58095,464.18132 140.58386,463.18422 C 139.82106,462.42142 119.07529,472.91311 111.52164,477.88176 C 105.02902,482.15249 91.026525,493.92957 91.026525,495.11959 C 91.026525,496.40905 96.91136,496.09864 103.02652,494.48664 z M 345.27652,472.90875 C 347.66879,470.31632 348.02453,469.1177 348.01121,463.69444 C 347.99268,456.15143 347.14913,454.46937 343.90137,455.4993 C 339.47165,456.90403 334.09008,460.93662 332.47364,464.06248 C 330.5178,467.84466 331.20341,471.22801 334.61751,474.64212 C 337.75267,477.77728 341.31907,477.19731 345.27652,472.90875 z M -33.420395,470.30844 C -32.068725,468.84996 -30.436945,465.90149 -29.794225,463.75627 C -28.771045,460.34119 -28.892975,459.3056 -30.774215,455.43346 C -34.174105,448.43546 -41.370935,448.05211 -45.2321,454.66334 C -46.776045,457.30694 -46.919567,458.49592 -46.067315,461.58253 C -45.107927,465.05714 -38.617105,472.96022 -36.722775,472.96022 C -36.258135,472.96022 -34.772065,471.76692 -33.420395,470.30844 z M 338.95785,452.97991 C 347.40492,450.55732 350.45312,442.86198 345.73996,435.8581 C 340.39266,427.91187 325.11449,428.36716 317.38912,436.70297 C 313.75736,440.62171 314.1893,445.20692 318.5154,448.65879 C 324.65517,453.55784 331.72904,455.05311 338.95785,452.97991 z "
       style="fill:#ffffff;fill-opacity:1"
       id="path2589" />
  </g>
</svg>
