<svg width="37" height="13" viewBox="0 0 37 13" fill="none" xmlns="http://www.w3.org/2000/svg">
<path d="M6.23302 2.83923H2.19277V5.62535H6.09033V7.26999H2.19277V12.7897H0.442993V1.19459H6.23302V2.83923Z" fill="#3E3531"/>
<path d="M11.4021 1.19459V12.7897H9.65236V1.19459H11.4021Z" fill="#3E3531"/>
<path d="M21.3625 2.83923H17.3222V5.62535H21.2198V7.26999H17.3222V12.7897H15.5725V1.19459H21.3625V2.83923Z" fill="#3E3531"/>
<path d="M24.2186 6.93956C24.2186 5.30744 24.8169 3.90561 26.0134 2.73409C27.205 1.56257 28.6368 0.976807 30.309 0.976807C31.9612 0.976807 33.378 1.56757 34.5595 2.74911C35.7461 3.93065 36.3393 5.34999 36.3393 7.00715C36.3393 8.67431 35.7436 10.0887 34.552 11.2502C33.3555 12.4167 31.9111 12.9999 30.2189 12.9999C28.7219 12.9999 27.3777 12.4818 26.1861 11.4454C24.8744 10.2989 24.2186 8.79697 24.2186 6.93956ZM25.9834 6.96209C25.9834 8.24376 26.4139 9.29763 27.2751 10.1237C28.1312 10.9498 29.12 11.3628 30.2414 11.3628C31.458 11.3628 32.4843 10.9423 33.3204 10.1012C34.1565 9.25006 34.5746 8.21372 34.5746 6.99213C34.5746 5.75552 34.1615 4.71917 33.3354 3.88309C32.5144 3.04199 31.4981 2.62145 30.2865 2.62145C29.0799 2.62145 28.0611 3.04199 27.23 3.88309C26.3989 4.71417 25.9834 5.7405 25.9834 6.96209Z" fill="#3E3531"/>
</svg>
