<svg height="512" viewBox="0 0 512 512" width="512" xmlns="http://www.w3.org/2000/svg"><g id="Filled_outline" data-name="Filled outline"><path d="m488 216c0 1.19-.01 2.37-.04 3.55-1.89 104.4-87.11 188.45-191.96 188.45a191.9 191.9 0 0 1 -192-192q0-8.46.72-16.73a192.082 192.082 0 0 1 272.85-157.12q7.485 3.51 14.61 7.65a192.162 192.162 0 0 1 95.82 166.2z" fill="#348fd9"/><path d="m488 216c0 1.19-.01 2.37-.04 3.55-1.89 104.4-87.11 188.45-191.96 188.45a191.969 191.969 0 0 1 -170.23-103.12 196.469 196.469 0 0 0 71.26 13.28c108.81 0 197.02-88.21 197.02-197.03a196.213 196.213 0 0 0 -16.48-78.98q7.485 3.51 14.61 7.65a192.162 192.162 0 0 1 95.82 166.2z" fill="#3086cd"/><path d="m336 168h-32v56h-72v48l-127.28-72.73a191.36 191.36 0 0 1 55.76-119.27h31.52l32 64h32v-32h48z" fill="#4db7e5"/><path d="m368 296-40 80h-64v-56h-32v-48h88v24z" fill="#4db7e5"/><path d="m392.18 49.8-8.14 9.16-40.04 45.04-24-40h-40l-21.06-36.42a192.747 192.747 0 0 1 118.63 14.57q7.485 3.51 14.61 7.65z" fill="#4db7e5"/><path d="m488 216c0 1.19-.01 2.37-.04 3.55l-39.96 52.45h-40v-72h-32v-56l17.94-16.14 44.77-40.3a191.258 191.258 0 0 1 49.29 128.44z" fill="#4db7e5"/><path d="m320 296h48l-40 80h-64v-56h-32v-4.94a196.063 196.063 0 0 0 88-39.98z" fill="#4aafdb"/><path d="m384.04 58.96q-2.85-8.58-6.47-16.81 7.485 3.51 14.61 7.65z" fill="#4aafdb"/><path d="m488 216c0 1.19-.01 2.37-.04 3.55l-39.96 52.45h-40v-72h-30.37a196.213 196.213 0 0 0 16.31-72.14l44.77-40.3a191.258 191.258 0 0 1 49.29 128.44z" fill="#4aafdb"/><path d="m200 152h32v48h-32z" fill="#dbdbd9"/><path d="m120 440h192v48h-192z" fill="#c7c7c5"/><path d="m120 440h192v24h-192z" fill="#d6d6d4"/><path d="m24 440h96v48h-96z" fill="#c7c7c5"/><path d="m24 392h96v48h-96z" fill="#cfcfcd"/><path d="m120 360h-80l-16 32h96z" fill="#e0e0de"/><path d="m80 440-24 48h64v-48z" fill="#d6d6d4"/><path d="m312 440h96v48h-96z" fill="#c7c7c5" transform="matrix(-1 0 0 -1 720 928)"/><path d="m312 392h96v48h-96z" fill="#cfcfcd" transform="matrix(-1 0 0 -1 720 832)"/><path d="m312 360h80l16 32h-96z" fill="#e0e0de"/><path d="m376 488-24-48h-40v48z" fill="#d6d6d4"/><path d="m152 344h128v96h-128z" fill="#c7c7c5"/><path d="m152 312h128v32h-128z" fill="#d6d6d4"/><path d="m152 304h128v32h-128z" fill="#cfcfcd"/><path d="m120 368h32v72h-32z" fill="#d6d6d4"/><path d="m120 344h32v24h-32z" fill="#dbdbd9"/><path d="m280 368h32v72h-32z" fill="#d6d6d4"/><path d="m280 344h32v24h-32z" fill="#dbdbd9"/><path d="m168 232h96v40h-96z" fill="#d6d6d4"/><path d="m168 232h96v24h-96z" fill="#cfcfcd"/><path d="m264 232h-96a47.993 47.993 0 0 1 80.57-35.25c.47.42.92.86 1.37 1.31a47.813 47.813 0 0 1 14.06 33.94z" fill="#e0e0de"/><path d="m152 272h128v40h-128z" fill="#d6d6d4"/><path d="m152 272h128v24h-128z" fill="#cfcfcd"/><path d="m56 328h32v32h-32z" fill="#d6d6d4"/><path d="m344 328h32v32h-32z" fill="#d6d6d4"/><path d="m208 104h16v48h-16z" fill="#d6d6d4"/><g fill="#e0e0de"><path d="m48 320h48v16h-48z"/><path d="m336 320h48v16h-48z"/><path d="m144 264h144v16h-144z"/><path d="m136 304h160v16h-160z"/><path d="m152 344h128v24h-128z"/></g><path d="m264 232h-71.18a404.071 404.071 0 0 0 55.75-35.25c.47.42.92.86 1.37 1.31a47.813 47.813 0 0 1 14.06 33.94z" fill="#d6d6d4"/><path d="m152 224h128v16h-128z" fill="#e0e0de"/><path d="m312 360h16v32h-16z" fill="#c7c7c5"/><path d="m152 368h128v16h-128z" fill="#bfbfbd"/><path d="m120 464h192v16h-192z" fill="#bfbfbd"/><path d="m312 440h16v48h-16z" fill="#cfcfcd"/><path d="m120 368h32v72h-32z" fill="#cfcfcd"/><path d="m280 368h32v72h-32z" fill="#cfcfcd"/><path d="m120 368h32v16h-32z" fill="#c7c7c5"/><path d="m280 368h32v16h-32z" fill="#c7c7c5"/><path d="m56 336h32v16h-32z" fill="#c7c7c5"/><path d="m344 336h32v16h-32z" fill="#c7c7c5"/><path d="m444.656 82.208a200.015 200.015 0 0 0 -347.906 116.369c-.5 5.717-.75 11.579-.75 17.423a200.63 200.63 0 0 0 6.3 49.994l15.494-3.988a184.659 184.659 0 0 1 -5.794-46.006c0-1.112.016-2.224.036-3.336l20 11.425 7.938-13.891-26.763-15.292a183.936 183.936 0 0 1 50.626-106.906h23.219l5.789 11.578 14.31-7.156-8-16a8 8 0 0 0 -7.155-4.422h-10.563a182.5 182.5 0 0 1 73.484-35.387l18.153 31.392a8 8 0 0 0 6.926 3.995h35.471l21.669 36.116a8 8 0 0 0 6.116 3.849c.249.024.5.035.745.035a8 8 0 0 0 5.978-2.685l43.759-49.227a183.952 183.952 0 0 1 33.542 27l-56.632 50.969a8 8 0 0 0 -2.648 5.943v56a8 8 0 0 0 8 8h24v64a8 8 0 0 0 8 8h40a8 8 0 0 0 6.363-3.152l23.051-30.255a184.567 184.567 0 0 1 -59.714 107.407l10.588 12a200.413 200.413 0 0 0 67.667-146.243c.032-1.248.043-2.5.043-3.755a199.55 199.55 0 0 0 -51.342-133.794zm-99.4 8.337-18.4-30.661a8 8 0 0 0 -6.856-3.884h-35.385l-12.946-22.388a184.156 184.156 0 0 1 107.831 18.414zm98.782 173.455h-28.038v-64a8 8 0 0 0 -8-8h-24v-44.437l53.986-48.589a183.567 183.567 0 0 1 42.014 117.026v.8z"/><path d="m310.946 108.031a8 8 0 0 0 -6.946-4.031h-48a8 8 0 0 0 -8 8v40h8a8 8 0 0 0 8-8v-24h35.357l22.858 40h-18.215a8 8 0 0 0 -8 8v56h16v-48h24a8 8 0 0 0 6.946-11.969z"/><path d="m320 304h56v-8a8 8 0 0 0 -8-8h-48z"/><path d="m188.713 108.334-11.293-11.334a169.483 169.483 0 0 0 -15.82 18.183l12.792 9.611a153.3 153.3 0 0 1 14.321-16.46z"/><path d="m129.878 190.81 15.822 2.38a150.292 150.292 0 0 1 21.1-57.29l-13.59-8.444a166.214 166.214 0 0 0 -23.332 63.354z"/><path d="m415.155 388.422-16-32a8 8 0 0 0 -7.155-4.422h-8v-16h8v-16h-64v16h8v16h-16v-8a8 8 0 0 0 -8-8h-24v-16h16v-16h-16v-24h16v-16h-32v-24h16v-16h-16.581a56.145 56.145 0 0 0 -31.419-42.586v-29.414a8 8 0 0 0 -8-8h-8v-40h-16v40h-8a8 8 0 0 0 -8 8v29.414a56.145 56.145 0 0 0 -31.419 42.586h-16.581v16h16v24h-32v16h16v24h-16v16h16v16h-24a8 8 0 0 0 -8 8v8h-16v-16h8v-16h-64v16h8v16h-8a8 8 0 0 0 -7.155 4.422l-16 32h.006a7.952 7.952 0 0 0 -.851 3.578v96a8 8 0 0 0 8 8h384a8 8 0 0 0 8-8v-96a7.952 7.952 0 0 0 -.851-3.575zm-63.155-52.422h16v16h-16zm35.056 32 8 16h-75.056v-16zm12.944 64h-16v-16h-16v16h-16v-16h-16v16h-16v-32h80zm-144 0v-16h-16v16h-16v-16h-16v16h-16v-16h-16v16h-16v-48h16v16h16v-16h16v16h16v-16h16v16h16v-16h16v48zm-128 0v-48h16v48zm-16 48h-43.056l16-32h27.056zm-64-64v16h-16v-32h80v32h-16v-16h-16v16h-16v-16zm112-96h112v16h-112zm64-80v24h-16v-24zm0 64v-24h16v24zm-16-24v24h-16v-24zm64 72v16h-112v-16zm16 32h16v48h-16zm16-16h-16v-16h16zm-32-64h-16v-24h16zm-32-40v-24h16v24zm-32-104h16v16.581a55.368 55.368 0 0 0 -16 0zm8 32a40.071 40.071 0 0 1 39.2 32h-78.4a40.071 40.071 0 0 1 39.2-32zm-40 48h16v24h-16zm0 40v24h-16v-24zm-48 72h16v16h-16zm-64-16h16v16h-16zm-19.056 32h67.056v16h-75.056zm-12.944 80h35.056l-16 32h-19.056zm240 16v16h-16v-16h-16v16h-16v-16h-16v16h-16v-16h-16v16h-16v-16h-16v16h-16v-32h176v32h-16v-16zm48-16h27.056l16 32h-43.056zm80 32h-19.056l-16-32h35.056z"/></g></svg>