<?xml version="1.0" encoding="UTF-8" standalone="no"?>
<!DOCTYPE svg PUBLIC "-//W3C//DTD SVG 1.1//EN" "http://www.w3.org/Graphics/SVG/1.1/DTD/svg11.dtd">
<svg version="1.1" xmlns="http://www.w3.org/2000/svg" xmlns:xlink="http://www.w3.org/1999/xlink" preserveAspectRatio="xMidYMid meet" viewBox="0 0 640 640" width="640" height="640"><defs><path d="M635.08 229.1C632.07 239.38 627.7 249.51 622.01 259.37C612.68 281 537.97 454.05 528.63 475.68C522.54 489.78 503.31 500.35 479.65 502.58C460.6 504.37 308.26 518.73 289.21 520.53C263.98 522.91 239.03 515.32 226.97 501.6C208.88 481.01 64.1 316.22 46 295.63C40.35 289.91 35.18 284.04 30.52 278.01C30.11 277.53 28.06 275.2 24.37 271.01C24.95 270.97 25.27 270.94 25.33 270.94C-43.47 171.75 32.7 57.36 195.46 15.44C358.22 -26.49 545.94 19.93 614.75 119.1C637.22 151.5 644.9 186.99 636.96 221.83C636.96 221.83 637.4 221.79 638.27 221.71C636.36 226.14 635.3 228.6 635.08 229.1Z" id="bhG57RDer"></path><path d="M635.08 229.1C632.07 239.38 627.7 249.51 622.01 259.37C612.68 281 537.97 454.05 528.63 475.68C522.54 489.78 503.31 500.35 479.65 502.58C460.6 504.37 308.26 518.73 289.21 520.53C263.98 522.91 239.03 515.32 226.97 501.6C208.88 481.01 64.1 316.22 46 295.63C40.35 289.91 35.18 284.04 30.52 278.01C30.11 277.53 28.06 275.2 24.37 271.01C24.95 270.97 25.27 270.94 25.33 270.94C-43.47 171.75 32.7 57.36 195.46 15.44C358.22 -26.49 545.94 19.93 614.75 119.1C637.22 151.5 644.9 186.99 636.96 221.83C636.96 221.83 637.4 221.79 638.27 221.71C636.36 226.14 635.3 228.6 635.08 229.1Z" id="dqpEPlroy"></path><path d="M471.61 462.47C491.78 460.56 508.18 451.53 513.37 439.47C520.99 421.78 581.96 280.17 589.58 262.47C594.23 254.38 597.81 246.05 600.28 237.6C600.47 236.83 602.01 230.63 602.21 229.86C620.68 141.71 518.71 61.11 374.44 49.81C349.96 47.9 325.15 48.09 300.75 50.4C300.82 50.66 301.36 52.78 301.42 53.05C442.83 39.74 575.12 98.98 596.91 185.38C600.74 200.57 600.93 216.01 597.48 231.23C597.33 231.82 596.14 236.45 596 237.03C593.55 245.41 590 253.66 585.38 261.69C577.76 279.4 516.75 421.08 509.13 438.78C504.38 449.82 489.39 458.07 470.94 459.82C455.4 461.29 331.08 473.04 315.54 474.51C295.87 476.36 276.43 470.42 267.02 459.71C266.63 459.84 263.53 460.86 263.15 460.98C272.09 471.16 289.47 477.52 308.39 477.52C311 477.52 313.62 477.4 316.21 477.16C331.75 475.69 456.07 463.94 471.61 462.47Z" id="a1HxnyTAmY"></path><path d="M471.61 462.47C491.78 460.56 508.18 451.53 513.37 439.47C520.99 421.78 581.96 280.17 589.58 262.47C594.23 254.38 597.81 246.05 600.28 237.6C600.47 236.83 602.01 230.63 602.21 229.86C620.68 141.71 518.71 61.11 374.44 49.81C349.96 47.9 325.15 48.09 300.75 50.4C300.82 50.66 301.36 52.78 301.42 53.05C442.83 39.74 575.12 98.98 596.91 185.38C600.74 200.57 600.93 216.01 597.48 231.23C597.33 231.82 596.14 236.45 596 237.03C593.55 245.41 590 253.66 585.38 261.69C577.76 279.4 516.75 421.08 509.13 438.78C504.38 449.82 489.39 458.07 470.94 459.82C455.4 461.29 331.08 473.04 315.54 474.51C295.87 476.36 276.43 470.42 267.02 459.71C266.63 459.84 263.53 460.86 263.15 460.98C272.09 471.16 289.47 477.52 308.39 477.52C311 477.52 313.62 477.4 316.21 477.16C331.75 475.69 456.07 463.94 471.61 462.47Z" id="a3KcUHjkt"></path><path d="M198.88 194.8C194.79 195.72 192.51 196.23 192.06 196.33C192.06 196.33 192.06 196.33 192.06 196.33C264.73 317.24 305.1 384.41 313.17 397.85C313.17 397.85 313.17 397.85 313.17 397.85C317.27 396.93 319.54 396.43 320 396.32C320 396.32 320 396.32 320 396.32C247.33 275.42 206.96 208.24 198.88 194.8C198.88 194.8 198.88 194.8 198.88 194.8Z" id="b1AjyNbKwt"></path><path d="M198.88 194.8C194.79 195.72 192.51 196.23 192.06 196.33C192.06 196.33 192.06 196.33 192.06 196.33C264.73 317.24 305.1 384.41 313.17 397.85C313.17 397.85 313.17 397.85 313.17 397.85C317.27 396.93 319.54 396.43 320 396.32C320 396.32 320 396.32 320 396.32C247.33 275.42 206.96 208.24 198.88 194.8C198.88 194.8 198.88 194.8 198.88 194.8Z" id="c2Thb8mzXM"></path><path d="M437.85 171.4C428.58 300.04 423.43 371.51 422.4 385.8C422.4 385.8 422.4 385.8 422.4 385.8C426.75 385.92 429.17 385.98 429.66 386C429.66 386 429.66 386 429.66 386C438.93 257.35 444.09 185.89 445.12 171.6C445.12 171.6 445.12 171.6 445.12 171.6C440.76 171.48 438.34 171.41 437.85 171.4C437.85 171.4 437.85 171.4 437.85 171.4Z" id="b14mb9ezj"></path><path d="M437.85 171.4C428.58 300.04 423.43 371.51 422.4 385.8C422.4 385.8 422.4 385.8 422.4 385.8C426.75 385.92 429.17 385.98 429.66 386C429.66 386 429.66 386 429.66 386C438.93 257.35 444.09 185.89 445.12 171.6C445.12 171.6 445.12 171.6 445.12 171.6C440.76 171.48 438.34 171.41 437.85 171.4C437.85 171.4 437.85 171.4 437.85 171.4Z" id="c8e1Ns4vP"></path><path d="M371.54 129.51C377.29 125.15 382.72 121.02 390.28 118.88C406.96 114.13 426.62 120.76 443.64 127.87C444.06 127.51 447.35 124.58 447.76 124.22C429.04 116.39 407.22 109.17 387.2 114.87C378.11 117.45 371.89 122.17 365.88 126.73C364.34 127.89 362.82 129.05 361.25 130.17C356.11 133.82 345.88 139.74 334.91 138.37C330.29 137.55 325.99 136.16 322.27 134.3C319.45 133.01 316.46 131.87 313.33 130.86C300.38 127.08 284.97 128.4 274.25 134.23C272.38 135.31 270.61 136.45 268.95 137.64C265.68 139.92 262.59 142.06 258.57 142.84C252.63 144 246.35 141.93 239.69 139.74C232.83 137.48 225.73 135.15 217.69 135.72C217.43 135.74 217.16 135.76 216.9 135.79C202.58 137.14 195.98 146.79 192.24 154C192.94 154.13 198.48 155.19 199.18 155.33C204.25 145.54 210.43 140.67 218.54 140.13C224.3 139.71 230.1 141.62 236.24 143.63C243.93 146.18 251.9 148.79 260.78 147.06C266.72 145.9 270.63 143.19 274.41 140.56C275.9 139.49 277.49 138.46 279.16 137.5C287.69 132.94 299.84 131.9 310.11 134.83C312.89 135.73 315.55 136.77 318.08 137.91C322.59 140.16 327.83 141.8 333.45 142.71C336.25 143.06 339.13 143.1 341.95 142.83C352.83 141.81 361.83 136.57 366.77 133.05C368.39 131.9 369.96 130.7 371.54 129.51Z" id="b58XObtmlK"></path><path d="M371.54 129.51C377.29 125.15 382.72 121.02 390.28 118.88C406.96 114.13 426.62 120.76 443.64 127.87C444.06 127.51 447.35 124.58 447.76 124.22C429.04 116.39 407.22 109.17 387.2 114.87C378.11 117.45 371.89 122.17 365.88 126.73C364.34 127.89 362.82 129.05 361.25 130.17C356.11 133.82 345.88 139.74 334.91 138.37C330.29 137.55 325.99 136.16 322.27 134.3C319.45 133.01 316.46 131.87 313.33 130.86C300.38 127.08 284.97 128.4 274.25 134.23C272.38 135.31 270.61 136.45 268.95 137.64C265.68 139.92 262.59 142.06 258.57 142.84C252.63 144 246.35 141.93 239.69 139.74C232.83 137.48 225.73 135.15 217.69 135.72C217.43 135.74 217.16 135.76 216.9 135.79C202.58 137.14 195.98 146.79 192.24 154C192.94 154.13 198.48 155.19 199.18 155.33C204.25 145.54 210.43 140.67 218.54 140.13C224.3 139.71 230.1 141.62 236.24 143.63C243.93 146.18 251.9 148.79 260.78 147.06C266.72 145.9 270.63 143.19 274.41 140.56C275.9 139.49 277.49 138.46 279.16 137.5C287.69 132.94 299.84 131.9 310.11 134.83C312.89 135.73 315.55 136.77 318.08 137.91C322.59 140.16 327.83 141.8 333.45 142.71C336.25 143.06 339.13 143.1 341.95 142.83C352.83 141.81 361.83 136.57 366.77 133.05C368.39 131.9 369.96 130.7 371.54 129.51Z" id="a1COH8LmM"></path><path d="M538.54 590.71C537.91 588.31 534.23 586.67 530.29 587.02C504.79 589.43 300.73 608.66 275.23 611.07C271.25 611.43 268.51 613.68 269.1 616.1C269.7 618.52 273.39 620.19 277.37 619.84C277.39 619.83 277.42 619.83 277.45 619.83C328.46 615.02 507.01 598.19 532.52 595.78C536.48 595.4 539.18 593.12 538.54 590.71Z" id="b1lXaqYNge"></path><path d="M538.54 590.71C537.91 588.31 534.23 586.67 530.29 587.02C504.79 589.43 300.73 608.66 275.23 611.07C271.25 611.43 268.51 613.68 269.1 616.1C269.7 618.52 273.39 620.19 277.37 619.84C277.39 619.83 277.42 619.83 277.45 619.83C328.46 615.02 507.01 598.19 532.52 595.78C536.48 595.4 539.18 593.12 538.54 590.71Z" id="b28mLGjwUc"></path><path d="M532.1 557.74C531.51 555.32 527.81 553.65 523.84 554.01C523.81 554.02 523.78 554.02 523.75 554.02C498.25 556.42 294.19 575.66 268.69 578.07C264.71 578.43 261.97 580.68 262.56 583.1C263.16 585.52 266.85 587.18 270.83 586.83C270.85 586.82 270.88 586.82 270.91 586.82C270.91 586.82 500.47 565.18 525.98 562.77C529.95 562.41 532.69 560.16 532.1 557.74Z" id="c1uPuKOJTG"></path><path d="M532.1 557.74C531.51 555.32 527.81 553.65 523.84 554.01C523.81 554.02 523.78 554.02 523.75 554.02C498.25 556.42 294.19 575.66 268.69 578.07C264.71 578.43 261.97 580.68 262.56 583.1C263.16 585.52 266.85 587.18 270.83 586.83C270.85 586.82 270.88 586.82 270.91 586.82C270.91 586.82 500.47 565.18 525.98 562.77C529.95 562.41 532.69 560.16 532.1 557.74Z" id="a14EOtPO5q"></path><path d="M525.46 524.69C524.83 522.3 521.15 520.65 517.21 521.01C491.71 523.41 287.65 542.65 262.15 545.06C258.18 545.44 255.48 547.72 256.12 550.13C256.75 552.53 260.43 554.17 264.37 553.82C264.37 553.82 493.93 532.17 519.44 529.77C523.4 529.38 526.1 527.11 525.46 524.69Z" id="iNayedQEa"></path><path d="M525.46 524.69C524.83 522.3 521.15 520.65 517.21 521.01C491.71 523.41 287.65 542.65 262.15 545.06C258.18 545.44 255.48 547.72 256.12 550.13C256.75 552.53 260.43 554.17 264.37 553.82C264.37 553.82 493.93 532.17 519.44 529.77C523.4 529.38 526.1 527.11 525.46 524.69Z" id="b9Z6LwoppS"></path><path d="M494.78 592.01C500.16 613.21 463.5 634.27 412.91 639.04C362.32 643.81 316.94 630.48 311.56 609.29C329.88 607.57 476.45 593.74 494.78 592.01Z" id="bbCU1nK6h"></path><path d="M494.78 592.01C500.16 613.21 463.5 634.27 412.91 639.04C362.32 643.81 316.94 630.48 311.56 609.29C329.88 607.57 476.45 593.74 494.78 592.01Z" id="a1eTcekCi2"></path><path d="M28.02 528.99C28.02 548.89 36.16 567.52 50.51 580.9C49.2 582.83 38.77 598.21 37.47 600.14C36.2 602.01 36.22 604.5 37.51 606.35C38.51 607.79 40.1 608.6 41.76 608.6C42.24 608.6 42.72 608.52 43.2 608.38C46.91 607.29 76.62 598.52 80.34 597.43C86.11 598.94 92.09 599.71 98.13 599.71C136.81 599.71 168.25 567.99 168.25 528.99C168.25 489.99 136.79 458.27 98.13 458.27C59.49 458.29 28.02 490.01 28.02 528.99ZM78.88 586.68C77.25 587.15 69.13 589.55 54.51 593.86C58.91 587.37 61.35 583.78 61.84 583.06C63.41 580.73 62.95 577.51 60.78 575.74C46.6 564.28 38.49 547.24 38.49 528.99C38.49 495.95 65.24 469.06 98.13 469.06C131.02 469.06 157.77 495.95 157.77 528.99C157.79 562.06 131.04 588.95 98.15 588.95C92.55 588.95 87.03 588.18 81.72 586.66C80.8 586.4 79.8 586.38 78.88 586.68Z" id="krckuKaWq"></path><path d="M28.02 528.99C28.02 548.89 36.16 567.52 50.51 580.9C49.2 582.83 38.77 598.21 37.47 600.14C36.2 602.01 36.22 604.5 37.51 606.35C38.51 607.79 40.1 608.6 41.76 608.6C42.24 608.6 42.72 608.52 43.2 608.38C46.91 607.29 76.62 598.52 80.34 597.43C86.11 598.94 92.09 599.71 98.13 599.71C136.81 599.71 168.25 567.99 168.25 528.99C168.25 489.99 136.79 458.27 98.13 458.27C59.49 458.29 28.02 490.01 28.02 528.99ZM78.88 586.68C77.25 587.15 69.13 589.55 54.51 593.86C58.91 587.37 61.35 583.78 61.84 583.06C63.41 580.73 62.95 577.51 60.78 575.74C46.6 564.28 38.49 547.24 38.49 528.99C38.49 495.95 65.24 469.06 98.13 469.06C131.02 469.06 157.77 495.95 157.77 528.99C157.79 562.06 131.04 588.95 98.15 588.95C92.55 588.95 87.03 588.18 81.72 586.66C80.8 586.4 79.8 586.38 78.88 586.68Z" id="f8adISA5R"></path><path d="M173.62 490.37C170.89 489.58 167.94 491.24 167.17 494.11C166.41 496.98 168.02 499.95 170.81 500.74C191.54 506.71 206.04 526.65 206.04 549.2C206.04 564.67 199.16 579.12 187.16 588.83C185.16 590.46 184.58 593.29 185.77 595.6C186.09 596.21 187.67 599.27 190.52 604.79C179.72 600.84 173.72 598.65 172.52 598.22C171.52 597.84 170.41 597.8 169.37 598.1C164.85 599.38 160.15 600.06 155.42 600.06C146.6 600.06 143.21 599.78 136.83 596.57C134.23 595.27 131.09 596.39 129.82 599.06C128.56 601.73 129.63 604.97 132.25 606.27C140.92 610.62 146.44 610.82 155.42 610.82C160.54 610.82 165.62 610.19 170.56 608.92C173.48 609.99 196.82 618.5 199.74 619.57C200.31 619.79 200.91 619.88 201.49 619.88C202.99 619.88 204.45 619.22 205.45 618C206.85 616.32 207.12 613.92 206.1 611.97C205.49 610.8 202.46 604.94 196.99 594.39C210 575.81 216.51 560.75 216.51 549.2C216.51 521.82 198.87 497.64 173.62 490.37Z" id="c2FlwA2c5R"></path><path d="M173.62 490.37C170.89 489.58 167.94 491.24 167.17 494.11C166.41 496.98 168.02 499.95 170.81 500.74C191.54 506.71 206.04 526.65 206.04 549.2C206.04 564.67 199.16 579.12 187.16 588.83C185.16 590.46 184.58 593.29 185.77 595.6C186.09 596.21 187.67 599.27 190.52 604.79C179.72 600.84 173.72 598.65 172.52 598.22C171.52 597.84 170.41 597.8 169.37 598.1C164.85 599.38 160.15 600.06 155.42 600.06C146.6 600.06 143.21 599.78 136.83 596.57C134.23 595.27 131.09 596.39 129.82 599.06C128.56 601.73 129.63 604.97 132.25 606.27C140.92 610.62 146.44 610.82 155.42 610.82C160.54 610.82 165.62 610.19 170.56 608.92C173.48 609.99 196.82 618.5 199.74 619.57C200.31 619.79 200.91 619.88 201.49 619.88C202.99 619.88 204.45 619.22 205.45 618C206.85 616.32 207.12 613.92 206.1 611.97C205.49 610.8 202.46 604.94 196.99 594.39C210 575.81 216.51 560.75 216.51 549.2C216.51 521.82 198.87 497.64 173.62 490.37Z" id="hVtuGECrC"></path><path d="M75.15 511.88C75.15 514.85 77.49 517.27 80.38 517.27C83.26 517.27 85.61 514.85 85.61 511.88C85.61 506.67 88.15 501.79 92.38 498.82C95.01 496.98 98.09 496.01 101.3 496.01C109.96 496.01 117.02 503.14 117.02 511.88C117.02 515.05 116.09 518.11 114.36 520.72C111.44 525.12 106.55 527.75 101.07 527.77C95.8 528.03 90.47 531.61 90.47 537.98C90.47 539.18 90.47 548.71 90.47 549.89C90.47 552.88 92.82 555.27 95.71 555.27C98.59 555.27 100.94 552.86 100.94 549.89C100.94 548.77 100.94 539.8 100.94 538.67C101.11 538.61 101.26 538.57 101.3 538.55C110 538.55 118.11 534.19 123 526.84C125.92 522.43 127.48 517.27 127.48 511.9C127.5 497.17 115.77 485.23 101.32 485.23C95.99 485.23 90.88 486.85 86.49 489.91C79.38 494.91 75.15 503.1 75.15 511.88Z" id="e2pu5hP0D"></path><path d="M75.15 511.88C75.15 514.85 77.49 517.27 80.38 517.27C83.26 517.27 85.61 514.85 85.61 511.88C85.61 506.67 88.15 501.79 92.38 498.82C95.01 496.98 98.09 496.01 101.3 496.01C109.96 496.01 117.02 503.14 117.02 511.88C117.02 515.05 116.09 518.11 114.36 520.72C111.44 525.12 106.55 527.75 101.07 527.77C95.8 528.03 90.47 531.61 90.47 537.98C90.47 539.18 90.47 548.71 90.47 549.89C90.47 552.88 92.82 555.27 95.71 555.27C98.59 555.27 100.94 552.86 100.94 549.89C100.94 548.77 100.94 539.8 100.94 538.67C101.11 538.61 101.26 538.57 101.3 538.55C110 538.55 118.11 534.19 123 526.84C125.92 522.43 127.48 517.27 127.48 511.9C127.5 497.17 115.77 485.23 101.32 485.23C95.99 485.23 90.88 486.85 86.49 489.91C79.38 494.91 75.15 503.1 75.15 511.88Z" id="c3MQCNaeOv"></path><path d="M100.9 566.02C100.9 563.05 98.55 560.63 95.67 560.63C92.78 560.63 90.44 563.05 90.44 566.02C90.44 568.99 92.78 571.4 95.67 571.4C98.55 571.4 100.9 568.99 100.9 566.02Z" id="b4GnrSx6HB"></path><path d="M100.9 566.02C100.9 563.05 98.55 560.63 95.67 560.63C92.78 560.63 90.44 563.05 90.44 566.02C90.44 568.99 92.78 571.4 95.67 571.4C98.55 571.4 100.9 568.99 100.9 566.02Z" id="bg5wDq6bb"></path></defs><g><g><g><use xlink:href="#bhG57RDer" opacity="1" fill="#333333" fill-opacity="1"></use><g><use xlink:href="#bhG57RDer" opacity="1" fill-opacity="0" stroke="#000000" stroke-width="1" stroke-opacity="0"></use></g></g><g><use xlink:href="#dqpEPlroy" opacity="1" fill="#5c8d8b" fill-opacity="1"></use><g><use xlink:href="#dqpEPlroy" opacity="1" fill-opacity="0" stroke="#000000" stroke-width="1" stroke-opacity="0"></use></g></g><g><use xlink:href="#a1HxnyTAmY" opacity="1" fill="#d0cde1" fill-opacity="1"></use><g><use xlink:href="#a1HxnyTAmY" opacity="1" fill-opacity="0" stroke="#000000" stroke-width="1" stroke-opacity="0"></use></g></g><g><use xlink:href="#a3KcUHjkt" opacity="1" fill="#000000" fill-opacity="0"></use><g><use xlink:href="#a3KcUHjkt" opacity="1" fill-opacity="0" stroke="#000000" stroke-width="1" stroke-opacity="0"></use></g></g><g><use xlink:href="#b1AjyNbKwt" opacity="1" fill="#d0cde1" fill-opacity="1"></use><g><use xlink:href="#b1AjyNbKwt" opacity="1" fill-opacity="0" stroke="#000000" stroke-width="1" stroke-opacity="0"></use></g></g><g><use xlink:href="#c2Thb8mzXM" opacity="1" fill="#000000" fill-opacity="0"></use><g><use xlink:href="#c2Thb8mzXM" opacity="1" fill-opacity="0" stroke="#000000" stroke-width="1" stroke-opacity="0"></use></g></g><g><use xlink:href="#b14mb9ezj" opacity="1" fill="#d0cde1" fill-opacity="1"></use><g><use xlink:href="#b14mb9ezj" opacity="1" fill-opacity="0" stroke="#000000" stroke-width="1" stroke-opacity="0"></use></g></g><g><use xlink:href="#c8e1Ns4vP" opacity="1" fill="#000000" fill-opacity="0"></use><g><use xlink:href="#c8e1Ns4vP" opacity="1" fill-opacity="0" stroke="#000000" stroke-width="1" stroke-opacity="0"></use></g></g><g><use xlink:href="#b58XObtmlK" opacity="1" fill="#d0cde1" fill-opacity="1"></use><g><use xlink:href="#b58XObtmlK" opacity="1" fill-opacity="0" stroke="#000000" stroke-width="1" stroke-opacity="0"></use></g></g><g><use xlink:href="#a1COH8LmM" opacity="1" fill="#000000" fill-opacity="0"></use><g><use xlink:href="#a1COH8LmM" opacity="1" fill-opacity="0" stroke="#000000" stroke-width="1" stroke-opacity="0"></use></g></g><g><use xlink:href="#b1lXaqYNge" opacity="1" fill="#333333" fill-opacity="1"></use><g><use xlink:href="#b1lXaqYNge" opacity="1" fill-opacity="0" stroke="#000000" stroke-width="1" stroke-opacity="0"></use></g></g><g><use xlink:href="#b28mLGjwUc" opacity="1" fill="#5c8d8b" fill-opacity="1"></use><g><use xlink:href="#b28mLGjwUc" opacity="1" fill-opacity="0" stroke="#000000" stroke-width="1" stroke-opacity="0"></use></g></g><g><use xlink:href="#c1uPuKOJTG" opacity="1" fill="#333333" fill-opacity="1"></use><g><use xlink:href="#c1uPuKOJTG" opacity="1" fill-opacity="0" stroke="#000000" stroke-width="1" stroke-opacity="0"></use></g></g><g><use xlink:href="#a14EOtPO5q" opacity="1" fill="#5c8d8b" fill-opacity="1"></use><g><use xlink:href="#a14EOtPO5q" opacity="1" fill-opacity="0" stroke="#000000" stroke-width="1" stroke-opacity="0"></use></g></g><g><use xlink:href="#iNayedQEa" opacity="1" fill="#333333" fill-opacity="1"></use><g><use xlink:href="#iNayedQEa" opacity="1" fill-opacity="0" stroke="#000000" stroke-width="1" stroke-opacity="0"></use></g></g><g><use xlink:href="#b9Z6LwoppS" opacity="1" fill="#5c8d8b" fill-opacity="1"></use><g><use xlink:href="#b9Z6LwoppS" opacity="1" fill-opacity="0" stroke="#000000" stroke-width="1" stroke-opacity="0"></use></g></g><g><use xlink:href="#bbCU1nK6h" opacity="1" fill="#333333" fill-opacity="1"></use><g><use xlink:href="#bbCU1nK6h" opacity="1" fill-opacity="0" stroke="#000000" stroke-width="1" stroke-opacity="0"></use></g></g><g><use xlink:href="#a1eTcekCi2" opacity="1" fill="#5c8d8b" fill-opacity="1"></use><g><use xlink:href="#a1eTcekCi2" opacity="1" fill-opacity="0" stroke="#000000" stroke-width="1" stroke-opacity="0"></use></g></g><g><use xlink:href="#krckuKaWq" opacity="1" fill="#333333" fill-opacity="1"></use><g><use xlink:href="#krckuKaWq" opacity="1" fill-opacity="0" stroke="#000000" stroke-width="1" stroke-opacity="0"></use></g></g><g><use xlink:href="#f8adISA5R" opacity="1" fill="#5c8d8b" fill-opacity="1"></use><g><use xlink:href="#f8adISA5R" opacity="1" fill-opacity="0" stroke="#000000" stroke-width="1" stroke-opacity="0"></use></g></g><g><use xlink:href="#c2FlwA2c5R" opacity="1" fill="#333333" fill-opacity="1"></use><g><use xlink:href="#c2FlwA2c5R" opacity="1" fill-opacity="0" stroke="#000000" stroke-width="1" stroke-opacity="0"></use></g></g><g><use xlink:href="#hVtuGECrC" opacity="1" fill="#5c8d8b" fill-opacity="1"></use><g><use xlink:href="#hVtuGECrC" opacity="1" fill-opacity="0" stroke="#000000" stroke-width="1" stroke-opacity="0"></use></g></g><g><use xlink:href="#e2pu5hP0D" opacity="1" fill="#333333" fill-opacity="1"></use><g><use xlink:href="#e2pu5hP0D" opacity="1" fill-opacity="0" stroke="#000000" stroke-width="1" stroke-opacity="0"></use></g></g><g><use xlink:href="#c3MQCNaeOv" opacity="1" fill="#5c8d8b" fill-opacity="1"></use><g><use xlink:href="#c3MQCNaeOv" opacity="1" fill-opacity="0" stroke="#000000" stroke-width="1" stroke-opacity="0"></use></g></g><g><use xlink:href="#b4GnrSx6HB" opacity="1" fill="#333333" fill-opacity="1"></use><g><use xlink:href="#b4GnrSx6HB" opacity="1" fill-opacity="0" stroke="#000000" stroke-width="1" stroke-opacity="0"></use></g></g><g><use xlink:href="#bg5wDq6bb" opacity="1" fill="#5c8d8b" fill-opacity="1"></use><g><use xlink:href="#bg5wDq6bb" opacity="1" fill-opacity="0" stroke="#000000" stroke-width="1" stroke-opacity="0"></use></g></g></g></g></svg>