<svg width="247" height="45" viewBox="0 0 247 45" fill="none" xmlns="http://www.w3.org/2000/svg">
<path d="M16 5.76953L2 11.941V41.7695L16 36.1124V5.76953Z" fill="#FF9E97" stroke="#010101"/>
<path d="M17 5.76953V36.3945" stroke="#010101" stroke-width="2" stroke-linecap="round" stroke-linejoin="round"/>
<path d="M1 11.2305L17 5L33 11.2305L49 5V36.1523L33 42.3828L17 36.1523L1 42.3828V11.2305Z" stroke="#010101" stroke-width="2" stroke-linecap="round" stroke-linejoin="round"/>
<path d="M33 11.2305V42.3828" stroke="#010101" stroke-width="2" stroke-linecap="round" stroke-linejoin="round"/>
<path d="M48.5 6.76953L34 12.2695V41.7695L48.5 35.7695V6.76953Z" fill="#FF9E97" stroke="#010101"/>
<path d="M76.01 11.94V16.05H70.43V33H65.3V16.05H59.72V11.94H76.01ZM83.7146 19.05C84.3146 18.13 85.0646 17.41 85.9646 16.89C86.8646 16.35 87.8646 16.08 88.9646 16.08V21.51H87.5546C86.2746 21.51 85.3146 21.79 84.6746 22.35C84.0346 22.89 83.7146 23.85 83.7146 25.23V33H78.5846V16.26H83.7146V19.05ZM90.3966 24.6C90.3966 22.88 90.7166 21.37 91.3566 20.07C92.0166 18.77 92.9066 17.77 94.0266 17.07C95.1466 16.37 96.3966 16.02 97.7766 16.02C98.9566 16.02 99.9866 16.26 100.867 16.74C101.767 17.22 102.457 17.85 102.937 18.63V16.26H108.067V33H102.937V30.63C102.437 31.41 101.737 32.04 100.837 32.52C99.9566 33 98.9266 33.24 97.7466 33.24C96.3866 33.24 95.1466 32.89 94.0266 32.19C92.9066 31.47 92.0166 30.46 91.3566 29.16C90.7166 27.84 90.3966 26.32 90.3966 24.6ZM102.937 24.63C102.937 23.35 102.577 22.34 101.857 21.6C101.157 20.86 100.297 20.49 99.2766 20.49C98.2566 20.49 97.3866 20.86 96.6666 21.6C95.9666 22.32 95.6166 23.32 95.6166 24.6C95.6166 25.88 95.9666 26.9 96.6666 27.66C97.3866 28.4 98.2566 28.77 99.2766 28.77C100.297 28.77 101.157 28.4 101.857 27.66C102.577 26.92 102.937 25.91 102.937 24.63ZM119.308 28.2L122.938 16.26H128.398L122.458 33H116.128L110.188 16.26H115.678L119.308 28.2ZM135.687 10.8V33H130.557V10.8H135.687ZM155.185 24.36C155.185 24.84 155.155 25.34 155.095 25.86H143.485C143.565 26.9 143.895 27.7 144.475 28.26C145.075 28.8 145.805 29.07 146.665 29.07C147.945 29.07 148.835 28.53 149.335 27.45H154.795C154.515 28.55 154.005 29.54 153.265 30.42C152.545 31.3 151.635 31.99 150.535 32.49C149.435 32.99 148.205 33.24 146.845 33.24C145.205 33.24 143.745 32.89 142.465 32.19C141.185 31.49 140.185 30.49 139.465 29.19C138.745 27.89 138.385 26.37 138.385 24.63C138.385 22.89 138.735 21.37 139.435 20.07C140.155 18.77 141.155 17.77 142.435 17.07C143.715 16.37 145.185 16.02 146.845 16.02C148.465 16.02 149.905 16.36 151.165 17.04C152.425 17.72 153.405 18.69 154.105 19.95C154.825 21.21 155.185 22.68 155.185 24.36ZM149.935 23.01C149.935 22.13 149.635 21.43 149.035 20.91C148.435 20.39 147.685 20.13 146.785 20.13C145.925 20.13 145.195 20.38 144.595 20.88C144.015 21.38 143.655 22.09 143.515 23.01H149.935ZM163.021 18.63C163.521 17.85 164.211 17.22 165.091 16.74C165.971 16.26 167.001 16.02 168.181 16.02C169.561 16.02 170.811 16.37 171.931 17.07C173.051 17.77 173.931 18.77 174.571 20.07C175.231 21.37 175.561 22.88 175.561 24.6C175.561 26.32 175.231 27.84 174.571 29.16C173.931 30.46 173.051 31.47 171.931 32.19C170.811 32.89 169.561 33.24 168.181 33.24C167.021 33.24 165.991 33 165.091 32.52C164.211 32.04 163.521 31.42 163.021 30.66V40.98H157.891V16.26H163.021V18.63ZM170.341 24.6C170.341 23.32 169.981 22.32 169.261 21.6C168.561 20.86 167.691 20.49 166.651 20.49C165.631 20.49 164.761 20.86 164.041 21.6C163.341 22.34 162.991 23.35 162.991 24.63C162.991 25.91 163.341 26.92 164.041 27.66C164.761 28.4 165.631 28.77 166.651 28.77C167.671 28.77 168.541 28.4 169.261 27.66C169.981 26.9 170.341 25.88 170.341 24.6ZM183.383 19.05C183.983 18.13 184.733 17.41 185.633 16.89C186.533 16.35 187.533 16.08 188.633 16.08V21.51H187.223C185.943 21.51 184.983 21.79 184.343 22.35C183.703 22.89 183.383 23.85 183.383 25.23V33H178.253V16.26H183.383V19.05ZM193.665 14.52C192.765 14.52 192.025 14.26 191.445 13.74C190.885 13.2 190.605 12.54 190.605 11.76C190.605 10.96 190.885 10.3 191.445 9.78C192.025 9.24 192.765 8.97 193.665 8.97C194.545 8.97 195.265 9.24 195.825 9.78C196.405 10.3 196.695 10.96 196.695 11.76C196.695 12.54 196.405 13.2 195.825 13.74C195.265 14.26 194.545 14.52 193.665 14.52ZM196.215 16.26V33H191.085V16.26H196.215ZM206.742 33.24C205.282 33.24 203.982 32.99 202.842 32.49C201.702 31.99 200.802 31.31 200.142 30.45C199.482 29.57 199.112 28.59 199.032 27.51H204.102C204.162 28.09 204.432 28.56 204.912 28.92C205.392 29.28 205.982 29.46 206.682 29.46C207.322 29.46 207.812 29.34 208.152 29.1C208.512 28.84 208.692 28.51 208.692 28.11C208.692 27.63 208.442 27.28 207.942 27.06C207.442 26.82 206.632 26.56 205.512 26.28C204.312 26 203.312 25.71 202.512 25.41C201.712 25.09 201.022 24.6 200.442 23.94C199.862 23.26 199.572 22.35 199.572 21.21C199.572 20.25 199.832 19.38 200.352 18.6C200.892 17.8 201.672 17.17 202.692 16.71C203.732 16.25 204.962 16.02 206.382 16.02C208.482 16.02 210.132 16.54 211.332 17.58C212.552 18.62 213.252 20 213.432 21.72H208.692C208.612 21.14 208.352 20.68 207.912 20.34C207.492 20 206.932 19.83 206.232 19.83C205.632 19.83 205.172 19.95 204.852 20.19C204.532 20.41 204.372 20.72 204.372 21.12C204.372 21.6 204.622 21.96 205.122 22.2C205.642 22.44 206.442 22.68 207.522 22.92C208.762 23.24 209.772 23.56 210.552 23.88C211.332 24.18 212.012 24.68 212.592 25.38C213.192 26.06 213.502 26.98 213.522 28.14C213.522 29.12 213.242 30 212.682 30.78C212.142 31.54 211.352 32.14 210.312 32.58C209.292 33.02 208.102 33.24 206.742 33.24ZM238.021 16.08C240.101 16.08 241.751 16.71 242.971 17.97C244.211 19.23 244.831 20.98 244.831 23.22V33H239.731V23.91C239.731 22.83 239.441 22 238.861 21.42C238.301 20.82 237.521 20.52 236.521 20.52C235.521 20.52 234.731 20.82 234.151 21.42C233.591 22 233.311 22.83 233.311 23.91V33H228.211V23.91C228.211 22.83 227.921 22 227.341 21.42C226.781 20.82 226.001 20.52 225.001 20.52C224.001 20.52 223.211 20.82 222.631 21.42C222.071 22 221.791 22.83 221.791 23.91V33H216.661V16.26H221.791V18.36C222.311 17.66 222.991 17.11 223.831 16.71C224.671 16.29 225.621 16.08 226.681 16.08C227.941 16.08 229.061 16.35 230.041 16.89C231.041 17.43 231.821 18.2 232.381 19.2C232.961 18.28 233.751 17.53 234.751 16.95C235.751 16.37 236.841 16.08 238.021 16.08Z" fill="#010101"/>
</svg>
