<svg width="17" height="20" xmlns="http://www.w3.org/2000/svg"><path d="M13.362 6.638v8.35c0 .502-.334.836-.836.836h-.836v2.924c0 .669-.583 1.252-1.251 1.252-.67 0-1.252-.583-1.252-1.252v-2.924H7.515v2.924c0 .669-.583 1.252-1.252 1.252s-1.252-.583-1.252-1.252v-2.924h-.836c-.501 0-.836-.334-.836-.835v-8.35h10.023Zm2.088 0c.669 0 1.252.586 1.252 1.251v5.848c0 .668-.583 1.252-1.252 1.252s-1.252-.584-1.252-1.252V7.889c0-.665.583-1.25 1.252-1.25Zm-14.198 0c.669 0 1.252.586 1.252 1.251v5.848c0 .668-.583 1.252-1.252 1.252S0 14.405 0 13.737V7.889c0-.665.583-1.25 1.252-1.25ZM11.776.126a.4.4 0 0 1 .583 0 .401.401 0 0 1 0 .583l-1.085 1.084c.35.234.667.52.942.846.66.782 1.081 1.8 1.139 2.902l.002.034c.003.075.005.15.005.227H3.34c0-.076.002-.152.006-.227l.002-.034a4.908 4.908 0 0 1 1.138-2.902 4.52 4.52 0 0 1 .942-.846L4.343.71a.4.4 0 0 1 0-.583.4.4 0 0 1 .583 0l1.12 1.118.053.051c.664-.333 1.41-.499 2.24-.5h.024c.83.001 1.575.167 2.24.5l.052-.051ZM6.262 3.09a.626.626 0 1 0 0 1.252.626.626 0 0 0 0-1.252Zm4.178 0a.626.626 0 1 0 0 1.252.626.626 0 0 0 0-1.252Z" fill="#191826"/></svg>