    <svg class="pad" xmlns="http://www.w3.org/2000/svg" viewBox="0 0 640 640">
      <style>
        .pad {
          padding: 32px;
          width: 100%;
        }
        .red {
          fill: #f33;
        }
        .green {
          fill: #0f6;
        }
        .blue {
          fill: #06f;
        }
        .cyan {
          fill: #0ff;
        }
        .magenta {
          fill: #f0f;
        }
        .yellow {
          fill: #fd6;
        }
        .black {
          fill: #000;
        }
        .gray {
          fill: #333;
        }
        .white {
          fill: #fff;
        }
      </style>
      <g class="pad-body">
        <rect x="32" y="32" width="576" height="576" rx="8" fill="#000" />
      </g>
      <g class="pad-state" transform="translate(64 64)">
        <circle id="state" cx="480" cy="32" r="6" fill="#f33" />
      </g>
      <g class="pad-nav-row" transform="translate(64 64)">
        <circle class="green" cx="32" cy="32" r="24" />
        <circle class="green" cx="88" cy="32" r="24" />
        <circle class="green" cx="144" cy="32" r="24" />
        <circle class="green" cx="200" cy="32" r="24" />
        <circle class="yellow" cx="256" cy="32" r="24" fill="#999" />
        <circle cx="312" cy="32" r="24" fill="#999" />
        <circle cx="368" cy="32" r="24" fill="#999" />
        <circle cx="424" cy="32" r="24" fill="#999" />
      </g>
      <g class="pad-option-col" transform="translate(64 64)">
        <circle cx="480" cy="88" r="24" fill="#999" />
        <circle cx="480" cy="144" r="24" fill="#999" />
        <circle cx="480" cy="200" r="24" fill="#999" />
        <circle cx="480" cy="256" r="24" fill="#999" />
        <circle cx="480" cy="312" r="24" fill="#999" />
        <circle cx="480" cy="368" r="24" fill="#999" />
        <circle cx="480" cy="424" r="24" fill="#999" />
        <circle cx="480" cy="480" r="24" fill="#999" />
      </g>
      <g id="pad-button" class="pad-function-row" transform="translate(64 64)">
        <rect x="8" y="64" width="48" height="48" rx="8" fill="#999" />
        <rect x="64" y="64" width="48" height="48" rx="8" fill="#999" />
        <rect x="120" y="64" width="48" height="48" rx="8" fill="#999" />
        <rect x="176" y="64" width="48" height="48" rx="8" fill="#999" />
        <rect x="232" y="64" width="48" height="48" rx="8" fill="#999" />
        <rect x="288" y="64" width="48" height="48" rx="8" fill="#999" />
        <rect x="344" y="64" width="48" height="48" rx="8" fill="#999" />
        <rect x="400" y="64" width="48" height="48" rx="8" fill="#999" />
        <rect x="8" y="120" width="48" height="48" rx="8" fill="#999" />
        <rect x="64" y="120" width="48" height="48" rx="8" fill="#999" />
        <rect x="120" y="120" width="48" height="48" rx="8" fill="#999" />
        <rect x="176" y="120" width="48" height="48" rx="8" fill="#999" />
        <rect x="232" y="120" width="48" height="48" rx="8" fill="#999" />
        <rect x="288" y="120" width="48" height="48" rx="8" fill="#999" />
        <rect x="344" y="120" width="48" height="48" rx="8" fill="#999" />
        <rect x="400" y="120" width="48" height="48" rx="8" fill="#999" />
        <rect x="8" y="176" width="48" height="48" rx="8" fill="#999" />
        <rect x="64" y="176" width="48" height="48" rx="8" fill="#999" />
        <rect x="120" y="176" width="48" height="48" rx="8" fill="#999" />
        <rect x="176" y="176" width="48" height="48" rx="8" fill="#999" />
        <rect x="232" y="176" width="48" height="48" rx="8" fill="#999" />
        <rect x="288" y="176" width="48" height="48" rx="8" fill="#999" />
        <rect x="344" y="176" width="48" height="48" rx="8" fill="#999" />
        <rect x="400" y="176" width="48" height="48" rx="8" fill="#999" />
        <rect x="8" y="232" width="48" height="48" rx="8" fill="#999" />
        <rect x="64" y="232" width="48" height="48" rx="8" fill="#999" />
        <rect x="120" y="232" width="48" height="48" rx="8" fill="#999" />
        <rect x="176" y="232" width="48" height="48" rx="8" fill="#999" />
        <rect x="232" y="232" width="48" height="48" rx="8" fill="#999" />
        <rect x="288" y="232" width="48" height="48" rx="8" fill="#999" />
        <rect x="344" y="232" width="48" height="48" rx="8" fill="#999" />
        <rect x="400" y="232" width="48" height="48" rx="8" fill="#999" />
        <rect x="8" y="288" width="48" height="48" rx="8" fill="#999" />
        <rect x="64" y="288" width="48" height="48" rx="8" fill="#999" />
        <rect x="120" y="288" width="48" height="48" rx="8" fill="#999" />
        <rect x="176" y="288" width="48" height="48" rx="8" fill="#999" />
        <rect x="232" y="288" width="48" height="48" rx="8" fill="#999" />
        <rect x="288" y="288" width="48" height="48" rx="8" fill="#999" />
        <rect x="344" y="288" width="48" height="48" rx="8" fill="#999" />
        <rect x="400" y="288" width="48" height="48" rx="8" fill="#999" />
        <rect x="8" y="344" width="48" height="48" rx="8" fill="#999" />
        <rect x="64" y="344" width="48" height="48" rx="8" fill="#999" />
        <rect x="120" y="344" width="48" height="48" rx="8" fill="#999" />
        <rect x="176" y="344" width="48" height="48" rx="8" fill="#999" />
        <rect class="green" x="232" y="344" width="48" height="48" rx="8" />
        <rect x="288" y="344" width="48" height="48" rx="8" fill="#999" />
        <rect x="344" y="344" width="48" height="48" rx="8" fill="#999" />
        <rect x="400" y="344" width="48" height="48" rx="8" fill="#999" />
        <rect x="8" y="400" width="48" height="48" rx="8" fill="#999" />
        <rect x="64" y="400" width="48" height="48" rx="8" fill="#999" />
        <rect class="green" x="120" y="400" width="48" height="48" rx="8" />
        <rect x="176" y="400" width="48" height="48" rx="8" fill="#999" />
        <rect x="232" y="400" width="48" height="48" rx="8" fill="#999" />
        <rect x="288" y="400" width="48" height="48" rx="8" fill="#999" />
        <rect x="344" y="400" width="48" height="48" rx="8" fill="#999" />
        <rect x="400" y="400" width="48" height="48" rx="8" fill="#999" />
        <rect class="green" x="8" y="456" width="48" height="48" rx="8" />
        <rect x="64" y="456" width="48" height="48" rx="8" fill="#999" />
        <rect x="120" y="456" width="48" height="48" rx="8" fill="#999" />
        <rect class="green" x="176" y="456" width="48" height="48" rx="8" />
        <rect x="232" y="456" width="48" height="48" rx="8" fill="#999" />
        <rect x="288" y="456" width="48" height="48" rx="8" fill="#999" />
        <rect x="344" y="456" width="48" height="48" rx="8" fill="#999" />
        <rect x="400" y="456" width="48" height="48" rx="8" fill="#999" />
      </g>
    </svg>