<svg width="54" height="50" viewBox="0 0 54 50" fill="none" xmlns="http://www.w3.org/2000/svg">
<path d="M16.36 32V31.775L23.47 18.725H20.086C19.264 18.725 18.628 18.827 18.178 19.031C17.734 19.235 17.422 19.547 17.242 19.967C17.062 20.387 16.972 20.918 16.972 21.56H16.756V18.5H25.36V18.725L18.25 31.775H22.165C22.987 31.775 23.623 31.667 24.073 31.451C24.523 31.235 24.835 30.893 25.009 30.425C25.183 29.957 25.27 29.342 25.27 28.58H25.495V32H16.36ZM26.6457 32V31.775H32.0367C32.5527 31.775 33.0297 31.628 33.4677 31.334C33.9057 31.04 34.2567 30.626 34.5207 30.092C34.7907 29.558 34.9257 28.934 34.9257 28.22C34.9257 27.506 34.7907 26.927 34.5207 26.483C34.2567 26.033 33.9057 25.703 33.4677 25.493C33.0297 25.283 32.5557 25.178 32.0457 25.178H29.8857V25.034H32.2257C33.0717 25.034 33.8487 25.139 34.5567 25.349C35.2647 25.553 35.8317 25.889 36.2577 26.357C36.6837 26.819 36.8967 27.44 36.8967 28.22C36.8967 29.57 36.4797 30.539 35.6457 31.127C34.8177 31.709 33.6777 32 32.2257 32H26.6457ZM28.2567 31.91V18.59H29.9757V31.91H28.2567ZM29.8857 25.106V24.953H31.8657C32.3217 24.953 32.7537 24.857 33.1617 24.665C33.5757 24.473 33.9117 24.164 34.1697 23.738C34.4337 23.306 34.5657 22.733 34.5657 22.019C34.5657 21.305 34.4337 20.705 34.1697 20.219C33.9117 19.727 33.5757 19.355 33.1617 19.103C32.7537 18.851 32.3217 18.725 31.8657 18.725H26.6457V18.5H31.8657C33.2277 18.5 34.3167 18.764 35.1327 19.292C35.9547 19.814 36.3657 20.66 36.3657 21.83C36.3657 23 35.9787 23.84 35.2047 24.35C34.4307 24.854 33.3177 25.106 31.8657 25.106H29.8857Z" fill="black"/>
</svg>
