<?xml version="1.0" encoding="UTF-8"?>
<!DOCTYPE svg PUBLIC "-//W3C//DTD SVG 1.1//EN" "http://www.w3.org/Graphics/SVG/1.1/DTD/svg11.dtd">
<!-- Creator: CorelDRAW 2020 (64 Bit) -->
<svg xmlns="http://www.w3.org/2000/svg" xml:space="preserve" width="85mm" height="85mm" version="1.1" style="shape-rendering:geometricPrecision; text-rendering:geometricPrecision; image-rendering:optimizeQuality; fill-rule:evenodd; clip-rule:evenodd"
viewBox="0 0 3895.45 3895.45"
 xmlns:xlink="http://www.w3.org/1999/xlink"
 xmlns:xodm="http://www.corel.com/coreldraw/odm/2003">
 <defs>
  <style type="text/css">
   <![CDATA[
    .fil0 {fill:url(#id0)}
   ]]>
  </style>
  <linearGradient id="id0" gradientUnits="userSpaceOnUse" x1="-0" y1="1947.73" x2="3895.45" y2="1947.73">
   <stop offset="0" style="stop-opacity:1; stop-color:#39C4C4"/>
   <stop offset="1" style="stop-opacity:1; stop-color:#4D3131"/>
  </linearGradient>
 </defs>
 <g id="Camada_x0020_1">
  <metadata id="CorelCorpID_0Corel-Layer"/>
  <path class="fil0" d="M1947.73 0c1075.7,0 1947.73,872.03 1947.73,1947.73 0,1075.7 -872.03,1947.73 -1947.73,1947.73 -1075.7,0 -1947.73,-872.03 -1947.73,-1947.73 0,-1075.7 872.03,-1947.73 1947.73,-1947.73zm39.72 1590.19l0 665.89 -208.09 0 0 953.44 -749.13 0 0 -2523.59 749.13 0 0 904.25 208.09 0zm877.77 -904.25l0 2523.59 -749.13 0 0 -2523.59 749.13 0z"/>
 </g>
</svg>
