<svg width="112" height="29" xmlns="http://www.w3.org/2000/svg"><g fill="#13183F"><path d="M9.684 28.432c-2.16 0-4.038-.51-5.634-1.53S1.368 24.508.792 22.78l3.96-1.872c.504 1.056 1.188 1.884 2.052 2.484.864.6 1.824.9 2.88.9.768 0 1.356-.156 1.764-.468.408-.312.612-.744.612-1.296 0-.288-.072-.534-.216-.738-.144-.204-.36-.39-.648-.558a4.593 4.593 0 0 0-1.08-.432l-3.348-.936C5.16 19.408 3.924 18.67 3.06 17.65c-.864-1.02-1.296-2.226-1.296-3.618 0-1.224.312-2.292.936-3.204.624-.912 1.5-1.626 2.628-2.142 1.128-.516 2.424-.774 3.888-.774 1.92 0 3.606.45 5.058 1.35 1.452.9 2.478 2.166 3.078 3.798l-3.996 1.872c-.288-.816-.81-1.47-1.566-1.962s-1.614-.738-2.574-.738c-.696 0-1.242.144-1.638.432-.396.288-.594.684-.594 1.188 0 .264.072.504.216.72.144.216.378.408.702.576.324.168.726.324 1.206.468l3.132.936c1.632.48 2.88 1.206 3.744 2.178.864.972 1.296 2.166 1.296 3.582 0 1.224-.318 2.292-.954 3.204-.636.912-1.518 1.626-2.646 2.142s-2.46.774-3.996.774ZM20.52 28V.748h5.4v17.46l-2.016-.648 8.676-9.216h6.66l-7.128 7.92L39.204 28h-6.12l-5.94-9.972 3.132-.792-6.012 6.552 1.656-3.132V28zM41.616 28V8.344h5.4V28h-5.4Zm0-21.42v-5.4h5.4v5.4h-5.4ZM50.976 28V.748h5.4V28zM60.336 28V.748h5.4V28zM79.164 28.432c-2.088 0-3.9-.462-5.436-1.386a9.578 9.578 0 0 1-3.564-3.726c-.84-1.56-1.26-3.288-1.26-5.184 0-1.968.438-3.72 1.314-5.256a9.821 9.821 0 0 1 3.546-3.636c1.488-.888 3.168-1.332 5.04-1.332 1.56 0 2.94.246 4.14.738 1.2.492 2.214 1.182 3.042 2.07a9.115 9.115 0 0 1 1.89 3.078c.432 1.164.648 2.43.648 3.798 0 .384-.018.762-.054 1.134-.036.372-.102.69-.198.954H73.548v-3.96h11.664l-2.556 1.872c.24-1.032.228-1.95-.036-2.754s-.726-1.44-1.386-1.908c-.66-.468-1.47-.702-2.43-.702-.936 0-1.74.228-2.412.684-.672.456-1.176 1.128-1.512 2.016-.336.888-.468 1.968-.396 3.24-.096 1.104.036 2.076.396 2.916.36.84.912 1.494 1.656 1.962.744.468 1.644.702 2.7.702.96 0 1.782-.192 2.466-.576a4.147 4.147 0 0 0 1.602-1.584l4.32 2.052c-.384.96-.99 1.8-1.818 2.52-.828.72-1.806 1.278-2.934 1.674-1.128.396-2.364.594-3.708.594Zm21.78 0c-1.92 0-3.636-.456-5.148-1.368a9.932 9.932 0 0 1-3.582-3.708c-.876-1.56-1.314-3.288-1.314-5.184 0-1.92.444-3.654 1.332-5.202a10.112 10.112 0 0 1 3.6-3.69c1.512-.912 3.204-1.368 5.076-1.368 1.44 0 2.718.27 3.834.81s1.998 1.302 2.646 2.286l-.828 1.08V.748h5.4V28h-5.04v-3.6l.504 1.116c-.672.96-1.584 1.686-2.736 2.178-1.152.492-2.4.738-3.744.738Zm.648-4.86c.984 0 1.848-.228 2.592-.684a4.715 4.715 0 0 0 1.746-1.908c.42-.816.63-1.752.63-2.808 0-1.056-.21-1.992-.63-2.808a4.715 4.715 0 0 0-1.746-1.908c-.744-.456-1.608-.684-2.592-.684s-1.866.234-2.646.702a4.877 4.877 0 0 0-1.818 1.908c-.432.804-.648 1.734-.648 2.79s.216 1.992.648 2.808a4.721 4.721 0 0 0 1.818 1.908c.78.456 1.662.684 2.646.684Z"/></g></svg>