<svg
  width="101"
  height="18"
  viewBox="0 0 101 18"
  fill="none"
  xmlns="http://www.w3.org/2000/svg"
>
  <path
    d="M10.7891 11.0273H4.03906V18H0.523438V0.9375H11.6328V3.78516H4.03906V8.19141H10.7891V11.0273ZM17.4102 18H13.8945V0.9375H17.4102V18ZM34.5547 18H31.0391L24.1953 6.77344V18H20.6797V0.9375H24.1953L31.0508 12.1875V0.9375H34.5547V18ZM47.8906 10.6055H41.1406V15.1758H49.0625V18H37.625V0.9375H49.0391V3.78516H41.1406V7.85156H47.8906V10.6055ZM66.7344 14.4844H60.5703L59.3984 18H55.6602L62.0117 0.9375H65.2695L71.6562 18H67.918L66.7344 14.4844ZM61.5195 11.6367H65.7852L63.6406 5.25L61.5195 11.6367ZM79.5664 11.7539H76.7656V18H73.25V0.9375H79.5898C81.6055 0.9375 83.1602 1.38672 84.2539 2.28516C85.3477 3.18359 85.8945 4.45312 85.8945 6.09375C85.8945 7.25781 85.6406 8.23047 85.1328 9.01172C84.6328 9.78516 83.8711 10.4023 82.8477 10.8633L86.5391 17.8359V18H82.7656L79.5664 11.7539ZM76.7656 8.90625H79.6016C80.4844 8.90625 81.168 8.68359 81.6523 8.23828C82.1367 7.78516 82.3789 7.16406 82.3789 6.375C82.3789 5.57031 82.1484 4.9375 81.6875 4.47656C81.2344 4.01562 80.5352 3.78516 79.5898 3.78516H76.7656V8.90625ZM100.836 3.78516H95.6094V18H92.0938V3.78516H86.9375V0.9375H100.836V3.78516Z"
    fill="black"
  />
</svg>