<?xml version="1.0" encoding="UTF-8"?>
<svg width="149px" height="17px" viewBox="0 0 149 17" version="1.1" xmlns="http://www.w3.org/2000/svg" xmlns:xlink="http://www.w3.org/1999/xlink">
    <!-- Generator: Sketch 54.1 (76490) - https://sketchapp.com -->
    <title>LOGOBAKERY</title>
    <desc>Created with Sketch.</desc>
    <g id="Page-1" stroke="none" stroke-width="1" fill="none" fill-rule="evenodd">
        <g id="Navbar-1" transform="translate(-112.000000, -30.000000)" fill="#ECF0F1" fill-rule="nonzero">
            <g id="Header" transform="translate(112.000000, 20.000000)">
                <path d="M1.046,26 C0.8993326,26 0.77100055,25.9450005 0.661,25.835 C0.55099945,25.7249994 0.496,25.5966674 0.496,25.45 L0.496,11.15 C0.496,10.9886659 0.55099945,10.8566672 0.661,10.754 C0.77100055,10.6513328 0.8993326,10.6 1.046,10.6 L4.126,10.6 C4.28733414,10.6 4.41933282,10.6513328 4.522,10.754 C4.62466718,10.8566672 4.676,10.9886659 4.676,11.15 L4.676,22.546 L11.276,22.546 C11.4373341,22.546 11.5729994,22.6009994 11.683,22.711 C11.7930006,22.8210005 11.848,22.9566659 11.848,23.118 L11.848,25.45 C11.848,25.6113341 11.7930006,25.7433328 11.683,25.846 C11.5729994,25.9486672 11.4373341,26 11.276,26 L1.046,26 Z M19.9,26.22 C17.8173229,26.22 16.1746727,25.7140051 14.972,24.702 C13.7693273,23.6899949 13.1313337,22.2013432 13.058,20.236 C13.0433333,19.8253313 13.036,19.1946709 13.036,18.344 C13.036,17.4933291 13.0433333,16.8553355 13.058,16.43 C13.116667,14.4939903 13.7583272,13.0016719 14.983,11.953 C16.2076728,10.9043281 17.8466564,10.38 19.9,10.38 C21.9386769,10.38 23.5703272,10.9043281 24.795,11.953 C26.0196728,13.0016719 26.661333,14.4939903 26.72,16.43 C26.7493335,17.2806709 26.764,17.9186645 26.764,18.344 C26.764,18.7840022 26.7493335,19.4146626 26.72,20.236 C26.6466663,22.2013432 26.0123393,23.6899949 24.817,24.702 C23.6216607,25.7140051 21.9826771,26.22 19.9,26.22 Z M19.9,22.92 C20.6626705,22.92 21.2713311,22.6890023 21.726,22.227 C22.1806689,21.7649977 22.4226665,21.0573381 22.452,20.104 C22.4813335,19.2533291 22.496,18.6446685 22.496,18.278 C22.496,17.9113315 22.4813335,17.3173374 22.452,16.496 C22.4226665,15.5426619 22.1806689,14.8350023 21.726,14.373 C21.2713311,13.9109977 20.6626705,13.68 19.9,13.68 C19.1226628,13.68 18.5066689,13.9109977 18.052,14.373 C17.5973311,14.8350023 17.3553335,15.5426619 17.326,16.496 C17.3113333,16.9066687 17.304,17.5006628 17.304,18.278 C17.304,19.070004 17.3113333,19.6786645 17.326,20.104 C17.3553335,21.0573381 17.5973311,21.7649977 18.052,22.227 C18.5066689,22.6890023 19.1226628,22.92 19.9,22.92 Z M35.696,26.22 C33.5693227,26.22 31.9046727,25.7030052 30.702,24.669 C29.4993273,23.6349948 28.8613337,22.1573429 28.788,20.236 C28.7733333,19.8253313 28.766,19.1580046 28.766,18.234 C28.766,17.3099954 28.7733333,16.6353355 28.788,16.21 C28.846667,14.3619908 29.4883272,12.9283384 30.713,11.909 C31.9376728,10.8896616 33.5986562,10.38 35.696,10.38 C37.104007,10.38 38.3323281,10.6073311 39.381,11.062 C40.4296719,11.5166689 41.2289972,12.0996631 41.779,12.811 C42.3290028,13.5223369 42.6186665,14.2519963 42.648,15 C42.648,15.1320007 42.6003338,15.2456662 42.505,15.341 C42.4096662,15.4363338 42.2960007,15.484 42.164,15.484 L38.754,15.484 C38.6073326,15.484 38.4936671,15.4583336 38.413,15.407 C38.3323329,15.3556664 38.2553337,15.2786672 38.182,15.176 C38.0059991,14.7653313 37.7236686,14.4133348 37.335,14.12 C36.9463314,13.8266652 36.4000035,13.68 35.696,13.68 C33.9946582,13.68 33.114667,14.5599912 33.056,16.32 C33.0413333,16.7306687 33.034,17.3613291 33.034,18.212 C33.034,19.0626709 33.0413333,19.7006645 33.056,20.126 C33.114667,21.988676 34.0093247,22.92 35.74,22.92 C36.5906709,22.92 37.2653308,22.7073355 37.764,22.282 C38.2626692,21.8566645 38.512,21.2113377 38.512,20.346 L38.512,19.95 L36.554,19.95 C36.3926659,19.95 36.2570006,19.8950005 36.147,19.785 C36.0369995,19.6749994 35.982,19.5393341 35.982,19.378 L35.982,17.662 C35.982,17.5006659 36.0369995,17.3650005 36.147,17.255 C36.2570006,17.1449994 36.3926659,17.09 36.554,17.09 L42.142,17.09 C42.3033341,17.09 42.4389995,17.1449994 42.549,17.255 C42.6590006,17.3650005 42.714,17.5006659 42.714,17.662 L42.714,20.214 C42.714,21.4606729 42.4243362,22.5349955 41.845,23.437 C41.2656638,24.3390045 40.4480053,25.0283309 39.392,25.505 C38.3359947,25.981669 37.104007,26.22 35.696,26.22 Z M51.536,26.22 C49.4533229,26.22 47.8106727,25.7140051 46.608,24.702 C45.4053273,23.6899949 44.7673337,22.2013432 44.694,20.236 C44.6793333,19.8253313 44.672,19.1946709 44.672,18.344 C44.672,17.4933291 44.6793333,16.8553355 44.694,16.43 C44.752667,14.4939903 45.3943272,13.0016719 46.619,11.953 C47.8436728,10.9043281 49.4826564,10.38 51.536,10.38 C53.5746769,10.38 55.2063272,10.9043281 56.431,11.953 C57.6556728,13.0016719 58.297333,14.4939903 58.356,16.43 C58.3853335,17.2806709 58.4,17.9186645 58.4,18.344 C58.4,18.7840022 58.3853335,19.4146626 58.356,20.236 C58.2826663,22.2013432 57.6483393,23.6899949 56.453,24.702 C55.2576607,25.7140051 53.6186771,26.22 51.536,26.22 Z M51.536,22.92 C52.2986705,22.92 52.9073311,22.6890023 53.362,22.227 C53.8166689,21.7649977 54.0586665,21.0573381 54.088,20.104 C54.1173335,19.2533291 54.132,18.6446685 54.132,18.278 C54.132,17.9113315 54.1173335,17.3173374 54.088,16.496 C54.0586665,15.5426619 53.8166689,14.8350023 53.362,14.373 C52.9073311,13.9109977 52.2986705,13.68 51.536,13.68 C50.7586628,13.68 50.1426689,13.9109977 49.688,14.373 C49.2333311,14.8350023 48.9913335,15.5426619 48.962,16.496 C48.9473333,16.9066687 48.94,17.5006628 48.94,18.278 C48.94,19.070004 48.9473333,19.6786645 48.962,20.104 C48.9913335,21.0573381 49.2333311,21.7649977 49.688,22.227 C50.1426689,22.6890023 50.7586628,22.92 51.536,22.92 Z M61.436,26 C61.2893326,26 61.1610005,25.9450005 61.051,25.835 C60.9409994,25.7249994 60.886,25.5966674 60.886,25.45 L60.886,11.172 C60.886,11.0106659 60.9373328,10.8750005 61.04,10.765 C61.1426672,10.6549994 61.2746659,10.6 61.436,10.6 L68.234,10.6 C70.096676,10.6 71.4826621,10.9813295 72.392,11.744 C73.3013379,12.5066705 73.756,13.591993 73.756,15 C73.756,15.7040035 73.5690019,16.3126641 73.195,16.826 C72.8209981,17.3393359 72.4066689,17.7133322 71.952,17.948 C72.5533363,18.2120013 73.0593313,18.6483303 73.47,19.257 C73.8806687,19.8656697 74.086,20.5513295 74.086,21.314 C74.086,22.7953407 73.5983382,23.9466626 72.623,24.768 C71.6476618,25.5893374 70.2506758,26 68.432,26 L61.436,26 Z M67.772,16.694 C68.3146694,16.694 68.7326652,16.5473348 69.026,16.254 C69.3193348,15.9606652 69.466,15.5793357 69.466,15.11 C69.466,14.6553311 69.3230014,14.2850014 69.037,13.999 C68.7509986,13.7129986 68.3293361,13.57 67.772,13.57 L65.022,13.57 L65.022,16.694 L67.772,16.694 Z M67.97,23.03 C68.5420029,23.03 68.9856651,22.8650016 69.301,22.535 C69.6163349,22.2049983 69.774,21.7980024 69.774,21.314 C69.774,20.8153308 69.6126683,20.4010016 69.29,20.071 C68.9673317,19.7409983 68.5273361,19.576 67.97,19.576 L65.022,19.576 L65.022,23.03 L67.97,23.03 Z M75.362,26 C75.2446661,26 75.1383338,25.9523338 75.043,25.857 C74.9476662,25.7616662 74.9,25.6553339 74.9,25.538 C74.9,25.4499996 74.9073333,25.3840002 74.922,25.34 L80.048,11.238 C80.1946674,10.8126645 80.4879978,10.6 80.928,10.6 L84.36,10.6 C84.8000022,10.6 85.0933326,10.8126645 85.24,11.238 L90.366,25.34 C90.3806667,25.3840002 90.388,25.4499996 90.388,25.538 C90.388,25.6553339 90.3403338,25.7616662 90.245,25.857 C90.1496662,25.9523338 90.0433339,26 89.926,26 L87.066,26 C86.7139982,26 86.4646674,25.8386683 86.318,25.516 L85.526,23.382 L79.762,23.382 L78.97,25.516 C78.8233326,25.8386683 78.5740018,26 78.222,26 L75.362,26 Z M80.686,20.082 L84.602,20.082 L82.644,14.472 L80.686,20.082 Z M92.61,26 C92.4633326,26 92.3350005,25.9450005 92.225,25.835 C92.1149994,25.7249994 92.06,25.5966674 92.06,25.45 L92.06,11.172 C92.06,11.0106659 92.1113328,10.8750005 92.214,10.765 C92.3166672,10.6549994 92.4486659,10.6 92.61,10.6 L95.558,10.6 C95.7193341,10.6 95.8513328,10.6549994 95.954,10.765 C96.0566672,10.8750005 96.108,11.0106659 96.108,11.172 L96.108,15.968 L100.002,11.04 C100.163334,10.7466652 100.449331,10.6 100.86,10.6 L104.226,10.6 C104.343334,10.6 104.449666,10.6476662 104.545,10.743 C104.640334,10.8383338 104.688,10.9446661 104.688,11.062 C104.688,11.1793339 104.658667,11.267333 104.6,11.326 L99.474,17.97 L105.018,25.274 C105.076667,25.332667 105.106,25.4206661 105.106,25.538 C105.106,25.6553339 105.058334,25.7616662 104.963,25.857 C104.867666,25.9523338 104.754001,26 104.622,26 L101.168,26 C100.933332,26 100.742667,25.9523338 100.596,25.857 C100.449333,25.7616662 100.346667,25.6626672 100.288,25.56 L96.108,20.192 L96.108,25.45 C96.108,25.5966674 96.0566672,25.7249994 95.954,25.835 C95.8513328,25.9450005 95.7193341,26 95.558,26 L92.61,26 Z M107.306,26 C107.159333,26 107.031001,25.9450005 106.921,25.835 C106.810999,25.7249994 106.756,25.5966674 106.756,25.45 L106.756,11.172 C106.756,11.0106659 106.807333,10.8750005 106.91,10.765 C107.012667,10.6549994 107.144666,10.6 107.306,10.6 L117.69,10.6 C117.851334,10.6 117.986999,10.6549994 118.097,10.765 C118.207001,10.8750005 118.262,11.0106659 118.262,11.172 L118.262,13.35 C118.262,13.5113341 118.207001,13.6433328 118.097,13.746 C117.986999,13.8486672 117.851334,13.9 117.69,13.9 L110.738,13.9 L110.738,16.694 L117.206,16.694 C117.367334,16.694 117.502999,16.7489994 117.613,16.859 C117.723001,16.9690005 117.778,17.1046659 117.778,17.266 L117.778,19.268 C117.778,19.4293341 117.723001,19.5649994 117.613,19.675 C117.502999,19.7850005 117.367334,19.84 117.206,19.84 L110.738,19.84 L110.738,22.7 L117.866,22.7 C118.027334,22.7 118.162999,22.7549994 118.273,22.865 C118.383001,22.9750005 118.438,23.1106659 118.438,23.272 L118.438,25.45 C118.438,25.6113341 118.383001,25.7433328 118.273,25.846 C118.162999,25.9486672 118.027334,26 117.866,26 L107.306,26 Z M121.43,26 C121.283333,26 121.155001,25.9450005 121.045,25.835 C120.934999,25.7249994 120.88,25.5966674 120.88,25.45 L120.88,11.172 C120.88,11.0106659 120.931333,10.8750005 121.034,10.765 C121.136667,10.6549994 121.268666,10.6 121.43,10.6 L127.48,10.6 C129.41601,10.6 130.930328,11.0399956 132.023,11.92 C133.115672,12.8000044 133.662,14.0393253 133.662,15.638 C133.662,16.6646718 133.423669,17.5373297 132.947,18.256 C132.470331,18.9746703 131.814004,19.531998 130.978,19.928 L133.948,25.296 C133.992,25.3840004 134.014,25.4646663 134.014,25.538 C134.014,25.6553339 133.97,25.7616662 133.882,25.857 C133.794,25.9523338 133.684001,26 133.552,26 L130.45,26 C130.024665,26 129.724001,25.802002 129.548,25.406 L127.128,20.632 L125.016,20.632 L125.016,25.45 C125.016,25.6113341 124.961001,25.7433328 124.851,25.846 C124.740999,25.9486672 124.605334,26 124.444,26 L121.43,26 Z M127.458,17.398 C128.08867,17.398 128.568998,17.2403349 128.899,16.925 C129.229002,16.6096651 129.394,16.1733361 129.394,15.616 C129.394,15.0586639 129.229002,14.611335 128.899,14.274 C128.568998,13.936665 128.08867,13.768 127.458,13.768 L125.016,13.768 L125.016,17.398 L127.458,17.398 Z M140.064,26 C139.917333,26 139.789001,25.9450005 139.679,25.835 C139.568999,25.7249994 139.514,25.5966674 139.514,25.45 L139.514,20.764 L134.432,11.304 C134.388,11.2306663 134.366,11.1500004 134.366,11.062 C134.366,10.9446661 134.413666,10.8383338 134.509,10.743 C134.604334,10.6476662 134.710666,10.6 134.828,10.6 L137.732,10.6 C137.937334,10.6 138.105999,10.6513328 138.238,10.754 C138.370001,10.8566672 138.465333,10.9666661 138.524,11.084 L141.582,16.606 L144.64,11.084 C144.698667,10.9666661 144.793999,10.8566672 144.926,10.754 C145.058001,10.6513328 145.226666,10.6 145.432,10.6 L148.336,10.6 C148.453334,10.6 148.559666,10.6476662 148.655,10.743 C148.750334,10.8383338 148.798,10.9446661 148.798,11.062 C148.798,11.1500004 148.776,11.2306663 148.732,11.304 L143.65,20.764 L143.65,25.45 C143.65,25.6113341 143.595001,25.7433328 143.485,25.846 C143.374999,25.9486672 143.239334,26 143.078,26 L140.064,26 Z" id="LOGOBAKERY"></path>
            </g>
        </g>
    </g>
</svg>