<?xml version="1.0" encoding="UTF-8" standalone="no"?>
<!DOCTYPE svg PUBLIC "-//W3C//DTD SVG 1.1//EN" "http://www.w3.org/Graphics/SVG/1.1/DTD/svg11.dtd">
<svg version="1.1" xmlns="http://www.w3.org/2000/svg" xmlns:xlink="http://www.w3.org/1999/xlink" preserveAspectRatio="xMidYMid meet" viewBox="0 0 640 640" width="640" height="640"><defs><path d="M389.61 1119.32C389.61 1119.32 389.61 1119.32 389.61 1119.32C389.61 1119.53 389.61 1119.64 389.61 1119.66C389.61 1119.66 389.61 1119.66 389.61 1119.66C336.79 1119.66 307.45 1119.66 301.58 1119.66C301.58 1119.66 301.58 1119.66 301.58 1119.66C301.58 1119.46 301.58 1119.34 301.58 1119.32C301.58 1119.32 301.58 1119.32 301.58 1119.32C354.4 1119.32 383.74 1119.32 389.61 1119.32Z" id="b13J8TxY9H"></path><path d="M605.94 212.87C603.78 212.87 602.03 214.47 602.03 216.45C602.03 218.42 603.78 220.03 605.94 220.03C608.1 220.03 609.85 218.42 609.85 216.45C609.85 214.47 608.1 212.87 605.94 212.87Z" id="aEZWkMgWe"></path><path d="M603.02 212.73C603.53 212.38 604.14 212.14 604.78 212.05C602.62 212 600.82 213.56 600.77 215.53C600.71 217.51 602.41 219.15 604.56 219.21C604.8 219.21 605.03 219.2 605.26 219.17C604.08 219.14 602.97 218.62 602.25 217.75C600.95 216.17 601.29 213.93 603.02 212.73Z" id="fNYTksVYX"></path><path d="M601.89 218.6C595.55 218.6 590.42 223.31 590.42 229.11C590.42 234.92 595.55 239.63 601.89 239.63C608.23 239.63 613.37 234.92 613.37 229.11C613.37 223.31 608.23 218.6 601.89 218.6Z" id="a22e49mQCZ"></path><path d="M606.06 219.97C605.94 219.92 605.83 219.87 605.71 219.82C599.95 217.39 593.14 219.7 590.49 224.98C587.84 230.26 590.36 236.5 596.12 238.93C596.13 238.93 596.13 238.93 596.13 238.93C596.25 238.98 596.37 239.03 596.49 239.07C590.96 236.53 588.62 230.44 591.2 225.28C593.78 220.13 600.35 217.78 606.06 219.97Z" id="e2uQEGaQvM"></path><path d="M612.34 276.58L610.4 271.24L614.77 269.9L616.23 273.91L616.23 273.91L612.34 276.58Z" id="baygylKdO"></path><path d="M621.81 319.09L632.02 346.69L615.5 349.81L599.47 294.61L598.98 347.58L578.09 348.03L582.95 316.42L585.38 280.81L614.04 282.14L614.04 282.14L621.81 319.09Z" id="aDhMhZiEc"></path><path d="M589.27 346.69L589.27 353.81C588.97 356.22 588.81 357.55 588.78 357.82C588.78 357.82 587.81 361.38 593.64 360.49C599.47 359.6 596.55 355.59 596.55 355.59C596.42 355.36 595.77 354.17 594.61 352.03L593.64 346.25L589.27 346.69Z" id="f2C1gwNLp3"></path><path d="M625.77 346.18L627.17 353.19C627.93 355.51 628.35 356.79 628.44 357.05C628.44 357.05 630.09 360.39 624.18 360.48C624.18 360.48 620.35 356.15 620.35 356.15C620.43 355.89 620.84 354.62 621.56 352.32L621.38 346.47L625.77 346.18Z" id="f9UE6EC0t"></path><path d="M601.9 225.61C597.87 225.61 594.61 228.6 594.61 232.29C594.61 235.97 597.87 238.96 601.9 238.96C605.92 238.96 609.18 235.97 609.18 232.29C609.18 228.6 605.92 225.61 601.9 225.61Z" id="drJapvb00"></path><path d="M597.52 236.29C597.52 236.29 598.5 243.42 594.61 245.2C594.61 245.2 601.9 249.65 601.9 249.65C602.58 248.94 608.02 243.24 608.7 242.53C608.7 242.53 605.3 238.52 606.27 235.85C604.52 235.94 599.27 236.2 597.52 236.29Z" id="a4oOXxx6qS"></path><path d="M607.73 241.19C607.73 241.19 606.75 245.64 600.92 245.64C600.92 245.64 596.55 243.42 596.55 243.42C596.03 243.65 593.44 244.84 588.78 246.98L589.75 267.45C585.67 276.53 583.4 281.58 582.95 282.59C582.95 282.59 586.84 281.7 591.69 283.92C591.69 283.92 605.78 284.37 605.78 284.37C605.78 284.37 609.67 283.92 612.1 284.81C612.1 284.81 615.01 283.03 615.01 283.03C614.82 282.17 613.85 277.87 612.1 270.12L616.47 255.88L615.5 243.42C611.35 242.23 608.76 241.49 607.73 241.19Z" id="blvmeVbVv"></path><path d="M580.03 285.71C579.16 289.18 578.67 291.11 578.58 291.49C578.58 291.49 573.23 299.95 577.12 300.4C577.12 300.4 581.98 291.49 581.98 291.49C582.14 291.11 582.95 289.18 584.41 285.71L580.03 285.71Z" id="b49Omb3apU"></path><path d="M611.61 244.75L614 242.96C614.9 243.23 615.4 243.39 615.5 243.42C615.5 243.42 617.93 242.97 620.36 246.53C620.36 246.53 633.47 262.11 632.02 263.45C632.02 263.45 618.9 273.24 618.9 273.24C618.9 273.24 619.38 274.58 618.9 275.02C618.9 275.02 615.5 276.36 615.5 275.91C615.5 275.91 612.2 269.79 612.2 269.79C612.2 269.79 614.53 267.01 615.01 267.45C615.63 267.94 616.28 268.38 616.96 268.79C617.34 268.43 620.45 265.58 620.84 265.23C620.84 265.23 620.36 263.45 621.81 263.89C621.81 263.89 622.3 261.22 622.3 261.22C621.72 260.72 618.8 258.19 613.56 253.65L611.61 244.75Z" id="cuVIcOb3B"></path><path d="M591.21 246.98C590.42 246.62 589.99 246.43 589.9 246.39C589.9 246.39 586.84 246.98 585.86 248.76C585.86 248.76 582.46 268.79 582.46 268.79C582.27 269.99 580.72 279.61 580.52 280.81C580.52 280.81 579.06 280.81 579.06 282.14C579.06 282.14 577.12 287.04 578.58 287.04C578.58 287.04 585.86 287.04 586.84 286.15C586.84 286.15 589.75 281.7 589.27 281.25C589.27 281.25 587.81 280.81 587.81 280.81C588 279.98 588.97 275.82 590.72 268.34L591.21 246.98Z" id="d2e7lzktiZ"></path><path d="M595.17 232.74L597.05 232.74L599.44 230.39L599.12 232.74L607.42 232.74L606.91 230.39L607.94 232.74L609.26 232.74L609.26 225.3L595.17 225.3L595.17 225.3L595.17 232.74Z" id="a1LpyfsIQL"></path><path d="M610.17 230.37C611.33 230.37 612.27 231.23 612.27 232.29C612.27 232.29 612.27 232.29 612.27 232.29C612.27 232.31 612.27 232.48 612.27 232.5C612.27 233.56 611.33 234.42 610.17 234.42C610.17 234.42 610.17 234.42 610.17 234.42C610.11 234.42 609.78 234.42 609.19 234.42L609.19 230.37C609.78 230.37 610.11 230.37 610.17 230.37Z" id="cagnRtgjh"></path><path d="M609.84 229.7C610.33 229.7 610.73 230.06 610.73 230.52C610.73 230.52 610.73 230.52 610.73 230.52C610.73 230.89 610.73 233.89 610.73 234.27C610.73 234.72 610.33 235.08 609.84 235.08C609.84 235.08 609.84 235.08 609.84 235.08C609.78 235.08 609.48 235.08 608.94 235.08L608.94 229.7C609.48 229.7 609.78 229.7 609.84 229.7Z" id="d1Y1eFEIuN"></path><path d="M593.62 234.42C592.46 234.42 591.52 233.56 591.52 232.5C591.52 232.5 591.52 232.5 591.52 232.5C591.52 232.48 591.52 232.31 591.52 232.29C591.52 231.23 592.46 230.37 593.62 230.37C593.62 230.37 593.62 230.37 593.62 230.37C593.68 230.37 594.01 230.37 594.6 230.37L594.6 234.42C594.01 234.42 593.68 234.42 593.62 234.42Z" id="c1OdVkvBzU"></path><path d="M593.96 235.08C593.46 235.08 593.06 234.72 593.06 234.27C593.06 234.27 593.06 234.27 593.06 234.27C593.06 233.89 593.06 230.89 593.06 230.52C593.06 230.06 593.46 229.7 593.96 229.7C593.96 229.7 593.96 229.7 593.96 229.7C594.01 229.7 594.31 229.7 594.85 229.7L594.85 235.08C594.31 235.08 594.01 235.08 593.96 235.08Z" id="cxr7KuEWP"></path><path d="M609.59 230.65C609.59 226.42 606.17 222.98 601.96 222.98C597.76 222.98 594.34 226.42 594.34 230.65C594.27 230.65 593.75 230.65 593.68 230.65C593.68 226.09 597.4 222.38 601.96 222.38C606.53 222.38 610.24 226.09 610.24 230.65C610.11 230.65 609.65 230.65 609.59 230.65Z" id="d24YzqSq2"></path><path d="M578.02 289.92L577.97 289.95C577.37 289.09 577.03 288.61 576.97 288.51C576.65 288.05 575.98 287.92 575.48 288.21C575.48 288.21 575.48 288.21 575.48 288.21C575.15 288.4 572.48 289.95 572.15 290.15C571.64 290.44 571.49 291.05 571.81 291.51C571.81 291.51 571.81 291.51 571.81 291.51C572.36 292.3 576.74 298.63 577.29 299.42C577.61 299.88 578.27 300.02 578.78 299.72C578.78 299.72 578.78 299.72 578.78 299.72C579.11 299.53 581.78 297.98 582.11 297.79C582.61 297.49 582.76 296.88 582.44 296.42C582.19 296.06 580.94 294.25 578.68 290.98L578.73 290.95L578.02 289.92Z" id="b2SUKlYNIs"></path><path d="M582.25 296.53C582.48 296.87 582.37 297.33 582 297.55C581.66 297.74 578.98 299.3 578.65 299.5C578.27 299.71 577.77 299.61 577.54 299.27C576.99 298.48 572.61 292.16 572.07 291.37C571.83 291.03 571.94 290.57 572.32 290.35C572.36 290.33 572.68 290.14 572.72 290.11C572.76 290.31 572.96 290.43 573.17 290.4C573.22 290.39 573.26 290.37 573.3 290.35C573.5 290.24 575.02 289.35 575.21 289.24C575.39 289.13 575.45 288.92 575.33 288.75C575.31 288.72 575.27 288.68 575.23 288.66C575.27 288.63 575.62 288.43 575.67 288.4C576.04 288.18 576.54 288.29 576.78 288.63C577.87 290.21 581.7 295.74 582.25 296.53Z" id="bBQRFppTK"></path><path d="M512.41 217.56C512.41 217.56 512.41 217.56 512.41 217.56C512.41 254.18 512.41 274.52 512.41 278.59C512.41 278.59 512.41 278.59 512.41 278.59C456.25 278.59 425.05 278.59 418.81 278.59C418.81 278.59 418.81 278.59 418.81 278.59C418.81 241.97 418.81 221.63 418.81 217.56C418.81 217.56 418.81 217.56 418.81 217.56C474.97 217.56 506.17 217.56 512.41 217.56Z" id="eerLBleaX"></path><path d="M411 272.25L411 212.05L502.64 212.05L502.64 212.67L411.68 212.67L411.68 272.25L411.68 272.25L411 272.25Z" id="a2KRau1Jw2"></path><path d="M402.89 265.7L402.89 205.5L494.53 205.5L494.53 206.13L403.57 206.13L403.57 265.7L403.57 265.7L402.89 265.7Z" id="d59Komf1rD"></path><path d="M485.21 248.07C485.21 258.07 476.43 266.16 465.61 266.16C454.78 266.16 446.01 258.07 446.01 248.07C446.01 238.08 454.78 229.98 465.61 229.98C476.43 229.98 485.21 238.08 485.21 248.07Z" id="c3KwcXpgGI"></path><path d="M460.19 257.36L476.45 248.11L460.19 239.1L460.19 239.1L460.19 257.36Z" id="f17gYCWgo3"></path><path d="M502.64 503.79C502.66 506.76 500.04 509.18 496.8 509.2C471.1 509.2 265.52 509.2 239.82 509.2C236.58 509.18 233.97 506.76 233.98 503.79C233.98 503.79 233.98 503.79 233.98 503.79C233.98 487.7 233.98 359.03 233.98 342.94C233.97 339.97 236.58 337.55 239.82 337.54C265.52 337.54 471.1 337.54 496.8 337.54C500.04 337.55 502.66 339.97 502.64 342.94C502.64 342.94 502.64 342.94 502.64 342.94C502.64 342.94 502.64 342.94 502.64 342.94C502.64 428.73 502.64 482.34 502.64 503.79Z" id="i56y892i81"></path><path d="M500.02 500.46C500.02 503.35 497.47 505.69 494.31 505.69C494.31 505.69 494.31 505.69 494.31 505.69C469.21 505.69 268.41 505.69 243.31 505.69C240.15 505.69 237.6 503.35 237.6 500.46C237.6 484.91 237.6 360.51 237.6 344.96C237.6 342.07 240.15 339.73 243.31 339.73C243.31 339.73 243.31 339.73 243.31 339.73C268.41 339.73 469.22 339.73 494.32 339.73C497.47 339.73 500.02 342.07 500.02 344.96C500.02 376.06 500.02 469.36 500.02 500.46Z" id="d2QB10AiTY"></path><path d="M486.46 347.17C488.33 347.17 489.85 348.56 489.85 350.28C489.85 350.28 489.85 350.28 489.85 350.28C489.85 364.84 489.85 481.36 489.85 495.92C489.85 497.64 488.33 499.03 486.46 499.03C486.46 499.03 486.46 499.03 486.46 499.03C462.88 499.03 274.19 499.03 250.61 499.03C248.73 499.03 247.22 497.64 247.22 495.92C247.22 495.92 247.22 495.92 247.22 495.92C247.22 481.36 247.22 364.84 247.22 350.28C247.22 348.56 248.73 347.17 250.61 347.17C250.61 347.17 250.61 347.17 250.61 347.17C297.78 347.17 462.88 347.17 486.46 347.17Z" id="a2Z4Q4i410"></path><path d="M483.22 350.67C485.09 350.67 486.61 352.06 486.61 353.77C486.61 353.77 486.61 353.77 486.61 353.77C486.61 367.56 486.61 477.86 486.61 491.65C486.61 493.36 485.09 494.75 483.22 494.75C483.22 494.75 483.22 494.75 483.22 494.75C460.26 494.75 276.55 494.75 253.59 494.75C251.72 494.75 250.2 493.36 250.2 491.65C250.2 491.65 250.2 491.65 250.2 491.65C250.2 477.86 250.2 367.56 250.2 353.77C250.2 352.06 251.72 350.67 253.59 350.67C253.59 350.67 253.59 350.67 253.59 350.67C299.52 350.67 460.26 350.67 483.22 350.67Z" id="b29EwZU1O"></path><path d="M413.1 445.93C412.91 445.86 412.73 445.76 412.56 445.65C411.44 444.93 405.88 441.34 395.87 434.89C395.87 434.89 395.87 434.89 395.87 434.89C394.15 433.78 393.13 431.97 393.13 430.05C393.13 428.58 393.13 416.84 393.13 415.37C393.13 413.44 394.15 411.64 395.87 410.53C397.54 409.46 410.89 400.84 412.56 399.77C412.73 399.66 412.91 399.56 413.1 399.48C416.36 398.16 420.18 399.5 421.63 402.49C421.99 403.24 422.18 404.06 422.18 404.89C422.18 408.45 422.18 436.96 422.18 440.53C422.18 443.8 419.29 446.44 415.73 446.44C414.82 446.45 413.93 446.27 413.1 445.93Z" id="b9tIgGHnp"></path><path d="M331.83 449.33C322.34 449.33 314.64 443.7 314.63 436.76C314.63 433.95 314.63 411.47 314.63 408.66C314.64 401.72 322.34 396.09 331.83 396.08C336.5 396.08 373.83 396.08 378.5 396.08C387.93 396.09 395.57 401.68 395.58 408.57C395.58 411.39 395.58 433.94 395.58 436.76C395.57 443.7 387.87 449.33 378.38 449.33C369.07 449.33 336.49 449.33 331.83 449.33Z" id="cit3CcX8x"></path><path d="M461.29 460.51C453.64 460.51 447.45 466.19 447.45 473.2C447.45 480.2 453.64 485.88 461.29 485.88C468.93 485.88 475.13 480.2 475.13 473.2C475.13 466.19 468.93 460.51 461.29 460.51Z" id="a17ENUdtuc"></path><path d="M457.44 467.13C457.31 467.06 457.13 467.1 457.05 467.23C457.03 467.27 457.01 467.32 457.01 467.36C457.01 468.53 457.01 477.87 457.01 479.04C457.01 479.18 457.14 479.3 457.3 479.3C457.35 479.3 457.4 479.29 457.44 479.26C458.55 478.68 467.38 474.01 468.48 473.43C468.62 473.35 468.66 473.19 468.58 473.07C468.56 473.03 468.52 472.99 468.48 472.97C467.38 472.39 458.55 467.72 457.44 467.13C457.31 467.06 457.13 467.1 457.05 467.23C457.03 467.27 457.01 467.32 457.01 467.36C457.01 468.53 457.01 477.87 457.01 479.04C457.01 479.18 457.14 479.3 457.3 479.3C457.35 479.3 457.4 479.29 457.44 479.26C458.55 478.68 467.38 474.01 468.48 473.43C468.62 473.35 468.66 473.19 468.58 473.07C468.56 473.03 468.52 472.99 468.48 472.97C466.27 471.8 458.55 467.72 457.44 467.13Z" id="cpJxhWu05"></path><path d="M443.32 523.08C443.33 526.05 440.72 528.47 437.47 528.49C411.78 528.49 206.19 528.49 180.5 528.49C177.25 528.47 174.64 526.05 174.66 523.08C174.66 523.08 174.66 523.08 174.66 523.08C174.66 506.99 174.66 378.32 174.66 362.23C174.64 359.26 177.25 356.84 180.5 356.83C206.19 356.83 411.78 356.83 437.47 356.83C440.72 356.84 443.33 359.26 443.32 362.23C443.32 362.23 443.32 362.23 443.32 362.23C443.32 362.23 443.32 362.23 443.32 362.23C443.32 448.02 443.32 501.63 443.32 523.08Z" id="k2uqWdimEV"></path><path d="M440.28 520.44C440.28 523.33 437.73 525.67 434.58 525.67C409.48 525.67 208.67 525.67 183.57 525.67C180.42 525.67 177.86 523.33 177.86 520.44C177.86 504.89 177.86 380.49 177.86 364.94C177.86 362.05 180.42 359.71 183.57 359.71C208.67 359.71 409.49 359.71 434.59 359.71C437.74 359.72 440.28 362.06 440.28 364.94C440.28 396.04 440.28 489.34 440.28 520.44Z" id="b24FhBzAxQ"></path><path d="M427.14 366.46C429.01 366.46 430.52 367.85 430.52 369.57C430.52 369.57 430.52 369.57 430.52 369.57C430.52 384.13 430.52 500.65 430.52 515.21C430.52 516.93 429.01 518.32 427.14 518.32C427.14 518.32 427.14 518.32 427.14 518.32C403.55 518.32 214.86 518.32 191.28 518.32C189.41 518.32 187.89 516.93 187.89 515.21C187.89 515.21 187.89 515.21 187.89 515.21C187.89 500.65 187.89 384.13 187.89 369.57C187.89 367.85 189.41 366.46 191.28 366.46C238.45 366.46 403.55 366.46 427.14 366.46Z" id="a1TINMfYcr"></path><path d="M423.89 369.96C425.77 369.96 427.28 371.35 427.28 373.06C427.28 373.06 427.28 373.06 427.28 373.06C427.28 386.85 427.28 497.15 427.28 510.94C427.28 512.65 425.77 514.04 423.89 514.04C423.89 514.04 423.89 514.04 423.89 514.04C400.93 514.04 217.23 514.04 194.26 514.04C192.39 514.04 190.88 512.65 190.88 510.94C190.88 510.94 190.88 510.94 190.88 510.94C190.88 497.15 190.88 386.85 190.88 373.06C190.88 371.35 192.39 369.96 194.26 369.96C194.26 369.96 194.26 369.96 194.26 369.96C240.19 369.96 400.93 369.96 423.89 369.96Z" id="bpdBy7MYh"></path><path d="M353.78 465.22C353.58 465.15 353.4 465.05 353.23 464.94C352.12 464.22 346.55 460.63 336.54 454.17C336.54 454.17 336.54 454.17 336.54 454.17C334.82 453.07 333.8 451.26 333.8 449.34C333.8 447.87 333.8 436.13 333.8 434.66C333.8 432.73 334.82 430.93 336.54 429.82C338.21 428.75 351.56 420.13 353.23 419.06C353.4 418.95 353.58 418.85 353.78 418.77C357.03 417.45 360.85 418.79 362.3 421.78C362.67 422.53 362.86 423.35 362.86 424.18C362.86 427.74 362.86 456.25 362.86 459.82C362.86 463.08 359.97 465.73 356.4 465.73C355.5 465.74 354.6 465.56 353.78 465.22Z" id="aWitHWOuO"></path><path d="M272.51 468.62C263.01 468.61 255.31 462.99 255.3 456.05C255.3 453.24 255.3 430.76 255.3 427.95C255.31 421.01 263.01 415.38 272.51 415.37C277.17 415.37 314.51 415.37 319.17 415.37C328.6 415.38 336.24 420.97 336.25 427.86C336.25 430.68 336.25 453.23 336.25 456.05C336.24 462.99 328.55 468.61 319.05 468.62C309.74 468.62 277.16 468.62 272.51 468.62Z" id="a7hl1zofxJ"></path><path d="M401.96 479.8C394.32 479.8 388.12 485.48 388.12 492.49C388.12 499.49 394.32 505.17 401.96 505.17C409.61 505.17 415.81 499.49 415.81 492.49C415.81 485.48 409.61 479.8 401.96 479.8Z" id="f6wSwaO1"></path><path d="M398.12 486.42C397.98 486.35 397.81 486.39 397.73 486.52C397.7 486.56 397.69 486.61 397.69 486.65C397.69 487.82 397.69 497.16 397.69 498.33C397.69 498.47 397.82 498.59 397.98 498.59C398.03 498.59 398.08 498.58 398.12 498.55C399.22 497.97 408.05 493.3 409.15 492.72C409.29 492.64 409.34 492.48 409.26 492.36C409.23 492.32 409.2 492.28 409.15 492.26C408.05 491.68 399.22 487.01 398.12 486.42C397.98 486.35 397.81 486.39 397.73 486.52C397.7 486.56 397.69 486.61 397.69 486.65C397.69 487.82 397.69 497.16 397.69 498.33C397.69 498.47 397.82 498.59 397.98 498.59C398.03 498.59 398.08 498.58 398.12 498.55C399.22 497.97 408.05 493.3 409.15 492.72C409.29 492.64 409.34 492.48 409.26 492.36C409.23 492.32 409.2 492.28 409.15 492.26C406.95 491.09 399.22 487.01 398.12 486.42Z" id="b17Wyijfy"></path><path d="M385.14 545.17C385.15 548.14 382.54 550.56 379.3 550.58C353.6 550.58 148.02 550.58 122.32 550.58C119.08 550.56 116.46 548.14 116.48 545.17C116.48 545.17 116.48 545.17 116.48 545.17C116.48 529.09 116.48 400.41 116.48 384.33C116.46 381.36 119.08 378.94 122.32 378.92C148.02 378.92 353.6 378.92 379.3 378.92C382.54 378.94 385.15 381.36 385.14 384.33C385.14 384.33 385.14 384.33 385.14 384.33C385.14 384.33 385.14 384.33 385.14 384.33C385.14 470.11 385.14 523.73 385.14 545.17Z" id="f1V1u61YFD"></path><path d="M382.11 542.54C382.11 545.43 379.55 547.77 376.4 547.77C351.3 547.77 150.49 547.77 125.39 547.77C122.24 547.77 119.69 545.43 119.69 542.54C119.69 526.99 119.69 402.59 119.69 387.04C119.69 384.15 122.24 381.81 125.39 381.81C125.39 381.81 125.39 381.81 125.39 381.81C150.49 381.81 351.31 381.81 376.41 381.81C379.56 381.81 382.11 384.15 382.11 387.04C382.11 418.14 382.11 511.44 382.11 542.54Z" id="cpkUnXGYT"></path><path d="M368.96 388.56C370.83 388.56 372.35 389.95 372.35 391.66C372.35 391.66 372.35 391.66 372.35 391.66C372.35 406.23 372.35 522.74 372.35 537.31C372.35 539.02 370.83 540.41 368.96 540.41C368.96 540.41 368.96 540.41 368.96 540.41C345.37 540.41 156.69 540.41 133.1 540.41C131.23 540.41 129.71 539.02 129.71 537.31C129.71 537.31 129.71 537.31 129.71 537.31C129.71 522.74 129.71 406.23 129.71 391.66C129.71 389.95 131.23 388.56 133.1 388.56C133.1 388.56 345.37 388.56 368.96 388.56Z" id="a2sQj3iLHO"></path><path d="M365.72 392.05C367.59 392.05 369.1 393.44 369.1 395.16C369.1 395.16 369.1 395.16 369.1 395.16C369.1 408.94 369.1 519.24 369.1 533.03C369.1 534.74 367.59 536.13 365.72 536.13C365.72 536.13 365.72 536.13 365.72 536.13C342.75 536.13 159.05 536.13 136.09 536.13C134.22 536.13 132.7 534.74 132.7 533.03C132.7 533.03 132.7 533.03 132.7 533.03C132.7 519.24 132.7 408.94 132.7 395.16C132.7 393.44 134.22 392.05 136.09 392.05C182.01 392.05 342.75 392.05 365.72 392.05Z" id="a7A1DBR5B"></path><path d="M295.6 487.32C295.41 487.24 295.22 487.15 295.05 487.03C293.94 486.32 288.38 482.73 278.36 476.27C278.36 476.27 278.36 476.27 278.36 476.27C276.65 475.16 275.62 473.36 275.62 471.43C275.62 469.97 275.62 458.22 275.62 456.75C275.62 454.83 276.65 453.02 278.36 451.92C280.03 450.84 293.38 442.23 295.05 441.15C295.22 441.04 295.41 440.95 295.6 440.87C298.86 439.54 302.67 440.88 304.12 443.87C304.49 444.63 304.68 445.45 304.68 446.27C304.68 449.84 304.68 478.35 304.68 481.91C304.68 485.18 301.79 487.83 298.22 487.83C297.32 487.83 296.42 487.66 295.6 487.32Z" id="g29kfR1AWA"></path><path d="M214.33 490.72C204.83 490.71 197.14 485.09 197.13 478.14C197.13 475.33 197.13 452.85 197.13 450.04C197.14 443.1 204.83 437.48 214.33 437.47C218.99 437.47 256.33 437.47 260.99 437.47C270.42 437.48 278.06 443.06 278.07 449.95C278.07 452.77 278.07 475.33 278.07 478.14C278.06 485.09 270.37 490.71 260.87 490.72C251.56 490.72 218.98 490.72 214.33 490.72Z" id="b3Xd2w73a"></path><path d="M343.79 501.9C336.14 501.9 329.94 507.58 329.94 514.58C329.94 521.59 336.14 527.27 343.79 527.27C351.43 527.27 357.63 521.59 357.63 514.58C357.63 507.58 351.43 501.9 343.79 501.9Z" id="c2R7lIHwOQ"></path><path d="M339.94 508.52C339.8 508.45 339.63 508.49 339.55 508.62C339.52 508.65 339.51 508.7 339.51 508.75C339.51 509.91 339.51 519.25 339.51 520.42C339.51 520.57 339.64 520.68 339.8 520.68C339.85 520.68 339.9 520.67 339.94 520.65C341.04 520.07 349.87 515.4 350.98 514.81C351.11 514.74 351.16 514.58 351.08 514.45C351.05 514.41 351.02 514.38 350.98 514.36C349.87 513.77 341.04 509.1 339.94 508.52C339.8 508.45 339.63 508.49 339.55 508.62C339.52 508.65 339.51 508.7 339.51 508.75C339.51 509.91 339.51 519.25 339.51 520.42C339.51 520.57 339.64 520.68 339.8 520.68C339.85 520.68 339.9 520.67 339.94 520.65C341.04 520.07 349.87 515.4 350.98 514.81C351.11 514.74 351.16 514.58 351.08 514.45C351.05 514.41 351.02 514.38 350.98 514.36C348.77 513.19 341.04 509.1 339.94 508.52Z" id="hbAIr52yrf"></path><path d="M273.29 73.7C273.29 73.7 273.29 73.7 273.29 73.7C273.29 167.43 273.29 219.5 273.29 229.92C273.29 229.92 273.29 229.92 273.29 229.92C113.56 229.92 24.83 229.92 7.08 229.92C7.08 229.92 7.08 229.92 7.08 229.92C7.08 136.19 7.08 84.11 7.08 73.7C7.08 73.7 7.08 73.7 7.08 73.7C166.81 73.7 255.54 73.7 273.29 73.7Z" id="a1hRnKhZLG"></path><path d="M265.68 93.29C265.68 93.29 265.68 93.29 265.68 93.29C265.68 169.72 265.68 212.18 265.68 220.68C265.68 220.68 265.68 220.68 265.68 220.68C115.09 220.68 31.42 220.68 14.69 220.68C14.69 220.68 14.69 220.68 14.69 220.68C14.69 144.25 14.69 101.78 14.69 93.29C14.69 93.29 14.69 93.29 14.69 93.29C165.28 93.29 248.95 93.29 265.68 93.29Z" id="aqKPFbqYT"></path><path d="M273.18 73.56C273.18 73.56 273.18 73.56 273.18 73.56C273.18 79.78 273.18 83.23 273.18 83.92C273.18 83.92 273.18 83.92 273.18 83.92C113.45 83.92 24.71 83.92 6.96 83.92C6.96 83.92 6.96 83.92 6.96 83.92C6.96 77.7 6.96 74.25 6.96 73.56C6.96 73.56 6.96 73.56 6.96 73.56C166.69 73.56 255.43 73.56 273.18 73.56Z" id="g5LSWobmC"></path><path d="M15.37 76.94C14.21 76.94 13.27 77.8 13.27 78.86C13.27 79.92 14.21 80.78 15.37 80.78C16.53 80.78 17.46 79.92 17.46 78.86C17.46 77.8 16.53 76.94 15.37 76.94Z" id="a3d0N8e6MJ"></path><path d="M23.32 76.94C22.17 76.94 21.23 77.8 21.23 78.86C21.23 79.92 22.17 80.78 23.32 80.78C24.48 80.78 25.42 79.92 25.42 78.86C25.42 77.8 24.48 76.94 23.32 76.94Z" id="a8LbSRaELm"></path><path d="M31.28 76.94C30.12 76.94 29.19 77.8 29.19 78.86C29.19 79.92 30.12 80.78 31.28 80.78C32.44 80.78 33.38 79.92 33.38 78.86C33.38 77.8 32.44 76.94 31.28 76.94Z" id="gahmjHsJI"></path><path d="M178.09 112.85C178.09 112.85 178.09 112.85 178.09 112.85C178.09 156.77 178.09 181.18 178.09 186.06C178.09 186.06 178.09 186.06 178.09 186.06C92.86 186.06 45.51 186.06 36.04 186.06C36.04 186.06 36.04 186.06 36.04 186.06C36.04 142.13 36.04 117.73 36.04 112.85C36.04 112.85 36.04 112.85 36.04 112.85C121.27 112.85 168.62 112.85 178.09 112.85Z" id="a1CT5bQUfB"></path><path d="M252 112.85C252 112.85 252 112.85 252 112.85C252 129.58 252 138.87 252 140.73C252 140.73 252 140.73 252 140.73C219.54 140.73 201.51 140.73 197.91 140.73C197.91 140.73 197.91 140.73 197.91 140.73C197.91 124 197.91 114.71 197.91 112.85C197.91 112.85 197.91 112.85 197.91 112.85C230.36 112.85 248.39 112.85 252 112.85Z" id="fw00FVj4s"></path><path d="M252 149.55C252 149.55 252 149.55 252 149.55C252 166.28 252 175.57 252 177.43C252 177.43 252 177.43 252 177.43C219.54 177.43 201.51 177.43 197.91 177.43C197.91 177.43 197.91 177.43 197.91 177.43C197.91 160.7 197.91 151.41 197.91 149.55C197.91 149.55 197.91 149.55 197.91 149.55C230.36 149.55 248.39 149.55 252 149.55Z" id="a1pgilgOD9"></path><path d="M252 186.25C252 186.25 252 186.25 252 186.25C252 202.98 252 212.27 252 214.13C252 214.13 252 214.13 252 214.13C219.54 214.13 201.51 214.13 197.91 214.13C197.91 214.13 197.91 214.13 197.91 214.13C197.91 197.4 197.91 188.11 197.91 186.25C197.91 186.25 197.91 186.25 197.91 186.25C230.36 186.25 248.39 186.25 252 186.25Z" id="gUGftb72s"></path><path d="M133.9 198.35C133.9 198.35 133.9 198.35 133.9 198.35C133.9 201.99 133.9 204 133.9 204.41C133.9 204.41 133.9 204.41 133.9 204.41C75.19 204.41 42.57 204.41 36.04 204.41C36.04 204.41 36.04 204.41 36.04 204.41C36.04 200.78 36.04 198.76 36.04 198.35C36.04 198.35 36.04 198.35 36.04 198.35C94.76 198.35 127.38 198.35 133.9 198.35Z" id="b3KUsRC42H"></path><path d="M94.68 133.07L94.68 165.84L125.65 149.45L94.68 133.07L94.68 165.84L125.65 149.45L125.65 149.45L94.68 133.07Z" id="c10SrzqNgW"></path><path d="M326.26 294.99L319.9 296.16L320.86 288.87L324.99 289.16L324.99 289.16L326.26 294.99Z" id="igaUxsh3r"></path><path d="M349.59 294.7L343.66 294.83L345.56 286.78L351.03 288.1L351.03 288.1L349.59 294.7Z" id="jisCSgB3U"></path><path d="M360.48 220.3C361.47 226.43 362.02 229.83 362.13 230.51C362.13 230.51 360.48 253.21 360.06 254.35C360.06 254.35 358.41 261.16 358.41 261.16C357.71 263.88 352.09 285.68 351.39 288.4C351.39 288.4 345.32 289.16 344.08 286.13C344.1 285.05 344.2 279.62 344.37 269.86L343.96 251.32L339 230.14C333.8 247.39 330.91 256.97 330.33 258.89C330.33 258.89 329.92 268.35 328.68 271.75C328.68 271.75 325.79 289.91 325.79 289.91C325.79 289.91 320.54 291.05 320.13 289.91C320.13 289.91 317.53 261.92 317.53 257.76C317.53 257.76 315.11 213.69 315.11 213.69C321.16 214.57 336.28 216.77 360.48 220.3Z" id="d1Tn0OeQd0"></path><path d="M347.63 294.33C348.4 294.09 347.63 292.67 347.63 292.67C347.91 292.67 350.18 292.67 350.47 292.67C350.47 292.67 353.56 299.05 354.85 299.52C354.85 299.52 360.27 305.2 355.37 305.2C352.34 305.16 349.39 304.34 346.86 302.83C346.86 302.83 346.34 300.71 344.02 300.47C344.02 300.47 340.15 297.63 340.15 297.63C340.4 297.21 342.42 293.8 342.67 293.37C342.89 293 343.4 292.87 343.8 293.07C343.94 293.14 344.06 293.24 344.13 293.37C344.48 293.94 344.97 294.44 345.57 294.33C346.25 294.45 346.95 294.45 347.63 294.33Z" id="d64j7kefEE"></path><path d="M322.83 294.12C322.35 293.56 321.97 292.94 321.68 292.28C321.68 292.28 319.96 291.49 319.67 292.28C319.67 292.28 318.23 297.28 317.66 297.81C317.66 297.81 311.04 303.87 317.08 304.93C317.08 304.93 324.27 303.61 324.27 303.61C324.27 303.61 323.41 302.29 325.13 301.76C325.13 301.76 327.15 299.39 327.15 299.39C327.06 298.8 326.37 294.03 326.28 293.44C326.23 293.08 325.87 292.83 325.49 292.88C325.3 292.91 325.13 293 325.02 293.14C324.68 293.53 324.31 293.79 323.98 293.59C323.75 293.7 323.41 294.65 322.83 294.12Z" id="a1awsNAmlO"></path><path d="M369.97 193.81C370.72 205.62 371.13 212.18 371.21 213.49C371.21 213.49 376.99 225.97 369.15 225.6C369.15 225.6 366.26 213.11 366.26 213.11C365.74 211.94 363.18 206.09 358.58 195.55L369.97 193.81Z" id="b4n1J357q0"></path><path d="M306.38 188.14C305.64 199.94 305.23 206.5 305.15 207.81C305.15 207.81 299.37 220.3 307.21 219.92C307.21 219.92 310.1 207.43 310.1 207.43C310.61 206.26 313.17 200.41 317.78 189.88L306.38 188.14Z" id="bvY4tJ4dv"></path><path d="M339.42 125.71C333.49 125.71 328.68 130.12 328.68 135.55C328.68 140.98 333.49 145.39 339.42 145.39C345.35 145.39 350.15 140.98 350.15 135.55C350.15 130.12 345.35 125.71 339.42 125.71Z" id="c14A54rz1"></path><path d="M347.88 139.52C347.88 139.52 344.99 150.12 350.77 152.76C350.77 152.76 332.6 159.2 330.95 152.76C331.04 152.46 331.7 150.04 331.78 149.74C331.78 149.74 335.08 145.95 334.26 142.55C336.98 141.94 345.16 140.13 347.88 139.52Z" id="c3U4rO4FaE"></path><path d="M332.14 149.29C332.14 149.29 315.47 150.3 311.75 164.3C316.07 164.42 321.42 209.38 314.35 213.87C308.61 217.5 324.25 223.11 346.02 223.33C347.68 223.25 360.89 222.64 362.54 222.57C359.46 220.14 352.09 188.5 356.76 188.9C356.76 188.9 369.15 171.11 367.91 168.47C366.67 165.82 364.69 155.37 348.75 151.14C348.75 151.14 348.5 153.33 341.48 152.95C339.61 152.22 334.36 153.56 332.14 149.29Z" id="d29XvyS2w4"></path><path d="M362.4 162.03C365.67 165.89 367.48 168.04 367.85 168.47C367.85 168.47 373.3 195.33 371.62 195.71C371.62 195.71 359.88 199.11 358.21 197.98C356.53 196.84 348.99 174.52 348.99 174.52C350.77 172.85 355.25 168.69 362.4 162.03Z" id="a2ojTDehUJ"></path><path d="M318.77 160.14C314.56 162.64 312.22 164.03 311.75 164.3C311.75 164.3 301.43 190.79 304.32 191.92C307.21 193.06 323.31 192.3 323.31 192.3C322.71 188.01 321.19 177.29 318.77 160.14Z" id="daOb8SQ4A"></path><path d="M340.31 121.07C340.31 121.07 329.15 125.33 328.84 127.88C328.84 127.88 329 134.27 329 134.27C329 134.27 329.77 129.02 334.73 130.15C334.73 130.15 347.43 130.44 347.43 130.44C347.56 131.46 348.55 139.64 348.67 140.66C348.67 140.66 350.07 138.81 351.62 139.95C353.17 141.08 356.11 129.02 351.15 126.75C348.98 125.61 347.43 119.36 340.31 121.07Z" id="aWaUXxALo"></path><path d="M238.6 1119.55L238.6 1119.1L293.8 1119.1L293.72 1119.55L293.72 1119.55L238.6 1119.55Z" id="bEaWDUeA"></path></defs><g><g><g><use xlink:href="#b13J8TxY9H" opacity="1" fill="#3f3d56" fill-opacity="1"></use><g><use xlink:href="#b13J8TxY9H" opacity="1" fill-opacity="0" stroke="#000000" stroke-width="1" stroke-opacity="0"></use></g></g><g><use xlink:href="#aEZWkMgWe" opacity="1" fill="#2f2e41" fill-opacity="1"></use><g><use xlink:href="#aEZWkMgWe" opacity="1" fill-opacity="0" stroke="#000000" stroke-width="1" stroke-opacity="0"></use></g></g><g><use xlink:href="#fNYTksVYX" opacity="1" fill="#2f2e41" fill-opacity="1"></use><g><use xlink:href="#fNYTksVYX" opacity="1" fill-opacity="0" stroke="#000000" stroke-width="1" stroke-opacity="0"></use></g></g><g><use xlink:href="#a22e49mQCZ" opacity="1" fill="#2f2e41" fill-opacity="1"></use><g><use xlink:href="#a22e49mQCZ" opacity="1" fill-opacity="0" stroke="#000000" stroke-width="1" stroke-opacity="0"></use></g></g><g><use xlink:href="#e2uQEGaQvM" opacity="1" fill="#2f2e41" fill-opacity="1"></use><g><use xlink:href="#e2uQEGaQvM" opacity="1" fill-opacity="0" stroke="#000000" stroke-width="1" stroke-opacity="0"></use></g></g><g><use xlink:href="#baygylKdO" opacity="1" fill="#ffb8b8" fill-opacity="1"></use><g><use xlink:href="#baygylKdO" opacity="1" fill-opacity="0" stroke="#000000" stroke-width="1" stroke-opacity="0"></use></g></g><g><use xlink:href="#aDhMhZiEc" opacity="1" fill="#2f2e41" fill-opacity="1"></use><g><use xlink:href="#aDhMhZiEc" opacity="1" fill-opacity="0" stroke="#000000" stroke-width="1" stroke-opacity="0"></use></g></g><g><use xlink:href="#f2C1gwNLp3" opacity="1" fill="#2f2e41" fill-opacity="1"></use><g><use xlink:href="#f2C1gwNLp3" opacity="1" fill-opacity="0" stroke="#000000" stroke-width="1" stroke-opacity="0"></use></g></g><g><use xlink:href="#f9UE6EC0t" opacity="1" fill="#2f2e41" fill-opacity="1"></use><g><use xlink:href="#f9UE6EC0t" opacity="1" fill-opacity="0" stroke="#000000" stroke-width="1" stroke-opacity="0"></use></g></g><g><use xlink:href="#drJapvb00" opacity="1" fill="#ffb8b8" fill-opacity="1"></use><g><use xlink:href="#drJapvb00" opacity="1" fill-opacity="0" stroke="#000000" stroke-width="1" stroke-opacity="0"></use></g></g><g><use xlink:href="#a4oOXxx6qS" opacity="1" fill="#ffb8b8" fill-opacity="1"></use><g><use xlink:href="#a4oOXxx6qS" opacity="1" fill-opacity="0" stroke="#000000" stroke-width="1" stroke-opacity="0"></use></g></g><g><use xlink:href="#blvmeVbVv" opacity="1" fill="#f01406" fill-opacity="1"></use><g><use xlink:href="#blvmeVbVv" opacity="1" fill-opacity="0" stroke="#000000" stroke-width="1" stroke-opacity="0"></use></g></g><g><use xlink:href="#b49Omb3apU" opacity="1" fill="#ffb8b8" fill-opacity="1"></use><g><use xlink:href="#b49Omb3apU" opacity="1" fill-opacity="0" stroke="#000000" stroke-width="1" stroke-opacity="0"></use></g></g><g><use xlink:href="#cuVIcOb3B" opacity="1" fill="#ffa363" fill-opacity="1"></use><g><use xlink:href="#cuVIcOb3B" opacity="1" fill-opacity="0" stroke="#000000" stroke-width="1" stroke-opacity="0"></use></g></g><g><use xlink:href="#d2e7lzktiZ" opacity="1" fill="#ffae63" fill-opacity="1"></use><g><use xlink:href="#d2e7lzktiZ" opacity="1" fill-opacity="0" stroke="#000000" stroke-width="1" stroke-opacity="0"></use></g></g><g><use xlink:href="#a1LpyfsIQL" opacity="1" fill="#2f2e41" fill-opacity="1"></use><g><use xlink:href="#a1LpyfsIQL" opacity="1" fill-opacity="0" stroke="#000000" stroke-width="1" stroke-opacity="0"></use></g></g><g><use xlink:href="#cagnRtgjh" opacity="1" fill="#6c63ff" fill-opacity="1"></use><g><use xlink:href="#cagnRtgjh" opacity="1" fill-opacity="0" stroke="#000000" stroke-width="1" stroke-opacity="0"></use></g></g><g><use xlink:href="#d1Y1eFEIuN" opacity="1" fill="#6c63ff" fill-opacity="1"></use><g><use xlink:href="#d1Y1eFEIuN" opacity="1" fill-opacity="0" stroke="#000000" stroke-width="1" stroke-opacity="0"></use></g></g><g><use xlink:href="#c1OdVkvBzU" opacity="1" fill="#6c63ff" fill-opacity="1"></use><g><use xlink:href="#c1OdVkvBzU" opacity="1" fill-opacity="0" stroke="#000000" stroke-width="1" stroke-opacity="0"></use></g></g><g><use xlink:href="#cxr7KuEWP" opacity="1" fill="#6c63ff" fill-opacity="1"></use><g><use xlink:href="#cxr7KuEWP" opacity="1" fill-opacity="0" stroke="#000000" stroke-width="1" stroke-opacity="0"></use></g></g><g><use xlink:href="#d24YzqSq2" opacity="1" fill="#6c63ff" fill-opacity="1"></use><g><use xlink:href="#d24YzqSq2" opacity="1" fill-opacity="0" stroke="#000000" stroke-width="1" stroke-opacity="0"></use></g></g><g><use xlink:href="#b2SUKlYNIs" opacity="1" fill="#3f3d56" fill-opacity="1"></use><g><use xlink:href="#b2SUKlYNIs" opacity="1" fill-opacity="0" stroke="#000000" stroke-width="1" stroke-opacity="0"></use></g></g><g><use xlink:href="#bBQRFppTK" opacity="1" fill="#6c63ff" fill-opacity="1"></use><g><use xlink:href="#bBQRFppTK" opacity="1" fill-opacity="0" stroke="#000000" stroke-width="1" stroke-opacity="0"></use></g></g><g><use xlink:href="#eerLBleaX" opacity="1" fill="#b09898" fill-opacity="1"></use><g><use xlink:href="#eerLBleaX" opacity="1" fill-opacity="0" stroke="#000000" stroke-width="1" stroke-opacity="0"></use></g></g><g><use xlink:href="#a2KRau1Jw2" opacity="1" fill="#6c63ff" fill-opacity="1"></use><g><use xlink:href="#a2KRau1Jw2" opacity="1" fill-opacity="0" stroke="#000000" stroke-width="1" stroke-opacity="0"></use></g></g><g><use xlink:href="#d59Komf1rD" opacity="1" fill="#639eff" fill-opacity="1"></use><g><use xlink:href="#d59Komf1rD" opacity="1" fill-opacity="0" stroke="#000000" stroke-width="1" stroke-opacity="0"></use></g></g><g><use xlink:href="#c3KwcXpgGI" opacity="1" fill="#f50303" fill-opacity="1"></use><g><use xlink:href="#c3KwcXpgGI" opacity="1" fill-opacity="0" stroke="#000000" stroke-width="1" stroke-opacity="0"></use></g></g><g><use xlink:href="#f17gYCWgo3" opacity="1" fill="#6c63ff" fill-opacity="1"></use><g><use xlink:href="#f17gYCWgo3" opacity="1" fill-opacity="0" stroke="#000000" stroke-width="1" stroke-opacity="0"></use></g></g><g><use xlink:href="#i56y892i81" opacity="1" fill="#e6e6e6" fill-opacity="1"></use><g><use xlink:href="#i56y892i81" opacity="1" fill-opacity="0" stroke="#000000" stroke-width="1" stroke-opacity="0"></use></g></g><g><use xlink:href="#d2QB10AiTY" opacity="1" fill="#0c1218" fill-opacity="1"></use><g><use xlink:href="#d2QB10AiTY" opacity="1" fill-opacity="0" stroke="#000000" stroke-width="1" stroke-opacity="0"></use></g></g><g><use xlink:href="#a2Z4Q4i410" opacity="1" fill="#183f89" fill-opacity="1"></use><g><use xlink:href="#a2Z4Q4i410" opacity="1" fill-opacity="0" stroke="#000000" stroke-width="1" stroke-opacity="0"></use></g></g><g><use xlink:href="#b29EwZU1O" opacity="1" fill="#ffffff" fill-opacity="1"></use><g><use xlink:href="#b29EwZU1O" opacity="1" fill-opacity="0" stroke="#000000" stroke-width="1" stroke-opacity="0"></use></g></g><g><use xlink:href="#b9tIgGHnp" opacity="1" fill="#3f3d56" fill-opacity="1"></use><g><use xlink:href="#b9tIgGHnp" opacity="1" fill-opacity="0" stroke="#000000" stroke-width="1" stroke-opacity="0"></use></g></g><g><use xlink:href="#cit3CcX8x" opacity="1" fill="#3f3d56" fill-opacity="1"></use><g><use xlink:href="#cit3CcX8x" opacity="1" fill-opacity="0" stroke="#000000" stroke-width="1" stroke-opacity="0"></use></g></g><g><use xlink:href="#a17ENUdtuc" opacity="1" fill="#e6e6e6" fill-opacity="1"></use><g><use xlink:href="#a17ENUdtuc" opacity="1" fill-opacity="0" stroke="#000000" stroke-width="1" stroke-opacity="0"></use></g></g><g><use xlink:href="#cpJxhWu05" opacity="1" fill="#0e1f47" fill-opacity="1"></use><g><use xlink:href="#cpJxhWu05" opacity="1" fill-opacity="0" stroke="#000000" stroke-width="1" stroke-opacity="0"></use></g></g><g><use xlink:href="#k2uqWdimEV" opacity="1" fill="#e6e6e6" fill-opacity="1"></use><g><use xlink:href="#k2uqWdimEV" opacity="1" fill-opacity="0" stroke="#000000" stroke-width="1" stroke-opacity="0"></use></g></g><g><use xlink:href="#b24FhBzAxQ" opacity="1" fill="#090101" fill-opacity="1"></use><g><use xlink:href="#b24FhBzAxQ" opacity="1" fill-opacity="0" stroke="#000000" stroke-width="1" stroke-opacity="0"></use></g></g><g><use xlink:href="#a1TINMfYcr" opacity="1" fill="#e6e6e6" fill-opacity="1"></use><g><use xlink:href="#a1TINMfYcr" opacity="1" fill-opacity="0" stroke="#000000" stroke-width="1" stroke-opacity="0"></use></g></g><g><use xlink:href="#bpdBy7MYh" opacity="1" fill="#ffffff" fill-opacity="1"></use><g><use xlink:href="#bpdBy7MYh" opacity="1" fill-opacity="0" stroke="#000000" stroke-width="1" stroke-opacity="0"></use></g></g><g><use xlink:href="#aWitHWOuO" opacity="1" fill="#3f3d56" fill-opacity="1"></use><g><use xlink:href="#aWitHWOuO" opacity="1" fill-opacity="0" stroke="#000000" stroke-width="1" stroke-opacity="0"></use></g></g><g><use xlink:href="#a7hl1zofxJ" opacity="1" fill="#3f3d56" fill-opacity="1"></use><g><use xlink:href="#a7hl1zofxJ" opacity="1" fill-opacity="0" stroke="#000000" stroke-width="1" stroke-opacity="0"></use></g></g><g><use xlink:href="#f6wSwaO1" opacity="1" fill="#e6e6e6" fill-opacity="1"></use><g><use xlink:href="#f6wSwaO1" opacity="1" fill-opacity="0" stroke="#000000" stroke-width="1" stroke-opacity="0"></use></g></g><g><use xlink:href="#b17Wyijfy" opacity="1" fill="#07285f" fill-opacity="1"></use><g><use xlink:href="#b17Wyijfy" opacity="1" fill-opacity="0" stroke="#000000" stroke-width="1" stroke-opacity="0"></use></g></g><g><use xlink:href="#f1V1u61YFD" opacity="1" fill="#e6e6e6" fill-opacity="1"></use><g><use xlink:href="#f1V1u61YFD" opacity="1" fill-opacity="0" stroke="#000000" stroke-width="1" stroke-opacity="0"></use></g></g><g><use xlink:href="#cpkUnXGYT" opacity="1" fill="#2d3c78" fill-opacity="1"></use><g><use xlink:href="#cpkUnXGYT" opacity="1" fill-opacity="0" stroke="#000000" stroke-width="1" stroke-opacity="0"></use></g></g><g><use xlink:href="#a2sQj3iLHO" opacity="1" fill="#e6e6e6" fill-opacity="1"></use><g><use xlink:href="#a2sQj3iLHO" opacity="1" fill-opacity="0" stroke="#000000" stroke-width="1" stroke-opacity="0"></use></g></g><g><use xlink:href="#a7A1DBR5B" opacity="1" fill="#170909" fill-opacity="1"></use><g><use xlink:href="#a7A1DBR5B" opacity="1" fill-opacity="0" stroke="#000000" stroke-width="1" stroke-opacity="0"></use></g></g><g><use xlink:href="#g29kfR1AWA" opacity="1" fill="#6c63ff" fill-opacity="1"></use><g><use xlink:href="#g29kfR1AWA" opacity="1" fill-opacity="0" stroke="#000000" stroke-width="1" stroke-opacity="0"></use></g></g><g><use xlink:href="#b3Xd2w73a" opacity="1" fill="#6c63ff" fill-opacity="1"></use><g><use xlink:href="#b3Xd2w73a" opacity="1" fill-opacity="0" stroke="#000000" stroke-width="1" stroke-opacity="0"></use></g></g><g><use xlink:href="#c2R7lIHwOQ" opacity="1" fill="#3f3d56" fill-opacity="1"></use><g><use xlink:href="#c2R7lIHwOQ" opacity="1" fill-opacity="0" stroke="#000000" stroke-width="1" stroke-opacity="0"></use></g></g><g><use xlink:href="#hbAIr52yrf" opacity="1" fill="#ffffff" fill-opacity="1"></use><g><use xlink:href="#hbAIr52yrf" opacity="1" fill-opacity="0" stroke="#000000" stroke-width="1" stroke-opacity="0"></use></g></g><g><use xlink:href="#a1hRnKhZLG" opacity="1" fill="#e6e6e6" fill-opacity="1"></use><g><use xlink:href="#a1hRnKhZLG" opacity="1" fill-opacity="0" stroke="#000000" stroke-width="1" stroke-opacity="0"></use></g></g><g><use xlink:href="#aqKPFbqYT" opacity="1" fill="#ffffff" fill-opacity="1"></use><g><use xlink:href="#aqKPFbqYT" opacity="1" fill-opacity="0" stroke="#000000" stroke-width="1" stroke-opacity="0"></use></g></g><g><use xlink:href="#g5LSWobmC" opacity="1" fill="#9763ff" fill-opacity="1"></use><g><use xlink:href="#g5LSWobmC" opacity="1" fill-opacity="0" stroke="#000000" stroke-width="1" stroke-opacity="0"></use></g></g><g><use xlink:href="#a3d0N8e6MJ" opacity="1" fill="#ffffff" fill-opacity="1"></use><g><use xlink:href="#a3d0N8e6MJ" opacity="1" fill-opacity="0" stroke="#000000" stroke-width="1" stroke-opacity="0"></use></g></g><g><use xlink:href="#a8LbSRaELm" opacity="1" fill="#ffffff" fill-opacity="1"></use><g><use xlink:href="#a8LbSRaELm" opacity="1" fill-opacity="0" stroke="#000000" stroke-width="1" stroke-opacity="0"></use></g></g><g><use xlink:href="#gahmjHsJI" opacity="1" fill="#ffffff" fill-opacity="1"></use><g><use xlink:href="#gahmjHsJI" opacity="1" fill-opacity="0" stroke="#000000" stroke-width="1" stroke-opacity="0"></use></g></g><g><use xlink:href="#a1CT5bQUfB" opacity="1" fill="#ea242d" fill-opacity="1"></use><g><use xlink:href="#a1CT5bQUfB" opacity="1" fill-opacity="0" stroke="#000000" stroke-width="1" stroke-opacity="0"></use></g></g><g><use xlink:href="#fw00FVj4s" opacity="1" fill="#ec6513" fill-opacity="1"></use><g><use xlink:href="#fw00FVj4s" opacity="1" fill-opacity="0" stroke="#000000" stroke-width="1" stroke-opacity="0"></use></g></g><g><use xlink:href="#a1pgilgOD9" opacity="1" fill="#fbfaf8" fill-opacity="1"></use><g><use xlink:href="#a1pgilgOD9" opacity="1" fill-opacity="0" stroke="#000000" stroke-width="1" stroke-opacity="0"></use></g></g><g><use xlink:href="#gUGftb72s" opacity="1" fill="#41dd0e" fill-opacity="1"></use><g><use xlink:href="#gUGftb72s" opacity="1" fill-opacity="0" stroke="#000000" stroke-width="1" stroke-opacity="0"></use></g></g><g><use xlink:href="#b3KUsRC42H" opacity="1" fill="#e6e6e6" fill-opacity="1"></use><g><use xlink:href="#b3KUsRC42H" opacity="1" fill-opacity="0" stroke="#000000" stroke-width="1" stroke-opacity="0"></use></g></g><g><use xlink:href="#c10SrzqNgW" opacity="1" fill="#ffffff" fill-opacity="1"></use><g><use xlink:href="#c10SrzqNgW" opacity="1" fill-opacity="0" stroke="#000000" stroke-width="1" stroke-opacity="0"></use></g></g><g><use xlink:href="#igaUxsh3r" opacity="1" fill="#ffb8b8" fill-opacity="1"></use><g><use xlink:href="#igaUxsh3r" opacity="1" fill-opacity="0" stroke="#000000" stroke-width="1" stroke-opacity="0"></use></g></g><g><use xlink:href="#jisCSgB3U" opacity="1" fill="#ffb8b8" fill-opacity="1"></use><g><use xlink:href="#jisCSgB3U" opacity="1" fill-opacity="0" stroke="#000000" stroke-width="1" stroke-opacity="0"></use></g></g><g><use xlink:href="#d1Tn0OeQd0" opacity="1" fill="#5ab442" fill-opacity="1"></use><g><use xlink:href="#d1Tn0OeQd0" opacity="1" fill-opacity="0" stroke="#000000" stroke-width="1" stroke-opacity="0"></use></g></g><g><use xlink:href="#d64j7kefEE" opacity="1" fill="#7c1b9b" fill-opacity="1"></use><g><use xlink:href="#d64j7kefEE" opacity="1" fill-opacity="0" stroke="#000000" stroke-width="1" stroke-opacity="0"></use></g></g><g><use xlink:href="#a1awsNAmlO" opacity="1" fill="#3ec343" fill-opacity="1"></use><g><use xlink:href="#a1awsNAmlO" opacity="1" fill-opacity="0" stroke="#000000" stroke-width="1" stroke-opacity="0"></use></g></g><g><use xlink:href="#b4n1J357q0" opacity="1" fill="#ffb8b8" fill-opacity="1"></use><g><use xlink:href="#b4n1J357q0" opacity="1" fill-opacity="0" stroke="#000000" stroke-width="1" stroke-opacity="0"></use></g></g><g><use xlink:href="#bvY4tJ4dv" opacity="1" fill="#ffb8b8" fill-opacity="1"></use><g><use xlink:href="#bvY4tJ4dv" opacity="1" fill-opacity="0" stroke="#000000" stroke-width="1" stroke-opacity="0"></use></g></g><g><use xlink:href="#c14A54rz1" opacity="1" fill="#ffb8b8" fill-opacity="1"></use><g><use xlink:href="#c14A54rz1" opacity="1" fill-opacity="0" stroke="#000000" stroke-width="1" stroke-opacity="0"></use></g></g><g><use xlink:href="#c3U4rO4FaE" opacity="1" fill="#ffb8b8" fill-opacity="1"></use><g><use xlink:href="#c3U4rO4FaE" opacity="1" fill-opacity="0" stroke="#000000" stroke-width="1" stroke-opacity="0"></use></g></g><g><use xlink:href="#d29XvyS2w4" opacity="1" fill="#0b897f" fill-opacity="1"></use><g><use xlink:href="#d29XvyS2w4" opacity="1" fill-opacity="0" stroke="#000000" stroke-width="1" stroke-opacity="0"></use></g></g><g><use xlink:href="#a2ojTDehUJ" opacity="1" fill="#f5f4f1" fill-opacity="1"></use><g><use xlink:href="#a2ojTDehUJ" opacity="1" fill-opacity="0" stroke="#000000" stroke-width="1" stroke-opacity="0"></use></g></g><g><use xlink:href="#daOb8SQ4A" opacity="1" fill="#e6e6e6" fill-opacity="1"></use><g><use xlink:href="#daOb8SQ4A" opacity="1" fill-opacity="0" stroke="#000000" stroke-width="1" stroke-opacity="0"></use></g></g><g><use xlink:href="#aWaUXxALo" opacity="1" fill="#fb0038" fill-opacity="1"></use><g><use xlink:href="#aWaUXxALo" opacity="1" fill-opacity="0" stroke="#000000" stroke-width="1" stroke-opacity="0"></use></g></g><g><use xlink:href="#bEaWDUeA" opacity="1" fill="#3f3d56" fill-opacity="1"></use><g><use xlink:href="#bEaWDUeA" opacity="1" fill-opacity="0" stroke="#000000" stroke-width="1" stroke-opacity="0"></use></g></g></g></g></svg>