<svg width="20" height="20" viewBox="0 0 20 20" fill="none" xmlns="http://www.w3.org/2000/svg">
<path fill-rule="evenodd" clip-rule="evenodd" d="M6 2H3C2.44772 2 2 2.44772 2 3V6C2 6.55228 2.44772 7 3 7H6C6.55228 7 7 6.55228 7 6V3C7 2.44772 6.55228 2 6 2ZM3 0C1.34315 0 0 1.34315 0 3V6C0 7.65685 1.34315 9 3 9H6C7.65685 9 9 7.65685 9 6V3C9 1.34315 7.65685 0 6 0H3Z" fill="#5E81F4"/>
<path fill-rule="evenodd" clip-rule="evenodd" d="M17 2H14C13.4477 2 13 2.44772 13 3V6C13 6.55228 13.4477 7 14 7H17C17.5523 7 18 6.55228 18 6V3C18 2.44772 17.5523 2 17 2ZM14 0C12.3431 0 11 1.34315 11 3V6C11 7.65685 12.3431 9 14 9H17C18.6569 9 20 7.65685 20 6V3C20 1.34315 18.6569 0 17 0H14Z" fill="#5E81F4"/>
<path fill-rule="evenodd" clip-rule="evenodd" d="M6 13H3C2.44772 13 2 13.4477 2 14V17C2 17.5523 2.44772 18 3 18H6C6.55228 18 7 17.5523 7 17V14C7 13.4477 6.55228 13 6 13ZM3 11C1.34315 11 0 12.3431 0 14V17C0 18.6569 1.34315 20 3 20H6C7.65685 20 9 18.6569 9 17V14C9 12.3431 7.65685 11 6 11H3Z" fill="#5E81F4"/>
<path fill-rule="evenodd" clip-rule="evenodd" d="M17 13H14C13.4477 13 13 13.4477 13 14V17C13 17.5523 13.4477 18 14 18H17C17.5523 18 18 17.5523 18 17V14C18 13.4477 17.5523 13 17 13ZM14 11C12.3431 11 11 12.3431 11 14V17C11 18.6569 12.3431 20 14 20H17C18.6569 20 20 18.6569 20 17V14C20 12.3431 18.6569 11 17 11H14Z" fill="#5E81F4"/>
</svg>
