<svg enable-background="new 0 0 36 36" height="512" viewBox="0 0 36 36" width="512" xmlns="http://www.w3.org/2000/svg"><g id="bg"><g><path d="m13.411 34.999c6.298-2.859 12.105-1.559 15.14-2.936 3.035-1.378 8.617-6.016 2.28-19.978s-15.841-12.12-19.18-10.605c-15.632 7.095-9.395 38.582 1.76 33.519z" fill="#efefef"/></g></g><g id="color"><g><path d="m15.75 26.25h-7c-1.1 0-2-.9-2-2v-12.5c0-1.1.9-2 2-2h2 7.5 2c1.1 0 2 .9 2 2v2 12.5z" fill="#f3f3f1"/></g><g><path d="m9 24.25v-12.5c0-1.1.9-2 2-2h-.25-2c-1.1 0-2 .9-2 2v12.5c0 1.1.9 2 2 2h2.25c-1.1 0-2-.9-2-2z" fill="#d5dbe1"/></g><g><path d="m18.25 8.75v2c0 .552-.448 1-1 1h-5.5c-.552 0-1-.448-1-1v-2h1.75c0-1.1.9-2 2-2s2 .9 2 2z" fill="#2fdf84"/></g><g><g><path d="m12.354 10.104h.65c.415 0 .821-.237.952-.63.266-.794.543-1.37 1.898-1.37.186 0 .371.034.554.082-.246-.826-1.005-1.436-1.908-1.436-1.1 0-2 .9-2 2h-1.75v2c0 .552.448 1 1 1h.604z" fill="#00b871"/></g></g><g><path d="m28.25 29.25h-8.5c-.552 0-1-.448-1-1v-10.5c0-.552.448-1 1-1h8.5c.552 0 1 .448 1 1v10.5c0 .552-.448 1-1 1z" fill="#2fdf84"/></g><g><path d="m21 28.25v-10.5c0-.552.448-1 1-1h-2.25c-.552 0-1 .448-1 1v10.5c0 .552.448 1 1 1h2.25c-.552 0-1-.448-1-1z" fill="#00b871"/></g><g><g><path d="m26.555 3.967h1v2h-1z" fill="#a4afc1" transform="matrix(.707 -.707 .707 .707 4.412 20.586)"/></g><g><path d="m30.621 8.033h1v2h-1z" fill="#a4afc1" transform="matrix(.707 -.707 .707 .707 2.728 24.652)"/></g><g><path d="m25.878 8.533h2v1h-2z" fill="#a4afc1" transform="matrix(.707 -.707 .707 .707 1.485 21.652)"/></g><g><path d="m29.944 4.467h2v1h-2z" fill="#a4afc1" transform="matrix(.707 -.707 .707 .707 5.551 23.336)"/></g></g></g><g id="regular"><g><path d="m15.75 27h-7c-1.517 0-2.75-1.233-2.75-2.75v-12.5c0-1.517 1.233-2.75 2.75-2.75h2v1.5h-2c-.689 0-1.25.561-1.25 1.25v12.5c0 .689.561 1.25 1.25 1.25h7z"/></g><g><path d="m23 13.75h-1.5v-2c0-.689-.561-1.25-1.25-1.25h-2v-1.5h2c1.517 0 2.75 1.233 2.75 2.75z"/></g><g><path d="m17.25 12.5h-5.5c-.965 0-1.75-.785-1.75-1.75v-2c0-.414.336-.75.75-.75h1.104c.327-1.153 1.39-2 2.646-2s2.319.847 2.646 2h1.104c.414 0 .75.336.75.75v2c0 .965-.785 1.75-1.75 1.75zm-5.75-3v1.25c0 .138.112.25.25.25h5.5c.138 0 .25-.112.25-.25v-1.25h-1c-.414 0-.75-.336-.75-.75 0-.689-.561-1.25-1.25-1.25s-1.25.561-1.25 1.25c0 .414-.336.75-.75.75z"/></g><g><path d="m28.25 30h-8.5c-.965 0-1.75-.785-1.75-1.75v-10.5c0-.965.785-1.75 1.75-1.75h8.5c.965 0 1.75.785 1.75 1.75v10.5c0 .965-.785 1.75-1.75 1.75zm-8.5-12.5c-.138 0-.25.112-.25.25v10.5c0 .138.112.25.25.25h8.5c.138 0 .25-.112.25-.25v-10.5c0-.138-.112-.25-.25-.25z"/></g><g><path d="m21.625 21.5h4.5v1.5h-4.5z"/></g><g><path d="m21.625 24.5h4.5v1.5h-4.5z"/></g></g></svg>