<?xml version="1.0" encoding="UTF-8" standalone="no"?>
<!DOCTYPE svg PUBLIC "-//W3C//DTD SVG 1.1//EN" "http://www.w3.org/Graphics/SVG/1.1/DTD/svg11.dtd">
<svg version="1.1" xmlns="http://www.w3.org/2000/svg" xmlns:xlink="http://www.w3.org/1999/xlink" preserveAspectRatio="xMidYMid meet" viewBox="0 0 640 640" width="640" height="640"><defs><path d="M242.74 369.58C175.19 220.77 137.67 138.1 130.16 121.56C128.6 118.11 125.16 115.9 121.37 115.9C117.58 115.9 114.14 118.11 112.57 121.56C105.07 138.1 67.54 220.77 0 369.58L17.59 377.56L111.71 170.2L111.71 388.89L131.03 388.89L131.03 170.2L225.15 377.56L242.74 369.58Z" id="f9WBfBHV"></path><path d="M397.26 369.58C464.81 220.77 502.33 138.1 509.84 121.56C511.4 118.11 514.84 115.9 518.63 115.9C522.42 115.9 525.86 118.11 527.43 121.56C534.93 138.1 572.46 220.77 640 369.58L622.41 377.56L528.29 170.2L528.29 388.89L508.97 388.89L508.97 170.2L414.85 377.56L397.26 369.58Z" id="b4OPU28Blu"></path><path d="M339.32 470.66L397.26 470.66L397.26 582.05L339.32 582.05L339.32 470.66Z" id="j8lnHABBv"></path><path d="M242.74 470.66L358.63 470.66L358.63 582.05L242.74 582.05L242.74 470.66Z" id="aebjcae1c"></path><path d="M444.68 562.74L444.68 620.68L537.95 601.37C516.46 579.89 504.53 567.95 502.14 565.57C500.33 563.75 497.88 562.74 495.31 562.74C488.56 562.74 471.69 562.74 444.68 562.74Z" id="c16zo6lZSz"></path><path d="M444.68 562.74C264.68 562.74 164.68 562.74 144.69 562.74C142.12 562.74 139.67 563.75 137.86 565.57C135.47 567.95 123.53 579.89 102.05 601.37L102.05 620.68L483.31 620.68L483.31 601.37L444.68 562.74Z" id="b2fXHNut"></path><path d="M300.68 96.58L358.63 96.58L358.63 470.66L300.68 470.66L300.68 96.58Z" id="b1vAo1OKhg"></path><path d="M281.37 96.58L320 96.58L320 470.66L281.37 470.66L281.37 96.58Z" id="bUZhf15W"></path><path d="M480 77.26L480 115.9C503.18 115.9 516.06 115.9 518.63 115.9C529.3 115.9 537.95 107.25 537.95 96.58C537.95 85.91 529.3 77.26 518.63 77.26C513.48 77.26 500.6 77.26 480 77.26Z" id="acRpDz19m"></path><path d="M480 77.26C476.08 77.26 456.51 77.26 421.27 77.26C385.09 41.09 365 20.99 360.98 16.97C350.49 6.49 336 0 320 0C304 0 289.51 6.49 279.02 16.97C275.01 20.99 254.91 41.09 218.73 77.26C160.31 77.26 127.86 77.26 121.37 77.26C110.7 77.26 102.05 85.91 102.05 96.58C102.05 107.25 110.7 115.9 121.37 115.9C157.23 115.9 444.14 115.9 480 115.9C490.67 115.9 499.32 107.25 499.32 96.58C499.32 85.91 490.67 77.26 480 77.26Z" id="b1xRLDbaw"></path><path d="M358.63 451.35L358.63 489.98C381.81 489.98 394.69 489.98 397.26 489.98C407.93 489.98 416.58 481.33 416.58 470.66C416.58 460 407.93 451.35 397.26 451.35C392.11 451.35 379.24 451.35 358.63 451.35Z" id="f1MtRohn3l"></path><path d="M358.63 451.35C347.04 451.35 254.33 451.35 242.74 451.35C232.07 451.35 223.42 460 223.42 470.66C223.42 481.33 232.07 489.98 242.74 489.98C254.33 489.98 347.04 489.98 358.63 489.98C369.3 489.98 377.95 481.33 377.95 470.66C377.95 460 369.3 451.35 358.63 451.35Z" id="b2pMtvWcEi"></path><path d="M518.63 601.37L518.63 640C541.81 640 554.69 640 557.26 640C567.93 640 576.58 631.35 576.58 620.68C576.58 610.02 567.93 601.37 557.26 601.37C552.11 601.37 539.24 601.37 518.63 601.37Z" id="b4zWaqAfqV"></path><path d="M518.63 601.37C475.04 601.37 126.33 601.37 82.74 601.37C72.07 601.37 63.42 610.02 63.42 620.68C63.42 631.35 72.07 640 82.74 640C126.33 640 475.04 640 518.63 640C529.3 640 537.95 631.35 537.95 620.68C537.95 610.02 529.3 601.37 518.63 601.37Z" id="b6Vbm47EE"></path><path d="M204.1 369.58L146.16 427.53C169.34 427.53 182.21 427.53 184.79 427.53C216.79 427.53 242.74 401.58 242.74 369.58C237.59 369.58 224.71 369.58 204.1 369.58Z" id="a3xwAocQdt"></path><path d="M0 369.58C0 401.58 25.94 427.53 57.95 427.53C66.77 427.53 137.34 427.53 146.16 427.53C178.16 427.53 204.1 401.58 204.1 369.58C163.28 369.58 20.41 369.58 0 369.58Z" id="d4GCXKg5In"></path><path d="M601.37 369.58L543.42 427.53C566.6 427.53 579.48 427.53 582.05 427.53C614.06 427.53 640 401.58 640 369.58C634.85 369.58 621.97 369.58 601.37 369.58Z" id="g9b81LmGn"></path><path d="M397.26 369.58C397.26 401.58 423.21 427.53 455.21 427.53C464.03 427.53 534.6 427.53 543.42 427.53C575.42 427.53 601.37 401.58 601.37 369.58C560.55 369.58 417.67 369.58 397.26 369.58Z" id="c1HFfuMEln"></path><path d="M320 38.63C309.33 38.63 300.68 47.28 300.68 57.95C300.68 68.62 309.33 77.26 320 77.26C330.67 77.26 339.32 68.62 339.32 57.95C339.32 47.28 330.67 38.63 320 38.63Z" id="dbTfMiKGU"></path></defs><g><g><g><use xlink:href="#f9WBfBHV" opacity="1" fill="#faf3dd" fill-opacity="1"></use><g><use xlink:href="#f9WBfBHV" opacity="1" fill-opacity="0" stroke="#000000" stroke-width="1" stroke-opacity="0"></use></g></g><g><use xlink:href="#b4OPU28Blu" opacity="1" fill="#faf3dd" fill-opacity="1"></use><g><use xlink:href="#b4OPU28Blu" opacity="1" fill-opacity="0" stroke="#000000" stroke-width="1" stroke-opacity="0"></use></g></g><g><use xlink:href="#j8lnHABBv" opacity="1" fill="#5c8d8b" fill-opacity="1"></use><g><use xlink:href="#j8lnHABBv" opacity="1" fill-opacity="0" stroke="#000000" stroke-width="1" stroke-opacity="0"></use></g></g><g><use xlink:href="#aebjcae1c" opacity="1" fill="#5c8d8b" fill-opacity="1"></use><g><use xlink:href="#aebjcae1c" opacity="1" fill-opacity="0" stroke="#000000" stroke-width="1" stroke-opacity="0"></use></g></g><g><use xlink:href="#c16zo6lZSz" opacity="1" fill="#68b0ab" fill-opacity="1"></use><g><use xlink:href="#c16zo6lZSz" opacity="1" fill-opacity="0" stroke="#000000" stroke-width="1" stroke-opacity="0"></use></g></g><g><use xlink:href="#b2fXHNut" opacity="1" fill="#5c8d8b" fill-opacity="1"></use><g><use xlink:href="#b2fXHNut" opacity="1" fill-opacity="0" stroke="#000000" stroke-width="1" stroke-opacity="0"></use></g></g><g><use xlink:href="#b1vAo1OKhg" opacity="1" fill="#5c8d8b" fill-opacity="1"></use><g><use xlink:href="#b1vAo1OKhg" opacity="1" fill-opacity="0" stroke="#000000" stroke-width="1" stroke-opacity="0"></use></g></g><g><use xlink:href="#bUZhf15W" opacity="1" fill="#faf3dd" fill-opacity="1"></use><g><use xlink:href="#bUZhf15W" opacity="1" fill-opacity="0" stroke="#000000" stroke-width="1" stroke-opacity="0"></use></g></g><g><use xlink:href="#acRpDz19m" opacity="1" fill="#68b0ab" fill-opacity="1"></use><g><use xlink:href="#acRpDz19m" opacity="1" fill-opacity="0" stroke="#000000" stroke-width="1" stroke-opacity="0"></use></g></g><g><use xlink:href="#b1xRLDbaw" opacity="1" fill="#5c8d8b" fill-opacity="1"></use><g><use xlink:href="#b1xRLDbaw" opacity="1" fill-opacity="0" stroke="#000000" stroke-width="1" stroke-opacity="0"></use></g></g><g><use xlink:href="#f1MtRohn3l" opacity="1" fill="#68b0ab" fill-opacity="1"></use><g><use xlink:href="#f1MtRohn3l" opacity="1" fill-opacity="0" stroke="#000000" stroke-width="1" stroke-opacity="0"></use></g></g><g><use xlink:href="#b2pMtvWcEi" opacity="1" fill="#5c8d8b" fill-opacity="1"></use><g><use xlink:href="#b2pMtvWcEi" opacity="1" fill-opacity="0" stroke="#000000" stroke-width="1" stroke-opacity="0"></use></g></g><g><use xlink:href="#b4zWaqAfqV" opacity="1" fill="#68b0ab" fill-opacity="1"></use><g><use xlink:href="#b4zWaqAfqV" opacity="1" fill-opacity="0" stroke="#000000" stroke-width="1" stroke-opacity="0"></use></g></g><g><use xlink:href="#b6Vbm47EE" opacity="1" fill="#5c8d8b" fill-opacity="1"></use><g><use xlink:href="#b6Vbm47EE" opacity="1" fill-opacity="0" stroke="#000000" stroke-width="1" stroke-opacity="0"></use></g></g><g><use xlink:href="#a3xwAocQdt" opacity="1" fill="#68b0ab" fill-opacity="1"></use><g><use xlink:href="#a3xwAocQdt" opacity="1" fill-opacity="0" stroke="#000000" stroke-width="1" stroke-opacity="0"></use></g></g><g><use xlink:href="#d4GCXKg5In" opacity="1" fill="#5c8d8b" fill-opacity="1"></use><g><use xlink:href="#d4GCXKg5In" opacity="1" fill-opacity="0" stroke="#000000" stroke-width="1" stroke-opacity="0"></use></g></g><g><use xlink:href="#g9b81LmGn" opacity="1" fill="#68b0ab" fill-opacity="1"></use><g><use xlink:href="#g9b81LmGn" opacity="1" fill-opacity="0" stroke="#000000" stroke-width="1" stroke-opacity="0"></use></g></g><g><use xlink:href="#c1HFfuMEln" opacity="1" fill="#5c8d8b" fill-opacity="1"></use><g><use xlink:href="#c1HFfuMEln" opacity="1" fill-opacity="0" stroke="#000000" stroke-width="1" stroke-opacity="0"></use></g></g><g><use xlink:href="#dbTfMiKGU" opacity="1" fill="#68b0ab" fill-opacity="1"></use><g><use xlink:href="#dbTfMiKGU" opacity="1" fill-opacity="0" stroke="#000000" stroke-width="1" stroke-opacity="0"></use></g></g></g></g></svg>