<svg width="122" height="32" viewBox="0 0 122 32" fill="none" xmlns="http://www.w3.org/2000/svg">
<path d="M42.5618 10.322C42.5618 11.0062 41.9631 11.605 41.0222 11.605C39.4826 11.605 38.4561 10.322 38.4561 10.322L36.5743 12.2893C36.5743 12.2893 38.1995 14.3421 41.3643 14.3421C44.3581 14.3421 46.1543 12.5459 46.1543 10.4075C46.1543 6.21624 40.5945 7.0716 40.5945 5.44642C40.5945 4.9332 41.1077 4.41999 41.8776 4.41999C43.0579 4.41999 43.8449 5.36088 43.8449 5.36088L45.7267 3.39356C45.7267 3.39356 44.4436 1.68284 41.5354 1.68284C38.7983 1.68284 37.002 3.47909 37.002 5.36088C37.002 9.55214 42.5618 8.69678 42.5618 10.322ZM51.8913 9.4666L54.885 14H58.6486L54.0297 6.98606L58.3064 2.02498H54.5429L50.6082 6.64392V2.02498H47.3579V14H50.6082V10.9207L51.8913 9.4666ZM61.1365 8.01249C61.1365 6.04517 62.5906 4.59106 64.4724 4.59106C66.3542 4.59106 67.8083 6.04517 67.8083 8.01249C67.8083 9.97982 66.3542 11.4339 64.4724 11.4339C62.5906 11.4339 61.1365 9.97982 61.1365 8.01249ZM71.1442 8.01249C71.1442 4.59106 68.236 1.68284 64.4724 1.68284C60.7088 1.68284 57.8006 4.59106 57.8006 8.01249C57.8006 11.4339 60.7088 14.3421 64.4724 14.3421C68.236 14.3421 71.1442 11.4339 71.1442 8.01249ZM77.9075 11.4339C76.71 11.4339 75.6836 10.4075 75.6836 9.03892V2.02498H72.4332V9.03892C72.4332 12.0327 74.7427 14.3421 77.9075 14.3421C81.0723 14.3421 83.3818 12.0327 83.3818 9.03892V2.02498H80.1314V9.03892C80.1314 10.4075 79.105 11.4339 77.9075 11.4339ZM85.3498 14H88.6002V10.2364H90.3109L92.3637 14H95.7852L93.3046 9.63767C93.3046 9.63767 95.3575 8.69678 95.3575 6.1307C95.3575 3.82124 93.5612 2.02498 90.9952 2.02498H85.3498V14ZM92.1071 6.1307C92.1071 6.81499 91.5939 7.32821 90.8241 7.32821H88.6002V4.9332H90.8241C91.5939 4.9332 92.1071 5.44642 92.1071 6.1307ZM101.939 10.322C101.939 11.0062 101.34 11.605 100.399 11.605C98.8598 11.605 97.8334 10.322 97.8334 10.322L95.9516 12.2893C95.9516 12.2893 97.5767 14.3421 100.742 14.3421C103.735 14.3421 105.532 12.5459 105.532 10.4075C105.532 6.21624 99.9717 7.0716 99.9717 5.44642C99.9717 4.9332 100.485 4.41999 101.255 4.41999C102.435 4.41999 103.222 5.36088 103.222 5.36088L105.104 3.39356C105.104 3.39356 103.821 1.68284 100.913 1.68284C98.1755 1.68284 96.3792 3.47909 96.3792 5.36088C96.3792 9.55214 101.939 8.69678 101.939 10.322ZM109.985 11.2629V9.20999H114.604V6.64392H109.985V4.76213H115.973V2.02498H106.735V14H116.144V11.2629H109.985ZM43.6738 23.8679H41.4499L42.5618 20.3609L43.6738 23.8679ZM44.5292 26.4339L45.3845 29H48.8915L44.3581 17.025H40.7656L36.2322 29H39.7392L40.5945 26.4339H44.5292ZM51.4609 23.0125C51.4609 21.0452 52.915 19.5911 54.8823 19.5911C56.8497 19.5911 57.9616 21.1307 57.9616 21.1307L59.929 19.0778C59.929 19.0778 58.3038 16.6828 54.8823 16.6828C51.1188 16.6828 48.2105 19.5911 48.2105 23.0125C48.2105 26.4339 51.1188 29.3421 54.8823 29.3421C58.3893 29.3421 60.0145 26.9471 60.0145 26.9471L58.1327 24.8943C58.1327 24.8943 56.9352 26.4339 54.8823 26.4339C52.915 26.4339 51.4609 24.9798 51.4609 23.0125ZM67.114 23.8679H64.89L66.002 20.3609L67.114 23.8679ZM67.9693 26.4339L68.8247 29H72.3316L67.7982 17.025H64.2057L59.6723 29H63.1793L64.0347 26.4339H67.9693ZM73.0199 17.025V29H77.6389C81.3169 29 83.9685 26.3484 83.9685 23.0125C83.9685 19.6766 81.3169 17.025 77.6389 17.025H73.0199ZM77.6389 19.9332C79.4351 19.9332 80.7182 21.2162 80.7182 23.0125C80.7182 24.8087 79.2641 26.0918 77.6389 26.0918H76.2703V19.9332H77.6389ZM88.5835 26.2629V24.21H93.2024V21.6439H88.5835V19.7621H94.571V17.025H85.3331V29H94.742V26.2629H88.5835ZM102.696 26.0918L106.031 21.9005V29H109.282V17.025H106.374L102.696 21.7295L99.0175 17.025H96.1093V29H99.3596V21.9005L102.696 26.0918ZM118.258 17.025L115.863 21.6439L113.468 17.025H109.961L114.238 24.7232V29H117.488V24.7232L121.765 17.025H118.258Z" fill="#070707"/>
<g clip-path="url(#clip0)">
<path d="M19.9888 1.34766L23.7219 7.81565L9.67545 29.6444L5.94233 23.1764L19.9888 1.34766Z" fill="#2C1783"/>
<path d="M29.6642 18.1027L25.931 11.6377L0 12.8899L3.73312 19.3579L29.6642 18.1027Z" fill="#755CDE"/>
<path d="M19.9888 1.34756L23.7219 7.81555L10.334 7.70627L6.60093 1.23828L19.9888 1.34756Z" fill="#FCAC3A"/>
<path d="M29.6642 18.1027L25.9311 11.6377L19.3302 23.286L23.0633 29.754L29.6642 18.1027Z" fill="#FCAC3A"/>
<path d="M0 12.8895L3.73312 19.3575L10.334 7.70627L6.6009 1.23828L0 12.8895Z" fill="#FC8B3A"/>
<path d="M9.67545 29.6443L5.94233 23.1763L19.3302 23.2855L23.0633 29.7535L9.67545 29.6443Z" fill="#FC8B3A"/>
</g>
<defs>
<clipPath id="clip0">
<rect width="29.6642" height="28.5153" fill="white" transform="translate(0 1.23828)"/>
</clipPath>
</defs>
</svg>
