<?xml version="1.0" encoding="iso-8859-1"?>
<!-- Generator: Adobe Illustrator 19.0.0, SVG Export Plug-In . SVG Version: 6.00 Build 0)  -->
<svg version="1.1" id="Capa_1" xmlns="http://www.w3.org/2000/svg" xmlns:xlink="http://www.w3.org/1999/xlink" x="0px" y="0px"
	 viewBox="0 0 512.001 512.001" style="enable-background:new 0 0 512.001 512.001;" xml:space="preserve">
<path style="fill:#FED42D;" d="M511.266,197.258c-1.764-5.432-6.458-9.389-12.108-10.209l-158.722-23.066L269.452,20.156
	c-2.527-5.121-7.741-8.361-13.451-8.361c-5.709,0-10.924,3.24-13.451,8.361l-70.988,143.826L12.843,187.049
	c-5.649,0.82-10.345,4.777-12.108,10.207c-1.765,5.432-0.293,11.393,3.795,15.377l114.848,111.955L92.27,482.67
	c-0.965,5.629,1.349,11.315,5.968,14.672c4.619,3.355,10.741,3.799,15.797,1.141L256,423.845l141.961,74.637
	c2.195,1.154,4.591,1.723,6.979,1.723c3.11,0,6.206-0.965,8.818-2.863c4.619-3.357,6.933-9.045,5.968-14.672L392.61,324.588
	l114.86-111.955C511.559,208.648,513.031,202.687,511.266,197.258z"/>
<path style="fill:#FCBF29;" d="M511.266,197.258c-1.764-5.432-6.458-9.389-12.108-10.209l-158.722-23.066L269.452,20.156
	c-2.527-5.121-7.741-8.361-13.451-8.361v412.051l141.961,74.637c2.195,1.154,4.591,1.723,6.979,1.723
	c3.11,0,6.206-0.965,8.818-2.863c4.619-3.357,6.933-9.045,5.968-14.672L392.61,324.588l114.86-111.955
	C511.559,208.648,513.031,202.687,511.266,197.258z"/>
<g>
</g>
<g>
</g>
<g>
</g>
<g>
</g>
<g>
</g>
<g>
</g>
<g>
</g>
<g>
</g>
<g>
</g>
<g>
</g>
<g>
</g>
<g>
</g>
<g>
</g>
<g>
</g>
<g>
</g>
</svg>
