<svg xmlns="http://www.w3.org/2000/svg" viewBox="0 0 1440 320"><path fill="#50c5f4" fill-opacity="1" d="M0,128L26.7,112C53.3,96,107,64,160,53.3C213.3,43,267,53,320,90.7C373.3,128,427,192,480,186.7C533.3,181,587,107,640,101.3C693.3,96,747,160,800,154.7C853.3,149,907,75,960,48C1013.3,21,1067,43,1120,80C1173.3,117,1227,171,1280,197.3C1333.3,224,1387,224,1413,224L1440,224L1440,0L1413.3,0C1386.7,0,1333,0,1280,0C1226.7,0,1173,0,1120,0C1066.7,0,1013,0,960,0C906.7,0,853,0,800,0C746.7,0,693,0,640,0C586.7,0,533,0,480,0C426.7,0,373,0,320,0C266.7,0,213,0,160,0C106.7,0,53,0,27,0L0,0Z"></path></svg>