<?xml version="1.0" encoding="UTF-8" standalone="no"?>
<!DOCTYPE svg PUBLIC "-//W3C//DTD SVG 1.1//EN" "http://www.w3.org/Graphics/SVG/1.1/DTD/svg11.dtd">
<svg version="1.1" xmlns="http://www.w3.org/2000/svg" xmlns:xlink="http://www.w3.org/1999/xlink" preserveAspectRatio="xMidYMid meet" viewBox="0 0 1500 1500" width="1500" height="1500"><defs><path d="M992 1028.59C1041.47 1001.6 1081.4 981.85 1091.34 976.65C1264.94 889.77 1407.17 843.39 1442.26 828.58C1458.81 822.86 1472.1 818.53 1475.41 817.41C1458.17 751.89 1431.46 695.46 1397.95 653.78C1398.81 639.43 1399.25 625.02 1399.26 610.6C1399.26 382.65 1295.7 197.87 1167.9 197.87C1128.55 197.79 1089.87 215.65 1055.62 249.71C965.16 145.05 847.1 81.71 717.93 81.71C534.38 81.71 373.26 209.61 281.95 402.22C310.56 410.72 453.59 453.22 711.06 529.73C868.96 576.64 956.69 602.69 974.23 607.91C674.21 623.66 373.26 639.31 74.09 602.34C-7.35 740.95 -21.65 961.55 39.95 1128.86C39.95 1128.86 39.95 1128.86 39.95 1128.86C39.95 1137.12 40.15 1145.3 40.5 1153.42C48.12 1157.26 55.48 1160.98 62.08 1163.42C221.04 1222.49 350.04 1252.4 382.04 1262.28C302.94 1348.07 206.62 1360.21 115.38 1396.54C159.57 1460.68 219.56 1500 285.68 1500C384.12 1500 1171.66 1500 1270.1 1500C1376.7 1500 1463.1 1369.47 1463.1 1208.44C1463.1 1208.44 1463.1 1208.44 1463.1 1208.44C1479.1 1162.04 1489.75 1110.57 1494.47 1056.94C1297.22 1090.44 1097.52 1061.36 899.4 1081.2C928.29 1078.3 964.13 1043.84 992 1028.59Z" id="buNPglApl"></path><path d="M1396.47 649.41C1397.33 635.07 1397.76 620.67 1397.78 606.25C1397.78 378.31 1294.17 193.59 1166.42 193.59C1127.07 193.51 1088.38 211.37 1054.13 245.41C963.67 140.71 845.6 77.34 716.43 77.34C506.32 77.34 325.47 245.07 245.26 485.59C240.8 485.13 236.32 484.88 231.8 484.88C104.04 484.88 0.44 669.66 0.44 897.61C0.35 978.12 13.57 1056.94 38.5 1124.47C38.5 1124.47 38.5 1124.47 38.5 1124.47C38.5 1329.56 148.55 1495.82 284.24 1495.82C382.68 1495.82 1170.25 1495.82 1268.69 1495.82C1375.27 1495.82 1461.67 1365.27 1461.67 1204.23C1461.67 1204.23 1461.67 1204.23 1461.67 1204.23C1484.09 1139.14 1495.9 1064.46 1495.82 988.36C1496.03 853.67 1458.97 727.23 1396.47 649.41Z" id="a18nPH31uN"></path><path d="M1215.31 730.57C1212.86 729.58 1210.37 728.96 1207.88 728.27C1204.66 727.45 1178.92 720.92 1175.7 720.11C1172.45 719.05 1169.14 718.74 1165.85 719.19C1162.51 719.67 1159.42 722.49 1157.27 727.01C1156.31 729.09 1155.79 731.68 1155.78 734.36C1155.96 737.06 1156.46 739.66 1157.24 742C1157.56 743.09 1157.82 744.22 1158.04 745.38C1158.35 747.98 1158.73 750.55 1159.19 753.08C1159.33 753.63 1159.52 754.14 1159.74 754.6C1159.75 754.73 1159.75 754.86 1159.74 754.99C1159.39 758.16 1160.53 761.47 1160.02 764.53C1159.57 767.15 1158.12 768.74 1157.21 770.92C1155.96 774.09 1155.91 778.26 1157.07 781.52C1158.05 784.19 1159.83 786 1160.34 789.06C1161.01 793.08 1159.21 796.97 1157.6 800.07C1154.64 805.79 1151.91 811.85 1149.41 818.22C1148.71 819.78 1148.26 821.65 1148.11 823.62C1147.96 827.62 1150.15 831.14 1149.77 835.11C1149.47 838.24 1147.73 840.15 1146.23 842.01C1140.67 848.45 1136.21 858.8 1135.77 870.5C1134.34 851.88 1129.96 834.35 1123.12 819.92C1121.25 815.96 1119.19 811.98 1118.42 806.97C1118.14 804.97 1118.08 802.83 1117.69 800.9C1116.38 794.81 1112.23 792.19 1110.41 786.58C1109.1 782.62 1109.1 777.54 1107.48 774.07C1105.86 770.6 1103.31 769.82 1101.91 766.46C1101.22 764.19 1100.62 761.82 1100.14 759.38C1099.55 757.39 1098.72 755.65 1097.72 754.27C1097.52 754 1097.32 753.75 1097.12 753.52C1097.56 752.82 1097.81 751.84 1097.81 750.8C1097.81 748.11 1096.29 746.34 1094.97 745.01C1093.27 743.31 1091.61 741.47 1089.99 739.56C1091.76 738.11 1093.29 735.91 1094.45 733.14C1095.9 729.03 1096.5 724.15 1096.15 719.35C1096.06 715.47 1095.24 711.76 1093.81 708.8C1092.99 707.26 1091.95 706.15 1091.09 704.7C1088.86 700.86 1088.1 695.18 1087.17 689.94C1085.94 683.04 1084.02 675.8 1080.44 672.15C1078.71 670.38 1076.7 669.55 1075.01 667.69C1073.33 665.82 1071.92 662.31 1072.5 658.93C1072.9 656.63 1074.11 655.04 1074.93 653.09C1076.98 647.83 1076.24 640.65 1073.27 636.99C1072.31 635.91 1071.12 634.97 1070.92 632.99C1069.38 632.29 1068.2 630.09 1067.89 627.33C1067.6 624.63 1067.6 621.85 1067.89 619.15C1068.4 612.73 1068.79 607.64 1068.9 606.37C1070.06 607.22 1071.37 607.22 1072.53 606.37C1073.66 609.59 1074.97 612.61 1076.45 615.38C1080.43 623.65 1083.53 633.11 1085.6 643.31C1086.35 646.99 1087.1 651.11 1089.04 653.06C1089.71 653.73 1090.46 654.07 1091.12 654.79C1091.92 655.78 1092.61 657.02 1093.16 658.47C1094.72 662.12 1096.29 665.75 1097.85 669.41C1097.86 669.47 1097.92 669.91 1097.93 669.96C1097.97 670.29 1098.04 670.6 1098.14 670.88C1098.43 671.45 1098.83 671.82 1099.26 671.89C1104.07 673.85 1109.47 675.64 1113.64 671.02C1117.4 666.88 1119.05 658.7 1122.24 653.22C1124.5 649.34 1127.7 646.33 1128.34 640.85C1127.58 640.44 1126.83 639.96 1126.1 639.41C1126.75 638.26 1127.4 636.92 1128.29 635.4C1129.58 633.18 1130.75 630.74 1131.77 628.12C1132.87 624.88 1133.75 621.42 1134.38 617.82C1138.16 598.87 1141.21 583.69 1141.96 579.9C1143.17 573.92 1144.37 567.9 1145.89 562.08C1147.45 555.78 1149.31 549.74 1151.02 543.55C1155.44 527.47 1158.85 510.58 1161.19 493.2C1161.61 490.83 1161.74 488.33 1161.6 485.86C1161.23 481.89 1159.52 478.76 1157.88 475.93C1156.24 472.8 1154.37 470.07 1152.32 467.82C1150.23 465.54 1147.72 464.83 1145.34 465.84C1141.99 467.56 1139.89 473.59 1139.11 479.63C1138.34 485.68 1138.63 491.91 1138.3 498.03C1137.83 506.88 1136.11 515.43 1135.69 524.31C1135.47 529.43 1135.69 534.63 1135.34 539.76C1134.69 546.47 1133.37 552.92 1131.42 558.8C1127.18 572.81 1121.44 585.26 1114.51 595.44C1113.72 596.62 1112.89 597.74 1112.11 599.01C1112.11 598.02 1112.2 597.01 1112.28 596.02C1111.71 596.28 1111.15 596.63 1110.62 597.05C1110.68 595.89 1110.62 594.72 1110.42 593.61C1109.38 588.11 1104.72 586.71 1103.89 581.12C1103.75 579.74 1103.67 578.34 1103.67 576.94C1103.39 572.04 1101.5 567.9 1100.84 563.14C1100.24 558.75 1100.7 553.94 1099.53 549.87C1098.54 547.33 1097.38 545.01 1096.06 542.98C1094.49 539.82 1093.35 536.07 1092.75 532.01C1092.58 530.88 1092.42 529.71 1092.24 528.58C1092.44 526.03 1092.28 523.43 1091.77 521.02C1090.58 515.82 1087.51 512.49 1086.4 507.22C1085.54 503.13 1085.91 498.03 1084.28 494.85C1083.41 493.34 1082.35 492.21 1081.18 491.57C1075.2 487.47 1068.92 484.86 1062.53 483.82C1058.95 483.24 1055 482.92 1052.44 478.48C1049.45 473.33 1049.3 464.07 1045.8 460.09C1042.71 456.57 1038.35 459.17 1035.96 464.11C1035.6 464.84 1035.26 465.61 1034.96 466.41C1034.53 463.33 1034.43 460.13 1034.69 456.99C1034.69 456.2 1034.78 455.4 1034.82 454.69C1040.72 451.29 1045.74 444.32 1048.99 435.01C1048.99 435.01 1048.99 435.01 1048.99 435.14C1049 435.21 1049.13 435.79 1049.14 435.86C1049.52 437.53 1050.13 439.14 1051.01 439.33C1051.01 439.33 1051.01 439.33 1051.01 439.33C1051.61 439.32 1052.18 438.95 1052.63 438.29C1053.42 437.33 1054.15 436.22 1054.8 434.98C1055.3 434.02 1055.65 433.18 1055.75 432.98C1056.35 431.55 1056.87 430.01 1057.29 428.38C1057.94 425.94 1058.38 423.35 1058.6 420.68C1058.83 418.01 1058.86 415.28 1059.12 412.61C1059.36 410.55 1059.68 408.51 1060.07 406.52C1060.2 405.85 1060.33 405.18 1060.45 404.52C1060.57 403.85 1060.74 402.95 1060.87 402.22C1061.69 397.49 1062.13 392.58 1062.18 387.64C1062.18 386.4 1062.18 385.41 1062.18 385.16C1062.08 378.64 1060.5 372.47 1057.78 368.03C1055.54 364.79 1052.56 363.43 1050.91 359.04C1049.84 356.1 1049.6 352.3 1048.97 348.85C1047.59 340.43 1043.61 334.13 1038.7 332.6C1035.81 332.04 1032.9 333.45 1030.57 336.53C1030.57 336.53 1030.57 336.53 1030.57 336.53L1030.39 336.78C1030.39 336.78 1030.39 336.78 1030.39 336.78C1029.09 338.52 1027.99 340.68 1027.15 343.13C1025.42 342.29 1023.84 340.71 1022.54 338.53C1021.24 336.39 1020.23 333.7 1018.91 331.63C1016.4 327.59 1012.83 326.26 1009.6 328.18C1006.29 330.52 1003.82 335.5 1002.95 341.59C1002.23 346.33 1002.36 351.77 1000.86 355.73C999.7 358.81 997.79 360.33 996.45 363.13C995.63 364.91 995.06 367.02 994.81 369.27C994.81 369.27 994.81 369.27 994.81 369.27C994.65 370.53 994.57 371.82 994.59 373.11C994.59 373.11 994.59 373.11 994.59 373.11C994.59 373.69 994.59 374.26 994.66 374.81C994.66 374.81 994.66 375 994.66 375.09C994.71 375.72 994.78 376.34 994.89 376.95C994.89 376.95 994.89 376.95 994.89 376.95C995.26 379.28 995.92 381.43 996.83 383.25C997.7 384.99 998.77 386.36 999.98 387.25C1000.48 387.59 1000.99 387.87 1001.5 388.1C1001.6 388.14 1002.12 388.35 1003.06 388.72C1003.38 388.86 1003.57 388.94 1003.6 388.95C999.8 401.52 999.53 416.48 1002.87 429.44C1002.87 430.09 1002.78 430.73 1002.74 431.37C1002.53 440.43 1002.76 449.5 1003.42 458.48C1003.6 462.04 1003.71 465.98 1002.47 468.8C1001.9 469.92 1001.27 470.91 1000.57 471.77C1001.28 470.16 1002 468.57 1002.73 466.99C1000.89 463.72 997.97 463.31 995.36 463.63C990.3 464.3 985.39 466.93 980.98 471.36C978.05 474.32 975.04 478.25 971.7 477.56C969.72 477.17 967.78 475.26 965.85 476.18C964.77 476.96 963.77 478.02 962.86 479.31C962.15 480.21 961.28 480.68 960.4 480.64C958.35 476.21 955.18 473.2 952.72 469.59C949.92 465.21 947.36 460.38 945.07 455.17C940.84 446.18 936.61 437.17 932.46 428.08C928.95 420.45 925.36 412.2 924.75 402.43C924.68 401.46 924.65 400.48 924.65 399.51C924.74 394.86 925.07 390.24 925.65 385.71C925.8 384.62 925.8 383.47 925.65 382.38C925.26 380.08 923.75 379.23 922.46 378.72C922.46 378.72 922.46 378.72 922.46 378.72C922.63 376.95 922.75 375.13 922.81 373.41C923.54 353.64 922.75 333.54 925.12 314.18C926.03 306.73 927.5 299.19 930.55 293.79C935.32 285.3 943.31 283.26 946.97 273.21C950.03 264.84 948.81 253 944.97 245.62C941.12 238.24 935.2 235.23 929.57 235.6C927.99 235.5 926.43 236.24 925.09 237.71C923.83 239.67 922.89 242.18 922.37 244.98C921.81 247.37 917.32 266.56 916.76 268.96C915.13 275.2 913.76 281.64 912.65 288.22C911.09 298.29 910.73 308.92 909.49 319.08C909.49 326.9 906.63 336.65 905.06 343.84C903.31 351.94 901.41 359.94 899.83 368.19C899.44 370.26 898.07 376.4 897.22 381.99C896.9 382.31 896.6 382.71 896.33 383.16C895.65 384.7 895.03 386.32 894.47 388.01C893.28 390.77 891.35 392.24 890.04 394.91C888.73 397.57 888.46 402.47 890.28 403.81C890.65 404.02 891.03 404.17 891.41 404.24C891.65 404.28 891.89 404.35 892.12 404.45C894.08 405.41 894.85 409.76 894.56 413.35C894.28 416.93 893.26 420.24 893.09 423.83C892.73 430.18 894.85 436.09 896.89 441.42C899 447.2 901.33 452.73 903.87 457.95C905.71 461.58 907.79 464.85 909.65 468.34C916.72 481.13 922.34 496.07 928.69 509.96C930.98 515.2 933.58 520 936.44 524.26C938.32 526.84 940.28 529.21 942.31 531.37C943.41 532.58 952.15 542.33 953.24 543.55C954.48 545.15 955.88 546.31 957.37 546.98C957.86 547.09 958.35 547.09 958.84 546.98C958.9 547.55 958.95 548.1 959.03 548.68C959.88 554.7 961.75 560.17 961.96 566.31C962.17 572.45 961.85 578.73 962.1 584.94C962.34 590.66 963.06 596.43 963.24 602.07C963.61 612.92 962.09 623.63 960.63 634.26C958.42 649.8 957.08 665.66 952.78 679.76C951.58 683.64 950.17 687.6 950.17 692.03C950.17 692.56 950.17 693.12 950.25 693.64C950.25 693.64 950.25 693.64 950.25 693.64C949.07 694.82 948.42 695.47 948.29 695.6C947.71 696.17 947.14 696.75 946.61 697.35C944.13 700.2 941.48 703.35 940.46 708.27C939.63 712.24 940.01 716.8 939.02 720.66C938.97 720.83 938.92 721 938.86 721.17C937.82 724.75 935.74 727.42 935.27 731.35C935.27 731.35 935.27 731.35 935.27 731.35C934.91 734.36 935.59 737.56 935.27 740.55C935.27 740.55 935.27 740.55 935.27 740.66C934.97 742.16 934.73 743.7 934.56 745.26C934.55 745.77 934.57 746.28 934.64 746.78C934.89 748.52 935.44 750.09 936.21 751.26C936.68 752.06 937.19 752.77 937.74 753.4C938.3 754.04 938.87 754.64 939.46 755.19C939.67 755.39 939.78 755.49 939.8 755.52C940.3 755.98 940.8 756.41 941.31 756.83C941.34 756.85 941.61 757.05 941.65 757.08C942.23 757.54 942.84 757.95 943.44 758.32C943.48 758.34 943.81 758.53 943.86 758.55C944.33 758.83 944.81 759.08 945.29 759.29C945.32 759.3 945.42 759.36 945.62 759.47L945.92 759.59L947.23 760.07C947.52 760.16 947.68 760.22 947.71 760.23C948.29 760.4 948.88 760.54 949.48 760.64C949.79 760.64 949.96 760.64 950 760.64C950.44 760.64 950.87 760.76 951.31 760.78C951.37 760.78 951.86 760.78 951.92 760.78C952.38 760.78 952.82 760.78 953.23 760.78C953.27 760.78 953.65 760.78 953.7 760.78C954.31 760.78 954.93 760.62 955.54 760.48C955.56 760.48 955.72 760.48 955.74 760.48C956.29 760.34 956.84 760.18 957.38 759.98C957.43 759.96 957.76 759.83 957.8 759.82C958.31 759.61 958.82 759.4 959.33 759.13C959.36 759.11 959.58 759 959.61 758.99C960.22 758.67 960.84 758.32 961.44 757.91C963.52 756.4 965.54 754.64 967.48 752.64C968.78 751.38 970.09 750.09 971.4 748.92C972.37 748.06 973.36 747.29 974.38 746.62C976.85 744.76 979.54 743.97 982.22 744.32C983.54 744.64 984.85 745.1 986.14 745.72C986.14 745.97 986.14 746.23 986.14 746.48C987.74 763.03 988.98 776.28 989.29 779.59C991 777.42 992.81 775.51 994.7 773.86C994.35 775.53 994.12 777.27 994.01 779.04C993.93 780.4 993.93 781.78 994.01 783.15C994.13 785.34 994.39 787.75 993.64 789.47C993.19 790.53 992.34 791.13 992.09 792.33C991.91 793.55 991.86 794.82 991.96 796.07C991.85 799.03 990.52 801.39 988.85 801.64C989.62 805.45 988.8 809.69 986.87 811.89C986.33 812.35 985.82 812.94 985.36 813.64C984.91 814.66 984.61 815.85 984.48 817.11C982.75 828.5 979.2 838.77 974.25 846.7C972.39 849.27 970.69 852.19 969.19 855.39C968.26 857.88 967.49 860.54 966.9 863.33C961.67 885.81 957.35 903.82 956.29 908.32C954.3 916.71 952.37 925.24 951.74 934.28C950.17 959.06 937.62 980.08 939.97 1004.68C940.45 1010.83 941.86 1016.63 944.05 1021.49C946.67 1027.03 950.59 1030.2 954.51 1032.78C964.59 1039.68 975.21 1043.45 985.8 1047.24C987.46 1047.84 1000.77 1052.64 1002.43 1053.24C1005.69 1054.56 1009 1055.48 1012.34 1056C1016.35 1056.48 1020.47 1055.82 1024.37 1057.61C1026.79 1058.71 1029.11 1060.76 1031.6 1060.99C1033.75 1061.2 1036.39 1060.39 1037.66 1063.47C1038.92 1066.55 1037.94 1070.62 1039.15 1073.36C1041.08 1077.7 1045.8 1073.36 1047.9 1077.45C1048.48 1079.02 1048.92 1080.73 1049.21 1082.53C1049.53 1083.64 1049.97 1084.63 1050.52 1085.43C1050.65 1086.73 1050.7 1088.04 1050.67 1089.36C1050.4 1094.7 1049.77 1099.96 1048.79 1105.04C1046.44 1119.04 1044.57 1130.27 1044.1 1133.07C1043.5 1136.37 1043.07 1139.76 1042.79 1143.19C1042.69 1144.85 1042.69 1146.53 1042.79 1148.2C1043.07 1153.28 1044.73 1158.52 1047.48 1160.18C1049.62 1161.17 1051.9 1160.68 1053.84 1158.8C1055.71 1157.08 1057.46 1155 1059.07 1152.59C1061.96 1148.74 1064.5 1144.13 1066.61 1138.93C1073.14 1121.73 1071.03 1098.47 1075.61 1079.45C1078.66 1066.76 1084.59 1056.46 1086.57 1043.08C1087.03 1040.53 1087.08 1037.81 1086.72 1035.21C1085.9 1030.62 1083.12 1028 1080.52 1026.34C1080.5 1026.34 1080.41 1026.34 1080.4 1026.34C1078.26 1025 1076.08 1023.9 1073.86 1023.05C1073.31 1022.84 1072.75 1022.68 1072.19 1022.52C1070.95 1020.74 1069.96 1018.48 1069.3 1015.9C1069.2 1014.53 1068.99 1013.2 1068.69 1011.92C1068.26 1010.81 1067.56 1010.13 1066.8 1010.08C1065.5 1009.85 1063.75 1010.68 1062.32 1010.5C1059.41 1010.13 1057.47 1005.09 1054.86 1002.77C1052.24 1000.45 1049.41 1001.03 1046.62 1001.37C1045.63 1001.61 1044.61 1001.5 1043.64 1001.05C1042.48 1000.11 1041.42 998.82 1040.5 997.25C1037.24 992.79 1032.98 991.28 1028.99 993.18C1027.74 994.07 1026.41 994.6 1025.07 994.75C1022.52 994.5 1020.71 990.49 1018.83 987.46C1013.68 979.16 1006.35 976.98 1000.1 971.53C999.15 970.9 998.35 969.69 997.85 968.12C997.13 965 998.76 961.87 1000.22 959.73C1001.29 958.16 1009.89 945.6 1010.96 944.03C1022.73 926.83 1037.43 913.89 1042.9 888.66C1043.47 885.28 1044.35 882.09 1045.51 879.21C1045.93 878.34 1046.42 877.56 1046.96 876.91C1049.34 874.2 1052.22 873.22 1055 874.15C1058.39 875.49 1061.6 877.96 1064.46 881.42C1071.48 888.89 1076.76 895.91 1078.12 897.51C1082.51 903.03 1086.68 909.05 1090.61 915.54C1097.47 927.04 1103.18 940.67 1109.57 953.06C1115.97 965.46 1123.27 977.02 1132.15 982.95C1141.02 988.89 1151.75 988.63 1159.37 978.68C1168.17 967.18 1171 946.63 1173.22 927.77C1178.12 919.45 1179.6 906.78 1181.99 895.58C1183.49 888.48 1185.41 881.79 1187.03 874.71C1188.97 866.38 1190.48 857.78 1192 849.21C1193.72 840.6 1194.89 831.67 1195.48 822.61C1196.11 808.28 1193.92 793.04 1196.21 779.59C1199.23 778.42 1201.97 775.43 1204.94 773.68C1209.36 771.13 1214.09 771.54 1218.77 771.59C1218.8 771.59 1219.04 771.59 1219.07 771.59C1220.68 771.89 1222.31 771.22 1223.67 769.68C1225.24 767.38 1225.49 763.45 1225.57 759.88C1225.75 751.08 1225.44 741.19 1221.69 735.49C1219.82 732.97 1217.63 731.28 1215.31 730.57ZM1032.3 343.29C1031.22 343.76 1030.1 343.9 1028.99 343.7C1028.99 343.7 1032.3 343.29 1032.3 343.29Z" id="bjQmbi0T9"></path><linearGradient id="gradientd1hwcnvaW" gradientUnits="userSpaceOnUse" x1="1057.29" y1="1160.8" x2="1057.29" y2="235.82"><stop style="stop-color: #808080;stop-opacity: 0.25" offset="0%"></stop><stop style="stop-color: #808080;stop-opacity: 0.12" offset="54%"></stop><stop style="stop-color: #808080;stop-opacity: 0.1" offset="100%"></stop></linearGradient><path d="M1032.01 493.82C1031.08 494.4 1023.67 499.08 1022.74 499.66C1017.71 502.83 1012.45 506.03 1007.15 504.88C1004.18 504.23 991.46 500.95 989.54 496.88C986.61 490.58 996.87 481.31 1000.38 476C1001.17 475 1001.91 473.86 1002.57 472.6C1003.88 469.79 1003.71 465.86 1003.53 462.32C1002.86 453.35 1002.63 444.3 1002.85 435.26C1002.95 433.1 1003.12 430.96 1003.37 428.84C1004.68 418.27 1010.27 422.13 1014.69 424.94C1020.01 427.97 1025.15 431.89 1030.05 436.64C1031.54 437.99 1032.84 439.93 1033.84 442.29C1035.77 447.44 1035 454.2 1034.69 460.69C1034.41 465.72 1034.43 470.55 1036.22 474.21C1037.12 475.6 1037.95 477.14 1038.69 478.81C1039.55 482.24 1039.04 486.25 1037.45 488.74C1035.86 491.1 1034.01 492.84 1032.01 493.82Z" id="bs1IqRP7Y"></path><path d="M912.59 292.25C913.7 285.68 915.07 279.27 916.69 273.05C917.27 270.68 921.88 251.76 922.46 249.39C922.99 246.6 923.92 244.1 925.18 242.15C926.52 240.68 928.08 239.95 929.66 240.03C935.29 239.66 941.22 242.75 945.06 250.03C948.9 257.32 950.12 269.12 947.06 277.46C943.4 287.51 935.41 289.53 930.64 298C927.6 303.4 926.12 310.92 925.22 318.34C922.84 337.66 923.63 357.68 922.9 377.41C922.67 383.55 921.99 390.56 918.98 393.73C917.16 395.3 915.14 395.99 913.13 395.74C912.27 395.76 905.41 395.96 904.55 395.99C903.11 395.99 897.9 397.57 896.94 395.67C895.27 392.33 899.09 375.73 899.78 372.03C901.32 363.82 903.22 355.82 905.01 347.75C906.56 340.55 909.43 330.83 909.43 323.03C910.73 312.85 911.02 302.34 912.59 292.25Z" id="b4RfaID1Ej"></path><path d="M1075.52 1081.66C1070.93 1100.63 1073 1123.83 1066.52 1140.98C1064.41 1146.19 1061.87 1150.8 1058.97 1154.66C1057.37 1157.06 1055.62 1159.13 1053.75 1160.84C1051.81 1162.72 1049.53 1163.22 1047.39 1162.22C1044.64 1160.57 1042.98 1155.33 1042.7 1150.27C1042.6 1148.61 1042.6 1146.94 1042.7 1145.28C1042.98 1141.85 1043.41 1138.48 1044.01 1135.18C1046.36 1121.23 1048.23 1110.02 1048.7 1107.23C1049.68 1102.16 1050.31 1096.92 1050.58 1091.59C1050.75 1085.8 1048.66 1078.26 1049.55 1072.85C1049.96 1070.42 1051.47 1068.25 1052.16 1066.21C1053.15 1063.26 1053.9 1060.1 1054.41 1056.8C1055.48 1050.39 1056.22 1043.54 1058.46 1038.13C1059.93 1034.93 1061.65 1032.11 1063.56 1029.74C1064.98 1027.56 1066.63 1025.93 1068.42 1024.94C1070.16 1024.4 1071.95 1024.55 1073.65 1025.37C1075.87 1026.21 1078.05 1027.3 1080.19 1028.64C1080.2 1028.64 1080.3 1028.64 1080.31 1028.64C1082.92 1030.29 1085.69 1032.85 1086.52 1037.49C1086.92 1040.07 1086.9 1042.79 1086.48 1045.35C1084.5 1058.64 1078.57 1068.99 1075.52 1081.66Z" id="c2fDsn1OMq"></path><path d="M1223.66 772.46C1222.29 774 1220.67 774.67 1219.06 774.37C1219.02 774.37 1218.74 774.37 1218.71 774.37C1214.04 774.37 1209.29 773.91 1204.88 776.46C1201.52 778.42 1198.43 782 1194.93 782.72C1190.11 783.68 1185.57 779.04 1181.3 774.99C1177.27 771.18 1173.14 767.72 1168.92 764.64C1166.15 762.64 1160.49 761.36 1159.15 756.02C1158.7 753.5 1158.31 750.93 1158 748.34C1157.78 747.18 1157.52 746.05 1157.21 744.96C1156.42 742.63 1155.92 740.04 1155.74 737.35C1155.75 734.67 1156.27 732.08 1157.23 729.99C1159.38 725.51 1162.47 722.72 1165.79 722.25C1169.09 721.8 1172.4 722.1 1175.65 723.17C1178.87 723.98 1204.61 730.49 1207.83 731.3C1210.31 731.93 1212.81 732.55 1215.25 733.6C1217.58 734.31 1219.76 736 1221.63 738.52C1225.44 744.13 1225.75 754 1225.55 762.69C1225.48 766.25 1225.23 770.23 1223.66 772.46Z" id="c12FgaGeaZ"></path><path d="M1195.46 825.27C1194.87 834.32 1193.71 843.22 1191.99 851.81C1190.47 860.36 1188.96 868.94 1187.02 877.24C1185.4 884.13 1183.48 891.03 1181.98 898.07C1179.58 909.29 1178.05 921.91 1173.2 930.26C1170.98 949.06 1168.16 969.62 1159.36 981.02C1151.72 990.95 1141.06 991.3 1132.13 985.3C1123.21 979.3 1115.95 967.8 1109.56 955.41C1103.17 943.02 1097.46 929.52 1090.59 917.98C1086.66 911.48 1082.48 905.47 1078.08 899.97C1071.44 891.49 1065.79 885.61 1064.43 884.02C1061.56 880.57 1058.35 878.11 1054.96 876.78C1052.18 875.84 1049.3 876.83 1046.92 879.54C1046.38 880.18 1045.89 880.96 1045.47 881.83C1044.31 884.7 1043.42 887.88 1042.86 891.26C1037.37 916.41 1022.64 929.34 1010.87 946.49C1009.8 948.05 1001.2 960.58 1000.13 962.15C998.66 964.28 997.04 967.41 997.76 970.51C998.26 972.08 999.05 973.29 1000.01 973.92C1006.26 979.34 1013.59 981.53 1018.74 989.81C1020.62 992.84 1022.43 996.84 1024.98 997.07C1026.32 996.93 1027.65 996.41 1028.9 995.53C1032.88 993.63 1037.15 995.13 1040.41 999.58C1041.33 1001.15 1042.39 1002.43 1043.55 1003.37C1044.52 1003.82 1045.53 1003.93 1046.53 1003.69C1049.31 1003.35 1052.27 1002.91 1054.77 1005.09C1057.26 1007.28 1059.31 1012.43 1062.23 1012.8C1063.65 1012.98 1065.35 1012.15 1066.71 1012.38C1067.47 1012.43 1068.17 1013.11 1068.59 1014.22C1068.9 1015.49 1069.11 1016.82 1069.21 1018.18C1069.75 1021.42 1071.55 1023.4 1072.73 1026.06C1074.53 1030.16 1074.79 1035.72 1074.61 1040.89C1074.02 1057.07 1069.92 1072.23 1063.16 1083.25C1061.24 1086.7 1058.79 1089.09 1056.11 1090.14C1053.36 1091.15 1050.55 1088.96 1049.13 1084.69C1048.84 1082.9 1048.4 1081.2 1047.82 1079.64C1045.72 1075.57 1041 1079.89 1039.07 1075.54C1037.86 1072.83 1038.73 1068.48 1037.58 1065.68C1036.43 1062.87 1033.66 1063.38 1031.52 1063.22C1029.03 1062.99 1026.71 1060.92 1024.3 1059.84C1020.37 1058.05 1016.27 1058.71 1012.26 1058.23C1008.92 1057.71 1005.61 1056.79 1002.35 1055.47C1000.69 1054.87 987.39 1050.09 985.72 1049.49C975.14 1045.7 964.51 1041.86 954.43 1035.08C950.57 1032.5 946.69 1029.33 943.97 1023.81C941.78 1018.96 940.37 1013.16 939.9 1007.03C937.53 982.49 950.08 961.52 951.66 936.81C952.22 927.8 954.27 919.29 956.21 910.92C961.53 888.48 965.76 870.51 966.82 866.02C967.39 863.23 968.14 860.56 969.04 858.06C970.55 854.86 972.24 851.95 974.1 849.39C979.06 841.49 982.61 831.24 984.34 819.87C984.47 818.61 984.77 817.41 985.21 816.4C985.68 815.72 986.19 815.14 986.73 814.67C988.65 812.47 989.47 808.25 988.7 804.44C990.38 804.2 991.7 801.83 991.81 798.88C991.72 797.63 991.76 796.37 991.94 795.15C992.26 793.96 993.04 793.36 993.5 792.3C994.25 790.58 993.98 788.16 993.87 786C993.79 784.63 993.79 783.26 993.87 781.89C994.15 777.02 995.39 772.48 997.37 769.03C1000.49 763.63 1004.94 765.03 1009.25 763.75C1013.55 762.11 1017.76 759.75 1021.8 756.69C1033.14 748.83 1045.08 743.97 1057.24 742.27C1069.45 740.58 1081.71 744.02 1093.03 752.3C1094.67 753.47 1096.22 755.01 1097.64 756.9C1098.65 758.26 1099.47 759.99 1100.06 761.98C1100.54 764.41 1101.13 766.77 1101.84 769.03C1103.23 772.39 1105.87 773.47 1107.4 776.65C1108.93 779.82 1109.06 785.18 1110.33 789.11C1112.15 794.72 1116.36 797.32 1117.61 803.41C1118 805.34 1118.06 807.45 1118.34 809.46C1119.05 814.47 1121.17 818.42 1123.04 822.38C1129.89 836.79 1134.28 854.33 1135.69 872.96C1136.11 861.3 1140.57 850.98 1146.15 844.54C1147.65 842.82 1149.39 840.91 1149.69 837.78C1150.07 833.83 1147.89 830.31 1148.03 826.29C1148.19 824.32 1148.64 822.46 1149.34 820.91C1151.83 814.55 1154.56 808.51 1157.52 802.81C1159.13 799.71 1160.93 795.91 1160.26 791.82C1159.75 788.76 1157.98 786.97 1157 784.3C1155.83 781.05 1155.88 776.88 1157.13 773.73C1158.04 771.54 1159.49 769.95 1159.94 767.36C1160.45 764.3 1159.31 760.99 1159.66 757.84C1160.14 755.32 1161.09 753.15 1162.36 751.7C1164.09 748.92 1166.06 746.64 1168.2 744.94C1171.65 742.64 1175.49 743.49 1179.15 744.39C1185.27 745.88 1192.13 748.18 1195.58 757.19C1197.79 762.83 1198.92 771.38 1197.27 777.4C1193.35 791.96 1196.17 809.18 1195.46 825.27Z" id="b2g01wLNai"></path><path d="M1223.66 772.46C1222.29 774 1220.67 774.67 1219.06 774.37C1219.02 774.37 1218.74 774.37 1218.71 774.37C1219.24 769.59 1222.55 766.85 1223.12 762C1223.32 758.99 1222.8 755.96 1221.69 753.65C1218.89 747.01 1214.39 743.33 1209.92 740.64C1197.29 733.02 1183.76 731.24 1170.63 735.47C1167.06 736.49 1163.58 738.37 1160.3 741.05C1159.22 742.25 1158.17 743.56 1157.17 744.96C1156.38 742.63 1155.88 740.04 1155.7 737.35C1155.71 734.67 1156.23 732.08 1157.19 729.99C1159.35 725.51 1162.43 722.72 1165.75 722.25C1169.05 721.8 1172.36 722.1 1175.61 723.17C1178.83 723.98 1204.57 730.49 1207.79 731.3C1210.27 731.93 1212.77 732.55 1215.22 733.6C1217.54 734.31 1219.73 736 1221.59 738.52C1225.44 744.13 1225.75 754 1225.55 762.69C1225.48 766.25 1225.23 770.23 1223.66 772.46Z" id="a4W7qhLdH"></path><path d="M1075.52 1081.66C1070.93 1100.63 1073 1123.83 1066.52 1140.98C1064.41 1146.19 1061.87 1150.8 1058.97 1154.66C1057.37 1157.06 1055.62 1159.13 1053.75 1160.84C1051.81 1162.72 1049.53 1163.22 1047.39 1162.22C1044.64 1160.57 1042.98 1155.33 1042.7 1150.27C1042.6 1148.61 1042.6 1146.94 1042.7 1145.28C1042.71 1145.31 1042.77 1145.61 1042.78 1145.65C1043.92 1150.47 1045.77 1155.53 1048.7 1156.38C1050.92 1156.66 1053.11 1155.31 1054.74 1152.64C1059.05 1146.54 1061.56 1137.46 1063.95 1128.7C1065.83 1122.38 1067.31 1115.73 1068.37 1108.86C1068.9 1104.95 1069.14 1100.95 1069.68 1097.04C1072.16 1078.05 1080.62 1062.55 1082.49 1043.31C1082.64 1041.98 1082.68 1040.63 1082.59 1039.28C1082.35 1037.53 1081.97 1035.85 1081.47 1034.27C1081.02 1032.49 1080.68 1030.62 1080.48 1028.71C1083.09 1030.36 1085.86 1032.92 1086.69 1037.56C1087.02 1040.14 1086.95 1042.84 1086.48 1045.35C1084.5 1058.64 1078.57 1068.99 1075.52 1081.66Z" id="bhQgy24i"></path><path d="M1060.84 1026.55C1057.12 1031.53 1052.77 1034.85 1048.15 1036.2C1046 1037.17 1043.75 1037.12 1041.62 1036.07C1038.71 1034.29 1036.62 1029.51 1033.66 1028.13C1031.54 1027.12 1029.26 1028.02 1027.12 1027.47C1023.26 1026.52 1020.27 1021.35 1017.16 1017.21C1007.63 1004.61 995.12 1000.54 985.59 987.94C985.17 987.48 984.82 986.84 984.57 986.08C984.39 985.25 984.32 984.36 984.38 983.48C984.41 975.84 985.39 968.3 987.24 961.39C988.75 956.56 990.56 952.04 992.62 947.89C1001.16 929.5 1009.73 910.97 1019.96 895.45C1024.24 888.94 1028.92 882.87 1034.34 879.93C1037.34 878.29 1043.28 876.75 1046.94 879.51C1046.4 880.16 1045.91 880.93 1045.48 881.81C1044.32 884.68 1043.44 887.86 1042.87 891.24C1037.37 916.41 1022.64 929.34 1010.87 946.49C1009.8 948.05 1001.2 960.58 1000.13 962.15C998.66 964.28 997.04 967.41 997.76 970.51C998.26 972.08 999.05 973.29 1000.01 973.92C1006.26 979.34 1013.59 981.53 1018.74 989.81C1020.62 992.84 1022.43 996.84 1024.98 997.07C1026.32 996.93 1027.65 996.41 1028.9 995.53C1032.88 993.63 1037.15 995.13 1040.41 999.58C1041.33 1001.15 1042.39 1002.43 1043.55 1003.37C1044.52 1003.82 1045.53 1003.93 1046.53 1003.69C1049.31 1003.35 1052.27 1002.91 1054.77 1005.09C1057.26 1007.28 1059.31 1012.43 1062.23 1012.8C1063.68 1012.98 1065.38 1012.11 1066.74 1012.38C1065.53 1017.95 1063.49 1022.84 1060.84 1026.55Z" id="a6NPPeRWN"></path><path d="M940.38 711.19C939.54 715.16 939.93 719.72 938.93 723.58C937.92 727.44 935.66 730.13 935.16 734.27C934.81 737.28 935.5 740.46 935.16 743.47C934.87 745.03 934.63 746.63 934.44 748.25C934.31 751.68 935.99 754.46 937.62 756.37C944.68 764.44 953.49 766.14 961.37 760.96C964.86 758.67 968.01 754.92 971.36 751.97C974.62 748.67 978.35 747.07 982.12 747.38C984.27 747.79 986.34 749.17 988.49 749.68C990.66 750.43 992.89 749.26 994.47 746.55C995.13 744.93 995.58 743.07 995.77 741.1C997.59 728.48 996.77 715.1 995.04 702.4C993.32 689.71 990.7 677.5 988.86 664.88C987.55 655.52 986.55 645.94 984.36 637.08C982.18 628.23 978.51 620 973.37 616.62C972.97 616.27 972.51 616.17 972.06 616.32C971.73 616.56 971.44 616.94 971.21 617.42C967.15 625 964.09 634.06 962.25 643.96C960.19 654.97 959.63 666.65 957.75 677.71C956.94 682.31 955.89 688.47 953.83 691.99C951.76 695.51 948.86 697.69 946.52 700.33C944.04 703.14 941.4 706.31 940.38 711.19Z" id="bQUE6ZcWq"></path><path d="M994.44 746.48C992.87 749.2 990.63 750.36 988.47 749.58C986.32 749.12 984.26 747.72 982.1 747.28C978.34 746.98 974.61 748.57 971.34 751.88C968 754.83 964.81 758.48 961.35 760.85C956.28 764.23 950.74 764.78 945.49 762.44C942.7 761.2 940.05 759.15 937.65 756.37C936 754.48 934.34 751.77 934.47 748.25C934.65 746.64 934.89 745.05 935.19 743.49C935.53 740.48 934.85 737.31 935.19 734.29C935.69 730.16 937.96 727.4 938.95 723.58C939.95 719.76 939.57 715.19 940.39 711.21C941.41 706.31 944.06 703.16 946.55 700.33C949.03 697.51 951.99 695.35 953.97 691.92C954.23 691.39 954.46 690.82 954.67 690.22C956.1 686.33 957.15 682.05 957.78 677.55C959.7 666.47 960.22 654.81 962.26 643.77C964.11 633.88 967.18 624.83 971.24 617.26C971.46 616.77 971.75 616.39 972.08 616.16C972.52 616 972.98 616.1 973.38 616.44C978.51 619.84 982.18 628.07 984.38 636.92C986.57 645.77 987.5 655.32 988.87 664.7C990.7 677.32 993.33 689.57 995.06 702.24C996.78 714.91 997.63 728.38 995.81 741.03C995.59 743.01 995.13 744.87 994.44 746.48Z" id="a93ME1461"></path><path d="M1002.85 435.33C1002.95 433.17 1003.12 431.03 1003.37 428.91C1004.68 418.34 1010.27 422.2 1014.69 425C1020.01 428.04 1025.15 431.96 1030.05 436.71C1031.54 438.06 1032.84 439.99 1033.84 442.36C1035.77 447.44 1035 454.2 1034.69 460.62C1021.96 467.73 1008.23 456.83 1002.85 435.33Z" id="dMHmVRDBq"></path><path d="M1026.79 368.51C1012.35 368.51 1000.65 389.1 1000.65 414.5C1000.65 439.89 1012.35 460.48 1026.79 460.48C1041.23 460.48 1052.94 439.89 1052.94 414.5C1052.94 389.1 1041.23 368.51 1026.79 368.51Z" id="a40iFdSNK"></path><path d="M1092.61 762.97C1084.76 762.16 1077.09 758.37 1069.33 759.52C1059.51 761.08 1050.49 770.62 1040.65 771.5C1036.86 771.84 1033 770.85 1029.26 772.07C1024.43 773.66 1020.11 778.83 1015.19 779.57C1010.91 780.21 1006.69 777.38 1002.42 777.68C999.43 777.99 996.51 779.45 993.88 781.96C994.17 777.09 995.4 772.55 997.38 769.1C1000.51 763.7 1004.95 765.1 1009.26 763.82C1013.57 762.18 1017.77 759.82 1021.81 756.76C1033.15 748.9 1045.1 744.04 1057.25 742.34C1069.45 740.63 1081.72 744.05 1093.03 752.3C1094.67 753.47 1096.22 755.01 1097.64 756.9C1097.71 757.3 1097.74 757.72 1097.73 758.14C1097.73 761.95 1094.79 763.17 1092.61 762.97Z" id="ao9892Nxv"></path><path d="M1004.11 491.57C1001.43 489.83 999.94 488.86 999.64 488.67C997.82 487.33 995.9 486.43 993.94 486C988.82 485.31 984 491.31 981.27 498.97C978.53 506.63 977.5 515.75 976.63 524.65C974.82 542.91 973.87 557.64 973.57 561.3C972.67 572.37 972.21 583.55 972.19 594.73C972.49 623.2 975.92 651.27 979.68 678.97C981.53 691.26 982.92 703.74 983.85 716.34C984.17 721.53 984.31 726.75 984.63 731.97C984.96 737.83 985.51 743.63 986.06 749.45C986.38 752.75 988.9 779.18 989.21 782.49C993.13 777.59 997.59 773.29 1002.42 773.04C1006.69 772.76 1010.92 775.56 1015.19 774.92C1020.09 774.21 1024.43 769.03 1029.26 767.45C1033 766.23 1036.86 767.2 1040.66 766.87C1050.49 766 1059.52 756.44 1069.33 754.89C1077.1 753.65 1084.83 757.52 1092.62 758.32C1094.79 758.55 1097.73 757.33 1097.73 753.49C1097.73 750.83 1096.21 749.05 1094.89 747.72C1088.67 741.13 1082.75 733.7 1077.18 725.49C1072.03 718.31 1066.8 710.96 1063.26 701.25C1054.73 677.92 1057.65 646.35 1050.37 621.72C1044.45 601.72 1050.37 575.51 1050.37 552.96C1050.37 541.71 1050.37 530.33 1048.87 519.41C1047.93 513.3 1046.76 507.31 1045.37 501.48C1044.86 499.21 1040.79 481.09 1040.28 478.83C1040.18 478.17 1039.97 477.57 1039.68 477.1C1039.34 476.69 1038.93 476.47 1038.52 476.48C1035.46 476.16 1032.45 477.86 1030.07 481.24C1027.68 484.67 1026.15 489.59 1023.8 493.15C1021.22 497.08 1017.9 500.53 1014.7 498.46C1013.29 497.54 1009.76 495.24 1004.11 491.57Z" id="b3Qn83Y1HT"></path><path d="M1035.92 467.63C1038.31 462.71 1042.67 460.11 1045.76 463.63C1049.26 467.63 1049.41 476.87 1052.4 482.02C1055.01 486.44 1058.94 486.78 1062.49 487.36C1068.88 488.38 1075.16 490.98 1081.14 495.08C1082.31 495.72 1083.37 496.84 1084.24 498.35C1085.88 501.61 1085.55 506.63 1086.36 510.7C1087.47 515.94 1090.54 519.27 1091.73 524.49C1093.04 530.28 1091.73 536.77 1090.63 542.72C1088.66 553.41 1087.42 564.52 1085.5 575.26C1083.57 585.99 1080.84 596.57 1076.35 604.66C1074.36 608.25 1071.41 611.56 1068.79 609.42C1068.69 610.7 1067.89 620.91 1067.78 622.18C1067.49 624.88 1067.49 627.65 1067.78 630.35C1068.09 633.1 1069.27 635.3 1070.82 636C1071.01 637.98 1072.2 638.92 1073.17 640C1076.15 643.59 1076.91 650.74 1074.88 655.98C1074.86 656.02 1074.85 656.06 1074.83 656.1C1074.01 658.05 1072.79 659.59 1072.4 661.91C1071.81 665.27 1073.21 668.81 1074.91 670.65C1076.61 672.49 1078.61 673.34 1080.33 675.11C1083.91 678.74 1085.84 685.9 1087.06 692.84C1087.98 698.08 1088.74 703.76 1090.99 707.58C1091.85 709.03 1092.88 710.13 1093.7 711.65C1095.13 714.61 1095.95 718.32 1096.04 722.2C1096.4 727.01 1095.8 731.88 1094.35 736C1091.73 742.57 1086.86 744.53 1082.58 747.49C1075.64 752.5 1069.93 761.47 1063.81 769.1C1061.32 772.63 1058.38 775.06 1055.25 776.19C1051.01 777.17 1046.84 773.89 1042.58 773.59C1040.03 773.63 1037.5 774.22 1035.03 775.33C1034.24 775.63 1027.97 778.02 1027.19 778.32C1027.6 767.63 1024.26 756.92 1022.39 746.73C1018.86 727.56 1018.21 707.05 1019.04 686.95C1019.88 666.86 1022.2 647.04 1024.51 627.31C1026.11 613.52 1025.96 599.1 1028.43 585.7C1030.74 572.8 1034.05 560.4 1035.26 546.98C1037.25 525.25 1028.99 506.83 1031.79 485.4C1032.62 479.1 1033.52 472.55 1035.92 467.63Z" id="bafzCy614"></path><path d="M1092.75 535.39C1093.36 539.44 1094.49 543.19 1096.06 546.33C1097.37 548.37 1098.54 550.69 1099.53 553.23C1100.74 557.23 1100.28 562.11 1100.84 566.47C1101.5 571.23 1103.39 575.37 1103.67 580.27C1103.67 581.67 1103.75 583.07 1103.89 584.45C1104.74 590.02 1109.39 591.35 1110.42 596.92C1111.12 600.53 1109.93 604.46 1110.15 608.25C1110.31 609.42 1110.35 610.64 1110.27 611.84C1109.97 613.19 1109.45 614.36 1108.78 615.19C1104.45 622.46 1101.46 631.84 1100.18 642.12C1098.92 652.34 1098.25 662.77 1098.2 673.23C1097.69 672.04 1093.6 662.53 1093.09 661.34C1092.55 659.9 1091.86 658.65 1091.05 657.66C1090.4 656.97 1089.64 656.63 1088.97 655.94C1087.04 654.01 1086.28 649.91 1085.54 646.23C1083.47 636.05 1080.37 626.61 1076.39 618.37C1074.31 614.07 1071.89 609.75 1071.43 604.16C1071.29 601.59 1071.37 599 1071.67 596.48C1072.97 581.42 1074.37 565.99 1078.54 552.63C1080.49 546.38 1083.01 540.72 1084.88 534.38C1086.14 530.17 1087.9 519.23 1091.25 527.92C1091.97 530.25 1092.48 532.77 1092.75 535.39Z" id="a19W7ymJzK"></path><path d="M961.49 547.9C960.47 549.97 958.87 550.86 957.36 550.2C955.87 549.54 954.47 548.38 953.23 546.79C947.76 540.72 943.39 535.85 942.3 534.63C940.27 532.47 938.31 530.11 936.43 527.55C933.56 523.29 930.97 518.5 928.68 513.27C922.33 499.48 916.71 484.51 909.64 471.88C907.71 468.44 905.71 465.13 903.86 461.52C901.32 456.3 898.99 450.78 896.88 445.01C894.84 439.7 892.72 433.81 893.07 427.46C893.28 423.88 894.26 420.57 894.55 417C894.84 413.44 894.07 409.09 892.11 408.13C891.87 408.03 891.64 407.96 891.4 407.92C891.01 407.85 890.63 407.7 890.26 407.48C888.45 406.15 888.72 401.21 890.03 398.61C891.34 396.01 893.27 394.56 894.46 391.71C895.01 390.02 895.63 388.4 896.32 386.86C897.19 385.54 898.24 384.62 899.36 384.17C906.9 380.26 914.88 379.73 922.56 382.63C923.87 383.14 925.36 384.06 925.75 386.29C925.91 387.37 925.91 388.51 925.75 389.6C925.18 394.13 924.84 398.75 924.76 403.39C924.76 404.36 924.79 405.33 924.85 406.29C925.46 416.04 929.06 424.29 932.56 431.9C936.72 440.96 940.94 449.95 945.18 458.92C947.47 464.11 950.03 468.92 952.82 473.29C955.44 477.1 958.82 480.19 960.86 485.08C962.52 489.04 961.99 494.44 962.17 499.2C962.78 513.57 962.82 528 962.3 542.38C962.32 544.31 962.04 546.22 961.49 547.9Z" id="eiNtyAl3c"></path><path d="M1131.78 631.06C1132.88 627.83 1133.76 624.38 1134.4 620.78C1135.15 617 1141.22 586.74 1141.98 582.96C1143.18 576.98 1144.38 570.98 1145.9 565.16C1147.47 558.89 1149.32 552.84 1151.04 546.77C1155.44 530.8 1158.85 514.03 1161.19 496.76C1161.6 494.39 1161.74 491.9 1161.6 489.43C1161.23 485.45 1159.52 482.35 1157.88 479.52C1156.24 476.4 1154.37 473.67 1152.32 471.43C1150.23 469.15 1147.72 468.44 1145.34 469.45C1141.99 471.17 1139.89 477.2 1139.11 483.24C1138.34 489.29 1138.63 495.47 1138.3 501.64C1137.83 510.47 1136.11 519 1135.69 527.85C1135.47 532.97 1135.69 538.15 1135.34 543.25C1134.69 549.96 1133.36 556.4 1131.42 562.27C1127.17 576.25 1121.43 588.66 1114.51 598.82C1112.62 601.28 1110.91 604.17 1109.44 607.4C1108.21 610.63 1107.38 614.28 1107 618.11C1106.13 623.95 1106.51 630.14 1108.06 635.52C1110.19 641.91 1114.28 644.72 1118.19 646.14C1123.47 648.07 1124.68 644.9 1128.3 638.3C1129.6 636.09 1130.76 633.67 1131.78 631.06Z" id="b5jZmEfav6"></path><path d="M1026.95 347.87C1029.25 340.26 1033.91 335.82 1038.79 336.58C1043.7 338.1 1047.68 344.4 1049.07 352.81C1049.68 356.23 1049.93 360.03 1051 362.97C1052.62 367.41 1055.63 368.7 1057.88 371.92C1060.59 376.35 1062.17 382.51 1062.27 389.02C1062.39 395.6 1061.8 402.17 1060.53 408.36C1059.99 411 1059.55 413.7 1059.22 416.45C1058.96 419.12 1058.94 421.83 1058.7 424.5C1058.11 431.48 1055.95 437.76 1052.7 441.9C1052.24 442.56 1051.67 442.93 1051.08 442.94C1050.06 442.73 1049.43 440.64 1049.05 438.75C1046.98 428.2 1047.47 415.3 1043.64 406.89C1041.9 403.49 1039.79 400.73 1037.45 398.77C1036.49 397.68 1035.41 396.97 1034.28 396.68C1032.63 396.83 1031.03 397.86 1029.71 399.62C1026.95 402.88 1023.89 405.26 1020.66 406.66C1017.4 408.01 1013.97 406.71 1011.32 403.12C1009.51 400.49 1008.19 396.56 1006.19 394.52C1004.19 392.47 1002.1 392.59 1000.13 391.18C995.56 387.77 993.44 378.49 995.38 370.47C995.67 369.26 996.04 368.13 996.49 367.09C997.8 364.33 999.74 362.76 1000.9 359.71C1002.4 355.75 1002.27 350.33 1002.99 345.59C1003.85 339.51 1006.33 334.54 1009.64 332.23C1012.87 330.3 1016.43 331.62 1018.95 335.66C1020.26 337.73 1021.3 340.39 1022.58 342.55C1025.15 346.88 1028.8 348.61 1032.26 347.15" id="aUvPQj0Vg"></path><path d="M1047.05 696.04C1047.34 697.12 1060.83 692.54 1062.26 692.2C1065.81 691.3 1072.05 691.74 1074.44 686.01C1078.7 675.87 1065.5 678.12 1063.08 678.49C1058.48 679.18 1051.94 680.29 1048.44 686.29C1046.88 688.73 1046.33 692.59 1047.05 696.04Z" id="o1ZmfrCIH"></path><path d="M924.73 403.48C920.81 404.89 916.73 402.59 912.97 400.29C911.89 399.64 903.24 394.45 902.16 393.8C900.79 392.27 898.99 392.86 898.03 395.16C896.29 398.33 893.9 404.36 891.49 407.92C891.11 407.85 890.72 407.7 890.35 407.48C888.54 406.15 888.81 401.21 890.12 398.61C891.43 396.01 893.36 394.56 894.55 391.71C895.1 390.02 895.72 388.4 896.41 386.86C897.28 385.54 898.33 384.62 899.45 384.17C906.99 380.26 914.97 379.73 922.65 382.63C923.96 383.14 925.45 384.06 925.84 386.29C925.97 387.42 925.93 388.59 925.73 389.69C925.15 394.22 924.82 398.84 924.73 403.48Z" id="gKzTLzang"></path><path d="M924.73 403.48C920.81 404.89 916.73 402.59 912.97 400.29C911.89 399.64 903.24 394.45 902.16 393.8C900.79 392.27 898.99 392.86 898.03 395.16C896.29 398.33 893.9 404.36 891.49 407.92C891.11 407.85 890.72 407.7 890.35 407.48C888.54 406.15 888.81 401.21 890.12 398.61C891.43 396.01 893.36 394.56 894.55 391.71C895.1 390.02 895.72 388.4 896.41 386.86C897.28 385.54 898.33 384.62 899.45 384.17C906.99 380.26 914.97 379.73 922.65 382.63C923.96 383.14 925.45 384.06 925.84 386.29C925.97 387.42 925.93 388.59 925.73 389.69C925.15 394.22 924.82 398.84 924.73 403.48Z" id="a7Bx0rWwby"></path><path d="M1029.17 832.22C1028.16 831.77 1023.12 829.51 1014.04 825.46C1009.33 823.35 1006.72 822.17 1006.19 821.94C1004.81 821.32 999.84 820.61 998.92 818.7C997.62 815.89 1002.26 817.82 1003.09 818.03C1005.63 818.7 1008.17 819.39 1010.69 820.19C1015.45 821.69 1020.02 824.15 1024.61 826.19C1026.49 827.3 1028.53 828.91 1029.17 832.22Z" id="b1ZqEESwHQ"></path><path d="M1023.81 847.74C1021.46 846.75 1019.15 845.44 1016.83 844.17C1012.14 841.48 1007.49 838.43 1002.66 836.45C1001.77 836.1 998.74 836.01 998.89 834.03C999.03 832.06 1001.92 831.37 1002.64 831.27C1006.91 830.72 1012.24 834.24 1016.22 836.75C1021.28 839.94 1026.08 844.31 1030.48 849.76C1029.17 848.22 1025.42 848.4 1023.81 847.74Z" id="a15OoPSY7i"></path><path d="M1006.79 796.63C1005.51 796.71 1004.24 796.03 1003.2 794.69C1002.62 793.69 1002.21 792.41 1002.04 791.02C1005.34 790.72 1009.19 793.18 1012.19 795.5C1013.85 796.75 1015.44 798.24 1016.95 799.96C1018.05 801.13 1019.7 804.51 1020.88 805.18C1016.09 802.88 1011.73 797.64 1006.79 796.63Z" id="aos3CWzIN"></path><path d="M1128.36 643.75C1127.72 649.2 1124.51 652.21 1122.25 656.1C1119.06 661.55 1117.42 669.71 1113.65 673.85C1109.46 678.45 1104.06 676.65 1099.27 674.72C1098.84 674.64 1098.44 674.27 1098.15 673.69C1098.05 673.41 1097.98 673.11 1097.94 672.79C1096.36 662.6 1095.33 651.73 1096.95 641.52C1098.25 632.83 1101.39 625.43 1103.9 617.75C1106.41 610.07 1106.65 601.84 1112.33 599.31C1110.66 619.07 1117.48 638 1128.36 643.75Z" id="c15un2BvCQ"></path><path d="M981.08 475.17C978.15 478.12 975.15 482.07 971.8 481.36C969.83 480.97 967.88 479.06 965.96 479.98C964.88 480.75 963.87 481.8 962.97 483.11C962.04 484.41 960.79 484.76 959.67 484.02C959.54 487.21 958.5 512.66 958.36 515.85C957.87 527.94 957.38 540.29 959.03 552.08C959.88 558.11 961.75 563.58 961.96 569.69C962.17 575.81 961.85 582.09 962.1 588.27C962.34 594 963.06 599.63 963.24 605.35C963.61 616.16 962.09 626.87 960.63 637.38C958.42 652.88 957.08 668.72 952.78 682.75C951.58 686.63 950.17 690.59 950.17 695C950.17 695.55 950.17 696.08 950.25 696.61C948.94 697.87 947.72 699.07 946.61 700.31C944.13 703.14 941.48 706.29 940.46 711.19C939.63 715.16 940.01 719.72 939.02 723.56C938.03 727.4 935.75 730.13 935.25 734.27C934.9 737.28 935.58 740.46 935.25 743.47C934.96 745.03 934.72 746.62 934.54 748.23C934.41 751.68 936.07 754.46 937.71 756.34C940.11 759.13 942.77 761.18 945.55 762.41C946.08 758.78 948.68 740.62 953.36 707.92C953.36 707.92 953.36 707.92 953.36 707.92C960.47 684.78 966.39 660.57 971.04 635.57C972.37 627.39 974.08 619.43 976.15 611.75C977.63 607.4 978.94 602.88 980.08 598.23C981.27 592.43 981.38 586.16 981.96 580.04C982.64 572.9 983.67 565.88 985.03 559.05C986.44 551.67 988.08 544.31 988.36 536.56C988.79 525.48 986.51 513.78 988.94 503.52C989.97 499.68 991.31 496.13 992.93 492.97C996.3 485.7 999.37 478.09 1002.74 470.83C1000.99 467.54 998.08 467.19 995.46 467.47C990.4 468.12 985.49 470.75 981.08 475.17Z" id="a7W18DkRe"></path><path d="M1030.66 340.51C1030.55 340.65 1030.49 340.72 1030.48 340.74C1031.09 340.69 1031.7 340.55 1032.3 340.3C1032.08 340.33 1031.53 340.4 1030.66 340.51Z" id="ayFQ5Q7BY"></path><path d="M1060.53 401.46C1059.99 404.1 1059.55 406.81 1059.22 409.55C1058.96 412.22 1058.94 414.93 1058.7 417.6C1058.11 424.59 1055.95 430.86 1052.7 435.01C1052.24 435.66 1051.67 436.03 1051.08 436.04C1050.06 435.83 1049.43 433.74 1049.05 431.86C1046.98 421.3 1047.47 408.4 1043.64 399.99C1041.9 396.59 1039.79 393.84 1037.45 391.87C1036.49 390.79 1035.41 390.07 1034.28 389.78C1032.63 389.94 1031.03 390.96 1029.71 392.72C1026.95 395.98 1023.89 398.36 1020.66 399.76C1017.4 401.12 1013.97 399.82 1011.32 396.22C1009.51 393.6 1008.19 389.67 1006.19 387.62C1004.19 385.57 1002.1 385.69 1000.13 384.29C997.63 382.41 995.75 378.63 995.03 374.03C994.98 373.74 994.95 373.45 994.93 373.16C994.6 375.72 994.63 378.39 995.03 380.93C995.75 385.53 997.63 389.31 1000.13 391.18C1002.1 392.59 1004.32 392.61 1006.19 394.52C1008.06 396.42 1009.51 400.49 1011.32 403.12C1013.97 406.71 1017.4 408.01 1020.66 406.66C1023.89 405.26 1026.95 402.88 1029.71 399.62C1031.03 397.86 1032.63 396.83 1034.28 396.68C1035.41 396.97 1036.49 397.68 1037.45 398.77C1039.76 400.77 1041.84 403.55 1043.55 406.96C1047.38 415.37 1046.88 428.27 1048.96 438.82C1049.34 440.73 1049.97 442.8 1050.99 443.01C1051.62 443.01 1052.22 442.62 1052.7 441.9C1055.97 437.75 1058.13 431.44 1058.71 424.43C1058.95 421.76 1058.97 419.05 1059.24 416.38C1059.57 413.63 1060 410.93 1060.54 408.29C1061.82 402.1 1062.41 395.53 1062.28 388.95C1062.26 388.68 1062.23 388.35 1062.2 388.03C1061.93 392.6 1061.37 397.11 1060.53 401.46Z" id="dsTVLwbv"></path><path d="M979.5 572.52C978.97 585.12 978.67 592.11 978.61 593.51C978.48 596.36 975.38 664.24 952.54 743.56C932.93 811.59 894.77 900.2 822.74 950.01C817.12 953.91 811.28 957.56 805.23 960.95C801.19 938.6 798.94 926.19 798.49 923.7C815.42 914.33 831.73 901.78 847.14 886.27C883.86 848.98 912.41 795.75 932.31 727.26C942.88 690.79 950.4 651.84 954.67 611.61C949.2 611.61 921.88 611.61 872.71 611.61L872.71 572.52L979.5 572.52Z" id="j5rWsWBEp7"></path><path d="M943.7 743.61C966.55 664.28 969.66 596.46 969.78 593.56C969.84 592.16 970.13 585.16 970.66 572.57L979.81 572.57C979.28 585.16 978.99 592.16 978.93 593.56C978.81 596.41 975.7 664.28 952.85 743.61C933.24 811.64 895.09 900.23 823.06 950.03C817.44 953.94 811.6 957.59 805.55 961C805.02 958.06 804.72 956.43 804.66 956.1C807.81 954.12 810.9 952.1 813.91 950.03C887.37 857.77 930.64 788.96 943.7 743.61Z" id="c1cbWuihys"></path><path d="M662.97 960.95C653.88 955.85 647.2 951.08 645.45 949.98C573.43 900.18 535.26 811.59 515.67 743.56C492.82 664.24 489.71 596.41 489.59 593.51C489.53 592.11 489.23 585.12 488.7 572.52L595.44 572.52L595.44 611.61C546.26 611.61 518.94 611.61 513.47 611.61C517.76 651.85 525.3 690.8 535.89 727.26C555.8 795.75 584.33 848.98 621.05 886.25C636.46 901.77 652.77 914.33 669.71 923.7C668.36 931.15 663.64 957.23 662.97 960.95Z" id="g1FwbvHjF1"></path><path d="M524.48 743.61C501.63 664.28 498.52 596.46 498.4 593.56C498.34 592.16 498.04 585.16 497.51 572.57L488.36 572.57C488.89 585.16 489.19 592.16 489.25 593.56C489.37 596.41 492.48 664.28 515.33 743.61C534.93 811.64 573.09 900.23 645.11 950.03C650.73 953.94 656.57 957.59 662.63 961C663.16 958.06 663.46 956.43 663.52 956.1C660.37 954.12 657.29 952.1 654.26 950.03C580.8 857.77 537.54 788.96 524.48 743.61Z" id="g1eowcvUzz"></path><path d="M857.4 1283.76L857.4 1494.53L610.79 1494.53L610.79 1283.76C615.49 1272.72 618.11 1266.59 618.63 1265.37C698.55 1215.47 714.74 1085.36 717.97 1033.88C718.45 1026.77 718.73 1019.62 718.79 1012.45C721.84 1012.45 746.24 1012.45 749.29 1012.45C749.36 1019.62 749.63 1026.77 750.11 1033.88C753.39 1085.36 769.59 1215.52 849.45 1265.37C850.51 1267.82 853.16 1273.95 857.4 1283.76Z" id="m3JqHGzlRu"></path><path d="M857.4 1283.76C857.4 1283.76 857.4 1283.76 857.4 1283.76C857.4 1299.62 857.4 1308.44 857.4 1310.2C857.4 1310.2 857.4 1310.2 857.4 1310.2C709.43 1310.2 627.23 1310.2 610.79 1310.2C610.79 1310.2 610.79 1310.2 610.79 1310.2C610.79 1294.34 610.79 1285.52 610.79 1283.76C610.79 1283.76 610.79 1283.76 610.79 1283.76C758.76 1283.76 840.96 1283.76 857.4 1283.76Z" id="a6CwtbQLA"></path><path d="M631.7 1265.37C711.62 1215.47 727.81 1085.36 731.04 1033.88C731.52 1026.77 731.8 1019.62 731.87 1012.45C730.56 1012.45 720.1 1012.45 718.79 1012.45C718.73 1019.62 718.45 1026.77 717.97 1033.88C714.69 1085.36 698.49 1215.52 618.63 1265.37C618.11 1266.59 615.49 1272.72 610.79 1283.76L610.79 1494.53L623.86 1494.53L623.86 1283.76C628.04 1273.95 630.65 1267.82 631.7 1265.37Z" id="b24riETH33"></path><path d="M595.44 572.52L595.44 611.61C583.35 611.61 576.63 611.61 575.28 611.61C574.49 598.73 573.84 585.7 573.32 572.52L595.44 572.52Z" id="f34qCx0WWZ"></path><path d="M662.97 960.95C653.88 955.85 647.2 951.08 645.45 949.98C636.21 930.12 628.04 908.78 621.05 886.25C636.46 901.77 652.77 914.33 669.71 923.7C668.36 931.15 663.64 957.23 662.97 960.95Z" id="d1gOCdWlGv"></path><path d="M798.48 923.7C815.41 914.33 831.72 901.78 847.13 886.27C840.14 908.81 831.97 930.16 822.72 950.03C817.1 953.94 811.27 957.59 805.22 960.97C801.62 941.1 799.38 928.67 798.48 923.7Z" id="an0wTaCRA"></path><path d="M894.85 572.52C894.34 585.7 893.68 598.73 892.89 611.61L872.75 611.61L872.75 572.52C884.54 572.52 891.9 572.52 894.85 572.52Z" id="d1iZvzuWaQ"></path><path d="M718.02 1033.88C718.5 1026.77 718.78 1019.62 718.85 1012.45C721.9 1012.45 746.29 1012.45 749.34 1012.45C749.41 1019.62 749.68 1026.77 750.17 1033.88C739.55 1037.5 728.64 1037.5 718.02 1033.88Z" id="g1tZgekgUy"></path><path d="M575.94 507.78C576.5 797.61 647.09 1032 734.1 1032C821.12 1032 891.69 797.61 892.26 507.78C829 507.78 639.2 507.78 575.94 507.78Z" id="bbVE9TEvO"></path><path d="M575.94 507.78C576.5 797.61 647.09 1032 734.1 1032C738.81 1031.98 743.51 1031.28 748.15 1029.9C667.71 1006.27 604.58 781.84 604.04 507.78C598.42 507.78 578.75 507.78 575.94 507.78Z" id="m48rjS6kf"></path><path d="M817.97 1364.44C817.97 1364.44 817.97 1364.44 817.97 1364.44C817.97 1409.96 817.97 1435.25 817.97 1440.31C817.97 1440.31 817.97 1440.31 817.97 1440.31C717.32 1440.31 661.41 1440.31 650.22 1440.31C650.22 1440.31 650.22 1440.31 650.22 1440.31C650.22 1394.79 650.22 1369.5 650.22 1364.44C650.22 1364.44 650.22 1364.44 650.22 1364.44C750.87 1364.44 806.78 1364.44 817.97 1364.44Z" id="aWxmI620K"></path><path d="M817.97 1374.78L817.97 1364.44L650.22 1364.44L650.22 1440.31L658.07 1440.31L658.07 1374.78L658.07 1374.78L817.97 1374.78Z" id="h40RIbJROQ"></path><path d="M464.34 749.91C462.99 738.71 473.73 634.39 473.73 634.39C473.73 634.39 472.74 634.39 471.12 634.05C471.12 633.94 471.12 633.38 471.12 632.37C472.45 550.15 473.18 504.47 473.33 495.34C473.33 495.34 482.39 403.37 465.28 408.73C465.28 408.73 458.9 495.34 458.9 495.34C458.9 495.34 456.95 536.58 455.58 548.95C454.27 560.89 448.28 609.49 452.36 624.6C452.51 625.14 452.68 625.66 452.86 626.16C452.86 626.16 452.86 626.16 452.86 626.16C452.86 626.16 453.54 678.01 446.15 685.09C439.11 691.83 436.18 725.74 435.93 728.78C435.91 728.76 435.78 728.67 435.55 728.5C435.55 728.5 435.55 728.5 435.55 728.5C433.45 726.18 431.6 723.22 430.1 719.74C429.95 719.39 429.83 719.03 429.68 718.66C439.66 698.92 439.32 669.01 428.91 649.98C426.58 645.72 423.84 642.2 420.82 639.59C420.73 635.2 420.14 630.88 419.08 626.9C415.68 614.11 396.86 597.4 383.49 597.01C377.32 596.69 372.26 599.77 370.42 608.25C369.48 612.55 369.77 617.45 369.37 621.91C368.59 631.11 365.23 638.3 360.92 644.03C359.17 640.61 357.29 637.42 355.28 634.49C350.92 628.6 342.21 609.19 342.21 609.19C342.21 609.19 315.04 559.69 313.02 546.13C311.01 532.56 283.86 451.1 277.82 465.29C271.78 479.47 298.62 541.3 298.62 541.3C298.62 541.3 303.72 563.76 307.64 571.35C311.56 578.94 341.62 655.73 341.62 655.73C341.77 656.25 342.92 660.45 343.06 660.97C336.71 666.86 330.9 674.35 328.85 686.03C325.85 703.23 332.42 720.52 336.97 736.62C345.83 768.02 347.1 808.08 335.66 836.77C325.41 862.11 307.64 874.15 291 884.69C299.03 895.79 309.02 901.61 319.23 901.17C315.39 920.76 301.77 927.24 290.16 930.88C296.25 941.18 304.97 944.92 313.34 947.2C317.43 948.43 321.59 949 325.74 948.93C325.81 948.93 326.15 948.93 326.76 948.93C327.37 948.84 327.71 948.8 327.78 948.79C329.2 948.62 330.61 948.31 332 947.84C338.04 945.68 343.91 939.89 346.99 930.51C349.61 922.48 350.52 911.54 355.27 907.52C356.5 906.54 357.84 905.98 359.19 905.88C359.18 905.88 359.06 905.88 359.05 905.88C359.94 905.88 360.85 905.88 361.74 905.88C363.72 905.92 379.54 906.19 381.52 906.23C382.34 906.23 383.19 906.23 384.04 906.23C389.62 906 395.58 904.3 398.42 896.18C399.58 892.24 400.2 887.86 400.21 883.42C400.63 872.41 400.21 861.07 400.38 849.97C402.06 870.18 403.83 901.68 399.63 913.31C396.22 922.13 392.09 930.01 387.37 936.69C386.18 938.45 385.1 940.4 384.13 942.53C383.49 943.34 383.11 943.77 383.11 943.77C383.07 943.99 382.75 945.7 382.71 945.91C381.22 949.89 380.14 954.29 379.52 958.93C379.29 960.12 379.2 961.38 379.27 962.63C379.73 964.26 376 971 377.08 973.83C367.78 993.02 366.01 1022.11 366.01 1022.11C364.31 1026.65 350.72 1062.96 349.02 1067.5C340.29 1107.85 327.22 1111.99 327.22 1111.99C327.22 1111.99 296.51 1075.75 295.68 1073.98C294.84 1072.21 283.1 1063.36 283.1 1063.36C281.72 1059.09 279.61 1055.69 277.06 1053.65C273.04 1050.71 272.7 1039.86 272.7 1039.86C272.2 1014.22 263.64 1012.27 263.64 1012.27C256.74 1011.23 251.47 1013.4 247.42 1017.35C247.29 1017.37 246.31 1017.49 246.19 1017.51C240.25 1018.36 233.12 1019.3 225.28 1020.22C203.46 1022.75 198.27 1047.61 198.27 1047.61C198.27 1047.61 195.59 1052.92 199.11 1058.67C202.62 1064.41 225.13 1058.67 226.09 1058.53C224.37 1058.86 222.64 1058.65 220.96 1057.91C224.5 1057.68 229.38 1057.45 233.54 1057.45C233.64 1057.45 234.44 1057.45 234.54 1057.45C234.28 1061.32 234.15 1065.22 234.16 1069.13C234.16 1076.49 245.73 1081.2 245.73 1081.2C249.25 1086.72 277.44 1130.86 280.96 1136.38C280.96 1136.38 303.1 1153.78 317.19 1178.82C331.28 1203.86 343.74 1182.25 343.74 1182.25C358.65 1175.77 401.57 1084.51 401.61 1084.42C401.61 1084.42 401.61 1084.42 401.61 1084.42C401.61 1087.08 402.51 1175.83 404.22 1193.65C404.22 1193.65 404.22 1193.65 404.22 1193.65C404.29 1194.56 404.42 1195.44 404.6 1196.3C406.61 1203.95 403.92 1224.88 402.76 1233.71C402.01 1241.09 401.73 1248.6 401.91 1256.1C401.91 1256.1 385.82 1364.16 387.15 1373.66C387.15 1373.66 378.43 1427.28 378.43 1427.28C378.43 1429.73 378.43 1441.99 378.43 1464.06C379.48 1463.97 380.07 1463.91 380.18 1463.9C379.95 1464.5 379.75 1465.11 379.56 1465.74C379.54 1465.78 379.45 1466.09 379.44 1466.13C379.44 1466.13 390.17 1470.25 397.38 1469.08C397.38 1469.08 416.99 1478.85 416.99 1478.85C416.99 1478.85 421.19 1482.34 434.1 1483.81C434.1 1483.81 447.02 1473.79 447.02 1473.79C445.54 1458.13 425.13 1452.89 424.51 1452.73C422.86 1450.91 421.32 1448.93 420.05 1447.23C420.02 1447.2 419.81 1446.9 419.79 1446.87C419.87 1446.52 419.95 1446.17 420.01 1445.81C422.19 1430.17 410.12 1423.39 410.12 1423.39C410.12 1423.01 410.12 1419.96 410.12 1419.57C417.96 1412.49 419.51 1363.89 419.51 1363.89C419.51 1363.89 431.28 1303.79 432.93 1293.76C434.57 1283.74 432.93 1268.72 432.93 1268.72C433.04 1267.43 433.98 1257.05 434.1 1255.75C434.1 1255.75 436.62 1246.93 436.62 1245.16C436.95 1240.67 437.93 1236.41 439.47 1232.79C441.32 1228.95 437.46 1219.82 437.46 1219.82C437.69 1218.8 438.8 1213.69 440.82 1204.51L440.82 1187.7C445.53 1151.11 448.14 1130.79 448.66 1126.72C448.66 1126.72 456.89 1055.7 454.04 1032.46C454.04 1032.46 457.39 997.39 457.39 997.39C456.84 997.91 456.26 998.37 455.67 998.77C456.45 995.58 457.13 992.31 457.7 988.98C458.87 989.23 464.75 990.51 475.34 992.82L475.34 993.28C479.16 993.28 481.28 993.28 481.71 993.28C481.71 993.28 479.69 949.59 479.69 931.98C479.69 914.37 486.48 851.16 486.48 851.16C486.48 851.16 489.5 789.38 486.48 787.61C483.46 785.84 465.68 761.1 464.34 749.91ZM407.99 741.97C407.96 742.04 407.84 742.35 407.63 742.92L406.98 741.95L406.18 744.13C406.04 744.26 405.96 744.33 405.95 744.34C404.22 742.78 403.33 733.83 402.09 735.77C402.07 735.79 401.94 735.99 401.92 736.02C401.65 735.47 401.37 735.31 401.08 735.77C401.06 735.8 400.85 736.12 400.82 736.16C400.82 735.49 400.82 734.8 400.82 734.11C403.21 735.19 405.67 735.74 408.14 735.74C408.16 736.04 408.14 736.34 408.14 736.62C408.14 738.34 408.05 740.13 407.99 741.97ZM467.21 940.05C466.83 941.79 466.63 942.75 466.58 942.95C466.66 941.98 466.74 941.04 466.83 940.05C466.88 940.05 467.01 940.05 467.21 940.05ZM402.4 1461.44L400 1460.38L401.31 1459.99L402.52 1461.4L402.67 1461.58L402.4 1461.44ZM424.59 1452.8C424.85 1453.05 425.88 1453.99 426.98 1455.26C426.18 1454.52 425.37 1453.67 424.59 1452.8Z" id="bhMh62WHd"></path><linearGradient id="gradientbB9CxIWbd" gradientUnits="userSpaceOnUse" x1="197.34" y1="946.24" x2="487.81" y2="946.24"><stop style="stop-color: #808080;stop-opacity: 0.25" offset="0%"></stop><stop style="stop-color: #808080;stop-opacity: 0.12" offset="54%"></stop><stop style="stop-color: #808080;stop-opacity: 0.1" offset="100%"></stop></linearGradient><path d="M459.68 969.18L463.53 969.18L448.64 990.06L475.51 995.94L475.51 896.62L475.51 896.62L459.68 969.18Z" id="c3r7HfY1s"></path><path d="M459.68 969.18L455.7 967.3L448.64 990.06L475.51 995.94L475.51 896.62L475.51 896.62L459.68 969.18Z" id="f2jU52ZIGj"></path><path d="M475.51 943.04L484.62 811.18L450.69 811.18L450.69 943.04L450.69 943.04L475.51 943.04Z" id="akGHOvVk0"></path><path d="M475.51 943.04L484.62 811.18L450.69 811.18L450.69 943.04L450.69 943.04L475.51 943.04Z" id="b4KQUig2C2"></path><path d="M407.57 840.82C414.96 838.61 419.06 837.38 419.88 837.14C419.88 837.14 456.86 822.47 464.49 821.27C469.12 820.2 473.63 817.94 477.88 814.56C479.88 813.04 481.15 811.89 481.15 811.89C480.26 809.04 475.82 794.78 467.83 769.1C455.43 752.94 448.54 743.95 447.16 742.16C447.16 742.16 434.09 737.26 428.56 723.88C426.05 718.03 425.41 710.34 426.85 703.46C430.22 685.07 406.7 721.05 406.7 721.05C406.7 721.05 406.93 729.67 406.7 740.66C406.7 742.82 406.59 745.08 406.5 747.38C406.5 748.89 406.38 750.41 406.29 751.97C405.71 762.9 404.53 774.14 402.21 780.85C396.52 797.27 402.21 842.4 402.21 842.4C402.92 842.19 404.71 841.66 407.57 840.82Z" id="bpMndbpeC"></path><path d="M407.23 741.58C408.17 741.58 408.93 738.06 409.84 737.9C417.2 736.66 423.92 733.95 428.59 724.78C426.09 718.93 425.44 711.25 426.87 704.38C430.25 685.99 406.73 721.95 406.73 721.95C406.73 721.95 406.98 730.59 406.7 741.58C406.81 741.58 407.18 741.58 407.23 741.58Z" id="a4NUptZX7W"></path><path d="M406.7 739.83C406.71 739.83 406.72 739.83 406.73 739.83C407.67 739.83 408.6 739.83 409.53 739.61C425.28 736.89 436.79 712.23 435.25 684.53C433.7 656.83 419.68 636.57 403.93 639.29C389.27 641.82 378.08 663.51 378.08 689.44C378.07 717.26 390.89 739.82 406.7 739.83Z" id="c1I5rdurx0"></path><path d="M368.25 626.53C366.85 642.88 357.4 652.67 348.85 659.52C340.3 666.38 330.66 674.49 327.94 690.29C324.96 707.37 331.47 724.5 335.99 740.52C344.8 771.75 346.05 811.57 334.68 840.13C324.58 865.42 306.97 877.42 290.4 887.95C298.37 898.99 308.29 904.79 318.43 904.37C314.63 923.84 301.1 930.3 289.57 933.89C295.62 944.14 304.29 947.87 312.59 950.12C318.64 951.78 324.85 952.86 330.89 950.72C336.93 948.58 342.66 942.81 345.77 933.47C348.38 925.5 349.27 914.62 353.99 910.6C356.12 909.12 358.41 908.53 360.69 908.87C362.65 908.91 378.34 909.2 380.3 909.24C386.4 909.24 393.63 908.41 396.78 899.24C397.95 895.32 398.55 890.97 398.56 886.55C399.41 863.92 396.94 840.01 402.23 819.36C403.83 813.13 393.59 803.27 394.67 796.67C398.35 773.98 399.28 756.11 399.24 732.5C399.24 714.22 406 698.47 411.58 683.04C417.16 667.62 421.83 648.14 417.42 631.59C412.46 613.13 375.15 586.29 369.28 612.94C368.34 617.22 368.63 622 368.25 626.53Z" id="dk7TY1scZ"></path><path d="M395.38 1454.82L400.38 1460.64L401.15 1461.53L401.29 1461.7L407.21 1468.59L421.04 1472.69C428.34 1471.8 432.39 1471.31 433.2 1471.21C433.2 1471.21 436.7 1458.34 431.2 1458.64C429.44 1458.48 427.72 1457.6 426.18 1456.09C426.13 1456.04 425.88 1455.82 425.42 1455.42C425.42 1455.42 425.42 1455.42 425.42 1455.42C424.63 1454.68 423.83 1453.85 423.04 1452.98C423.04 1452.98 423.04 1452.98 423.04 1452.98C421.41 1451.16 419.87 1449.19 418.63 1447.51C416.8 1445.03 415.58 1443.14 415.58 1443.14C412.89 1444.7 406.16 1448.59 395.38 1454.82Z" id="b12qkp62AU"></path><path d="M400.44 1460.64L401.21 1461.53L401.36 1461.7L407.28 1468.59L421.11 1472.69C428.4 1471.8 432.45 1471.31 433.27 1471.21C433.27 1471.21 436.77 1458.34 431.27 1458.64C429.5 1458.48 427.78 1457.6 426.25 1456.09C427.21 1457.42 428.02 1458.87 428.1 1460.09C428.32 1463.37 419.11 1469.28 419.11 1469.28C417.81 1468.68 407.42 1463.84 406.12 1463.24C406.12 1463.24 403.91 1462.13 400.89 1460.75C400.87 1460.74 400.77 1460.7 400.6 1460.61L400.44 1460.64Z" id="f1KgmxSmF8"></path><path d="M396.04 1469.17C403.2 1467.99 415.54 1478.85 415.54 1478.85C415.54 1478.85 419.71 1482.3 432.53 1483.77C445.36 1485.24 445.36 1473.79 445.36 1473.79C443.89 1458.22 423.63 1453.1 423 1452.87C423 1452.87 423 1452.87 423 1452.87L423 1452.87C423 1452.87 423 1452.87 423 1452.87C423.25 1453.1 424.31 1454.04 425.38 1455.3C425.38 1455.3 425.38 1455.3 425.38 1455.3C426.82 1456.96 428.38 1459.12 428.49 1460.87C428.72 1464.13 419.5 1470.06 419.5 1470.06C418.2 1469.46 407.81 1464.64 406.51 1464.04C406.51 1464.04 404.3 1462.91 401.28 1461.53C401.25 1461.53 401.02 1461.53 400.99 1461.53C396.52 1459.39 391.97 1457.74 387.37 1456.59C381.78 1455.53 378.91 1463.9 378.33 1465.79C378.28 1465.94 378.25 1466.09 378.22 1466.25C381.79 1466.83 388.88 1470.34 396.04 1469.17Z" id="a1QmdiGYHO"></path><path d="M210.31 1052.78C213.7 1057.36 215.59 1059.91 215.97 1060.41C215.97 1060.41 217.62 1060.28 220.07 1060.14C220.15 1060.14 220.78 1060.14 220.86 1060.14C224.37 1059.91 229.22 1059.68 233.34 1059.68C236 1059.47 238.67 1059.73 241.3 1060.46C244.12 1062.21 249.14 1032.04 249.14 1032.04C248.77 1031.89 246.87 1031.12 243.47 1029.74L241.59 1028.96L240.28 1028.41L235.67 1026.5L221.68 1029.31L211.85 1040.43L210.31 1052.78Z" id="c4dzpAPHaa"></path><path d="M210.31 1052.78C213.7 1057.36 215.59 1059.91 215.97 1060.41C215.97 1060.41 217.62 1060.28 220.07 1060.14C218.95 1059.37 218.02 1057.91 217.46 1056.02C213.8 1038.16 231.95 1030.52 231.95 1030.52C232.52 1030.48 235.34 1030.27 240.41 1029.88L242.06 1029.74L243.37 1029.74L241.48 1028.96L240.18 1028.41L235.56 1026.5L221.58 1029.31L211.75 1040.43L210.31 1052.78Z" id="a3UdC1SnTI"></path><path d="M225.94 1060.71C224.24 1061.05 222.52 1060.84 220.86 1060.09C219.19 1059.57 217.75 1057.75 216.94 1055.15C213.28 1037.26 231.43 1029.65 231.43 1029.65C232 1029.61 234.81 1029.39 239.89 1029.01L241.52 1028.87L262.08 1027.31C262.68 1021.33 263.01 1018.01 263.08 1017.35C263.08 1017.35 256.4 1018.45 245.91 1019.92C240.02 1020.78 232.84 1021.72 225.09 1022.61C203.43 1025.14 198.28 1049.86 198.28 1049.86C198.28 1049.86 195.66 1055.15 199.15 1060.85C202.57 1066.41 225 1060.85 225.94 1060.71Z" id="b2HHxTrttK"></path><path d="M451.2 630.85C451.53 631.71 453.2 636 456.19 643.73L469.19 646.03L469.33 636.97C470.64 555.19 471.37 509.76 471.51 500.67C471.51 500.67 480.5 409.25 463.51 414.52C463.51 414.52 457.19 500.67 457.19 500.67C457.19 500.67 455.25 541.69 453.89 554.01C452.57 565.92 446.65 614.34 450.7 629.29C450.84 629.83 451.01 630.36 451.2 630.85Z" id="b2agVSjgMX"></path><path d="M421.54 967.82L425.24 978.95C430.2 993.89 432.96 1002.19 433.51 1003.85C433.51 1003.85 448.52 1013.53 452.36 1006.15C454.47 1002.13 456.74 988.08 458.34 976.26C459.64 966.7 460.52 958.63 460.52 958.63C455.32 959.85 442.33 962.92 421.54 967.82Z" id="aixiLEGij"></path><path d="M421.54 967.82C423.76 974.5 424.99 978.21 425.24 978.95C425.47 978.6 425.68 978.21 425.87 977.78C430.05 968.4 448.47 975.78 458.34 976.38C459.64 966.81 460.52 958.74 460.52 958.74C455.32 959.95 442.33 962.98 421.54 967.82Z" id="gKMY50JBx"></path><path d="M241.3 1060.41C244.12 1062.16 249.14 1032 249.14 1032C248.64 1031.79 246.12 1030.74 241.59 1028.87L262.15 1027.31C262.75 1021.33 263.08 1018.01 263.14 1017.35C263.14 1017.35 256.46 1018.45 245.98 1019.92C243.81 1022.12 241.88 1024.96 240.27 1028.32C240.24 1028.39 239.99 1028.94 239.95 1029.01C235.58 1038.46 233.95 1050.64 233.34 1059.63C236 1059.42 238.67 1059.68 241.3 1060.41Z" id="dkNhb8eHh"></path><path d="M395.38 1454.82C398.84 1458.85 400.76 1461.09 401.15 1461.53C409.75 1458.8 417.61 1454.5 418.53 1447.74C418.54 1447.63 418.54 1447.52 418.53 1447.42C416.7 1444.93 415.49 1443.05 415.49 1443.05C412.81 1444.62 406.11 1448.54 395.38 1454.82Z" id="a4iv01brRi"></path><path d="M401.01 1461.58C396.52 1459.42 391.97 1457.75 387.37 1456.59C381.79 1455.53 378.93 1463.9 378.34 1465.86C385.94 1465.19 393.5 1463.76 401.01 1461.58Z" id="b5qKvh6Qr"></path><path d="M245.46 1083.27C248.96 1088.75 276.95 1132.58 280.45 1138.06C280.45 1138.06 302.43 1155.35 316.42 1180.25C316.42 1180.25 342.75 1183.77 342.75 1183.77C357.57 1177.33 400.26 1086.49 400.26 1086.49C400.26 1086.49 401.25 1190.23 403.25 1197.84C405.25 1205.45 402.59 1226.26 401.42 1235.06C400.69 1242.41 400.41 1249.87 400.59 1257.32C400.59 1257.32 384.6 1364.85 385.93 1374.23C385.93 1374.23 377.27 1427.57 377.27 1427.57C377.27 1431.24 377.27 1460.54 377.27 1464.2C377.27 1464.2 416.42 1461.56 418.57 1446.04C418.57 1446.04 408.76 1423.76 408.76 1423.76C408.76 1423.38 408.76 1420.32 408.76 1419.94C416.6 1412.91 418.08 1364.58 418.08 1364.58C418.08 1364.58 429.75 1304.8 431.41 1294.84C433.07 1284.89 431.41 1269.92 431.41 1269.92C431.53 1268.63 432.46 1258.33 432.57 1257.04C432.57 1257.04 435.07 1248.24 435.07 1246.49C435.4 1242.03 436.37 1237.79 437.91 1234.19C439.74 1230.37 435.91 1221.29 435.91 1221.29C436.13 1220.27 437.24 1215.19 439.24 1206.05L439.24 1189.35C443.94 1152.96 446.56 1132.74 447.08 1128.7C447.08 1128.7 455.25 1058.07 452.41 1034.92C452.41 1034.92 455.75 1000.06 455.75 1000.06C442.38 1012.38 435.63 984.95 433.42 973.16C432.86 970.12 432.59 968.1 432.59 968.1C432.59 968.1 414.22 956.19 397.12 959.04C393.65 959.54 390.23 960.81 386.94 962.84C367.95 974.86 364.95 1024.66 364.95 1024.66C363.27 1029.17 349.81 1065.28 348.13 1069.79C339.47 1109.94 326.47 1114.03 326.47 1114.03C326.47 1114.03 295.99 1078 295.1 1076.23C294.21 1074.46 282.61 1065.68 282.61 1065.68C281.23 1061.43 279.13 1058.05 276.61 1056.02C272.61 1053.08 272.28 1042.23 272.28 1042.23C271.78 1016.73 263.29 1014.64 263.29 1014.64C233.8 1010.31 233.97 1063.93 233.97 1071.24C233.97 1078.58 243.16 1080.86 245.46 1083.27Z" id="a2pFR7vrHQ"></path><path d="M403.55 927.98C403.55 927.98 403.55 927.98 403.55 927.98C403.55 869.09 403.55 836.37 403.55 829.83C403.55 829.83 403.55 829.83 403.55 829.83C414.35 829.83 420.34 829.83 421.54 829.83C421.54 829.83 421.54 829.83 421.54 829.83C421.54 888.72 421.54 921.44 421.54 927.98C421.54 927.98 421.54 927.98 421.54 927.98C410.75 927.98 404.75 927.98 403.55 927.98Z" id="a2wOZErZQ"></path><path d="M403.55 927.98C403.55 927.98 403.55 927.98 403.55 927.98C403.55 869.09 403.55 836.37 403.55 829.83C403.55 829.83 403.55 829.83 403.55 829.83C414.35 829.83 420.34 829.83 421.54 829.83C421.54 829.83 421.54 829.83 421.54 829.83C421.54 888.72 421.54 921.44 421.54 927.98C421.54 927.98 421.54 927.98 421.54 927.98C410.75 927.98 404.75 927.98 403.55 927.98Z" id="c2msxXMGAA"></path><path d="M450.69 629.29C450.83 629.83 450.99 630.36 451.19 630.85C451.52 631.71 453.18 636 456.18 643.73L469.17 646.03C469.26 640.59 469.31 637.57 469.32 636.97C465.26 636.42 456.04 634.46 450.69 629.08C450.69 629.15 450.69 629.22 450.69 629.29Z" id="d3cYsLu7g"></path><path d="M444.53 689.44C444.53 689.44 434.35 733.12 434.35 733.12C434.35 733.12 456.57 758.83 461.53 770.14C461.53 770.14 477.85 808.4 475.51 814.84C475.51 814.84 481.18 850.59 481.18 850.59C481.18 850.59 466.52 903.33 469.85 923.27C469.85 923.27 473.51 995.92 473.51 995.92C474.15 995.92 479.22 995.92 479.85 995.92C479.85 995.92 477.85 952.56 477.85 934.97C477.85 934.97 484.5 854.68 484.5 854.68C484.5 854.68 487.51 793.15 484.5 791.41C484.5 791.41 463.85 765.03 462.52 753.88C462.52 753.88 471.85 638.92 471.85 638.92C471.85 638.92 458.19 637.89 451.2 630.85C449.87 642.57 451.87 682.4 444.53 689.44Z" id="bvcallnE9"></path><path d="M407.57 840.82C408.8 840.45 418.65 837.51 419.88 837.14C419.88 837.14 456.86 822.47 464.49 821.27C469.12 820.2 473.63 817.94 477.88 814.56C474.95 796.3 469.23 779.8 461.34 766.85C460.87 766.09 457.12 759.96 456.65 759.19C449.73 747.9 441.72 738.89 432.99 732.59C433.54 733.4 472.34 791.66 463.84 803.09C455.34 814.51 432.47 786.69 432.47 786.69C430.73 784.07 422.06 770.97 406.46 747.38L405.51 745.95C404.61 748.42 404.11 749.79 404.01 750.07C404.78 750.62 405.52 751.25 406.25 751.95C415.11 760.51 421.69 774.89 424.55 791.96C429.89 823.57 403.21 820.72 403.21 820.72C403.82 827.89 405.31 834.75 407.57 840.82Z" id="e4DNqrXC1t"></path><path d="M425.85 977.78C427.16 974.81 429.92 973.53 433.36 973.18C432.79 970.15 432.52 968.12 432.52 968.12C432.52 968.12 414.16 956.21 397.06 959.06C395.93 964.03 395.21 967.23 395.21 967.23C401.34 969.34 419.87 991.25 425.85 977.78Z" id="k1fF5PHny"></path><path d="M406.56 746C422.73 770.47 431.72 784.07 433.51 786.78C433.51 786.78 456.3 814.7 464.88 803.18C464.88 803.18 434.02 732.66 434.02 732.66C434.02 732.66 434.02 732.66 434.02 732.66C442.73 738.98 450.74 747.96 457.67 759.19C458.14 759.96 461.89 766.09 462.36 766.85C474.7 786.97 477.49 786.97 477.9 816.54C478.01 823.83 476.6 834.29 475.51 836.17C471.51 843.07 468.71 893.17 469.33 899.03C469.94 904.9 461.88 955.5 464.49 969.57C467.11 983.64 431.81 962.54 425.84 976.03C419.87 989.53 395.21 965.48 395.21 965.48C395.21 965.48 408.87 903.93 412.21 899.84C415.54 895.74 419.54 864.08 412.21 849.44C404.87 834.79 404.22 820.72 404.22 820.72C404.22 820.72 430.89 823.62 425.54 792C422.5 773.46 415.01 758.17 405.04 750.11C405.25 749.56 405.75 748.19 406.56 746Z" id="a1tIO8Vlt6"></path><path d="M418.82 892.92C418.39 893.19 417.97 893.45 417.51 893.68C403.55 901.15 443.58 860.36 442.53 849.74C437.79 858.37 432.19 884.02 418.82 892.92Z" id="c3pVBPTrTY"></path><path d="M306.93 576.34C306.93 576.34 340.58 660.14 340.58 660.14C340.74 660.76 341.58 663.82 343.09 669.34L345.24 677.18L364.24 673.66L365.54 660.19C365.1 659.25 364.86 658.73 364.81 658.63C362.9 654.6 357.7 643.8 354.21 639.08C349.88 633.24 341.22 613.91 341.22 613.91C341.22 613.91 314.24 564.66 312.24 551.18C310.24 537.71 283.25 456.92 277.26 470.9C271.27 484.88 297.94 546.45 297.94 546.45C299.74 552.43 302.93 568.73 306.93 576.34Z" id="cnTkn4unJ"></path><path d="M353.05 908.87C350.77 908.53 348.47 909.11 346.34 910.57C341.64 914.6 340.75 925.47 338.13 933.45C335.07 942.79 329.24 948.56 323.24 950.7C322.05 951.1 320.85 951.39 319.64 951.57C323.46 952.22 327.31 951.93 331.09 950.7C337.09 948.56 342.92 942.79 345.98 933.45C348.59 925.47 349.48 914.6 354.18 910.57C355.42 909.6 356.75 909.05 358.11 908.96C357.09 908.95 354.06 908.89 353.05 908.87Z" id="aOrK6WYVU"></path><path d="M411.8 683.04C417.37 667.62 422.05 648.14 417.65 631.59C413.88 617.45 391.19 598.48 378.09 602.23C390.91 605.15 406.72 620 409.8 631.59C414.21 648.14 409.53 667.62 403.96 683.04C398.39 698.47 391.61 714.22 391.63 732.5C391.63 756.09 390.73 773.89 387.05 796.67C385.99 803.22 396.2 813.13 394.63 819.34C389.32 840.03 391.8 863.9 390.95 886.52C390.94 890.94 390.32 895.29 389.16 899.22C386.55 906.78 381.19 908.73 375.97 909.15C376.43 909.15 380.08 909.15 380.54 909.15C386.63 909.15 393.86 908.32 397.01 899.15C398.16 895.23 398.78 890.88 398.8 886.46C399.65 863.83 397.16 839.94 402.47 819.27C404.06 813.06 393.83 803.18 394.89 796.6C398.57 773.98 399.5 756.09 399.48 732.5C399.48 714.22 406.23 698.47 411.8 683.04Z" id="g1lbKlEZI8"></path><path d="M345.24 677.14L364.24 673.62L365.54 660.14C365.1 659.21 364.86 658.69 364.81 658.58C362.78 660.33 347.61 673.18 343.09 669.3C343.37 670.34 344.09 672.95 345.24 677.14Z" id="an5csjRFz"></path><path d="M405.88 748.04C405.88 748.04 402.18 737.49 400.65 739.83C400.65 739.83 394.67 748.71 392.81 739.58C391.36 732.32 375.57 686.36 369.16 667.87C367.52 663.09 366.48 660.14 366.48 660.14C366.48 660.14 348.5 675.96 344.17 670.7C344.17 671.44 344.17 675.15 344.17 681.83L347.83 682.42C359.6 721.05 366.13 742.51 367.44 746.8C367.44 746.8 373.61 764.07 373.19 770.09C373.19 770.09 381.1 802.49 382.43 804.24C382.43 804.24 398.12 835.3 398.12 835.3C398.12 835.3 405.45 898.6 399.11 916.18C399.11 916.18 381.79 946.65 381.79 946.65C381.79 946.65 378.48 963.64 378.97 965.41C378.97 965.41 375.12 974.79 377.12 977.14C377.12 977.14 381.79 995.88 381.79 995.88C381.79 995.88 391.12 969.5 396.17 965.41C396.17 965.41 407.67 907.38 407.67 907.38C407.67 907.38 409.51 875.6 409.66 855.09C409.8 834.59 409.21 757.42 413.21 757.42C411.75 755.55 408.55 744.55 405.88 748.04Z" id="cM0huddSw"></path><path d="M404.89 748.04C404.89 748.04 401.18 737.49 399.66 739.83C399.66 739.83 393.69 748.71 391.82 739.58C390.35 732.32 374.56 686.36 368.17 667.87C367.9 667.1 365.76 660.92 365.49 660.14C365.49 660.14 347.5 675.96 343.16 670.7C343.16 671.44 343.16 675.15 343.16 681.83L346.84 682.42C358.6 721.05 365.14 742.51 366.44 746.8C366.44 746.8 372.63 764.07 372.2 770.09C372.2 770.09 380.04 802.49 381.44 804.24C381.44 804.24 397.12 835.3 397.12 835.3C397.12 835.3 404.46 898.6 398.13 916.18C394.79 925.02 390.72 932.94 386.06 939.68C382.15 945.36 379.4 953.12 378.22 961.8C378 962.98 377.91 964.24 377.99 965.48C378.47 967.23 374.14 974.86 376.14 977.21C378.14 979.55 380.84 996.01 380.84 996.01C380.84 996.01 390.17 969.64 395.21 965.55C400.26 961.46 406.73 907.52 406.73 907.52C406.73 907.52 408.56 875.74 408.72 855.23C408.87 834.72 408.29 757.42 412.21 757.42C410.74 755.55 407.55 744.55 404.89 748.04Z" id="e3QkHea6st"></path><path d="M366.56 1024.09C366.56 1024.09 380.56 1028.68 386.17 1035.79C386.17 1035.79 364.85 1024.66 364.85 1024.66C365.19 1024.55 366.22 1024.2 366.56 1024.09Z" id="bkupgdWsw"></path><path d="M400.22 1086.49C400.22 1086.49 414.82 1107.89 412.21 1127.23C409.59 1146.57 402.85 1195.22 402.85 1195.22C402.32 1173.47 400.75 1108.23 400.22 1086.49Z" id="h1P1AaSypf"></path><path d="M272.53 1045.33C272.53 1045.33 251.95 1049.29 253.29 1053.98C253.29 1053.98 272.53 1049.65 272.53 1049.65C272.53 1048.79 272.53 1046.2 272.53 1045.33Z" id="a3gBL8pwBp"></path><path d="M430.51 1223.34C430.51 1223.34 431.81 1226.26 424.18 1223.34C424.18 1223.34 422.18 1211.4 422.18 1211.4C423.85 1213.79 428.84 1220.95 430.51 1223.34Z" id="c1W6ugkOIv"></path><path d="M411.83 1263.78C406.22 1260.86 427.89 1263.78 427.89 1263.78C424.68 1263.78 417.44 1266.7 411.83 1263.78Z" id="bgIPpHRxe"></path><path d="M395.38 1424.93C395.38 1424.93 382.56 1431.67 379.9 1429.53C377.23 1427.39 406.38 1422.01 406.38 1422.01C404.18 1422.59 404.55 1418.49 395.38 1424.93Z" id="d4NqyorIv"></path><path d="M403.55 1072.14C403.55 1072.14 410.55 1044.3 416.55 1040.34C413.95 1046.7 404.85 1068.96 403.55 1072.14Z" id="dxpxBEpdM"></path><path d="M391.29 748.04C391.29 748.04 390.73 758.6 382.35 762.71C382.35 762.71 372.38 770.16 372.38 770.16" id="b3rBwpIr"></path><path d="M369.52 671.55C369.52 671.55 358.46 685.34 346.92 682.42" id="a1pHWHKVw"></path><path d="M377.93 966.93C377.93 966.93 381.16 970.49 388.91 954.9" id="m4XxkuLXLw"></path><path d="M458.44 801.64C458.75 798.79 457.63 796.14 456.57 793.91C456.35 793.45 454.62 789.77 454.4 789.31C453.98 788.37 453.5 787.51 452.98 786.74C451.67 784.97 450 784.44 448.64 782.85" id="c1i59z0cJM"></path><path d="M1063.16 124.08C1063.16 124.08 1060.54 148.06 1072.93 158.94C1072.93 158.94 1073.13 148.89 1084.23 152.32C1088.18 153.47 1092.19 153.81 1096.19 153.33C1101.59 152.67 1106.72 148.95 1110.8 142.71C1110.8 142.71 1110.8 142.71 1110.8 142.71C1110.8 142.71 1141.74 120.22 1153.77 31.29C1153.77 31.29 1162.67 11.88 1162.32 6.89C1160.46 8.29 1145.6 19.45 1143.74 20.85C1143.74 20.85 1150.09 44.42 1145.05 64C1145.05 64 1144.45 21.7 1140.88 22.62C1140.16 22.83 1131.23 30.78 1131.23 30.78C1131.23 30.78 1142.15 71.82 1133.91 101.67C1133.91 101.67 1137.04 51.08 1127.82 33.75C1126.51 35.09 1116.06 45.83 1114.75 47.17C1114.75 47.17 1127.51 89.57 1118.85 124.18C1118.85 124.18 1121.08 71.11 1111.99 50.44C1110.81 52.07 1101.33 65.07 1100.15 66.7C1100.15 66.7 1112.14 108.49 1104.83 137.19C1104.83 137.19 1103.87 75.41 1097.59 70.74C1097.59 70.74 1087.22 86.84 1085.64 93.41C1085.64 93.41 1093.85 123.76 1088.75 139.76C1088.75 139.76 1085.63 98.61 1083.06 98.38C1083.06 98.38 1072.74 125.65 1071.67 144.36C1071.67 144.36 1072.11 116.56 1080.57 95.8C1080.57 95.8 1070.58 98.82 1064.75 110.2C1064.75 110.2 1066.36 90.93 1083.12 89.25C1083.12 89.25 1091.65 68.56 1093.93 67.29C1093.93 67.29 1077.27 64.86 1067.17 72.72C1067.17 72.72 1076.06 54.53 1096.99 62.81C1098.16 61.13 1107.51 47.68 1108.68 46C1108.68 46 1086.75 40.74 1077.44 46.55C1077.44 46.55 1088.15 30.46 1111.83 42.19C1113.11 40.85 1123.29 30.14 1124.57 28.8C1124.57 28.8 1105.86 21.72 1094.72 24.21C1094.72 24.21 1106.49 13.05 1128.3 25.15C1129.22 24.43 1136.54 18.67 1137.45 17.95C1137.45 17.95 1123.76 13.22 1119.74 12.46C1119.74 12.46 1115.52 9.77 1115.52 9.77C1124.2 7.22 1133.11 8.96 1141.26 14.8C1141.26 14.8 1160.6 2.25 1160.26 0.11C1140.84 24.9 1050.22 -11.57 1063.16 124.08Z" id="d5W0OAZvqJ"></path><path d="M980.68 90.63C980.68 90.63 979.51 101.48 985.08 106.4C985.08 106.4 985.17 101.8 990.19 103.39C991.98 103.92 993.79 104.07 995.59 103.85C998.03 103.56 1000.35 101.87 1002.19 99.04C1002.19 99.04 1002.19 99.04 1002.19 99.04C1002.19 99.04 1016.18 88.91 1021.62 48.72C1021.62 48.72 1025.63 39.93 1025.47 37.68C1024.63 38.31 1017.92 43.35 1017.08 43.98C1017.08 43.98 1019.96 54.65 1017.7 63.5C1017.7 63.5 1017.42 44.37 1015.81 44.83C1015.49 44.83 1011.45 48.51 1011.45 48.51C1011.45 48.51 1016.39 67.06 1012.66 80.56C1012.66 80.56 1014.07 57.71 1009.9 49.86C1009.31 50.47 1004.59 55.33 1004 55.93C1004 55.93 1009.77 75.09 1005.85 90.72C1005.85 90.72 1006.86 66.74 1002.75 57.41C1002.22 58.15 997.94 64.09 997.41 64.83C997.41 64.83 1002.82 83.73 999.53 96.68C999.53 96.68 999.09 68.76 996.25 66.67C996.25 66.67 991.57 73.94 990.85 76.93C990.85 76.93 994.56 90.72 992.26 97.85C992.26 97.85 990.85 79.25 989.64 79.18C989.64 79.18 984.99 91.5 984.49 99.87C984.73 92.06 986.12 84.49 988.52 77.92C985.83 78.81 983.34 81.07 981.37 84.42C981.37 84.42 982.1 75.73 989.67 74.95C989.67 74.95 993.59 65.61 994.56 65.04C994.56 65.04 987.03 63.94 982.47 67.5C982.47 67.5 986.48 59.27 995.94 62.9C996.47 62.14 1000.65 56.07 1001.17 55.31C1001.17 55.31 991.27 53.01 987.06 55.57C987.06 55.57 991.89 48.3 1002.6 53.59C1003.17 52.98 1007.77 48.15 1008.35 47.54C1008.35 47.54 999.91 44.32 994.86 45.5C994.86 45.5 1000.18 40.44 1010.04 45.91C1010.45 45.59 1013.74 42.99 1014.15 42.67C1014.15 42.67 1007.96 40.51 1006.14 40.19C1006.14 40.19 1004.23 38.97 1004.23 38.97C1008.16 37.82 1012.18 38.61 1015.87 41.27C1015.87 41.27 1024.69 35.59 1024.53 34.62C1015.76 45.82 974.86 29.33 980.68 90.63Z" id="a3yxqFWpc8"></path><path d="M1250.6 1480.46C1250.6 1489.09 1227.07 1496.09 1198.04 1496.09C1169.01 1496.09 1145.48 1489.09 1145.48 1480.46C1145.48 1471.82 1169.01 1464.82 1198.04 1464.82C1227.07 1464.82 1250.6 1471.82 1250.6 1480.46Z" id="a4QKTlPcvg"></path><path d="M1224.78 1441.58C1225.44 1436.31 1224.16 1430.08 1221.28 1428.03C1218.07 1425.87 1214.63 1429.81 1212.03 1433.76C1209.42 1437.71 1206.43 1442.24 1203.03 1441.39C1206.6 1435.7 1208.2 1427.14 1207.27 1418.84C1207.12 1417.15 1206.71 1415.56 1206.09 1414.24C1204.3 1410.88 1201.07 1412.31 1198.93 1414.95C1192.13 1423.37 1190.24 1439.62 1190.2 1454.22C1189.52 1448.96 1190.09 1443.46 1190.08 1438.13C1190.07 1432.79 1189.22 1426.63 1186.62 1423.8C1185.01 1422.29 1183.21 1421.54 1181.39 1421.64C1178.34 1421.44 1174.93 1421.99 1172.85 1425.92C1170.24 1430.79 1170.93 1438.98 1173.18 1444.31C1175.43 1449.65 1178.86 1453.07 1182.03 1456.77C1184.56 1459.43 1186.72 1463.05 1188.34 1467.37C1188.54 1467.98 1188.69 1468.62 1188.81 1469.28C1190.73 1469.28 1206.06 1469.28 1207.97 1469.28C1212.26 1465.44 1216.23 1460.6 1219.78 1454.89C1222.18 1451.45 1223.92 1446.81 1224.78 1441.58Z" id="b1170qy9MY"></path></defs><g><g><g><use xlink:href="#buNPglApl" opacity="1" fill="#63ffb2" fill-opacity="1"></use><g><use xlink:href="#buNPglApl" opacity="1" fill-opacity="0" stroke="#000000" stroke-width="1" stroke-opacity="0"></use></g></g><g><use xlink:href="#a18nPH31uN" opacity="1" fill="#ad63ff" fill-opacity="1"></use><g><use xlink:href="#a18nPH31uN" opacity="1" fill-opacity="0" stroke="#000000" stroke-width="1" stroke-opacity="0"></use></g></g><g><use xlink:href="#bjQmbi0T9" opacity="1" fill="url(#gradientd1hwcnvaW)"></use><g><use xlink:href="#bjQmbi0T9" opacity="1" fill-opacity="0" stroke="#000000" stroke-width="1" stroke-opacity="0"></use></g></g><g><use xlink:href="#bs1IqRP7Y" opacity="1" fill="#efc004" fill-opacity="1"></use><g><use xlink:href="#bs1IqRP7Y" opacity="1" fill-opacity="0" stroke="#000000" stroke-width="1" stroke-opacity="0"></use></g></g><g><use xlink:href="#b4RfaID1Ej" opacity="1" fill="#ecdc3c" fill-opacity="1"></use><g><use xlink:href="#b4RfaID1Ej" opacity="1" fill-opacity="0" stroke="#000000" stroke-width="1" stroke-opacity="0"></use></g></g><g><use xlink:href="#c2fDsn1OMq" opacity="1" fill="#3f3d56" fill-opacity="1"></use><g><use xlink:href="#c2fDsn1OMq" opacity="1" fill-opacity="0" stroke="#000000" stroke-width="1" stroke-opacity="0"></use></g></g><g><use xlink:href="#c12FgaGeaZ" opacity="1" fill="#3f3d56" fill-opacity="1"></use><g><use xlink:href="#c12FgaGeaZ" opacity="1" fill-opacity="0" stroke="#000000" stroke-width="1" stroke-opacity="0"></use></g></g><g><use xlink:href="#b2g01wLNai" opacity="1" fill="#000000" fill-opacity="1"></use><g><use xlink:href="#b2g01wLNai" opacity="1" fill-opacity="0" stroke="#000000" stroke-width="1" stroke-opacity="0"></use></g></g><g><use xlink:href="#a4W7qhLdH" opacity="1" fill="#000000" fill-opacity="1"></use><g><use xlink:href="#a4W7qhLdH" opacity="1" fill-opacity="0" stroke="#000000" stroke-width="1" stroke-opacity="0"></use></g></g><g><use xlink:href="#bhQgy24i" opacity="1" fill="#000000" fill-opacity="1"></use><g><use xlink:href="#bhQgy24i" opacity="1" fill-opacity="0" stroke="#000000" stroke-width="1" stroke-opacity="0"></use></g></g><g><use xlink:href="#a6NPPeRWN" opacity="1" fill="#000000" fill-opacity="1"></use><g><use xlink:href="#a6NPPeRWN" opacity="1" fill-opacity="0" stroke="#000000" stroke-width="1" stroke-opacity="0"></use></g></g><g><use xlink:href="#bQUE6ZcWq" opacity="1" fill="#3f3d56" fill-opacity="1"></use><g><use xlink:href="#bQUE6ZcWq" opacity="1" fill-opacity="0" stroke="#000000" stroke-width="1" stroke-opacity="0"></use></g></g><g><use xlink:href="#a93ME1461" opacity="1" fill="#000000" fill-opacity="1"></use><g><use xlink:href="#a93ME1461" opacity="1" fill-opacity="0" stroke="#000000" stroke-width="1" stroke-opacity="0"></use></g></g><g><use xlink:href="#dMHmVRDBq" opacity="1" fill="#f2c71a" fill-opacity="1"></use><g><use xlink:href="#dMHmVRDBq" opacity="1" fill-opacity="0" stroke="#000000" stroke-width="1" stroke-opacity="0"></use></g></g><g><use xlink:href="#a40iFdSNK" opacity="1" fill="#ffc960" fill-opacity="1"></use><g><use xlink:href="#a40iFdSNK" opacity="1" fill-opacity="0" stroke="#000000" stroke-width="1" stroke-opacity="0"></use></g></g><g><use xlink:href="#ao9892Nxv" opacity="1" fill="#000000" fill-opacity="1"></use><g><use xlink:href="#ao9892Nxv" opacity="1" fill-opacity="0" stroke="#000000" stroke-width="1" stroke-opacity="0"></use></g></g><g><use xlink:href="#b3Qn83Y1HT" opacity="1" fill="#e3e8f4" fill-opacity="1"></use><g><use xlink:href="#b3Qn83Y1HT" opacity="1" fill-opacity="0" stroke="#000000" stroke-width="1" stroke-opacity="0"></use></g></g><g><use xlink:href="#bafzCy614" opacity="1" fill="#cc1313" fill-opacity="1"></use><g><use xlink:href="#bafzCy614" opacity="1" fill-opacity="0" stroke="#000000" stroke-width="1" stroke-opacity="0"></use></g></g><g><use xlink:href="#a19W7ymJzK" opacity="1" fill="#d2292b" fill-opacity="1"></use><g><use xlink:href="#a19W7ymJzK" opacity="1" fill-opacity="0" stroke="#000000" stroke-width="1" stroke-opacity="0"></use></g></g><g><use xlink:href="#eiNtyAl3c" opacity="1" fill="#cb0d0d" fill-opacity="1"></use><g><use xlink:href="#eiNtyAl3c" opacity="1" fill-opacity="0" stroke="#000000" stroke-width="1" stroke-opacity="0"></use></g></g><g><use xlink:href="#b5jZmEfav6" opacity="1" fill="#ceb71c" fill-opacity="1"></use><g><use xlink:href="#b5jZmEfav6" opacity="1" fill-opacity="0" stroke="#000000" stroke-width="1" stroke-opacity="0"></use></g></g><g><use xlink:href="#aUvPQj0Vg" opacity="1" fill="#3f3d56" fill-opacity="1"></use><g><use xlink:href="#aUvPQj0Vg" opacity="1" fill-opacity="0" stroke="#000000" stroke-width="1" stroke-opacity="0"></use></g></g><g><use xlink:href="#o1ZmfrCIH" opacity="1" fill="#000000" fill-opacity="1"></use><g><use xlink:href="#o1ZmfrCIH" opacity="1" fill-opacity="0" stroke="#000000" stroke-width="1" stroke-opacity="0"></use></g></g><g><use xlink:href="#gKzTLzang" opacity="1" fill="#3f3d56" fill-opacity="1"></use><g><use xlink:href="#gKzTLzang" opacity="1" fill-opacity="0" stroke="#000000" stroke-width="1" stroke-opacity="0"></use></g></g><g><use xlink:href="#a7Bx0rWwby" opacity="1" fill="#000000" fill-opacity="1"></use><g><use xlink:href="#a7Bx0rWwby" opacity="1" fill-opacity="0" stroke="#000000" stroke-width="1" stroke-opacity="0"></use></g></g><g><use xlink:href="#b1ZqEESwHQ" opacity="1" fill="#000000" fill-opacity="1"></use><g><use xlink:href="#b1ZqEESwHQ" opacity="1" fill-opacity="0" stroke="#000000" stroke-width="1" stroke-opacity="0"></use></g></g><g><use xlink:href="#a15OoPSY7i" opacity="1" fill="#000000" fill-opacity="1"></use><g><use xlink:href="#a15OoPSY7i" opacity="1" fill-opacity="0" stroke="#000000" stroke-width="1" stroke-opacity="0"></use></g></g><g><use xlink:href="#aos3CWzIN" opacity="1" fill="#000000" fill-opacity="1"></use><g><use xlink:href="#aos3CWzIN" opacity="1" fill-opacity="0" stroke="#000000" stroke-width="1" stroke-opacity="0"></use></g></g><g><use xlink:href="#c15un2BvCQ" opacity="1" fill="#d10909" fill-opacity="1"></use><g><use xlink:href="#c15un2BvCQ" opacity="1" fill-opacity="0" stroke="#000000" stroke-width="1" stroke-opacity="0"></use></g></g><g><use xlink:href="#a7W18DkRe" opacity="1" fill="#d11515" fill-opacity="1"></use><g><use xlink:href="#a7W18DkRe" opacity="1" fill-opacity="0" stroke="#000000" stroke-width="1" stroke-opacity="0"></use></g></g><g><use xlink:href="#ayFQ5Q7BY" opacity="1" fill="#000000" fill-opacity="1"></use><g><use xlink:href="#ayFQ5Q7BY" opacity="1" fill-opacity="0" stroke="#000000" stroke-width="1" stroke-opacity="0"></use></g></g><g><use xlink:href="#dsTVLwbv" opacity="1" fill="#000000" fill-opacity="1"></use><g><use xlink:href="#dsTVLwbv" opacity="1" fill-opacity="0" stroke="#000000" stroke-width="1" stroke-opacity="0"></use></g></g><g><use xlink:href="#j5rWsWBEp7" opacity="1" fill="#f8ec2f" fill-opacity="1"></use><g><use xlink:href="#j5rWsWBEp7" opacity="1" fill-opacity="0" stroke="#000000" stroke-width="1" stroke-opacity="0"></use></g></g><g><use xlink:href="#c1cbWuihys" opacity="1" fill="#ffffff" fill-opacity="1"></use><g><use xlink:href="#c1cbWuihys" opacity="1" fill-opacity="0" stroke="#000000" stroke-width="1" stroke-opacity="0"></use></g></g><g><use xlink:href="#g1FwbvHjF1" opacity="1" fill="#ffffff" fill-opacity="1"></use><g><use xlink:href="#g1FwbvHjF1" opacity="1" fill-opacity="0" stroke="#000000" stroke-width="1" stroke-opacity="0"></use></g></g><g><use xlink:href="#g1eowcvUzz" opacity="1" fill="#ffeb63" fill-opacity="1"></use><g><use xlink:href="#g1eowcvUzz" opacity="1" fill-opacity="0" stroke="#000000" stroke-width="1" stroke-opacity="0"></use></g></g><g><use xlink:href="#m3JqHGzlRu" opacity="1" fill="#fdff43" fill-opacity="1"></use><g><use xlink:href="#m3JqHGzlRu" opacity="1" fill-opacity="0" stroke="#000000" stroke-width="1" stroke-opacity="0"></use></g></g><g><use xlink:href="#a6CwtbQLA" opacity="1" fill="#000000" fill-opacity="1"></use><g><use xlink:href="#a6CwtbQLA" opacity="1" fill-opacity="0" stroke="#000000" stroke-width="1" stroke-opacity="0"></use></g></g><g><use xlink:href="#b24riETH33" opacity="1" fill="#ffffff" fill-opacity="1"></use><g><use xlink:href="#b24riETH33" opacity="1" fill-opacity="0" stroke="#000000" stroke-width="1" stroke-opacity="0"></use></g></g><g><use xlink:href="#f34qCx0WWZ" opacity="1" fill="#000000" fill-opacity="1"></use><g><use xlink:href="#f34qCx0WWZ" opacity="1" fill-opacity="0" stroke="#000000" stroke-width="1" stroke-opacity="0"></use></g></g><g><use xlink:href="#d1gOCdWlGv" opacity="1" fill="#000000" fill-opacity="1"></use><g><use xlink:href="#d1gOCdWlGv" opacity="1" fill-opacity="0" stroke="#000000" stroke-width="1" stroke-opacity="0"></use></g></g><g><use xlink:href="#an0wTaCRA" opacity="1" fill="#000000" fill-opacity="1"></use><g><use xlink:href="#an0wTaCRA" opacity="1" fill-opacity="0" stroke="#000000" stroke-width="1" stroke-opacity="0"></use></g></g><g><use xlink:href="#d1iZvzuWaQ" opacity="1" fill="#000000" fill-opacity="1"></use><g><use xlink:href="#d1iZvzuWaQ" opacity="1" fill-opacity="0" stroke="#000000" stroke-width="1" stroke-opacity="0"></use></g></g><g><use xlink:href="#g1tZgekgUy" opacity="1" fill="#000000" fill-opacity="1"></use><g><use xlink:href="#g1tZgekgUy" opacity="1" fill-opacity="0" stroke="#000000" stroke-width="1" stroke-opacity="0"></use></g></g><g><use xlink:href="#bbVE9TEvO" opacity="1" fill="#f2ee58" fill-opacity="1"></use><g><use xlink:href="#bbVE9TEvO" opacity="1" fill-opacity="0" stroke="#000000" stroke-width="1" stroke-opacity="0"></use></g></g><g><use xlink:href="#m48rjS6kf" opacity="1" fill="#ffffff" fill-opacity="1"></use><g><use xlink:href="#m48rjS6kf" opacity="1" fill-opacity="0" stroke="#000000" stroke-width="1" stroke-opacity="0"></use></g></g><g><use xlink:href="#aWxmI620K" opacity="1" fill="#3f3d56" fill-opacity="1"></use><g><use xlink:href="#aWxmI620K" opacity="1" fill-opacity="0" stroke="#000000" stroke-width="1" stroke-opacity="0"></use></g></g><g><use xlink:href="#h40RIbJROQ" opacity="1" fill="#ffffff" fill-opacity="1"></use><g><use xlink:href="#h40RIbJROQ" opacity="1" fill-opacity="0" stroke="#000000" stroke-width="1" stroke-opacity="0"></use></g></g><g><use xlink:href="#bhMh62WHd" opacity="1" fill="url(#gradientbB9CxIWbd)"></use><g><use xlink:href="#bhMh62WHd" opacity="1" fill-opacity="0" stroke="#000000" stroke-width="1" stroke-opacity="0"></use></g></g><g><use xlink:href="#c3r7HfY1s" opacity="1" fill="#f86d70" fill-opacity="1"></use><g><use xlink:href="#c3r7HfY1s" opacity="1" fill-opacity="0" stroke="#000000" stroke-width="1" stroke-opacity="0"></use></g></g><g><use xlink:href="#f2jU52ZIGj" opacity="1" fill="#000000" fill-opacity="1"></use><g><use xlink:href="#f2jU52ZIGj" opacity="1" fill-opacity="0" stroke="#000000" stroke-width="1" stroke-opacity="0"></use></g></g><g><use xlink:href="#akGHOvVk0" opacity="1" fill="#f86d70" fill-opacity="1"></use><g><use xlink:href="#akGHOvVk0" opacity="1" fill-opacity="0" stroke="#000000" stroke-width="1" stroke-opacity="0"></use></g></g><g><use xlink:href="#b4KQUig2C2" opacity="1" fill="#000000" fill-opacity="1"></use><g><use xlink:href="#b4KQUig2C2" opacity="1" fill-opacity="0" stroke="#000000" stroke-width="1" stroke-opacity="0"></use></g></g><g><use xlink:href="#bpMndbpeC" opacity="1" fill="#fbbebe" fill-opacity="1"></use><g><use xlink:href="#bpMndbpeC" opacity="1" fill-opacity="0" stroke="#000000" stroke-width="1" stroke-opacity="0"></use></g></g><g><use xlink:href="#a4NUptZX7W" opacity="1" fill="#000000" fill-opacity="1"></use><g><use xlink:href="#a4NUptZX7W" opacity="1" fill-opacity="0" stroke="#000000" stroke-width="1" stroke-opacity="0"></use></g></g><g><use xlink:href="#c1I5rdurx0" opacity="1" fill="#fbbebe" fill-opacity="1"></use><g><use xlink:href="#c1I5rdurx0" opacity="1" fill-opacity="0" stroke="#000000" stroke-width="1" stroke-opacity="0"></use></g></g><g><use xlink:href="#dk7TY1scZ" opacity="1" fill="#3f3d56" fill-opacity="1"></use><g><use xlink:href="#dk7TY1scZ" opacity="1" fill-opacity="0" stroke="#000000" stroke-width="1" stroke-opacity="0"></use></g></g><g><use xlink:href="#b12qkp62AU" opacity="1" fill="#fbbebe" fill-opacity="1"></use><g><use xlink:href="#b12qkp62AU" opacity="1" fill-opacity="0" stroke="#000000" stroke-width="1" stroke-opacity="0"></use></g></g><g><use xlink:href="#f1KgmxSmF8" opacity="1" fill="#000000" fill-opacity="1"></use><g><use xlink:href="#f1KgmxSmF8" opacity="1" fill-opacity="0" stroke="#000000" stroke-width="1" stroke-opacity="0"></use></g></g><g><use xlink:href="#a1QmdiGYHO" opacity="1" fill="#3f3d56" fill-opacity="1"></use><g><use xlink:href="#a1QmdiGYHO" opacity="1" fill-opacity="0" stroke="#000000" stroke-width="1" stroke-opacity="0"></use></g></g><g><use xlink:href="#c4dzpAPHaa" opacity="1" fill="#fbbebe" fill-opacity="1"></use><g><use xlink:href="#c4dzpAPHaa" opacity="1" fill-opacity="0" stroke="#000000" stroke-width="1" stroke-opacity="0"></use></g></g><g><use xlink:href="#a3UdC1SnTI" opacity="1" fill="#000000" fill-opacity="1"></use><g><use xlink:href="#a3UdC1SnTI" opacity="1" fill-opacity="0" stroke="#000000" stroke-width="1" stroke-opacity="0"></use></g></g><g><use xlink:href="#b2HHxTrttK" opacity="1" fill="#3f3d56" fill-opacity="1"></use><g><use xlink:href="#b2HHxTrttK" opacity="1" fill-opacity="0" stroke="#000000" stroke-width="1" stroke-opacity="0"></use></g></g><g><use xlink:href="#b2agVSjgMX" opacity="1" fill="#fbbebe" fill-opacity="1"></use><g><use xlink:href="#b2agVSjgMX" opacity="1" fill-opacity="0" stroke="#000000" stroke-width="1" stroke-opacity="0"></use></g></g><g><use xlink:href="#aixiLEGij" opacity="1" fill="#fbbebe" fill-opacity="1"></use><g><use xlink:href="#aixiLEGij" opacity="1" fill-opacity="0" stroke="#000000" stroke-width="1" stroke-opacity="0"></use></g></g><g><use xlink:href="#gKMY50JBx" opacity="1" fill="#000000" fill-opacity="1"></use><g><use xlink:href="#gKMY50JBx" opacity="1" fill-opacity="0" stroke="#000000" stroke-width="1" stroke-opacity="0"></use></g></g><g><use xlink:href="#dkNhb8eHh" opacity="1" fill="#000000" fill-opacity="1"></use><g><use xlink:href="#dkNhb8eHh" opacity="1" fill-opacity="0" stroke="#000000" stroke-width="1" stroke-opacity="0"></use></g></g><g><use xlink:href="#a4iv01brRi" opacity="1" fill="#000000" fill-opacity="1"></use><g><use xlink:href="#a4iv01brRi" opacity="1" fill-opacity="0" stroke="#000000" stroke-width="1" stroke-opacity="0"></use></g></g><g><use xlink:href="#b5qKvh6Qr" opacity="1" fill="#000000" fill-opacity="1"></use><g><use xlink:href="#b5qKvh6Qr" opacity="1" fill-opacity="0" stroke="#000000" stroke-width="1" stroke-opacity="0"></use></g></g><g><use xlink:href="#a2pFR7vrHQ" opacity="1" fill="#2b7214" fill-opacity="1"></use><g><use xlink:href="#a2pFR7vrHQ" opacity="1" fill-opacity="0" stroke="#000000" stroke-width="1" stroke-opacity="0"></use></g></g><g><use xlink:href="#a2wOZErZQ" opacity="1" fill="#f86d70" fill-opacity="1"></use><g><use xlink:href="#a2wOZErZQ" opacity="1" fill-opacity="0" stroke="#000000" stroke-width="1" stroke-opacity="0"></use></g></g><g><use xlink:href="#c2msxXMGAA" opacity="1" fill="#000000" fill-opacity="1"></use><g><use xlink:href="#c2msxXMGAA" opacity="1" fill-opacity="0" stroke="#000000" stroke-width="1" stroke-opacity="0"></use></g></g><g><use xlink:href="#d3cYsLu7g" opacity="1" fill="#000000" fill-opacity="1"></use><g><use xlink:href="#d3cYsLu7g" opacity="1" fill-opacity="0" stroke="#000000" stroke-width="1" stroke-opacity="0"></use></g></g><g><use xlink:href="#bvcallnE9" opacity="1" fill="#f86d70" fill-opacity="1"></use><g><use xlink:href="#bvcallnE9" opacity="1" fill-opacity="0" stroke="#000000" stroke-width="1" stroke-opacity="0"></use></g></g><g><use xlink:href="#e4DNqrXC1t" opacity="1" fill="#000000" fill-opacity="1"></use><g><use xlink:href="#e4DNqrXC1t" opacity="1" fill-opacity="0" stroke="#000000" stroke-width="1" stroke-opacity="0"></use></g></g><g><use xlink:href="#k1fF5PHny" opacity="1" fill="#444053" fill-opacity="1"></use><g><use xlink:href="#k1fF5PHny" opacity="1" fill-opacity="0" stroke="#000000" stroke-width="1" stroke-opacity="0"></use></g></g><g><use xlink:href="#a1tIO8Vlt6" opacity="1" fill="#e8e8f0" fill-opacity="1"></use><g><use xlink:href="#a1tIO8Vlt6" opacity="1" fill-opacity="0" stroke="#000000" stroke-width="1" stroke-opacity="0"></use></g></g><g><use xlink:href="#c3pVBPTrTY" opacity="1" fill="#000000" fill-opacity="1"></use><g><use xlink:href="#c3pVBPTrTY" opacity="1" fill-opacity="0" stroke="#000000" stroke-width="1" stroke-opacity="0"></use></g></g><g><use xlink:href="#cnTkn4unJ" opacity="1" fill="#fbbebe" fill-opacity="1"></use><g><use xlink:href="#cnTkn4unJ" opacity="1" fill-opacity="0" stroke="#000000" stroke-width="1" stroke-opacity="0"></use></g></g><g><use xlink:href="#aOrK6WYVU" opacity="1" fill="#000000" fill-opacity="1"></use><g><use xlink:href="#aOrK6WYVU" opacity="1" fill-opacity="0" stroke="#000000" stroke-width="1" stroke-opacity="0"></use></g></g><g><use xlink:href="#g1lbKlEZI8" opacity="1" fill="#000000" fill-opacity="1"></use><g><use xlink:href="#g1lbKlEZI8" opacity="1" fill-opacity="0" stroke="#000000" stroke-width="1" stroke-opacity="0"></use></g></g><g><use xlink:href="#an5csjRFz" opacity="1" fill="#000000" fill-opacity="1"></use><g><use xlink:href="#an5csjRFz" opacity="1" fill-opacity="0" stroke="#000000" stroke-width="1" stroke-opacity="0"></use></g></g><g><use xlink:href="#cM0huddSw" opacity="1" fill="#000000" fill-opacity="1"></use><g><use xlink:href="#cM0huddSw" opacity="1" fill-opacity="0" stroke="#000000" stroke-width="1" stroke-opacity="0"></use></g></g><g><use xlink:href="#e3QkHea6st" opacity="1" fill="#f86d70" fill-opacity="1"></use><g><use xlink:href="#e3QkHea6st" opacity="1" fill-opacity="0" stroke="#000000" stroke-width="1" stroke-opacity="0"></use></g></g><g><use xlink:href="#bkupgdWsw" opacity="1" fill="#000000" fill-opacity="1"></use><g><use xlink:href="#bkupgdWsw" opacity="1" fill-opacity="0" stroke="#000000" stroke-width="1" stroke-opacity="0"></use></g></g><g><use xlink:href="#h1P1AaSypf" opacity="1" fill="#000000" fill-opacity="1"></use><g><use xlink:href="#h1P1AaSypf" opacity="1" fill-opacity="0" stroke="#000000" stroke-width="1" stroke-opacity="0"></use></g></g><g><use xlink:href="#a3gBL8pwBp" opacity="1" fill="#000000" fill-opacity="1"></use><g><use xlink:href="#a3gBL8pwBp" opacity="1" fill-opacity="0" stroke="#000000" stroke-width="1" stroke-opacity="0"></use></g></g><g><use xlink:href="#c1W6ugkOIv" opacity="1" fill="#000000" fill-opacity="1"></use><g><use xlink:href="#c1W6ugkOIv" opacity="1" fill-opacity="0" stroke="#000000" stroke-width="1" stroke-opacity="0"></use></g></g><g><use xlink:href="#bgIPpHRxe" opacity="1" fill="#000000" fill-opacity="1"></use><g><use xlink:href="#bgIPpHRxe" opacity="1" fill-opacity="0" stroke="#000000" stroke-width="1" stroke-opacity="0"></use></g></g><g><use xlink:href="#d4NqyorIv" opacity="1" fill="#000000" fill-opacity="1"></use><g><use xlink:href="#d4NqyorIv" opacity="1" fill-opacity="0" stroke="#000000" stroke-width="1" stroke-opacity="0"></use></g></g><g><use xlink:href="#dxpxBEpdM" opacity="1" fill="#000000" fill-opacity="1"></use><g><use xlink:href="#dxpxBEpdM" opacity="1" fill-opacity="0" stroke="#000000" stroke-width="1" stroke-opacity="0"></use></g></g><g><use xlink:href="#b3rBwpIr" opacity="1" fill="#000000" fill-opacity="1"></use><g><use xlink:href="#b3rBwpIr" opacity="1" fill-opacity="0" stroke="#000000" stroke-width="1" stroke-opacity="0"></use></g></g><g><use xlink:href="#a1pHWHKVw" opacity="1" fill="#000000" fill-opacity="1"></use><g><use xlink:href="#a1pHWHKVw" opacity="1" fill-opacity="0" stroke="#000000" stroke-width="1" stroke-opacity="0"></use></g></g><g><use xlink:href="#m4XxkuLXLw" opacity="1" fill="#000000" fill-opacity="1"></use><g><use xlink:href="#m4XxkuLXLw" opacity="1" fill-opacity="0" stroke="#000000" stroke-width="1" stroke-opacity="0"></use></g></g><g><use xlink:href="#c1i59z0cJM" opacity="1" fill="#000000" fill-opacity="1"></use><g><use xlink:href="#c1i59z0cJM" opacity="1" fill-opacity="0" stroke="#000000" stroke-width="1" stroke-opacity="0"></use></g></g><g><use xlink:href="#d5W0OAZvqJ" opacity="1" fill="#43ef00" fill-opacity="1"></use><g><use xlink:href="#d5W0OAZvqJ" opacity="1" fill-opacity="0" stroke="#000000" stroke-width="1" stroke-opacity="0"></use></g></g><g><use xlink:href="#a3yxqFWpc8" opacity="1" fill="#63ffb2" fill-opacity="1"></use><g><use xlink:href="#a3yxqFWpc8" opacity="1" fill-opacity="0" stroke="#000000" stroke-width="1" stroke-opacity="0"></use></g></g><g><use xlink:href="#a4QKTlPcvg" opacity="1" fill="#63ffb2" fill-opacity="1"></use><g><use xlink:href="#a4QKTlPcvg" opacity="1" fill-opacity="0" stroke="#000000" stroke-width="1" stroke-opacity="0"></use></g></g><g><use xlink:href="#b1170qy9MY" opacity="1" fill="#63ffb2" fill-opacity="1"></use><g><use xlink:href="#b1170qy9MY" opacity="1" fill-opacity="0" stroke="#000000" stroke-width="1" stroke-opacity="0"></use></g></g></g></g></svg>