<svg width="32" height="32" viewBox="0 0 32 32" fill="none" xmlns="http://www.w3.org/2000/svg">
<path fill-rule="evenodd" clip-rule="evenodd" d="M18.3811 9.12405C17.9134 9.4602 17.3858 9.69642 16.8291 9.81893C16.2724 9.94143 15.6978 9.94777 15.1387 9.83757C14.5796 9.72737 14.0473 9.50283 13.5728 9.17707C13.0984 8.85131 12.6912 8.43084 12.3752 7.94021C12.0592 7.44958 11.8405 6.8986 11.7321 6.31944C11.6237 5.74028 11.6276 5.14453 11.7437 4.56696C11.8597 3.98939 12.0856 3.44157 12.4081 2.95546C12.7305 2.46935 13.1432 2.05469 13.6219 1.73569C14.5671 1.0885 15.7209 0.855545 16.8313 1.08774C17.9416 1.31993 18.9182 1.99839 19.5474 2.97481C20.1766 3.95122 20.4074 5.14618 20.1892 6.29846C19.9711 7.45074 19.3218 8.46663 18.3832 9.12405H18.3811ZM17.1918 3.58389C16.9584 3.40985 16.6937 3.28628 16.4133 3.22051C16.1329 3.15475 15.8426 3.14814 15.5597 3.20109C15.2768 3.25404 15.0071 3.36545 14.7666 3.52871C14.5261 3.69196 14.3198 3.90371 14.1598 4.15135C13.9999 4.39899 13.8897 4.67746 13.8357 4.97018C13.7818 5.26289 13.7852 5.56387 13.8458 5.8552C13.9063 6.14652 14.0228 6.42223 14.1883 6.66592C14.3538 6.9096 14.5649 7.11627 14.809 7.27363C15.2807 7.57066 15.8447 7.66758 16.3836 7.54422C16.9224 7.42085 17.3946 7.08671 17.7018 6.61139C18.0089 6.13607 18.1273 5.55624 18.0323 4.99267C17.9373 4.42911 17.6362 3.92527 17.1918 3.58611V3.58389ZM22.7845 3.65053C23.4025 3.21958 24.1461 3.02551 24.8873 3.10174C25.6285 3.17797 26.3208 3.51972 26.8451 4.06815C27.2187 4.45856 27.4942 4.93804 27.6474 5.46453C27.8006 5.99102 27.8268 6.54843 27.7238 7.08789C27.6208 7.62734 27.3917 8.13235 27.0565 8.55862C26.7214 8.98489 26.2905 9.31939 25.8016 9.53279C25.2144 9.7873 24.5673 9.85434 23.9432 9.72533C23.319 9.59631 22.7462 9.27712 22.2981 8.80861C21.9613 8.45767 21.7035 8.03389 21.5431 7.56759C21.3828 7.10129 21.3238 6.60402 21.3705 6.11135C21.4172 5.61867 21.5684 5.14279 21.8132 4.71776C22.058 4.29272 22.3904 3.92905 22.7866 3.65275L22.7845 3.65053ZM23.8131 7.22698C24.0142 7.43466 24.2868 7.55098 24.5707 7.55035C24.7112 7.55004 24.8504 7.52103 24.9801 7.46497C25.1099 7.40892 25.2277 7.32691 25.3269 7.22365C25.4261 7.12038 25.5047 6.99787 25.5583 6.86311C25.6118 6.72835 25.6392 6.58398 25.6389 6.43825C25.6386 6.29251 25.6106 6.14827 25.5565 6.01375C25.5024 5.87923 25.4233 5.75706 25.3237 5.65423C25.1242 5.44622 24.8545 5.32674 24.5716 5.32102C24.4303 5.32072 24.2903 5.34947 24.1598 5.4056C24.0292 5.46173 23.9107 5.54413 23.8111 5.64803C23.7115 5.75194 23.6327 5.87528 23.5793 6.01094C23.526 6.1466 23.4991 6.29188 23.5002 6.43838C23.5009 6.73422 23.6132 7.01805 23.8131 7.2292V7.22698ZM5.69354 26.5043H9.572V28.7368H5.69354C5.01458 28.7304 4.36575 28.4452 3.8893 27.9437C3.41101 27.4404 3.14313 26.7621 3.14361 26.0555V22.0348C2.85511 22.0248 2.57156 21.9543 2.31007 21.8275C2.04859 21.7008 1.81459 21.5204 1.62222 21.2973C1.4178 21.0826 1.25738 20.8274 1.15059 20.5468C1.0438 20.2662 0.99285 19.9661 1.00081 19.6646V14.8175C1.00724 13.769 1.40794 12.7671 2.11506 12.023C2.82004 11.2877 3.77359 10.8678 4.77213 10.8612H8.71489C8.18307 11.5178 7.78246 12.2774 7.53635 13.0959H4.77213C4.33723 13.1088 3.92344 13.2931 3.61502 13.6113C3.31208 13.9342 3.1429 14.3671 3.14361 14.8175V19.7757H5.28641V26.0533C5.28144 26.1138 5.28837 26.1748 5.30679 26.2324C5.3252 26.2901 5.35472 26.3433 5.39355 26.3888C5.47968 26.4578 5.58472 26.4966 5.69354 26.4998V26.5043ZM21.336 12.0252C20.9853 11.6582 20.5682 11.3666 20.1086 11.1672C19.6489 10.9678 19.1557 10.8646 18.6575 10.8634H13.3433C12.3444 10.8717 11.3892 11.2893 10.6863 12.0252C9.97914 12.7694 9.57843 13.7712 9.572 14.8197V21.8793C9.56897 22.4855 9.79156 23.0695 10.1934 23.5098C10.386 23.7326 10.6201 23.9128 10.8815 24.0395C11.1429 24.1663 11.4264 24.2369 11.7148 24.2473V29.4076C11.7128 29.7598 11.778 30.109 11.9067 30.435C12.0355 30.7609 12.2251 31.0573 12.4648 31.3069C12.8505 31.6801 13.3369 31.9223 13.8576 32H18.1432C18.7459 31.918 19.2981 31.6079 19.6937 31.1294C20.0892 30.6508 20.3002 30.0376 20.286 29.4076V24.2451C20.5745 24.2351 20.8581 24.1646 21.1195 24.0378C21.381 23.9111 21.615 23.7307 21.8074 23.5076C22.0116 23.2933 22.172 23.0384 22.2788 22.7582C22.3856 22.478 22.4366 22.1783 22.4288 21.8771V14.8175C22.4303 13.7738 22.0381 12.7709 21.336 12.023V12.0252ZM20.286 21.9882H18.1432V29.4076C18.1411 29.5247 18.095 29.6363 18.0146 29.7186C17.9781 29.7635 17.9319 29.7989 17.8798 29.822C17.8278 29.8452 17.7712 29.8554 17.7146 29.8519H14.2647C14.1528 29.8465 14.0468 29.798 13.9675 29.7158C13.8882 29.6336 13.8414 29.5237 13.8362 29.4076V21.9882H11.7148V14.8175C11.7148 14.3665 11.8841 13.9334 12.1862 13.6113C12.4946 13.2931 12.9084 13.1088 13.3433 13.0959H18.6575C18.9821 13.1018 19.298 13.2059 19.5663 13.3953C19.8347 13.5847 20.0438 13.8513 20.1681 14.1622C20.2497 14.3701 20.2898 14.593 20.286 14.8175V21.9882ZM26.3073 28.7345H22.4288V26.502H26.2858C26.3947 26.4989 26.4997 26.46 26.5858 26.391C26.629 26.3472 26.6627 26.2946 26.6849 26.2364C26.7071 26.1782 26.7171 26.1158 26.7144 26.0533V19.7757H28.8572V14.8175C28.8579 14.3671 28.6887 13.9342 28.3858 13.6113C28.0774 13.2931 27.6636 13.1088 27.2287 13.0959H24.4645C24.2185 12.2774 23.8178 11.5177 23.2859 10.8612H27.2287C28.2274 10.8707 29.1822 11.2881 29.8857 12.023C30.5929 12.7671 30.9936 13.769 31 14.8175V19.6646C31 20.271 30.7793 20.853 30.3807 21.2929C29.9822 21.7349 29.4379 21.9993 28.8572 22.0326V26.0533C28.8572 26.7619 28.5894 27.4395 28.1115 27.9415C27.6351 28.443 26.9862 28.7282 26.3073 28.7345ZM7.42921 3.0863C6.79157 3.08553 6.16824 3.28218 5.6391 3.65104C5.10997 4.0199 4.69915 4.54416 4.45929 5.15664C4.21721 5.7689 4.15437 6.44149 4.2786 7.09053C4.40282 7.73957 4.70861 8.33633 5.15784 8.80639C5.6069 9.27591 6.18077 9.596 6.80616 9.72577C7.43155 9.85554 8.08005 9.7891 8.66884 9.53493C9.25762 9.28076 9.75996 8.85041 10.1117 8.29885C10.4634 7.74728 10.6485 7.09955 10.6434 6.43838C10.6434 5.54982 10.3048 4.69681 9.70057 4.06815C9.40303 3.75745 9.04919 3.51077 8.6594 3.34227C8.2696 3.17377 7.85153 3.08678 7.42921 3.0863ZM7.42921 7.55575C7.28788 7.55604 7.14791 7.5273 7.01737 7.47117C6.88683 7.41504 6.76832 7.33264 6.66869 7.22874C6.56906 7.12483 6.49029 7.00148 6.43693 6.86582C6.38356 6.73016 6.35667 6.58488 6.35781 6.43838C6.35836 6.14337 6.47122 5.86051 6.67184 5.65128C6.87246 5.44205 7.14464 5.32336 7.42921 5.32102C7.71291 5.3262 7.98349 5.44579 8.18353 5.65441C8.38356 5.86303 8.4973 6.14425 8.50061 6.43838C8.50005 6.7334 8.3872 7.01626 8.18657 7.22549C7.98595 7.43472 7.71377 7.55341 7.42921 7.55575Z" fill="#FF7B47"/>
</svg>
