<?xml version="1.0" encoding="utf-8" ?>
<svg xmlns="http://www.w3.org/2000/svg" xmlns:xlink="http://www.w3.org/1999/xlink" width="123" height="52">
  <defs>
    <clipPath id="clip_0">
      <rect x="-650.40002" y="-359" width="1425.6" height="1013.76" clip-rule="evenodd"/>
    </clipPath>
  </defs>
  <g clip-path="url(#clip_0)">
    <path fill="rgb(46,161,248)" stroke="none" transform="matrix(0.99 0 0 0.99 1.34473 0.609589)" d="M38.082 24.75C40.062 14.982 41.58 8.448 44.022 3.63C45.144 1.386 46.53 0 49.17 0C52.932 0 54.648 2.178 54.648 3.498C54.648 4.158 54.252 4.488 53.658 4.488C52.074 4.488 51.084 4.686 49.764 6.27C46.794 9.9 41.118 26.07 39.468 41.844C39.402 43.23 38.676 43.758 37.752 43.758L31.218 43.758C30.492 43.758 30.03 43.428 29.964 42.306C29.7402 38.781 29.718 35.2204 29.6963 31.7449C29.6668 27.0212 29.6383 22.4546 29.106 18.348L28.776 18.348C26.598 27.918 22.638 46.596 9.504 46.596C3.564 46.596 0 42.57 0 37.95C0 33.132 4.95 29.502 7.458 29.502C8.118 29.502 8.382 29.832 8.382 30.294C8.382 31.086 7.92 31.614 7.92 33.132C7.92 34.782 9.042 36.498 11.748 36.498C17.688 36.498 25.344 20.394 25.344 8.712C25.344 5.082 23.76 3.696 21.384 3.696C17.82 3.696 13.86 9.504 13.86 14.85C13.86 17.028 15.114 18.018 16.5 18.018C17.358 18.018 18.15 17.49 18.612 17.49C19.074 17.49 19.272 17.754 19.272 18.216C19.272 20.196 15.708 24.948 10.89 24.948C6.93 24.948 3.96 22.044 3.96 17.424C3.96 6.204 14.85 0 22.968 0C32.538 0 35.31 5.016 36.894 12.078C37.62 15.246 37.95 20.79 38.082 24.75ZM80.784 26.466C79.134 26.466 78.408 26.994 77.946 28.578C77.418 30.492 76.56 33.858 76.56 36.036C76.56 38.016 77.55 38.742 79.134 38.742C80.4953 38.742 81.9233 37.3399 82.9669 36.53C83.07 37.4765 83.2837 38.3301 83.5971 39.094C81.6376 41.3611 77.7445 44.088 74.184 44.088C69.432 44.088 67.386 41.25 67.386 37.752C67.386 33.528 69.432 30.228 69.432 26.928C69.432 26.07 67.65 26.598 67.65 25.41C67.65 24.75 68.046 23.496 68.772 23.496C72.27 23.496 75.504 20.064 77.22 17.292C77.88 16.236 78.408 15.84 79.002 15.84C79.728 15.84 80.058 16.368 80.058 16.896C80.058 18.348 79.134 21.054 79.134 22.176C79.134 23.034 79.398 23.496 81.378 23.496C81.906 23.496 82.302 23.694 82.302 24.222C82.302 25.542 81.576 26.466 80.784 26.466ZM103.713 40.3051C101.569 42.2839 98.4932 44.286 93.456 44.286C88.7229 44.286 85.0653 42.6726 83.5971 39.094C84.3981 38.1673 84.876 37.3174 84.876 36.762C84.876 36.366 84.546 35.97 84.018 35.97C83.7512 35.97 83.3907 36.2012 82.9669 36.53C82.92 36.0988 82.896 35.6482 82.896 35.178C82.896 28.776 88.044 23.034 96.822 23.034C101.31 23.034 103.356 25.014 103.356 27.852C103.356 31.614 98.934 35.244 92.334 35.772C92.334 38.082 94.116 39.864 97.284 39.864C100.058 39.864 102.114 38.385 103.565 37.1997C103.431 37.5804 103.356 38.008 103.356 38.478C103.356 39.1359 103.48 39.7466 103.713 40.3051ZM103.713 40.3051C104.293 39.7689 104.806 39.2345 105.27 38.742C106.26 37.686 106.59 37.158 106.59 36.498C106.59 36.102 106.326 35.706 105.798 35.706C105.402 35.706 104.94 36.036 104.412 36.498C104.157 36.707 103.875 36.9467 103.565 37.1997C104.032 35.8699 105.212 35.112 106.392 35.112C108.174 35.112 109.23 35.97 109.23 37.554C109.23 39.204 109.824 40.326 111.012 40.326C111.936 40.326 112.464 39.732 112.464 38.544C112.464 34.65 105.93 34.056 105.93 29.106C105.93 24.948 110.088 22.836 115.038 22.836C119.856 22.836 122.034 24.684 122.034 27.39C122.034 29.172 121.11 30.756 118.932 30.756C117.678 30.756 116.556 29.766 116.556 28.512C116.556 27.522 117.084 27.126 117.084 26.532C117.084 25.872 116.556 25.608 115.83 25.608C114.972 25.608 113.916 26.532 113.916 27.786C113.916 31.68 121.176 32.208 121.176 37.026C121.176 41.316 117.744 44.22 111.936 44.22C107.9 44.22 104.741 42.7719 103.713 40.3051ZM58.146 22.902C63.03 22.902 66.396 26.07 66.396 30.624C66.396 38.016 61.71 44.352 53.592 44.352C47.784 44.352 44.022 40.986 44.022 35.706C44.022 29.304 49.104 22.902 58.146 22.902ZM98.538 27.39C98.538 28.974 96.096 32.274 92.334 33C92.334 29.106 94.974 25.872 96.954 25.872C98.01 25.872 98.538 26.4 98.538 27.39ZM60.192 32.01C61.116 32.406 61.512 33.396 61.512 34.518C61.512 36.828 59.796 39.534 57.156 39.534C54.582 39.534 52.866 37.62 52.866 34.65C52.866 30.888 54.45 28.446 56.1 27.126C57.024 26.4 57.684 26.202 57.948 26.202C58.344 26.202 58.542 26.4 58.542 26.73C58.542 27.126 57.552 27.654 57.552 29.304C57.552 30.492 58.146 31.218 60.192 32.01Z" fill-rule="evenodd"/>
  </g>
</svg>