<?xml version="1.0" encoding="UTF-8" standalone="no"?><!DOCTYPE svg PUBLIC "-//W3C//DTD SVG 1.1//EN" "http://www.w3.org/Graphics/SVG/1.1/DTD/svg11.dtd"><svg width="100%" height="100%" viewBox="0 0 18750 18750" version="1.1" xmlns="http://www.w3.org/2000/svg" xmlns:xlink="http://www.w3.org/1999/xlink" xml:space="preserve" xmlns:serif="http://www.serif.com/" style="fill-rule:evenodd;clip-rule:evenodd;stroke-linejoin:round;stroke-miterlimit:2;"><path d="M12680.8,18164c-1604.55,836.782 -3332.71,437.401 -5159.72,-950.474c910.554,-127.771 1718.91,-408.839 2444.08,-814.692c-3234.52,335.087 -4990.28,-835.469 -5675.69,-3095.83c1024.37,520.58 2161.97,701.483 3476.02,353.034c-4098.23,-947.28 -4437.12,-4102.43 -4833.84,-7223.61c960.656,1694.89 2336.58,2989.35 4127.77,3883.37c-2783.08,-2997.08 -3228.34,-6516.44 -2525.55,-10292.3c0,0 3367.39,6626.16 5376.97,8798.68c2009.57,2172.51 7882.69,6217.88 5232.5,9493.88c-813.199,1005.23 -2462.54,-152.076 -2462.54,-152.076Z" style="fill:#fff;"/></svg>