<?xml version="1.0" encoding="UTF-8" standalone="no"?><!DOCTYPE svg PUBLIC "-//W3C//DTD SVG 1.1//EN" "http://www.w3.org/Graphics/SVG/1.1/DTD/svg11.dtd"><svg width="100%" height="100%" viewBox="0 0 18750 18750" version="1.1" xmlns="http://www.w3.org/2000/svg" xmlns:xlink="http://www.w3.org/1999/xlink" xml:space="preserve" xmlns:serif="http://www.serif.com/" style="fill-rule:evenodd;clip-rule:evenodd;stroke-linejoin:round;stroke-miterlimit:2;"><path d="M4318.14,2152.7c-1463.8,1533.62 -1835.24,4071.73 -1835.24,4071.73c-468.79,3358.62 -1156.32,6654.75 -1946.91,9921.43c-30.669,490.259 57.641,928.283 645.574,1146.96l3895.87,1230.17c943.469,277.277 1461.42,25.253 1633.01,-657.619l344.723,-5860.28c-103.157,-289.845 -261.651,-566.193 -761.335,-759.325l-2561.79,-1184.91c-344.957,-196.47 -525.926,-477.276 -330.934,-951.435l758.39,-1461.62c285.578,-256.265 586.024,-259.762 896.279,-96.523l2799.15,1254.79c328.723,213.135 540.717,477.027 522.427,813.545l1.552,3585.12l703.234,937.646c207.486,201.913 402.359,195.7 585.748,-0l703.234,-937.646l1.552,-3585.12c-18.29,-336.518 193.704,-600.41 522.427,-813.545l2799.15,-1254.79c310.255,-163.239 610.701,-159.742 896.279,96.523l758.39,1461.62c194.992,474.159 14.023,754.965 -330.934,951.435l-2561.79,1184.91c-499.684,193.132 -658.178,469.48 -761.335,759.325l344.723,5860.28c171.584,682.872 689.536,934.896 1633.01,657.619l3895.87,-1230.17c587.933,-218.678 676.243,-656.702 645.574,-1146.96c-790.597,-3266.68 -1478.12,-6562.8 -1946.91,-9921.43c0,0 -351.965,-2556.94 -1835.24,-4071.73c-1695.16,-1731.17 -3056.66,-2038.41 -5224.67,-2036.45c-1422.51,1.286 -3311.55,383.72 -4889.05,2036.45Z" style="fill:#fff;"/></svg>