<?xml version="1.0" encoding="UTF-8" standalone="no"?>
<!DOCTYPE svg PUBLIC "-//W3C//DTD SVG 1.1//EN" "http://www.w3.org/Graphics/SVG/1.1/DTD/svg11.dtd">
<svg width="100%" height="100%" viewBox="0 0 1080 1080" version="1.1" xmlns="http://www.w3.org/2000/svg" xmlns:xlink="http://www.w3.org/1999/xlink" xml:space="preserve" xmlns:serif="http://www.serif.com/" style="fill-rule:evenodd;clip-rule:evenodd;stroke-linejoin:round;stroke-miterlimit:2;">
    <path d="M458.473,587.812C458.473,587.812 459.841,470.577 360.259,474.46C282.851,477.48 269.989,555.836 269.269,579.272C268.577,601.804 287.671,683.858 364.209,683.297C423.106,682.865 450.006,624.835 452.869,614.438C457.409,597.946 458.473,587.812 458.473,587.812L543.711,602.472L542.573,848.674C426.747,851.453 340.341,824.751 268.703,791.484L252.322,806.071C278.73,821.064 306.603,835.454 340.259,847.462C326.329,877.973 308.242,909.34 283.291,942.121C175.971,909.58 87.013,863.65 11.447,807.955C-9.862,593.954 39.79,384.921 168.569,201.878C237.684,165.53 311.954,142.582 392.107,134.932C400.948,150.266 409.972,167.53 419.521,190.309C460.346,184.629 501.17,181.118 541.994,181.107L543.711,602.472" style="fill:white;"/>
    <g transform="matrix(-1,0,0,1,1080.98,0)">
        <path d="M458.473,587.812C458.473,587.812 459.841,470.577 360.259,474.46C282.851,477.48 269.989,555.836 269.269,579.272C268.577,601.804 287.671,683.858 364.209,683.297C423.106,682.865 450.006,624.835 452.869,614.438C457.409,597.946 458.473,587.812 458.473,587.812L543.711,602.472C541.951,684.584 540.647,769.986 538.41,848.674C428.222,849.245 339.941,824.211 268.703,791.484L252.322,806.071C278.73,821.064 306.603,835.454 340.259,847.462C326.329,877.973 308.242,909.34 283.291,942.121C175.971,909.58 87.013,863.65 11.447,807.955C-9.862,593.954 39.79,384.921 168.569,201.878C237.684,165.53 311.954,142.582 392.107,134.932C400.948,150.266 409.972,167.53 419.521,190.309C460.346,184.629 501.17,181.118 541.994,181.107L543.711,602.472" style="fill:white;"/>
    </g>
</svg>
