<?xml version="1.0" encoding="UTF-8" standalone="no"?><!DOCTYPE svg PUBLIC "-//W3C//DTD SVG 1.1//EN" "http://www.w3.org/Graphics/SVG/1.1/DTD/svg11.dtd"><svg width="100%" height="100%" viewBox="0 0 4500 4500" version="1.1" xmlns="http://www.w3.org/2000/svg" xmlns:xlink="http://www.w3.org/1999/xlink" xml:space="preserve" xmlns:serif="http://www.serif.com/" style="fill-rule:evenodd;clip-rule:evenodd;stroke-linejoin:round;stroke-miterlimit:2;"><path d="M1619.99,2535.11l19.237,1847.09c1.848,65.777 41.915,90.157 104.533,90.109l861.548,-2.284c98.132,2.59 133.195,-44.82 129.26,-123.147l-5.549,-1800.1l816.197,-1.921c54.597,0.339 88.424,-18.413 93.327,-63.746l0.231,-772.964c-12.453,-61.747 -56.906,-71.181 -105.708,-70.844l-799.402,0.521l6.558,-535.295c35.93,-157.298 139.566,-180.553 258.55,-186.742l539.536,-12.277c98.152,-0.421 127.869,-22.486 129.545,-77.512l1.373,-692.968c-1.597,-49.041 -26.1,-80.842 -86.633,-85.528c0,0 -630.223,-72.02 -1143.4,58.686c-221.003,56.289 -400.396,152.654 -540.847,303.716c-99.192,106.686 -204.4,260.911 -244.486,433.193c-47.658,204.822 -26.756,796.898 -26.756,796.898l-659.734,-1.869c-89.024,-5.282 -130.761,17.761 -132.38,64.836l-3.976,720.646c-2.538,75.306 14.73,123.029 127.651,119.334l661.328,-7.823Z" style="fill:#fff;"/></svg>