<?xml version="1.0" encoding="UTF-8" standalone="no"?><!DOCTYPE svg PUBLIC "-//W3C//DTD SVG 1.1//EN" "http://www.w3.org/Graphics/SVG/1.1/DTD/svg11.dtd"><svg width="100%" height="100%" viewBox="0 0 18750 18750" version="1.1" xmlns="http://www.w3.org/2000/svg" xmlns:xlink="http://www.w3.org/1999/xlink" xml:space="preserve" xmlns:serif="http://www.serif.com/" style="fill-rule:evenodd;clip-rule:evenodd;stroke-linejoin:round;stroke-miterlimit:2;"><g><path d="M15375.8,14160.1c-201.894,-349.689 -649.709,-469.681 -999.399,-267.788l-3707.21,2140.36c-349.69,201.893 -469.682,649.709 -267.788,999.398c201.893,349.69 649.709,469.682 999.398,267.788l3707.22,-2140.36c349.689,-201.893 469.681,-649.709 267.788,-999.399Z" style="fill:#fff;"/><path d="M15287,16715.1c-203.788,-352.973 -655.808,-474.091 -1008.78,-270.302l-1349.42,779.085c-352.973,203.789 -474.091,655.808 -270.302,1008.78c203.789,352.972 655.808,474.09 1008.78,270.302l1349.42,-779.086c352.973,-203.789 474.091,-655.808 270.302,-1008.78Z" style="fill:#fff;"/><path d="M6141.27,3970.67c1973.06,-1211.43 4352.15,-878.975 5510.8,295.112c2640.96,2676.14 186.316,5595.37 186.316,5595.37l-513.511,2695.61l976.265,1691.39c0,0 2750.78,-1587 2772.64,-1604.21c554.708,-436.705 -136.839,-1376.29 -273.983,-2484.76c-257.437,-2080.73 344.72,-4205.35 -863.188,-6297.51c-2177.99,-3772.4 -5850.57,-4693.1 -9321.33,-2720.16c-17.801,10.119 -90.393,52.03 -108.056,62.386c-3443.99,2019.3 -4482.94,5660.19 -2304.94,9432.59c1207.91,2092.16 3348.96,2632.99 5022.21,3896.3c880.329,664.654 1401.99,1656.24 2117.03,1411.17c38.121,-13.066 2959.62,-1695.81 2959.62,-1695.81l-976.272,-1691.41l-2608.37,-879.973c0,0 -3878.34,673.719 -4773.16,-2993.72c-383.376,-1571.28 381.343,-3597.01 2197.93,-4712.38Z" style="fill:#fff;"/><g><g><path d="M6108.87,8179.16c287.93,-166.237 656.656,-67.437 822.893,220.494c166.236,287.93 67.437,656.656 -220.494,822.893c-287.93,166.236 -656.656,67.436 -822.893,-220.494c-166.236,-287.93 -67.437,-656.656 220.494,-822.893Z" style="fill:#fff;"/><path d="M8039.54,7064.48c287.93,-166.237 656.656,-67.437 822.892,220.493c166.237,287.931 67.437,656.657 -220.493,822.893c-287.93,166.237 -656.656,67.437 -822.893,-220.493c-166.237,-287.93 -67.437,-656.656 220.494,-822.893Z" style="fill:#fff;"/><path d="M9855.2,6016.21c287.931,-166.237 656.657,-67.437 822.893,220.493c166.237,287.931 67.437,656.657 -220.493,822.893c-287.931,166.237 -656.657,67.437 -822.893,-220.493c-166.237,-287.93 -67.437,-656.656 220.493,-822.893Z" style="fill:#fff;"/></g></g></g></svg>