<?xml version="1.0" encoding="UTF-8" standalone="no"?><!DOCTYPE svg PUBLIC "-//W3C//DTD SVG 1.1//EN" "http://www.w3.org/Graphics/SVG/1.1/DTD/svg11.dtd"><svg width="100%" height="100%" viewBox="0 0 18750 18750" version="1.1" xmlns="http://www.w3.org/2000/svg" xmlns:xlink="http://www.w3.org/1999/xlink" xml:space="preserve" xmlns:serif="http://www.serif.com/" style="fill-rule:evenodd;clip-rule:evenodd;stroke-linejoin:round;stroke-miterlimit:2;"><path d="M9448.35,1587.74l-19.592,-1410.33l-4192.94,2.34c-2856.58,273.959 -4792.83,2156.93 -5129.16,4914.03l0.351,8285.47c190.549,2869.3 1842.39,4885.21 5123.65,5190.17l8072.73,0.831c2976.64,-71.298 5077.8,-2317.47 5332.56,-4926.66l7.396,-8258.9c-403.648,-3385.27 -2242.47,-4917.08 -5063.85,-5180.89l-4150.74,-26.381l19.592,1410.33l3489.02,32.977c907.046,-9.344 1628.85,-39.42 2834.21,850.657c1567.11,1157.21 1444.09,2700.18 1447.97,3535.15l-6.254,6991.45c17.472,855.344 1.521,2101.32 -1483.56,3302.54c-1030.7,833.691 -1920.15,841.542 -3025.86,868.055l-6826.61,-0.704c-1533.33,18.675 -2558.72,-347.805 -3380.44,-1316.64c-992.758,-1170.49 -968.42,-1925.28 -971.594,-3069.37l-2.367,-7070.92c-55.316,-2747.06 2137.27,-4235.38 4358.77,-4110.57l3566.71,-12.625Z" style="fill:#fff;"/><path d="M9364.19,4434.42c2744.18,0 4972.1,2217.21 4972.1,4948.19c0,2730.98 -2227.92,4948.19 -4972.1,4948.19c-2744.18,-0 -4972.1,-2217.21 -4972.1,-4948.19c0,-2730.98 2227.92,-4948.19 4972.1,-4948.19Zm-0,1402.79c1966.22,-0 3562.53,1588.64 3562.53,3545.4c-0,1956.76 -1596.32,3545.4 -3562.53,3545.4c-1966.22,0 -3562.53,-1588.64 -3562.53,-3545.4c-0,-1956.76 1596.32,-3545.4 3562.53,-3545.4Z" style="fill:#fff;"/><ellipse cx="14723.6" cy="4080.93" rx="1067.34" ry="1059.59" style="fill:#fff;"/></svg>