<?xml version="1.0" encoding="UTF-8" standalone="no"?><!DOCTYPE svg PUBLIC "-//W3C//DTD SVG 1.1//EN" "http://www.w3.org/Graphics/SVG/1.1/DTD/svg11.dtd"><svg width="100%" height="100%" viewBox="0 0 4500 4500" version="1.1" xmlns="http://www.w3.org/2000/svg" xmlns:xlink="http://www.w3.org/1999/xlink" xml:space="preserve" xmlns:serif="http://www.serif.com/" style="fill-rule:evenodd;clip-rule:evenodd;stroke-linejoin:round;stroke-miterlimit:2;"><g><path d="M1724.47,89.585c921.858,-0 1670.29,734.265 1670.29,1638.67c0,904.409 -748.431,1638.67 -1670.29,1638.67c-921.857,0 -1670.29,-734.265 -1670.29,-1638.67c0,-904.41 748.432,-1638.67 1670.29,-1638.67Zm0,409.669c691.393,-0 1252.72,550.699 1252.72,1229.01c-0,678.306 -561.324,1229.01 -1252.72,1229.01c-691.393,-0 -1252.72,-550.7 -1252.72,-1229.01c0,-678.307 561.324,-1229.01 1252.72,-1229.01Z" style="fill:#515151;"/><path d="M4357.09,4321.2c118.494,-118.76 118.277,-311.38 -0.483,-429.873l-1274.3,-1271.43c-118.76,-118.493 -311.38,-118.277 -429.873,0.483c-118.494,118.761 -118.277,311.38 0.483,429.874l1274.3,1271.43c118.76,118.494 311.38,118.277 429.873,-0.483Z" style="fill:#515151;"/></g></svg>