<?xml version="1.0" encoding="UTF-8" standalone="no"?><!DOCTYPE svg PUBLIC "-//W3C//DTD SVG 1.1//EN" "http://www.w3.org/Graphics/SVG/1.1/DTD/svg11.dtd"><svg width="100%" height="100%" viewBox="0 0 18750 18750" version="1.1" xmlns="http://www.w3.org/2000/svg" xmlns:xlink="http://www.w3.org/1999/xlink" xml:space="preserve" xmlns:serif="http://www.serif.com/" style="fill-rule:evenodd;clip-rule:evenodd;stroke-linejoin:round;stroke-miterlimit:2;"><g id="sword"><path d="M8350.38,6552.88l4576.19,9970.65l323.411,1989.29c-0,-0 -36.793,3.14 -59.108,-5.593l-2762.53,-1081.71c-242.549,-64.358 -420.959,-503.452 -537.882,-770.038l-4324.51,-9148.55l-1085.79,503.578c-236.623,109.743 -519.833,2.534 -632.046,-239.262l-340.634,-733.994c-112.213,-241.795 -11.207,-527.2 225.416,-636.944l2466.12,-1143.77l-1677.64,-3690.14c-153.908,-335.443 -122.45,-622.488 258.761,-818.217l1536.39,-641.66c251.463,-56.335 448.521,21.217 573.352,278.256l1736.06,3746.18l2528.54,-1172.71c236.624,-109.744 519.834,-2.534 632.047,239.261l340.634,733.994c112.212,241.796 11.207,527.201 -225.416,636.944l-1176.41,537.03l4393.82,9317.18c81.462,169.047 -1614.82,470.172 -1614.82,470.172l-4072.23,-8850.13l-1081.74,510.191Z" style="fill:#fff;"/><path d="M9404.26,6043.81l-1054.2,509.774l-2151.03,-1297.05l4955.46,-2298.3c236.624,-109.744 519.834,-2.534 632.047,239.261l340.634,733.994c112.212,241.796 11.207,527.201 -225.416,636.944l-1176.41,537.03l4393.82,9317.18c122.372,253.941 247.2,363.5 107.646,761.009l-1090.75,2977.59c-92.886,249.914 -187.42,385.596 -306.546,442.719c-154.68,74.172 -638.646,-96.747 -638.646,-96.747l-264.711,-1984.55l588.42,-1609.79l-4110.32,-8869.07Z" style="fill:#fff;"/></g></svg>