<?xml version="1.0" encoding="UTF-8" standalone="no"?><!DOCTYPE svg PUBLIC "-//W3C//DTD SVG 1.1//EN" "http://www.w3.org/Graphics/SVG/1.1/DTD/svg11.dtd"><svg width="100%" height="100%" viewBox="0 0 4500 4500" version="1.1" xmlns="http://www.w3.org/2000/svg" xmlns:xlink="http://www.w3.org/1999/xlink" xml:space="preserve" xmlns:serif="http://www.serif.com/" style="fill-rule:evenodd;clip-rule:evenodd;stroke-linejoin:round;stroke-miterlimit:2;"><path d="M1935.38,1679.63l-14.575,776.963c-0,-0 -773.964,-137.324 -792.788,663.195c-12.269,521.775 622.009,753.927 1010.54,433.035c256.022,-211.45 216.217,-672.346 216.217,-672.346l11.111,-2858.25l732.488,15.586c91.79,593.565 368.668,1011.17 1021.05,1071.81l10.29,768.247c-406.058,36.447 -722.571,-146.76 -1030.33,-352.131l-22.57,1789.25c-0,0 -165.616,1189.31 -1432.43,1162.35c-874.253,-18.606 -1283.54,-839.399 -1273.94,-1480.58c4.117,-274.897 208.292,-800.283 543.914,-1049.46c490.834,-364.409 1021.02,-267.666 1021.02,-267.666Z" style="fill:#fff;"/></svg>