<?xml version="1.0" encoding="UTF-8" standalone="no"?><!DOCTYPE svg PUBLIC "-//W3C//DTD SVG 1.1//EN" "http://www.w3.org/Graphics/SVG/1.1/DTD/svg11.dtd"><svg width="100%" height="100%" viewBox="0 0 4500 4500" version="1.1" xmlns="http://www.w3.org/2000/svg" xmlns:xlink="http://www.w3.org/1999/xlink" xml:space="preserve" xmlns:serif="http://www.serif.com/" style="fill-rule:evenodd;clip-rule:evenodd;stroke-linejoin:round;stroke-miterlimit:2;"><path d="M4359.77,571.16c-52.892,191.113 -175.589,357.14 -391.682,489.602c114.955,-4.372 289.731,-51.473 511.787,-132.345c-105.824,167.003 -257.515,316.969 -452.589,450.822c-0,0 -32.224,1356.51 -872.326,2009.27c-1635.82,1271.04 -3134.85,227.988 -3134.85,227.988c493.78,76.478 934.451,-69.137 1342.62,-350.646c-573.885,-84.904 -730.52,-343.662 -835.35,-624.005c188.349,25.324 304.566,8.572 376.181,-34.199c-504.583,-108.167 -661.561,-450.591 -718.164,-860.657l404.68,113.994c-450.507,-384.634 -470.902,-788.819 -279.287,-1202.64c605.329,648.086 1240.01,948.822 1903.71,906.255c0,-0 -162.07,-625.342 439.973,-957.689c660.301,-364.509 1127.45,176.828 1127.45,176.828c228.053,-38.641 419.914,-110.185 577.842,-212.576Z" style="fill:#fff;"/></svg>