<?xml version="1.0" encoding="UTF-8" standalone="no"?><!DOCTYPE svg PUBLIC "-//W3C//DTD SVG 1.1//EN" "http://www.w3.org/Graphics/SVG/1.1/DTD/svg11.dtd"><svg width="100%" height="100%" viewBox="0 0 18750 18750" version="1.1" xmlns="http://www.w3.org/2000/svg" xmlns:xlink="http://www.w3.org/1999/xlink" xml:space="preserve" xmlns:serif="http://www.serif.com/" style="fill-rule:evenodd;clip-rule:evenodd;stroke-linejoin:round;stroke-miterlimit:2;"><path d="M7505.85,6639.82l-12.701,5424.71l4872.58,-2729.1l-4859.88,-2695.62l-92.391,-3425.31c-0,-0 23.697,-0.561 28.711,-0.662c477.368,-9.596 981.771,-16.735 1505.54,-20.089c3341.83,-21.404 5831.42,132.526 5831.42,132.526c2334.06,-87.33 3641.02,777.945 3697.33,2803.16c280.363,2272.71 282.156,4660.7 -120.231,7226.49c-289.631,1299.27 -1232.02,1873.96 -2583.18,1945.25c-0,0 -3779.09,245.173 -5706.57,256.578c-1989.39,11.77 -6229.8,-185.953 -6229.8,-185.953c-2832.45,-86.664 -3432.55,-592.725 -3575.33,-2895.26c-263.316,-2170.75 -236.366,-4294.04 16.445,-6370.88c99.872,-1665.39 944.134,-2703.13 2988.07,-2729.36c-0,-0 1710.63,-111.816 4125.92,-161.435c6.72,-0.138 21.671,-0.364 21.671,-0.364" style="fill:#fff;"/></svg>