<svg xmlns="http://www.w3.org/2000/svg" width="149.031" height="20.822" viewBox="0 0 149.031 20.822">
  <path id="Caminho_502" data-name="Caminho 502" d="M-61.509,0V-9.048c0-4.031-2.929-5.307-6.119-5.307a9.188,9.188,0,0,0-6.119,2.2l1.392,2.465a5.894,5.894,0,0,1,4.089-1.653c1.856,0,3.074.928,3.074,2.349v1.943a5.661,5.661,0,0,0-4.437-1.711c-2.233,0-4.872,1.189-4.872,4.466A4.666,4.666,0,0,0-69.629.348a5.8,5.8,0,0,0,4.437-1.8V0Zm-3.683-3.364A3.684,3.684,0,0,1-68.15-2.146c-1.45,0-2.639-.754-2.639-2.059,0-1.334,1.189-2.117,2.639-2.117A3.684,3.684,0,0,1-65.192-5.1ZM-36.772,0V-10.121c0-2.871-1.537-4.234-4.118-4.234A5.944,5.944,0,0,0-45.7-11.8a3.706,3.706,0,0,0-3.886-2.552,6.127,6.127,0,0,0-4.582,2.175v-1.827h-3.683V0h3.683V-9.425a3.759,3.759,0,0,1,2.9-1.653c1.508,0,2.088.928,2.088,2.233V0h3.712V-9.454a3.718,3.718,0,0,1,2.9-1.624c1.508,0,2.088.928,2.088,2.233V0Zm2.726-7.018A7.094,7.094,0,0,0-26.564.348,8.633,8.633,0,0,0-20.793-1.6l-1.624-2.378a5.728,5.728,0,0,1-3.741,1.392,3.774,3.774,0,0,1-4.031-3.248h10.411v-.812c0-4.582-2.842-7.714-7.018-7.714A7.129,7.129,0,0,0-34.046-7.018Zm7.25-4.408a3.245,3.245,0,0,1,3.451,3.1h-6.9A3.366,3.366,0,0,1-26.8-11.426ZM-13.427,0V-9.251a4.668,4.668,0,0,1,3.451-1.566,4.891,4.891,0,0,1,1.015.087v-3.6a5.992,5.992,0,0,0-4.466,2.233v-1.914H-17.11V0Zm8.584-16.066a2.2,2.2,0,0,0,2.2-2.2,2.2,2.2,0,0,0-2.2-2.2,2.222,2.222,0,0,0-2.2,2.2A2.222,2.222,0,0,0-4.843-16.066ZM-2.987,0V-14.007H-6.67V0ZM-.232-7.018A7.112,7.112,0,0,0,7.192.348,6.456,6.456,0,0,0,12.731-2.2L10.324-4.437A3.535,3.535,0,0,1,7.366-2.929a3.767,3.767,0,0,1-3.8-4.089,3.743,3.743,0,0,1,3.8-4.06A3.464,3.464,0,0,1,10.324-9.57L12.731-11.8a6.456,6.456,0,0,0-5.539-2.552A7.1,7.1,0,0,0-.232-7.018ZM27.231,0V-9.048c0-4.031-2.929-5.307-6.119-5.307a9.188,9.188,0,0,0-6.119,2.2l1.392,2.465a5.894,5.894,0,0,1,4.089-1.653c1.856,0,3.074.928,3.074,2.349v1.943a5.661,5.661,0,0,0-4.437-1.711c-2.233,0-4.872,1.189-4.872,4.466A4.666,4.666,0,0,0,19.111.348a5.8,5.8,0,0,0,4.437-1.8V0ZM23.548-3.364A3.684,3.684,0,0,1,20.59-2.146c-1.45,0-2.639-.754-2.639-2.059,0-1.334,1.189-2.117,2.639-2.117A3.684,3.684,0,0,1,23.548-5.1ZM44.022,0V-9.889c0-2.726-1.479-4.466-4.553-4.466a6.414,6.414,0,0,0-4.9,2.175v-1.827H30.885V0h3.683V-9.425a3.989,3.989,0,0,1,3.19-1.653c1.566,0,2.581.667,2.581,2.61V0ZM59.769,0V-9.048c0-4.031-2.929-5.307-6.119-5.307a9.188,9.188,0,0,0-6.119,2.2l1.392,2.465a5.894,5.894,0,0,1,4.089-1.653c1.856,0,3.074.928,3.074,2.349v1.943a5.661,5.661,0,0,0-4.437-1.711c-2.233,0-4.872,1.189-4.872,4.466A4.666,4.666,0,0,0,51.649.348a5.8,5.8,0,0,0,4.437-1.8V0ZM56.086-3.364a3.684,3.684,0,0,1-2.958,1.218c-1.45,0-2.639-.754-2.639-2.059,0-1.334,1.189-2.117,2.639-2.117A3.684,3.684,0,0,1,56.086-5.1Zm6.119,1.537A9.429,9.429,0,0,0,68.469.348c3.886,0,6.061-1.914,6.061-4.5,0-3.48-3.219-4.118-5.626-4.582-1.566-.319-2.668-.638-2.668-1.508,0-.812.87-1.305,2.2-1.305a5.909,5.909,0,0,1,4.147,1.624l1.45-2.523a8.8,8.8,0,0,0-5.626-1.914c-3.683,0-5.742,2.059-5.742,4.408,0,3.335,3.1,3.915,5.51,4.379,1.6.319,2.813.667,2.813,1.653,0,.87-.754,1.421-2.349,1.421A8.017,8.017,0,0,1,63.8-4.408Z" transform="translate(74.501 20.474)" fill="#fd6a9a"/>
</svg>
