<svg xmlns="http://www.w3.org/2000/svg" width="171.732" height="24.948" viewBox="0 0 171.732 24.948">
  <path id="Caminho_501" data-name="Caminho 501" d="M-80.7-13.365h14.19v2.574l-14.19.033ZM-85.685,0l-.033-2.244h.363a3.754,3.754,0,0,0,1.419-.231.879.879,0,0,0,.528-.957V-20a.879.879,0,0,0-.528-.957,3.754,3.754,0,0,0-1.419-.231h-.33l-.033-2.244h10.989v2.244h-.264q-.363,0-.71.016a6.091,6.091,0,0,0-.66.066,4.845,4.845,0,0,0-.5.1q-.181.049-.148.148l-.033,18.315q.033.066.2.116a3.884,3.884,0,0,0,.479.1,6.092,6.092,0,0,0,.66.066q.347.016.71.016h.264V0Zm14.223,0-.033-2.244h.3q.33,0,.693-.016a5.576,5.576,0,0,0,.66-.066q.3-.05.479-.1t.181-.149V-20.889q0-.066-.181-.115t-.479-.1a5.575,5.575,0,0,0-.66-.066q-.363-.016-.693-.016h-.264l-.033-2.244h10.989v2.244h-.33a3.729,3.729,0,0,0-1.435.231.93.93,0,0,0-.544.957V-3.432a.93.93,0,0,0,.544.957,3.728,3.728,0,0,0,1.435.231h.33V0Zm24.123-10.164v2.046a13.479,13.479,0,0,0-1.98.379,8.166,8.166,0,0,0-1.535.577,4.492,4.492,0,0,0-1.072.742,2.557,2.557,0,0,0-.627.924,3.036,3.036,0,0,0-.2,1.106,2.608,2.608,0,0,0,.248,1.2,1.676,1.676,0,0,0,.709.726,2.2,2.2,0,0,0,1.056.248,2.524,2.524,0,0,0,1.419-.413,3.734,3.734,0,0,0,1.105-1.188,10.961,10.961,0,0,0,.875-1.8v2.442a6.334,6.334,0,0,1-1.254,1.9A5.1,5.1,0,0,1-50.408-.083,6.682,6.682,0,0,1-52.85.33,7.713,7.713,0,0,1-55.8-.182,4.141,4.141,0,0,1-57.717-1.7a4.306,4.306,0,0,1-.677-2.458,3.99,3.99,0,0,1,.709-2.36,5.478,5.478,0,0,1,2.112-1.7,15.554,15.554,0,0,1,3.465-1.155Q-50.045-9.834-47.339-10.164ZM-47.669,0V-3.267l-.4.033v-8.877a3.427,3.427,0,0,0-.264-1.452,1.7,1.7,0,0,0-.792-.825,2.939,2.939,0,0,0-1.32-.264,3.414,3.414,0,0,0-1.964.528,3.525,3.525,0,0,0-1.172,1.287,1.213,1.213,0,0,1-.379-.643.928.928,0,0,1,.1-.594,1.224,1.224,0,0,1,.495-.478,2.8,2.8,0,0,1,.841-.3v3.432h-4.719v-3.564a9.562,9.562,0,0,1,1.468-.907,12.6,12.6,0,0,1,2.458-.924,13.156,13.156,0,0,1,3.5-.412,12.711,12.711,0,0,1,3.053.347,7.487,7.487,0,0,1,2.425,1.039,4.714,4.714,0,0,1,1.584,1.8,5.811,5.811,0,0,1,.561,2.656V-3.2a.714.714,0,0,0,.2.528,1.237,1.237,0,0,0,.561.3,6.529,6.529,0,0,0,.891.165l.132.033V0Zm21.912-14.124q0-.2-.313-.363a2.679,2.679,0,0,0-.775-.248,5.247,5.247,0,0,0-.924-.083h-.1v-2.046l6.5-.033-.033,2.079h-.033a1.978,1.978,0,0,0-.709.132,1.684,1.684,0,0,0-.627.429,2.436,2.436,0,0,0-.479.825L-27.9,0h-5.973L-38.66-13.7a2.073,2.073,0,0,0-.4-.677,1.237,1.237,0,0,0-.594-.346,3.285,3.285,0,0,0-.858-.1h-.066l.033-2.079,9.9.033v2.046h-.066q-.528,0-1.023.033t-.825.082q-.33.049-.33.182l4.059,12.078-.627-.825Zm16.038,3.96v2.046a13.478,13.478,0,0,0-1.98.379,8.166,8.166,0,0,0-1.534.577,4.492,4.492,0,0,0-1.073.742,2.556,2.556,0,0,0-.627.924,3.036,3.036,0,0,0-.2,1.106,2.608,2.608,0,0,0,.247,1.2,1.676,1.676,0,0,0,.71.726,2.2,2.2,0,0,0,1.056.248A2.524,2.524,0,0,0-11.7-2.624a3.734,3.734,0,0,0,1.106-1.188,10.961,10.961,0,0,0,.875-1.8v2.442a6.334,6.334,0,0,1-1.254,1.9A5.1,5.1,0,0,1-12.788-.083,6.682,6.682,0,0,1-15.23.33a7.713,7.713,0,0,1-2.953-.512A4.141,4.141,0,0,1-20.1-1.7a4.306,4.306,0,0,1-.677-2.458,3.99,3.99,0,0,1,.709-2.36,5.478,5.478,0,0,1,2.112-1.7,15.554,15.554,0,0,1,3.465-1.155Q-12.425-9.834-9.719-10.164ZM-10.049,0V-3.267l-.4.033v-8.877a3.427,3.427,0,0,0-.264-1.452,1.7,1.7,0,0,0-.792-.825,2.939,2.939,0,0,0-1.32-.264,3.414,3.414,0,0,0-1.964.528,3.525,3.525,0,0,0-1.172,1.287,1.213,1.213,0,0,1-.379-.643.928.928,0,0,1,.1-.594,1.224,1.224,0,0,1,.495-.478,2.8,2.8,0,0,1,.842-.3v3.432h-4.719v-3.564a9.562,9.562,0,0,1,1.469-.907,12.6,12.6,0,0,1,2.458-.924,13.156,13.156,0,0,1,3.5-.412,12.71,12.71,0,0,1,3.052.347A7.487,7.487,0,0,1-6.716-15.84a4.714,4.714,0,0,1,1.584,1.8,5.811,5.811,0,0,1,.561,2.656V-3.2a.714.714,0,0,0,.2.528,1.237,1.237,0,0,0,.561.3,6.529,6.529,0,0,0,.891.165l.132.033V0ZM3.119-19.173A3.647,3.647,0,0,1,.743-19.9a2.453,2.453,0,0,1-.891-2.013,2.407,2.407,0,0,1,.891-2,3.705,3.705,0,0,1,2.376-.709,3.692,3.692,0,0,1,2.392.709,2.426,2.426,0,0,1,.875,2A2.473,2.473,0,0,1,5.511-19.9,3.634,3.634,0,0,1,3.119-19.173Zm3.1,2.277V-3.1a.77.77,0,0,0,.511.792,3.434,3.434,0,0,0,1.238.2H8V0H-1.6V-2.112h.033a3.406,3.406,0,0,0,1.254-.2.771.771,0,0,0,.5-.792V-13.53a.763.763,0,0,0-.346-.726,4.222,4.222,0,0,0-1.172-.363l-.264-.066V-16.9Zm14.388,6.732v2.046a13.479,13.479,0,0,0-1.98.379,8.166,8.166,0,0,0-1.534.577,4.492,4.492,0,0,0-1.073.742,2.556,2.556,0,0,0-.627.924,3.036,3.036,0,0,0-.2,1.106,2.608,2.608,0,0,0,.247,1.2,1.676,1.676,0,0,0,.71.726,2.2,2.2,0,0,0,1.056.248,2.524,2.524,0,0,0,1.419-.413,3.734,3.734,0,0,0,1.106-1.188,10.961,10.961,0,0,0,.875-1.8v2.442a6.334,6.334,0,0,1-1.254,1.9A5.1,5.1,0,0,1,17.54-.083,6.682,6.682,0,0,1,15.1.33a7.713,7.713,0,0,1-2.953-.512A4.141,4.141,0,0,1,10.23-1.7a4.306,4.306,0,0,1-.677-2.458,3.99,3.99,0,0,1,.71-2.36,5.478,5.478,0,0,1,2.112-1.7A15.554,15.554,0,0,1,15.84-9.372Q17.9-9.834,20.609-10.164ZM20.279,0V-3.267l-.4.033v-8.877a3.427,3.427,0,0,0-.264-1.452,1.7,1.7,0,0,0-.792-.825,2.939,2.939,0,0,0-1.32-.264,3.414,3.414,0,0,0-1.964.528,3.525,3.525,0,0,0-1.172,1.287,1.213,1.213,0,0,1-.379-.643.928.928,0,0,1,.1-.594,1.224,1.224,0,0,1,.495-.478,2.8,2.8,0,0,1,.842-.3v3.432H10.709v-3.564a9.562,9.562,0,0,1,1.469-.907,12.6,12.6,0,0,1,2.458-.924,13.156,13.156,0,0,1,3.5-.412,12.71,12.71,0,0,1,3.052.347,7.487,7.487,0,0,1,2.426,1.039,4.714,4.714,0,0,1,1.584,1.8,5.811,5.811,0,0,1,.561,2.656V-3.2a.714.714,0,0,0,.2.528,1.237,1.237,0,0,0,.561.3,6.529,6.529,0,0,0,.891.165l.132.033V0Zm8.448,0V-2.079h.066a6.476,6.476,0,0,0,.858-.115,1.285,1.285,0,0,0,.627-.3.792.792,0,0,0,.231-.611V-13.53a.786.786,0,0,0-.165-.545,1.185,1.185,0,0,0-.495-.3q-.33-.115-.858-.247l-.264-.066v-2.178l7.392-.033v3.663h.4V-2.376q0,.1.248.165a3.7,3.7,0,0,0,.594.1,3.141,3.141,0,0,0,.644,0l.1.033V0ZM49.484,0H40.112V-2.079h.066q.264-.033.627-.05a3.217,3.217,0,0,0,.627-.082q.264-.066.264-.165V-11.55a4.079,4.079,0,0,0-.181-1.336,1.415,1.415,0,0,0-.578-.759,1.974,1.974,0,0,0-1.056-.248,2.856,2.856,0,0,0-1.5.429,4.655,4.655,0,0,0-1.337,1.3,12.808,12.808,0,0,0-1.221,2.194v-3.168a8.064,8.064,0,0,1,1.535-2.194,6.391,6.391,0,0,1,2.112-1.4,6.924,6.924,0,0,1,2.656-.495,6.833,6.833,0,0,1,2.921.66,4.422,4.422,0,0,1,1.964,1.9,6.515,6.515,0,0,1,.693,3.152V-3.1a.792.792,0,0,0,.231.611,1.4,1.4,0,0,0,.611.314,2.748,2.748,0,0,0,.874.066l.066.033ZM62.123-10.164v2.046a13.479,13.479,0,0,0-1.98.379,8.166,8.166,0,0,0-1.535.577,4.492,4.492,0,0,0-1.072.742,2.557,2.557,0,0,0-.627.924,3.036,3.036,0,0,0-.2,1.106,2.608,2.608,0,0,0,.248,1.2,1.676,1.676,0,0,0,.709.726,2.2,2.2,0,0,0,1.056.248,2.524,2.524,0,0,0,1.419-.413,3.734,3.734,0,0,0,1.105-1.188,10.961,10.961,0,0,0,.875-1.8v2.442a6.334,6.334,0,0,1-1.254,1.9A5.1,5.1,0,0,1,59.054-.083,6.682,6.682,0,0,1,56.612.33a7.713,7.713,0,0,1-2.954-.512A4.141,4.141,0,0,1,51.744-1.7a4.306,4.306,0,0,1-.677-2.458,3.99,3.99,0,0,1,.709-2.36,5.478,5.478,0,0,1,2.112-1.7,15.554,15.554,0,0,1,3.465-1.155Q59.417-9.834,62.123-10.164ZM61.793,0V-3.267l-.4.033v-8.877a3.427,3.427,0,0,0-.264-1.452,1.7,1.7,0,0,0-.792-.825,2.939,2.939,0,0,0-1.32-.264,3.414,3.414,0,0,0-1.964.528,3.525,3.525,0,0,0-1.172,1.287,1.213,1.213,0,0,1-.379-.643.928.928,0,0,1,.1-.594,1.224,1.224,0,0,1,.495-.478,2.8,2.8,0,0,1,.841-.3v3.432H52.223v-3.564a9.562,9.562,0,0,1,1.468-.907,12.6,12.6,0,0,1,2.458-.924,13.156,13.156,0,0,1,3.5-.412,12.711,12.711,0,0,1,3.053.347,7.487,7.487,0,0,1,2.425,1.039,4.714,4.714,0,0,1,1.584,1.8,5.811,5.811,0,0,1,.561,2.656V-3.2a.714.714,0,0,0,.2.528,1.237,1.237,0,0,0,.561.3,6.529,6.529,0,0,0,.891.165l.132.033V0ZM80.57-4.125A1.254,1.254,0,0,0,80.256-5a2.574,2.574,0,0,0-.858-.594,7.9,7.9,0,0,0-1.221-.429Q77.5-6.2,76.709-6.4q-.99-.264-2.013-.627a8.356,8.356,0,0,1-1.881-.94,4.239,4.239,0,0,1-1.369-1.518,4.9,4.9,0,0,1-.511-2.359,4.7,4.7,0,0,1,.94-2.986,5.805,5.805,0,0,1,2.607-1.831,11.088,11.088,0,0,1,3.91-.627,15.46,15.46,0,0,1,3.168.281,11.713,11.713,0,0,1,2.161.643,4.629,4.629,0,0,1,1.139.627v3.432H80.735v-2.805a1.319,1.319,0,0,1,.792.083.583.583,0,0,1,.313.4,1.094,1.094,0,0,1-.033.528,2.381,2.381,0,0,1-.215.511,3.61,3.61,0,0,0-.841-.677,3.733,3.733,0,0,0-1.039-.412,5.817,5.817,0,0,0-1.32-.132,2.963,2.963,0,0,0-1.782.462,1.476,1.476,0,0,0-.627,1.254,1.337,1.337,0,0,0,.33.908,2.463,2.463,0,0,0,.908.627,9.993,9.993,0,0,0,1.3.446q.726.2,1.551.429,1.023.264,2.063.627a8.973,8.973,0,0,1,1.931.941A4.362,4.362,0,0,1,85.487-7.64a4.364,4.364,0,0,1,.528,2.228,5.1,5.1,0,0,1-.94,3.118A5.852,5.852,0,0,1,82.285-.347,13.226,13.226,0,0,1,77.765.33,16.847,16.847,0,0,1,74.547.049a14.088,14.088,0,0,1-2.475-.693,11.037,11.037,0,0,1-1.633-.775V-5.181h4.224v3.8a2.5,2.5,0,0,1-.94-.627,1.913,1.913,0,0,1-.412-.709.775.775,0,0,1,.033-.594.52.52,0,0,1,.429-.28,4.164,4.164,0,0,0,1.073.825,4.473,4.473,0,0,0,1.337.462,9.075,9.075,0,0,0,1.617.132,4.918,4.918,0,0,0,1.5-.2,1.833,1.833,0,0,0,.94-.644A1.806,1.806,0,0,0,80.57-4.125Z" transform="translate(85.717 24.618)" fill="#fd6a9a"/>
</svg>
