<svg width="423" height="442" viewBox="0 0 423 442" fill="none" xmlns="http://www.w3.org/2000/svg">
<path d="M409.399 215.482C416.239 251.963 430.101 325.901 396.927 375.363C337.647 463.748 134.489 459.954 45.4709 345.626C39.2539 337.641 -12.8858 268.466 2.99563 180.491C23.4606 67.1247 145.582 -14.8954 242.504 7.33127C303.819 21.3923 343.069 74.4173 358.996 95.9611C365.773 105.129 396.812 148.348 409.399 215.482Z" fill="#F4F7FA"/>
<path d="M90.864 219.08C90.9804 219.174 91.0972 219.266 91.2145 219.359C98.1497 224.837 106.655 229.543 117.153 232.691C119.241 233.153 121.329 233.616 123.417 234.079C126.368 229.388 128.372 224.376 122.541 220.748C113.486 215.116 117.576 197.054 121.79 191.392C127.007 184.383 138.832 167.802 124.965 158.865C113.421 151.424 104.516 149.089 107.695 131.979C110.874 114.87 104.592 102.025 89.7066 99.1825C74.0421 96.1914 66.5597 71.4299 52.2103 75.286C27.2074 82.0052 38.1965 124.435 62.3605 142.238C86.5246 160.041 68.7552 166.087 64.7131 179.71C59.1949 198.309 84.5524 200.685 89.2137 209.786C90.7927 212.868 91.1516 216.068 90.864 219.08Z" fill="url(#paint0_linear_14_1359)"/>
<g style="mix-blend-mode:soft-light">
<g style="mix-blend-mode:soft-light">
<g style="mix-blend-mode:soft-light">
<path d="M104.783 227.776L105.532 227.811C107.942 170.531 83.7437 112.309 42.3817 75.8664L41.8983 76.4662C83.086 112.755 107.182 170.734 104.783 227.776Z" fill="#FCFDFE"/>
</g>
</g>
<g style="mix-blend-mode:soft-light">
<g style="mix-blend-mode:soft-light">
<path d="M103.537 196.43L104.265 196.618C109.446 174.746 131.398 162.333 131.619 162.21L131.267 161.518C131.043 161.642 108.8 174.213 103.537 196.43Z" fill="#FCFDFE"/>
</g>
</g>
<g style="mix-blend-mode:soft-light">
<g style="mix-blend-mode:soft-light">
<path d="M104.951 217.227L105.678 217.031C100.227 194.909 62.3367 182.171 61.9545 182.045L61.7286 182.793C62.1066 182.917 99.6046 195.525 104.951 217.227Z" fill="#FCFDFE"/>
</g>
</g>
<g style="mix-blend-mode:soft-light">
<g style="mix-blend-mode:soft-light">
<path d="M88.8943 142.356L89.6344 142.227C86.7598 124.355 102.719 102.13 102.88 101.908L102.283 101.434C102.119 101.659 85.9664 124.155 88.8943 142.356Z" fill="#FCFDFE"/>
</g>
</g>
<g style="mix-blend-mode:soft-light">
<g style="mix-blend-mode:soft-light">
<path d="M71.7478 110.659L72.283 110.11C58.4324 95.3858 31.7558 94.6353 31.4875 94.6297L31.4718 95.4139C31.7368 95.4191 58.1131 96.1648 71.7478 110.659Z" fill="#FCFDFE"/>
</g>
</g>
</g>
<path d="M131.09 249.359L93.8859 249.312C93.8859 249.312 86.9057 229.354 96.0395 215.287C114.675 186.585 89.3261 171.527 79.6114 163.56C64.9609 151.546 58.5169 136.037 76.1634 126.005C96.1295 114.655 78.5774 84.3516 52.2416 68.5119C26.4703 53.0117 37.9587 -3.81856 96.6847 24.3761C131.756 41.2138 126.214 80.0961 127.882 100.427C129.549 120.757 158.471 122.476 148.543 147.297C140.063 168.499 123.979 183.945 136.223 198.545C148.467 213.144 149.716 229.496 131.09 249.359Z" fill="url(#paint1_linear_14_1359)"/>
<g style="mix-blend-mode:soft-light">
<g style="mix-blend-mode:soft-light">
<g style="mix-blend-mode:soft-light">
<path d="M114.984 252.948L114.212 252.799C114.3 252.299 122.967 202.201 117.233 149.829C111.95 101.58 93.0072 41.4723 32.7647 29.1165L32.9157 28.3108C59.733 33.8108 80.736 49.0663 95.3422 73.6527C107.01 93.2932 114.638 118.897 118.015 149.752C123.759 202.244 115.072 252.447 114.984 252.948Z" fill="#BEB8F2"/>
</g>
</g>
<g style="mix-blend-mode:soft-light">
<g style="mix-blend-mode:soft-light">
<path d="M101.021 84.2026L100.242 84.0998C103.503 56.988 93.6647 18.4577 93.5652 18.0717L94.3233 17.8573C94.4233 18.2451 104.301 56.932 101.021 84.2026Z" fill="#BEB8F2"/>
</g>
</g>
<g style="mix-blend-mode:soft-light">
<g style="mix-blend-mode:soft-light">
<path d="M90.8595 68.0993C64.4399 50.8467 39.7277 59.0774 39.4813 59.1625L39.2348 58.3834C39.4849 58.2965 64.5321 49.9391 91.2757 67.4029L90.8595 68.0993Z" fill="#BEB8F2"/>
</g>
</g>
<g style="mix-blend-mode:soft-light">
<g style="mix-blend-mode:soft-light">
<path d="M119.197 184.282C110.46 145.563 60.107 136.006 59.6091 135.956L59.6332 135.136C60.1264 135.137 111.147 145.031 119.961 184.093L119.197 184.282Z" fill="#BEB8F2"/>
</g>
</g>
<g style="mix-blend-mode:soft-light">
<g style="mix-blend-mode:soft-light">
<path d="M119.458 167.88L118.689 167.712C123.663 142.865 149.474 125.797 149.735 125.628L150.15 126.324C149.892 126.492 124.362 143.38 119.458 167.88Z" fill="#BEB8F2"/>
</g>
</g>
<g style="mix-blend-mode:soft-light">
<g style="mix-blend-mode:soft-light">
<path d="M115.409 244.884C114.294 229.817 93.7304 217.862 93.523 217.742L93.9006 217.023C94.7633 217.517 115.045 229.309 116.192 244.821L115.409 244.884Z" fill="#BEB8F2"/>
</g>
</g>
<g style="mix-blend-mode:soft-light">
<g style="mix-blend-mode:soft-light">
<path d="M117.614 233.049L116.84 232.91C118.778 221.134 135.826 208.035 141.428 203.73C142.219 203.122 142.903 202.597 143.007 202.478L143.593 203.025C143.448 203.194 142.995 203.545 141.893 204.392C136.354 208.648 119.498 221.6 117.614 233.049Z" fill="#BEB8F2"/>
</g>
</g>
</g>
<path d="M299.563 228.883C303.957 237.976 300.358 247.355 296.817 253.708C295.925 253.745 295.415 254.023 294.52 254.284C286.447 256.644 282.595 255.727 274.339 256.647C272.562 256.846 267.226 255.646 265.076 254.998L261.088 253.717C261.088 253.717 253.359 231.495 264.151 224.897C274.942 218.298 270.004 196.084 268.685 183.92C265.107 150.916 299.418 152.706 298.062 109.91C297.702 98.5274 293.373 76.9465 302.258 67.5542C312.381 56.8534 320.346 66.7134 326.79 57.8371C336.861 43.9638 353.76 38.5141 364.38 52.0449C374.861 65.3991 363.558 93.1273 333.961 116.143C314.518 135.169 314.383 140.663 316.396 153.957C317.805 163.269 327.132 187.326 315.306 197.486C303.48 207.646 294.541 218.488 299.563 228.883Z" fill="url(#paint2_linear_14_1359)"/>
<g style="mix-blend-mode:soft-light">
<g style="mix-blend-mode:soft-light">
<g style="mix-blend-mode:soft-light">
<path d="M278.66 256.842L278.053 256.785C278.379 253.006 278.753 249.199 279.164 245.47C282.206 217.86 287.603 191.546 295.207 167.259C301.65 146.679 309.764 127.264 319.322 109.551C327.008 95.3069 335.667 82.0816 345.057 70.2427C351.659 61.9204 358.55 54.3638 365.541 47.7834C366.76 46.6364 368.067 45.5347 369.331 44.4691C371.015 43.0496 372.757 41.5817 374.301 39.9952L374.728 40.4496C373.162 42.0579 371.409 43.5357 369.713 44.965C368.455 46.0252 367.155 47.1215 365.949 48.2568C358.98 54.8166 352.109 62.3504 345.526 70.6494C336.159 82.4587 327.521 95.6528 319.852 109.864C310.314 127.54 302.217 146.917 295.786 167.457C288.195 191.703 282.806 217.975 279.769 245.543C279.359 249.267 278.985 253.068 278.66 256.842Z" fill="#FCFDFE"/>
</g>
</g>
<g style="mix-blend-mode:soft-light">
<g style="mix-blend-mode:soft-light">
<path d="M309.077 131.913L308.517 131.663C318.812 106.537 307.576 61.1952 307.462 60.7402L308.051 60.5777C308.166 61.035 319.454 106.587 309.077 131.913Z" fill="#FCFDFE"/>
</g>
</g>
<g style="mix-blend-mode:soft-light">
<g style="mix-blend-mode:soft-light">
<path d="M286.173 204.838L285.589 204.657C290.674 186.726 321.981 171.911 322.297 171.763L322.546 172.344C322.232 172.491 291.178 187.187 286.173 204.838Z" fill="#FCFDFE"/>
</g>
</g>
<g style="mix-blend-mode:soft-light">
<g style="mix-blend-mode:soft-light">
<path d="M284.129 215.272L283.523 215.202C284.81 203.068 280.363 185.802 271.001 166.585C270.53 165.618 270.53 165.618 270.541 165.498L271.148 165.56L270.844 165.529L271.136 165.44C271.16 165.508 271.337 165.873 271.544 166.295C280.959 185.622 285.429 203.016 284.129 215.272Z" fill="#FCFDFE"/>
</g>
</g>
<g style="mix-blend-mode:soft-light">
<g style="mix-blend-mode:soft-light">
<path d="M279.348 249.954L278.788 249.706C283.804 237.324 302.153 231.855 302.337 231.802L302.501 232.415C302.319 232.468 284.25 237.856 279.348 249.954Z" fill="#FCFDFE"/>
</g>
</g>
<g style="mix-blend-mode:soft-light">
<g style="mix-blend-mode:soft-light">
<path d="M277.741 256.924C275.102 246.438 269.497 236.401 260.604 226.239L261.054 225.809C270.015 236.049 275.666 246.174 278.33 256.762L277.741 256.924Z" fill="#FCFDFE"/>
</g>
</g>
<g style="mix-blend-mode:soft-light">
<g style="mix-blend-mode:soft-light">
<path d="M340.105 77.7164L339.559 77.4334C346.028 63.7977 349.8 47.905 351.039 42.6824C351.339 41.4182 351.447 40.9737 351.51 40.8255L352.066 41.0845C352.019 41.1982 351.848 41.921 351.631 42.836C350.387 48.075 346.603 64.0184 340.105 77.7164Z" fill="#FCFDFE"/>
</g>
</g>
<g style="mix-blend-mode:soft-light">
<g style="mix-blend-mode:soft-light">
<path d="M326.45 98.261L326.009 97.8225C335.408 87.4698 362.709 86.8188 363.866 86.7961L363.877 87.4329C363.597 87.4385 335.674 88.1018 326.45 98.261Z" fill="#FCFDFE"/>
</g>
</g>
</g>
<path d="M251.278 308.121L287.301 317.844C287.301 317.844 298.854 300.358 293.393 284.344C282.252 251.67 310.407 243.751 321.725 238.59C338.793 230.807 348.757 217.488 334.087 203.144C317.489 186.915 341.76 162.192 371.058 153.775C399.728 145.539 402.264 87.5137 338.645 99.3852C300.653 106.475 296.673 145.565 290.173 164.806C283.674 184.047 255.266 178.117 258.911 204.749C262.025 227.498 273.881 246.672 258.522 257.588C243.162 268.505 238.023 284.005 251.278 308.121Z" fill="url(#paint3_linear_14_1359)"/>
<g style="mix-blend-mode:soft-light">
<g style="mix-blend-mode:soft-light">
<g style="mix-blend-mode:soft-light">
<path d="M266.006 315.824L266.79 315.883C266.824 315.376 270.474 264.608 288.61 215.421C305.317 170.106 338.097 116.899 399.377 120.757L399.424 119.937C372.145 118.22 348.149 127.471 328.103 147.435C312.09 163.382 298.554 186.161 287.871 215.141C269.697 264.442 266.041 315.316 266.006 315.824Z" fill="#BEB8F2"/>
</g>
</g>
<g style="mix-blend-mode:soft-light">
<g style="mix-blend-mode:soft-light">
<path d="M320.072 156.155L320.851 156.26C324.209 129.162 342.991 94.4495 343.18 94.102L342.498 93.6954C342.308 94.0446 323.45 128.897 320.072 156.155Z" fill="#BEB8F2"/>
</g>
</g>
<g style="mix-blend-mode:soft-light">
<g style="mix-blend-mode:soft-light">
<path d="M333.777 143.236C363.495 133.473 385.437 147.929 385.655 148.076L386.081 147.386C385.86 147.237 363.624 132.571 333.541 142.453L333.777 143.236Z" fill="#BEB8F2"/>
</g>
</g>
<g style="mix-blend-mode:soft-light">
<g style="mix-blend-mode:soft-light">
<path d="M278.429 248.253C296.19 213.07 347.225 217.04 347.719 217.122L347.893 216.322C347.415 216.194 295.653 212.374 277.735 247.87L278.429 248.253Z" fill="#BEB8F2"/>
</g>
</g>
<g style="mix-blend-mode:soft-light">
<g style="mix-blend-mode:soft-light">
<path d="M282.117 232.309L282.902 232.348C284.058 206.992 263.177 183.694 262.965 183.462L262.396 184.027C262.605 184.257 283.258 207.307 282.117 232.309Z" fill="#BEB8F2"/>
</g>
</g>
<g style="mix-blend-mode:soft-light">
<g style="mix-blend-mode:soft-light">
<path d="M267.532 307.907C272.232 293.616 295.009 287.443 295.239 287.382L295.046 286.587C294.093 286.838 271.628 292.928 266.789 307.641L267.532 307.907Z" fill="#BEB8F2"/>
</g>
</g>
<g style="mix-blend-mode:soft-light">
<g style="mix-blend-mode:soft-light">
<path d="M268.242 295.873L269.024 295.941C269.979 284.034 256.625 266.879 252.237 261.242C251.617 260.445 251.082 259.757 251.01 259.615L250.311 259.99C250.41 260.192 250.765 260.65 251.628 261.76C255.967 267.334 269.17 284.296 268.242 295.873Z" fill="#BEB8F2"/>
</g>
</g>
</g>
<path d="M284.646 317.103C284.519 317.18 284.391 317.256 284.264 317.332C276.705 321.82 267.687 325.329 256.885 327.021C254.758 327.196 252.63 327.37 250.502 327.545C248.16 322.493 246.798 317.25 253.031 314.447C262.71 310.095 260.905 291.63 257.431 285.442C253.132 277.783 243.472 259.735 258.334 252.76C270.707 246.953 279.826 245.85 278.805 228.453C277.783 211.057 285.612 199.176 300.724 198.383C316.628 197.549 327.13 174.016 340.877 179.792C364.831 189.856 348.651 230.43 322.476 244.793C296.301 259.156 313.166 267.569 315.477 281.626C318.632 300.817 293.195 299.724 287.44 308.112C285.49 310.954 284.736 314.077 284.646 317.103Z" fill="url(#paint4_linear_14_1359)"/>
<g style="mix-blend-mode:soft-light">
<g style="mix-blend-mode:soft-light">
<g style="mix-blend-mode:soft-light">
<path d="M269.763 323.832L269.015 323.764C273.76 266.643 305.002 212.209 350.55 181.705L350.955 182.365C305.599 212.741 274.488 266.948 269.763 323.832Z" fill="#FCFDFE"/>
</g>
</g>
<g style="mix-blend-mode:soft-light">
<g style="mix-blend-mode:soft-light">
<path d="M274.902 292.921L274.156 293.009C271.743 270.618 251.524 255.323 251.32 255.172L251.755 254.533C251.962 254.686 272.451 270.177 274.902 292.921Z" fill="#FCFDFE"/>
</g>
</g>
<g style="mix-blend-mode:soft-light">
<g style="mix-blend-mode:soft-light">
<path d="M270.91 313.348L270.214 313.056C278.372 291.863 317.527 284.389 317.922 284.316L318.052 285.088C317.662 285.161 278.913 292.559 270.91 313.348Z" fill="#FCFDFE"/>
</g>
</g>
<g style="mix-blend-mode:soft-light">
<g style="mix-blend-mode:soft-light">
<path d="M296.153 241.3L295.436 241.071C300.511 223.743 287.456 199.535 287.323 199.293L287.975 198.904C288.109 199.149 301.323 223.652 296.153 241.3Z" fill="#FCFDFE"/>
</g>
</g>
<g style="mix-blend-mode:soft-light">
<g style="mix-blend-mode:soft-light">
<path d="M317.101 212.206L316.639 211.588C332.205 198.874 358.749 201.759 359.015 201.79L358.933 202.57C358.67 202.539 332.425 199.69 317.101 212.206Z" fill="#FCFDFE"/>
</g>
</g>
</g>
<path d="M300.933 16.9853V397.934C300.933 403.63 296.277 404.856 290.997 405.037L110.034 414.819L107.293 414.913C101.668 415.105 97.0571 410.44 97.0571 404.546V10.3731C97.0571 4.47859 101.668 -0.18662 107.293 0.00574171L111.013 0.132916L292.639 14.8988C297.918 15.0794 300.933 11.2885 300.933 16.9853Z" fill="#262952"/>
<path d="M306.57 16.9853V397.934C306.57 403.63 302.258 408.439 296.978 408.619L112.931 414.913C107.305 415.105 102.695 410.44 102.695 404.546V10.3731C102.695 4.47859 107.305 -0.18662 112.931 0.00574171L296.978 6.29937C302.258 6.4799 306.57 11.2885 306.57 16.9853Z" fill="#3B407A"/>
<path d="M300.614 37.9277V390.831C300.614 396.15 296.583 400.634 291.65 400.796L118.587 406.478C113.35 406.65 109.059 402.298 109.059 396.806V32.4038C109.059 26.9117 113.35 22.5491 118.587 22.7087L291.65 27.9842C296.583 28.1345 300.614 32.609 300.614 37.9277Z" fill="url(#paint5_linear_14_1359)"/>
<path d="M209.789 15.009C209.789 17.0164 208.26 18.5953 206.372 18.5355C204.483 18.4758 202.95 16.7983 202.95 14.7886C202.95 12.779 204.483 11.2003 206.372 11.2623C208.26 11.3243 209.789 13.0016 209.789 15.009Z" fill="#DE8BDF"/>
<path d="M273.757 252.24L135.54 254.177C133.792 254.202 132.374 252.739 132.374 250.911V219.275C132.374 217.446 133.792 215.954 135.54 215.942L273.757 214.965C275.417 214.953 276.762 216.387 276.762 218.167V248.974C276.762 250.754 275.417 252.216 273.757 252.24Z" fill="#F4F7FA"/>
<path d="M224.553 238.783L149.118 239.643C146.551 239.672 144.45 237.494 144.45 234.802C144.45 232.111 146.551 229.888 149.118 229.863L224.553 229.138C227.046 229.114 229.085 231.262 229.085 233.913C229.085 236.563 227.046 238.754 224.553 238.783Z" fill="url(#paint6_linear_14_1359)"/>
<path d="M273.443 310.512L135.87 313.935C133.94 313.983 132.374 312.385 132.374 310.365V279.421C132.374 277.402 133.94 275.736 135.87 275.702L273.443 273.235C275.276 273.202 276.762 274.77 276.762 276.736V306.869C276.762 308.836 275.276 310.467 273.443 310.512Z" fill="#F4F7FA"/>
<path d="M155.736 294.308C155.736 297.747 153.079 300.595 149.798 300.669C146.513 300.743 143.847 298.009 143.847 294.563C143.847 291.116 146.513 288.268 149.798 288.202C153.079 288.135 155.736 290.869 155.736 294.308Z" fill="url(#paint7_linear_14_1359)"/>
<path d="M177.978 293.833C177.978 297.258 175.342 300.094 172.087 300.167C168.829 300.24 166.184 297.517 166.184 294.085C166.184 290.652 168.829 287.816 172.087 287.75C175.342 287.684 177.978 290.407 177.978 293.833Z" fill="url(#paint8_linear_14_1359)"/>
<path d="M200.04 293.361C200.04 296.772 197.425 299.596 194.197 299.669C190.964 299.742 188.341 297.03 188.341 293.611C188.341 290.192 190.964 287.368 194.197 287.302C197.425 287.237 200.04 289.95 200.04 293.361Z" fill="url(#paint9_linear_14_1359)"/>
<path d="M221.924 292.893C221.924 296.29 219.331 299.103 216.128 299.175C212.922 299.248 210.32 296.546 210.32 293.141C210.32 289.736 212.922 286.923 216.128 286.858C219.331 286.794 221.924 289.495 221.924 292.893Z" fill="url(#paint10_linear_14_1359)"/>
<path d="M259.801 111.796C259.801 143.55 235.636 169.295 205.527 169.3C175.081 169.305 150.147 143.043 150.147 110.642C150.147 78.2412 175.081 52.5039 205.527 53.1496C235.636 53.7882 259.801 80.0422 259.801 111.796Z" fill="white"/>
<path d="M227.905 94.0146C227.905 107.098 217.911 117.607 205.542 117.486C193.128 117.364 183.031 106.588 183.031 93.4177C183.031 80.2473 193.128 69.74 205.542 69.9486C217.911 70.1564 227.905 80.9308 227.905 94.0146Z" fill="url(#paint11_linear_14_1359)"/>
<path d="M205.527 169.3C218.837 169.298 230.977 164.268 240.378 155.936C237.179 138.639 222.838 125.484 205.527 125.347C188.105 125.209 173.503 138.288 170.224 155.774C179.837 164.229 192.152 169.302 205.527 169.3Z" fill="url(#paint12_linear_14_1359)"/>
<path d="M205.518 170.71C190.417 170.71 176.192 164.461 165.461 153.114C154.716 141.753 148.799 126.67 148.799 110.642C148.799 94.4788 154.802 79.4279 165.703 68.2623C176.415 57.29 190.564 51.4186 205.555 51.7401C220.46 52.0564 234.442 58.4792 244.925 69.8253C255.387 81.1497 261.149 96.0552 261.149 111.796C261.149 127.542 255.384 142.332 244.916 153.443C234.427 164.575 220.439 170.707 205.527 170.71C205.524 170.71 205.521 170.71 205.518 170.71ZM204.4 54.5472C190.552 54.5472 177.519 60.1064 167.591 70.2759C157.212 80.9069 151.496 95.2425 151.496 110.642C151.496 125.923 157.137 140.303 167.379 151.132C177.599 161.939 191.145 167.89 205.518 167.89C205.522 167.89 205.523 167.89 205.527 167.89C234.71 167.885 258.452 142.721 258.452 111.796C258.452 80.8544 234.698 55.1782 205.5 54.5587C205.133 54.551 204.765 54.5472 204.4 54.5472Z" fill="white"/>
<path d="M335.154 336.339C341.19 332.526 338.66 312.329 329.788 298.414C317.189 278.657 290.817 270.021 285.697 276.252C280.457 282.629 297.003 305.152 299.691 308.811C309.441 322.083 328.013 340.848 335.154 336.339Z" fill="url(#paint13_linear_14_1359)"/>
<path d="M403.699 419.884C402.664 421.315 402.611 423.779 403.711 424.887C404.792 425.977 406.192 424.954 410.385 424.695C414.877 424.418 416.141 425.415 419.111 424.254C420.31 423.784 422.409 422.72 422.29 421.805C422.206 421.162 421.071 420.932 417.267 419.982C411.868 418.634 411.882 418.532 410.753 418.443C407.915 418.219 405.065 417.994 403.699 419.884Z" fill="url(#paint14_linear_14_1359)"/>
<path d="M403.614 412.141L408.332 418.681C408.311 419.137 406.626 421.285 404.485 421.164L398.817 415.238L403.614 412.141Z" fill="url(#paint15_linear_14_1359)"/>
<path d="M379.326 436.533C378.32 437.987 378.316 440.451 379.438 441.535C380.541 442.601 381.919 441.547 386.107 441.196C390.592 440.82 391.876 441.789 394.822 440.563C396.012 440.067 398.089 438.957 397.951 438.045C397.854 437.404 396.715 437.199 392.893 436.333C387.467 435.104 387.48 435.002 386.349 434.938C383.507 434.776 380.654 434.614 379.326 436.533Z" fill="url(#paint16_linear_14_1359)"/>
<path d="M379.144 428.945L383.861 435.485C383.841 435.941 382.155 438.089 380.014 437.968L374.347 432.041L379.144 428.945Z" fill="url(#paint17_linear_14_1359)"/>
<path d="M236.301 279.496C243.362 276.669 254.187 273.281 267.649 272.756C282.807 272.165 294.98 271.691 303.653 278.85C332.508 302.671 318.364 365.445 316.278 372.429C313.798 380.734 309.08 386.376 309.08 386.376C306.249 389.76 303.472 391.737 301.967 392.778C280.261 407.791 266.769 417.123 252.522 413.31C250.626 412.802 242.012 409.68 237.258 402.189C236.41 400.853 235.88 399.142 235.746 396.751C233.533 357.235 237.992 317.559 236.301 279.496Z" fill="url(#paint18_linear_14_1359)"/>
<g style="mix-blend-mode:multiply" opacity="0.3">
<path style="mix-blend-mode:multiply" opacity="0.3" d="M248.747 326.596C245.852 318.322 248.843 308.848 242.395 304.716C240.031 303.202 237.095 302.562 233.897 302.637C234.293 331.723 234.854 360.782 235.544 391.137C235.772 401.163 236.972 401.659 246.274 410.441C257.051 420.616 265.92 417.335 281.842 413.996C260.981 400.601 255.793 393.317 257.919 381.413C260.394 367.549 284.678 363.444 283.697 353.589C282.656 343.144 255.076 344.682 248.747 326.596Z" fill="url(#paint19_linear_14_1359)"/>
</g>
<path d="M255.967 408.537C256.849 424.998 262.769 415.88 276.172 401.11C290.287 385.554 323.5 358.214 345.667 368.652C362.177 376.425 360.575 399.422 386.969 413.855C391.618 416.397 395.688 417.855 398.189 418.647C401.049 415.883 403.908 413.119 406.767 410.354C405.233 401.758 398.383 368.98 369.747 348.318C362.824 343.323 349.612 333.701 332.905 333.926C287.737 334.535 255.153 393.354 255.967 408.537Z" fill="url(#paint20_linear_14_1359)"/>
<path d="M235.157 400.901C235.346 410.478 241.329 419.258 248.07 423.545C263.033 433.06 285.442 422.793 297.993 412.294C313.265 399.52 313.26 387.005 321.064 387.066C333.19 387.162 335.304 417.472 362.365 432.27C367.015 434.812 371.084 436.269 373.586 437.062C376.445 434.298 379.305 431.533 382.164 428.769C377.471 410.208 370.206 396.721 364.848 388.327C358.165 377.857 351.732 367.779 339.275 360.475C326.159 352.784 313.626 352.428 308.302 352.341C274.714 351.793 234.664 375.911 235.157 400.901Z" fill="url(#paint21_linear_14_1359)"/>
<path d="M326.336 343.365L243.189 359.039L267.318 365.648L327.606 348.972L326.336 343.365Z" fill="url(#paint22_linear_14_1359)"/>
<path d="M240.694 361.94L240.694 361.941C240.998 363.563 242.241 364.813 243.802 365.069L272.327 370.503L271.038 362.952L243.189 359.039C241.641 358.899 240.396 360.347 240.694 361.94Z" fill="url(#paint23_linear_14_1359)"/>
<path d="M268.29 251.055C268.547 256.927 268.087 261.61 267.608 264.823C267.06 268.504 266.604 269.468 266.006 270.258C266.006 270.258 265.817 270.509 265.602 270.733C265.054 271.306 258.161 272.709 256.13 273.205C255.915 273.257 251.937 274.268 250.795 276.504C250.787 276.52 250.765 276.563 250.753 276.63C250.36 278.866 262.579 285.955 274.858 283.652C282.373 282.241 289.086 277.467 288.579 275.118C288.069 272.753 280.568 274.326 278.165 270.107C276.493 267.171 278.095 262.848 280.042 259.244C277.893 255.39 270.439 254.909 268.29 251.055Z" fill="url(#paint24_linear_14_1359)"/>
<path d="M256.652 341.03C245.359 338.506 240.459 342.802 237.586 339.718C236.981 339.068 236.695 338.324 236.643 337.45C236.634 337.29 236.574 337.137 236.469 336.99C235.846 325.559 226.591 316.69 215.589 317.093C204.437 317.503 195.714 327.285 196.105 338.942C196.132 339.727 196.2 340.5 196.306 341.26C196.263 341.32 196.222 341.381 196.183 341.441C196.312 341.964 196.514 342.778 196.814 343.806C197.001 344.518 197.222 345.214 197.476 345.893C199.638 352.194 204.738 362.709 216.405 367.92C230.206 374.084 248.04 370.876 261.726 359.623C263.578 357.829 265.431 356.036 267.284 354.241C269.082 352.123 270.88 350.006 272.678 347.887C269.471 345.734 264.063 342.686 256.652 341.03Z" fill="url(#paint25_linear_14_1359)"/>
<path d="M255.327 354.497C254.817 354.654 254.545 347.565 256.975 346.996C259.405 346.427 272.912 346.709 275.192 348.722C277.472 350.736 277.472 350.736 277.472 350.736C277.472 350.736 273.204 353.68 269.922 354.309C266.641 354.937 259.471 353.224 255.327 354.497Z" fill="url(#paint26_linear_14_1359)"/>
<path d="M242.957 280.022C235.792 275.838 219.314 287.74 210.311 298.001C206.127 302.77 191.557 319.374 196.089 340.736C196.112 340.846 196.175 340.947 196.273 341.04C197.585 351.379 206.051 359.356 216.301 359.356C227.425 359.356 236.449 349.958 236.505 338.344C236.606 338.301 238.482 326.81 243.706 312.564C245.314 308.179 250.961 284.695 242.957 280.022Z" fill="url(#paint27_linear_14_1359)"/>
<path d="M268.49 308.715L266.665 365.698C266.602 367.664 269.425 370.361 271.293 370.119L357.99 357.603C359.416 357.418 360.528 356.222 360.663 354.727L367.623 299.279C367.805 297.267 364.24 295.487 362.317 295.696L271.232 305.638C269.711 305.804 268.541 307.117 268.49 308.715Z" fill="url(#paint28_linear_14_1359)"/>
<path d="M270.6 310.204L268.775 367.187C268.713 369.153 270.345 370.713 272.213 370.471L360.101 359.092C361.527 358.908 362.639 357.712 362.774 356.216L367.795 300.671C367.976 298.659 366.351 296.976 364.427 297.186L273.343 307.127C271.822 307.293 270.651 308.607 270.6 310.204Z" fill="url(#paint29_linear_14_1359)"/>
<g style="mix-blend-mode:multiply" opacity="0.3">
<path style="mix-blend-mode:multiply" opacity="0.3" d="M325.484 348.527C317.533 345.727 319.778 339.004 310.093 331.619C297.317 321.877 285.425 327.488 280.54 319.538C279.019 317.062 278.09 313.095 279.939 306.407L273.343 307.127C271.822 307.293 270.651 308.607 270.6 310.204L268.775 367.187C268.713 369.153 270.346 370.713 272.213 370.472L360.101 359.093C361.527 358.908 362.639 357.712 362.774 356.217L363.466 348.552C360.677 347.208 357.376 346.047 353.587 345.552C340.446 343.837 334.636 351.75 325.484 348.527Z" fill="url(#paint30_linear_14_1359)"/>
</g>
<path d="M285.121 260.296C290.07 259.552 295.439 242.886 291.716 240.23C289.936 238.959 288.042 242.295 279.991 244.346C273.547 245.988 271.078 244.788 269.012 247.34C266.971 249.86 267.459 254.016 267.602 256.933C267.665 258.199 268.35 258.892 268.813 260.011C269.454 261.563 270.449 264.02 272.046 268.104C272.574 267.289 273.287 266.303 274.219 265.295C274.578 264.908 276.002 263.403 279.882 261.408C282.361 260.133 284.555 260.381 285.121 260.296Z" fill="url(#paint31_linear_14_1359)"/>
<path d="M269.133 264.058C269.133 264.058 270.287 270.319 276.354 272.226C281.786 273.933 286.999 261.804 284.553 257.845C283.737 256.525 281.604 255.277 279.571 255.098C278.371 254.993 277.834 255.322 275.876 255.109C274.069 254.914 273.672 254.542 273.019 254.785C272.202 255.09 271.268 256.253 271.009 260.292C270.379 258.827 269.312 257.943 268.3 258.032C268.138 258.046 267.682 258.163 267.337 258.476C266.089 259.606 266.682 261.903 269.133 264.058Z" fill="url(#paint32_linear_14_1359)"/>
<path d="M273.045 253.948C273.229 254.247 272.091 254.94 271.53 256.329C270.438 259.025 271.918 263.348 274.525 264.683C276.067 265.472 276.867 264.635 279.616 265.374C281.319 265.832 282.605 266.581 283.393 267.111C283.151 270.441 281.3 273.133 278.882 273.773C276.279 274.463 273.96 272.525 272.991 271.714C272.343 271.172 270.262 269.44 269.834 266.687C269.389 263.818 271.164 262.885 270.255 260.708C269.797 259.61 268.941 258.878 268.544 256.943C268.437 256.417 268.398 255.974 268.382 255.68C270.291 254.698 272.777 253.515 273.045 253.948Z" fill="url(#paint33_linear_14_1359)"/>
<path d="M281.07 267.475C281.07 267.475 279.701 267.654 277.764 266.766C277.67 266.723 277.553 266.711 277.522 266.758C277.407 266.937 278.362 268.312 279.655 268.424C280.573 268.504 281.512 267.934 281.475 267.681C281.459 267.575 281.267 267.513 281.07 267.475Z" fill="url(#paint34_linear_14_1359)"/>
<path d="M50.8843 402.266C51.4962 403.631 52.1877 405.631 52.3702 408.12C52.4503 409.21 52.4181 410.2 52.3349 411.057C51.6618 412.094 48.5152 415.654 44.2659 416.533C41.6371 417.077 37.3756 414.748 42.2032 411.595C47.0308 408.442 47.7523 407.683 46.3333 399.623C45.9682 397.55 46.1117 396.791 46.4232 396.645C47.1511 396.305 49.2245 399.484 50.8843 402.266Z" fill="url(#paint35_linear_14_1359)"/>
<path d="M73.1482 408.422C73.7601 409.787 74.4514 411.787 74.634 414.276C74.714 415.367 74.682 416.356 74.5987 417.213C73.9257 418.25 70.7791 421.811 66.5298 422.69C63.901 423.233 59.6395 420.904 64.4671 417.751C69.2947 414.598 70.0162 413.839 68.5972 405.78C68.2321 403.706 68.3756 402.947 68.6871 402.802C69.415 402.461 71.4884 405.641 73.1482 408.422Z" fill="url(#paint36_linear_14_1359)"/>
<path d="M96.302 240.044C97.8982 250.204 99.4943 260.364 101.09 270.524C97.5948 280.136 94.3438 290.608 91.5894 301.918C81.6399 342.773 75.4357 382.121 74.9819 410.308C72.7917 411.136 70.6016 411.964 68.4114 412.792C64.4871 397.303 65.6729 373.882 62.184 346.264C58.062 313.635 60.8648 288.127 59.4299 288.037C58.0546 287.952 54.2028 311.304 54.1958 337.972C54.1884 366.163 51.0863 388.859 53.0857 405.153C50.4616 405.317 47.8375 405.481 45.2134 405.644C37.9465 384.097 34.7713 358.424 31.0923 324.478C28.5374 300.904 25.5222 269.587 40.5889 237.277C42.0934 234.051 47.3459 226.889 48.3307 225.119C65.6085 228.575 79.0243 236.588 96.302 240.044Z" fill="url(#paint37_linear_14_1359)"/>
<g style="mix-blend-mode:multiply" opacity="0.25">
<path style="mix-blend-mode:multiply" opacity="0.25" d="M91.5894 301.918C94.3437 290.608 97.5948 280.136 101.09 270.524C99.4943 260.364 97.8982 250.204 96.302 240.044C79.0242 236.588 65.6086 228.575 48.3307 225.119C47.3459 226.889 42.0935 234.051 40.589 237.277C35.5101 248.169 32.4916 258.947 30.8118 269.354C64.2388 268.972 73.9125 276.248 76.5757 282.955C80.8153 293.631 67.9214 304.458 72.4833 326.065C73.8552 332.563 75.9041 335.766 76.1447 343.906C76.4604 354.588 73.1251 355.624 72.6028 366.491C72.0313 378.38 68.0917 390 69.9389 398.428C71.0872 403.668 72.4321 407.928 73.4654 410.881C73.971 410.69 74.4763 410.499 74.9818 410.308C75.4357 382.121 81.6398 342.773 91.5894 301.918Z" fill="url(#paint38_linear_14_1359)"/>
</g>
<path d="M78.9399 98.2781C80.1556 99.6499 78.7729 101.822 79.188 109.129C79.3778 112.471 79.8502 115.239 80.2639 117.197C80.5045 118.983 80.7686 120.634 81.05 122.087C81.2564 123.154 81.4463 123.984 81.6844 124.864C82.1257 126.496 82.6845 128.101 83.3447 129.634C83.3884 129.736 83.35 129.854 83.259 129.907C83.2536 129.911 83.2481 129.914 83.2424 129.916C83.1397 129.965 83.0189 129.917 82.9727 129.809C82.3042 128.257 81.7387 126.632 81.2915 124.98C81.0504 124.09 80.8586 123.25 80.65 122.172C80.5016 121.406 80.3586 120.582 80.2206 119.717C80.2233 122.035 80.4314 124.572 81.551 127.868C84.9492 137.87 78.0081 145.462 72.0291 146.394C65.134 147.468 61.8379 141.53 60.1971 139.812C53.5836 132.887 51.3236 120.381 55.921 110.757C61.9436 98.1494 75.9608 94.9158 78.9399 98.2781Z" fill="url(#paint39_linear_14_1359)"/>
<path d="M62.4183 110.082C62.5994 108.903 64.1303 104.662 67.2703 100.696C72.8638 93.8084 85.0083 97.6357 92.8086 103.403C100.971 109.437 101.872 113.403 109.983 120.208C118.793 127.599 122.874 124.23 134.766 130.998C139.444 133.66 148.785 139.977 150.899 153.098C152.725 164.435 146.48 174.367 138.751 180.361C124.626 191.5 103.389 181.086 92.5856 169.739C82.2243 158.857 88.1163 155.267 72.7757 133.736C67.2291 125.951 61.0657 118.897 62.4183 110.082Z" fill="url(#paint40_linear_14_1359)"/>
<path d="M6.88911 197.145C4.58485 190.07 6.1987 181.936 9.75486 176.251C15.7644 166.644 23.597 169.983 31.442 159.329C36.5168 152.438 41.1352 146.553 46.7698 142.145C50.915 138.903 60.7237 135.23 64.5557 137.779C76.0207 145.408 54.9848 210.363 31.7922 214.061C22.5124 215.54 10.3529 207.781 6.88911 197.145Z" fill="url(#paint41_linear_14_1359)"/>
<path d="M52.6479 142.45C46.7071 148.736 45.1076 156.294 44.6395 159.672C43.1835 170.18 47.1317 178.751 48.059 181.002C52.4398 191.64 50.826 212.606 25.2894 257.756C27.7168 259.871 36.0862 275.527 40.0447 268.019C45.4415 257.784 69.9252 185.765 46.3114 271.111C46.0002 272.235 48.4066 272.009 49.5005 272.436C57.3439 275.497 66.7634 277.726 77.4659 277.587C94.2402 277.368 107.022 271.425 113.779 267.605C109.197 256.439 104.4 241.326 102.348 222.984C98.433 187.993 106.58 159.774 112.257 144.557C107.08 140.816 90.6824 129.982 71.2815 133.483C66.4475 134.356 58.9054 135.829 52.6479 142.45Z" fill="url(#paint42_linear_14_1359)"/>
<g style="mix-blend-mode:multiply" opacity="0.3">
<path style="mix-blend-mode:multiply" opacity="0.3" d="M102.348 222.984C98.4332 187.993 106.579 159.774 112.257 144.557C107.08 140.816 90.6825 129.982 71.2816 133.483C66.4476 134.356 58.9054 135.829 52.6481 142.45C47.9181 147.455 45.944 153.26 45.098 157.126C45.2428 157.1 45.4425 157.067 45.6805 157.032C57.6287 155.307 71.4282 165.355 76.1458 174.86C84.0185 190.722 65.908 203.682 66.361 228.82C66.6059 242.409 72.2562 258.477 89.5296 276.421C100.387 274.46 108.753 270.447 113.779 267.606C109.197 256.439 104.4 241.326 102.348 222.984Z" fill="url(#paint43_linear_14_1359)"/>
</g>
<path d="M73.1349 124.461C72.6884 128.613 72.6782 129.027 74.5524 132.057C75.6942 133.903 77.5843 134.932 79.4506 135.901C83.8613 138.191 85.9082 137.261 86.7789 138.651C88.6951 141.709 83.2691 153.38 74.4187 154.393C65.6107 155.402 57.6396 145.371 58.9653 141.134C60.1615 137.311 68.8324 138.509 70.3825 133.678C71.163 131.246 69.7343 128.545 68.4805 126.715L67.4432 126.81L73.1349 124.461Z" fill="url(#paint44_linear_14_1359)"/>
<g style="mix-blend-mode:multiply" opacity="0.4">
<path style="mix-blend-mode:multiply" opacity="0.4" d="M86.7789 138.651C85.9082 137.261 83.8613 138.191 79.4506 135.901C77.5841 134.932 75.6943 133.903 74.5525 132.057C72.6783 129.027 72.1808 128.765 73.1349 124.461L67.4432 126.81L68.4805 126.715C69.4756 128.167 70.5623 130.168 70.5857 132.148C71.1944 132.588 71.7085 133.071 72.0728 133.54C70.9176 136.144 70.5258 138.393 70.3755 139.847C70.1412 142.115 69.9673 143.799 70.898 145.39C71.9133 147.126 73.6482 147.734 75.1652 148.266C78.5356 149.448 81.6851 149.055 83.7543 148.537C86.6149 144.801 87.8549 140.368 86.7789 138.651Z" fill="url(#paint45_linear_14_1359)"/>
</g>
<path d="M73.8077 124.313C73.8077 124.313 74.5627 128.893 70.3468 130.136C65.1522 131.669 60.7785 117.487 61.8266 116.301C63.0419 114.926 64.9411 116.884 68.1407 115.085C69.4879 114.328 70.2193 112.035 71.4991 113.908C72.9551 116.038 73.3647 120.435 73.3647 120.435C73.3647 120.435 74.3189 119.012 74.8478 120.24C75.5399 121.845 74.6132 123.242 73.8077 124.313Z" fill="url(#paint46_linear_14_1359)"/>
<path d="M64.2256 108.384C62.5153 110.213 61.5755 113.757 62.7653 115.536C64.4745 118.091 69.5151 115.413 71.5825 118.539C72.4889 119.909 72.4389 121.814 72.9078 121.782C73.2963 121.756 73.5239 120.436 73.7461 119.35C74.9711 113.364 76.3971 112.69 75.9598 110.977C75.0712 107.495 67.7374 104.63 64.2256 108.384Z" fill="url(#paint47_linear_14_1359)"/>
<path d="M59.9496 205.516L58.1612 204.089C58.1612 204.089 55.5198 201.006 53.6147 199.577C51.7097 198.149 49.963 198.002 48.25 199.745C46.5369 201.488 48.3607 203.887 49.9179 205.983C50.8653 207.259 53.2529 207.882 55.222 208.205C56.6062 208.431 59.1445 210.028 59.1445 210.028L59.9496 205.516Z" fill="url(#paint48_linear_14_1359)"/>
<path d="M22.7959 167.723L36.3574 202.792C36.5874 203.442 37.0912 203.944 37.7227 204.154L53.3561 209.345C54.9711 209.881 56.5167 208.344 56.0851 206.631L47.7276 173.476C47.5363 172.717 46.9892 171.034 45.6049 170.574L26.5625 164.821C24.8656 164.295 22.1821 165.988 22.7959 167.723Z" fill="url(#paint49_linear_14_1359)"/>
<path d="M22.6239 168.279L34.6314 202.219C34.8614 202.869 35.365 203.372 35.9966 203.581L51.63 208.772C53.245 209.308 54.7906 207.771 54.3589 206.058L46.0017 172.903C45.8104 172.144 45.2541 171.545 44.5343 171.321L25.2505 165.346C23.5536 164.82 22.0099 166.543 22.6239 168.279Z" fill="url(#paint50_linear_14_1359)"/>
<path d="M130.32 204.738C129.738 198.609 124.513 194.134 118.649 194.743C114.373 195.187 110.941 198.213 109.621 202.195C108.628 203.117 105.859 203.044 101.484 203.754C88.3736 205.882 85.629 211.022 77.8812 211.39C73.3294 211.607 66.8912 210.184 58.8472 202.746C58.9718 206.32 59.0963 209.895 59.2209 213.469C60.7159 216.893 66.7438 229.633 80.3146 234.984C96.9852 241.559 115.038 233.042 124.249 221.205C127.043 217.615 128.915 213.525 130 209.148C129.98 209.096 129.958 209.046 129.937 208.995C130.316 207.654 130.46 206.216 130.32 204.738Z" fill="url(#paint51_linear_14_1359)"/>
<path d="M24.4479 184.006L25.9961 182.299C25.9961 182.299 29.2119 179.884 30.774 178.056C32.3363 176.229 32.6623 174.429 31.1878 172.463C29.7132 170.496 27.2364 172.135 25.0757 173.53C23.7611 174.378 22.9132 176.793 22.396 178.805C22.0323 180.22 20.2422 182.687 20.2422 182.687L24.4479 184.006Z" fill="url(#paint52_linear_14_1359)"/>
<path d="M19.9846 180.558C21.9891 181.603 23.9942 182.647 25.9987 183.692C26.6122 184.508 33.9161 194.531 30.017 204.141C29.5097 205.392 27.5921 210.119 23.8101 210.955C17.9739 212.247 9.47179 203.885 9.74602 194.908C9.9299 188.892 14.0329 183.365 19.9846 180.558Z" fill="url(#paint53_linear_14_1359)"/>
<path d="M110.547 147.578C104.053 142.605 103.464 144.444 97.5968 144.055C88.9085 165.653 91.251 177.181 95.1177 183.738C100.155 192.282 110.565 197.121 110.534 200.186C109.598 201.845 109.059 203.777 109.059 205.842C109.059 212.002 113.836 216.994 119.728 216.994C123.957 216.994 127.611 214.422 129.337 210.693C129.481 210.563 129.591 210.399 129.662 210.197C137.023 189.285 126.049 159.449 110.547 147.578Z" fill="url(#paint54_linear_14_1359)"/>
<path d="M73.1999 113.875C72.0074 115.241 74.6336 119.755 79.9346 128.727C83.1973 134.249 84.8286 137.01 85.8764 138.204C91.5182 144.629 101.028 149.569 110.638 148.996C117.233 148.603 118.195 145.952 123.603 146.886C131.76 148.296 136.427 155.514 136.796 155.133C137.204 154.712 131.923 145.472 121.336 137.776C112.674 131.479 110.324 133.386 96.7114 124.668C95.7238 124.035 91.5434 121.34 85.676 118.308C78.7781 114.745 74.3861 112.516 73.1999 113.875Z" fill="url(#paint55_linear_14_1359)"/>
<defs>
<linearGradient id="paint0_linear_14_1359" x1="590.33" y1="165.611" x2="639.824" y2="314.749" gradientUnits="userSpaceOnUse">
<stop stop-color="#FF9085"/>
<stop offset="0.5" stop-color="#FD80A0"/>
<stop offset="1" stop-color="#FB6FBB"/>
</linearGradient>
<linearGradient id="paint1_linear_14_1359" x1="-214.748" y1="28.9722" x2="-135.126" y2="-189.034" gradientUnits="userSpaceOnUse">
<stop stop-color="#FFC444"/>
<stop offset="0.5" stop-color="#F99A4D"/>
<stop offset="1" stop-color="#F36F56"/>
</linearGradient>
<linearGradient id="paint2_linear_14_1359" x1="851.361" y1="-42.3392" x2="759.639" y2="-296.143" gradientUnits="userSpaceOnUse">
<stop stop-color="#AA80F9"/>
<stop offset="0.5" stop-color="#8672E8"/>
<stop offset="1" stop-color="#6165D7"/>
</linearGradient>
<linearGradient id="paint3_linear_14_1359" x1="366.997" y1="129.044" x2="280.099" y2="248.095" gradientUnits="userSpaceOnUse">
<stop stop-color="#AA80F9"/>
<stop offset="0.5" stop-color="#8672E8"/>
<stop offset="1" stop-color="#6165D7"/>
</linearGradient>
<linearGradient id="paint4_linear_14_1359" x1="399.359" y1="160.968" x2="302.164" y2="40.0283" gradientUnits="userSpaceOnUse">
<stop stop-color="#FFC444"/>
<stop offset="0.5" stop-color="#F99A4D"/>
<stop offset="1" stop-color="#F36F56"/>
</linearGradient>
<linearGradient id="paint5_linear_14_1359" x1="108.942" y1="214.483" x2="300.496" y2="214.483" gradientUnits="userSpaceOnUse">
<stop stop-color="#FF9085"/>
<stop offset="0.5" stop-color="#FD80A0"/>
<stop offset="1" stop-color="#FB6FBB"/>
</linearGradient>
<linearGradient id="paint6_linear_14_1359" x1="104.301" y1="58.0526" x2="284.504" y2="410.562" gradientUnits="userSpaceOnUse">
<stop stop-color="#AA80F9"/>
<stop offset="0.5" stop-color="#8672E8"/>
<stop offset="1" stop-color="#6165D7"/>
</linearGradient>
<linearGradient id="paint7_linear_14_1359" x1="51.6623" y1="84.8837" x2="231.863" y2="437.391" gradientUnits="userSpaceOnUse">
<stop stop-color="#AA80F9"/>
<stop offset="0.5" stop-color="#8672E8"/>
<stop offset="1" stop-color="#6165D7"/>
</linearGradient>
<linearGradient id="paint8_linear_14_1359" x1="69.9331" y1="75.6355" x2="250.136" y2="428.145" gradientUnits="userSpaceOnUse">
<stop stop-color="#AA80F9"/>
<stop offset="0.5" stop-color="#8672E8"/>
<stop offset="1" stop-color="#6165D7"/>
</linearGradient>
<linearGradient id="paint9_linear_14_1359" x1="87.9158" y1="66.3913" x2="268.116" y2="418.898" gradientUnits="userSpaceOnUse">
<stop stop-color="#AA80F9"/>
<stop offset="0.5" stop-color="#8672E8"/>
<stop offset="1" stop-color="#6165D7"/>
</linearGradient>
<linearGradient id="paint10_linear_14_1359" x1="105.751" y1="57.2946" x2="285.954" y2="409.804" gradientUnits="userSpaceOnUse">
<stop stop-color="#AA80F9"/>
<stop offset="0.5" stop-color="#8672E8"/>
<stop offset="1" stop-color="#6165D7"/>
</linearGradient>
<linearGradient id="paint11_linear_14_1359" x1="169.122" y1="16.2164" x2="349.325" y2="368.726" gradientUnits="userSpaceOnUse">
<stop stop-color="#AA80F9"/>
<stop offset="0.5" stop-color="#8672E8"/>
<stop offset="1" stop-color="#6165D7"/>
</linearGradient>
<linearGradient id="paint12_linear_14_1359" x1="146.21" y1="28.0396" x2="326.412" y2="380.549" gradientUnits="userSpaceOnUse">
<stop stop-color="#AA80F9"/>
<stop offset="0.5" stop-color="#8672E8"/>
<stop offset="1" stop-color="#6165D7"/>
</linearGradient>
<linearGradient id="paint13_linear_14_1359" x1="292.023" y1="316.207" x2="303.461" y2="301.232" gradientUnits="userSpaceOnUse">
<stop stop-color="#AA80F9"/>
<stop offset="0.5" stop-color="#8672E8"/>
<stop offset="1" stop-color="#6165D7"/>
</linearGradient>
<linearGradient id="paint14_linear_14_1359" x1="803.391" y1="672.963" x2="785.713" y2="679.274" gradientUnits="userSpaceOnUse">
<stop stop-color="#444B8C"/>
<stop offset="0.5" stop-color="#35396D"/>
<stop offset="1" stop-color="#26264F"/>
</linearGradient>
<linearGradient id="paint15_linear_14_1359" x1="645.124" y1="719.991" x2="647.16" y2="738.792" gradientUnits="userSpaceOnUse">
<stop stop-color="#FFC444"/>
<stop offset="0.5" stop-color="#F99A4D"/>
<stop offset="1" stop-color="#F36F56"/>
</linearGradient>
<linearGradient id="paint16_linear_14_1359" x1="719.71" y1="665.871" x2="702.154" y2="672.546" gradientUnits="userSpaceOnUse">
<stop stop-color="#444B8C"/>
<stop offset="0.5" stop-color="#35396D"/>
<stop offset="1" stop-color="#26264F"/>
</linearGradient>
<linearGradient id="paint17_linear_14_1359" x1="582.903" y1="693.74" x2="584.938" y2="712.541" gradientUnits="userSpaceOnUse">
<stop stop-color="#FFC444"/>
<stop offset="0.5" stop-color="#F99A4D"/>
<stop offset="1" stop-color="#F36F56"/>
</linearGradient>
<linearGradient id="paint18_linear_14_1359" x1="224.279" y1="382.302" x2="270.417" y2="321.896" gradientUnits="userSpaceOnUse">
<stop stop-color="#AA80F9"/>
<stop offset="0.5" stop-color="#8672E8"/>
<stop offset="1" stop-color="#6165D7"/>
</linearGradient>
<linearGradient id="paint19_linear_14_1359" x1="236.56" y1="373.654" x2="284.11" y2="316.053" gradientUnits="userSpaceOnUse">
<stop stop-color="#AA80F9"/>
<stop offset="0.5" stop-color="#8672E8"/>
<stop offset="1" stop-color="#6165D7"/>
</linearGradient>
<linearGradient id="paint20_linear_14_1359" x1="232.007" y1="549.058" x2="265.916" y2="449.324" gradientUnits="userSpaceOnUse">
<stop stop-color="#444B8C"/>
<stop offset="0.5" stop-color="#35396D"/>
<stop offset="1" stop-color="#26264F"/>
</linearGradient>
<linearGradient id="paint21_linear_14_1359" x1="233.339" y1="458.559" x2="190.841" y2="560.243" gradientUnits="userSpaceOnUse">
<stop stop-color="#444B8C"/>
<stop offset="0.5" stop-color="#35396D"/>
<stop offset="1" stop-color="#26264F"/>
</linearGradient>
<linearGradient id="paint22_linear_14_1359" x1="253.305" y1="430.772" x2="236.673" y2="403.768" gradientUnits="userSpaceOnUse">
<stop stop-color="#311944"/>
<stop offset="0.5" stop-color="#5D295D"/>
<stop offset="1" stop-color="#893976"/>
</linearGradient>
<linearGradient id="paint23_linear_14_1359" x1="198.998" y1="391.135" x2="208.351" y2="416.68" gradientUnits="userSpaceOnUse">
<stop stop-color="#311944"/>
<stop offset="0.5" stop-color="#5D295D"/>
<stop offset="1" stop-color="#893976"/>
</linearGradient>
<linearGradient id="paint24_linear_14_1359" x1="264.793" y1="295.83" x2="303.042" y2="230.036" gradientUnits="userSpaceOnUse">
<stop stop-color="#FFC444"/>
<stop offset="0.5" stop-color="#F99A4D"/>
<stop offset="1" stop-color="#F36F56"/>
</linearGradient>
<linearGradient id="paint25_linear_14_1359" x1="216.837" y1="355.713" x2="313.026" y2="271.626" gradientUnits="userSpaceOnUse">
<stop stop-color="#AA80F9"/>
<stop offset="0.5" stop-color="#8672E8"/>
<stop offset="1" stop-color="#6165D7"/>
</linearGradient>
<linearGradient id="paint26_linear_14_1359" x1="250.103" y1="351.049" x2="291.167" y2="344.511" gradientUnits="userSpaceOnUse">
<stop stop-color="#AA80F9"/>
<stop offset="0.5" stop-color="#8672E8"/>
<stop offset="1" stop-color="#6165D7"/>
</linearGradient>
<linearGradient id="paint27_linear_14_1359" x1="207.696" y1="342.266" x2="250.582" y2="290.315" gradientUnits="userSpaceOnUse">
<stop stop-color="#AA80F9"/>
<stop offset="0.5" stop-color="#8672E8"/>
<stop offset="1" stop-color="#6165D7"/>
</linearGradient>
<linearGradient id="paint28_linear_14_1359" x1="307.111" y1="364.374" x2="283.921" y2="337.479" gradientUnits="userSpaceOnUse">
<stop stop-color="#444B8C"/>
<stop offset="0.5" stop-color="#35396D"/>
<stop offset="1" stop-color="#26264F"/>
</linearGradient>
<linearGradient id="paint29_linear_14_1359" x1="272.574" y1="416.311" x2="312.204" y2="321.746" gradientUnits="userSpaceOnUse">
<stop stop-color="#311944"/>
<stop offset="0.5" stop-color="#5D295D"/>
<stop offset="1" stop-color="#893976"/>
</linearGradient>
<linearGradient id="paint30_linear_14_1359" x1="246.663" y1="358.596" x2="342.223" y2="351.619" gradientUnits="userSpaceOnUse">
<stop stop-color="#311944"/>
<stop offset="0.5" stop-color="#5D295D"/>
<stop offset="1" stop-color="#893976"/>
</linearGradient>
<linearGradient id="paint31_linear_14_1359" x1="288.249" y1="223.03" x2="269.871" y2="283.9" gradientUnits="userSpaceOnUse">
<stop stop-color="#444B8C"/>
<stop offset="0.5" stop-color="#35396D"/>
<stop offset="1" stop-color="#26264F"/>
</linearGradient>
<linearGradient id="paint32_linear_14_1359" x1="282.764" y1="251.237" x2="264.55" y2="304.004" gradientUnits="userSpaceOnUse">
<stop stop-color="#FFC444"/>
<stop offset="0.5" stop-color="#F99A4D"/>
<stop offset="1" stop-color="#F36F56"/>
</linearGradient>
<linearGradient id="paint33_linear_14_1359" x1="266.479" y1="224.601" x2="279.563" y2="271.23" gradientUnits="userSpaceOnUse">
<stop stop-color="#444B8C"/>
<stop offset="0.5" stop-color="#35396D"/>
<stop offset="1" stop-color="#26264F"/>
</linearGradient>
<linearGradient id="paint34_linear_14_1359" x1="646.643" y1="171.83" x2="648.379" y2="165.087" gradientUnits="userSpaceOnUse">
<stop stop-color="#FFC444"/>
<stop offset="0.5" stop-color="#F99A4D"/>
<stop offset="1" stop-color="#F36F56"/>
</linearGradient>
<linearGradient id="paint35_linear_14_1359" x1="101.2" y1="401.762" x2="113.067" y2="402.99" gradientUnits="userSpaceOnUse">
<stop stop-color="#AA80F9"/>
<stop offset="0.5" stop-color="#8672E8"/>
<stop offset="1" stop-color="#6165D7"/>
</linearGradient>
<linearGradient id="paint36_linear_14_1359" x1="124.223" y1="405.471" x2="136.09" y2="406.699" gradientUnits="userSpaceOnUse">
<stop stop-color="#AA80F9"/>
<stop offset="0.5" stop-color="#8672E8"/>
<stop offset="1" stop-color="#6165D7"/>
</linearGradient>
<linearGradient id="paint37_linear_14_1359" x1="49.1306" y1="315.119" x2="121.612" y2="313.732" gradientUnits="userSpaceOnUse">
<stop stop-color="#444B8C"/>
<stop offset="0.5" stop-color="#35396D"/>
<stop offset="1" stop-color="#26264F"/>
</linearGradient>
<linearGradient id="paint38_linear_14_1359" x1="53.8959" y1="309.392" x2="123.605" y2="316.286" gradientUnits="userSpaceOnUse">
<stop stop-color="#444B8C"/>
<stop offset="0.5" stop-color="#35396D"/>
<stop offset="1" stop-color="#26264F"/>
</linearGradient>
<linearGradient id="paint39_linear_14_1359" x1="195.927" y1="178.735" x2="57.1581" y2="109.065" gradientUnits="userSpaceOnUse">
<stop stop-color="#311944"/>
<stop offset="0.5" stop-color="#4E295D"/>
<stop offset="1" stop-color="#6B3976"/>
</linearGradient>
<linearGradient id="paint40_linear_14_1359" x1="196.542" y1="177.493" x2="57.7739" y2="107.824" gradientUnits="userSpaceOnUse">
<stop stop-color="#311944"/>
<stop offset="0.5" stop-color="#4E295D"/>
<stop offset="1" stop-color="#6B3976"/>
</linearGradient>
<linearGradient id="paint41_linear_14_1359" x1="32.9174" y1="148.557" x2="32.8279" y2="214.104" gradientUnits="userSpaceOnUse">
<stop stop-color="#AA80F9"/>
<stop offset="0.5" stop-color="#8672E8"/>
<stop offset="1" stop-color="#6165D7"/>
</linearGradient>
<linearGradient id="paint42_linear_14_1359" x1="91.7097" y1="184.087" x2="192.435" y2="286.217" gradientUnits="userSpaceOnUse">
<stop stop-color="#AA80F9"/>
<stop offset="0.5" stop-color="#8672E8"/>
<stop offset="1" stop-color="#6165D7"/>
</linearGradient>
<linearGradient id="paint43_linear_14_1359" x1="78.4184" y1="171.45" x2="186.257" y2="252.817" gradientUnits="userSpaceOnUse">
<stop stop-color="#AA80F9"/>
<stop offset="0.5" stop-color="#8672E8"/>
<stop offset="1" stop-color="#6165D7"/>
</linearGradient>
<linearGradient id="paint44_linear_14_1359" x1="-102.04" y1="147.91" x2="-105.305" y2="208.303" gradientUnits="userSpaceOnUse">
<stop stop-color="#FFC444"/>
<stop offset="0.5" stop-color="#F99A4D"/>
<stop offset="1" stop-color="#F36F56"/>
</linearGradient>
<linearGradient id="paint45_linear_14_1359" x1="83.3505" y1="152.17" x2="90.5901" y2="103.209" gradientUnits="userSpaceOnUse">
<stop stop-color="#FFC444"/>
<stop offset="0.5" stop-color="#F99A4D"/>
<stop offset="1" stop-color="#F36F56"/>
</linearGradient>
<linearGradient id="paint46_linear_14_1359" x1="-110.827" y1="112.582" x2="-123.66" y2="65.1187" gradientUnits="userSpaceOnUse">
<stop stop-color="#FFC444"/>
<stop offset="0.5" stop-color="#F99A4D"/>
<stop offset="1" stop-color="#F36F56"/>
</linearGradient>
<linearGradient id="paint47_linear_14_1359" x1="198.172" y1="172.523" x2="59.404" y2="102.854" gradientUnits="userSpaceOnUse">
<stop stop-color="#311944"/>
<stop offset="0.5" stop-color="#4E295D"/>
<stop offset="1" stop-color="#6B3976"/>
</linearGradient>
<linearGradient id="paint48_linear_14_1359" x1="50.2946" y1="196.463" x2="69.6469" y2="214.507" gradientUnits="userSpaceOnUse">
<stop stop-color="#FFC444"/>
<stop offset="0.5" stop-color="#F99A4D"/>
<stop offset="1" stop-color="#F36F56"/>
</linearGradient>
<linearGradient id="paint49_linear_14_1359" x1="115.428" y1="169.492" x2="98.3144" y2="179.766" gradientUnits="userSpaceOnUse">
<stop stop-color="#FFC444"/>
<stop offset="0.5" stop-color="#F99A4D"/>
<stop offset="1" stop-color="#F36F56"/>
</linearGradient>
<linearGradient id="paint50_linear_14_1359" x1="67.4108" y1="180.435" x2="134.662" y2="200.866" gradientUnits="userSpaceOnUse">
<stop stop-color="#FF9085"/>
<stop offset="0.5" stop-color="#FD80A0"/>
<stop offset="1" stop-color="#FB6FBB"/>
</linearGradient>
<linearGradient id="paint51_linear_14_1359" x1="53.637" y1="201.274" x2="154.81" y2="228.068" gradientUnits="userSpaceOnUse">
<stop stop-color="#AA80F9"/>
<stop offset="0.5" stop-color="#8672E8"/>
<stop offset="1" stop-color="#6165D7"/>
</linearGradient>
<linearGradient id="paint52_linear_14_1359" x1="32.3098" y1="175.222" x2="6.83369" y2="192.782" gradientUnits="userSpaceOnUse">
<stop stop-color="#FFC444"/>
<stop offset="0.5" stop-color="#F99A4D"/>
<stop offset="1" stop-color="#F36F56"/>
</linearGradient>
<linearGradient id="paint53_linear_14_1359" x1="30.9716" y1="189.55" x2="11.1536" y2="207.582" gradientUnits="userSpaceOnUse">
<stop stop-color="#AA80F9"/>
<stop offset="0.5" stop-color="#8672E8"/>
<stop offset="1" stop-color="#6165D7"/>
</linearGradient>
<linearGradient id="paint54_linear_14_1359" x1="99.3708" y1="164.916" x2="150.949" y2="223.681" gradientUnits="userSpaceOnUse">
<stop stop-color="#AA80F9"/>
<stop offset="0.5" stop-color="#8672E8"/>
<stop offset="1" stop-color="#6165D7"/>
</linearGradient>
<linearGradient id="paint55_linear_14_1359" x1="197.445" y1="174.569" x2="58.6775" y2="104.899" gradientUnits="userSpaceOnUse">
<stop stop-color="#311944"/>
<stop offset="0.5" stop-color="#4E295D"/>
<stop offset="1" stop-color="#6B3976"/>
</linearGradient>
</defs>
</svg>
