<svg width="91" height="34" viewBox="0 0 91 34" fill="none" xmlns="http://www.w3.org/2000/svg">
<g filter="url(#filter0_d_14_1646)">
<path d="M10.5313 10.4469H8.46877C6.45784 10.8594 4.8594 12.4406 4.4469 14.4688V16.5313C4.8594 18.5594 6.45784 20.1406 8.46877 20.5531H10.5313C12.5594 20.1406 14.1406 18.5422 14.5531 16.5313V14.4688C14.1406 12.4406 12.5422 10.8594 10.5313 10.4469Z" fill="white"/>
<path d="M14.5151 16.7031C14.6092 16.309 14.6565 15.9052 14.6562 15.5C14.6562 15.0858 14.6074 14.6829 14.5151 14.2969H10.7031V10.4849C10.309 10.3908 9.90519 10.3435 9.5 10.3438C9.08578 10.3438 8.68291 10.3926 8.29688 10.4849V14.2969H4.48486C4.39084 14.691 4.34348 15.0948 4.34375 15.5C4.34375 15.9142 4.39256 16.3171 4.48486 16.7031H8.29688V20.5151C8.691 20.6092 9.09482 20.6565 9.5 20.6562C9.91422 20.6562 10.3171 20.6074 10.7031 20.5151V16.7031H14.5151Z" fill="#CE1124"/>
<path d="M76.3438 15.5C76.3438 16.5141 76.6359 17.4594 77.1344 18.25H85.8484C86.3469 17.4594 86.6391 16.5141 86.6391 15.5C86.6391 14.4859 86.3469 13.5406 85.8484 12.75H77.1344C76.6359 13.5406 76.3438 14.4859 76.3438 15.5Z" fill="#FFCE31"/>
<path d="M85.8657 12.75C84.9547 11.3063 83.3391 10.3438 81.5 10.3438C79.661 10.3438 78.0453 11.3063 77.1344 12.75H85.8657ZM77.1344 18.25C78.0453 19.6938 79.661 20.6562 81.5 20.6562C83.3391 20.6562 84.9547 19.6938 85.8657 18.25H77.1344Z" fill="#ED4C5C"/>
<path d="M77.5812 14.9328H78.1312V15.2422H77.5812V14.9328ZM77.5812 17.2015H78.1484V17.4937H77.5812V17.2015Z" fill="#C8B100"/>
<path d="M77.5297 16.7203C77.4781 16.7547 77.4437 16.7891 77.4437 16.8063C77.4437 16.8235 77.4609 16.8407 77.4953 16.8578C77.5297 16.875 77.564 16.9094 77.5469 16.9438C77.5812 16.9094 77.5984 16.875 77.5984 16.8407C77.5984 16.7891 77.564 16.7375 77.5297 16.7203Z" fill="#ED4C5C"/>
<path d="M77.6672 15.2422H78.0625V17.2016H77.6672V15.2422Z" fill="white"/>
<path d="M78.475 15.9641C78.3891 15.9297 78.2344 15.8953 78.0625 15.8953C78.011 15.8953 77.9422 15.8953 77.8735 15.9125C77.6328 15.9469 77.4438 16.05 77.461 16.1187L77.375 15.9297C77.3578 15.8437 77.5641 15.7406 77.8219 15.6891C77.9078 15.6719 77.9938 15.6719 78.0625 15.6719C78.2344 15.6719 78.3891 15.6891 78.475 15.7234V15.9641Z" fill="#ED4C5C"/>
<path d="M77.6672 16.2219C77.5641 16.2219 77.4781 16.1875 77.4781 16.1359C77.4781 16.1016 77.5125 16.05 77.5813 16.0156H77.6844L77.6672 16.2219ZM78.0625 16.0672C78.1313 16.0844 78.1828 16.1016 78.2172 16.1188C78.2344 16.1359 78.1656 16.2047 78.0625 16.2563V16.0672Z" fill="#ED4C5C"/>
<path d="M77.4094 16.6C77.3922 16.5657 77.5125 16.4969 77.6672 16.4453C77.736 16.4282 77.7875 16.3938 77.8735 16.3594C78.0797 16.2735 78.2516 16.1531 78.2172 16.1188L78.2516 16.325C78.2688 16.3594 78.1313 16.4625 77.925 16.5657C77.8563 16.6 77.736 16.6516 77.6672 16.6688C77.5469 16.7032 77.4438 16.7719 77.4438 16.7891L77.4094 16.6Z" fill="#ED4C5C"/>
<path d="M81.2766 14.9328H81.8266V15.2422H81.2766V14.9328ZM81.2594 17.2015H81.8266V17.4937H81.2594V17.2015Z" fill="#C8B100"/>
<path d="M81.8781 16.7203C81.9297 16.7547 81.9641 16.7891 81.9641 16.8063C81.9641 16.8235 81.9469 16.8407 81.9125 16.8578C81.8781 16.8922 81.8438 16.9438 81.8609 16.961C81.8266 16.9266 81.8094 16.8922 81.8094 16.8578C81.8094 16.7891 81.8438 16.7375 81.8781 16.7203Z" fill="#ED4C5C"/>
<path d="M81.3453 15.2422H81.7407V17.2016H81.3453V15.2422Z" fill="white"/>
<path d="M80.9328 15.9641C81.0187 15.9297 81.1734 15.8953 81.3453 15.8953C81.3969 15.8953 81.4656 15.8953 81.5344 15.9125C81.775 15.9469 81.9641 16.05 81.9469 16.1187L82.0328 15.9125C82.05 15.8266 81.8437 15.7234 81.5859 15.6719H81.3453C81.1734 15.6719 81.0187 15.6891 80.9328 15.7234V15.9641Z" fill="#ED4C5C"/>
<path d="M81.7406 16.2219C81.8437 16.2219 81.9297 16.1875 81.9297 16.1359C81.9297 16.1016 81.8953 16.05 81.8266 16.0156H81.7234L81.7406 16.2219ZM81.3453 16.0672C81.2766 16.0844 81.225 16.1016 81.1906 16.1188C81.1734 16.1359 81.2422 16.2047 81.3453 16.2563V16.0672Z" fill="#ED4C5C"/>
<path d="M81.9984 16.6C82.0156 16.5656 81.8953 16.4969 81.7406 16.4453C81.6719 16.4281 81.6203 16.3938 81.5344 16.3594C81.3281 16.2734 81.1563 16.1531 81.1906 16.1188L81.1563 16.325C81.1391 16.3594 81.2766 16.4625 81.4828 16.5656C81.5516 16.6 81.6719 16.6516 81.7406 16.6688C81.8609 16.7031 81.9641 16.7891 81.9469 16.8063L81.9984 16.6ZM79.6953 13.8328C80.0219 13.8328 80.6922 13.9016 80.9328 14.1422C80.675 14.7609 80.2625 14.5031 79.6953 14.5031C79.1453 14.5031 78.7156 14.7609 78.4578 14.1422C78.6984 13.9016 79.3516 13.8328 79.6953 13.8328Z" fill="#ED4C5C"/>
<path d="M80.5375 14.5203C80.3313 14.4 80.0219 14.3828 79.6953 14.3828C79.3688 14.3828 79.0594 14.4172 78.8531 14.5203L78.9219 14.8125C79.111 14.8641 79.386 14.8984 79.6953 14.8984C80.0047 14.8984 80.2625 14.8641 80.4688 14.8125L80.5375 14.5203ZM80.8297 13.7812C80.761 13.7297 80.6235 13.6781 80.5031 13.6781C80.4516 13.6781 80.4 13.6781 80.3485 13.6953C80.3485 13.6953 80.2453 13.5578 80.0047 13.5578C79.9188 13.5578 79.85 13.575 79.7813 13.6094V13.5922C79.7641 13.5578 79.7297 13.5234 79.6953 13.5234C79.661 13.5234 79.6094 13.575 79.6094 13.6094V13.6266C79.5406 13.5922 79.4719 13.575 79.386 13.575C79.1453 13.575 79.0422 13.7297 79.0422 13.7125C78.9906 13.6953 78.9391 13.6953 78.8875 13.6953C78.0969 13.6953 78.4922 14.2281 78.4922 14.2281L78.5781 14.125C78.3891 13.8844 78.5609 13.7469 78.9047 13.7469C78.9563 13.7469 78.9906 13.7469 79.025 13.7641C78.9047 13.9359 79.1281 14.0906 79.1281 14.0906L79.1797 14.0047C79.0594 13.9187 79.0422 13.6266 79.386 13.6266C79.4719 13.6266 79.5406 13.6437 79.6094 13.6953C79.6094 13.7125 79.5922 13.9531 79.575 13.9875L79.7125 14.1078L79.85 13.9875C79.8328 13.9359 79.8156 13.7125 79.8156 13.6953C79.8672 13.6609 79.9531 13.6266 80.0391 13.6266C80.4 13.6266 80.4 13.9187 80.2453 14.0047L80.2969 14.0906C80.2969 14.0906 80.486 13.9359 80.4 13.7641C80.4344 13.7641 80.486 13.7469 80.5203 13.7469C80.9328 13.7469 80.95 14.0562 80.8469 14.125L80.9156 14.2281C80.8813 14.2281 81.0703 13.9875 80.8297 13.7812Z" fill="#C8B100"/>
<path d="M79.5922 13.4547C79.5922 13.4031 79.6437 13.3516 79.6953 13.3516C79.764 13.3516 79.7984 13.4031 79.7984 13.4547C79.7984 13.5063 79.7469 13.5578 79.6953 13.5578C79.6437 13.5578 79.5922 13.5063 79.5922 13.4547Z" fill="#005BBF"/>
<path d="M79.6609 13.1625V13.214H79.6094V13.2656H79.6609V13.4375H79.5922V13.489H79.7984L79.8156 13.4547L79.7984 13.4375H79.7297V13.2656H79.7812V13.214H79.7297V13.1625H79.6609Z" fill="#C8B100"/>
<path d="M79.6953 14.8641C79.4203 14.8641 79.1797 14.8297 78.9906 14.7781C79.1797 14.7266 79.4203 14.6922 79.6953 14.6922C79.9703 14.6922 80.2109 14.7266 80.4 14.7781C80.2281 14.8297 79.9703 14.8641 79.6953 14.8641Z" fill="#ED4C5C"/>
<path d="M79.7125 17.8375C79.3859 17.8375 79.0765 17.7516 78.8015 17.6313C78.5953 17.5281 78.475 17.3391 78.475 17.1156V16.2906H80.95V17.1156C80.95 17.3391 80.8125 17.5453 80.6234 17.6313C80.3484 17.7688 80.039 17.8375 79.7125 17.8375ZM79.6953 14.9156H80.9328V16.2906H79.6953V14.9156Z" fill="white"/>
<path d="M79.7125 17.1157C79.7125 17.4422 79.4375 17.7 79.0937 17.7C78.75 17.7 78.475 17.4422 78.475 17.1157V16.2906H79.7125V17.1157Z" fill="#ED4C5C"/>
<path d="M78.7328 17.5968C78.7672 17.614 78.8188 17.6484 78.8875 17.6656V16.2562H78.75L78.7328 17.5968ZM78.4578 17.0984C78.4578 17.2703 78.5266 17.4078 78.5953 17.4765V16.2562H78.4578V17.0984Z" fill="#C8B100"/>
<path d="M79.0078 17.7H79.1453V16.2562H79.0078V17.7Z" fill="#C7B500"/>
<path d="M79.2828 17.6656C79.3344 17.6484 79.4031 17.614 79.4375 17.5968V16.2562H79.3L79.2828 17.6656Z" fill="#C8B100"/>
<path d="M78.4578 14.9156H79.6953V16.2906H78.4578V14.9156Z" fill="#ED4C5C"/>
<path d="M79.575 17.4766C79.6438 17.425 79.6953 17.3047 79.7125 17.1672V16.2734H79.575V17.4766Z" fill="#C8B100"/>
<path d="M80.95 16.2907V17.1157C80.95 17.4422 80.675 17.7 80.3312 17.7C79.9875 17.7 79.7125 17.4422 79.7125 17.1157V16.2907H80.95ZM80.5031 15.1563C80.5547 15.2594 80.5547 15.5172 80.4 15.4657C80.4344 15.4828 80.4515 15.6032 80.5031 15.6719C80.589 15.775 80.6922 15.6891 80.675 15.5688C80.6406 15.3797 80.6578 15.2594 80.6922 15.0703C80.6922 15.0875 80.7781 15.0875 80.8125 15.0532C80.7953 15.1047 80.7781 15.1735 80.8125 15.1735C80.7781 15.225 80.6922 15.311 80.675 15.3625C80.6578 15.4828 80.8469 15.7063 80.6406 15.7578C80.5031 15.7922 80.589 15.8953 80.6406 15.9469C80.6406 15.9469 80.5719 16.1703 80.6062 16.1532C80.4687 16.2047 80.5031 16.0844 80.5031 16.0844C80.5719 15.8782 80.3828 15.861 80.4 15.8266C80.2281 15.8094 80.4172 15.9813 80.2625 15.9813C80.2281 15.9813 80.1594 16.0157 80.1594 16.0157C79.9703 15.9985 80.0734 15.8266 80.1422 15.8438C80.1937 15.861 80.2453 15.9469 80.2453 15.8266C80.2453 15.8266 80.1594 15.6891 80.3828 15.6891C80.2969 15.6891 80.2453 15.6203 80.2109 15.5344C80.1765 15.5516 80.125 15.6375 79.9359 15.6547C79.9359 15.6547 79.8844 15.4657 79.9359 15.5C80.0047 15.5344 80.039 15.5344 80.1078 15.4657C80.0734 15.4141 79.8672 15.3453 79.9015 15.225C79.9015 15.1907 80.0047 15.1391 80.0047 15.1391C79.9875 15.225 80.039 15.311 80.1422 15.311C80.2797 15.3282 80.2281 15.2766 80.2453 15.2422C80.2625 15.2078 80.3656 15.2594 80.3312 15.1735C80.3312 15.1563 80.2109 15.1391 80.2453 15.0875C80.314 15.0016 80.4172 15.0703 80.5031 15.1563ZM79.7125 17.6657L79.6781 17.5797L79.7125 17.4766L79.7469 17.5797L79.7125 17.6657Z" fill="#ED4C5C"/>
<path d="M78.8359 15.2078V15.2937H78.8703V15.3625H78.7844V15.5344H78.8359V15.9125H78.7328V16.1016H79.4375V15.9125H79.3515V15.5344H79.3859V15.3625H79.3V15.2937H79.3515V15.2078H79.1797V15.2937H79.214V15.3625H79.1281V15.1562H79.1797V15.0703H78.9906V15.1562H79.0422V15.3625H78.9562V15.2937H78.9906V15.2078H78.8359ZM80.7781 17.3219V16.4625H79.8844V17.3219L80.2969 17.5109H80.3484L80.7781 17.3219ZM80.2969 16.5312V16.8234L80.0047 16.5312H80.2969ZM79.9359 16.5484L80.2797 16.8922L79.9359 17.2359V16.5484ZM79.9703 17.3047L80.2969 16.9781V17.4594L79.9703 17.3047ZM80.3484 17.4422V16.9609L80.675 17.2875L80.3484 17.4422ZM80.7094 17.2359L80.3656 16.8922L80.7094 16.5484V17.2359ZM80.3484 16.5312H80.6406L80.3484 16.8234V16.5312Z" fill="#C8B100"/>
<path d="M79.3 16.2734C79.3 16.0156 79.4719 15.8265 79.6953 15.8265C79.9187 15.8265 80.0906 16.0328 80.0906 16.2734C80.0906 16.514 79.9187 16.7203 79.6953 16.7203C79.4719 16.7203 79.3 16.5312 79.3 16.2734Z" fill="#ED4C5C"/>
<path d="M79.4203 16.2735C79.4203 16.0844 79.5406 15.9469 79.6953 15.9469C79.85 15.9469 79.9703 16.1016 79.9703 16.2735C79.9703 16.4625 79.85 16.6 79.6953 16.6C79.5578 16.6172 79.4203 16.4625 79.4203 16.2735Z" fill="#005BBF"/>
<path d="M79.575 16.05L79.5062 16.239L79.5578 16.2562L79.5234 16.325H79.6265L79.5922 16.2562L79.6437 16.239L79.575 16.05ZM79.8328 16.05L79.764 16.239L79.8156 16.2562L79.7812 16.325H79.8844L79.8672 16.2562L79.9187 16.239L79.8328 16.05ZM79.7125 16.2734L79.6265 16.4625L79.6781 16.4797L79.6609 16.5484H79.7469L79.7297 16.4797L79.7812 16.4625L79.7125 16.2734Z" fill="#C8B100"/>
<path d="M27.135 20.04V21H19.71V10.5H26.91V11.46H20.82V15.195H26.25V16.14H20.82V20.04H27.135ZM38.5192 10.5V21H37.6042L30.8542 12.48V21H29.7442V10.5H30.6592L37.4242 19.02V10.5H38.5192ZM46.5561 5.418H47.9421V25.074H46.5561V5.418ZM58.8863 21.09C58.1063 21.09 57.3563 20.965 56.6363 20.715C55.9263 20.465 55.3763 20.135 54.9863 19.725L55.4213 18.87C55.8013 19.25 56.3063 19.56 56.9363 19.8C57.5663 20.03 58.2163 20.145 58.8863 20.145C59.8263 20.145 60.5313 19.975 61.0013 19.635C61.4713 19.285 61.7063 18.835 61.7063 18.285C61.7063 17.865 61.5763 17.53 61.3163 17.28C61.0663 17.03 60.7563 16.84 60.3863 16.71C60.0163 16.57 59.5013 16.42 58.8413 16.26C58.0513 16.06 57.4213 15.87 56.9513 15.69C56.4813 15.5 56.0763 15.215 55.7363 14.835C55.4063 14.455 55.2413 13.94 55.2413 13.29C55.2413 12.76 55.3813 12.28 55.6613 11.85C55.9413 11.41 56.3713 11.06 56.9513 10.8C57.5313 10.54 58.2513 10.41 59.1113 10.41C59.7113 10.41 60.2963 10.495 60.8663 10.665C61.4463 10.825 61.9463 11.05 62.3663 11.34L61.9912 12.225C61.5513 11.935 61.0813 11.72 60.5813 11.58C60.0813 11.43 59.5913 11.355 59.1113 11.355C58.1913 11.355 57.4963 11.535 57.0263 11.895C56.5663 12.245 56.3363 12.7 56.3363 13.26C56.3363 13.68 56.4613 14.02 56.7113 14.28C56.9713 14.53 57.2913 14.725 57.6713 14.865C58.0613 14.995 58.5813 15.14 59.2313 15.3C60.0013 15.49 60.6213 15.68 61.0913 15.87C61.5713 16.05 61.9763 16.33 62.3063 16.71C62.6363 17.08 62.8013 17.585 62.8013 18.225C62.8013 18.755 62.6563 19.24 62.3663 19.68C62.0863 20.11 61.6513 20.455 61.0613 20.715C60.4713 20.965 59.7463 21.09 58.8863 21.09ZM69.1498 10.5C70.4898 10.5 71.5398 10.82 72.2998 11.46C73.0598 12.1 73.4398 12.98 73.4398 14.1C73.4398 15.22 73.0598 16.1 72.2998 16.74C71.5398 17.37 70.4898 17.685 69.1498 17.685H66.3298V21H65.2198V10.5H69.1498ZM69.1198 16.71C70.1598 16.71 70.9548 16.485 71.5048 16.035C72.0548 15.575 72.3298 14.93 72.3298 14.1C72.3298 13.25 72.0548 12.6 71.5048 12.15C70.9548 11.69 70.1598 11.46 69.1198 11.46H66.3298V16.71H69.1198Z" fill="#C4C4C4"/>
</g>
<defs>
<filter id="filter0_d_14_1646" x="0" y="5.41797" width="91" height="27.656" filterUnits="userSpaceOnUse" color-interpolation-filters="sRGB">
<feFlood flood-opacity="0" result="BackgroundImageFix"/>
<feColorMatrix in="SourceAlpha" type="matrix" values="0 0 0 0 0 0 0 0 0 0 0 0 0 0 0 0 0 0 127 0" result="hardAlpha"/>
<feOffset dy="4"/>
<feGaussianBlur stdDeviation="2"/>
<feComposite in2="hardAlpha" operator="out"/>
<feColorMatrix type="matrix" values="0 0 0 0 0 0 0 0 0 0 0 0 0 0 0 0 0 0 0.25 0"/>
<feBlend mode="normal" in2="BackgroundImageFix" result="effect1_dropShadow_14_1646"/>
<feBlend mode="normal" in="SourceGraphic" in2="effect1_dropShadow_14_1646" result="shape"/>
</filter>
</defs>
</svg>
