<svg width="35" height="35" viewBox="0 0 35 35" fill="none" xmlns="http://www.w3.org/2000/svg">
<path fill-rule="evenodd" clip-rule="evenodd" d="M10.8865 1.55462C12.5971 1.47587 13.1425 1.45837 17.5 1.45837C21.8575 1.45837 22.4029 1.47733 24.1121 1.55462C25.8213 1.63192 26.9879 1.90462 28.0088 2.29983C29.0777 2.70379 30.0475 3.33525 30.8496 4.15192C31.6663 4.95254 32.2963 5.92087 32.6988 6.99129C33.0954 8.01212 33.3667 9.17879 33.4454 10.885C33.5242 12.5986 33.5417 13.144 33.5417 17.5C33.5417 21.8575 33.5227 22.403 33.4454 24.1136C33.3681 25.8198 33.0954 26.9865 32.6988 28.0073C32.2962 29.0779 31.6652 30.0478 30.8496 30.8496C30.0475 31.6663 29.0777 32.2963 28.0088 32.6988C26.9879 33.0955 25.8213 33.3667 24.115 33.4455C22.4029 33.5242 21.8575 33.5417 17.5 33.5417C13.1425 33.5417 12.5971 33.5227 10.8865 33.4455C9.18022 33.3682 8.01355 33.0955 6.99272 32.6988C5.92219 32.2962 4.95225 31.6652 4.15043 30.8496C3.33431 30.0485 2.70276 29.079 2.2998 28.0088C1.90459 26.988 1.63334 25.8213 1.55459 24.115C1.47584 22.4015 1.45834 21.8561 1.45834 17.5C1.45834 13.1425 1.4773 12.5971 1.55459 10.888C1.63189 9.17879 1.90459 8.01212 2.2998 6.99129C2.70336 5.92099 3.33539 4.95154 4.15188 4.15046C4.95257 3.33452 5.92153 2.70298 6.99126 2.29983C8.01209 1.90462 9.17876 1.63337 10.885 1.55462H10.8865ZM23.9823 4.44212C22.2906 4.36483 21.7831 4.34879 17.5 4.34879C13.2169 4.34879 12.7094 4.36483 11.0177 4.44212C9.45293 4.51358 8.60418 4.77462 8.03834 4.99483C7.29022 5.2865 6.75501 5.63212 6.19355 6.19358C5.66133 6.71137 5.25173 7.3417 4.9948 8.03837C4.77459 8.60421 4.51355 9.45296 4.44209 11.0177C4.3648 12.7094 4.34876 13.2169 4.34876 17.5C4.34876 21.7832 4.3648 22.2907 4.44209 23.9823C4.51355 25.5471 4.77459 26.3959 4.9948 26.9617C5.25147 27.6573 5.66126 28.2888 6.19355 28.8065C6.71126 29.3388 7.34272 29.7486 8.03834 30.0052C8.60418 30.2255 9.45293 30.4865 11.0177 30.558C12.7094 30.6352 13.2154 30.6513 17.5 30.6513C21.7846 30.6513 22.2906 30.6352 23.9823 30.558C25.5471 30.4865 26.3958 30.2255 26.9617 30.0052C27.7098 29.7136 28.245 29.368 28.8065 28.8065C29.3388 28.2888 29.7486 27.6573 30.0052 26.9617C30.2254 26.3959 30.4865 25.5471 30.5579 23.9823C30.6352 22.2907 30.6513 21.7832 30.6513 17.5C30.6513 13.2169 30.6352 12.7094 30.5579 11.0177C30.4865 9.45296 30.2254 8.60421 30.0052 8.03837C29.7136 7.29025 29.3679 6.75504 28.8065 6.19358C28.2887 5.66139 27.6583 5.25181 26.9617 4.99483C26.3958 4.77462 25.5471 4.51358 23.9823 4.44212ZM15.4511 22.4452C16.5953 22.9216 17.8695 22.9859 19.0559 22.6271C20.2424 22.2684 21.2675 21.5089 21.9561 20.4783C22.6448 19.4477 22.9543 18.2101 22.8317 16.9767C22.7092 15.7432 22.1623 14.5906 21.2844 13.7157C20.7247 13.1564 20.048 12.7281 19.303 12.4617C18.558 12.1953 17.7631 12.0974 16.9757 12.1751C16.1883 12.2528 15.4279 12.504 14.7493 12.9109C14.0707 13.3177 13.4907 13.8699 13.0511 14.5277C12.6115 15.1856 12.3232 15.9328 12.207 16.7154C12.0908 17.498 12.1496 18.2967 12.3791 19.0539C12.6087 19.8111 13.0032 20.508 13.5344 21.0944C14.0656 21.6808 14.7202 22.1422 15.4511 22.4452ZM11.6696 11.6696C12.4353 10.904 13.3442 10.2966 14.3446 9.88223C15.345 9.46786 16.4172 9.25459 17.5 9.25459C18.5828 9.25459 19.655 9.46786 20.6554 9.88223C21.6558 10.2966 22.5648 10.904 23.3304 11.6696C24.0961 12.4353 24.7034 13.3443 25.1178 14.3446C25.5322 15.345 25.7455 16.4172 25.7455 17.5C25.7455 18.5828 25.5322 19.6551 25.1178 20.6554C24.7034 21.6558 24.0961 22.5648 23.3304 23.3305C21.7841 24.8768 19.6868 25.7455 17.5 25.7455C15.3132 25.7455 13.2159 24.8768 11.6696 23.3305C10.1233 21.7841 9.25456 19.6869 9.25456 17.5C9.25456 15.3132 10.1233 13.2159 11.6696 11.6696ZM27.5742 10.4825C27.7639 10.3036 27.9158 10.0883 28.0209 9.84959C28.1259 9.61085 28.182 9.35345 28.1858 9.09265C28.1896 8.83184 28.1411 8.57292 28.043 8.33122C27.9449 8.08952 27.7994 7.86995 27.615 7.68551C27.4305 7.50108 27.2109 7.35552 26.9692 7.25746C26.7275 7.1594 26.4686 7.11084 26.2078 7.11464C25.947 7.11844 25.6896 7.17454 25.4509 7.2796C25.2121 7.38466 24.9969 7.53655 24.8179 7.72629C24.4698 8.09529 24.2793 8.58543 24.2867 9.09265C24.2941 9.59987 24.4988 10.0842 24.8575 10.4429C25.2162 10.8016 25.7006 11.0064 26.2078 11.0138C26.715 11.0212 27.2052 10.8306 27.5742 10.4825Z" fill="white"/>
</svg>
