<svg width="381" height="826" viewBox="0 0 381 826" fill="none" xmlns="http://www.w3.org/2000/svg">
<path opacity="0.05" d="M795.418 51C736.406 85.9997 711.058 136.429 719.373 202.288C731.845 301.077 704.468 361.257 642.57 361.285C580.672 361.313 528.394 286.161 519.741 200.604C511.087 115.048 424.874 105.664 389.241 119.566C353.609 133.469 331.187 165.535 329.577 202.346C326.015 283.755 432.041 357.506 423.329 432.116C414.617 506.727 320.856 526.737 268.944 454.664C266.386 451.113 263.76 447.753 261.073 444.579C207.056 380.759 128.537 391.905 89.7112 432.802C22.3838 503.722 43.6398 587.123 137.231 650.174C277.814 748.979 348.645 850.485 349.725 954.69" stroke="url(#paint0_linear_14_1349)" stroke-width="100" stroke-linecap="round"/>
<defs>
<linearGradient id="paint0_linear_14_1349" x1="795.418" y1="51" x2="33.4841" y2="924.573" gradientUnits="userSpaceOnUse">
<stop stop-color="#4E7577"/>
<stop offset="1" stop-color="#65D5FC"/>
<stop offset="1" stop-color="#23445B"/>
</linearGradient>
</defs>
</svg>
