<svg width="35" height="35" viewBox="0 0 35 35" fill="none" xmlns="http://www.w3.org/2000/svg">
<path d="M17.5 2.1875C9.04395 2.1875 2.1875 9.04395 2.1875 17.5C2.1875 25.9561 9.04395 32.8125 17.5 32.8125C25.9561 32.8125 32.8125 25.9561 32.8125 17.5C32.8125 9.04395 25.9561 2.1875 17.5 2.1875ZM24.8589 13.73C24.8691 13.8906 24.8691 14.0581 24.8691 14.2222C24.8691 19.2397 21.0479 25.0195 14.0649 25.0195C11.9116 25.0195 9.91553 24.394 8.23389 23.3174C8.5415 23.3516 8.83545 23.3652 9.1499 23.3652C10.9272 23.3652 12.561 22.7637 13.8633 21.7451C12.1953 21.7109 10.7939 20.6172 10.3154 19.1133C10.8999 19.1987 11.4263 19.1987 12.0278 19.0449C11.169 18.8704 10.397 18.404 9.84312 17.7248C9.28921 17.0457 8.9875 16.1957 8.98926 15.3193V15.2715C9.4917 15.5552 10.083 15.7295 10.7017 15.7534C10.1816 15.4068 9.75508 14.9372 9.45995 14.3863C9.16482 13.8354 9.01019 13.2202 9.00977 12.5952C9.00977 11.8877 9.19434 11.2417 9.52588 10.6812C10.4792 11.8547 11.6687 12.8145 13.0172 13.4981C14.3657 14.1818 15.843 14.5741 17.353 14.6494C16.8164 12.0688 18.7441 9.98047 21.0615 9.98047C22.1553 9.98047 23.1396 10.4385 23.8335 11.1768C24.6914 11.0161 25.5117 10.6948 26.2432 10.2642C25.9595 11.1426 25.3647 11.8843 24.5752 12.3525C25.3408 12.2705 26.0791 12.0586 26.7627 11.7612C26.2466 12.52 25.6006 13.1934 24.8589 13.73Z" fill="white"/>
</svg>
