<svg xmlns="http://www.w3.org/2000/svg" xmlns:xlink="http://www.w3.org/1999/xlink" width="1300" height="912" viewBox="0 0 1300 912">
  <defs>
    <radialGradient id="radial-gradient" cx="0.5" cy="0.5" r="0.5" gradientUnits="objectBoundingBox">
      <stop offset="0" stop-color="#ba77d2"/>
      <stop offset="1" stop-color="#4b4559" stop-opacity="0.361"/>
    </radialGradient>
    <radialGradient id="radial-gradient-2" cx="0.5" cy="0.5" r="0.5" gradientUnits="objectBoundingBox">
      <stop offset="0" stop-color="#7738b5"/>
      <stop offset="1" stop-color="#5c3280"/>
    </radialGradient>
    <radialGradient id="radial-gradient-3" cx="0.5" cy="0.5" r="0.5" gradientUnits="objectBoundingBox">
      <stop offset="0" stop-color="#d663ff"/>
      <stop offset="0.498" stop-color="#8b3adb"/>
      <stop offset="1" stop-color="#7038a8"/>
    </radialGradient>
    <radialGradient id="radial-gradient-4" cx="0.5" cy="0.5" r="0.5" gradientUnits="objectBoundingBox">
      <stop offset="0" stop-color="#de9fd9"/>
      <stop offset="1" stop-color="gray" stop-opacity="0.039"/>
    </radialGradient>
    <radialGradient id="radial-gradient-5" cx="0.5" cy="0.5" r="0.5" gradientUnits="objectBoundingBox">
      <stop offset="0" stop-color="#f8e1f6"/>
      <stop offset="1" stop-color="#b94eab" stop-opacity="0.169"/>
    </radialGradient>
    <filter id="Ellipse_74" x="1081.52" y="177.097" width="168.385" height="168.385" filterUnits="userSpaceOnUse">
      <feOffset dx="2" dy="2" input="SourceAlpha"/>
      <feGaussianBlur stdDeviation="6" result="blur"/>
      <feFlood flood-color="#c789da"/>
      <feComposite operator="in" in2="blur"/>
      <feComposite in="SourceGraphic"/>
    </filter>
    <linearGradient id="linear-gradient" y1="0.5" x2="1" y2="0.5" gradientUnits="objectBoundingBox">
      <stop offset="0" stop-color="#fff"/>
      <stop offset="1" stop-color="#fff" stop-opacity="0.302"/>
    </linearGradient>
    <radialGradient id="radial-gradient-6" cx="0.5" cy="0.5" r="0.5" gradientUnits="objectBoundingBox">
      <stop offset="0" stop-color="#c783e3"/>
      <stop offset="1" stop-color="#828282" stop-opacity="0.051"/>
    </radialGradient>
  </defs>
  <g id="half-background-1300-912" transform="translate(19 25)">
    <path id="Path_521" data-name="Path 521" d="M0,0H1300V912H0Z" transform="translate(-19 -25)" fill="#3f3d56"/>
    <g id="Group_1890" data-name="Group 1890" transform="translate(0 53.353)">
      <g id="Group_1869" data-name="Group 1869" transform="translate(307.887 287.391)">
        <ellipse id="Ellipse_128" data-name="Ellipse 128" cx="40.03" cy="40.03" rx="40.03" ry="40.03" transform="translate(529.04 227.97)" fill="url(#radial-gradient)"/>
        <path id="Path_514" data-name="Path 514" d="M261.077,265.318c75.067-3.305,133.271-19.5,132.507-36.864-.458-10.412-21.7-18.784-58.287-22.97a1,1,0,0,0-.227,1.987c34.462,3.943,56.117,12.017,56.516,21.07.691,15.7-59.114,31.631-130.6,34.778s-132.456-7.461-133.148-23.166c-.4-9.092,20.6-19.066,54.8-26.028a1,1,0,1,0-.4-1.96c-36.3,7.391-56.857,17.624-56.4,28.076C126.607,257.609,186.009,268.623,261.077,265.318Z" transform="translate(443.234 -137.391)" fill="#d29edf"/>
        <path id="Path_515" data-name="Path 515" d="M324.715,268.227a76.983,76.983,0,0,1-133.036,5.522,1211.985,1211.985,0,0,0,133.036-5.522Z" transform="translate(446.267 -137.391)" fill="url(#radial-gradient-2)"/>
        <path id="Path_516" data-name="Path 516" d="M186.93,252.713a77,77,0,1,1,147.749-5.706,572.233,572.233,0,0,1-147.749,5.706Z" transform="translate(442.712 -137.391)" fill="url(#radial-gradient-3)"/>
        <ellipse id="Ellipse_129" data-name="Ellipse 129" cx="9" cy="9" rx="9" ry="9" transform="translate(676.071 45.703)" fill="url(#radial-gradient-4)"/>
        <ellipse id="Ellipse_130" data-name="Ellipse 130" cx="15" cy="15" rx="15" ry="15" transform="translate(716.392 68.693)" fill="url(#radial-gradient-5)"/>
        <ellipse id="Ellipse_131" data-name="Ellipse 131" cx="10" cy="10" rx="10" ry="10" transform="translate(495 64)" fill="rgba(242,218,216,0.84)"/>
        <ellipse id="Ellipse_132" data-name="Ellipse 132" cx="6" cy="6" rx="6" ry="6" transform="translate(725 378)" fill="rgba(242,218,216,0.84)"/>
        <ellipse id="Ellipse_134" data-name="Ellipse 134" cx="3" cy="3" rx="3" ry="3" transform="translate(699 268)" fill="#e6e6e6"/>
        <ellipse id="Ellipse_138" data-name="Ellipse 138" cx="3" cy="3" rx="3" ry="3" transform="translate(288 444)" fill="#e6e6e6"/>
        <ellipse id="Ellipse_139" data-name="Ellipse 139" cx="3" cy="3" rx="3" ry="3" transform="translate(478 148)" fill="#e6e6e6"/>
        <ellipse id="Ellipse_140" data-name="Ellipse 140" cx="3" cy="3" rx="3" ry="3" transform="translate(454 0)" fill="#f2dad8"/>
        <ellipse id="Ellipse_143" data-name="Ellipse 143" cx="3" cy="3" rx="3" ry="3" transform="translate(147 452)" fill="rgba(242,218,216,0.84)"/>
        <ellipse id="Ellipse_144" data-name="Ellipse 144" cx="9" cy="9" rx="9" ry="9" transform="translate(698.392 209.97)" fill="rgba(204,177,229,0.98)"/>
      </g>
      <g id="Group_1870" data-name="Group 1870" transform="translate(475.19 86.715)">
        <g transform="matrix(1, 0, 0, 1, -494.19, -165.07)" filter="url(#Ellipse_74)">
          <circle id="Ellipse_74-2" data-name="Ellipse 74" cx="66.193" cy="66.193" r="66.193" transform="translate(1097.52 193.1)" fill="#e6e6e6"/>
        </g>
        <circle id="Ellipse_75" data-name="Ellipse 75" cx="7.596" cy="7.596" r="7.596" transform="translate(655.415 41.051)" fill="#cbcbcb"/>
        <circle id="Ellipse_76" data-name="Ellipse 76" cx="7.596" cy="7.596" r="7.596" transform="translate(668.437 117.009)" fill="#cbcbcb"/>
        <circle id="Ellipse_77" data-name="Ellipse 77" cx="5.426" cy="5.426" r="5.426" transform="translate(699.905 76.86)" fill="#cbcbcb"/>
        <circle id="Ellipse_78" data-name="Ellipse 78" cx="17.362" cy="17.362" r="17.362" transform="translate(626.117 82.286)" fill="#cbcbcb"/>
      </g>
      <g id="Group_1876" data-name="Group 1876" transform="translate(470 9.647)">
        <ellipse id="Ellipse_79" data-name="Ellipse 79" cx="10.851" cy="10.851" rx="10.851" ry="10.851" transform="translate(335.304 30.367)" fill="rgba(204,177,229,0.98)"/>
        <ellipse id="Ellipse_80" data-name="Ellipse 80" cx="10.851" cy="10.851" rx="10.851" ry="10.851" transform="translate(626.117 58.58)" fill="#f2dad8"/>
        <ellipse id="Ellipse_81" data-name="Ellipse 81" cx="6.511" cy="6.511" rx="6.511" ry="6.511" transform="translate(501.327 83.537)" fill="rgba(204,177,229,0.98)"/>
        <ellipse id="Ellipse_82" data-name="Ellipse 82" cx="6.511" cy="6.511" rx="6.511" ry="6.511" transform="translate(0 288.626)" fill="#e6e6e6"/>
        <ellipse id="Ellipse_83" data-name="Ellipse 83" cx="6.511" cy="6.511" rx="6.511" ry="6.511" transform="translate(385.219 463.331)" fill="rgba(242,218,216,0.84)"/>
        <path id="Path_259" data-name="Path 259" d="M589.224,438.245l-3.249,3.228-3.228-3.25-2.166,2.152,3.227,3.25-3.25,3.227,2.152,2.167,3.25-3.228,3.228,3.25,2.166-2.152-3.228-3.25,3.25-3.227Z" transform="translate(-95.491 -155.006)" fill="#f2dad8"/>
        <path id="Path_260" data-name="Path 260" d="M158.43,544.588l-3.25,3.227-3.227-3.25-2.167,2.152,3.228,3.25-3.25,3.227,2.152,2.167,3.249-3.228,3.228,3.25,2.167-2.152-3.228-3.249,3.25-3.228Z" transform="translate(-95.491 -155.006)" fill="#e6e6e6"/>
        <path id="Path_261" data-name="Path 261" d="M184.473,355.776,181.223,359,178,355.754l-2.167,2.151,3.228,3.25-3.25,3.228,2.152,2.166,3.249-3.227,3.228,3.249,2.167-2.151-3.228-3.25,3.25-3.228Z" transform="translate(-95.491 -155.006)" fill="rgba(204,177,229,0.98)"/>
        <path id="Path_262" data-name="Path 262" d="M751.993,155.028l-3.25,3.227-3.227-3.249-2.167,2.151,3.228,3.25-3.25,3.228,2.152,2.166,3.25-3.227,3.227,3.249,2.167-2.151-3.228-3.25,3.25-3.228Z" transform="translate(-95.491 -155.006)" fill="#e6e6e6"/>
        <path id="Path_263" data-name="Path 263" d="M495.9,245.093l-3.25,3.228-3.228-3.25-2.166,2.152,3.227,3.249-3.249,3.228,2.151,2.167,3.25-3.228,3.228,3.25,2.166-2.152-3.227-3.25,3.249-3.227Z" transform="translate(-95.491 -155.006)" fill="rgba(204,177,229,0.98)"/>
        <path id="Path_264" data-name="Path 264" d="M691.793,446.991l32.971-38.6,32.971-38.6L776.347,348c1.03-1.206-.559-3.086-1.589-1.881l-32.97,38.6-32.971,38.6L690.2,445.111c-1.03,1.206.559,3.086,1.589,1.881Z" transform="translate(-268.843 -196.006)" opacity="0.8" fill="url(#linear-gradient)"/>
        <path id="Path_265" data-name="Path 265" d="M633.2,585.887l32.971-38.6,32.971-38.6L717.751,486.9c1.03-1.206-.559-3.086-1.589-1.881l-32.971,38.6-32.971,38.6-18.612,21.789c-1.03,1.206.559,3.086,1.589,1.881Z" transform="translate(-268.843 -196.006)" opacity="0.8" fill="url(#linear-gradient)"/>
      </g>
      <g id="Group_1889" data-name="Group 1889" transform="translate(624 327.647)">
        <ellipse id="Ellipse_79-2" data-name="Ellipse 79" cx="10.851" cy="10.851" rx="10.851" ry="10.851" transform="translate(335.304 30.367)" fill="url(#radial-gradient-6)"/>
        <ellipse id="Ellipse_80-2" data-name="Ellipse 80" cx="10.851" cy="10.851" rx="10.851" ry="10.851" transform="translate(599.117 58.58)" fill="rgba(204,177,229,0.98)"/>
        <ellipse id="Ellipse_81-2" data-name="Ellipse 81" cx="6.511" cy="6.511" rx="6.511" ry="6.511" transform="translate(501.327 83.537)" fill="rgba(204,177,229,0.98)"/>
        <ellipse id="Ellipse_82-2" data-name="Ellipse 82" cx="6.511" cy="6.511" rx="6.511" ry="6.511" transform="translate(0 288.626)" fill="#e6e6e6"/>
        <path id="Path_259-2" data-name="Path 259" d="M589.224,438.245l-3.249,3.228-3.228-3.25-2.166,2.152,3.227,3.25-3.25,3.227,2.152,2.167,3.25-3.228,3.228,3.25,2.166-2.152-3.228-3.25,3.25-3.227Z" transform="translate(-95.491 -155.006)" fill="#f2dad8"/>
        <path id="Path_260-2" data-name="Path 260" d="M158.43,544.588l-3.25,3.227-3.227-3.25-2.167,2.152,3.228,3.25-3.25,3.227,2.152,2.167,3.249-3.228,3.228,3.25,2.167-2.152-3.228-3.249,3.25-3.228Z" transform="translate(-95.491 -155.006)" fill="#e6e6e6"/>
        <path id="Path_261-2" data-name="Path 261" d="M184.473,355.776,181.223,359,178,355.754l-2.167,2.151,3.228,3.25-3.25,3.228,2.152,2.166,3.249-3.227,3.228,3.249,2.167-2.151-3.228-3.25,3.25-3.228Z" transform="translate(-95.491 -155.006)" fill="rgba(242,218,216,0.84)"/>
        <path id="Path_263-2" data-name="Path 263" d="M495.9,245.093l-3.25,3.228-3.228-3.25-2.166,2.152,3.227,3.249-3.249,3.228,2.151,2.167,3.25-3.228,3.228,3.25,2.166-2.152-3.227-3.25,3.249-3.227Z" transform="translate(-162.752 -112.006)" fill="rgba(204,177,229,0.98)"/>
        <path id="Path_264-2" data-name="Path 264" d="M691.793,446.991l32.971-38.6,32.971-38.6L776.347,348c1.03-1.206-.559-3.086-1.589-1.881l-32.97,38.6-32.971,38.6L690.2,445.111c-1.03,1.206.559,3.086,1.589,1.881Z" transform="translate(-268.843 -196.006)" opacity="0.8" fill="url(#linear-gradient)"/>
        <path id="Path_265-2" data-name="Path 265" d="M633.2,585.887l32.971-38.6,32.971-38.6L717.751,486.9c1.03-1.206-.559-3.086-1.589-1.881l-32.971,38.6-32.971,38.6-18.612,21.789c-1.03,1.206.559,3.086,1.589,1.881Z" transform="translate(-268.843 -196.006)" opacity="0.8" fill="url(#linear-gradient)"/>
      </g>
    </g>
  </g>
</svg>
