<svg width="50" height="50" viewBox="0 0 50 50" fill="none" xmlns="http://www.w3.org/2000/svg">
<rect width="50" height="50" fill="white"/>
<path d="M41 47.8H37.8V39.8C37.8 37.6782 36.9571 35.6434 35.4569 34.1431C33.9566 32.6428 31.9217 31.8 29.8 31.8H20.2C18.0783 31.8 16.0434 32.6428 14.5431 34.1431C13.0429 35.6434 12.2 37.6782 12.2 39.8V47.8H9V39.8C9 36.8296 10.18 33.9808 12.2804 31.8804C14.3808 29.78 17.2296 28.6 20.2 28.6H29.8C32.7704 28.6 35.6192 29.78 37.7196 31.8804C39.82 33.9808 41 36.8296 41 39.8V47.8Z" fill="#7961FF"/>
<path d="M24.9998 6.2C26.5821 6.2 28.1288 6.66919 29.4444 7.54824C30.76 8.42729 31.7853 9.67672 32.3908 11.1385C32.9963 12.6003 33.1548 14.2089 32.8461 15.7607C32.5374 17.3126 31.7755 18.738 30.6567 19.8569C29.5378 20.9757 28.1124 21.7376 26.5605 22.0463C25.0087 22.355 23.4002 22.1965 21.9383 21.591C20.4765 20.9855 19.2271 19.9602 18.3481 18.6446C17.469 17.329 16.9998 15.7823 16.9998 14.2C16.9998 12.0783 17.8427 10.0434 19.343 8.54315C20.8432 7.04285 22.8781 6.2 24.9998 6.2V6.2ZM24.9998 3C22.7847 3 20.6193 3.65687 18.7774 4.88754C16.9356 6.11821 15.5001 7.86741 14.6524 9.91395C13.8047 11.9605 13.5829 14.2124 14.015 16.385C14.4472 18.5576 15.5139 20.5532 17.0802 22.1196C18.6466 23.6859 20.6422 24.7526 22.8148 25.1848C24.9874 25.6169 27.2393 25.3952 29.2859 24.5475C31.3324 23.6997 33.0816 22.2642 34.3123 20.4224C35.5429 18.5806 36.1998 16.4152 36.1998 14.2C36.1998 11.2296 35.0198 8.38081 32.9194 6.2804C30.819 4.18 27.9702 3 24.9998 3V3Z" fill="#7961FF"/>
</svg>
