<svg width="50" height="50" viewBox="0 0 50 50" fill="none" xmlns="http://www.w3.org/2000/svg">
<rect width="50" height="50" fill="white"/>
<path d="M15.5932 14.55C15.2434 14.55 14.908 14.6889 14.6607 14.9362C14.4134 15.1835 14.2744 15.519 14.2744 15.8687C14.2744 16.2185 14.4134 16.5539 14.6607 16.8012C14.908 17.0485 15.2434 17.1875 15.5932 17.1875H34.0556C34.4054 17.1875 34.7408 17.0485 34.9881 16.8012C35.2354 16.5539 35.3744 16.2185 35.3744 15.8687C35.3744 15.519 35.2354 15.1835 34.9881 14.9362C34.7408 14.6889 34.4054 14.55 34.0556 14.55H15.5932Z" fill="#7961FF"/>
<path d="M14.2744 21.1438C14.2744 20.794 14.4134 20.4586 14.6607 20.2113C14.908 19.964 15.2434 19.825 15.5932 19.825H34.0556C34.4054 19.825 34.7408 19.964 34.9881 20.2113C35.2354 20.4586 35.3744 20.794 35.3744 21.1438C35.3744 21.4935 35.2354 21.8289 34.9881 22.0763C34.7408 22.3236 34.4054 22.4625 34.0556 22.4625H15.5932C15.2434 22.4625 14.908 22.3236 14.6607 22.0763C14.4134 21.8289 14.2744 21.4935 14.2744 21.1438Z" fill="#7961FF"/>
<path d="M15.5932 25.0999C15.2434 25.0999 14.908 25.2389 14.6607 25.4862C14.4134 25.7335 14.2744 26.0689 14.2744 26.4187C14.2744 26.7684 14.4134 27.1038 14.6607 27.3512C14.908 27.5985 15.2434 27.7374 15.5932 27.7374H26.1431C26.4929 27.7374 26.8283 27.5985 27.0756 27.3512C27.323 27.1038 27.4619 26.7684 27.4619 26.4187C27.4619 26.0689 27.323 25.7335 27.0756 25.4862C26.8283 25.2389 26.4929 25.0999 26.1431 25.0999H15.5932Z" fill="#7961FF"/>
<path d="M10 7.95625C10 7.1722 10.3115 6.42027 10.8659 5.86586C11.4203 5.31146 12.1722 5 12.9562 5H36.6937C37.4778 5 38.2297 5.31146 38.7841 5.86586C39.3385 6.42027 39.65 7.1722 39.65 7.95625V42.2437C39.65 43.0278 39.3385 43.7797 38.7841 44.3341C38.2297 44.8885 37.4778 45.2 36.6937 45.2H12.9562C12.1722 45.2 11.4203 44.8885 10.8659 44.3341C10.3115 43.7797 10 43.0278 10 42.2437V7.95625ZM12.9562 5.6375C12.3413 5.6375 11.7515 5.88179 11.3166 6.31664C10.8818 6.75149 10.6375 7.34127 10.6375 7.95625V42.2437C10.6375 42.8587 10.8818 43.4485 11.3166 43.8833C11.7515 44.3182 12.3413 44.5625 12.9562 44.5625H36.6937C37.3087 44.5625 37.8985 44.3182 38.3333 43.8833C38.7682 43.4485 39.0125 42.8587 39.0125 42.2437V7.95625C39.0125 7.34128 38.7682 6.75149 38.3333 6.31664C37.8985 5.88179 37.3087 5.6375 36.6937 5.6375H12.9562Z" fill="#7961FF" stroke="#7961FF" stroke-width="2"/>
</svg>
