<svg width="50" height="50" viewBox="0 0 50 50" fill="none" xmlns="http://www.w3.org/2000/svg">
<rect width="50" height="50" fill="white"/>
<path d="M29.0746 27.2396L45.0335 36.8822C44.8707 37.4536 44.5278 37.9577 44.0554 38.3191C43.573 38.6881 42.9824 38.8879 42.375 38.8875H8.625C8.01725 38.8877 7.42641 38.6876 6.94397 38.318C6.47147 37.956 6.12878 37.4514 5.96642 36.8794L21.9226 27.2396L25.4743 29.3701L25.5 29.3855L25.5257 29.3701L29.0746 27.2396ZM4.61217 9.61217C3.5479 10.6764 2.95 12.1199 2.95 13.625V36.125C2.95 37.6301 3.5479 39.0736 4.61217 40.1378C5.67644 41.2021 7.1199 41.8 8.625 41.8H42.375C43.8801 41.8 45.3236 41.2021 46.3878 40.1378C47.4521 39.0736 48.05 37.6301 48.05 36.125V13.625C48.05 12.1199 47.4521 10.6764 46.3878 9.61217C45.3236 8.5479 43.8801 7.95 42.375 7.95H8.625C7.1199 7.95 5.67644 8.5479 4.61217 9.61217ZM6.67162 11.6716C7.18969 11.1535 7.89234 10.8625 8.625 10.8625H42.375C43.1077 10.8625 43.8103 11.1535 44.3284 11.6716C44.8465 12.1897 45.1375 12.8923 45.1375 13.625V14.207L25.5 25.9895L5.8625 14.207V13.625C5.8625 12.8923 6.15355 12.1897 6.67162 11.6716ZM45.1375 33.5445L31.9025 25.5445L45.1375 17.603V33.5445ZM5.8625 17.603L19.0975 25.5445L5.8625 33.5445V17.603Z" fill="#7961FF" stroke="#7961FF" stroke-width="0.1"/>
</svg>
