<svg width="50" height="50" viewBox="0 0 50 50" fill="none" xmlns="http://www.w3.org/2000/svg">
<rect width="50" height="50" fill="white"/>
<path d="M24.9986 22.8603C24.9986 23.4424 25.2256 24.0006 25.6296 24.4121C26.0337 24.8237 26.5817 25.0549 27.1531 25.0549C27.7245 25.0549 28.2724 24.8237 28.6765 24.4121C29.0805 24.0006 29.3075 23.4424 29.3075 22.8603C29.3075 22.2783 29.0805 21.7201 28.6765 21.3086C28.2724 20.897 27.7245 20.6658 27.1531 20.6658C26.5817 20.6658 26.0337 20.897 25.6296 21.3086C25.2256 21.7201 24.9986 22.2783 24.9986 22.8603ZM44.7656 42.2214L34.9252 16.2768V6.73067H38.7871V3H11.2102V6.73067H15.072V16.2768L5.2316 42.2214C5.08079 42.6274 5 43.0554 5 43.4888C5 45.4254 6.54581 47 8.44711 47H41.5501C41.9756 47 42.3957 46.9177 42.7943 46.7641C44.5717 46.0673 45.4551 44.0319 44.7656 42.2214ZM18.7346 16.9736V6.8404H31.2627V16.9736L36.1586 29.8828C35.0437 29.592 33.8911 29.4439 32.7169 29.4439C29.4206 29.4439 26.2967 30.6234 23.8137 32.7357C21.9811 34.295 19.6682 35.1476 17.2803 35.1441C15.5191 35.1441 13.8278 34.6888 12.3359 33.8439L18.7346 16.9736ZM8.7595 43.2693L11.0055 37.3551C12.9284 38.3481 15.0666 38.8803 17.2857 38.8803C20.582 38.8803 23.706 37.7007 26.1889 35.5885C28.0148 34.0414 30.2985 33.18 32.7223 33.18C34.6074 33.18 36.4064 33.7012 37.9791 34.6668L41.2377 43.2693H8.7595Z" fill="#7961FF"/>
</svg>
