<svg width="50" height="50" viewBox="0 0 50 50" fill="none" xmlns="http://www.w3.org/2000/svg">
<rect width="50" height="50" fill="white"/>
<path d="M26.418 5.32021C26.1518 5.1127 25.824 5 25.4865 5C25.149 5 24.8212 5.1127 24.555 5.32021L3 22.1281L4.8645 24.4861L7.5 22.4311V40.9999C7.50159 41.7951 7.81817 42.5573 8.38043 43.1196C8.9427 43.6818 9.70484 43.9984 10.5 44H40.5C41.2952 43.9984 42.0573 43.6818 42.6196 43.1196C43.1818 42.5573 43.4984 41.7951 43.5 40.9999V22.4446L46.1355 24.4996L48 22.1416L26.418 5.32021ZM28.5 40.9999H22.5V28.9997H28.5V40.9999ZM31.5 40.9999V28.9997C31.4992 28.2043 31.1829 27.4417 30.6204 26.8792C30.058 26.3168 29.2954 26.0004 28.5 25.9996H22.5C21.7046 26.0004 20.942 26.3168 20.3796 26.8792C19.8171 27.4417 19.5008 28.2043 19.5 28.9997V40.9999H10.5V20.0925L25.5 8.40728L40.5 20.1075V40.9999H31.5Z" fill="#7961FF"/>
</svg>
