<svg width="66" height="32" viewBox="0 0 66 32" fill="none" xmlns="http://www.w3.org/2000/svg">
<path d="M64.3 0.0300026H64.06H60.4301H60.29H55.14H17.45C16.9885 0.0299728 16.5335 0.138578 16.1218 0.34705C15.71 0.555522 15.3532 0.857987 15.08 1.22998L1.30006 13.56C-0.479942 15.33 -0.319942 17.3 1.30006 18.95L15.09 30.69C15.3685 31.0486 15.7246 31.3392 16.1317 31.5402C16.5387 31.7411 16.9861 31.8471 17.44 31.85H64.44C64.8923 31.7785 65.304 31.5477 65.6011 31.1993C65.8981 30.8509 66.0609 30.4078 66.06 29.95V1.94999C66.0617 1.46732 65.8816 1.00174 65.5554 0.645939C65.2292 0.290135 64.781 0.0702224 64.3 0.0300026V0.0300026ZM6.68006 18.67C6.00641 18.67 5.36032 18.4024 4.88398 17.9261C4.40764 17.4497 4.14002 16.8037 4.14002 16.13C4.14002 15.4564 4.40764 14.8103 4.88398 14.334C5.36032 13.8576 6.00641 13.59 6.68006 13.59C7.35371 13.59 7.99974 13.8576 8.47608 14.334C8.95243 14.8103 9.22004 15.4564 9.22004 16.13C9.22004 16.8037 8.95243 17.4497 8.47608 17.9261C7.99974 18.4024 7.35371 18.67 6.68006 18.67Z" fill="#FF8300"/>
<path d="M7 19C8.65685 19 10 17.6569 10 16C10 14.3431 8.65685 13 7 13C5.34315 13 4 14.3431 4 16C4 17.6569 5.34315 19 7 19Z" fill="white"/>
</svg>
