<svg width="32" height="38" viewBox="0 0 32 38" fill="none" xmlns="http://www.w3.org/2000/svg">
<g clip-path="url(#clip0)">
<path d="M4.96138 6.10954L7.66595 5.98595C8.51573 5.947 9.30293 6.17954 9.30293 8.12387V22.4678C9.30293 24.4125 8.51573 24.7168 7.66595 24.7557L4.96138 24.8793V6.10954ZM7.73957 1.1071L0.440055 1.44068C0.196867 1.45181 0 1.66999 0 1.9283V29.5139C0 29.7722 0.196867 29.9722 0.440055 29.9611L7.73957 29.6278C12.0083 29.4328 14.2643 26.8102 14.2643 22.0441V8.09312C14.2643 3.32761 12.0083 0.912056 7.73957 1.1071Z" fill="#2F3042"/>
<path d="M21.7268 7.13147C21.7268 5.16083 22.6884 4.86374 23.5264 4.82482C24.3641 4.7859 25.3265 4.99357 25.3265 6.96421V21.825C25.3265 23.7959 24.3641 24.093 23.5264 24.1319C22.6884 24.1708 21.7268 23.9632 21.7268 21.9925V7.13147ZM23.5264 0.0121552C18.9939 0.222796 16.3945 3.00748 16.3945 7.65169V21.9676C16.3945 26.6124 18.9939 29.1555 23.5264 28.9446C28.0586 28.7339 30.6588 25.9493 30.6588 21.3042V6.98857C30.6588 2.34406 28.0586 -0.198783 23.5264 0.0121552Z" fill="#2F3042"/>
<mask id="mask0" mask-type="alpha" maskUnits="userSpaceOnUse" x="0" y="31" width="32" height="7">
<path d="M0 31.1058H31.7609V37.9938H0V31.1058Z" fill="white"/>
</mask>
<g mask="url(#mask0)">
<path d="M0.450435 32.6225C0.201354 32.6348 0 32.8751 0 33.1597V37.5004C0 37.7853 0.201354 38.0056 0.450435 37.9934L31.3105 36.4771C31.5593 36.4645 31.7609 36.2242 31.7609 35.94V31.5989C31.7609 31.3143 31.5593 31.094 31.3105 31.1062L22.7985 31.5244L0.450435 32.6225Z" fill="#2F3042"/>
</g>
</g>
<defs>
<clipPath id="clip0">
<rect width="31.7705" height="38" fill="white"/>
</clipPath>
</defs>
</svg>
