<svg width="50" height="50" viewBox="0 0 50 50" fill="none" xmlns="http://www.w3.org/2000/svg">
<rect width="50" height="50" fill="white"/>
<path d="M3.977 15.0029L3.86546 12.5769C3.86546 11.0978 4.45302 9.67932 5.4989 8.63344C6.54478 7.58757 7.96329 7 9.44238 7H19.6816C21.1606 7.00032 22.5789 7.58809 23.6245 8.63404L25.9333 10.9429C26.979 11.9888 28.3973 12.5766 29.8762 12.5769H40.9799C41.7548 12.5768 42.5213 12.7383 43.2304 13.0509C43.9395 13.3636 44.5757 13.8206 45.0983 14.3928C45.6209 14.965 46.0186 15.6399 46.2659 16.3744C46.5131 17.1088 46.6046 17.8868 46.5345 18.6586L44.7582 38.1778C44.6323 39.5634 43.993 40.8519 42.9658 41.7904C41.9386 42.7288 40.5978 43.2494 39.2064 43.25H10.3514C8.96008 43.2494 7.6192 42.7288 6.59201 41.7904C5.56481 40.8519 4.92551 39.5634 4.79959 38.1778L3.02334 18.6586C2.90451 17.3669 3.24194 16.0744 3.977 15.0057V15.0029ZM8.57796 15.3654C8.1906 15.3654 7.80749 15.446 7.45304 15.6023C7.09859 15.7585 6.78059 15.9869 6.51929 16.2729C6.258 16.5588 6.05915 16.8961 5.93542 17.2631C5.81168 17.6302 5.76579 18.019 5.80065 18.4048L7.5769 37.924C7.63951 38.6169 7.95882 39.2613 8.47215 39.7307C8.98549 40.2002 9.65577 40.4609 10.3514 40.4615H39.2064C39.9021 40.4609 40.5723 40.2002 41.0857 39.7307C41.599 39.2613 41.9183 38.6169 41.9809 37.924L43.7572 18.4048C43.792 18.019 43.7462 17.6302 43.6224 17.2631C43.4987 16.8961 43.2998 16.5588 43.0385 16.2729C42.7772 15.9869 42.4592 15.7585 42.1048 15.6023C41.7503 15.446 41.3672 15.3654 40.9799 15.3654H8.57796ZM21.6558 10.6055C21.3966 10.3462 21.0888 10.1406 20.7501 10.0004C20.4113 9.86019 20.0482 9.78817 19.6816 9.78846H9.44238C8.71192 9.78833 8.01058 10.0748 7.48914 10.5864C6.9677 11.0979 6.6678 11.7936 6.65392 12.5239L6.67065 12.9115C7.26738 12.694 7.90873 12.5769 8.57796 12.5769H23.6245L21.6531 10.6055H21.6558Z" fill="#7961FF"/>
</svg>
