<svg width="19" height="20" viewBox="0 0 19 20" fill="none" xmlns="http://www.w3.org/2000/svg">
<path d="M16.6553 16.2714L11.9 11.5161C12.6379 10.5621 13.0371 9.39575 13.0371 8.16894C13.0371 6.70044 12.464 5.32349 11.4276 4.28528C10.3912 3.24707 9.01062 2.67578 7.54394 2.67578C6.07727 2.67578 4.69665 3.2489 3.66028 4.28528C2.62207 5.32165 2.05078 6.70044 2.05078 8.16894C2.05078 9.63562 2.6239 11.0162 3.66028 12.0526C4.69665 13.0908 6.07544 13.6621 7.54394 13.6621C8.77075 13.6621 9.9353 13.2629 10.8893 12.5269L15.6445 17.2803C15.6585 17.2942 15.675 17.3053 15.6933 17.3128C15.7115 17.3204 15.731 17.3243 15.7507 17.3243C15.7705 17.3243 15.79 17.3204 15.8082 17.3128C15.8264 17.3053 15.843 17.2942 15.8569 17.2803L16.6553 16.4838C16.6692 16.4698 16.6803 16.4533 16.6878 16.435C16.6954 16.4168 16.6993 16.3973 16.6993 16.3776C16.6993 16.3578 16.6954 16.3383 16.6878 16.3201C16.6803 16.3019 16.6692 16.2853 16.6553 16.2714ZM10.4443 11.0693C9.66797 11.8439 8.63892 12.2705 7.54394 12.2705C6.44897 12.2705 5.41992 11.8439 4.64355 11.0693C3.86902 10.293 3.44238 9.26392 3.44238 8.16894C3.44238 7.07397 3.86902 6.04309 4.64355 5.26855C5.41992 4.49402 6.44897 4.06738 7.54394 4.06738C8.63892 4.06738 9.6698 4.49219 10.4443 5.26855C11.2189 6.04492 11.6455 7.07397 11.6455 8.16894C11.6455 9.26392 11.2189 10.2948 10.4443 11.0693Z" fill="#A6A6A6"/>
</svg>
