<svg width="100" height="100" viewBox="0 0 100 100" fill="none" xmlns="http://www.w3.org/2000/svg">
<rect width="100" height="100" fill="url(#paint0_linear)"/>
<path d="M35.9758 53.794L16.4548 47.3453L11 49.0355L23.7106 60.5314" fill="#535353" fill-opacity="0.999"/>
<path d="M58.8258 42.7537L75.5867 37.0537C75.5867 37.0537 92.1814 36.7724 88.2841 41.055C84.3866 45.3377 57.0307 56.0469 48.9462 59.0645C40.8616 62.0823 30.8618 63.6744 23.9471 63.8084C17.8948 63.9256 24.6718 60.2544 24.6718 60.2544C24.6718 60.2544 32.3616 55.8906 35.7656 54.4072L39.0043 52.0115" fill="#838383"/>
<path d="M64.3108 48.4774L34.0649 45.0503L31.491 46.8861L52.8915 54.522" fill="#535353" fill-opacity="0.999"/>
<path d="M31.0267 53.0387L15.7447 47.6259L11.9744 48.9444L22.0161 57.9458" stroke="white" stroke-width="1.5597" stroke-miterlimit="10" stroke-linecap="round" stroke-linejoin="round"/>
<path d="M64.3108 47.5731L34.0649 45.0503L31.491 46.8861L52.0869 54.235" stroke="white" stroke-width="1.5597" stroke-miterlimit="10" stroke-linecap="round" stroke-linejoin="round"/>
<path d="M59.5453 43.4305L73.2505 37.9157C74.8812 37.2595 76.6228 36.9521 78.3797 37.006C82.9273 37.1457 91.1513 37.8262 88.2841 40.977C84.3866 45.2595 57.0308 55.9688 48.9462 58.9865C40.8616 62.0041 30.8618 63.5964 23.9471 63.7302C17.8948 63.8474 24.6719 60.1762 24.6719 60.1762C24.6719 60.1762 32.3616 55.8124 35.7656 54.329L39.188 52.8377" stroke="white" stroke-width="1.5597" stroke-miterlimit="10" stroke-linecap="round" stroke-linejoin="round"/>
<defs>
<linearGradient id="paint0_linear" x1="98" y1="18.5" x2="-3.5" y2="90" gradientUnits="userSpaceOnUse">
<stop stop-color="#000D7E"/>
<stop offset="1" stop-color="#000747"/>
</linearGradient>
</defs>
</svg>
