<svg width="360" height="100" viewBox="0 0 360 100" fill="none" xmlns="http://www.w3.org/2000/svg">
<path d="M22 50.5C22 27.5802 40.5802 9 63.5 9V9C86.4198 9 105 27.5802 105 50.5V50.5C105 73.4198 86.4198 92 63.5 92V92C40.5802 92 22 73.4198 22 50.5V50.5Z" fill="url(#paint0_linear)"/>
<path d="M51.8599 53.649L35.6575 48.2966L31.13 49.6995L41.6798 59.241" fill="#535353" fill-opacity="0.999"/>
<path d="M70.8254 44.4856L84.737 39.7546C84.737 39.7546 98.5105 39.5211 95.2758 43.0757C92.0409 46.6303 69.3355 55.5189 62.6253 58.0236C55.9151 60.5283 47.6153 61.8498 41.8761 61.961C36.8527 62.0582 42.4776 59.0112 42.4776 59.0112C42.4776 59.0112 48.8601 55.3892 51.6855 54.158L54.3736 52.1696" fill="#838383"/>
<path d="M75.378 49.2363L50.2738 46.3918L48.1375 47.9154L65.9 54.2533" fill="#535353" fill-opacity="0.999"/>
<path d="M47.7521 53.0221L35.0682 48.5295L31.9388 49.6239L40.2734 57.095" stroke="white" stroke-width="1.5597" stroke-miterlimit="10" stroke-linecap="round" stroke-linejoin="round"/>
<path d="M75.378 48.4857L50.2739 46.3918L48.1375 47.9154L65.2321 54.015" stroke="white" stroke-width="1.5597" stroke-miterlimit="10" stroke-linecap="round" stroke-linejoin="round"/>
<path d="M71.4226 45.0474L82.7979 40.47C84.1514 39.9254 85.5969 39.6702 87.0552 39.715C90.8297 39.8309 97.6556 40.3957 95.2758 43.0109C92.0409 46.5654 69.3356 55.4541 62.6253 57.9588C55.9151 60.4634 47.6153 61.785 41.8761 61.8961C36.8527 61.9933 42.4777 58.9463 42.4777 58.9463C42.4777 58.9463 48.8602 55.3243 51.6855 54.0931L54.526 52.8553" stroke="white" stroke-width="1.5597" stroke-miterlimit="10" stroke-linecap="round" stroke-linejoin="round"/>
<path d="M183.047 24.8438C182.408 18.5795 177.741 15 171.413 15C164.433 15 159 19.794 159 28.4489C159 37.0653 164.305 41.8977 171.413 41.8977C178.598 41.8977 182.574 37.0142 183.047 32.3736L176.655 32.3352C176.207 34.8537 174.315 36.3494 171.541 36.3494C167.808 36.3494 165.456 33.652 165.456 28.4489C165.456 23.4503 167.757 20.5483 171.58 20.5483C174.456 20.5483 176.335 22.223 176.655 24.8438H183.047Z" fill="white"/>
<path d="M211.38 28.4489C211.38 19.794 205.908 15 198.877 15C191.82 15 186.387 19.794 186.387 28.4489C186.387 37.0653 191.82 41.8977 198.877 41.8977C205.908 41.8977 211.38 37.1037 211.38 28.4489ZM204.911 28.4489C204.911 33.5753 202.661 36.3494 198.877 36.3494C195.105 36.3494 192.843 33.5753 192.843 28.4489C192.843 23.3224 195.105 20.5483 198.877 20.5483C202.661 20.5483 204.911 23.3224 204.911 28.4489Z" fill="white"/>
<path d="M230.914 15.358V31.696C230.914 34.419 228.983 36.375 226.158 36.375C223.32 36.375 221.402 34.419 221.402 31.696V15.358H215.074V32.2457C215.074 38.1009 219.498 41.8722 226.158 41.8722C232.767 41.8722 237.229 38.1009 237.229 32.2457V15.358H230.914Z" fill="white"/>
<path d="M263.478 15.358H257.163V30.4432H256.945L246.641 15.358H241.195V41.5398H247.523V26.429H247.69L258.109 41.5398H263.478V15.358Z" fill="white"/>
<path d="M266.6 20.4972H274.552V41.5398H280.791V20.4972H288.73V15.358H266.6V20.4972Z" fill="white"/>
<path d="M291.82 41.5398H298.148V32.5781H301.396L306.177 41.5398H313.08L307.647 31.5682C310.523 30.2642 312.185 27.6946 312.185 24.0767C312.185 18.6946 308.516 15.358 302.636 15.358H291.82V41.5398ZM298.148 27.5923V20.4588H301.268C304.106 20.4588 305.627 21.6477 305.627 24.0767C305.627 26.5057 304.106 27.5923 301.268 27.5923H298.148Z" fill="white"/>
<path d="M313.192 15.358L322.767 32.7955V41.5398H329.057V32.7955L338.632 15.358H331.563L326.027 26.3139H325.797L320.262 15.358H313.192Z" fill="white"/>
<path d="M176.463 67.9105H182.868C182.229 62.6946 177.575 59 171.516 59C164.523 59 159 63.9219 159 72.4872C159 80.7713 164.088 85.8977 171.592 85.8977C178.33 85.8977 183.149 81.7173 183.149 74.6861V71.2216H171.861V75.8366H177.051C176.987 78.598 175.07 80.3494 171.643 80.3494C167.719 80.3494 165.456 77.4474 165.456 72.4105C165.456 67.4119 167.847 64.5483 171.643 64.5483C174.175 64.5483 175.901 65.7884 176.463 67.9105Z" fill="white"/>
<path d="M191.734 85.5398L193.46 80.0426H202.498L204.224 85.5398H211.025L202.191 59.358H193.766L184.933 85.5398H191.734ZM194.968 75.2358L197.87 65.9545H198.075L200.989 75.2358H194.968Z" fill="white"/>
<path d="M213.844 59.358V85.5398H220.006V69.3679H220.223L226.513 85.3736H230.45L236.74 69.4574H236.957V85.5398H243.119V59.358H235.283L228.635 75.5682H228.328L221.68 59.358H213.844Z" fill="white"/>
<path d="M247.066 85.5398H265.322V80.4006H253.395V75.0185H264.389V69.8665H253.395V64.4972H265.322V59.358H247.066V85.5398Z" fill="white"/>
<path d="M318.683 85.0795H338.064V79.9787H327.453V79.8125L330.585 76.9233C336.261 71.9759 337.744 69.4574 337.744 66.4531C337.744 61.7358 333.896 58.5398 327.952 58.5398C322.161 58.5398 318.287 61.8764 318.3 67.2074H324.295C324.295 64.8423 325.753 63.4744 327.926 63.4744C330.061 63.4744 331.608 64.7912 331.608 66.9517C331.608 68.9077 330.381 70.2372 328.233 72.1676L318.683 80.5284V85.0795Z" fill="white"/>
<defs>
<linearGradient id="paint0_linear" x1="103.34" y1="24.355" x2="19.095" y2="83.7" gradientUnits="userSpaceOnUse">
<stop stop-color="#000D7E"/>
<stop offset="1" stop-color="#000747"/>
</linearGradient>
</defs>
</svg>
