<svg width="100" height="100" viewBox="0 0 100 100" fill="none" xmlns="http://www.w3.org/2000/svg">
<path d="M74.7812 92H25.2188C22.0734 92 19.5 89.4227 19.5 86.2727V13.7273C19.5 10.5773 22.0734 8 25.2188 8H59.5312L80.5 29V86.2727C80.5 89.4227 77.9266 92 74.7812 92Z" fill="#34A853"/>
<path d="M59.5312 8L80.5 29H59.5312V8Z" fill="#188038"/>
<path d="M30.9375 40.9318V67.6591H69.0625V40.9318H30.9375ZM35.7031 45.7045H47.6172V51.9091H35.7031V45.7045ZM35.7031 56.6818H47.6172V62.8864H35.7031V56.6818ZM64.2969 62.8864H52.3828V56.6818H64.2969V62.8864ZM64.2969 51.9091H52.3828V45.7045H64.2969V51.9091Z" fill="#FDFFFF"/>
</svg>
