<svg width="52" height="52" viewBox="0 0 52 52" fill="none" xmlns="http://www.w3.org/2000/svg">
<g clip-path="url(#clip0)">
<path d="M10.302 39.6842C10.3028 38.8758 10.7805 38.1442 11.5203 37.8181V36.748H9.40649V50.6261H11.5203V41.5503C10.7805 41.2241 10.3028 40.4926 10.302 39.6842V39.6842Z" fill="#D4E1F4"/>
<path d="M8.77233 51.8944H43.3924C43.7429 51.8944 44.0266 51.6104 44.0266 51.2603V36.1138C44.0266 35.7637 43.7429 35.4797 43.3924 35.4797H37.2388L29.3693 25.7453L28.383 26.543L35.608 35.4792H16.5671L23.811 26.5434L22.8256 25.7449L14.9342 35.4788H8.77233C8.42223 35.4788 8.13818 35.7629 8.13818 36.113V51.2603C8.13818 51.6104 8.42223 51.8944 8.77233 51.8944V51.8944ZM9.40648 36.7479H13.9062L13.0698 37.7797C12.1309 37.4201 11.0699 37.7962 10.5674 38.6669C10.0646 39.5376 10.2698 40.6449 11.0509 41.2778C11.8316 41.9107 12.957 41.8822 13.7051 41.2101C14.4528 40.5384 14.601 39.4224 14.0552 38.5786L15.5391 36.7479H36.6331L38.1112 38.5765C37.5608 39.422 37.7074 40.5421 38.4567 41.2179C39.2056 41.8934 40.3352 41.9239 41.1196 41.2898C41.9041 40.6561 42.1113 39.5455 41.6076 38.671C41.1044 37.797 40.0396 37.4188 39.0975 37.7793L38.2643 36.7484H42.7583V50.6261H9.40648V36.7479ZM13.1148 39.6842C13.1148 40.1107 12.7692 40.4566 12.3423 40.4566C11.9158 40.4566 11.5698 40.1107 11.5698 39.6842C11.5698 39.2573 11.9158 38.9117 12.3427 38.9117C12.7688 38.9121 13.1143 39.2577 13.1148 39.6842ZM39.8224 38.9117C40.2489 38.9117 40.5945 39.2573 40.5945 39.6842C40.5945 40.1107 40.2489 40.4562 39.8224 40.4562C39.3956 40.4562 39.05 40.1107 39.05 39.6842C39.0504 39.2577 39.396 38.9121 39.8224 38.9117Z" fill="#6979F8"/>
<path d="M19.5999 42.345C19.8361 42.345 20.0727 42.2484 20.0727 42.0544V40.5941H20.4723L21.3026 42.2059C21.3599 42.319 21.4784 42.388 21.6056 42.3822C21.8843 42.3822 22.1993 42.1275 22.1993 41.8913C22.1997 41.8529 22.1894 41.8149 22.1691 41.7823L21.4297 40.443C21.8541 40.2795 22.163 39.8918 22.163 39.2131C22.163 38.2256 21.5024 37.9167 20.6725 37.9167H19.4183C19.3415 37.9143 19.2668 37.9432 19.2118 37.9968C19.1574 38.0509 19.1264 38.1244 19.1272 38.2012V42.0544C19.1272 42.2484 19.3638 42.345 19.5999 42.345V42.345ZM20.0727 38.74H20.6725C21.0115 38.74 21.2175 38.8795 21.2175 39.3035C21.2175 39.7279 21.0115 39.8671 20.6725 39.8671H20.0727V38.74Z" fill="#6979F8"/>
<path d="M23.0774 42.3451H25.2345C25.4344 42.3451 25.5194 42.1333 25.5194 41.9392C25.5194 41.715 25.4162 41.5214 25.2345 41.5214H23.6108V40.4913H24.5195C24.7197 40.4913 24.8044 40.2973 24.8044 40.1338C24.8044 39.9398 24.7015 39.7639 24.5195 39.7639H23.6108V38.74H25.2345C25.4162 38.74 25.5194 38.5459 25.5194 38.3218C25.5194 38.1277 25.4348 37.9159 25.2345 37.9159H23.0774C22.8714 37.9159 22.6653 38.0129 22.6653 38.2066V42.054C22.6653 42.2485 22.8714 42.3451 23.0774 42.3451V42.3451Z" fill="#6979F8"/>
<path d="M26.2341 42.345C26.3856 42.345 26.5066 42.2967 26.5429 42.1696L26.7489 41.412H28.0272L28.2332 42.1696C28.2695 42.2963 28.3909 42.345 28.542 42.345C28.8025 42.345 29.1481 42.1815 29.1481 41.9574C29.1464 41.9347 29.1423 41.9124 29.1361 41.8909L28.0028 38.195C27.9363 37.9828 27.6638 37.8796 27.3848 37.8796C27.1061 37.8796 26.8336 37.9828 26.7671 38.195L25.64 41.8909C25.6334 41.9124 25.6293 41.9347 25.6276 41.9574C25.628 42.1811 25.9736 42.345 26.2341 42.345ZM27.3852 39.0612L27.8273 40.6849H26.943L27.3852 39.0612Z" fill="#6979F8"/>
<path d="M29.9114 42.3451H31.8263C32.0079 42.3451 32.0988 42.139 32.0988 41.933C32.0988 41.727 32.0079 41.521 31.8263 41.521H30.4444V38.2008C30.4444 38.001 30.2083 37.9159 29.9721 37.9159C29.736 37.9159 29.4994 38.0006 29.4994 38.2008V42.0544C29.4994 42.2485 29.7054 42.3451 29.9114 42.3451Z" fill="#6979F8"/>
<path d="M19.4125 45.2313C19.5941 45.2313 19.6969 45.0377 19.6969 44.8135C19.6969 44.6195 19.6127 44.4073 19.4125 44.4073H17.2553C17.0493 44.4073 16.8433 44.5043 16.8433 44.6983V48.5453C16.8433 48.7394 17.0489 48.8364 17.2553 48.8364H19.4125C19.6123 48.8364 19.6969 48.6242 19.6969 48.4305C19.6969 48.2064 19.5941 48.0123 19.4125 48.0123H17.7883V46.9822H18.6974C18.8972 46.9822 18.9823 46.7882 18.9823 46.6247C18.9823 46.4311 18.8791 46.2548 18.6974 46.2548H17.7883V45.2309L19.4125 45.2313Z" fill="#6979F8"/>
<path d="M20.9508 45.5344C20.9508 45.3465 21.1267 45.171 21.5569 45.171C22.0535 45.171 22.1687 45.401 22.3871 45.401C22.6534 45.401 22.7628 45.0678 22.7628 44.9043C22.7628 44.4316 21.8781 44.3713 21.5569 44.3713C20.7997 44.3713 20.0058 44.7165 20.0058 45.6256C20.0058 47.0433 21.9264 46.9158 21.9264 47.649C21.9264 47.9401 21.6176 48.0491 21.3389 48.0491C20.7753 48.0491 20.5933 47.6007 20.3088 47.6007C20.0784 47.6007 19.8964 47.9033 19.8964 48.1093C19.8964 48.5094 20.5631 48.8971 21.3566 48.8971C22.2352 48.8971 22.8714 48.4248 22.8714 47.552C22.8718 46.0252 20.9508 46.1404 20.9508 45.5344V45.5344Z" fill="#6979F8"/>
<path d="M26.246 44.8255C26.246 44.6257 26.1618 44.4073 25.9608 44.4073H23.3441C23.1438 44.4073 23.0592 44.6257 23.0592 44.8255C23.0592 45.0559 23.162 45.2557 23.3441 45.2557H24.1801V48.5457C24.1801 48.7394 24.4163 48.8364 24.6524 48.8364C24.889 48.8364 25.1251 48.7394 25.1251 48.5457V45.2557H25.9612C26.1432 45.2557 26.246 45.0563 26.246 44.8255Z" fill="#6979F8"/>
<path d="M28.3124 44.6864C28.246 44.4742 27.9731 44.3709 27.6944 44.3709C27.4157 44.3709 27.1432 44.4742 27.0763 44.6864L25.9496 48.3822C25.943 48.4037 25.9389 48.426 25.9373 48.4487C25.9373 48.6729 26.2828 48.8364 26.5433 48.8364C26.6948 48.8364 26.8158 48.7881 26.8521 48.6609L27.0582 47.9033H28.3372L28.5432 48.6609C28.5795 48.7877 28.7005 48.8364 28.852 48.8364C29.1125 48.8364 29.4581 48.6729 29.4581 48.4487C29.4565 48.426 29.4523 48.4037 29.4457 48.3822L28.3124 44.6864ZM27.2522 47.1763L27.694 45.5529L28.1365 47.1767L27.2522 47.1763Z" fill="#6979F8"/>
<path d="M32.0504 44.4073H29.4329C29.2331 44.4073 29.148 44.6257 29.148 44.8255C29.148 45.0559 29.2508 45.2557 29.4329 45.2557H30.2689V48.5457C30.2689 48.7394 30.5051 48.8364 30.7416 48.8364C30.9778 48.8364 31.2143 48.7394 31.2143 48.5457V45.2557H32.0504C32.232 45.2557 32.3353 45.0559 32.3353 44.8255C32.3353 44.6257 32.2502 44.4073 32.0504 44.4073Z" fill="#6979F8"/>
<path d="M35.2794 45.2313C35.461 45.2313 35.5642 45.0377 35.5642 44.8135C35.5642 44.6195 35.4796 44.4073 35.2794 44.4073H33.1226C32.9166 44.4073 32.7101 44.5043 32.7101 44.6983V48.5453C32.7101 48.7394 32.9166 48.8364 33.1226 48.8364H35.2794C35.4796 48.8364 35.5642 48.6242 35.5642 48.4305C35.5642 48.2064 35.461 48.0123 35.2794 48.0123H33.6556V46.9822H34.5647C34.7645 46.9822 34.8492 46.7882 34.8492 46.6247C34.8492 46.4311 34.7464 46.2548 34.5647 46.2548H33.6556V45.2309L35.2794 45.2313Z" fill="#6979F8"/>
<path d="M22.6839 22.4887V26.1441C22.6839 26.4947 22.968 26.7783 23.3181 26.7783H28.8764C29.2265 26.7783 29.5105 26.4947 29.5105 26.1441V22.4487L37.4118 11.7235L37.4097 11.7218C37.4906 11.6137 37.5348 11.4824 37.5352 11.3474C37.5352 5.022 32.4075 -0.105682 26.0826 -0.105682C19.7572 -0.105682 14.6295 5.022 14.6295 11.3474C14.6299 11.4824 14.6741 11.6137 14.755 11.7218L14.753 11.7235L22.6839 22.4887ZM28.5263 21.6465H28.3578L32.0847 11.8399C32.1123 11.7681 32.1268 11.6921 32.1268 11.6149C32.1218 11.0724 32.3398 10.5514 32.73 10.1744C32.739 10.1658 32.7481 10.1567 32.7568 10.1472C33.1341 9.75746 33.6552 9.53947 34.1973 9.54484C34.7455 9.54525 35.2703 9.76778 35.6513 10.1616L35.665 10.1749C35.8668 10.3652 36.0745 10.8358 36.2041 11.226L28.5263 21.6465ZM27.0008 21.6465H26.7167V11.6149C26.7113 11.0724 26.9289 10.5514 27.3191 10.1744C27.3281 10.1654 27.3372 10.1563 27.3463 10.1472C27.7233 9.75705 28.2443 9.53947 28.7868 9.54484C29.3346 9.54484 29.8594 9.76737 30.2404 10.1612L30.2541 10.1749C30.6182 10.527 30.8325 11.0059 30.8519 11.5121L27.0008 21.6465ZM25.4484 21.6465H25.2102L21.3124 11.5104C21.3322 11.0051 21.5461 10.5262 21.9102 10.1744C21.9193 10.1658 21.9284 10.1567 21.9371 10.1476C22.3144 9.75746 22.835 9.53947 23.3775 9.54484C23.9258 9.54525 24.4505 9.76778 24.8316 10.1616L24.8452 10.1753C25.235 10.5522 25.453 11.0724 25.4484 11.6149V21.6465ZM23.8515 21.6465H23.6389L15.9614 11.2252C16.0914 10.8346 16.2987 10.3644 16.5006 10.174C16.5097 10.1654 16.5187 10.1563 16.5274 10.1472C16.9048 9.75705 17.4254 9.53906 17.9679 9.54443C18.5161 9.54484 19.0409 9.76737 19.422 10.1612C19.4261 10.1658 19.431 10.1703 19.4356 10.1749C19.8253 10.5518 20.0433 11.0728 20.0379 11.6153C20.0379 11.6929 20.0524 11.7701 20.0805 11.8428L23.8515 21.6465ZM28.2422 25.51H23.9522V22.9148H28.2422V25.51ZM26.0826 1.16261C30.7148 1.16839 34.762 4.29454 35.9383 8.77527C34.6283 7.95741 32.9261 8.16053 31.8456 9.26368C31.7164 9.38713 31.5979 9.52172 31.4918 9.66539C31.3836 9.51883 31.2631 9.38217 31.131 9.25708C30.5113 8.62788 29.6653 8.27448 28.7822 8.27572C27.8995 8.27696 27.054 8.63284 26.4364 9.26368C26.3072 9.38713 26.1887 9.52131 26.0826 9.66539C25.9744 9.51883 25.8534 9.38217 25.7217 9.25708C25.102 8.62788 24.2557 8.27448 23.373 8.27572C22.4899 8.27696 21.6448 8.63284 21.0267 9.26368C20.8975 9.38713 20.779 9.52131 20.6729 9.66498C20.5652 9.51883 20.4442 9.38217 20.3121 9.25667C19.6953 8.62665 18.8501 8.27283 17.9683 8.27572C17.354 8.27448 16.7512 8.44499 16.2285 8.76784C17.4072 4.29083 21.4528 1.16839 26.0826 1.16261Z" fill="#1AE5BE"/>
</g>
<defs>
<clipPath id="clip0">
<rect width="52" height="52" fill="white"/>
</clipPath>
</defs>
</svg>
