<svg width="108" height="32" viewBox="0 0 108 32" fill="none" xmlns="http://www.w3.org/2000/svg">
<path class="outer" d="M104.105 31.5H3.781A3.29 3.29 0 0 1 .5 28.214V3.78A3.286 3.286 0 0 1 3.781.5h100.324c1.818 0 3.34 1.482 3.34 3.28v24.434c0 1.798-1.523 3.286-3.34 3.286Z" stroke="#000"/>
<path class="inner" d="M24.09 15.827c-.023-2.578 2.11-3.833 2.208-3.891-1.208-1.762-3.08-2.003-3.739-2.022-1.573-.166-3.098.941-3.9.941-.817 0-2.05-.925-3.38-.898-1.711.026-3.312 1.017-4.19 2.557-1.812 3.138-.46 7.75 1.275 10.287.869 1.242 1.883 2.63 3.211 2.58 1.3-.053 1.785-.828 3.353-.828 1.554 0 2.01.829 3.364.797 1.395-.022 2.272-1.248 3.11-2.501 1.004-1.424 1.407-2.827 1.423-2.899-.033-.01-2.708-1.032-2.735-4.123Zm-2.558-7.582c.698-.875 1.177-2.064 1.044-3.271-1.012.044-2.277.7-3.005 1.555-.645.753-1.22 1.989-1.071 3.15 1.136.085 2.302-.573 3.032-1.434Zm21.362 16.958H41.08l-.995-3.127h-3.458l-.947 3.127h-1.77l3.425-10.646h2.116l3.442 10.646Zm-3.11-4.439-.9-2.78c-.095-.284-.273-.953-.536-2.006h-.032a77.635 77.635 0 0 1-.505 2.006l-.884 2.78h2.857Zm11.919.506c0 1.306-.352 2.338-1.057 3.096-.632.674-1.416 1.01-2.353 1.01-1.01 0-1.736-.362-2.179-1.089h-.032v4.044h-1.704v-8.277c0-.821-.022-1.663-.064-2.527h1.5l.095 1.216h.032c.568-.916 1.431-1.374 2.589-1.374.905 0 1.66.358 2.265 1.073.606.717.908 1.66.908 2.828Zm-1.736.063c0-.747-.168-1.363-.506-1.848-.368-.506-.863-.758-1.484-.758-.42 0-.802.14-1.144.418a1.94 1.94 0 0 0-.67 1.098c-.053.212-.08.384-.08.52v1.28c0 .559.171 1.03.514 1.415.342.385.786.577 1.333.577.642 0 1.142-.248 1.5-.743.358-.495.537-1.148.537-1.96Zm10.562-.063c0 1.306-.353 2.338-1.059 3.096-.63.674-1.415 1.01-2.352 1.01-1.01 0-1.736-.362-2.178-1.089h-.032v4.044h-1.705v-8.277c0-.821-.021-1.663-.063-2.527h1.5l.095 1.216h.032c.567-.916 1.43-1.374 2.589-1.374.904 0 1.66.358 2.266 1.073.604.717.907 1.66.907 2.828Zm-1.737.063c0-.747-.169-1.363-.506-1.848-.369-.506-.862-.758-1.483-.758-.422 0-.803.14-1.145.418a1.94 1.94 0 0 0-.67 1.098c-.053.212-.08.384-.08.52v1.28c0 .559.171 1.03.512 1.415.342.384.787.577 1.335.577.642 0 1.142-.248 1.5-.743.358-.495.537-1.148.537-1.96Zm11.604.885c0 .905-.314 1.642-.945 2.21-.694.622-1.659.933-2.899.933-1.145 0-2.063-.22-2.758-.663l.395-1.422c.749.453 1.57.68 2.465.68.642 0 1.142-.145 1.5-.435.358-.29.536-.678.536-1.163 0-.432-.147-.796-.442-1.091-.293-.296-.784-.57-1.468-.824-1.863-.695-2.794-1.713-2.794-3.053 0-.875.326-1.592.98-2.15.65-.56 1.519-.84 2.605-.84.968 0 1.773.17 2.415.506l-.427 1.39c-.6-.325-1.277-.489-2.036-.489-.6 0-1.069.148-1.404.443a1.265 1.265 0 0 0-.427.964c0 .42.163.769.49 1.042.283.253.799.526 1.547.822.916.369 1.588.8 2.02 1.294.432.493.647 1.11.647 1.846Zm5.636-3.412h-1.879v3.728c0 .948.331 1.421.995 1.421.304 0 .557-.026.757-.079l.047 1.295c-.336.126-.778.189-1.326.189-.673 0-1.2-.206-1.579-.616-.378-.411-.568-1.1-.568-2.07v-3.87h-1.12v-1.28h1.12V16.12l1.674-.505v1.91h1.879v1.282Zm8.478 2.496c0 1.18-.337 2.148-1.01 2.906-.707.78-1.644 1.169-2.812 1.169-1.126 0-2.022-.374-2.69-1.121-.67-.747-1.003-1.69-1.003-2.827 0-1.19.343-2.164 1.033-2.922.689-.758 1.618-1.137 2.786-1.137 1.126 0 2.032.373 2.716 1.121.654.726.98 1.663.98 2.81Zm-1.769.055c0-.708-.15-1.315-.457-1.822-.358-.613-.868-.918-1.53-.918-.686 0-1.206.306-1.564.918-.306.507-.457 1.124-.457 1.854 0 .708.151 1.315.457 1.82.369.613.884.919 1.548.919.651 0 1.162-.312 1.53-.934.315-.516.473-1.13.473-1.837Zm7.31-2.331a2.958 2.958 0 0 0-.537-.047c-.6 0-1.064.227-1.39.68-.284.4-.426.906-.426 1.516v4.028h-1.704l.016-5.259c0-.885-.022-1.69-.064-2.417h1.485l.062 1.47h.047c.18-.506.464-.912.853-1.217a2.06 2.06 0 0 1 1.232-.411c.158 0 .3.011.426.031v1.627Zm7.624 1.976c0 .305-.02.563-.062.773H92.5c.02.759.267 1.339.742 1.739.43.357.988.536 1.673.536.757 0 1.448-.12 2.069-.363l.267 1.184c-.726.317-1.583.475-2.572.475-1.19 0-2.124-.35-2.804-1.05-.678-.7-1.017-1.64-1.017-2.82 0-1.158.315-2.122.948-2.89.662-.821 1.557-1.232 2.682-1.232 1.106 0 1.944.41 2.512 1.232.45.652.676 1.458.676 2.416Zm-1.625-.443c.011-.505-.1-.942-.331-1.311-.295-.474-.749-.711-1.359-.711-.557 0-1.01.231-1.357.695a2.546 2.546 0 0 0-.504 1.326l3.55.001ZM39.22 8.007c0 .942-.282 1.65-.846 2.127-.522.439-1.264.659-2.225.659-.477 0-.884-.02-1.226-.063V5.586a9.041 9.041 0 0 1 1.444-.11c.915 0 1.605.2 2.07.598.522.45.783 1.095.783 1.933Zm-.883.023c0-.61-.162-1.078-.485-1.404-.323-.326-.795-.49-1.416-.49-.264 0-.489.018-.675.055v3.911c.103.016.292.024.566.024.642 0 1.137-.179 1.485-.536.349-.356.525-.876.525-1.56Zm5.568.8c0 .58-.166 1.055-.497 1.428-.346.383-.806.574-1.38.574-.554 0-.994-.183-1.323-.551-.328-.367-.492-.83-.492-1.389 0-.584.169-1.063.508-1.435.34-.372.795-.559 1.369-.559.553 0 .998.184 1.334.55.32.358.481.818.481 1.382Zm-.87.027c0-.348-.074-.647-.224-.895-.176-.301-.426-.452-.751-.452-.337 0-.593.15-.769.452-.15.248-.224.552-.224.91 0 .348.075.646.224.895.182.301.434.451.76.451.32 0 .572-.152.752-.459.155-.253.233-.554.233-.902Zm7.152-1.882-1.18 3.771h-.767l-.49-1.636a12.255 12.255 0 0 1-.303-1.219h-.015a8.92 8.92 0 0 1-.303 1.219l-.52 1.637h-.776l-1.109-3.77h.862l.426 1.792c.103.424.188.828.256 1.21h.015c.062-.315.165-.716.31-1.202l.536-1.8h.683l.512 1.762c.124.43.225.843.302 1.241h.024c.056-.388.142-.801.255-1.241l.458-1.762h.823Zm4.343 3.771h-.837v-2.16c0-.665-.253-.998-.76-.998a.756.756 0 0 0-.605.274.974.974 0 0 0-.233.647v2.237h-.838V8.053c0-.331-.01-.69-.03-1.08h.736l.04.59h.023a1.21 1.21 0 0 1 .434-.455c.227-.14.481-.212.76-.212.351 0 .644.114.877.342.29.279.434.696.434 1.25v2.258Zm2.312 0h-.837V5.245h.837v5.501Zm4.933-1.916c0 .58-.165 1.055-.496 1.428-.347.383-.808.574-1.381.574-.554 0-.995-.183-1.323-.551-.328-.367-.492-.83-.492-1.389 0-.584.17-1.063.508-1.435.34-.372.795-.559 1.368-.559.554 0 .998.184 1.336.55.32.358.48.818.48 1.382Zm-.87.027c0-.348-.075-.647-.224-.895-.176-.301-.427-.452-.751-.452-.338 0-.594.15-.769.452-.15.248-.224.552-.224.91 0 .348.075.646.224.895.182.301.434.451.76.451.32 0 .57-.152.752-.459.155-.253.232-.554.232-.902Zm4.925 1.889h-.752l-.062-.434h-.023c-.258.346-.625.52-1.101.52-.356 0-.644-.114-.86-.342a1.071 1.071 0 0 1-.296-.768c0-.46.192-.812.579-1.055.385-.243.927-.362 1.625-.357v-.07c0-.497-.26-.745-.783-.745-.372 0-.7.094-.982.28l-.17-.551c.35-.217.782-.326 1.292-.326.985 0 1.48.52 1.48 1.56v1.39c0 .376.018.676.054.898Zm-.87-1.296v-.58c-.923-.016-1.386.237-1.386.76 0 .197.053.344.161.442a.586.586 0 0 0 .41.147.846.846 0 0 0 .512-.174.714.714 0 0 0 .304-.594Zm5.632 1.296h-.743l-.04-.605h-.023c-.237.46-.642.691-1.21.691a1.42 1.42 0 0 1-1.133-.535c-.3-.357-.449-.82-.449-1.389 0-.61.162-1.105.489-1.482a1.502 1.502 0 0 1 1.163-.528c.506 0 .86.17 1.062.512h.016V5.245h.839V9.73c0 .368.01.706.03 1.016Zm-.868-1.59v-.629a.955.955 0 0 0-.326-.772.823.823 0 0 0-.56-.205.86.86 0 0 0-.738.372c-.178.25-.269.567-.269.955 0 .373.086.675.258.908a.862.862 0 0 0 .732.372.807.807 0 0 0 .662-.31c.162-.192.24-.422.24-.691Zm8.035-.326c0 .58-.165 1.055-.497 1.428-.347.383-.806.574-1.38.574-.553 0-.994-.183-1.323-.551-.328-.367-.492-.83-.492-1.389 0-.584.169-1.063.508-1.435.339-.372.795-.559 1.37-.559.552 0 .998.184 1.333.55.32.358.481.818.481 1.382Zm-.868.027c0-.348-.076-.647-.225-.895-.177-.301-.426-.452-.752-.452-.336 0-.592.15-.769.452-.15.248-.225.552-.225.91 0 .348.076.646.225.895.182.301.434.451.76.451.32 0 .572-.152.753-.459.154-.253.233-.554.233-.902Zm5.374 1.889h-.837v-2.16c0-.665-.253-.998-.76-.998a.753.753 0 0 0-.605.274.97.97 0 0 0-.233.647v2.237h-.839V8.053c0-.331-.01-.69-.03-1.08h.736l.04.59h.023c.098-.183.243-.334.434-.455.228-.14.481-.212.76-.212.351 0 .644.114.877.342.29.279.434.696.434 1.25v2.258Zm5.639-3.143h-.922v1.832c0 .466.163.699.488.699.15 0 .275-.013.374-.04l.021.636a1.882 1.882 0 0 1-.65.094c-.332 0-.59-.1-.776-.302-.187-.202-.28-.541-.28-1.017V7.603h-.55v-.628h.55v-.691l.822-.248v.938h.922l.001.63Zm4.436 3.143h-.838V8.602c0-.676-.253-1.014-.76-1.014-.388 0-.653.196-.799.588a1.045 1.045 0 0 0-.039.302v2.268h-.837V5.245h.837v2.273h.016c.264-.414.642-.62 1.132-.62.347 0 .634.113.862.341.284.284.426.707.426 1.265v2.242Zm4.576-2.064c0 .15-.01.277-.03.38h-2.514c.011.373.131.657.364.854.213.176.487.264.823.264.371 0 .71-.06 1.016-.178l.131.582c-.357.155-.778.233-1.265.233-.584 0-1.043-.172-1.376-.516-.334-.344-.5-.806-.5-1.385 0-.569.155-1.042.466-1.42.324-.403.763-.605 1.317-.605.543 0 .954.202 1.233.605.224.32.335.716.335 1.186Zm-.8-.216a1.129 1.129 0 0 0-.162-.644c-.145-.233-.366-.35-.666-.35a.795.795 0 0 0-.667.342 1.27 1.27 0 0 0-.249.652h1.745Z" fill="#000"/>
</svg>
