<svg width="50" height="51" viewBox="0 0 50 51" fill="none" xmlns="http://www.w3.org/2000/svg">
<path d="M45.56 11.777L49.378 6.336C49.8897 5.60665 50.0908 4.70389 49.9369 3.82631C49.783 2.94874 49.2869 2.16823 48.5575 1.6565C47.8282 1.14476 46.9254 0.943715 46.0478 1.09759C45.1703 1.25146 44.3897 1.74765 43.878 2.477L40.906 6.712C36.0211 2.68312 29.7893 0.657981 23.4692 1.04553C17.149 1.43308 11.2114 4.20444 6.85526 8.79997C2.49916 13.3955 0.0491646 19.4728 2.13751e-05 25.8046C-0.0491218 32.1365 2.30625 38.2511 6.59049 42.9137C10.8747 47.5762 16.7687 50.4394 23.082 50.925C29.3954 51.4106 35.6578 49.4825 40.6047 45.5299C45.5516 41.5773 48.8144 35.8949 49.7341 29.63C50.6539 23.3651 49.1621 16.9846 45.56 11.777Z" fill="#FF7900"/>
<path d="M15.952 21.378C15.3228 20.7473 14.4688 20.3924 13.5779 20.3914C12.687 20.3904 11.8322 20.7433 11.2015 21.3725C10.5708 22.0017 10.2159 22.8557 10.2149 23.7466C10.2139 24.6375 10.5668 25.4923 11.196 26.123L22.634 37.588C22.946 37.9008 23.3166 38.149 23.7247 38.3184C24.1328 38.4878 24.5702 38.575 25.012 38.575C25.112 38.575 25.205 38.575 25.302 38.563C25.7909 38.5206 26.2645 38.3717 26.6897 38.1267C27.1148 37.8818 27.4812 37.5467 27.763 37.145L45.563 11.777C44.2508 9.88364 42.6848 8.17939 40.909 6.71201L24.563 30.012L15.952 21.378Z" fill="white"/>
</svg>
