<svg xmlns="http://www.w3.org/2000/svg" xmlns:xlink="http://www.w3.org/1999/xlink" width="24" height="24" viewBox="0 0 24 24">
  <defs>
    <clipPath id="clip-ATK">
      <rect width="24" height="24"/>
    </clipPath>
  </defs>
  <g id="ATK" clip-path="url(#clip-ATK)">
    <path id="sword" d="M7.178,15.939H6.237L7.654,4.374a1.344,1.344,0,0,0-.3-.958L4.5.225a.658.658,0,0,0-.99,0L.649,3.415a1.344,1.344,0,0,0-.3.958L1.763,15.939H.822A.815.815,0,0,0,0,16.744v1a.815.815,0,0,0,.822.805h2V20.3a2.018,2.018,0,0,0-.894,1.669,2.072,2.072,0,0,0,4.144,0A2.018,2.018,0,0,0,5.178,20.3v-1.75h2A.815.815,0,0,0,8,17.746v-1A.815.815,0,0,0,7.178,15.939Z" transform="translate(17.891 1) rotate(45)" fill="#ff4f61"/>
  </g>
</svg>
