<svg xmlns="http://www.w3.org/2000/svg" xmlns:xlink="http://www.w3.org/1999/xlink" width="24" height="24" viewBox="0 0 24 24">
  <defs>
    <clipPath id="clip-ATK_Blow">
      <rect width="24" height="24"/>
    </clipPath>
  </defs>
  <g id="ATK_Blow" clip-path="url(#clip-ATK_Blow)">
    <path id="Контур_5277" data-name="Контур 5277" d="M1042.063,166.9l-4.713,1.013,2.48-7.468-.682-.7-5.891,3.228-1.86-7.848h-1.3l-1.861,7.848-5.891-3.228-.682.7,2.481,7.468-4.713-1.013-.682.823,3.907,7.405h4.164l-1.451-2.75.306-.369,2.113.454-1.112-3.348.306-.312,2.641,1.447.834-3.518h.584l.834,3.518,2.641-1.447.306.312-1.112,3.348,2.113-.454.306.369-1.451,2.75h4.164l3.907-7.405Z" transform="translate(-1018.745 -153.128)" fill="#ff4f61"/>
  </g>
</svg>
