<svg width="248" height="316" viewBox="0 0 248 316" fill="none" xmlns="http://www.w3.org/2000/svg">
<line x1="0.376288" y1="0.670748" x2="7.37629" y2="8.67075" stroke="black"/>
<line x1="6.62371" y1="8.67075" x2="13.6237" y2="0.670747" stroke="black"/>
<line x1="156.376" y1="0.670748" x2="163.376" y2="8.67075" stroke="black"/>
<line x1="162.624" y1="8.67075" x2="169.624" y2="0.670747" stroke="black"/>
<line x1="39.3763" y1="0.670748" x2="46.3763" y2="8.67075" stroke="black"/>
<line x1="45.6237" y1="8.67075" x2="52.6237" y2="0.670747" stroke="black"/>
<line x1="195.376" y1="0.670748" x2="202.376" y2="8.67075" stroke="black"/>
<line x1="201.624" y1="8.67075" x2="208.624" y2="0.670747" stroke="black"/>
<line x1="78.3763" y1="0.670748" x2="85.3763" y2="8.67075" stroke="black"/>
<line x1="84.6237" y1="8.67075" x2="91.6237" y2="0.670747" stroke="black"/>
<line x1="234.376" y1="0.670748" x2="241.376" y2="8.67075" stroke="black"/>
<line x1="240.624" y1="8.67075" x2="247.624" y2="0.670747" stroke="black"/>
<line x1="117.376" y1="0.670748" x2="124.376" y2="8.67075" stroke="black"/>
<line x1="123.624" y1="8.67075" x2="130.624" y2="0.670747" stroke="black"/>
<line x1="13.3763" y1="0.670748" x2="20.3763" y2="8.67075" stroke="black"/>
<line x1="19.6237" y1="8.67075" x2="26.6237" y2="0.670747" stroke="black"/>
<line x1="169.376" y1="0.670748" x2="176.376" y2="8.67075" stroke="black"/>
<line x1="175.624" y1="8.67075" x2="182.624" y2="0.670747" stroke="black"/>
<line x1="52.3763" y1="0.670748" x2="59.3763" y2="8.67075" stroke="black"/>
<line x1="58.6237" y1="8.67075" x2="65.6237" y2="0.670747" stroke="black"/>
<line x1="208.376" y1="0.670748" x2="215.376" y2="8.67075" stroke="black"/>
<line x1="214.624" y1="8.67075" x2="221.624" y2="0.670747" stroke="black"/>
<line x1="91.3763" y1="0.670748" x2="98.3763" y2="8.67075" stroke="black"/>
<line x1="97.6237" y1="8.67075" x2="104.624" y2="0.670747" stroke="black"/>
<line x1="130.376" y1="0.670748" x2="137.376" y2="8.67075" stroke="black"/>
<line x1="136.624" y1="8.67075" x2="143.624" y2="0.670747" stroke="black"/>
<line x1="26.3763" y1="0.670748" x2="33.3763" y2="8.67075" stroke="black"/>
<line x1="32.6237" y1="8.67075" x2="39.6237" y2="0.670747" stroke="black"/>
<line x1="182.376" y1="0.670748" x2="189.376" y2="8.67075" stroke="black"/>
<line x1="188.624" y1="8.67075" x2="195.624" y2="0.670747" stroke="black"/>
<line x1="65.3763" y1="0.670748" x2="72.3763" y2="8.67075" stroke="black"/>
<line x1="71.6237" y1="8.67075" x2="78.6237" y2="0.670747" stroke="black"/>
<line x1="221.376" y1="0.670748" x2="228.376" y2="8.67075" stroke="black"/>
<line x1="227.624" y1="8.67075" x2="234.624" y2="0.670747" stroke="black"/>
<line x1="104.376" y1="0.670748" x2="111.376" y2="8.67075" stroke="black"/>
<line x1="110.624" y1="8.67075" x2="117.624" y2="0.670747" stroke="black"/>
<line x1="143.376" y1="0.670748" x2="150.376" y2="8.67075" stroke="black"/>
<line x1="149.624" y1="8.67075" x2="156.624" y2="0.670747" stroke="black"/>
<line x1="0.376288" y1="307.671" x2="7.37629" y2="315.671" stroke="black"/>
<line x1="6.62371" y1="315.671" x2="13.6237" y2="307.671" stroke="black"/>
<line x1="156.376" y1="307.671" x2="163.376" y2="315.671" stroke="black"/>
<line x1="162.624" y1="315.671" x2="169.624" y2="307.671" stroke="black"/>
<line x1="39.3763" y1="307.671" x2="46.3763" y2="315.671" stroke="black"/>
<line x1="45.6237" y1="315.671" x2="52.6237" y2="307.671" stroke="black"/>
<line x1="195.376" y1="307.671" x2="202.376" y2="315.671" stroke="black"/>
<line x1="201.624" y1="315.671" x2="208.624" y2="307.671" stroke="black"/>
<line x1="78.3763" y1="307.671" x2="85.3763" y2="315.671" stroke="black"/>
<line x1="84.6237" y1="315.671" x2="91.6237" y2="307.671" stroke="black"/>
<line x1="234.376" y1="307.671" x2="241.376" y2="315.671" stroke="black"/>
<line x1="240.624" y1="315.671" x2="247.624" y2="307.671" stroke="black"/>
<line x1="117.376" y1="307.671" x2="124.376" y2="315.671" stroke="black"/>
<line x1="123.624" y1="315.671" x2="130.624" y2="307.671" stroke="black"/>
<line x1="13.3763" y1="307.671" x2="20.3763" y2="315.671" stroke="black"/>
<line x1="19.6237" y1="315.671" x2="26.6237" y2="307.671" stroke="black"/>
<line x1="169.376" y1="307.671" x2="176.376" y2="315.671" stroke="black"/>
<line x1="175.624" y1="315.671" x2="182.624" y2="307.671" stroke="black"/>
<line x1="52.3763" y1="307.671" x2="59.3763" y2="315.671" stroke="black"/>
<line x1="58.6237" y1="315.671" x2="65.6237" y2="307.671" stroke="black"/>
<line x1="208.376" y1="307.671" x2="215.376" y2="315.671" stroke="black"/>
<line x1="214.624" y1="315.671" x2="221.624" y2="307.671" stroke="black"/>
<line x1="91.3763" y1="307.671" x2="98.3763" y2="315.671" stroke="black"/>
<line x1="97.6237" y1="315.671" x2="104.624" y2="307.671" stroke="black"/>
<line x1="130.376" y1="307.671" x2="137.376" y2="315.671" stroke="black"/>
<line x1="136.624" y1="315.671" x2="143.624" y2="307.671" stroke="black"/>
<line x1="26.3763" y1="307.671" x2="33.3763" y2="315.671" stroke="black"/>
<line x1="32.6237" y1="315.671" x2="39.6237" y2="307.671" stroke="black"/>
<line x1="182.376" y1="307.671" x2="189.376" y2="315.671" stroke="black"/>
<line x1="188.624" y1="315.671" x2="195.624" y2="307.671" stroke="black"/>
<line x1="65.3763" y1="307.671" x2="72.3763" y2="315.671" stroke="black"/>
<line x1="71.6237" y1="315.671" x2="78.6237" y2="307.671" stroke="black"/>
<line x1="221.376" y1="307.671" x2="228.376" y2="315.671" stroke="black"/>
<line x1="227.624" y1="315.671" x2="234.624" y2="307.671" stroke="black"/>
<line x1="104.376" y1="307.671" x2="111.376" y2="315.671" stroke="black"/>
<line x1="110.624" y1="315.671" x2="117.624" y2="307.671" stroke="black"/>
<line x1="143.376" y1="307.671" x2="150.376" y2="315.671" stroke="black"/>
<line x1="149.624" y1="315.671" x2="156.624" y2="307.671" stroke="black"/>
<line x1="0.5" y1="1" x2="0.5" y2="308" stroke="black"/>
<line x1="247.5" y1="1" x2="247.5" y2="308" stroke="black"/>
<path d="M8.4 68.28V67.1H17.1V68.28H8.4ZM8.4 72.9V71.72H17.1V72.9H8.4ZM19.9039 68.28V67.1H28.6039V68.28H19.9039ZM19.9039 72.9V71.72H28.6039V72.9H19.9039ZM31.4078 68.28V67.1H40.1078V68.28H31.4078ZM31.4078 72.9V71.72H40.1078V72.9H31.4078ZM42.9117 68.28V67.1H51.6117V68.28H42.9117ZM42.9117 72.9V71.72H51.6117V72.9H42.9117ZM54.4156 68.28V67.1H63.1156V68.28H54.4156ZM54.4156 72.9V71.72H63.1156V72.9H54.4156ZM65.9195 68.28V67.1H74.6195V68.28H65.9195ZM65.9195 72.9V71.72H74.6195V72.9H65.9195ZM77.4234 68.28V67.1H86.1234V68.28H77.4234ZM77.4234 72.9V71.72H86.1234V72.9H77.4234ZM88.9273 68.28V67.1H97.6273V68.28H88.9273ZM88.9273 72.9V71.72H97.6273V72.9H88.9273ZM100.431 68.28V67.1H109.131V68.28H100.431ZM100.431 72.9V71.72H109.131V72.9H100.431ZM111.935 68.28V67.1H120.635V68.28H111.935ZM111.935 72.9V71.72H120.635V72.9H111.935ZM123.439 68.28V67.1H132.139V68.28H123.439ZM123.439 72.9V71.72H132.139V72.9H123.439ZM134.943 68.28V67.1H143.643V68.28H134.943ZM134.943 72.9V71.72H143.643V72.9H134.943ZM146.447 68.28V67.1H155.147V68.28H146.447ZM146.447 72.9V71.72H155.147V72.9H146.447ZM157.951 68.28V67.1H166.651V68.28H157.951ZM157.951 72.9V71.72H166.651V72.9H157.951ZM169.455 68.28V67.1H178.155V68.28H169.455ZM169.455 72.9V71.72H178.155V72.9H169.455ZM180.959 68.28V67.1H189.659V68.28H180.959ZM180.959 72.9V71.72H189.659V72.9H180.959ZM192.463 68.28V67.1H201.162V68.28H192.463ZM192.463 72.9V71.72H201.162V72.9H192.463ZM203.966 68.28V67.1H212.666V68.28H203.966ZM203.966 72.9V71.72H212.666V72.9H203.966ZM215.47 68.28V67.1H224.17V68.28H215.47ZM215.47 72.9V71.72H224.17V72.9H215.47ZM226.974 68.28V67.1H235.674V68.28H226.974ZM226.974 72.9V71.72H235.674V72.9H226.974Z" fill="black"/>
<path d="M8.4 239.28V238.1H17.1V239.28H8.4ZM8.4 243.9V242.72H17.1V243.9H8.4ZM19.9039 239.28V238.1H28.6039V239.28H19.9039ZM19.9039 243.9V242.72H28.6039V243.9H19.9039ZM31.4078 239.28V238.1H40.1078V239.28H31.4078ZM31.4078 243.9V242.72H40.1078V243.9H31.4078ZM42.9117 239.28V238.1H51.6117V239.28H42.9117ZM42.9117 243.9V242.72H51.6117V243.9H42.9117ZM54.4156 239.28V238.1H63.1156V239.28H54.4156ZM54.4156 243.9V242.72H63.1156V243.9H54.4156ZM65.9195 239.28V238.1H74.6195V239.28H65.9195ZM65.9195 243.9V242.72H74.6195V243.9H65.9195ZM77.4234 239.28V238.1H86.1234V239.28H77.4234ZM77.4234 243.9V242.72H86.1234V243.9H77.4234ZM88.9273 239.28V238.1H97.6273V239.28H88.9273ZM88.9273 243.9V242.72H97.6273V243.9H88.9273ZM100.431 239.28V238.1H109.131V239.28H100.431ZM100.431 243.9V242.72H109.131V243.9H100.431ZM111.935 239.28V238.1H120.635V239.28H111.935ZM111.935 243.9V242.72H120.635V243.9H111.935ZM123.439 239.28V238.1H132.139V239.28H123.439ZM123.439 243.9V242.72H132.139V243.9H123.439ZM134.943 239.28V238.1H143.643V239.28H134.943ZM134.943 243.9V242.72H143.643V243.9H134.943ZM146.447 239.28V238.1H155.147V239.28H146.447ZM146.447 243.9V242.72H155.147V243.9H146.447ZM157.951 239.28V238.1H166.651V239.28H157.951ZM157.951 243.9V242.72H166.651V243.9H157.951ZM169.455 239.28V238.1H178.155V239.28H169.455ZM169.455 243.9V242.72H178.155V243.9H169.455ZM180.959 239.28V238.1H189.659V239.28H180.959ZM180.959 243.9V242.72H189.659V243.9H180.959ZM192.463 239.28V238.1H201.162V239.28H192.463ZM192.463 243.9V242.72H201.162V243.9H192.463ZM203.966 239.28V238.1H212.666V239.28H203.966ZM203.966 243.9V242.72H212.666V243.9H203.966ZM215.47 239.28V238.1H224.17V239.28H215.47ZM215.47 243.9V242.72H224.17V243.9H215.47ZM226.974 239.28V238.1H235.674V239.28H226.974ZM226.974 243.9V242.72H235.674V243.9H226.974Z" fill="black"/>
</svg>
