<svg width="752" height="804" viewBox="0 0 752 804" fill="none" xmlns="http://www.w3.org/2000/svg">
<path d="M408 9L466.449 41.2792L532.628 32.2633L575.453 83.4464L640.425 98.9114L661.841 162.086L716.831 199.943L713.947 266.577L751.528 321.714L724.733 382.807L739.83 447.777L692.742 495.079L683.316 561.108L622.296 588.231L589.619 646.4L522.907 649.68L471.394 692.134L408 671.129L344.606 692.134L293.093 649.68L226.381 646.4L193.704 588.231L132.684 561.108L123.258 495.079L76.1702 447.777L91.2669 382.807L64.4717 321.714L102.053 266.577L99.1687 199.943L154.159 162.086L175.575 98.9114L240.547 83.4464L283.372 32.2633L349.551 41.2792L408 9Z" fill="#00C9A7"/>
<path d="M408 9L466.449 41.2792L532.628 32.2633L575.453 83.4464L640.425 98.9114L661.841 162.086L716.831 199.943L713.947 266.577L751.528 321.714L724.733 382.807L739.83 447.777L692.742 495.079L683.316 561.108L622.296 588.231L589.619 646.4L522.907 649.68L471.394 692.134L408 671.129L344.606 692.134L293.093 649.68L226.381 646.4L193.704 588.231L132.684 561.108L123.258 495.079L76.1702 447.777L91.2669 382.807L64.4717 321.714L102.053 266.577L99.1687 199.943L154.159 162.086L175.575 98.9114L240.547 83.4464L283.372 32.2633L349.551 41.2792L408 9Z" fill="none" stroke="white" stroke-dasharray="7 5" stroke-width="4"/>

<path d="M209.5 93V37.5H111V6.5H0" stroke="white" stroke-linejoin="round" stroke-dasharray="7 5" stroke-width="2"/>
<path d="M67.5 364.5H30V498H8.5" stroke="white" stroke-linejoin="round" stroke-dasharray="7 5" stroke-width="2"/>
<path d="M73 295.5V248H42V85H132.5V37.5" stroke="white" stroke-linejoin="round" stroke-dasharray="7 5" stroke-width="2"/>
<path d="M269 652V684.5H154V652H94.5" stroke="white" stroke-linejoin="round" stroke-dasharray="7 5" stroke-width="2"/>
<path d="M213.5 684.5V723.5H134V792.5H57V776" stroke="white" stroke-linejoin="round" stroke-dasharray="7 5" stroke-width="2"/>
<circle cx="108.5" cy="8.5" r="8" fill="#00949C" stroke="white" stroke-dasharray="7 5" stroke-width="2"/>
<circle cx="132.5" cy="37.5" r="8" fill="#00949C" stroke="white" stroke-dasharray="7 5" stroke-width="2"/>
<circle cx="42.5" cy="249.5" r="8" fill="#00949C" stroke="white" stroke-dasharray="7 5" stroke-width="2"/>
<circle cx="29.5" cy="369.5" r="8" fill="#00949C" stroke="white" stroke-dasharray="7 5" stroke-width="2"/>
<circle cx="155.5" cy="654.5" r="8" fill="#00949C" stroke="white" stroke-dasharray="7 5" stroke-width="2"/>
<circle cx="213.5" cy="684.5" r="8" fill="#00949C" stroke="white" stroke-dasharray="7 5" stroke-width="2"/>
<circle cx="56.5" cy="795.5" r="8" fill="#00949C" stroke="white" stroke-dasharray="7 5" stroke-width="2"/>
<circle cx="134.5" cy="721.5" r="8" fill="#00949C" stroke="white" stroke-dasharray="7 5" stroke-width="2"/>
</svg>
