<svg xmlns="http://www.w3.org/2000/svg" xmlns:xlink="http://www.w3.org/1999/xlink" width="24" height="24" viewBox="0 0 24 24">
  <defs>
    <clipPath id="clip-Calendar">
      <rect width="24" height="24"/>
    </clipPath>
  </defs>
  <g id="Calendar" clip-path="url(#clip-Calendar)">
    <g id="fi-rr-calendar">
      <path id="Контур_5083" data-name="Контур 5083" d="M19,2H18V1a1,1,0,0,0-2,0V2H8V1A1,1,0,0,0,6,1V2H5A5.006,5.006,0,0,0,0,7V19a5.006,5.006,0,0,0,5,5H19a5.006,5.006,0,0,0,5-5V7A5.006,5.006,0,0,0,19,2ZM2,7A3,3,0,0,1,5,4H19a3,3,0,0,1,3,3V8H2ZM19,22H5a3,3,0,0,1-3-3V10H22v9A3,3,0,0,1,19,22Z" fill="#ba32ff"/>
      <circle id="Эллипс_372" data-name="Эллипс 372" cx="1.5" cy="1.5" r="1.5" transform="translate(10.5 13.5)" fill="#ba32ff"/>
      <circle id="Эллипс_373" data-name="Эллипс 373" cx="1.5" cy="1.5" r="1.5" transform="translate(5.5 13.5)" fill="#ba32ff"/>
      <circle id="Эллипс_374" data-name="Эллипс 374" cx="1.5" cy="1.5" r="1.5" transform="translate(15.5 13.5)" fill="#ba32ff"/>
    </g>
  </g>
</svg>
