<svg width="113" height="35" viewBox="0 0 113 35" fill="none" xmlns="http://www.w3.org/2000/svg">
<path d="M106.027 11.5831C106.398 11.5831 106.621 11.8427 106.713 12.1949C106.918 12.9365 105.952 14.7348 102.573 16.7926C102.666 14.3826 104.114 11.5831 106.027 11.5831ZM95.7222 11.5831C96.2792 11.5831 96.3163 12.1393 96.3534 12.3432C96.502 13.3814 95.5365 15.2354 92.3617 16.2921C92.6959 14.0674 94.1626 11.5831 95.7222 11.5831ZM82.0945 2.86972C83.1527 2.86972 82.2801 6.5034 78.901 11.5831C79.6623 4.85341 80.7948 2.86972 82.0945 2.86972ZM70.3791 11.5831C70.6947 11.5831 70.769 11.8427 70.8247 11.9725C70.9546 12.4359 70.4719 14.2713 66.8143 16.8297C67 14.3826 68.5039 11.5831 70.3791 11.5831ZM55.1918 32.1987C54.8204 32.1987 54.5605 31.9577 54.5605 31.4757C54.5605 29.2881 57.9767 26.3032 58.0139 26.2847C57.5497 29.2324 56.3614 32.1987 55.1918 32.1987ZM111.671 17.7567C111.095 17.3674 110.315 17.5342 109.925 18.1089C109.87 18.2016 108.329 20.4263 105.674 20.4263C104.634 20.4263 103.836 20.1112 103.316 19.4623C103.279 19.4252 103.242 19.3696 103.223 19.3325C103.242 19.3325 103.242 19.314 103.26 19.314C109.498 15.7359 109.461 12.6769 109.164 11.5275C108.793 10.1556 107.568 9.26574 106.045 9.26574C102.48 9.26574 100.085 13.2517 100.085 16.9595C100.085 17.423 100.122 17.8865 100.197 18.3129C98.9342 19.2398 96.9661 20.4078 95.2395 20.4078C94.2369 20.4078 93.4757 20.1112 92.9929 19.5179C92.8258 19.314 92.6959 19.073 92.5845 18.832C97.3746 17.4415 99.1755 14.4011 98.8413 11.9725C98.6185 10.3781 97.4303 9.26574 95.945 9.26574C92.6216 9.26574 90.208 12.7511 89.8181 16.2179C89.1868 16.1438 88.6113 15.9584 88.0914 15.6432C88.1842 15.087 88.2214 14.5494 88.2214 14.0488C88.2214 12.918 87.9986 11.9354 87.5901 11.2124C87.0331 10.2112 86.1234 9.65506 85.0465 9.65506C84.471 9.65506 83.9511 9.97023 83.654 10.5079C83.0413 11.6388 83.4312 13.8264 84.5638 15.6061C84.7866 15.9584 85.0279 16.2735 85.2879 16.5516C84.6566 18.5539 83.3755 20.4449 81.686 20.4449C80.9248 20.4449 80.3678 20.2039 79.9036 19.7033C79.2352 18.9803 78.8082 17.7011 78.6782 16.0882C83.3755 10.2298 85.6406 4.50117 84.3596 1.79445C83.914 0.867486 83.097 0.348389 82.0945 0.348389C78.8453 0.348389 76.9144 4.53825 76.1903 13.159C76.1532 13.6781 76.1161 14.3269 76.1161 15.0129C74.3894 17.3488 71.5487 20.4078 68.9866 20.4078C68.2625 20.4078 67.7241 20.1668 67.3527 19.6477C67.3156 19.6106 67.297 19.555 67.2599 19.5179C67.297 19.4994 67.3156 19.4808 67.3527 19.4623C73.6468 15.4022 73.5539 12.3618 73.2197 11.2309C72.867 10.0073 71.7715 9.2472 70.3605 9.2472C66.7029 9.2472 64.2336 13.4556 64.2336 17.3674C64.2336 17.7196 64.2522 18.0719 64.3079 18.4056C63.1567 19.2398 62.1913 19.9814 61.2815 20.6859C61.4115 19.6106 61.6157 18.2572 61.8571 16.2179C61.9128 15.8101 61.9499 15.4764 61.9871 15.3095C62.1913 13.8264 59.7591 13.5112 59.4806 15.1797C59.2021 16.8853 58.478 20.4263 56.4543 20.4263C55.2475 20.4263 54.5976 19.073 54.7276 17.1264C54.9133 14.0488 56.5842 11.5275 58.6451 11.5275C59.3506 11.5275 59.722 12.2876 59.722 12.2876C60.3718 13.4741 62.3955 12.473 61.9685 11.2124C61.7828 10.6562 61.0959 9.26574 58.7379 9.26574C53.9107 9.26574 52.4068 14.1415 52.2026 17.3674C52.1654 17.905 52.184 18.4056 52.2211 18.9061C51.5528 19.7218 50.7358 20.4263 49.956 20.4263C49.1948 20.4263 48.7121 19.5735 48.9906 17.6084C49.2691 15.7359 49.4547 14.1786 49.5847 13.2702C50.1788 9.17304 45.0359 9.28427 45.0359 9.28427C45.0359 9.28427 44.9802 6.89272 42.9936 6.89272C41.9725 6.89272 41.0813 7.67137 41.0813 9.1545C41.0813 10.5264 42.2139 11.1938 42.2139 11.1938C41.9725 13.3258 40.9699 20.4078 38.7419 20.4078C37.7394 20.4078 37.6837 19.3325 37.7579 18.5724C37.8879 17.5157 38.0736 15.7544 38.1293 15.291C38.3335 13.8078 35.8827 13.4927 35.6228 15.1612C35.3443 16.8668 34.6202 20.4078 32.5965 20.4078C31.3897 20.4078 30.7398 18.8876 30.8327 17.0522C30.9998 13.9005 32.7079 11.509 34.7687 11.509C35.4743 11.509 35.8456 12.2691 35.8456 12.2691C36.384 13.4371 38.5006 12.6028 38.0921 11.1938C37.9065 10.582 37.2195 9.2472 34.8616 9.2472C30.0343 9.2472 28.5304 14.123 28.3262 17.3488C28.2891 17.8494 28.3076 18.3314 28.3448 18.7949C27.6578 19.7404 26.8223 20.4078 26.0425 20.4078C25.3184 20.4078 24.78 20.037 24.91 18.4241C24.9657 17.664 25.8569 12.4916 25.8012 11.5461C25.7083 9.97023 24.9842 9.28427 23.239 9.28427C21.4009 9.28427 20.0085 10.2298 19.4143 10.8416C19.4143 10.8416 20.287 4.29724 20.4541 3.05511C20.6211 1.73883 18.0961 1.72029 17.929 3.03657C17.8548 3.61129 17.1864 8.78372 16.5551 13.5668C15.1812 16.7185 12.322 21.5387 8.08884 21.5387C0.0681562 21.5387 3.76287 4.07477 11.2823 4.07477C13.0461 4.07477 12.2477 6.87418 11.078 8.59833C10.2425 9.82191 12.3591 11.2309 13.5288 9.2472C16.7593 3.79668 14.0301 1.73883 11.4679 1.73883C0.30952 1.73883 -3.83078 23.9488 7.79177 23.9488C11.6164 23.9488 14.1786 21.7982 15.831 19.4994C15.6639 20.8156 15.534 21.7055 15.5154 21.8724C15.3112 23.2443 17.8919 23.133 18.0219 21.9836C18.1147 21.2606 18.486 18.1831 18.8202 15.8471C19.0059 14.5123 20.6397 12.0466 22.5149 12.0466C22.9605 12.0466 23.239 12.4916 23.1833 12.8623C23.109 13.3073 22.3107 19.11 22.3664 19.9814C22.5149 22.41 24.2602 22.9662 25.9126 22.9662C27.2308 22.9662 28.2705 22.3544 29.1431 21.3718C29.7372 22.3544 30.6284 22.9662 31.8538 22.9662C34.6388 22.9662 35.6042 20.964 35.6042 20.964C35.6042 20.964 35.9384 22.9477 38.352 22.9477C43.235 22.9477 44.3676 14.4567 44.6089 11.6202C44.8874 11.6388 46.6141 11.7314 46.9112 12.6955C47.1897 13.6224 46.317 16.5887 46.2428 19.6291C46.2056 21.2421 46.7998 22.9662 49.3433 22.9662C50.9029 22.9662 52.1097 22.2617 53.0009 21.446C53.5951 22.3915 54.4862 22.9662 55.6745 22.9662C57.0484 22.9662 57.9767 22.5213 58.5708 22.0763C58.5337 22.3359 58.4966 22.5954 58.4594 22.855C58.4594 22.8735 58.4594 22.892 58.4594 22.9106C58.4594 22.855 52.0169 27.5083 52.0169 31.8835C52.0169 33.5891 52.8153 34.72 54.839 34.72C58.8679 34.72 60.1304 29.3437 60.7245 24.8943C60.7617 24.6903 60.7802 24.4864 60.7988 24.301C61.4301 23.819 62.0242 23.3741 62.5812 22.9291C63.4167 22.2802 64.2336 21.6499 65.1619 20.964C65.199 21.0381 65.2547 21.1123 65.2919 21.1679C66.1459 22.3544 67.4084 22.9662 68.968 22.9662C71.8829 22.9662 74.5936 20.723 76.5431 18.5353C76.8402 19.6106 77.3043 20.6488 78.047 21.446C78.9753 22.4656 80.2378 22.9847 81.686 22.9847C84.471 22.9847 86.4204 20.76 87.423 18.1831C88.1842 18.5353 89.0197 18.7393 89.9295 18.7949C90.1337 19.7033 90.505 20.5005 91.0249 21.1679C91.7118 21.9836 92.9744 22.9662 95.2209 22.9662C97.4489 22.9662 99.6583 21.7797 101.125 20.76C101.199 20.8713 101.274 20.964 101.348 21.0752C102.053 21.9465 103.353 22.9662 105.655 22.9662C109.703 22.9662 111.912 19.6662 112.005 19.5179C112.413 18.9247 112.246 18.146 111.671 17.7567Z" fill="#2C3B4E"/>
</svg>
