<svg width="78" height="21" viewBox="0 0 78 21" fill="none" xmlns="http://www.w3.org/2000/svg">
<path d="M14.6163 7.5283C14.2928 7.05796 13.8657 6.70521 13.335 6.4831C12.8044 6.26099 12.1961 6.14341 11.536 6.14341C10.8501 6.14341 10.2289 6.28713 9.67234 6.56149C9.11582 6.84892 8.63695 7.22781 8.23573 7.71121C7.83452 8.19462 7.53684 8.75642 7.31682 9.38354C7.0968 10.0237 6.99326 10.7031 6.99326 11.4217C6.99326 12.3624 7.29094 13.1593 7.87334 13.8126C8.45575 14.4658 9.33584 14.7925 10.5136 14.7925C11.1995 14.7925 11.8337 14.6487 12.4291 14.3613C13.0244 14.0739 13.5421 13.7211 13.9692 13.303L17.0495 17.9281C16.6742 18.2547 16.2341 18.5813 15.7423 18.921C15.2505 19.2607 14.6811 19.5481 14.0469 19.8094C13.4127 20.0707 12.7138 20.2667 11.9243 20.4366C11.1348 20.5933 10.2677 20.6848 9.30995 20.6848C7.8604 20.6848 6.5791 20.4888 5.45311 20.0838C4.32712 19.6788 3.36939 19.117 2.5799 18.3723C1.79041 17.6276 1.19506 16.7261 0.780904 15.6809C0.366747 14.6226 0.159668 13.4598 0.159668 12.1664C0.159668 10.5202 0.444401 8.96546 1.01387 7.54137C1.58333 6.10421 2.38576 4.84997 3.40821 3.77864C4.43066 2.70731 5.66019 1.85808 7.05797 1.24402C8.46869 0.629968 10.0088 0.316406 11.6914 0.316406C13.348 0.316406 14.8105 0.577708 16.0788 1.08724C17.3472 1.60985 18.3049 2.25003 18.9779 3.0078L14.6163 7.5283ZM36.0619 20.1361H29.8107L31.105 12.7282H25.6303L24.3361 20.1361H18.0849L21.4629 0.852073H27.6882L26.5234 7.46298H31.998L33.1628 0.852073H39.4399L36.0619 20.1361ZM54.686 6.11728H48.0466L47.723 7.97251H54.0519L53.1847 12.8719H46.8559L46.5064 14.8839H53.9224L53.0035 20.1361H39.6858L43.0638 0.852073H55.6049L54.686 6.11728ZM76.5458 12.8588C76.261 13.4337 75.9634 13.9302 75.6269 14.3482C75.2904 14.7663 74.9797 15.0799 74.695 15.2759L74.6691 15.3804L77.8141 15.1844L76.947 20.1361H65.8683C64.4187 20.1361 63.1245 19.9531 61.9597 19.5743C60.7949 19.1954 59.7983 18.6597 58.97 17.9542C58.1417 17.2487 57.4945 16.3864 57.0416 15.3804C56.5886 14.3744 56.3686 13.2377 56.3686 11.9573C56.3686 10.3634 56.6533 8.84787 57.2228 7.43685C57.7922 6.02583 58.5817 4.78465 59.6042 3.75251C60.6266 2.70731 61.8432 1.88421 63.2798 1.27015C64.7035 0.656097 66.2824 0.355602 68.0167 0.355602C69.4792 0.355602 70.7993 0.551577 71.9771 0.943528C73.1549 1.33548 74.1514 1.88421 74.9668 2.60279C75.7822 3.32137 76.4293 4.18366 76.8823 5.20273C77.3353 6.2218 77.5553 7.35846 77.5553 8.6127C77.5553 9.4358 77.4647 10.1936 77.2705 10.9121C77.0635 11.6438 76.8305 12.284 76.5458 12.8588ZM70.7864 8.15543C70.6311 7.73735 70.4111 7.37152 70.1134 7.07103C69.8157 6.75747 69.4404 6.52229 69.0003 6.33938C68.5603 6.15647 68.0555 6.06502 67.499 6.06502C66.8001 6.06502 66.153 6.20874 65.5836 6.49617C65.0141 6.7836 64.5352 7.17555 64.134 7.64589C63.7328 8.12929 63.4351 8.67802 63.2151 9.29208C62.9951 9.90614 62.8915 10.5463 62.8915 11.1996C62.8915 11.6699 62.9692 12.1272 63.1115 12.5453C63.2539 12.9764 63.4739 13.3422 63.7716 13.6558C64.0693 13.9694 64.4446 14.2307 64.8847 14.4136C65.3247 14.6095 65.8424 14.701 66.4377 14.701C67.1625 14.701 67.8096 14.5573 68.3791 14.2568C68.9486 13.9563 69.4274 13.5643 69.8287 13.0679C70.2299 12.5845 70.5275 12.0227 70.7217 11.3956C70.9158 10.7684 71.0194 10.1282 71.0194 9.47499C71.0064 9.01771 70.9417 8.57351 70.7864 8.15543Z" fill="#2C3B4E"/>
</svg>
