<svg width="60" height="52" viewBox="0 0 60 52" fill="none" xmlns="http://www.w3.org/2000/svg">
<path d="M58.4063 7.15625L55.6758 2.44531C54.8438 1.00391 53.2852 0.113281 51.6211 0.113281L9.55081 0.125V0.113281C9.46878 0.113281 9.38675 0.113282 9.30472 0.125H8.57815C6.94925 0.125 5.40237 0.992188 4.57034 2.38672L1.64065 7.22656C0.750029 8.72656 0.73831 10.5781 1.62894 12.043L23.6133 49.5898C24.4688 51.0195 25.9688 51.875 27.6446 51.875H32.6836C34.3477 51.875 35.8946 50.9844 36.7266 49.5547L57.8672 12.8047L58.4063 11.8789C59.25 10.4258 59.2617 8.62109 58.4063 7.15625ZM51.6211 1.98828C52.6172 1.98828 53.5547 2.52734 54.0586 3.38281L56.7891 8.09375C56.9883 8.43359 57.1055 8.79687 57.1524 9.17187C56.6719 8.79687 56.0742 8.58594 55.4297 8.58594C55.418 8.58594 55.418 8.58594 55.4063 8.58594H23.8477C22.8282 8.58594 21.9141 9.11328 21.4102 10.0039C20.9063 10.8945 20.9063 11.9492 21.4336 12.8398L28.9922 25.5781L26.086 30.6055C25.8399 31.0273 25.4414 31.0742 25.2774 31.0742C25.1133 31.0742 24.7149 31.0273 24.4688 30.5937L8.76565 3.40625C8.51956 2.98437 8.6719 2.59766 8.75393 2.45703C8.82425 2.32812 9.02347 2.05859 9.4219 2L51.6211 1.98828ZM30.0586 23.7148L27.1055 18.7227H32.9297L30.0586 23.7148ZM3.2344 8.1875L6.16409 3.34766C6.31644 3.08984 6.51565 2.86719 6.73831 2.66797C6.67972 3.24219 6.80862 3.82812 7.11331 4.34375L22.8164 31.5078C23.3203 32.3984 24.2227 32.9258 25.2422 32.9375H25.2539C26.2735 32.9375 27.1758 32.4102 27.6914 31.5312L35.0977 18.7109H40.8516C41.3438 18.7109 41.5782 19.0391 41.6602 19.1797C41.7422 19.3203 41.9063 19.6836 41.6602 20.1055L25.9805 47.293L25.9453 47.3516C25.7696 47.7148 25.418 47.7617 25.2774 47.7734C24.9375 47.7851 24.6211 47.6094 24.4453 47.3047H24.4336L3.22269 11.0937C2.69534 10.2031 2.70706 9.08984 3.2344 8.1875ZM35.0977 48.6172C34.6055 49.4726 33.668 50 32.6719 50H27.6328C27.0586 50 26.5196 49.8242 26.0625 49.5195C26.7305 49.3086 27.293 48.8516 27.6211 48.1953L43.3008 21.043C43.8047 20.1641 43.8047 19.1094 43.2891 18.2422C42.7852 17.3633 41.8711 16.8477 40.8516 16.8477H25.9805L23.0391 11.8789C22.793 11.457 22.9453 11.0703 23.0274 10.9297C23.1094 10.7891 23.3555 10.4609 23.8477 10.4609H55.418C55.9102 10.4609 56.1563 10.7891 56.2383 10.9297C56.3203 11.0703 56.4844 11.4453 56.2383 11.8672L35.0977 48.6172Z" fill="white"/>
</svg>
