<svg xmlns="http://www.w3.org/2000/svg" xmlns:xlink="http://www.w3.org/1999/xlink" width="24" height="24" viewBox="0 0 24 24">
  <defs>
    <clipPath id="clip-DEF">
      <rect width="24" height="24"/>
    </clipPath>
  </defs>
  <g id="DEF" clip-path="url(#clip-DEF)">
    <g id="shield" transform="translate(2)">
      <g id="Сгруппировать_612" data-name="Сгруппировать 612" transform="translate(0 0)">
        <path id="Контур_4828" data-name="Контур 4828" d="M59.9,2.854,50.487.03a.7.7,0,0,0-.4,0L40.669,2.854a.7.7,0,0,0-.5.673V13.883a6.689,6.689,0,0,0,1.621,4.1,16.754,16.754,0,0,0,3.377,3.128A30.3,30.3,0,0,0,50,23.939a.7.7,0,0,0,.575,0,30.3,30.3,0,0,0,4.832-2.83,16.755,16.755,0,0,0,3.377-3.128,6.689,6.689,0,0,0,1.621-4.1V3.527A.7.7,0,0,0,59.9,2.854Z" transform="translate(-40.168 0)" fill="#4f66ff"/>
      </g>
    </g>
  </g>
</svg>
