<svg xmlns="http://www.w3.org/2000/svg" xmlns:xlink="http://www.w3.org/1999/xlink" width="24" height="24" viewBox="0 0 24 24">
  <defs>
    <clipPath id="clip-DEF_Ellimination">
      <rect width="24" height="24"/>
    </clipPath>
  </defs>
  <g id="DEF_Ellimination" clip-path="url(#clip-DEF_Ellimination)">
    <path id="Объединение_182" data-name="Объединение 182" d="M21.172,23.171a9.908,9.908,0,0,1-11.859,0l-3.07,3.07-2-2,3.07-3.07a9.908,9.908,0,0,1,0-11.859L4.243,6.242l2-2,3.07,3.07a9.908,9.908,0,0,1,11.859,0l3.071-3.071,2,2L23.172,9.312a9.908,9.908,0,0,1,0,11.859l3.07,3.07-2,2Zm-2.03-2.03-3.9-3.9-3.9,3.9A7.093,7.093,0,0,0,19.142,21.142Zm-9.8-2,3.9-3.9-3.9-3.9A7.094,7.094,0,0,0,9.343,19.142Zm11.8,0a7.092,7.092,0,0,0,0-7.8l-3.9,3.9Zm-5.9-5.9,3.9-3.9a7.093,7.093,0,0,0-7.8,0Z" transform="translate(-3.243 -3.242)" fill="#4f66ff"/>
  </g>
</svg>
