<svg height="39" viewBox="0 0 33 39" width="33" xmlns="http://www.w3.org/2000/svg"><path d="m16.0918862 27.2140913c.4253927 0 .8233289-.1509432 1.2349793-.5488794l6.0102979-5.8319011c.2881384-.2881665.4527367-.5900472.4527367-1.0154118 0-.7959004-.65859-1.3722335-1.4270059-1.3722335-.3979643 0-.7821582.1646827-1.0703247.4802775l-2.5248715 2.6620977-1.2487215 1.4545467.1783968-2.5934986v-18.6071425c0-.85064483-.7135592-1.5779463-1.6054871-1.5779463s-1.6054871.72730147-1.6054871 1.5779463v18.6071425l.1783969 2.5934986-1.2624358-1.4545467-2.5248714-2.6620977c-.2744242-.3155948-.6861027-.4802775-1.08403892-.4802775-.76844403 0-1.41337608.5763331-1.41337608 1.3722335 0 .4253646.16465454.7272453.45282104 1.0154118l6.02401216 5.8319011c.4116503.3979362.8095865.5488794 1.2349792.5488794zm-10.25039803 11.3070058h20.43214083c3.7874196 0 5.790871-1.9897091 5.790871-5.7358456v-17.4956472c0-3.7324223-2.0034514-5.73584559-5.790871-5.73584559h-4.7752343v3.47168419h4.5009506c1.6603157 0 2.59333.8644995 2.59333 2.6072128v16.80955c0 1.7564218-.9330143 2.6072072-2.59333 2.6072072h-19.88340481c-1.67411421 0-2.5797563-.8507854-2.5797563-2.6072072v-16.80955c0-1.7427133.90564209-2.6072128 2.5797563-2.6072128h4.56943731v-3.47168419h-4.84388963c-3.77356489 0-5.77698817 1.98970909-5.77698817 5.73584559v17.4956472c0 3.7598507 2.00342328 5.7358456 5.77698817 5.7358456z"/></svg>