<svg width="22" height="22" viewBox="0 0 22 22" fill="none" xmlns="http://www.w3.org/2000/svg">
<path fill-rule="evenodd" clip-rule="evenodd" d="M11.0002 9.99165C10.441 9.99165 9.99183 10.4408 9.99183 11C9.99183 11.5591 10.441 12.0083 11.0002 12.0083C11.5593 12.0083 12.0085 11.5591 12.0085 11C12.0085 10.4408 11.5593 9.99165 11.0002 9.99165ZM11.0002 1.83331C5.94016 1.83331 1.8335 5.93998 1.8335 11C1.8335 16.06 5.94016 20.1666 11.0002 20.1666C16.0602 20.1666 20.1668 16.06 20.1668 11C20.1668 5.93998 16.0602 1.83331 11.0002 1.83331ZM13.0077 13.0075L5.50016 16.5L8.99266 8.99248L16.5002 5.49998L13.0077 13.0075Z" fill="#2C3B4E"/>
</svg>
