<svg width="191" height="162" viewBox="0 0 191 162" fill="none" xmlns="http://www.w3.org/2000/svg">
<path d="M178.066 5.04661L188.621 17.119L176.548 27.6739" stroke="#2C3B4E" stroke-width="3" stroke-linecap="round" stroke-linejoin="round"/>
<path d="M102.71 65.8124C101.507 68.6483 100.467 71.5509 99.5966 74.5059" stroke="#2C3B4E" stroke-width="3" stroke-linecap="round" stroke-linejoin="round"/>
<path d="M111.242 50.568C109.508 53.0061 107.909 55.5382 106.453 58.1527" stroke="#2C3B4E" stroke-width="3" stroke-linecap="round" stroke-linejoin="round"/>
<path d="M97.584 82.9881C97.361 84.2232 97.1674 85.4717 96.9993 86.737" stroke="#2C3B4E" stroke-width="3" stroke-linecap="round" stroke-linejoin="round"/>
<path d="M188.621 17.1197C187.264 16.9605 184.005 16.8102 182.628 16.7179C170.959 15.9233 159.257 17.6728 148.331 21.8456C137.405 26.0184 127.516 32.5148 119.347 40.8854C118.469 41.7861 117.609 42.7058 116.768 43.6445" stroke="#2C3B4E" stroke-width="3" stroke-linecap="round" stroke-linejoin="round"/>
<path d="M11.1668 116.434C11.0183 116.434 10.8465 116.461 10.6511 116.516C10.4558 116.562 10.2527 116.621 10.0418 116.691C9.83083 116.754 9.6199 116.812 9.40896 116.867C9.20583 116.914 9.02224 116.938 8.85818 116.938C8.6863 116.938 8.54958 116.91 8.44802 116.855C8.35427 116.793 8.28396 116.715 8.23708 116.621C8.19021 116.527 8.16286 116.426 8.15505 116.316C8.14724 116.207 8.14333 116.102 8.14333 116C8.14333 115.703 8.22927 115.461 8.40115 115.273C8.58083 115.086 8.83474 114.93 9.16286 114.805C9.49099 114.672 9.88552 114.562 10.3465 114.477C10.8152 114.383 11.3426 114.281 11.9285 114.172C12.8504 114 13.6902 113.867 14.448 113.773C15.2136 113.68 15.9402 113.613 16.6277 113.574C17.323 113.527 18.0027 113.5 18.6668 113.492C19.3308 113.484 20.0301 113.48 20.7644 113.48C20.9832 113.48 21.1551 113.508 21.2801 113.562C21.4051 113.617 21.4949 113.688 21.5496 113.773C21.6121 113.859 21.6472 113.957 21.6551 114.066C21.6707 114.176 21.6785 114.285 21.6785 114.395C21.6785 114.52 21.659 114.656 21.6199 114.805C21.5886 114.945 21.5301 115.078 21.4441 115.203C21.366 115.32 21.2566 115.418 21.116 115.496C20.9832 115.574 20.8191 115.613 20.6238 115.613H19.6863C19.3113 115.613 18.9129 115.617 18.491 115.625C18.0691 115.625 17.6511 115.633 17.2371 115.648C16.823 115.656 16.4246 115.672 16.0418 115.695C15.6668 115.719 15.3308 115.754 15.034 115.801C14.7449 115.84 14.5144 115.891 14.3426 115.953C14.1707 116.016 14.0847 116.094 14.0847 116.188C14.0847 116.281 14.1199 116.438 14.1902 116.656C14.2605 116.875 14.3465 117.113 14.448 117.371C14.5496 117.621 14.6511 117.871 14.7527 118.121C14.8621 118.363 14.9519 118.566 15.0222 118.73C15.0847 118.863 15.1551 118.953 15.2332 119C15.3113 119.047 15.4168 119.07 15.5496 119.07C15.8699 119.07 16.198 119.051 16.534 119.012C16.8699 118.973 17.2058 118.93 17.5418 118.883C17.8855 118.828 18.2254 118.781 18.5613 118.742C18.9051 118.703 19.2449 118.684 19.5808 118.684C19.7683 118.684 19.9207 118.719 20.0379 118.789C20.1629 118.852 20.2605 118.934 20.3308 119.035C20.4011 119.129 20.448 119.23 20.4715 119.34C20.5027 119.449 20.5183 119.543 20.5183 119.621C20.5183 119.973 20.409 120.238 20.1902 120.418C19.9715 120.59 19.6746 120.719 19.2996 120.805C18.9246 120.891 18.4871 120.949 17.9871 120.98C17.4949 121.012 16.9715 121.055 16.4168 121.109L16.1355 121.133C16.034 121.148 15.9558 121.184 15.9011 121.238C15.8465 121.293 15.8191 121.363 15.8191 121.449C15.8191 121.473 15.823 121.492 15.8308 121.508C15.8386 121.523 15.8426 121.543 15.8426 121.566C15.9129 121.824 15.9949 122.113 16.0886 122.434C16.1824 122.746 16.2683 123.059 16.3465 123.371C16.4324 123.684 16.5027 123.98 16.5574 124.262C16.6121 124.543 16.6394 124.773 16.6394 124.953C16.6394 125.312 16.5027 125.586 16.2293 125.773C15.9636 125.961 15.5847 126.055 15.0926 126.055C14.9129 126.055 14.7371 126.012 14.5652 125.926C14.4011 125.848 14.2996 125.699 14.2605 125.48C14.1355 124.84 13.9949 124.215 13.8386 123.605C13.6824 122.988 13.5183 122.375 13.3465 121.766C13.2761 121.555 13.1394 121.449 12.9363 121.449C12.7019 121.449 12.4363 121.441 12.1394 121.426C11.8504 121.41 11.5535 121.379 11.2488 121.332C10.9441 121.285 10.6472 121.227 10.3582 121.156C10.0769 121.078 9.82302 120.977 9.59646 120.852C9.37771 120.727 9.19802 120.578 9.0574 120.406C8.92458 120.234 8.85818 120.031 8.85818 119.797C8.85818 119.648 8.89333 119.504 8.96365 119.363C9.03396 119.215 9.1238 119.086 9.23318 118.977C9.34255 118.859 9.45974 118.766 9.58474 118.695C9.71755 118.625 9.84255 118.59 9.95974 118.59C10.1004 118.59 10.2527 118.625 10.4168 118.695C10.5808 118.766 10.7566 118.844 10.9441 118.93C11.1316 119.016 11.3308 119.094 11.5418 119.164C11.7605 119.234 11.9949 119.27 12.2449 119.27C12.3699 119.27 12.4324 119.203 12.4324 119.07C12.4324 118.945 12.409 118.781 12.3621 118.578C12.323 118.375 12.2683 118.164 12.198 117.945C12.1277 117.719 12.0457 117.5 11.9519 117.289C11.866 117.07 11.7722 116.887 11.6707 116.738C11.6082 116.645 11.5418 116.57 11.4715 116.516C11.409 116.461 11.3074 116.434 11.1668 116.434ZM21.484 121.109C21.484 120.977 21.4996 120.828 21.5308 120.664C21.5621 120.5 21.5777 120.32 21.5777 120.125C21.5777 119.992 21.5191 119.891 21.4019 119.82C21.2926 119.75 21.1676 119.672 21.0269 119.586C20.8863 119.5 20.7574 119.391 20.6402 119.258C20.5308 119.125 20.4761 118.934 20.4761 118.684C20.4761 118.504 20.523 118.324 20.6168 118.145C20.7183 117.965 20.8629 117.801 21.0504 117.652C21.5113 117.309 21.9879 117 22.4801 116.727C22.9801 116.453 23.4761 116.223 23.9683 116.035C24.4683 115.848 24.9605 115.703 25.4449 115.602C25.9293 115.5 26.3941 115.449 26.8394 115.449C27.5894 115.449 28.2926 115.59 28.9488 115.871C29.6129 116.145 30.1871 116.523 30.6715 117.008C31.1636 117.484 31.5504 118.047 31.8316 118.695C32.1207 119.336 32.2652 120.023 32.2652 120.758C32.2652 121.477 32.1129 122.16 31.8082 122.809C31.5113 123.449 31.109 124.012 30.6011 124.496C30.0933 124.98 29.4957 125.363 28.8082 125.645C28.1285 125.934 27.4097 126.078 26.6519 126.078C25.9097 126.078 25.2222 125.953 24.5894 125.703C23.9566 125.453 23.4097 125.109 22.9488 124.672C22.4879 124.227 22.1285 123.703 21.8707 123.102C21.6129 122.492 21.484 121.828 21.484 121.109ZM26.9097 123.969C27.2379 123.969 27.5777 123.902 27.9293 123.77C28.2808 123.637 28.6011 123.445 28.8902 123.195C29.1871 122.938 29.4293 122.625 29.6168 122.258C29.8121 121.891 29.9097 121.477 29.9097 121.016C29.9097 120.547 29.8238 120.109 29.6519 119.703C29.4801 119.297 29.2418 118.945 28.9371 118.648C28.6402 118.344 28.2847 118.105 27.8707 117.934C27.4644 117.762 27.023 117.676 26.5465 117.676C25.6793 117.676 25.0152 117.902 24.5543 118.355C24.0933 118.801 23.8629 119.488 23.8629 120.418C23.8629 120.926 23.9371 121.398 24.0855 121.836C24.2418 122.266 24.4566 122.641 24.7301 122.961C25.0035 123.273 25.3238 123.52 25.691 123.699C26.066 123.879 26.4722 123.969 26.9097 123.969ZM39.8519 116.234C39.5629 116.234 39.309 116.312 39.0902 116.469C38.8715 116.617 38.684 116.828 38.5277 117.102C38.3715 117.367 38.2426 117.684 38.141 118.051C38.0394 118.41 37.9574 118.805 37.8949 119.234C37.8324 119.664 37.7894 120.113 37.766 120.582C37.7426 121.051 37.7308 121.523 37.7308 122C37.7308 122.625 37.7543 123.242 37.8011 123.852C37.8558 124.453 37.8832 125.012 37.8832 125.527C37.8832 125.863 37.7582 126.125 37.5082 126.312C37.2582 126.508 36.9027 126.605 36.4418 126.605C36.3558 126.605 36.2582 126.598 36.1488 126.582C36.0394 126.566 35.934 126.535 35.8324 126.488C35.7386 126.441 35.6527 126.375 35.5746 126.289C35.5043 126.211 35.4652 126.102 35.4574 125.961C35.3871 125.273 35.2855 124.57 35.1527 123.852C35.0199 123.133 34.8519 122.418 34.6488 121.707C34.4535 120.988 34.2152 120.277 33.934 119.574C33.6605 118.871 33.3441 118.184 32.9847 117.512C32.9222 117.395 32.8676 117.285 32.8207 117.184C32.7816 117.082 32.7621 116.984 32.7621 116.891C32.7621 116.773 32.8129 116.648 32.9144 116.516C33.0238 116.375 33.1566 116.246 33.3129 116.129C33.4769 116.012 33.6527 115.918 33.8402 115.848C34.0355 115.77 34.223 115.73 34.4027 115.73C34.6996 115.73 34.9613 115.938 35.1879 116.352C35.4144 116.758 35.6254 117.41 35.8207 118.309C35.8597 118.465 35.891 118.574 35.9144 118.637C35.9379 118.699 35.9691 118.73 36.0082 118.73C36.0941 118.73 36.1488 118.598 36.1722 118.332C36.266 117.59 36.4261 116.953 36.6527 116.422C36.8793 115.883 37.1605 115.441 37.4965 115.098C37.8402 114.746 38.2308 114.488 38.6683 114.324C39.1136 114.16 39.6019 114.078 40.1332 114.078C40.4379 114.078 40.7465 114.105 41.059 114.16C41.3715 114.215 41.6527 114.297 41.9027 114.406C42.1527 114.516 42.3558 114.648 42.5121 114.805C42.6683 114.961 42.7465 115.137 42.7465 115.332C42.7465 115.473 42.7152 115.641 42.6527 115.836C42.598 116.023 42.5238 116.207 42.4301 116.387C42.3363 116.559 42.2269 116.707 42.1019 116.832C41.9847 116.949 41.8636 117.008 41.7386 117.008C41.598 117.008 41.4613 116.969 41.3285 116.891C41.1957 116.805 41.0511 116.715 40.8949 116.621C40.7465 116.527 40.5863 116.441 40.4144 116.363C40.2504 116.277 40.0629 116.234 39.8519 116.234ZM51.9902 125.316C51.5215 125.316 51.0527 125.203 50.584 124.977C50.1152 124.742 49.666 124.426 49.2363 124.027C48.8066 123.629 48.4082 123.16 48.041 122.621C47.6738 122.074 47.3535 121.488 47.0801 120.863C46.8066 120.23 46.5918 119.57 46.4355 118.883C46.2793 118.195 46.2011 117.508 46.2011 116.82C46.2011 116.289 46.3105 115.91 46.5293 115.684C46.748 115.449 47.1035 115.332 47.5957 115.332C48.2129 115.332 48.5566 115.586 48.6269 116.094C48.7676 117.172 48.9629 118.145 49.2129 119.012C49.4629 119.879 49.7558 120.617 50.0918 121.227C50.4355 121.836 50.8144 122.305 51.2285 122.633C51.6504 122.961 52.0957 123.125 52.5644 123.125C52.9004 123.125 53.2168 123.043 53.5136 122.879C53.8105 122.707 54.0683 122.469 54.2871 122.164C54.3652 122.047 54.416 121.934 54.4394 121.824C54.4707 121.715 54.4941 121.59 54.5097 121.449C54.5488 120.895 54.5918 120.352 54.6386 119.82C54.6933 119.281 54.7441 118.742 54.791 118.203C54.8066 117.969 54.8379 117.777 54.8847 117.629C54.9316 117.48 55.0019 117.363 55.0957 117.277C55.1894 117.191 55.3105 117.133 55.459 117.102C55.6152 117.07 55.8105 117.055 56.0449 117.055C56.3105 117.055 56.5371 117.094 56.7246 117.172C56.9121 117.242 57.0644 117.363 57.1816 117.535C57.2988 117.699 57.3808 117.918 57.4277 118.191C57.4824 118.457 57.5097 118.789 57.5097 119.188C57.5097 119.531 57.4824 119.832 57.4277 120.09C57.3808 120.34 57.3222 120.578 57.2519 120.805C57.1894 121.023 57.1269 121.242 57.0644 121.461C57.0097 121.672 56.9746 121.906 56.959 122.164C56.9199 122.812 56.8847 123.375 56.8535 123.852C56.8222 124.32 56.7949 124.723 56.7715 125.059C56.7558 125.395 56.7402 125.684 56.7246 125.926C56.7168 126.168 56.709 126.383 56.7011 126.57C56.6933 126.766 56.6894 126.949 56.6894 127.121C56.6894 127.293 56.6894 127.48 56.6894 127.684C56.6894 128.051 56.7051 128.449 56.7363 128.879C56.7676 129.316 56.7988 129.734 56.8301 130.133C56.8691 130.531 56.9043 130.883 56.9355 131.188C56.9668 131.492 56.9824 131.703 56.9824 131.82C56.9824 131.969 56.9355 132.109 56.8418 132.242C56.748 132.375 56.623 132.492 56.4668 132.594C56.3105 132.695 56.1269 132.773 55.916 132.828C55.7051 132.891 55.4824 132.922 55.248 132.922C55.0449 132.922 54.8808 132.852 54.7558 132.711C54.6386 132.578 54.5722 132.398 54.5566 132.172C54.5332 131.875 54.5136 131.512 54.498 131.082C54.4824 130.66 54.4668 130.207 54.4511 129.723C54.4355 129.246 54.4238 128.758 54.416 128.258C54.416 127.766 54.4121 127.305 54.4043 126.875C54.3965 126.453 54.3926 126.082 54.3926 125.762C54.3926 125.441 54.3926 125.211 54.3926 125.07C54.3926 124.93 54.3769 124.832 54.3457 124.777C54.3144 124.715 54.2558 124.684 54.1699 124.684C54.123 124.684 54.0605 124.699 53.9824 124.73C53.9043 124.754 53.8144 124.797 53.7129 124.859C53.4394 125.023 53.1621 125.141 52.8808 125.211C52.5996 125.281 52.3027 125.316 51.9902 125.316ZM58.7683 121.109C58.7683 120.977 58.784 120.828 58.8152 120.664C58.8465 120.5 58.8621 120.32 58.8621 120.125C58.8621 119.992 58.8035 119.891 58.6863 119.82C58.5769 119.75 58.4519 119.672 58.3113 119.586C58.1707 119.5 58.0418 119.391 57.9246 119.258C57.8152 119.125 57.7605 118.934 57.7605 118.684C57.7605 118.504 57.8074 118.324 57.9011 118.145C58.0027 117.965 58.1472 117.801 58.3347 117.652C58.7957 117.309 59.2722 117 59.7644 116.727C60.2644 116.453 60.7605 116.223 61.2527 116.035C61.7527 115.848 62.2449 115.703 62.7293 115.602C63.2136 115.5 63.6785 115.449 64.1238 115.449C64.8738 115.449 65.5769 115.59 66.2332 115.871C66.8972 116.145 67.4715 116.523 67.9558 117.008C68.448 117.484 68.8347 118.047 69.116 118.695C69.4051 119.336 69.5496 120.023 69.5496 120.758C69.5496 121.477 69.3972 122.16 69.0926 122.809C68.7957 123.449 68.3933 124.012 67.8855 124.496C67.3777 124.98 66.7801 125.363 66.0926 125.645C65.4129 125.934 64.6941 126.078 63.9363 126.078C63.1941 126.078 62.5066 125.953 61.8738 125.703C61.241 125.453 60.6941 125.109 60.2332 124.672C59.7722 124.227 59.4129 123.703 59.1551 123.102C58.8972 122.492 58.7683 121.828 58.7683 121.109ZM64.1941 123.969C64.5222 123.969 64.8621 123.902 65.2136 123.77C65.5652 123.637 65.8855 123.445 66.1746 123.195C66.4715 122.938 66.7136 122.625 66.9011 122.258C67.0965 121.891 67.1941 121.477 67.1941 121.016C67.1941 120.547 67.1082 120.109 66.9363 119.703C66.7644 119.297 66.5261 118.945 66.2215 118.648C65.9246 118.344 65.5691 118.105 65.1551 117.934C64.7488 117.762 64.3074 117.676 63.8308 117.676C62.9636 117.676 62.2996 117.902 61.8386 118.355C61.3777 118.801 61.1472 119.488 61.1472 120.418C61.1472 120.926 61.2215 121.398 61.3699 121.836C61.5261 122.266 61.741 122.641 62.0144 122.961C62.2879 123.273 62.6082 123.52 62.9754 123.699C63.3504 123.879 63.7566 123.969 64.1941 123.969ZM73.2457 120.852C73.2457 121.898 73.4058 122.707 73.7262 123.277C74.0465 123.848 74.5113 124.133 75.1207 124.133C75.5035 124.133 75.8551 124.02 76.1754 123.793C76.5035 123.566 76.7847 123.25 77.0191 122.844C77.2535 122.438 77.4332 121.957 77.5582 121.402C77.691 120.84 77.7574 120.23 77.7574 119.574C77.7574 119.176 77.7418 118.832 77.7105 118.543C77.6793 118.246 77.6441 117.984 77.6051 117.758C77.5738 117.523 77.5426 117.316 77.5113 117.137C77.4801 116.957 77.4644 116.785 77.4644 116.621C77.4644 116.371 77.5699 116.191 77.7808 116.082C77.9918 115.965 78.3277 115.906 78.7887 115.906C79.3746 115.906 79.8277 116.039 80.148 116.305C80.4762 116.57 80.6402 116.957 80.6402 117.465C80.6402 118.848 80.5035 120.09 80.2301 121.191C79.9644 122.293 79.5777 123.23 79.0699 124.004C78.5699 124.77 77.9605 125.359 77.2418 125.773C76.523 126.188 75.7183 126.395 74.8277 126.395C74.1949 126.395 73.609 126.262 73.0699 125.996C72.5387 125.738 72.0777 125.375 71.6871 124.906C71.3043 124.43 71.0035 123.867 70.7847 123.219C70.566 122.562 70.4566 121.844 70.4566 121.062C70.4566 120.766 70.4644 120.449 70.4801 120.113C70.4957 119.777 70.5191 119.418 70.5504 119.035C70.5816 118.645 70.6207 118.223 70.6676 117.77C70.7222 117.316 70.7808 116.824 70.8433 116.293C70.8668 116.066 70.9722 115.887 71.1597 115.754C71.3551 115.613 71.6012 115.543 71.898 115.543C72.1637 115.543 72.4137 115.57 72.648 115.625C72.8824 115.68 73.0816 115.754 73.2457 115.848C73.4176 115.941 73.5504 116.051 73.6441 116.176C73.7457 116.301 73.7965 116.434 73.7965 116.574C73.7965 116.715 73.7652 116.938 73.7027 117.242C73.648 117.539 73.5855 117.883 73.5152 118.273C73.4527 118.656 73.3902 119.074 73.3277 119.527C73.273 119.973 73.2457 120.414 73.2457 120.852ZM88.1097 116.234C87.8207 116.234 87.5668 116.312 87.348 116.469C87.1293 116.617 86.9418 116.828 86.7855 117.102C86.6293 117.367 86.5004 117.684 86.3988 118.051C86.2972 118.41 86.2152 118.805 86.1527 119.234C86.0902 119.664 86.0472 120.113 86.0238 120.582C86.0004 121.051 85.9886 121.523 85.9886 122C85.9886 122.625 86.0121 123.242 86.059 123.852C86.1136 124.453 86.141 125.012 86.141 125.527C86.141 125.863 86.016 126.125 85.766 126.312C85.516 126.508 85.1605 126.605 84.6996 126.605C84.6136 126.605 84.516 126.598 84.4066 126.582C84.2972 126.566 84.1918 126.535 84.0902 126.488C83.9965 126.441 83.9105 126.375 83.8324 126.289C83.7621 126.211 83.723 126.102 83.7152 125.961C83.6449 125.273 83.5433 124.57 83.4105 123.852C83.2777 123.133 83.1097 122.418 82.9066 121.707C82.7113 120.988 82.473 120.277 82.1918 119.574C81.9183 118.871 81.6019 118.184 81.2426 117.512C81.1801 117.395 81.1254 117.285 81.0785 117.184C81.0394 117.082 81.0199 116.984 81.0199 116.891C81.0199 116.773 81.0707 116.648 81.1722 116.516C81.2816 116.375 81.4144 116.246 81.5707 116.129C81.7347 116.012 81.9105 115.918 82.098 115.848C82.2933 115.77 82.4808 115.73 82.6605 115.73C82.9574 115.73 83.2191 115.938 83.4457 116.352C83.6722 116.758 83.8832 117.41 84.0785 118.309C84.1176 118.465 84.1488 118.574 84.1722 118.637C84.1957 118.699 84.2269 118.73 84.266 118.73C84.3519 118.73 84.4066 118.598 84.4301 118.332C84.5238 117.59 84.684 116.953 84.9105 116.422C85.1371 115.883 85.4183 115.441 85.7543 115.098C86.098 114.746 86.4886 114.488 86.9261 114.324C87.3715 114.16 87.8597 114.078 88.391 114.078C88.6957 114.078 89.0043 114.105 89.3168 114.16C89.6293 114.215 89.9105 114.297 90.1605 114.406C90.4105 114.516 90.6136 114.648 90.7699 114.805C90.9261 114.961 91.0043 115.137 91.0043 115.332C91.0043 115.473 90.973 115.641 90.9105 115.836C90.8558 116.023 90.7816 116.207 90.6879 116.387C90.5941 116.559 90.4847 116.707 90.3597 116.832C90.2426 116.949 90.1215 117.008 89.9965 117.008C89.8558 117.008 89.7191 116.969 89.5863 116.891C89.4535 116.805 89.309 116.715 89.1527 116.621C89.0043 116.527 88.8441 116.441 88.6722 116.363C88.5082 116.277 88.3207 116.234 88.1097 116.234ZM99.498 115.332C99.9043 115.332 100.299 115.391 100.682 115.508C101.064 115.625 101.4 115.785 101.689 115.988C101.986 116.184 102.225 116.41 102.404 116.668C102.584 116.918 102.674 117.176 102.674 117.441C102.674 117.613 102.639 117.781 102.568 117.945C102.498 118.102 102.404 118.242 102.287 118.367C102.17 118.484 102.037 118.582 101.889 118.66C101.74 118.73 101.584 118.766 101.42 118.766C101.24 118.766 101.076 118.699 100.928 118.566C100.779 118.426 100.619 118.273 100.447 118.109C100.283 117.938 100.096 117.785 99.8847 117.652C99.6816 117.512 99.4355 117.441 99.1465 117.441C98.8652 117.441 98.6113 117.508 98.3847 117.641C98.1582 117.773 97.9668 117.961 97.8105 118.203C97.6621 118.438 97.5449 118.719 97.459 119.047C97.3808 119.367 97.3418 119.719 97.3418 120.102C97.3418 121.195 97.5488 122.031 97.9629 122.609C98.3769 123.18 98.9707 123.465 99.7441 123.465C100.111 123.465 100.424 123.406 100.682 123.289C100.947 123.172 101.178 123.043 101.373 122.902C101.576 122.762 101.76 122.633 101.924 122.516C102.088 122.398 102.256 122.34 102.428 122.34C102.521 122.34 102.615 122.371 102.709 122.434C102.803 122.488 102.885 122.562 102.955 122.656C103.033 122.742 103.096 122.84 103.143 122.949C103.197 123.059 103.225 123.168 103.225 123.277C103.225 123.535 103.096 123.801 102.838 124.074C102.588 124.348 102.264 124.598 101.865 124.824C101.467 125.043 101.021 125.223 100.529 125.363C100.045 125.504 99.5722 125.574 99.1113 125.574C98.4941 125.574 97.9277 125.453 97.4121 125.211C96.8965 124.977 96.4511 124.648 96.0761 124.227C95.7011 123.797 95.4082 123.285 95.1972 122.691C94.9941 122.098 94.8926 121.441 94.8926 120.723C94.8926 119.941 95.0058 119.223 95.2324 118.566C95.4668 117.91 95.7871 117.344 96.1933 116.867C96.6074 116.383 97.0957 116.008 97.6582 115.742C98.2207 115.469 98.834 115.332 99.498 115.332ZM105.678 120.852C105.678 121.898 105.839 122.707 106.159 123.277C106.479 123.848 106.944 124.133 107.553 124.133C107.936 124.133 108.288 124.02 108.608 123.793C108.936 123.566 109.218 123.25 109.452 122.844C109.686 122.438 109.866 121.957 109.991 121.402C110.124 120.84 110.19 120.23 110.19 119.574C110.19 119.176 110.175 118.832 110.143 118.543C110.112 118.246 110.077 117.984 110.038 117.758C110.007 117.523 109.975 117.316 109.944 117.137C109.913 116.957 109.897 116.785 109.897 116.621C109.897 116.371 110.003 116.191 110.214 116.082C110.425 115.965 110.761 115.906 111.221 115.906C111.807 115.906 112.261 116.039 112.581 116.305C112.909 116.57 113.073 116.957 113.073 117.465C113.073 118.848 112.936 120.09 112.663 121.191C112.397 122.293 112.011 123.23 111.503 124.004C111.003 124.77 110.393 125.359 109.675 125.773C108.956 126.188 108.151 126.395 107.261 126.395C106.628 126.395 106.042 126.262 105.503 125.996C104.971 125.738 104.511 125.375 104.12 124.906C103.737 124.43 103.436 123.867 103.218 123.219C102.999 122.562 102.889 121.844 102.889 121.062C102.889 120.766 102.897 120.449 102.913 120.113C102.928 119.777 102.952 119.418 102.983 119.035C103.014 118.645 103.053 118.223 103.1 117.77C103.155 117.316 103.214 116.824 103.276 116.293C103.3 116.066 103.405 115.887 103.593 115.754C103.788 115.613 104.034 115.543 104.331 115.543C104.596 115.543 104.846 115.57 105.081 115.625C105.315 115.68 105.514 115.754 105.678 115.848C105.85 115.941 105.983 116.051 106.077 116.176C106.178 116.301 106.229 116.434 106.229 116.574C106.229 116.715 106.198 116.938 106.136 117.242C106.081 117.539 106.018 117.883 105.948 118.273C105.886 118.656 105.823 119.074 105.761 119.527C105.706 119.973 105.678 120.414 105.678 120.852ZM117.109 114.828C117.632 114.828 118.171 114.898 118.726 115.039C119.281 115.172 119.789 115.348 120.25 115.566C120.711 115.777 121.089 116.016 121.386 116.281C121.683 116.547 121.832 116.805 121.832 117.055C121.832 117.18 121.777 117.32 121.668 117.477C121.558 117.625 121.425 117.77 121.269 117.91C121.113 118.043 120.941 118.156 120.753 118.25C120.574 118.336 120.414 118.379 120.273 118.379C120.086 118.379 119.875 118.301 119.64 118.145C119.414 117.988 119.16 117.816 118.878 117.629C118.605 117.434 118.304 117.258 117.976 117.102C117.648 116.945 117.293 116.867 116.91 116.867C116.66 116.867 116.453 116.93 116.289 117.055C116.132 117.172 116.054 117.34 116.054 117.559C116.054 117.754 116.148 117.953 116.336 118.156C116.523 118.352 116.769 118.555 117.074 118.766C117.386 118.977 117.738 119.199 118.128 119.434C118.519 119.668 118.918 119.918 119.324 120.184C119.738 120.449 120.14 120.738 120.531 121.051C120.921 121.363 121.269 121.703 121.574 122.07C121.886 122.438 122.136 122.84 122.324 123.277C122.511 123.707 122.605 124.176 122.605 124.684C122.605 125.121 122.527 125.52 122.371 125.879C122.214 126.238 121.992 126.547 121.703 126.805C121.414 127.062 121.07 127.262 120.671 127.402C120.273 127.543 119.836 127.613 119.359 127.613C118.757 127.613 118.203 127.52 117.695 127.332C117.187 127.152 116.75 126.902 116.382 126.582C116.015 126.262 115.726 125.879 115.515 125.434C115.312 124.988 115.211 124.5 115.211 123.969C115.211 123.281 115.332 122.781 115.574 122.469C115.824 122.156 116.214 122 116.746 122C117.074 122 117.336 122.062 117.531 122.188C117.726 122.312 117.824 122.465 117.824 122.645C117.824 122.738 117.808 122.836 117.777 122.938C117.746 123.031 117.711 123.133 117.671 123.242C117.64 123.344 117.609 123.453 117.578 123.57C117.554 123.688 117.543 123.805 117.543 123.922C117.543 124.125 117.589 124.32 117.683 124.508C117.777 124.695 117.902 124.859 118.058 125C118.222 125.148 118.41 125.266 118.621 125.352C118.832 125.438 119.054 125.48 119.289 125.48C119.914 125.48 120.226 125.223 120.226 124.707C120.226 124.301 120.066 123.918 119.746 123.559C119.425 123.191 119.023 122.836 118.539 122.492C118.054 122.141 117.531 121.789 116.968 121.438C116.414 121.086 115.894 120.719 115.41 120.336C114.925 119.953 114.523 119.547 114.203 119.117C113.882 118.68 113.722 118.207 113.722 117.699C113.722 117.277 113.808 116.891 113.98 116.539C114.16 116.188 114.402 115.887 114.707 115.637C115.011 115.379 115.367 115.18 115.773 115.039C116.187 114.898 116.632 114.828 117.109 114.828ZM123.817 111.465C123.817 111.051 123.934 110.762 124.168 110.598C124.403 110.426 124.789 110.34 125.328 110.34C125.524 110.34 125.688 110.359 125.821 110.398C125.961 110.43 126.078 110.492 126.172 110.586C126.274 110.68 126.352 110.805 126.407 110.961C126.469 111.109 126.52 111.301 126.559 111.535C126.653 112.262 126.754 113.012 126.864 113.785C126.981 114.559 127.102 115.336 127.227 116.117C127.274 116.469 127.457 116.645 127.778 116.645C127.864 116.645 128.004 116.637 128.2 116.621C128.403 116.598 128.641 116.574 128.914 116.551C129.188 116.52 129.481 116.488 129.793 116.457C130.114 116.426 130.43 116.398 130.743 116.375C131.063 116.344 131.364 116.32 131.645 116.305C131.934 116.281 132.188 116.27 132.407 116.27C132.578 116.27 132.715 116.305 132.817 116.375C132.918 116.438 132.996 116.523 133.051 116.633C133.114 116.734 133.153 116.852 133.168 116.984C133.192 117.109 133.203 117.238 133.203 117.371C133.203 117.488 133.18 117.609 133.133 117.734C133.094 117.859 133.036 117.973 132.957 118.074C132.887 118.168 132.797 118.246 132.688 118.309C132.578 118.371 132.453 118.402 132.313 118.402C131.633 118.402 130.946 118.426 130.25 118.473C129.563 118.512 128.875 118.566 128.188 118.637C127.836 118.684 127.661 118.859 127.661 119.164C127.661 119.188 127.664 119.219 127.672 119.258C127.68 119.289 127.684 119.316 127.684 119.34C127.778 120.02 127.864 120.656 127.942 121.25C128.028 121.844 128.098 122.375 128.153 122.844C128.215 123.305 128.262 123.691 128.293 124.004C128.332 124.309 128.352 124.512 128.352 124.613C128.352 124.895 128.325 125.129 128.27 125.316C128.215 125.512 128.125 125.668 128 125.785C127.875 125.91 127.707 125.996 127.496 126.043C127.293 126.098 127.036 126.125 126.723 126.125C126.426 126.125 126.207 126.055 126.067 125.914C125.926 125.773 125.848 125.559 125.832 125.27C125.786 124.348 125.711 123.422 125.61 122.492C125.508 121.555 125.391 120.621 125.258 119.691C125.188 119.355 125.012 119.188 124.731 119.188C124.707 119.188 124.68 119.191 124.649 119.199C124.618 119.207 124.59 119.211 124.567 119.211C124.082 119.32 123.625 119.43 123.196 119.539C122.766 119.648 122.364 119.766 121.989 119.891C121.778 119.961 121.59 120.012 121.426 120.043C121.262 120.066 121.114 120.078 120.981 120.078C120.801 120.078 120.668 120 120.582 119.844C120.496 119.68 120.453 119.477 120.453 119.234C120.453 119.148 120.461 119.051 120.477 118.941C120.493 118.824 120.524 118.711 120.571 118.602C120.61 118.484 120.672 118.379 120.758 118.285C120.836 118.184 120.946 118.102 121.086 118.039C121.414 117.906 121.852 117.77 122.399 117.629C122.946 117.48 123.563 117.344 124.25 117.219C124.407 117.18 124.528 117.117 124.614 117.031C124.707 116.938 124.754 116.801 124.754 116.621C124.754 116.582 124.754 116.543 124.754 116.504C124.754 116.457 124.746 116.41 124.731 116.363C124.606 115.645 124.485 114.992 124.368 114.406C124.258 113.812 124.161 113.305 124.075 112.883C123.996 112.461 123.934 112.129 123.887 111.887C123.84 111.645 123.817 111.504 123.817 111.465ZM132.376 121.109C132.376 120.977 132.392 120.828 132.423 120.664C132.454 120.5 132.47 120.32 132.47 120.125C132.47 119.992 132.411 119.891 132.294 119.82C132.185 119.75 132.06 119.672 131.919 119.586C131.778 119.5 131.65 119.391 131.532 119.258C131.423 119.125 131.368 118.934 131.368 118.684C131.368 118.504 131.415 118.324 131.509 118.145C131.611 117.965 131.755 117.801 131.943 117.652C132.403 117.309 132.88 117 133.372 116.727C133.872 116.453 134.368 116.223 134.861 116.035C135.361 115.848 135.853 115.703 136.337 115.602C136.821 115.5 137.286 115.449 137.732 115.449C138.482 115.449 139.185 115.59 139.841 115.871C140.505 116.145 141.079 116.523 141.564 117.008C142.056 117.484 142.443 118.047 142.724 118.695C143.013 119.336 143.157 120.023 143.157 120.758C143.157 121.477 143.005 122.16 142.7 122.809C142.403 123.449 142.001 124.012 141.493 124.496C140.986 124.98 140.388 125.363 139.7 125.645C139.021 125.934 138.302 126.078 137.544 126.078C136.802 126.078 136.114 125.953 135.482 125.703C134.849 125.453 134.302 125.109 133.841 124.672C133.38 124.227 133.021 123.703 132.763 123.102C132.505 122.492 132.376 121.828 132.376 121.109ZM137.802 123.969C138.13 123.969 138.47 123.902 138.821 123.77C139.173 123.637 139.493 123.445 139.782 123.195C140.079 122.938 140.321 122.625 140.509 122.258C140.704 121.891 140.802 121.477 140.802 121.016C140.802 120.547 140.716 120.109 140.544 119.703C140.372 119.297 140.134 118.945 139.829 118.648C139.532 118.344 139.177 118.105 138.763 117.934C138.357 117.762 137.915 117.676 137.439 117.676C136.571 117.676 135.907 117.902 135.446 118.355C134.986 118.801 134.755 119.488 134.755 120.418C134.755 120.926 134.829 121.398 134.978 121.836C135.134 122.266 135.349 122.641 135.622 122.961C135.896 123.273 136.216 123.52 136.583 123.699C136.958 123.879 137.364 123.969 137.802 123.969ZM145.436 125.504C145.381 124.465 145.291 123.508 145.166 122.633C145.049 121.75 144.924 120.98 144.791 120.324C144.666 119.668 144.553 119.137 144.451 118.73C144.357 118.324 144.311 118.07 144.311 117.969C144.311 117.82 144.365 117.676 144.475 117.535C144.592 117.395 144.736 117.273 144.908 117.172C145.08 117.062 145.264 116.977 145.459 116.914C145.662 116.852 145.846 116.82 146.01 116.82C146.143 116.82 146.256 116.844 146.35 116.891C146.451 116.938 146.521 117.016 146.561 117.125C146.6 117.258 146.635 117.398 146.666 117.547C146.705 117.688 146.744 117.859 146.783 118.062C146.83 118.352 146.893 118.496 146.971 118.496C147.057 118.496 147.154 118.367 147.264 118.109C147.42 117.75 147.588 117.453 147.768 117.219C147.947 116.984 148.139 116.801 148.342 116.668C148.553 116.527 148.768 116.43 148.986 116.375C149.213 116.32 149.447 116.293 149.689 116.293C150.424 116.293 151.045 116.582 151.553 117.16C152.068 117.738 152.471 118.574 152.76 119.668C152.799 119.793 152.834 119.875 152.865 119.914C152.896 119.945 152.932 119.961 152.971 119.961C153.01 119.961 153.049 119.945 153.088 119.914C153.135 119.875 153.178 119.801 153.217 119.691C153.404 119.184 153.623 118.754 153.873 118.402C154.123 118.043 154.381 117.754 154.646 117.535C154.92 117.309 155.197 117.145 155.478 117.043C155.76 116.941 156.029 116.891 156.287 116.891C156.764 116.891 157.193 117.066 157.576 117.418C157.967 117.762 158.311 118.297 158.607 119.023C158.912 119.742 159.174 120.656 159.393 121.766C159.619 122.867 159.807 124.176 159.955 125.691C159.955 126.113 159.826 126.406 159.568 126.57C159.311 126.742 158.959 126.828 158.514 126.828C158.225 126.828 157.998 126.766 157.834 126.641C157.67 126.516 157.576 126.352 157.553 126.148C157.451 125.062 157.338 124.098 157.213 123.254C157.096 122.402 156.967 121.688 156.826 121.109C156.686 120.523 156.529 120.078 156.357 119.773C156.193 119.469 156.01 119.316 155.807 119.316C155.705 119.316 155.576 119.391 155.42 119.539C155.271 119.688 155.111 119.961 154.939 120.359C154.768 120.75 154.588 121.289 154.4 121.977C154.213 122.656 154.033 123.527 153.861 124.59C153.814 124.887 153.67 125.113 153.428 125.27C153.193 125.426 152.904 125.504 152.561 125.504C152.162 125.504 151.885 125.441 151.728 125.316C151.58 125.191 151.498 124.98 151.482 124.684C151.451 124.168 151.396 123.656 151.318 123.148C151.248 122.633 151.158 122.145 151.049 121.684C150.939 121.215 150.818 120.785 150.686 120.395C150.553 119.996 150.412 119.652 150.264 119.363C150.115 119.066 149.963 118.836 149.807 118.672C149.65 118.508 149.498 118.426 149.35 118.426C149.154 118.426 148.963 118.562 148.775 118.836C148.596 119.109 148.432 119.496 148.283 119.996C148.143 120.496 148.029 121.098 147.943 121.801C147.857 122.504 147.814 123.289 147.814 124.156C147.814 124.305 147.818 124.453 147.826 124.602C147.834 124.742 147.838 124.891 147.838 125.047C147.838 125.281 147.799 125.473 147.721 125.621C147.65 125.77 147.545 125.887 147.404 125.973C147.271 126.059 147.115 126.117 146.936 126.148C146.756 126.18 146.561 126.195 146.35 126.195C146.154 126.195 145.998 126.18 145.881 126.148C145.764 126.125 145.674 126.086 145.611 126.031C145.549 125.977 145.506 125.902 145.482 125.809C145.459 125.723 145.443 125.621 145.436 125.504ZM171.104 122.434C171.331 122.238 171.553 122.141 171.772 122.141C171.897 122.141 172.011 122.172 172.112 122.234C172.214 122.297 172.327 122.395 172.452 122.527C172.569 122.707 172.651 122.855 172.698 122.973C172.753 123.082 172.78 123.191 172.78 123.301C172.78 123.535 172.663 123.758 172.428 123.969C172.053 124.281 171.647 124.562 171.21 124.812C170.772 125.055 170.315 125.262 169.839 125.434C169.362 125.605 168.87 125.734 168.362 125.82C167.854 125.914 167.35 125.961 166.85 125.961C166.218 125.961 165.624 125.879 165.069 125.715C164.514 125.559 164.018 125.332 163.581 125.035C163.151 124.738 162.788 124.383 162.491 123.969C162.194 123.547 161.983 123.074 161.858 122.551C161.788 122.332 161.721 122.191 161.659 122.129C161.604 122.059 161.511 122.023 161.378 122.023C161.089 122.023 160.866 121.953 160.71 121.812C160.553 121.672 160.475 121.469 160.475 121.203C160.475 121.094 160.483 121.023 160.499 120.992L160.522 120.758C160.561 120.477 160.636 120.273 160.745 120.148C160.862 120.023 161.042 119.961 161.284 119.961H161.46C161.788 119.961 162.018 119.809 162.151 119.504C162.393 118.965 162.702 118.473 163.077 118.027C163.452 117.582 163.874 117.203 164.343 116.891C164.811 116.57 165.311 116.324 165.843 116.152C166.382 115.973 166.928 115.883 167.483 115.883C168.061 115.883 168.6 115.969 169.1 116.141C169.608 116.305 170.05 116.535 170.425 116.832C170.8 117.129 171.093 117.477 171.303 117.875C171.522 118.273 171.632 118.703 171.632 119.164C171.632 119.484 171.569 119.777 171.444 120.043C171.319 120.309 171.139 120.543 170.905 120.746C170.671 120.941 170.386 121.102 170.05 121.227C169.721 121.352 169.346 121.434 168.925 121.473L164.858 121.883C164.702 121.883 164.573 121.922 164.471 122C164.378 122.078 164.331 122.184 164.331 122.316C164.331 122.52 164.405 122.715 164.553 122.902C164.71 123.09 164.913 123.258 165.163 123.406C165.421 123.547 165.714 123.66 166.042 123.746C166.378 123.832 166.721 123.875 167.073 123.875C167.409 123.875 167.753 123.844 168.104 123.781C168.464 123.711 168.815 123.613 169.159 123.488C169.511 123.363 169.85 123.215 170.178 123.043C170.507 122.863 170.815 122.66 171.104 122.434ZM168.491 119.41C168.608 119.387 168.71 119.332 168.796 119.246C168.882 119.152 168.925 119.039 168.925 118.906C168.925 118.789 168.882 118.68 168.796 118.578C168.71 118.477 168.593 118.387 168.444 118.309C168.296 118.223 168.124 118.156 167.928 118.109C167.733 118.062 167.526 118.039 167.307 118.039C166.987 118.039 166.659 118.086 166.323 118.18C165.987 118.273 165.682 118.398 165.409 118.555C165.136 118.703 164.913 118.871 164.741 119.059C164.569 119.238 164.483 119.418 164.483 119.598C164.483 119.777 164.593 119.867 164.811 119.867C164.944 119.867 165.159 119.852 165.456 119.82C165.753 119.789 166.081 119.754 166.44 119.715C166.8 119.668 167.163 119.617 167.53 119.562C167.897 119.508 168.218 119.457 168.491 119.41ZM179.582 116.234C179.293 116.234 179.039 116.312 178.82 116.469C178.601 116.617 178.414 116.828 178.257 117.102C178.101 117.367 177.972 117.684 177.871 118.051C177.769 118.41 177.687 118.805 177.625 119.234C177.562 119.664 177.519 120.113 177.496 120.582C177.472 121.051 177.461 121.523 177.461 122C177.461 122.625 177.484 123.242 177.531 123.852C177.586 124.453 177.613 125.012 177.613 125.527C177.613 125.863 177.488 126.125 177.238 126.312C176.988 126.508 176.632 126.605 176.171 126.605C176.086 126.605 175.988 126.598 175.878 126.582C175.769 126.566 175.664 126.535 175.562 126.488C175.468 126.441 175.382 126.375 175.304 126.289C175.234 126.211 175.195 126.102 175.187 125.961C175.117 125.273 175.015 124.57 174.882 123.852C174.75 123.133 174.582 122.418 174.378 121.707C174.183 120.988 173.945 120.277 173.664 119.574C173.39 118.871 173.074 118.184 172.714 117.512C172.652 117.395 172.597 117.285 172.55 117.184C172.511 117.082 172.492 116.984 172.492 116.891C172.492 116.773 172.543 116.648 172.644 116.516C172.753 116.375 172.886 116.246 173.043 116.129C173.207 116.012 173.382 115.918 173.57 115.848C173.765 115.77 173.953 115.73 174.132 115.73C174.429 115.73 174.691 115.938 174.918 116.352C175.144 116.758 175.355 117.41 175.55 118.309C175.589 118.465 175.621 118.574 175.644 118.637C175.668 118.699 175.699 118.73 175.738 118.73C175.824 118.73 175.878 118.598 175.902 118.332C175.996 117.59 176.156 116.953 176.382 116.422C176.609 115.883 176.89 115.441 177.226 115.098C177.57 114.746 177.961 114.488 178.398 114.324C178.843 114.16 179.332 114.078 179.863 114.078C180.168 114.078 180.476 114.105 180.789 114.16C181.101 114.215 181.382 114.297 181.632 114.406C181.882 114.516 182.086 114.648 182.242 114.805C182.398 114.961 182.476 115.137 182.476 115.332C182.476 115.473 182.445 115.641 182.382 115.836C182.328 116.023 182.253 116.207 182.16 116.387C182.066 116.559 181.957 116.707 181.832 116.832C181.714 116.949 181.593 117.008 181.468 117.008C181.328 117.008 181.191 116.969 181.058 116.891C180.925 116.805 180.781 116.715 180.625 116.621C180.476 116.527 180.316 116.441 180.144 116.363C179.98 116.277 179.793 116.234 179.582 116.234Z" fill="#2C3B4E"/>
</svg>
