<svg width="209" height="162" viewBox="0 0 209 162" fill="none" xmlns="http://www.w3.org/2000/svg">
<path d="M188.635 159.749L203.82 145.876L189.946 130.691" stroke="#2C3B4E" stroke-width="3" stroke-linecap="round" stroke-linejoin="round"/>
<path d="M101.301 71.4897C100.174 67.7026 99.2648 63.8538 98.5789 59.9625" stroke="#2C3B4E" stroke-width="3" stroke-linecap="round" stroke-linejoin="round"/>
<path d="M109.991 92.1442C108.129 88.7877 106.454 85.331 104.974 81.7897" stroke="#2C3B4E" stroke-width="3" stroke-linecap="round" stroke-linejoin="round"/>
<path d="M97.2319 48.8621C97.1248 47.2558 97.0571 45.6368 97.0242 43.9998" stroke="#2C3B4E" stroke-width="3" stroke-linecap="round" stroke-linejoin="round"/>
<path d="M203.82 145.874C202.068 145.882 197.892 145.607 196.124 145.527C181.137 144.866 166.472 140.958 153.144 134.073C139.816 127.187 128.143 117.488 118.932 105.648C117.941 104.373 116.977 103.078 116.04 101.761" stroke="#2C3B4E" stroke-width="3" stroke-linecap="round" stroke-linejoin="round"/>
<path d="M61.0066 6.43359C60.8582 6.43359 60.6863 6.46094 60.491 6.51562C60.2957 6.5625 60.0926 6.62109 59.8816 6.69141C59.6707 6.75391 59.4597 6.8125 59.2488 6.86719C59.0457 6.91406 58.8621 6.9375 58.698 6.9375C58.5261 6.9375 58.3894 6.91016 58.2879 6.85547C58.1941 6.79297 58.1238 6.71484 58.0769 6.62109C58.0301 6.52734 58.0027 6.42578 57.9949 6.31641C57.9871 6.20703 57.9832 6.10156 57.9832 6C57.9832 5.70312 58.0691 5.46094 58.241 5.27344C58.4207 5.08594 58.6746 4.92969 59.0027 4.80469C59.3308 4.67188 59.7254 4.5625 60.1863 4.47656C60.6551 4.38281 61.1824 4.28125 61.7683 4.17188C62.6902 4 63.5301 3.86719 64.2879 3.77344C65.0535 3.67969 65.7801 3.61328 66.4676 3.57422C67.1629 3.52734 67.8426 3.5 68.5066 3.49219C69.1707 3.48438 69.8699 3.48047 70.6043 3.48047C70.823 3.48047 70.9949 3.50781 71.1199 3.5625C71.2449 3.61719 71.3347 3.6875 71.3894 3.77344C71.4519 3.85938 71.4871 3.95703 71.4949 4.06641C71.5105 4.17578 71.5183 4.28516 71.5183 4.39453C71.5183 4.51953 71.4988 4.65625 71.4597 4.80469C71.4285 4.94531 71.3699 5.07812 71.284 5.20312C71.2058 5.32031 71.0965 5.41797 70.9558 5.49609C70.823 5.57422 70.659 5.61328 70.4636 5.61328H69.5261C69.1511 5.61328 68.7527 5.61719 68.3308 5.625C67.909 5.625 67.491 5.63281 67.0769 5.64844C66.6629 5.65625 66.2644 5.67188 65.8816 5.69531C65.5066 5.71875 65.1707 5.75391 64.8738 5.80078C64.5847 5.83984 64.3543 5.89062 64.1824 5.95312C64.0105 6.01562 63.9246 6.09375 63.9246 6.1875C63.9246 6.28125 63.9597 6.4375 64.0301 6.65625C64.1004 6.875 64.1863 7.11328 64.2879 7.37109C64.3894 7.62109 64.491 7.87109 64.5926 8.12109C64.7019 8.36328 64.7918 8.56641 64.8621 8.73047C64.9246 8.86328 64.9949 8.95312 65.073 9C65.1511 9.04688 65.2566 9.07031 65.3894 9.07031C65.7097 9.07031 66.0379 9.05078 66.3738 9.01172C66.7097 8.97266 67.0457 8.92969 67.3816 8.88281C67.7254 8.82812 68.0652 8.78125 68.4011 8.74219C68.7449 8.70312 69.0847 8.68359 69.4207 8.68359C69.6082 8.68359 69.7605 8.71875 69.8777 8.78906C70.0027 8.85156 70.1004 8.93359 70.1707 9.03516C70.241 9.12891 70.2879 9.23047 70.3113 9.33984C70.3426 9.44922 70.3582 9.54297 70.3582 9.62109C70.3582 9.97266 70.2488 10.2383 70.0301 10.418C69.8113 10.5898 69.5144 10.7188 69.1394 10.8047C68.7644 10.8906 68.3269 10.9492 67.8269 10.9805C67.3347 11.0117 66.8113 11.0547 66.2566 11.1094L65.9754 11.1328C65.8738 11.1484 65.7957 11.1836 65.741 11.2383C65.6863 11.293 65.659 11.3633 65.659 11.4492C65.659 11.4727 65.6629 11.4922 65.6707 11.5078C65.6785 11.5234 65.6824 11.543 65.6824 11.5664C65.7527 11.8242 65.8347 12.1133 65.9285 12.4336C66.0222 12.7461 66.1082 13.0586 66.1863 13.3711C66.2722 13.6836 66.3426 13.9805 66.3972 14.2617C66.4519 14.543 66.4793 14.7734 66.4793 14.9531C66.4793 15.3125 66.3426 15.5859 66.0691 15.7734C65.8035 15.9609 65.4246 16.0547 64.9324 16.0547C64.7527 16.0547 64.5769 16.0117 64.4051 15.9258C64.241 15.8477 64.1394 15.6992 64.1004 15.4805C63.9754 14.8398 63.8347 14.2148 63.6785 13.6055C63.5222 12.9883 63.3582 12.375 63.1863 11.7656C63.116 11.5547 62.9793 11.4492 62.7761 11.4492C62.5418 11.4492 62.2761 11.4414 61.9793 11.4258C61.6902 11.4102 61.3933 11.3789 61.0886 11.332C60.784 11.2852 60.4871 11.2266 60.198 11.1562C59.9168 11.0781 59.6629 10.9766 59.4363 10.8516C59.2176 10.7266 59.0379 10.5781 58.8972 10.4062C58.7644 10.2344 58.698 10.0312 58.698 9.79688C58.698 9.64844 58.7332 9.50391 58.8035 9.36328C58.8738 9.21484 58.9636 9.08594 59.073 8.97656C59.1824 8.85938 59.2996 8.76562 59.4246 8.69531C59.5574 8.625 59.6824 8.58984 59.7996 8.58984C59.9402 8.58984 60.0926 8.625 60.2566 8.69531C60.4207 8.76562 60.5965 8.84375 60.784 8.92969C60.9715 9.01562 61.1707 9.09375 61.3816 9.16406C61.6004 9.23438 61.8347 9.26953 62.0847 9.26953C62.2097 9.26953 62.2722 9.20312 62.2722 9.07031C62.2722 8.94531 62.2488 8.78125 62.2019 8.57812C62.1629 8.375 62.1082 8.16406 62.0379 7.94531C61.9676 7.71875 61.8855 7.5 61.7918 7.28906C61.7058 7.07031 61.6121 6.88672 61.5105 6.73828C61.448 6.64453 61.3816 6.57031 61.3113 6.51562C61.2488 6.46094 61.1472 6.43359 61.0066 6.43359ZM71.3238 11.1094C71.3238 10.9766 71.3394 10.8281 71.3707 10.6641C71.4019 10.5 71.4175 10.3203 71.4175 10.125C71.4175 9.99219 71.359 9.89062 71.2418 9.82031C71.1324 9.75 71.0074 9.67188 70.8668 9.58594C70.7261 9.5 70.5972 9.39062 70.48 9.25781C70.3707 9.125 70.316 8.93359 70.316 8.68359C70.316 8.50391 70.3629 8.32422 70.4566 8.14453C70.5582 7.96484 70.7027 7.80078 70.8902 7.65234C71.3511 7.30859 71.8277 7 72.3199 6.72656C72.8199 6.45312 73.316 6.22266 73.8082 6.03516C74.3082 5.84766 74.8004 5.70312 75.2847 5.60156C75.7691 5.5 76.234 5.44922 76.6793 5.44922C77.4293 5.44922 78.1324 5.58984 78.7886 5.87109C79.4527 6.14453 80.0269 6.52344 80.5113 7.00781C81.0035 7.48438 81.3902 8.04688 81.6715 8.69531C81.9605 9.33594 82.105 10.0234 82.105 10.7578C82.105 11.4766 81.9527 12.1602 81.648 12.8086C81.3511 13.4492 80.9488 14.0117 80.441 14.4961C79.9332 14.9805 79.3355 15.3633 78.648 15.6445C77.9683 15.9336 77.2496 16.0781 76.4918 16.0781C75.7496 16.0781 75.0621 15.9531 74.4293 15.7031C73.7965 15.4531 73.2496 15.1094 72.7886 14.6719C72.3277 14.2266 71.9683 13.7031 71.7105 13.1016C71.4527 12.4922 71.3238 11.8281 71.3238 11.1094ZM76.7496 13.9688C77.0777 13.9688 77.4175 13.9023 77.7691 13.7695C78.1207 13.6367 78.441 13.4453 78.73 13.1953C79.0269 12.9375 79.2691 12.625 79.4566 12.2578C79.6519 11.8906 79.7496 11.4766 79.7496 11.0156C79.7496 10.5469 79.6636 10.1094 79.4918 9.70312C79.3199 9.29688 79.0816 8.94531 78.7769 8.64844C78.48 8.34375 78.1246 8.10547 77.7105 7.93359C77.3043 7.76172 76.8629 7.67578 76.3863 7.67578C75.5191 7.67578 74.855 7.90234 74.3941 8.35547C73.9332 8.80078 73.7027 9.48828 73.7027 10.418C73.7027 10.9258 73.7769 11.3984 73.9254 11.8359C74.0816 12.2656 74.2965 12.6406 74.5699 12.9609C74.8433 13.2734 75.1636 13.5195 75.5308 13.6992C75.9058 13.8789 76.3121 13.9688 76.7496 13.9688ZM89.6918 6.23438C89.4027 6.23438 89.1488 6.3125 88.9301 6.46875C88.7113 6.61719 88.5238 6.82812 88.3676 7.10156C88.2113 7.36719 88.0824 7.68359 87.9808 8.05078C87.8793 8.41016 87.7972 8.80469 87.7347 9.23438C87.6722 9.66406 87.6293 10.1133 87.6058 10.582C87.5824 11.0508 87.5707 11.5234 87.5707 12C87.5707 12.625 87.5941 13.2422 87.641 13.8516C87.6957 14.4531 87.723 15.0117 87.723 15.5273C87.723 15.8633 87.598 16.125 87.348 16.3125C87.098 16.5078 86.7426 16.6055 86.2816 16.6055C86.1957 16.6055 86.098 16.5977 85.9886 16.582C85.8793 16.5664 85.7738 16.5352 85.6722 16.4883C85.5785 16.4414 85.4926 16.375 85.4144 16.2891C85.3441 16.2109 85.3051 16.1016 85.2972 15.9609C85.2269 15.2734 85.1254 14.5703 84.9926 13.8516C84.8597 13.1328 84.6918 12.418 84.4886 11.707C84.2933 10.9883 84.0551 10.2773 83.7738 9.57422C83.5004 8.87109 83.184 8.18359 82.8246 7.51172C82.7621 7.39453 82.7074 7.28516 82.6605 7.18359C82.6215 7.08203 82.6019 6.98438 82.6019 6.89062C82.6019 6.77344 82.6527 6.64844 82.7543 6.51562C82.8636 6.375 82.9965 6.24609 83.1527 6.12891C83.3168 6.01172 83.4926 5.91797 83.6801 5.84766C83.8754 5.76953 84.0629 5.73047 84.2426 5.73047C84.5394 5.73047 84.8011 5.9375 85.0277 6.35156C85.2543 6.75781 85.4652 7.41016 85.6605 8.30859C85.6996 8.46484 85.7308 8.57422 85.7543 8.63672C85.7777 8.69922 85.809 8.73047 85.848 8.73047C85.934 8.73047 85.9886 8.59766 86.0121 8.33203C86.1058 7.58984 86.266 6.95312 86.4926 6.42188C86.7191 5.88281 87.0004 5.44141 87.3363 5.09766C87.6801 4.74609 88.0707 4.48828 88.5082 4.32422C88.9535 4.16016 89.4418 4.07812 89.973 4.07812C90.2777 4.07812 90.5863 4.10547 90.8988 4.16016C91.2113 4.21484 91.4926 4.29688 91.7426 4.40625C91.9926 4.51562 92.1957 4.64844 92.3519 4.80469C92.5082 4.96094 92.5863 5.13672 92.5863 5.33203C92.5863 5.47266 92.5551 5.64062 92.4926 5.83594C92.4379 6.02344 92.3636 6.20703 92.2699 6.38672C92.1761 6.55859 92.0668 6.70703 91.9418 6.83203C91.8246 6.94922 91.7035 7.00781 91.5785 7.00781C91.4379 7.00781 91.3011 6.96875 91.1683 6.89062C91.0355 6.80469 90.891 6.71484 90.7347 6.62109C90.5863 6.52734 90.4261 6.44141 90.2543 6.36328C90.0902 6.27734 89.9027 6.23438 89.6918 6.23438ZM101.83 15.3164C101.361 15.3164 100.893 15.2031 100.424 14.9766C99.955 14.7422 99.5058 14.4258 99.0761 14.0273C98.6465 13.6289 98.248 13.1602 97.8808 12.6211C97.5136 12.0742 97.1933 11.4883 96.9199 10.8633C96.6465 10.2305 96.4316 9.57031 96.2754 8.88281C96.1191 8.19531 96.041 7.50781 96.041 6.82031C96.041 6.28906 96.1504 5.91016 96.3691 5.68359C96.5879 5.44922 96.9433 5.33203 97.4355 5.33203C98.0527 5.33203 98.3965 5.58594 98.4668 6.09375C98.6074 7.17188 98.8027 8.14453 99.0527 9.01172C99.3027 9.87891 99.5957 10.6172 99.9316 11.2266C100.275 11.8359 100.654 12.3047 101.068 12.6328C101.49 12.9609 101.936 13.125 102.404 13.125C102.74 13.125 103.057 13.043 103.353 12.8789C103.65 12.707 103.908 12.4688 104.127 12.1641C104.205 12.0469 104.256 11.9336 104.279 11.8242C104.311 11.7148 104.334 11.5898 104.35 11.4492C104.389 10.8945 104.432 10.3516 104.478 9.82031C104.533 9.28125 104.584 8.74219 104.631 8.20312C104.646 7.96875 104.678 7.77734 104.725 7.62891C104.771 7.48047 104.842 7.36328 104.936 7.27734C105.029 7.19141 105.15 7.13281 105.299 7.10156C105.455 7.07031 105.65 7.05469 105.885 7.05469C106.15 7.05469 106.377 7.09375 106.564 7.17188C106.752 7.24219 106.904 7.36328 107.021 7.53516C107.139 7.69922 107.221 7.91797 107.268 8.19141C107.322 8.45703 107.35 8.78906 107.35 9.1875C107.35 9.53125 107.322 9.83203 107.268 10.0898C107.221 10.3398 107.162 10.5781 107.092 10.8047C107.029 11.0234 106.967 11.2422 106.904 11.4609C106.85 11.6719 106.814 11.9062 106.799 12.1641C106.76 12.8125 106.725 13.375 106.693 13.8516C106.662 14.3203 106.635 14.7227 106.611 15.0586C106.596 15.3945 106.58 15.6836 106.564 15.9258C106.557 16.168 106.549 16.3828 106.541 16.5703C106.533 16.7656 106.529 16.9492 106.529 17.1211C106.529 17.293 106.529 17.4805 106.529 17.6836C106.529 18.0508 106.545 18.4492 106.576 18.8789C106.607 19.3164 106.639 19.7344 106.67 20.1328C106.709 20.5312 106.744 20.8828 106.775 21.1875C106.807 21.4922 106.822 21.7031 106.822 21.8203C106.822 21.9688 106.775 22.1094 106.682 22.2422C106.588 22.375 106.463 22.4922 106.307 22.5938C106.15 22.6953 105.967 22.7734 105.756 22.8281C105.545 22.8906 105.322 22.9219 105.088 22.9219C104.885 22.9219 104.721 22.8516 104.596 22.7109C104.478 22.5781 104.412 22.3984 104.396 22.1719C104.373 21.875 104.353 21.5117 104.338 21.082C104.322 20.6602 104.307 20.207 104.291 19.7227C104.275 19.2461 104.264 18.7578 104.256 18.2578C104.256 17.7656 104.252 17.3047 104.244 16.875C104.236 16.4531 104.232 16.082 104.232 15.7617C104.232 15.4414 104.232 15.2109 104.232 15.0703C104.232 14.9297 104.217 14.832 104.186 14.7773C104.154 14.7148 104.096 14.6836 104.01 14.6836C103.963 14.6836 103.9 14.6992 103.822 14.7305C103.744 14.7539 103.654 14.7969 103.553 14.8594C103.279 15.0234 103.002 15.1406 102.721 15.2109C102.439 15.2812 102.143 15.3164 101.83 15.3164ZM108.608 11.1094C108.608 10.9766 108.624 10.8281 108.655 10.6641C108.686 10.5 108.702 10.3203 108.702 10.125C108.702 9.99219 108.643 9.89062 108.526 9.82031C108.417 9.75 108.292 9.67188 108.151 9.58594C108.011 9.5 107.882 9.39062 107.764 9.25781C107.655 9.125 107.6 8.93359 107.6 8.68359C107.6 8.50391 107.647 8.32422 107.741 8.14453C107.843 7.96484 107.987 7.80078 108.175 7.65234C108.636 7.30859 109.112 7 109.604 6.72656C110.104 6.45312 110.6 6.22266 111.093 6.03516C111.593 5.84766 112.085 5.70312 112.569 5.60156C113.053 5.5 113.518 5.44922 113.964 5.44922C114.714 5.44922 115.417 5.58984 116.073 5.87109C116.737 6.14453 117.311 6.52344 117.796 7.00781C118.288 7.48438 118.675 8.04688 118.956 8.69531C119.245 9.33594 119.389 10.0234 119.389 10.7578C119.389 11.4766 119.237 12.1602 118.932 12.8086C118.636 13.4492 118.233 14.0117 117.725 14.4961C117.218 14.9805 116.62 15.3633 115.932 15.6445C115.253 15.9336 114.534 16.0781 113.776 16.0781C113.034 16.0781 112.346 15.9531 111.714 15.7031C111.081 15.4531 110.534 15.1094 110.073 14.6719C109.612 14.2266 109.253 13.7031 108.995 13.1016C108.737 12.4922 108.608 11.8281 108.608 11.1094ZM114.034 13.9688C114.362 13.9688 114.702 13.9023 115.053 13.7695C115.405 13.6367 115.725 13.4453 116.014 13.1953C116.311 12.9375 116.553 12.625 116.741 12.2578C116.936 11.8906 117.034 11.4766 117.034 11.0156C117.034 10.5469 116.948 10.1094 116.776 9.70312C116.604 9.29688 116.366 8.94531 116.061 8.64844C115.764 8.34375 115.409 8.10547 114.995 7.93359C114.589 7.76172 114.147 7.67578 113.671 7.67578C112.803 7.67578 112.139 7.90234 111.678 8.35547C111.218 8.80078 110.987 9.48828 110.987 10.418C110.987 10.9258 111.061 11.3984 111.21 11.8359C111.366 12.2656 111.581 12.6406 111.854 12.9609C112.128 13.2734 112.448 13.5195 112.815 13.6992C113.19 13.8789 113.596 13.9688 114.034 13.9688ZM123.086 10.8516C123.086 11.8984 123.246 12.707 123.566 13.2773C123.886 13.8477 124.351 14.1328 124.961 14.1328C125.343 14.1328 125.695 14.0195 126.015 13.793C126.343 13.5664 126.625 13.25 126.859 12.8438C127.093 12.4375 127.273 11.957 127.398 11.4023C127.531 10.8398 127.597 10.2305 127.597 9.57422C127.597 9.17578 127.582 8.83203 127.55 8.54297C127.519 8.24609 127.484 7.98438 127.445 7.75781C127.414 7.52344 127.382 7.31641 127.351 7.13672C127.32 6.95703 127.304 6.78516 127.304 6.62109C127.304 6.37109 127.41 6.19141 127.621 6.08203C127.832 5.96484 128.168 5.90625 128.628 5.90625C129.214 5.90625 129.668 6.03906 129.988 6.30469C130.316 6.57031 130.48 6.95703 130.48 7.46484C130.48 8.84766 130.343 10.0898 130.07 11.1914C129.804 12.293 129.418 13.2305 128.91 14.0039C128.41 14.7695 127.8 15.3594 127.082 15.7734C126.363 16.1875 125.558 16.3945 124.668 16.3945C124.035 16.3945 123.449 16.2617 122.91 15.9961C122.378 15.7383 121.918 15.375 121.527 14.9062C121.144 14.4297 120.843 13.8672 120.625 13.2188C120.406 12.5625 120.296 11.8438 120.296 11.0625C120.296 10.7656 120.304 10.4492 120.32 10.1133C120.336 9.77734 120.359 9.41797 120.39 9.03516C120.421 8.64453 120.461 8.22266 120.507 7.76953C120.562 7.31641 120.621 6.82422 120.683 6.29297C120.707 6.06641 120.812 5.88672 121 5.75391C121.195 5.61328 121.441 5.54297 121.738 5.54297C122.003 5.54297 122.253 5.57031 122.488 5.625C122.722 5.67969 122.921 5.75391 123.086 5.84766C123.257 5.94141 123.39 6.05078 123.484 6.17578C123.586 6.30078 123.636 6.43359 123.636 6.57422C123.636 6.71484 123.605 6.9375 123.543 7.24219C123.488 7.53906 123.425 7.88281 123.355 8.27344C123.293 8.65625 123.23 9.07422 123.168 9.52734C123.113 9.97266 123.086 10.4141 123.086 10.8516Z" fill="#2C3B4E"/>
</svg>
