<svg width="227" height="55" viewBox="0 0 227 55" fill="none" xmlns="http://www.w3.org/2000/svg">
<path fill-rule="evenodd" clip-rule="evenodd" d="M72.8559 23.1404L79.7833 27.321C80.2925 27.6292 80.9223 27.1736 80.7883 26.5974L78.9526 18.7187L85.0626 13.426C85.5048 13.0374 85.277 12.3005 84.6741 12.2469L76.6211 11.5635L73.4723 4.14036C73.2445 3.59099 72.4674 3.59099 72.2396 4.14036L69.0908 11.5635L61.0378 12.2469C60.4483 12.3005 60.2071 13.0374 60.6627 13.426L66.7727 18.7187L64.937 26.5974C64.803 27.1736 65.4328 27.6292 65.942 27.321L72.8559 23.1404Z" fill="#FF492C"/>
<path fill-rule="evenodd" clip-rule="evenodd" d="M137.172 23.1404L144.1 27.321C144.609 27.6292 145.239 27.1736 145.105 26.5974L143.269 18.7187L149.379 13.426C149.821 13.0374 149.593 12.3005 148.99 12.2469L140.938 11.5635L137.789 4.14036C137.561 3.59099 136.784 3.59099 136.556 4.14036L133.407 11.5635L125.354 12.2469C124.765 12.3005 124.524 13.0374 124.979 13.426L131.089 18.7187L129.253 26.5974C129.119 27.1736 129.749 27.6292 130.258 27.321L137.172 23.1404Z" fill="#FF492C"/>
<path fill-rule="evenodd" clip-rule="evenodd" d="M105.014 23.1404L111.942 27.321C112.451 27.6292 113.08 27.1736 112.946 26.5974L111.111 18.7187L117.221 13.426C117.663 13.0374 117.435 12.3005 116.832 12.2469L108.779 11.5635L105.631 4.14036C105.403 3.59099 104.626 3.59099 104.398 4.14036L101.249 11.5635L93.196 12.2469C92.6065 12.3005 92.3653 13.0374 92.8209 13.426L98.9309 18.7187L97.0952 26.5974C96.9612 27.1736 97.591 27.6292 98.1002 27.321L105.014 23.1404Z" fill="#FF492C"/>
<path fill-rule="evenodd" clip-rule="evenodd" d="M169.33 23.1404L176.257 27.321C176.767 27.6292 177.396 27.1736 177.262 26.5974L175.427 18.7187L181.537 13.426C181.979 13.0374 181.751 12.3005 181.148 12.2469L173.095 11.5635L169.946 4.14036C169.719 3.59099 168.941 3.59099 168.714 4.14036L165.565 11.5635L157.512 12.2469C156.922 12.3005 156.681 13.0374 157.137 13.426L163.247 18.7187L161.411 26.5974C161.277 27.1736 161.907 27.6292 162.416 27.321L169.33 23.1404Z" fill="#FF492C"/>
<path fill-rule="evenodd" clip-rule="evenodd" d="M201.488 23.1404L208.416 27.321C208.925 27.6292 209.555 27.1736 209.421 26.5974L207.585 18.7187L213.695 13.426C214.137 13.0374 213.909 12.3005 213.306 12.2469L205.253 11.5635L202.105 4.14036C201.877 3.59099 201.1 3.59099 200.872 4.14036L197.723 11.5635L189.67 12.2469C189.081 12.3005 188.839 13.0374 189.295 13.426L195.405 18.7187L193.569 26.5974C193.435 27.1736 194.065 27.6292 194.574 27.321L201.488 23.1404Z" fill="url(#paint0_linear_2120_5087)" stroke="#FF492C" stroke-width="0.893281"/>
<path d="M66.5294 43.3112C66.5294 41.8723 66.7159 40.5495 67.0889 39.3428C67.4658 38.1323 68.0025 37.0189 68.6991 36.0025H69.8868C69.6127 36.3794 69.3558 36.8438 69.116 37.3957C68.8799 37.9439 68.6725 38.5472 68.4936 39.2058C68.3147 39.8605 68.1738 40.5381 68.071 41.2385C67.9721 41.9389 67.9226 42.6298 67.9226 43.3112C67.9226 44.2172 68.0101 45.1364 68.1852 46.0691C68.3603 47.0017 68.5964 47.8677 68.8933 48.6671C69.1902 49.4664 69.5214 50.1174 69.8868 50.6198H68.6991C68.0025 49.6035 67.4658 48.492 67.0889 47.2853C66.7159 46.0748 66.5294 44.7501 66.5294 43.3112ZM75.2119 47.1026V39.5655H76.4909V47.1026H75.2119ZM72.0828 43.9735V42.6945H79.6199V43.9735H72.0828ZM85.9271 49.318C85.2571 49.318 84.6538 49.1848 84.117 48.9183C83.5803 48.6518 83.1502 48.2864 82.8266 47.822C82.503 47.3576 82.326 46.8285 82.2956 46.2346H83.666C83.7193 46.7638 83.9591 47.2015 84.3854 47.5479C84.8156 47.8905 85.3294 48.0618 85.9271 48.0618C86.4067 48.0618 86.833 47.9495 87.2061 47.7249C87.5829 47.5003 87.878 47.192 88.0911 46.7999C88.3081 46.404 88.4166 45.9568 88.4166 45.4581C88.4166 44.948 88.3043 44.4931 88.0797 44.0934C87.8589 43.6899 87.5544 43.3721 87.1661 43.1399C86.7779 42.9077 86.3344 42.7897 85.8357 42.7859C85.4779 42.7821 85.1106 42.8373 84.7337 42.9515C84.3569 43.0619 84.0466 43.2046 83.803 43.3797L82.4783 43.2198L83.1863 37.4643H89.2617V38.7204H84.374L83.9629 42.1692H84.0314C84.2712 41.9789 84.5719 41.8209 84.9336 41.6953C85.2952 41.5697 85.672 41.5069 86.0641 41.5069C86.7798 41.5069 87.4174 41.6782 87.9769 42.0207C88.5403 42.3595 88.9819 42.8239 89.3016 43.414C89.6252 44.004 89.787 44.6778 89.787 45.4353C89.787 46.1814 89.6195 46.8475 89.2845 47.4337C88.9533 48.0161 88.4965 48.4767 87.9141 48.8155C87.3317 49.1505 86.6694 49.318 85.9271 49.318ZM95.7801 49.318C94.9198 49.318 94.187 49.0839 93.5818 48.6157C92.9765 48.1437 92.514 47.4604 92.1943 46.5658C91.8745 45.6675 91.7147 44.5826 91.7147 43.3112C91.7147 42.0474 91.8745 40.9682 92.1943 40.0737C92.5178 39.1753 92.9822 38.4901 93.5875 38.0181C94.1966 37.5423 94.9274 37.3044 95.7801 37.3044C96.6328 37.3044 97.3617 37.5423 97.967 38.0181C98.576 38.4901 99.0404 39.1753 99.3602 40.0737C99.6838 40.9682 99.8455 42.0474 99.8455 43.3112C99.8455 44.5826 99.6857 45.6675 99.3659 46.5658C99.0462 47.4604 98.5837 48.1437 97.9784 48.6157C97.3732 49.0839 96.6404 49.318 95.7801 49.318ZM95.7801 48.0618C96.6328 48.0618 97.2951 47.6507 97.7671 46.8285C98.2392 46.0063 98.4752 44.8338 98.4752 43.3112C98.4752 42.2986 98.3667 41.4364 98.1497 40.7246C97.9365 40.0128 97.6282 39.4703 97.2247 39.0973C96.825 38.7242 96.3435 38.5377 95.7801 38.5377C94.935 38.5377 94.2746 38.9545 93.7988 39.7882C93.3229 40.618 93.085 41.7924 93.085 43.3112C93.085 44.3237 93.1916 45.184 93.4048 45.8921C93.618 46.6001 93.9244 47.1387 94.3241 47.508C94.7276 47.8772 95.2129 48.0618 95.7801 48.0618ZM105.74 49.318C104.88 49.318 104.147 49.0839 103.542 48.6157C102.937 48.1437 102.474 47.4604 102.154 46.5658C101.835 45.6675 101.675 44.5826 101.675 43.3112C101.675 42.0474 101.835 40.9682 102.154 40.0737C102.478 39.1753 102.942 38.4901 103.548 38.0181C104.157 37.5423 104.887 37.3044 105.74 37.3044C106.593 37.3044 107.322 37.5423 107.927 38.0181C108.536 38.4901 109.001 39.1753 109.32 40.0737C109.644 40.9682 109.806 42.0474 109.806 43.3112C109.806 44.5826 109.646 45.6675 109.326 46.5658C109.006 47.4604 108.544 48.1437 107.938 48.6157C107.333 49.0839 106.6 49.318 105.74 49.318ZM105.74 48.0618C106.593 48.0618 107.255 47.6507 107.727 46.8285C108.199 46.0063 108.435 44.8338 108.435 43.3112C108.435 42.2986 108.327 41.4364 108.11 40.7246C107.897 40.0128 107.588 39.4703 107.185 39.0973C106.785 38.7242 106.304 38.5377 105.74 38.5377C104.895 38.5377 104.235 38.9545 103.759 39.7882C103.283 40.618 103.045 41.7924 103.045 43.3112C103.045 44.3237 103.152 45.184 103.365 45.8921C103.578 46.6001 103.884 47.1387 104.284 47.508C104.688 47.8772 105.173 48.0618 105.74 48.0618ZM114.787 43.3112C114.787 44.7501 114.598 46.0748 114.221 47.2853C113.848 48.492 113.314 49.6035 112.617 50.6198H111.429C111.703 50.243 111.958 49.7786 112.194 49.2266C112.434 48.6785 112.644 48.077 112.822 47.4223C113.001 46.7638 113.14 46.0843 113.239 45.3839C113.342 44.6797 113.393 43.9888 113.393 43.3112C113.393 42.4052 113.306 41.4859 113.131 40.5533C112.956 39.6207 112.72 38.7547 112.423 37.9553C112.126 37.1559 111.795 36.505 111.429 36.0025H112.617C113.314 37.0189 113.848 38.1323 114.221 39.3428C114.598 40.5495 114.787 41.8723 114.787 43.3112Z" fill="#566271"/>
<path d="M121.673 46.9884V45.3039L126.634 37.4643H128.039V39.8624H127.183L123.842 45.1555V45.2468H130.768V46.9884H121.673ZM127.251 49.1581V46.4745L127.274 45.7208V37.4643H129.272V49.1581H127.251ZM133.47 49.2837C133.123 49.2837 132.826 49.1619 132.579 48.9183C132.332 48.6747 132.21 48.3778 132.214 48.0276C132.21 47.685 132.332 47.3919 132.579 47.1482C132.826 46.9046 133.123 46.7828 133.47 46.7828C133.805 46.7828 134.096 46.9046 134.343 47.1482C134.595 47.3919 134.722 47.685 134.726 48.0276C134.722 48.2598 134.661 48.471 134.543 48.6614C134.429 48.8517 134.277 49.0039 134.086 49.1181C133.9 49.2285 133.694 49.2837 133.47 49.2837ZM140.672 49.318C139.911 49.318 139.229 49.1752 138.628 48.8897C138.026 48.6004 137.549 48.2046 137.195 47.7021C136.844 47.1996 136.658 46.6248 136.635 45.9777H138.691C138.729 46.4573 138.936 46.8494 139.313 47.1539C139.69 47.4547 140.143 47.605 140.672 47.605C141.087 47.605 141.456 47.5099 141.78 47.3195C142.103 47.1292 142.358 46.8646 142.545 46.5259C142.731 46.1871 142.823 45.8007 142.819 45.3667C142.823 44.9252 142.729 44.5331 142.539 44.1905C142.349 43.8479 142.088 43.5795 141.757 43.3854C141.426 43.1875 141.045 43.0885 140.615 43.0885C140.265 43.0847 139.92 43.1494 139.581 43.2826C139.243 43.4159 138.974 43.591 138.776 43.8079L136.864 43.4939L137.474 37.4643H144.258V39.2343H139.227L138.891 42.3348H138.959C139.176 42.0798 139.482 41.8685 139.878 41.701C140.274 41.5297 140.708 41.444 141.18 41.444C141.888 41.444 142.52 41.6115 143.076 41.9465C143.632 42.2777 144.069 42.7345 144.389 43.3169C144.709 43.8993 144.869 44.5655 144.869 45.3154C144.869 46.0881 144.69 46.7771 144.332 47.3823C143.978 47.9838 143.485 48.4577 142.853 48.8041C142.225 49.1467 141.498 49.318 140.672 49.318ZM154.882 49.3408C154.091 49.3408 153.396 49.1524 152.798 48.7755C152.204 48.3987 151.74 47.8715 151.405 47.1939C151.074 46.5163 150.908 45.7246 150.908 44.8186C150.908 43.905 151.074 43.1075 151.405 42.4262C151.74 41.7448 152.204 41.2157 152.798 40.8388C153.396 40.4619 154.091 40.2735 154.882 40.2735C155.674 40.2735 156.367 40.4619 156.961 40.8388C157.558 41.2157 158.023 41.7448 158.354 42.4262C158.689 43.1075 158.856 43.905 158.856 44.8186C158.856 45.7246 158.689 46.5163 158.354 47.1939C158.023 47.8715 157.558 48.3987 156.961 48.7755C156.367 49.1524 155.674 49.3408 154.882 49.3408ZM154.882 48.1303C155.484 48.1303 155.979 47.9762 156.367 47.6678C156.755 47.3595 157.043 46.9541 157.229 46.4516C157.416 45.9492 157.509 45.4048 157.509 44.8186C157.509 44.2324 157.416 43.6861 157.229 43.1799C157.043 42.6736 156.755 42.2644 156.367 41.9522C155.979 41.6401 155.484 41.484 154.882 41.484C154.281 41.484 153.786 41.6401 153.398 41.9522C153.009 42.2644 152.722 42.6736 152.536 43.1799C152.349 43.6861 152.256 44.2324 152.256 44.8186C152.256 45.4048 152.349 45.9492 152.536 46.4516C152.722 46.9541 153.009 47.3595 153.398 47.6678C153.786 47.9762 154.281 48.1303 154.882 48.1303ZM166.351 45.5723V40.3877H167.699V49.1581H166.351V47.6735H166.26C166.054 48.1189 165.735 48.4977 165.301 48.8098C164.867 49.1181 164.318 49.2723 163.656 49.2723C163.108 49.2723 162.621 49.1524 162.194 48.9126C161.768 48.669 161.433 48.3035 161.189 47.8163C160.946 47.3252 160.824 46.7067 160.824 45.9606V40.3877H162.172V45.8692C162.172 46.5087 162.35 47.0188 162.708 47.3995C163.07 47.7801 163.531 47.9705 164.09 47.9705C164.425 47.9705 164.766 47.8848 165.112 47.7135C165.462 47.5422 165.755 47.2796 165.991 46.9255C166.231 46.5715 166.351 46.1204 166.351 45.5723ZM173.892 40.3877V41.5297H169.347V40.3877H173.892ZM170.671 38.2865H172.019V46.6458C172.019 47.0264 172.074 47.3119 172.184 47.5022C172.299 47.6888 172.443 47.8144 172.618 47.8791C172.797 47.94 172.986 47.9705 173.184 47.9705C173.332 47.9705 173.454 47.9628 173.549 47.9476C173.644 47.9286 173.72 47.9134 173.778 47.9019L174.052 49.1124C173.96 49.1467 173.833 49.181 173.669 49.2152C173.505 49.2533 173.298 49.2723 173.047 49.2723C172.666 49.2723 172.293 49.1905 171.928 49.0268C171.566 48.8631 171.265 48.6138 171.025 48.2788C170.789 47.9438 170.671 47.5213 170.671 47.0112V38.2865ZM183.825 49.3408C183.034 49.3408 182.339 49.1524 181.741 48.7755C181.147 48.3987 180.683 47.8715 180.348 47.1939C180.017 46.5163 179.851 45.7246 179.851 44.8186C179.851 43.905 180.017 43.1075 180.348 42.4262C180.683 41.7448 181.147 41.2157 181.741 40.8388C182.339 40.4619 183.034 40.2735 183.825 40.2735C184.617 40.2735 185.31 40.4619 185.904 40.8388C186.501 41.2157 186.966 41.7448 187.297 42.4262C187.632 43.1075 187.799 43.905 187.799 44.8186C187.799 45.7246 187.632 46.5163 187.297 47.1939C186.966 47.8715 186.501 48.3987 185.904 48.7755C185.31 49.1524 184.617 49.3408 183.825 49.3408ZM183.825 48.1303C184.427 48.1303 184.922 47.9762 185.31 47.6678C185.698 47.3595 185.986 46.9541 186.172 46.4516C186.359 45.9492 186.452 45.4048 186.452 44.8186C186.452 44.2324 186.359 43.6861 186.172 43.1799C185.986 42.6736 185.698 42.2644 185.31 41.9522C184.922 41.6401 184.427 41.484 183.825 41.484C183.224 41.484 182.729 41.6401 182.341 41.9522C181.952 42.2644 181.665 42.6736 181.479 43.1799C181.292 43.6861 181.199 44.2324 181.199 44.8186C181.199 45.4048 181.292 45.9492 181.479 46.4516C181.665 46.9541 181.952 47.3595 182.341 47.6678C182.729 47.9762 183.224 48.1303 183.825 48.1303ZM193.673 40.3877V41.5297H188.945V40.3877H193.673ZM190.361 49.1581V39.1772C190.361 38.6748 190.479 38.256 190.715 37.921C190.951 37.5861 191.257 37.3348 191.634 37.1673C192.011 36.9999 192.409 36.9161 192.828 36.9161C193.159 36.9161 193.429 36.9428 193.638 36.996C193.848 37.0493 194.004 37.0988 194.107 37.1445L193.718 38.3093C193.65 38.2865 193.555 38.2579 193.433 38.2237C193.315 38.1894 193.159 38.1723 192.965 38.1723C192.519 38.1723 192.198 38.2846 192 38.5092C191.805 38.7338 191.708 39.063 191.708 39.497V49.1581H190.361ZM203.776 49.318C203.015 49.318 202.333 49.1752 201.732 48.8897C201.13 48.6004 200.653 48.2046 200.299 47.7021C199.948 47.1996 199.762 46.6248 199.739 45.9777H201.795C201.833 46.4573 202.04 46.8494 202.417 47.1539C202.794 47.4547 203.247 47.605 203.776 47.605C204.191 47.605 204.56 47.5099 204.884 47.3195C205.207 47.1292 205.462 46.8646 205.649 46.5259C205.835 46.1871 205.927 45.8007 205.923 45.3667C205.927 44.9252 205.833 44.5331 205.643 44.1905C205.453 43.8479 205.192 43.5795 204.861 43.3854C204.53 43.1875 204.149 43.0885 203.719 43.0885C203.369 43.0847 203.024 43.1494 202.685 43.2826C202.347 43.4159 202.078 43.591 201.88 43.8079L199.968 43.4939L200.578 37.4643H207.362V39.2343H202.331L201.995 42.3348H202.063C202.28 42.0798 202.586 41.8685 202.982 41.701C203.378 41.5297 203.812 41.444 204.284 41.444C204.992 41.444 205.624 41.6115 206.18 41.9465C206.736 42.2777 207.173 42.7345 207.493 43.3169C207.813 43.8993 207.973 44.5655 207.973 45.3154C207.973 46.0881 207.794 46.7771 207.436 47.3823C207.082 47.9838 206.589 48.4577 205.957 48.8041C205.329 49.1467 204.602 49.318 203.776 49.318Z" fill="#2C3B4E"/>
<path d="M33.8616 37.9406C35.6521 41.0199 37.4226 44.0641 39.1918 47.1051C31.3576 53.0491 19.169 53.7675 10.1461 46.9224C-0.237391 39.0389 -1.944 25.5875 3.61514 15.9046C10.0089 4.76713 21.9739 2.30401 29.6776 4.11012C29.4693 4.55868 24.8553 14.045 24.8553 14.045C24.8553 14.045 24.4905 14.0688 24.2842 14.0727C22.0072 14.1684 20.3112 14.6935 18.4934 15.6249C16.4991 16.6562 14.79 18.156 13.5155 19.9931C12.241 21.8301 11.44 23.9486 11.1824 26.1633C10.9136 28.4094 11.227 30.6863 12.093 32.7789C12.8251 34.5481 13.8608 36.1194 15.2493 37.4459C17.3792 39.4829 19.9138 40.7441 22.8518 41.1617C25.634 41.5575 28.3098 41.1656 30.8171 39.9169C31.7576 39.4492 32.5577 38.9327 33.4928 38.2243C33.612 38.1478 33.7178 38.0508 33.8616 37.9406Z" fill="#FF492C"/>
<path d="M33.8791 10.9355C33.4245 10.4922 33.0032 10.0833 32.5839 9.67165C32.3336 9.42626 32.0927 9.17098 31.8364 8.93153C31.7445 8.84511 31.6367 8.72704 31.6367 8.72704C31.6367 8.72704 31.7239 8.54366 31.7612 8.46846C32.2517 7.49284 33.0205 6.77977 33.9324 6.21247C34.9408 5.58039 36.1156 5.25879 37.3083 5.28831C38.8346 5.31799 40.2537 5.69465 41.4511 6.70918C42.335 7.45788 42.7883 8.40777 42.8682 9.5417C43.0013 11.4547 42.2025 12.9197 40.6164 13.9422C39.6846 14.5438 38.6795 15.0088 37.6718 15.5596C37.116 15.8637 36.6407 16.1309 36.0976 16.681C35.6197 17.2332 35.5964 17.7536 35.5964 17.7536L42.8162 17.7444V20.9311H31.672C31.672 20.9311 31.672 20.7134 31.672 20.6231C31.6294 19.0571 31.8138 17.5834 32.5373 16.1612C33.2029 14.8565 34.2372 13.9013 35.4799 13.1658C36.4371 12.5991 37.4448 12.1169 38.4039 11.553C38.9957 11.2053 39.4137 10.6954 39.4103 9.95595C39.4103 9.32138 38.9444 8.75738 38.2788 8.58125C36.7093 8.16172 35.1118 8.83126 34.2812 10.2548C34.16 10.4626 34.0362 10.669 33.8791 10.9355Z" fill="#FF492C"/>
<path d="M47.8442 34.5534L41.7599 24.1403H29.7198L23.5962 34.661H35.7249L41.71 45.0246L47.8442 34.5534Z" fill="#FF492C"/>
<defs>
<linearGradient id="paint0_linear_2120_5087" x1="188.983" y1="17.8655" x2="213.994" y2="18.3122" gradientUnits="userSpaceOnUse">
<stop offset="0.505208" stop-color="#FF492C"/>
<stop offset="0.505308" stop-color="white" stop-opacity="0"/>
</linearGradient>
</defs>
</svg>
