<svg width="43" height="47" viewBox="0 0 43 47" fill="none" xmlns="http://www.w3.org/2000/svg">
<path d="M15.6457 42.319C12.8563 42.8368 11.052 42.034 9.937 40.9962C9.35201 40.4517 8.97471 39.8595 8.7435 39.4049C8.62756 39.1769 8.54724 38.9813 8.49519 38.8402C8.46914 38.7696 8.45009 38.7124 8.43713 38.6713C8.43065 38.6508 8.42569 38.6342 8.42213 38.622L8.42154 38.62C7.9562 37.2963 7.39482 36.4764 6.96639 35.9952C6.75091 35.7532 6.56742 35.595 6.44394 35.5004C6.38215 35.4531 6.33523 35.4216 6.30669 35.4035C6.29242 35.3944 6.28273 35.3887 6.27807 35.386C6.27719 35.3855 6.27649 35.3851 6.27598 35.3848L6.27505 35.3843L15.6457 42.319ZM15.6457 42.319C15.6497 43.2343 15.6556 44.0208 15.6601 44.6328C15.6641 45.1613 15.667 45.5596 15.667 45.7981C15.667 46.0305 15.5943 46.2338 15.4802 46.3512C15.3928 46.441 15.2194 46.5454 14.8391 46.477C6.53056 43.3558 0.5 34.5365 0.5 24.0949C0.5 11.0074 9.95296 0.5 21.5 0.5C33.047 0.5 42.5 11.0074 42.5 24.0949C42.5 34.5354 36.4743 43.3486 28.1682 46.4735C27.7727 46.551 27.5981 46.4448 27.5129 46.3577C27.3998 46.2421 27.3265 46.0374 27.3265 45.7981C27.3265 45.5381 27.3293 45.081 27.3331 44.4676C27.335 44.1533 27.3372 43.798 27.3394 43.4072C27.3459 42.2553 27.3524 40.7988 27.3524 39.1861C27.3524 37.3928 26.9306 36.0263 26.3343 35.0971C28.4972 34.742 30.7066 34.0233 32.4418 32.3946C34.4265 30.5318 35.7096 27.5575 35.7096 22.8362C35.7096 20.2068 34.9128 18.0149 33.563 16.2751C33.8585 15.322 34.359 12.9296 33.2602 9.8294L33.1812 9.6067L32.9591 9.52629L32.7889 9.99644C32.9591 9.52629 32.9585 9.5261 32.958 9.52591L32.9569 9.52551L32.9546 9.52468L32.9494 9.52289L32.9369 9.51875C32.9277 9.51578 32.9166 9.5124 32.9037 9.50874C32.8778 9.50143 32.8446 9.49304 32.8038 9.48469C32.7223 9.46797 32.6111 9.4515 32.4697 9.44396C32.1864 9.42887 31.7852 9.44984 31.2598 9.57344C30.2449 9.81218 28.7706 10.4326 26.7807 11.9109C25.0878 11.411 23.2896 11.1607 21.5005 11.1512L21.4952 11.1512C19.7096 11.1607 17.9134 11.4112 16.2152 11.9111C14.2261 10.4338 12.7519 9.8134 11.7368 9.57437C11.2113 9.45063 10.8101 9.42943 10.5267 9.44428C10.3852 9.4517 10.2741 9.46805 10.1925 9.48466C10.1518 9.49296 10.1185 9.50131 10.0927 9.50858C10.0798 9.51221 10.0687 9.51558 10.0595 9.51853L10.047 9.52264L10.0418 9.52443L10.0395 9.52525L10.0384 9.52564C10.0379 9.52583 10.0374 9.52602 10.2068 9.99644L10.0374 9.52602L9.81461 9.60625L9.73552 9.8294C8.63523 12.9336 9.14402 15.3273 9.43419 16.2748C8.09415 18.0133 7.28604 20.2069 7.28604 22.8362C7.28604 27.5458 8.5683 30.5216 10.5485 32.3906C12.2812 34.0261 14.4871 34.7542 16.645 35.1149C16.2382 35.752 15.9141 36.5925 15.7505 37.633L15.6457 42.319ZM6.51208 34.9441C6.27957 35.3867 6.2793 35.3866 6.27904 35.3864L6.27957 35.3867L6.51208 34.9441ZM9.95243 35.9659C10.4016 35.7463 10.4015 35.7461 10.4014 35.7459L10.4012 35.7455L10.4008 35.7446L10.3995 35.742L10.3979 35.7389C10.3972 35.7375 10.3965 35.7362 10.3958 35.7349L9.95243 35.9659Z" fill="#020202" stroke="black"/>
</svg>
