<svg width="109" height="32" viewBox="0 0 109 32" fill="none" xmlns="http://www.w3.org/2000/svg">
<path class="outer" d="M105.073 31.5H4.75a3.29 3.29 0 0 1-3.281-3.286V3.78A3.286 3.286 0 0 1 4.75.5h100.323c1.818 0 3.341 1.482 3.341 3.28v24.434c0 1.798-1.524 3.286-3.341 3.286Z" stroke="#000"/>
<path class="inner" d="M85.657 24h1.478V13.998h-1.478V24Zm13.31-6.399-1.693 4.336h-.05l-1.76-4.337h-1.592l2.638 6.06-1.504 3.371h1.54l4.064-9.43h-1.643Zm-8.38 5.262c-.483 0-1.159-.244-1.159-.849 0-.772.841-1.068 1.567-1.068.65 0 .956.142 1.35.335-.115.926-.904 1.582-1.758 1.582Zm.179-5.48c-1.07 0-2.178.476-2.637 1.53l1.312.554c.28-.553.802-.733 1.35-.733.764 0 1.541.462 1.554 1.286v.103a3.246 3.246 0 0 0-1.541-.386c-1.415 0-2.854.785-2.854 2.252 0 1.338 1.16 2.2 2.459 2.2.993 0 1.542-.45 1.884-.978h.052v.772h1.427v-3.835c0-1.775-1.313-2.766-3.006-2.766Zm-9.133 1.436H79.53V15.39h2.102c1.105 0 1.732.923 1.732 1.714 0 .774-.627 1.714-1.732 1.714Zm-.038-4.82h-3.541v10h1.477v-3.788h2.064c1.638 0 3.248-1.198 3.248-3.106s-1.61-3.107-3.248-3.107Zm-19.309 8.866c-1.02 0-1.875-.864-1.875-2.049 0-1.199.854-2.075 1.875-2.075 1.008 0 1.799.876 1.799 2.075 0 1.185-.791 2.05-1.799 2.05Zm1.697-4.704h-.051c-.332-.4-.97-.76-1.773-.76-1.685 0-3.229 1.495-3.229 3.415 0 1.907 1.544 3.39 3.229 3.39.803 0 1.441-.361 1.773-.774h.05v.49c0 1.302-.688 1.997-1.798 1.997-.906 0-1.467-.657-1.697-1.21l-1.288.54c.37.902 1.352 2.011 2.985 2.011 1.736 0 3.203-1.031 3.203-3.545v-6.108h-1.404v.554Zm2.425 5.838h1.479V13.998h-1.48v10.001Zm3.661-3.3c-.038-1.314 1.008-1.984 1.76-1.984.588 0 1.085.297 1.252.722L70.069 20.7Zm4.593-1.133c-.28-.76-1.135-2.165-2.883-2.165-1.736 0-3.177 1.379-3.177 3.402 0 1.907 1.429 3.402 3.342 3.402 1.544 0 2.438-.953 2.808-1.507l-1.149-.774c-.383.567-.905.941-1.659.941-.752 0-1.288-.348-1.632-1.031l4.503-1.881-.153-.387ZM38.78 18.445v1.443h3.42c-.103.812-.37 1.405-.78 1.817-.497.503-1.275 1.057-2.64 1.057-2.105 0-3.751-1.714-3.751-3.84 0-2.127 1.646-3.841 3.751-3.841 1.136 0 1.965.45 2.577 1.03l1.008-1.018c-.855-.824-1.99-1.456-3.585-1.456-2.884 0-5.308 2.372-5.308 5.285 0 2.912 2.424 5.284 5.308 5.284 1.556 0 2.73-.516 3.649-1.483.944-.953 1.238-2.294 1.238-3.376 0-.335-.026-.645-.077-.902h-4.81Zm8.774 4.42c-1.02 0-1.901-.85-1.901-2.062 0-1.224.88-2.062 1.901-2.062 1.02 0 1.901.838 1.901 2.062 0 1.212-.88 2.062-1.9 2.062Zm0-5.464c-1.863 0-3.381 1.43-3.381 3.402 0 1.96 1.518 3.402 3.381 3.402 1.863 0 3.381-1.443 3.381-3.402 0-1.972-1.518-3.402-3.38-3.402Zm7.376 5.464c-1.02 0-1.901-.85-1.901-2.062 0-1.224.88-2.062 1.9-2.062 1.022 0 1.902.838 1.902 2.062 0 1.212-.88 2.062-1.901 2.062Zm0-5.464c-1.863 0-3.38 1.43-3.38 3.402 0 1.96 1.517 3.402 3.38 3.402s3.381-1.443 3.381-3.402c0-1.972-1.518-3.402-3.381-3.402Zm-37.555-1.262-8.431 9.04.001.005a2.28 2.28 0 0 0 2.2 1.704c.42 0 .816-.115 1.155-.317l.027-.016 9.49-5.532-4.442-4.884ZM26.5 14l-.009-.006-4.097-2.4-4.616 4.15 4.632 4.679 4.076-2.376c.714-.39 1.2-1.15 1.2-2.028 0-.871-.48-1.628-1.187-2.02ZM8.349 7.421c-.05.19-.078.387-.078.592v15.974c0 .205.027.404.078.592l8.722-8.809L8.35 7.421Zm9.088 7.979 4.364-4.407-9.48-5.552a2.265 2.265 0 0 0-1.177-.329 2.283 2.283 0 0 0-2.2 1.707l-.001.003 8.494 8.578Zm21.066-7.575h-2.31v.577h1.73c-.046.471-.232.841-.545 1.11-.313.269-.713.404-1.185.404a1.79 1.79 0 0 1-1.318-.545c-.353-.37-.532-.828-.532-1.379s.179-1.009.532-1.379c.36-.362.799-.543 1.318-.543.266 0 .52.046.752.147.233.101.42.243.565.424l.44-.444a1.978 1.978 0 0 0-.765-.531 2.588 2.588 0 0 0-.992-.189 2.38 2.38 0 0 0-1.758.727c-.479.484-.719 1.082-.719 1.788s.24 1.305.72 1.789a2.38 2.38 0 0 0 1.757.726c.726 0 1.305-.235 1.75-.712.393-.398.593-.935.593-1.608 0-.114-.013-.235-.033-.362Zm.895-2.24V10.4h2.783v-.592h-2.17V8.281h1.957v-.578H40.01V6.177h2.17v-.592h-2.782Zm6.685.592v-.592h-3.275v.592h1.331V10.4h.613V6.177h1.331Zm2.966-.592h-.613V10.4h.613V5.585Zm4.043.592v-.592h-3.276v.592h1.331V10.4h.613V6.177h1.332Zm6.18.034c-.472-.491-1.051-.734-1.743-.734a2.34 2.34 0 0 0-1.745.726c-.472.478-.705 1.077-.705 1.79 0 .712.233 1.31.705 1.788a2.341 2.341 0 0 0 1.745.726 2.35 2.35 0 0 0 1.744-.726c.472-.478.705-1.076.705-1.789 0-.706-.233-1.304-.705-1.781Zm-3.048.402a1.746 1.746 0 0 1 1.305-.543c.518 0 .952.181 1.298.543.353.357.526.822.526 1.38 0 .558-.173 1.022-.526 1.378-.346.362-.78.545-1.298.545a1.75 1.75 0 0 1-1.306-.545c-.345-.364-.518-.82-.518-1.379 0-.557.173-1.015.519-1.379Zm5.21.788-.027-.929h.026l2.423 3.928h.64V5.585h-.613v2.817l.026.929h-.026l-2.316-3.746h-.746V10.4h.612v-3Z" fill="#000"/>
</svg>
