<svg width="517" height="716" viewBox="0 0 517 716" fill="none" xmlns="http://www.w3.org/2000/svg">
<path d="M66.709 301.692H233.369V531.112H66.709V301.692Z" stroke="#263238" stroke-width="1.29832" stroke-linecap="round" stroke-linejoin="round"/>
<path d="M150.039 301.826V531.916" stroke="#263238" stroke-width="1.29832" stroke-linecap="round" stroke-linejoin="round"/>
<path d="M66.5652 416.875H233.504" stroke="#263238" stroke-width="1.29832" stroke-linecap="round" stroke-linejoin="round"/>
<path d="M66.5652 359.261H233.504" stroke="#263238" stroke-width="1.29832" stroke-linecap="round" stroke-linejoin="round"/>
<path d="M66.5652 474.49H233.504" stroke="#263238" stroke-width="1.29832" stroke-linecap="round" stroke-linejoin="round"/>
<path d="M96.9416 385.853L113.185 401.378" stroke="#263238" stroke-width="1.29832" stroke-linecap="round" stroke-linejoin="round"/>
<path d="M72.7825 362.754L92.1887 381.306" stroke="#263238" stroke-width="1.29832" stroke-linecap="round" stroke-linejoin="round"/>
<path d="M114.362 393.982L119.519 398.912" stroke="#263238" stroke-width="1.29832" stroke-linecap="round" stroke-linejoin="round"/>
<path d="M92.2066 372.794L110.813 390.578" stroke="#263238" stroke-width="1.29832" stroke-linecap="round" stroke-linejoin="round"/>
<path d="M187.073 333.321L203.316 348.846" stroke="#263238" stroke-width="1.29832" stroke-linecap="round" stroke-linejoin="round"/>
<path d="M162.914 310.222L182.32 328.784" stroke="#263238" stroke-width="1.29832" stroke-linecap="round" stroke-linejoin="round"/>
<path d="M204.493 341.45L209.65 346.381" stroke="#263238" stroke-width="1.29832" stroke-linecap="round" stroke-linejoin="round"/>
<path d="M182.338 320.271L200.945 338.047" stroke="#263238" stroke-width="1.29832" stroke-linecap="round" stroke-linejoin="round"/>
<path d="M100.832 446.879L117.066 462.404" stroke="#263238" stroke-width="1.29832" stroke-linecap="round" stroke-linejoin="round"/>
<path d="M76.6636 423.78L96.0789 442.342" stroke="#263238" stroke-width="1.29832" stroke-linecap="round" stroke-linejoin="round"/>
<path d="M118.252 455.008L123.409 459.939" stroke="#263238" stroke-width="1.29832" stroke-linecap="round" stroke-linejoin="round"/>
<path d="M96.0879 433.829L114.695 451.605" stroke="#263238" stroke-width="1.29832" stroke-linecap="round" stroke-linejoin="round"/>
<path d="M93.5008 509.496L94.2016 503.529C94.2016 503.529 97.391 503.708 98.6219 500.948C99.3676 499.277 100.122 495.892 99.0262 494.221C98.7066 493.7 98.241 493.282 97.6864 493.019C97.1318 492.756 96.5122 492.659 95.9032 492.741C95.2942 492.822 94.7223 493.078 94.2574 493.478C93.7924 493.877 93.4546 494.402 93.2851 494.99C92.4316 497.41 92.0094 498.446 92.0094 498.446C92.216 494.936 94.8754 480.796 86.8703 482.949C83.6179 483.842 82.7285 486.95 82.5847 489.416C82.441 491.881 82.7734 498.268 82.7734 498.268C82.7734 498.268 80.6261 498.5 80.4824 494.954C80.3386 491.408 76.8886 489.8 75.3523 491.479C73.816 493.158 73.1242 499.125 74.7953 500.992C76.4664 502.859 81.7582 503.511 81.7582 503.511L81.4078 509.505L93.5008 509.496Z" fill="#92E3A9" stroke="#263238" stroke-width="1.29832" stroke-linecap="round" stroke-linejoin="round"/>
<path d="M88.9008 483.931C88.9008 483.931 90.2215 485.128 89.8621 489.201C89.5027 493.275 89.5027 500.563 89.5027 500.563" stroke="#263238" stroke-width="0.64916" stroke-linecap="round" stroke-linejoin="round"/>
<path d="M85.4058 486.682C85.4058 486.682 83.8424 486.45 84.3276 490.157C84.5889 493.26 84.5889 496.38 84.3276 499.483" stroke="#263238" stroke-width="0.64916" stroke-linecap="round" stroke-linejoin="round"/>
<path d="M96.7257 494.579C96.7257 494.579 98.289 494.936 97.5613 497.455C96.8335 499.974 96.5999 501.877 94.9199 502.243C94.1682 502.428 93.4016 502.548 92.6289 502.6L92.3863 505.226" stroke="#263238" stroke-width="0.64916" stroke-linecap="round" stroke-linejoin="round"/>
<path d="M81.5603 502.118C81.5603 502.118 76.6279 502.243 75.6666 500.206C74.7052 498.17 75.2982 494.704 75.2982 494.704" stroke="#263238" stroke-width="0.64916" stroke-linecap="round" stroke-linejoin="round"/>
<path d="M94.6778 495.24C94.6778 495.323 94.7026 495.404 94.749 495.473C94.7954 495.542 94.8614 495.596 94.9385 495.628C95.0157 495.659 95.1006 495.668 95.1825 495.651C95.2644 495.635 95.3397 495.595 95.3988 495.537C95.4578 495.478 95.4981 495.403 95.5144 495.322C95.5306 495.24 95.5223 495.156 95.4903 495.079C95.4583 495.002 95.4042 494.937 95.3348 494.891C95.2653 494.844 95.1837 494.82 95.1002 494.82C95.0447 494.82 94.9898 494.831 94.9385 494.852C94.8873 494.873 94.8408 494.904 94.8015 494.943C94.7623 494.982 94.7312 495.028 94.71 495.079C94.6888 495.13 94.6778 495.185 94.6778 495.24V495.24Z" stroke="#263238" stroke-width="0.64916" stroke-linecap="round" stroke-linejoin="round"/>
<path d="M93.6534 500.501C93.4202 500.501 93.2311 500.313 93.2311 500.081C93.2311 499.849 93.4202 499.661 93.6534 499.661C93.8866 499.661 94.0757 499.849 94.0757 500.081C94.0757 500.313 93.8866 500.501 93.6534 500.501Z" stroke="#263238" stroke-width="0.64916" stroke-linecap="round" stroke-linejoin="round"/>
<path d="M95.7555 498.527C95.5223 498.527 95.3333 498.339 95.3333 498.107C95.3333 497.875 95.5223 497.687 95.7555 497.687C95.9887 497.687 96.1777 497.875 96.1777 498.107C96.1777 498.339 95.9887 498.527 95.7555 498.527Z" stroke="#263238" stroke-width="0.64916" stroke-linecap="round" stroke-linejoin="round"/>
<path d="M87.212 493.569C86.9788 493.569 86.7897 493.381 86.7897 493.15C86.7897 492.918 86.9788 492.73 87.212 492.73C87.4452 492.73 87.6343 492.918 87.6343 493.15C87.6343 493.381 87.4452 493.569 87.212 493.569Z" stroke="#263238" stroke-width="0.64916" stroke-linecap="round" stroke-linejoin="round"/>
<path d="M91.1827 489.496C90.9495 489.496 90.7604 489.308 90.7604 489.076C90.7604 488.844 90.9495 488.656 91.1827 488.656C91.4159 488.656 91.605 488.844 91.605 489.076C91.605 489.308 91.4159 489.496 91.1827 489.496Z" stroke="#263238" stroke-width="0.64916" stroke-linecap="round" stroke-linejoin="round"/>
<path d="M85.4056 503.672C85.4056 503.755 85.4304 503.836 85.4768 503.905C85.5232 503.974 85.5892 504.028 85.6663 504.06C85.7435 504.092 85.8284 504.1 85.9103 504.084C85.9923 504.067 86.0675 504.028 86.1265 503.969C86.1856 503.91 86.2258 503.835 86.2421 503.754C86.2584 503.672 86.2501 503.588 86.2181 503.511C86.1861 503.435 86.132 503.369 86.0625 503.323C85.9931 503.277 85.9115 503.252 85.8279 503.252C85.7159 503.252 85.6085 503.296 85.5293 503.375C85.4501 503.454 85.4056 503.561 85.4056 503.672V503.672Z" stroke="#263238" stroke-width="0.64916" stroke-linecap="round" stroke-linejoin="round"/>
<path d="M89.9787 503.073C89.9787 503.157 90.0034 503.238 90.0498 503.307C90.0963 503.376 90.1622 503.43 90.2393 503.461C90.3165 503.493 90.4014 503.501 90.4834 503.485C90.5653 503.469 90.6405 503.429 90.6996 503.37C90.7586 503.312 90.7988 503.237 90.8151 503.155C90.8314 503.074 90.8231 502.99 90.7911 502.913C90.7591 502.836 90.705 502.771 90.6356 502.724C90.5661 502.678 90.4845 502.654 90.401 502.654C90.289 502.654 90.1816 502.698 90.1024 502.777C90.0232 502.855 89.9787 502.962 89.9787 503.073V503.073Z" stroke="#263238" stroke-width="0.64916" stroke-linecap="round" stroke-linejoin="round"/>
<path d="M86.493 485.673C86.2598 485.673 86.0707 485.485 86.0707 485.253C86.0707 485.021 86.2598 484.833 86.493 484.833C86.7262 484.833 86.9153 485.021 86.9153 485.253C86.9153 485.485 86.7262 485.673 86.493 485.673Z" stroke="#263238" stroke-width="0.64916" stroke-linecap="round" stroke-linejoin="round"/>
<path d="M77.5264 493.203C77.5264 493.286 77.5511 493.367 77.5975 493.436C77.6439 493.505 77.7099 493.559 77.787 493.591C77.8642 493.623 77.9491 493.631 78.031 493.615C78.1129 493.599 78.1881 493.559 78.2472 493.5C78.3062 493.441 78.3464 493.366 78.3627 493.285C78.379 493.204 78.3707 493.119 78.3387 493.042C78.3067 492.966 78.2526 492.9 78.1832 492.854C78.1138 492.808 78.0321 492.783 77.9486 492.783C77.8366 492.783 77.7293 492.828 77.6501 492.906C77.5709 492.985 77.5264 493.092 77.5264 493.203V493.203Z" stroke="#263238" stroke-width="0.64916" stroke-linecap="round" stroke-linejoin="round"/>
<path d="M79.036 499.313C78.8028 499.313 78.6138 499.125 78.6138 498.893C78.6138 498.661 78.8028 498.473 79.036 498.473C79.2692 498.473 79.4583 498.661 79.4583 498.893C79.4583 499.125 79.2692 499.313 79.036 499.313Z" stroke="#263238" stroke-width="0.64916" stroke-linecap="round" stroke-linejoin="round"/>
<path d="M86.493 499.188C86.2598 499.188 86.0707 499 86.0707 498.768C86.0707 498.536 86.2598 498.348 86.493 498.348C86.7262 498.348 86.9153 498.536 86.9153 498.768C86.9153 499 86.7262 499.188 86.493 499.188Z" stroke="#263238" stroke-width="0.64916" stroke-linecap="round" stroke-linejoin="round"/>
<path d="M76.9065 505.628H98.5588L96.3936 523.279H79.0717L76.9065 505.628Z" fill="white" stroke="#263238" stroke-width="1.29832" stroke-linecap="round" stroke-linejoin="round"/>
<path d="M399.22 473.087L382.644 630.95" stroke="#263238" stroke-width="2.59664" stroke-miterlimit="10"/>
<path d="M385.322 600.741L392.833 592.853" stroke="#263238" stroke-width="2.59664" stroke-miterlimit="10"/>
<path d="M390.551 595.212C390.562 594.007 390.833 592.818 391.344 591.726C391.855 590.634 392.596 589.663 393.515 588.878C395.438 587.163 405.59 582.921 406.552 586.476C407.63 590.343 397.235 597.936 390.551 595.212Z" fill="#92E3A9" stroke="#263238" stroke-width="1.29832" stroke-miterlimit="10"/>
<path d="M390.551 595.212L400.209 589.227" stroke="#263238" stroke-width="0.64916" stroke-miterlimit="10"/>
<path d="M383.435 618.695L390.946 610.808" stroke="#263238" stroke-width="2.59664" stroke-miterlimit="10"/>
<path d="M388.664 613.166C388.679 611.959 388.954 610.769 389.47 609.677C389.986 608.585 390.731 607.615 391.656 606.833C393.578 605.118 403.731 600.875 404.692 604.43C405.743 608.298 395.312 615.926 388.664 613.166Z" fill="#92E3A9" stroke="#263238" stroke-width="1.29832" stroke-miterlimit="10"/>
<path d="M388.664 613.166L398.322 607.181" stroke="#263238" stroke-width="0.64916" stroke-miterlimit="10"/>
<path d="M389.921 556.927L397.432 549.04" stroke="#263238" stroke-width="2.59664" stroke-miterlimit="10"/>
<path d="M395.151 551.407C395.165 550.2 395.438 549.009 395.953 547.915C396.467 546.822 397.211 545.85 398.133 545.065C400.065 543.359 410.217 539.107 411.179 542.68C412.221 546.53 401.835 554.122 395.151 551.407Z" fill="#92E3A9" stroke="#263238" stroke-width="1.29832" stroke-miterlimit="10"/>
<path d="M395.15 551.407L404.809 545.422" stroke="#263238" stroke-width="0.64916" stroke-miterlimit="10"/>
<path d="M388.035 574.881L395.546 566.994" stroke="#263238" stroke-width="2.59664" stroke-miterlimit="10"/>
<path d="M393.264 569.361C393.278 568.153 393.553 566.962 394.069 565.868C394.585 564.774 395.33 563.803 396.255 563.019C398.178 561.313 408.33 557.07 409.292 560.616C410.343 564.484 399.957 572.077 393.264 569.361Z" fill="#92E3A9" stroke="#263238" stroke-width="1.29832" stroke-miterlimit="10"/>
<path d="M393.264 569.361L402.922 563.376" stroke="#263238" stroke-width="0.64916" stroke-miterlimit="10"/>
<path d="M392.976 527.763L400.487 519.875" stroke="#263238" stroke-width="2.59664" stroke-miterlimit="10"/>
<path d="M398.205 522.242C398.222 521.035 398.498 519.845 399.014 518.751C399.529 517.657 400.274 516.686 401.197 515.9C403.128 514.194 413.272 509.943 414.242 513.498C415.284 517.365 404.898 524.958 398.205 522.242Z" fill="#92E3A9" stroke="#263238" stroke-width="1.29832" stroke-miterlimit="10"/>
<path d="M398.205 522.242L407.873 516.258" stroke="#263238" stroke-width="0.64916" stroke-miterlimit="10"/>
<path d="M396.058 498.473L403.569 490.586" stroke="#263238" stroke-width="2.59664" stroke-miterlimit="10"/>
<path d="M401.287 492.944C401.305 491.736 401.582 490.546 402.101 489.453C402.621 488.361 403.369 487.392 404.297 486.611C406.228 484.896 416.381 480.653 417.342 484.208C418.357 488.076 407.971 495.66 401.287 492.944Z" fill="#92E3A9" stroke="#263238" stroke-width="1.29832" stroke-miterlimit="10"/>
<path d="M401.287 492.944L410.945 486.959" stroke="#263238" stroke-width="0.64916" stroke-miterlimit="10"/>
<path d="M386.579 590.12L380.865 580.857" stroke="#263238" stroke-width="2.59664" stroke-miterlimit="10"/>
<path d="M382.608 583.635C382.844 582.452 382.823 581.233 382.546 580.059C382.268 578.885 381.741 577.783 381 576.829C379.473 574.756 370.426 568.521 368.745 571.8C366.913 575.364 375.502 584.921 382.608 583.635Z" fill="#92E3A9" stroke="#263238" stroke-width="1.29832" stroke-miterlimit="10"/>
<path d="M382.608 583.635L373.911 575.373" stroke="#263238" stroke-width="0.64916" stroke-miterlimit="10"/>
<path d="M391.539 542.867L385.825 533.613" stroke="#263238" stroke-width="2.59664" stroke-miterlimit="10"/>
<path d="M387.568 536.427C387.804 535.243 387.783 534.022 387.505 532.847C387.228 531.671 386.701 530.568 385.96 529.612C384.432 527.539 375.385 521.305 373.705 524.583C371.872 528.12 380.461 537.678 387.568 536.427Z" fill="#92E3A9" stroke="#263238" stroke-width="1.29832" stroke-miterlimit="10"/>
<path d="M387.568 536.391L378.871 528.12" stroke="#263238" stroke-width="0.64916" stroke-miterlimit="10"/>
<path d="M393.722 522.109L388.008 512.846" stroke="#263238" stroke-width="2.59664" stroke-miterlimit="10"/>
<path d="M389.751 515.632C389.985 514.447 389.96 513.225 389.68 512.05C389.399 510.874 388.869 509.772 388.125 508.817C386.588 506.745 377.541 500.51 375.861 503.788C374.055 507.352 382.644 516.91 389.751 515.632Z" fill="#92E3A9" stroke="#263238" stroke-width="1.29832" stroke-miterlimit="10"/>
<path d="M389.751 515.632L381.054 507.361" stroke="#263238" stroke-width="0.64916" stroke-miterlimit="10"/>
<path d="M396.911 491.667L391.206 482.413" stroke="#263238" stroke-width="2.59664" stroke-miterlimit="10"/>
<path d="M392.949 485.191C393.185 484.006 393.162 482.784 392.884 481.609C392.605 480.433 392.076 479.331 391.332 478.375C389.805 476.303 380.758 470.068 379.078 473.346C377.254 476.919 385.834 486.477 392.949 485.191Z" fill="#92E3A9" stroke="#263238" stroke-width="1.29832" stroke-miterlimit="10"/>
<path d="M392.949 485.191L384.244 476.919" stroke="#263238" stroke-width="0.64916" stroke-miterlimit="10"/>
<path d="M399.355 472.212C399.591 471.028 399.57 469.807 399.293 468.631C399.015 467.456 398.488 466.353 397.747 465.396C396.22 463.324 387.172 457.089 385.492 460.367C383.633 463.932 392.249 473.489 399.355 472.212Z" fill="#92E3A9" stroke="#263238" stroke-width="1.29832" stroke-miterlimit="10"/>
<path d="M399.355 472.212L390.658 463.94" stroke="#263238" stroke-width="0.64916" stroke-miterlimit="10"/>
<path d="M398.852 472.569C400.062 472.676 401.281 472.524 402.427 472.125C403.574 471.726 404.621 471.089 405.5 470.256C407.414 468.532 412.688 458.929 409.247 457.607C405.482 456.178 396.822 465.673 398.852 472.569Z" fill="#92E3A9" stroke="#263238" stroke-width="1.29832" stroke-miterlimit="10"/>
<path d="M398.852 472.569L406.21 463.101" stroke="#263238" stroke-width="0.64916" stroke-miterlimit="10"/>
<path d="M355.512 494.829L371.989 652.701" stroke="#263238" stroke-width="2.59664" stroke-miterlimit="10"/>
<path d="M368.35 622.59L374.064 613.336" stroke="#263238" stroke-width="2.59664" stroke-miterlimit="10"/>
<path d="M372.321 616.114C372.085 614.929 372.108 613.707 372.387 612.532C372.666 611.356 373.195 610.253 373.938 609.298C375.465 607.235 384.522 601 386.193 604.278C388.026 607.887 379.428 617.4 372.321 616.114Z" fill="#92E3A9" stroke="#263238" stroke-width="1.29832" stroke-miterlimit="10"/>
<path d="M372.321 616.114L380.533 608.28" stroke="#263238" stroke-width="0.64916" stroke-miterlimit="10"/>
<path d="M363.777 578.776L369.491 569.522" stroke="#263238" stroke-width="2.59664" stroke-miterlimit="10"/>
<path d="M367.748 572.3C367.513 571.115 367.535 569.894 367.814 568.718C368.093 567.542 368.622 566.44 369.366 565.484C370.893 563.421 379.949 557.186 381.62 560.464C383.453 564.037 374.855 573.586 367.748 572.3Z" fill="#92E3A9" stroke="#263238" stroke-width="1.29832" stroke-miterlimit="10"/>
<path d="M367.748 572.3L375.96 564.466" stroke="#263238" stroke-width="0.64916" stroke-miterlimit="10"/>
<path d="M365.646 596.73L371.369 587.476" stroke="#263238" stroke-width="2.59664" stroke-miterlimit="10"/>
<path d="M369.626 590.254C369.39 589.071 369.411 587.852 369.689 586.678C369.966 585.504 370.493 584.402 371.234 583.448C372.771 581.375 381.818 575.14 383.498 578.419C385.322 581.983 376.733 591.54 369.626 590.254Z" fill="#92E3A9" stroke="#263238" stroke-width="1.29832" stroke-miterlimit="10"/>
<path d="M369.626 590.254L377.838 582.42" stroke="#263238" stroke-width="0.64916" stroke-miterlimit="10"/>
<path d="M360.731 549.612L366.445 540.358" stroke="#263238" stroke-width="2.59664" stroke-miterlimit="10"/>
<path d="M364.703 543.135C364.467 541.951 364.489 540.729 364.768 539.553C365.047 538.378 365.576 537.275 366.32 536.32C367.847 534.248 376.903 528.022 378.584 531.3C380.407 534.864 371.809 544.466 364.703 543.135Z" fill="#92E3A9" stroke="#263238" stroke-width="1.29832" stroke-miterlimit="10"/>
<path d="M364.703 543.135L372.914 535.302" stroke="#263238" stroke-width="0.64916" stroke-miterlimit="10"/>
<path d="M357.677 520.313L363.391 511.059" stroke="#263238" stroke-width="2.59664" stroke-miterlimit="10"/>
<path d="M361.648 513.837C361.412 512.654 361.433 511.435 361.711 510.261C361.988 509.087 362.515 507.985 363.256 507.031C364.792 504.958 373.848 498.723 375.52 502.01C377.343 505.575 368.754 515.132 361.648 513.837Z" fill="#92E3A9" stroke="#263238" stroke-width="1.29832" stroke-miterlimit="10"/>
<path d="M361.648 513.837L369.86 506.003" stroke="#263238" stroke-width="0.64916" stroke-miterlimit="10"/>
<path d="M367.38 611.933L359.878 604.046" stroke="#263238" stroke-width="2.59664" stroke-miterlimit="10"/>
<path d="M362.16 606.413C362.145 605.205 361.871 604.014 361.355 602.92C360.839 601.826 360.093 600.855 359.168 600.071C357.245 598.356 347.093 594.113 346.132 597.659C345.081 601.527 355.467 609.119 362.16 606.413Z" fill="#92E3A9" stroke="#263238" stroke-width="1.29832" stroke-miterlimit="10"/>
<path d="M362.16 606.413L351.927 600.098" stroke="#263238" stroke-width="0.64916" stroke-miterlimit="10"/>
<path d="M362.448 564.689L354.946 556.793" stroke="#263238" stroke-width="2.59664" stroke-miterlimit="10"/>
<path d="M357.228 559.16C357.213 557.953 356.939 556.764 356.423 555.671C355.907 554.579 355.161 553.609 354.236 552.827C352.313 551.112 342.17 546.86 341.199 550.415C340.148 554.292 350.534 561.876 357.228 559.16Z" fill="#92E3A9" stroke="#263238" stroke-width="1.29832" stroke-miterlimit="10"/>
<path d="M357.228 559.16L347.003 552.854" stroke="#263238" stroke-width="0.64916" stroke-miterlimit="10"/>
<path d="M360.282 543.922L352.78 536.034" stroke="#263238" stroke-width="2.59664" stroke-miterlimit="10"/>
<path d="M355.053 538.392C355.041 537.186 354.769 535.996 354.254 534.904C353.74 533.811 352.995 532.841 352.071 532.059C350.148 530.344 339.996 526.092 339.034 529.647C337.983 533.515 348.369 541.108 355.053 538.392Z" fill="#92E3A9" stroke="#263238" stroke-width="1.29832" stroke-miterlimit="10"/>
<path d="M355.053 538.392L344.829 532.086" stroke="#263238" stroke-width="0.64916" stroke-miterlimit="10"/>
<path d="M357.111 513.48L349.6 505.592" stroke="#263238" stroke-width="2.59664" stroke-miterlimit="10"/>
<path d="M351.882 507.96C351.867 506.751 351.592 505.56 351.076 504.466C350.56 503.373 349.815 502.401 348.89 501.617C346.967 499.902 336.824 495.651 335.854 499.206C334.803 503.073 345.188 510.666 351.882 507.96Z" fill="#92E3A9" stroke="#263238" stroke-width="1.29832" stroke-miterlimit="10"/>
<path d="M351.882 507.96L341.658 501.644" stroke="#263238" stroke-width="0.64916" stroke-miterlimit="10"/>
<path d="M355.467 493.936C355.452 492.73 355.179 491.541 354.664 490.448C354.15 489.356 353.406 488.386 352.484 487.603C350.552 485.887 340.409 481.636 339.447 485.191C338.396 489.085 348.773 496.651 355.467 493.936Z" fill="#92E3A9" stroke="#263238" stroke-width="1.29832" stroke-miterlimit="10"/>
<path d="M355.467 493.936L345.242 487.629" stroke="#263238" stroke-width="0.64916" stroke-miterlimit="10"/>
<path d="M355.044 494.391C356.25 494.25 357.412 493.855 358.452 493.231C359.492 492.607 360.385 491.769 361.073 490.774C362.582 488.692 365.772 478.214 362.115 477.634C358.144 477 351.63 488.058 355.044 494.391Z" fill="#92E3A9" stroke="#263238" stroke-width="1.29832" stroke-miterlimit="10"/>
<path d="M355.044 494.391L360.282 483.619" stroke="#263238" stroke-width="0.64916" stroke-miterlimit="10"/>
<path d="M374.397 430.542V630.182" stroke="#263238" stroke-width="2.59664" stroke-miterlimit="10"/>
<path d="M374.235 600.169L380.884 591.54" stroke="#263238" stroke-width="2.59664" stroke-miterlimit="10"/>
<path d="M378.862 594.131C378.749 592.929 378.896 591.717 379.295 590.577C379.693 589.436 380.333 588.394 381.171 587.521C382.914 585.618 392.563 580.375 393.893 583.787C395.312 587.521 385.798 596.141 378.862 594.131Z" fill="#92E3A9" stroke="#263238" stroke-width="1.29832" stroke-miterlimit="10"/>
<path d="M378.862 594.131L387.846 587.181" stroke="#263238" stroke-width="0.64916" stroke-miterlimit="10"/>
<path d="M374.235 562.644L380.884 554.024" stroke="#263238" stroke-width="2.59664" stroke-miterlimit="10"/>
<path d="M378.862 556.615C378.749 555.413 378.896 554.201 379.295 553.06C379.693 551.92 380.333 550.878 381.171 550.005C382.914 548.102 392.563 542.859 393.893 546.262C395.312 550.005 385.798 558.624 378.862 556.615Z" fill="#92E3A9" stroke="#263238" stroke-width="1.29832" stroke-miterlimit="10"/>
<path d="M378.862 556.615L387.846 549.665" stroke="#263238" stroke-width="0.64916" stroke-miterlimit="10"/>
<path d="M374.235 518.598L380.884 509.978" stroke="#263238" stroke-width="2.59664" stroke-miterlimit="10"/>
<path d="M378.862 512.56C378.749 511.358 378.896 510.146 379.295 509.006C379.693 507.865 380.333 506.823 381.171 505.95C382.914 504.047 392.563 498.804 393.893 502.216C395.312 505.95 385.798 514.57 378.862 512.56Z" fill="#92E3A9" stroke="#263238" stroke-width="1.29832" stroke-miterlimit="10"/>
<path d="M378.862 512.56L387.846 505.61" stroke="#263238" stroke-width="0.64916" stroke-miterlimit="10"/>
<path d="M374.235 489.273L380.884 480.653" stroke="#263238" stroke-width="2.59664" stroke-miterlimit="10"/>
<path d="M378.862 483.234C378.748 482.034 378.896 480.823 379.294 479.684C379.693 478.545 380.333 477.505 381.171 476.633C382.914 474.731 392.563 469.487 393.893 472.891C395.312 476.633 385.798 485.253 378.862 483.234Z" fill="#92E3A9" stroke="#263238" stroke-width="1.29832" stroke-miterlimit="10"/>
<path d="M378.862 483.235L387.846 476.285" stroke="#263238" stroke-width="0.64916" stroke-miterlimit="10"/>
<path d="M374.235 459.823L380.884 451.203" stroke="#263238" stroke-width="2.59664" stroke-miterlimit="10"/>
<path d="M378.862 453.784C378.749 452.582 378.896 451.37 379.295 450.23C379.693 449.09 380.333 448.048 381.171 447.174C382.914 445.272 392.563 440.028 393.893 443.44C395.312 447.174 385.798 455.803 378.862 453.784Z" fill="#92E3A9" stroke="#263238" stroke-width="1.29832" stroke-miterlimit="10"/>
<path d="M378.862 453.784L387.846 446.835" stroke="#263238" stroke-width="0.64916" stroke-miterlimit="10"/>
<path d="M374.379 611.621L367.73 603.001" stroke="#263238" stroke-width="2.59664" stroke-miterlimit="10"/>
<path d="M369.761 605.582C369.878 604.378 369.733 603.163 369.336 602.02C368.939 600.876 368.3 599.831 367.461 598.954C365.727 597.052 356.078 591.808 354.748 595.212C353.284 598.954 362.825 607.601 369.761 605.582Z" fill="#92E3A9" stroke="#263238" stroke-width="1.29832" stroke-miterlimit="10"/>
<path d="M369.761 605.582L360.247 598.267" stroke="#263238" stroke-width="0.64916" stroke-miterlimit="10"/>
<path d="M374.379 551.952L367.73 543.332" stroke="#263238" stroke-width="2.59664" stroke-miterlimit="10"/>
<path d="M369.76 545.913C369.87 544.711 369.72 543.499 369.321 542.359C368.921 541.219 368.28 540.177 367.442 539.303C365.708 537.401 356.059 532.158 354.73 535.57C353.283 539.303 362.825 547.923 369.76 545.913Z" fill="#92E3A9" stroke="#263238" stroke-width="1.29832" stroke-miterlimit="10"/>
<path d="M369.761 545.913L360.247 538.589" stroke="#263238" stroke-width="0.64916" stroke-miterlimit="10"/>
<path d="M374.379 522.502L367.73 513.882" stroke="#263238" stroke-width="2.59664" stroke-miterlimit="10"/>
<path d="M369.76 516.463C369.87 515.261 369.72 514.049 369.321 512.909C368.921 511.769 368.28 510.727 367.442 509.853C365.708 507.951 356.059 502.707 354.73 506.119C353.283 509.853 362.825 518.473 369.76 516.463Z" fill="#92E3A9" stroke="#263238" stroke-width="1.29832" stroke-miterlimit="10"/>
<path d="M369.761 516.463L360.247 509.139" stroke="#263238" stroke-width="0.64916" stroke-miterlimit="10"/>
<path d="M374.379 483.574L367.73 474.954" stroke="#263238" stroke-width="2.59664" stroke-miterlimit="10"/>
<path d="M369.76 477.536C369.87 476.333 369.72 475.121 369.321 473.981C368.921 472.841 368.28 471.799 367.442 470.926C365.708 469.023 356.059 463.78 354.73 467.192C353.283 470.926 362.825 479.545 369.76 477.536Z" fill="#92E3A9" stroke="#263238" stroke-width="1.29832" stroke-miterlimit="10"/>
<path d="M369.761 477.536L360.247 470.211" stroke="#263238" stroke-width="0.64916" stroke-miterlimit="10"/>
<path d="M374.379 452.971L367.73 444.343" stroke="#263238" stroke-width="2.59664" stroke-miterlimit="10"/>
<path d="M369.76 446.933C369.87 445.731 369.72 444.519 369.321 443.379C368.921 442.239 368.28 441.197 367.442 440.323C365.708 438.42 356.059 433.177 354.73 436.589C353.283 440.323 362.825 448.943 369.76 446.933Z" fill="#92E3A9" stroke="#263238" stroke-width="1.29832" stroke-miterlimit="10"/>
<path d="M369.761 446.933L360.247 439.608" stroke="#263238" stroke-width="0.64916" stroke-miterlimit="10"/>
<path d="M374.783 433.356C374.893 432.153 374.743 430.942 374.343 429.801C373.943 428.661 373.303 427.62 372.465 426.746C370.731 424.852 361.082 419.6 359.752 423.012C358.306 426.746 367.847 435.374 374.783 433.356Z" fill="#92E3A9" stroke="#263238" stroke-width="1.29832" stroke-miterlimit="10"/>
<path d="M374.783 433.356L365.268 426.031" stroke="#263238" stroke-width="0.64916" stroke-miterlimit="10"/>
<path d="M374.316 433.767C375.53 433.752 376.728 433.478 377.827 432.963C378.926 432.449 379.901 431.705 380.686 430.783C382.402 428.872 386.66 418.778 383.084 417.822C379.203 416.786 371.575 427.121 374.316 433.767Z" fill="#92E3A9" stroke="#263238" stroke-width="1.29832" stroke-miterlimit="10"/>
<path d="M374.316 433.767L380.641 423.593" stroke="#263238" stroke-width="0.64916" stroke-miterlimit="10"/>
<path d="M366.131 681.964H387.397L390.056 628.565H363.471L366.131 681.964Z" fill="#263238" stroke="#263238" stroke-width="1.29832" stroke-miterlimit="10"/>
<path d="M173.982 464.968H108.414L123.688 520.903H189.256L173.982 464.968Z" fill="#7D7D7D" stroke="#263238" stroke-width="1.29832" stroke-linecap="round" stroke-linejoin="round"/>
<path d="M172.113 467.049H111.424L125.556 518.821H186.246L172.113 467.049Z" fill="white" stroke="#263238" stroke-width="1.29832" stroke-linecap="round" stroke-linejoin="round"/>
<path d="M157.415 502.672L153.767 489.13H152.249L155.519 501.305H151.629L151.997 502.672H157.415Z" fill="#263238"/>
<path d="M148.197 492.399C147.64 490.327 146.247 488.996 144.172 488.996C142.097 488.996 141.396 490.327 141.953 492.399L143.839 499.402C144.388 501.457 145.789 502.814 147.891 502.814C149.994 502.814 150.641 501.457 150.084 499.402L148.197 492.399ZM148.61 499.483C148.943 500.724 148.61 501.439 147.514 501.439C146.418 501.439 145.717 500.724 145.376 499.483L143.453 492.337C143.121 491.113 143.453 490.38 144.54 490.38C145.627 490.38 146.337 491.113 146.679 492.337L148.61 499.483Z" fill="#263238"/>
<path d="M134.496 492.399L134.766 493.551H136.203L135.871 492.319C135.538 491.095 135.871 490.363 136.94 490.363C138.009 490.363 138.737 491.095 139.06 492.319L140.992 499.465C141.315 500.68 140.992 501.421 139.923 501.421C138.854 501.421 138.126 500.68 137.802 499.465L137.066 496.785H138.467L138.108 495.427H135.26L136.338 499.411C136.886 501.466 138.225 502.823 140.327 502.823C142.429 502.823 143.022 501.466 142.465 499.411L140.579 492.408C140.031 490.363 138.692 489.005 136.608 489.005C134.523 489.005 133.948 490.354 134.496 492.399Z" fill="#263238"/>
<path d="M133.166 492.399C132.609 490.327 131.226 488.996 129.141 488.996C127.057 488.996 126.365 490.327 126.922 492.399L128.809 499.402C129.357 501.457 130.758 502.814 132.861 502.814C134.963 502.814 135.61 501.457 135.053 499.402L133.166 492.399ZM133.579 499.483C133.912 500.724 133.579 501.439 132.483 501.439C131.387 501.439 130.686 500.724 130.345 499.483L128.422 492.337C128.09 491.113 128.422 490.38 129.51 490.38C130.597 490.38 131.306 491.113 131.648 492.337L133.579 499.483Z" fill="#263238"/>
<path d="M155.762 489.871C155.879 486.79 156.598 481.109 159.985 476.714C164.881 470.372 173.758 479.001 170.02 489.791C169.527 491.18 168.811 492.48 167.9 493.641" stroke="#263238" stroke-width="1.29832" stroke-linecap="round" stroke-linejoin="round"/>
<path d="M164.369 497.044C164.369 497.044 177.324 499 174.593 503.726C169.876 511.917 162.015 504.395 158.718 500.563" stroke="#263238" stroke-width="1.29832" stroke-linecap="round" stroke-linejoin="round"/>
<path d="M158.502 485.762C157.047 489.648 157.352 493.346 159.185 494.025C161.018 494.704 163.677 492.104 165.151 488.219C166.624 484.333 166.292 480.626 164.459 479.947C162.626 479.269 159.922 481.877 158.502 485.762Z" fill="#92E3A9" stroke="#263238" stroke-width="1.29832" stroke-linecap="round" stroke-linejoin="round"/>
<path d="M171.539 503.949C171.089 505.137 168.789 505.369 166.4 504.467C164.01 503.565 162.446 501.877 162.896 500.688C163.345 499.5 165.654 499.268 168.035 500.17C170.416 501.073 171.997 502.761 171.539 503.949Z" fill="#92E3A9" stroke="#263238" stroke-width="1.29832" stroke-linecap="round" stroke-linejoin="round"/>
<path d="M151.836 478.92C151.12 480.996 150.938 483.218 151.307 485.382C151.675 487.546 152.583 489.584 153.947 491.309C153.539 487.993 153.921 484.627 155.061 481.484" stroke="#263238" stroke-width="1.29832" stroke-linecap="round" stroke-linejoin="round"/>
<path d="M123.688 517.937H215.616V520.912H123.688V517.937Z" fill="#7D7D7D" stroke="#263238" stroke-width="1.29832" stroke-linecap="round" stroke-linejoin="round"/>
<path d="M123.688 517.937H165.932V520.912H123.688V517.937Z" fill="#595959" stroke="#263238" stroke-width="1.29832" stroke-linecap="round" stroke-linejoin="round"/>
<path d="M240.081 525.646H245.022V681.615H240.081V525.646Z" fill="white" stroke="#263238" stroke-width="1.29832" stroke-linecap="round" stroke-linejoin="round"/>
<path d="M249.245 681.615H245.022L245.022 525.646H249.245L249.245 681.615Z" fill="#A8A8A8" stroke="#263238" stroke-width="1.29832" stroke-linecap="round" stroke-linejoin="round"/>
<path d="M113.491 607.253H118.432V681.615H113.491V607.253Z" fill="white" stroke="#263238" stroke-width="1.29832" stroke-linecap="round" stroke-linejoin="round"/>
<path d="M122.655 681.624H118.432L118.432 607.262H122.655L122.655 681.624Z" fill="#A8A8A8" stroke="#263238" stroke-width="1.29832" stroke-linecap="round" stroke-linejoin="round"/>
<path d="M60.5818 607.253H65.5232V681.615H60.5818V607.253Z" fill="white" stroke="#263238" stroke-width="1.29832" stroke-linecap="round" stroke-linejoin="round"/>
<path d="M69.7458 681.624H65.5232L65.5232 607.262H69.7458L69.7458 681.624Z" fill="#A8A8A8" stroke="#263238" stroke-width="1.29832" stroke-linecap="round" stroke-linejoin="round"/>
<path d="M167.415 611.495H119.205L119.205 527.155H167.415V611.495Z" fill="#A8A8A8" stroke="#263238" stroke-width="1.29832" stroke-linecap="round" stroke-linejoin="round"/>
<path d="M55.676 527.164H119.205V611.504H55.676V527.164Z" fill="white" stroke="#263238" stroke-width="1.29832" stroke-linecap="round" stroke-linejoin="round"/>
<path d="M119.205 527.164H167.406V531.273H119.205H55.6763V527.164H119.205Z" fill="#263238" stroke="#263238" stroke-width="1.29832" stroke-linecap="round" stroke-linejoin="round"/>
<path d="M122.197 531.997H163.3V551.684H122.197V531.997Z" fill="white" stroke="#263238" stroke-width="1.29832" stroke-linecap="round" stroke-linejoin="round"/>
<path d="M137.326 539.982H148.161V543.698H137.326V539.982Z" fill="#263238"/>
<path d="M122.197 559.116H163.3V578.803H122.197V559.116Z" fill="white" stroke="#263238" stroke-width="1.29832" stroke-linecap="round" stroke-linejoin="round"/>
<path d="M137.326 566.735H148.161V570.451H137.326V566.735Z" fill="#263238"/>
<path d="M122.197 586.234H163.3V605.922H122.197V586.234Z" fill="white" stroke="#263238" stroke-width="1.29832" stroke-linecap="round" stroke-linejoin="round"/>
<path d="M137.326 593.479H148.161V597.195H137.326V593.479Z" fill="#263238"/>
<path d="M49.1176 523.457H256.055V528.361H49.1176V523.457Z" fill="#A8A8A8" stroke="#263238" stroke-width="1.29832" stroke-linecap="round" stroke-linejoin="round"/>
<path d="M49.1172 523.457H111.604V528.361H49.1172V523.457Z" fill="white" stroke="#263238" stroke-width="1.29832" stroke-linecap="round" stroke-linejoin="round"/>
<path d="M238.508 573.372C238.508 573.372 232.345 577.615 223.235 603.84C220.198 612.558 203.119 659.57 202.22 662.794C201.322 666.019 199.525 669.94 196.83 669.94C194.134 669.94 184.252 657.435 185.456 655.952C186.659 654.469 192.338 648.503 192.338 648.503C192.338 648.503 195.734 610.45 196.336 599.731C196.938 589.012 194.485 576.105 200.172 567.467C205.859 558.83 231.024 567.762 231.024 567.762L238.508 573.372Z" fill="white" stroke="#263238" stroke-width="1.29832" stroke-linecap="round" stroke-linejoin="round"/>
<path d="M189.57 648.547C190.265 648.917 190.834 649.482 191.208 650.171C191.582 650.861 191.743 651.644 191.673 652.424C191.367 655.104 188.672 658.677 188.672 658.677C188.672 658.677 194.368 663.143 197.36 663.438C200.352 663.732 203.649 664.331 203.649 665.224C203.649 666.117 201.25 667.609 199.759 670.878C198.107 674.195 196.203 677.381 194.063 680.409C193.164 681.597 192.571 682.49 189.274 681.597C185.977 680.704 178.789 674.157 174.899 671.477C171.009 668.797 159.329 667.011 157.227 665.519C155.124 664.027 148.548 654.505 151.54 652.719C154.531 650.932 155.43 653.013 159.024 653.907C162.617 654.8 173.102 653.612 178.789 652.424C184.476 651.236 186.282 650.932 186.282 650.932L189.57 648.547Z" fill="#FEAF02" stroke="#263238" stroke-width="1.29832" stroke-linecap="round" stroke-linejoin="round"/>
<path d="M194.584 679.73C194.386 680.016 194.225 680.248 194.099 680.409C193.2 681.597 192.607 682.49 189.31 681.597C186.013 680.704 178.825 674.156 174.935 671.477C171.045 668.797 159.365 667.011 157.263 665.519C155.16 664.027 148.584 654.505 151.576 652.719C151.996 652.457 152.453 652.258 152.932 652.129C152.878 652.326 152.825 652.504 152.771 652.719C151.872 656.292 154.873 659.865 157.568 662.544C160.264 665.224 169.248 664.626 179.131 669.69C184.592 672.54 189.766 675.902 194.584 679.73Z" fill="white" stroke="#263238" stroke-width="1.29832" stroke-linecap="round" stroke-linejoin="round"/>
<path d="M194.871 618.758C195.518 610.924 196.084 603.572 196.3 599.776C196.902 589.057 194.449 576.15 200.136 567.512C205.823 558.874 230.988 567.807 230.988 567.807L238.508 573.372C238.508 573.372 232.345 577.615 223.235 603.84C222.076 607.172 218.859 616.114 215.275 626.055L194.871 618.758Z" fill="#263238" stroke="#263238" stroke-width="1.29832" stroke-linecap="round" stroke-linejoin="round"/>
<path d="M209.534 420.645C208.756 422.714 208.387 424.913 208.446 427.121C208.716 430.095 211.438 431.444 211.708 430.64C211.941 429.302 212.031 427.942 211.977 426.585V425.504C212.649 426.604 213.471 427.605 214.421 428.479C216.326 430.363 217.413 429.827 218.23 429.827C219.048 429.827 219.318 427.148 217.952 425.236C216.586 423.325 212.247 419.019 209.534 420.645Z" fill="white" stroke="#263238" stroke-width="1.29832" stroke-linecap="round" stroke-linejoin="round"/>
<path d="M203.281 427.666C205.976 426.04 210.073 431.721 216.326 430.346C217.125 430.176 217.413 428.997 216.056 426.299C214.7 423.602 210.351 421.431 208.177 419.814C206.003 418.197 204.368 416.84 204.368 414.946C204.368 413.052 209.264 416.027 210.657 417.108C212.302 418.127 214.012 419.037 215.778 419.832L216.955 419.895C219.372 420.046 223.1 420.475 224.511 421.681C226.361 423.28 227.422 428.773 227.862 430.89C229.066 432.623 230.144 434.222 230.764 435.187C232.668 438.152 270.978 465.986 270.978 465.986L268.282 489.755L224.807 440.627C223.603 439.648 222.217 438.913 220.728 438.465C217.736 437.384 213.666 436.571 210.127 434.678C207.508 433.286 204.967 431.754 202.517 430.086C200.621 428.916 201.807 428.541 203.281 427.666Z" fill="white" stroke="#263238" stroke-width="1.29832" stroke-linecap="round" stroke-linejoin="round"/>
<path d="M248.975 449.783C259.649 457.822 270.942 466.031 270.942 466.031L268.247 489.8L241.518 459.608L248.975 449.783Z" fill="#92E3A9" stroke="#263238" stroke-width="1.29832" stroke-linecap="round" stroke-linejoin="round"/>
<path d="M262.344 539.705C262.344 539.705 243.18 538.812 215.329 543.278C187.477 547.745 177.055 552.506 177.891 557.865C181.287 579.607 232.345 651.182 232.345 651.182L231.447 661.303C231.447 661.303 233.244 663.688 239.533 663.982C245.822 664.277 253.611 655.354 253.611 655.354C253.611 655.354 246.576 648.118 243.881 639.49C241.186 630.861 219.516 575.131 219.516 575.131C219.516 575.131 247.969 581.384 279.414 575.73C310.86 570.076 262.344 539.705 262.344 539.705Z" fill="white" stroke="#263238" stroke-width="1.29832" stroke-linecap="round" stroke-linejoin="round"/>
<path d="M215.329 543.278C243.18 538.812 262.344 539.705 262.344 539.705C262.344 539.705 310.86 570.076 279.414 575.73C247.969 581.384 219.516 575.131 219.516 575.131C219.516 575.131 228.5 598.356 235.687 617.114L214.565 625.153C199.453 602.429 179.948 571.023 177.891 557.865C177.055 552.506 187.477 547.745 215.329 543.278Z" fill="#263238" stroke="#263238" stroke-width="1.29832" stroke-linecap="round" stroke-linejoin="round"/>
<path d="M232.345 651.182C232.95 651.43 233.499 651.795 233.962 652.254C234.425 652.714 234.791 653.261 235.04 653.862C235.618 655.224 236.119 656.616 236.541 658.034C239.818 657.332 243.024 656.333 246.118 655.05C248.398 654.014 250.602 652.82 252.713 651.477C252.713 651.477 255.408 651.781 255.408 653.567C255.423 656.314 255.928 659.035 256.899 661.606C257.672 663.518 259.316 667.779 260.385 670.539C260.51 670.865 260.562 671.213 260.539 671.561C260.516 671.908 260.418 672.247 260.252 672.553C260.086 672.86 259.855 673.128 259.576 673.338C259.297 673.548 258.975 673.697 258.633 673.772C253.89 674.818 243.89 677.113 235.337 679.73C223.657 683.303 210.783 681.517 209.282 681.222C207.782 680.927 201.798 677.345 204.494 674.969C207.189 672.593 223.064 666.332 226.353 662.16C229.641 657.989 232.345 651.182 232.345 651.182Z" fill="#FEAF02" stroke="#263238" stroke-width="1.29832" stroke-linecap="round" stroke-linejoin="round"/>
<path d="M205.698 674.165C205.698 677.122 207.225 680.061 211.987 680.061C216.748 680.061 225.167 679.471 237.143 674.701C244.37 671.885 251.796 669.604 259.361 667.877C259.73 668.833 260.089 669.762 260.394 670.557C260.519 670.882 260.571 671.231 260.548 671.578C260.525 671.926 260.427 672.265 260.261 672.571C260.095 672.878 259.864 673.146 259.585 673.356C259.306 673.566 258.984 673.714 258.642 673.79C253.899 674.835 243.899 677.131 235.346 679.748C223.666 683.321 210.792 681.535 209.291 681.24C207.791 680.945 201.807 677.363 204.503 674.987C204.876 674.679 205.276 674.404 205.698 674.165Z" fill="white" stroke="#263238" stroke-width="1.29832" stroke-linecap="round" stroke-linejoin="round"/>
<path d="M322.845 470.327C322.845 470.327 326.106 495.999 325.827 500.858C325.549 505.717 322.027 547.593 321.209 556.784C320.392 565.976 316.591 574.068 309.799 575.694C303.007 577.32 285.344 579.741 277.734 577.856C270.124 575.971 261.975 558.946 259.262 552.461C256.549 545.976 254.635 541.921 255.453 540.572C256.27 539.223 259.801 536.249 259.801 536.249C259.801 536.249 266.593 487.12 268.229 474.382C269.864 461.645 269.037 460.609 275.021 455.74C281.004 450.872 311.973 446.844 322.845 470.327Z" fill="#92E3A9" stroke="#263238" stroke-width="1.29832" stroke-linecap="round" stroke-linejoin="round"/>
<path d="M279.36 559.928C280.34 560.67 281.364 561.376 282.406 562.037" stroke="#263238" stroke-width="1.29832" stroke-linecap="round" stroke-linejoin="round"/>
<path d="M261.446 538.214C261.446 538.214 267.214 549.469 276.764 557.811" stroke="#263238" stroke-width="1.29832" stroke-linecap="round" stroke-linejoin="round"/>
<path d="M265.641 538.812C265.641 538.812 274.922 547.441 284.203 552.8" stroke="#263238" stroke-width="1.29832" stroke-linecap="round" stroke-linejoin="round"/>
<path d="M258.175 389.569C256.681 392.69 255.495 395.947 254.635 399.296C253.827 403.352 253.548 407.13 251.652 407.943C249.757 408.756 246.262 409.024 246.756 411.185C247.25 413.347 250.835 416.858 250.835 416.858C250.835 416.858 250.017 429.827 250.296 432.257C250.574 434.687 264.967 434.687 265.776 434.687C266.584 434.687 274.76 453.874 274.76 453.874L297.581 442.52L293.232 428.479C293.232 428.479 300.294 414.964 300.842 409.024C301.39 403.084 287.5 392.275 279.639 389.846C271.777 387.416 258.175 389.569 258.175 389.569Z" fill="white" stroke="#263238" stroke-width="1.29832" stroke-linecap="round" stroke-linejoin="round"/>
<path d="M265.776 434.687L273.026 432.632L270.313 443.181L265.776 434.687Z" fill="#263238" stroke="#263238" stroke-width="1.29832" stroke-linecap="round" stroke-linejoin="round"/>
<path d="M255.48 404.852C255.121 406.38 255.291 407.729 255.875 407.863C256.459 407.997 257.232 406.88 257.6 405.361C257.969 403.843 257.789 402.485 257.205 402.351C256.621 402.217 255.848 403.334 255.48 404.852Z" fill="#263238"/>
<path d="M260.071 419.287C260.071 419.287 256.809 421.726 253.827 420.645" stroke="#263238" stroke-width="1.29832" stroke-linecap="round" stroke-linejoin="round"/>
<path d="M259.532 384.442C259.532 384.442 255.723 391.195 258.445 395.518C261.167 399.841 267.681 401.726 271.212 405.781C274.743 409.837 276.602 416.858 278.004 417.393C279.405 417.929 283.395 409.828 285.892 410.364C288.39 410.9 292.406 416.616 288.875 422.521C287.902 424.212 286.466 425.593 284.734 426.502C283.001 427.412 281.044 427.812 279.091 427.657C279.091 427.657 288.875 432.793 290.771 432.793C292.666 432.793 298.38 429.551 301.094 426.54C303.807 423.53 313.555 414.696 314.148 407.407C314.741 400.118 304.912 390.927 304.912 390.927C304.912 390.927 316.592 390.114 313.6 385.79C310.608 381.467 300.016 378.77 300.016 378.77C300.016 378.77 301.92 372.017 299.198 370.659C296.476 369.301 279.909 374.75 279.909 374.75C279.909 374.75 284.527 368.81 278.004 368.497C271.481 368.185 260.35 376.331 259.532 384.442Z" fill="#263238" stroke="#263238" stroke-width="1.29832" stroke-linecap="round" stroke-linejoin="round"/>
<path d="M281.157 413.776L246.487 399.841" stroke="#263238" stroke-width="1.29832" stroke-linecap="round" stroke-linejoin="round"/>
<path d="M255.525 397.885C254.082 397.263 252.454 397.217 250.979 397.757C249.503 398.297 248.293 399.38 247.6 400.783C246.906 402.186 246.783 403.801 247.254 405.292C247.726 406.783 248.758 408.036 250.134 408.792" stroke="#263238" stroke-width="1.29832" stroke-linecap="round" stroke-linejoin="round"/>
<path d="M268.229 461.395C268.229 461.395 268.498 453.561 270.673 451.399C272.847 449.238 288.875 440.323 296.215 438.438C303.555 436.554 311.156 439.242 316.053 440.868C320.949 442.494 324.202 447.103 326.133 457.116C328.065 467.129 328.307 473.32 324.228 473.864C320.15 474.409 314.444 462.252 301.678 459.814C288.911 457.375 277.222 459.546 274.5 460.895C271.778 462.243 268.229 461.395 268.229 461.395Z" fill="#92E3A9" stroke="#263238" stroke-width="1.29832" stroke-linecap="round" stroke-linejoin="round"/>
<path d="M309.494 453.141C311.947 454.034 313.6 454.677 313.6 454.677" stroke="#263238" stroke-width="1.29832" stroke-linecap="round" stroke-linejoin="round"/>
<path d="M268.229 461.395C268.229 461.395 285.299 451.944 291.588 450.05C294.849 449.068 300.707 450.363 305.559 451.837" stroke="#263238" stroke-width="1.29832" stroke-linecap="round" stroke-linejoin="round"/>
<path d="M187.54 505.342C187.54 505.342 188.438 510.961 189.471 511.595C190.505 512.229 190.442 506.378 190.442 506.378C190.442 506.378 191.736 509.746 192.535 510.55C193.335 511.354 192.859 507.102 192.859 507.102L191.96 503.091L187.54 505.342Z" fill="white" stroke="#263238" stroke-width="1.29832" stroke-linecap="round" stroke-linejoin="round"/>
<path d="M199.04 499.804L190.703 499.938C190.703 499.938 188.502 500.251 188.187 501.501C187.741 502.885 187.216 504.242 186.615 505.566L199.516 501.814L199.04 499.804Z" fill="white" stroke="#263238" stroke-width="1.29832" stroke-linecap="round" stroke-linejoin="round"/>
<path d="M196.057 502.421C196.057 502.421 184.378 500.858 184.099 501.796C183.866 502.502 182.967 508.862 182.769 510.916C182.765 510.986 182.784 511.056 182.823 511.115C182.861 511.174 182.917 511.219 182.984 511.244C183.05 511.269 183.122 511.272 183.19 511.253C183.258 511.234 183.319 511.195 183.362 511.139L186.615 505.548L195.428 506.173C195.428 506.173 197.944 503.985 196.057 502.421Z" fill="white" stroke="#263238" stroke-width="1.29832" stroke-linecap="round" stroke-linejoin="round"/>
<path d="M292.612 467.397C292.612 467.397 299.854 472.712 297.338 485.852C294.822 498.991 277.204 534.98 275.632 538.071C274.059 541.161 267.142 541.51 263.997 540.572C260.852 539.634 204.844 517.437 204.844 517.437C204.844 517.437 198.869 515.865 197.926 514.614C196.983 513.364 190.999 506.798 190.999 506.798C190.999 506.798 181.565 508.049 179.364 507.424C177.163 506.798 181.565 506.173 183.767 505.548C185.465 505.065 194.826 501.43 199.04 499.786C199.647 499.543 200.313 499.485 200.953 499.62C201.594 499.756 202.179 500.078 202.634 500.546C205.581 503.547 211.861 509.916 213.056 510.863C214.628 512.113 258.975 519.625 258.975 519.625C258.975 519.625 269.361 471.149 273.449 467.085C277.536 463.02 284.769 463.958 284.769 463.958" fill="#92E3A9"/>
<path d="M292.612 467.397C292.612 467.397 299.854 472.712 297.338 485.852C294.822 498.991 277.204 534.98 275.632 538.071C274.059 541.161 267.142 541.51 263.997 540.572C260.852 539.634 204.844 517.437 204.844 517.437C204.844 517.437 198.869 515.865 197.926 514.614C196.983 513.364 190.999 506.798 190.999 506.798C190.999 506.798 181.565 508.049 179.364 507.424C177.163 506.798 181.565 506.173 183.767 505.548C185.465 505.065 194.826 501.43 199.04 499.786C199.647 499.543 200.313 499.485 200.953 499.62C201.594 499.756 202.179 500.078 202.634 500.546C205.581 503.547 211.861 509.916 213.056 510.863C214.628 512.113 258.975 519.625 258.975 519.625C258.975 519.625 269.361 471.149 273.449 467.085C277.536 463.02 284.769 463.958 284.769 463.958" stroke="#263238" stroke-width="1.29832" stroke-linecap="round" stroke-linejoin="round"/>
<path d="M234.115 528.995C219.425 523.207 204.844 517.437 204.844 517.437C204.844 517.437 198.869 515.865 197.926 514.614C196.982 513.364 191.008 506.798 191.008 506.798C191.008 506.798 181.565 508.049 179.328 507.424C177.091 506.798 181.529 506.173 183.73 505.548C185.428 505.065 194.79 501.43 199.004 499.786C199.611 499.543 200.277 499.485 200.917 499.62C201.558 499.756 202.143 500.078 202.598 500.545C205.544 503.547 211.825 509.916 213.019 510.863C213.837 511.515 226.226 513.855 237.933 515.954L234.115 528.995Z" fill="white" stroke="#263238" stroke-width="1.29832" stroke-linecap="round" stroke-linejoin="round"/>
<path d="M332.422 590.54L346.123 681.061C346.172 681.252 346.142 681.454 346.041 681.623C345.94 681.793 345.776 681.915 345.584 681.963C345.392 682.012 345.189 681.983 345.018 681.882C344.848 681.782 344.725 681.618 344.676 681.428L324.012 592.032L332.422 590.54Z" fill="#9C9C9C" stroke="#263238" stroke-width="1.29832" stroke-linecap="round" stroke-linejoin="round"/>
<path d="M311.974 591.138L306.017 680.892C306.017 681.088 305.939 681.277 305.799 681.416C305.659 681.555 305.469 681.633 305.272 681.633C305.074 681.633 304.884 681.555 304.744 681.416C304.604 681.277 304.526 681.088 304.526 680.892L303.493 590.415L311.974 591.138Z" fill="#9C9C9C" stroke="#263238" stroke-width="1.29832" stroke-linecap="round" stroke-linejoin="round"/>
<path d="M291.875 592.487L275.524 680.686C275.476 680.863 275.364 681.015 275.209 681.115C275.055 681.214 274.868 681.253 274.687 681.224C274.505 681.196 274.34 681.101 274.225 680.959C274.109 680.816 274.05 680.637 274.059 680.454L283.583 590.567L291.875 592.487Z" fill="#9C9C9C" stroke="#263238" stroke-width="1.29832" stroke-linecap="round" stroke-linejoin="round"/>
<path d="M260.269 591.746L246.891 680.534C246.851 680.713 246.745 680.871 246.595 680.977C246.445 681.083 246.26 681.13 246.077 681.109C245.894 681.088 245.725 681 245.603 680.863C245.482 680.725 245.415 680.548 245.417 680.365L251.904 590.147L260.269 591.746Z" fill="#9C9C9C" stroke="#263238" stroke-width="1.29832" stroke-linecap="round" stroke-linejoin="round"/>
<path d="M273.053 573.676C273.053 573.676 288.785 568.459 296.125 549.701C303.465 530.943 315.513 498.625 323.905 494.445C332.296 490.264 348.54 498.089 349.591 528.317C350.642 558.544 348.181 581.018 341.406 588.45C335.414 594.997 325.235 603.34 289.899 603.93C258.337 604.466 245.453 592.505 241.078 588.45C236.703 584.394 229.551 575.73 235.31 575.73C241.069 575.73 265.713 575.73 273.053 573.676Z" fill="white" stroke="#263238" stroke-width="1.29832" stroke-linecap="round" stroke-linejoin="round"/>
<path d="M200.415 388.149C200.415 388.149 206.551 381.003 215.077 379.672C223.604 378.341 224.179 390.703 213.28 396.125C210.224 397.523 206.836 398.049 203.496 397.644C203.496 397.644 212.202 407.871 206.569 409.506C193.991 413.186 196.686 393.91 196.686 393.91L200.415 388.149Z" fill="white" stroke="#263238" stroke-width="1.29832" stroke-linecap="round" stroke-linejoin="round"/>
<path d="M198.348 387.657C198.348 387.657 201.942 378.984 199.247 370.82C196.552 362.655 185.869 368.203 185.977 380.324C186.018 383.46 186.862 386.534 188.43 389.256C188.43 389.256 174.72 386.353 176.409 391.936C180.245 404.629 194.88 393.589 194.88 393.589L198.348 387.657Z" fill="white" stroke="#263238" stroke-width="1.29832" stroke-linecap="round" stroke-linejoin="round"/>
<path d="M193.587 398.492C193.743 398.492 193.896 398.452 194.031 398.375C194.167 398.299 194.28 398.188 194.359 398.055L202.885 383.816C203.008 383.614 203.044 383.371 202.987 383.142C202.93 382.912 202.783 382.715 202.58 382.593C202.478 382.531 202.365 382.491 202.247 382.474C202.13 382.456 202.01 382.462 201.894 382.491C201.779 382.52 201.671 382.572 201.575 382.643C201.48 382.714 201.4 382.803 201.34 382.905L192.823 397.144C192.701 397.346 192.664 397.589 192.721 397.818C192.779 398.048 192.925 398.245 193.128 398.367C193.268 398.447 193.426 398.49 193.587 398.492Z" fill="#263238"/>
<path d="M201.43 385.058C201.43 385.058 204.503 378.618 209.956 377.912" stroke="#263238" stroke-width="1.29832" stroke-linecap="round" stroke-linejoin="round"/>
<path d="M201.34 382.905C201.34 382.905 203.137 377.599 201.771 374.205" stroke="#263238" stroke-width="1.29832" stroke-linecap="round" stroke-linejoin="round"/>
<path d="M206.776 388.926C207.099 390.498 209.471 391.355 212.041 390.837C214.61 390.319 216.47 388.613 216.147 387.041C215.823 385.469 213.451 384.602 210.882 385.129C208.312 385.657 206.452 387.345 206.776 388.926Z" fill="#92E3A9" stroke="#263238" stroke-width="1.29832" stroke-linecap="round" stroke-linejoin="round"/>
<path d="M200.352 400.002C199.454 400.6 199.454 402.28 200.469 403.772C201.484 405.263 203.047 406.014 203.946 405.37C204.844 404.727 204.844 403.093 203.829 401.601C202.814 400.109 201.313 399.404 200.352 400.002Z" fill="#92E3A9" stroke="#263238" stroke-width="1.29832" stroke-linecap="round" stroke-linejoin="round"/>
<path d="M181.673 392.526C181.673 393.615 183.093 394.517 184.881 394.544C186.669 394.571 188.124 393.705 188.142 392.615C188.16 391.525 186.723 390.623 184.935 390.596C183.147 390.569 181.691 391.445 181.673 392.526Z" fill="#92E3A9" stroke="#263238" stroke-width="1.29832" stroke-linecap="round" stroke-linejoin="round"/>
<path d="M192.742 383.2C194.35 383.379 195.896 381.414 196.183 378.796C196.471 376.179 195.402 373.937 193.793 373.758C192.185 373.58 190.649 375.545 190.361 378.162C190.074 380.779 191.134 383.021 192.742 383.2Z" fill="#92E3A9" stroke="#263238" stroke-width="1.29832" stroke-linecap="round" stroke-linejoin="round"/>
<path d="M427.522 681.964H9.03852" stroke="#263238" stroke-width="1.29832" stroke-linecap="round" stroke-linejoin="round"/>
<path d="M296.073 362.302L291.414 362.207C290.862 362.196 290.331 361.989 289.917 361.622C289.503 361.254 289.232 360.751 289.154 360.201L289.068 359.651C288.798 357.881 288.11 356.201 287.062 354.752C285.972 353.209 285.435 351.34 285.538 349.451C285.67 347.292 286.607 345.262 288.161 343.764C289.715 342.267 291.773 341.411 293.926 341.369C295.508 341.345 297.063 341.767 298.417 342.588C299.771 343.408 300.868 344.594 301.584 346.01C302.3 347.426 302.606 349.016 302.468 350.598C302.329 352.18 301.751 353.692 300.799 354.961C299.681 356.394 298.908 358.068 298.541 359.851L298.439 360.391C298.338 360.941 298.043 361.437 297.609 361.787C297.175 362.138 296.63 362.321 296.073 362.302ZM294.147 342.353L293.932 342.348C292.028 342.386 290.208 343.143 288.833 344.467C287.458 345.792 286.63 347.588 286.512 349.497C286.421 351.169 286.896 352.822 287.86 354.187C288.996 355.761 289.741 357.586 290.033 359.508L290.119 360.058C290.164 360.378 290.32 360.672 290.562 360.887C290.803 361.101 291.112 361.222 291.434 361.228L296.093 361.323C296.415 361.329 296.728 361.22 296.978 361.016C297.227 360.812 297.396 360.525 297.455 360.208L297.557 359.668C297.954 357.738 298.787 355.925 299.992 354.37C300.818 353.263 301.323 351.948 301.453 350.571C301.582 349.194 301.331 347.808 300.726 346.566C300.122 345.323 299.188 344.272 298.027 343.529C296.866 342.786 295.523 342.379 294.147 342.353Z" fill="white"/>
<path d="M296.983 364.334C296.986 364.148 296.922 363.969 296.803 363.835C296.684 363.7 296.521 363.622 296.348 363.617L291.188 363.511C291.097 363.5 291.005 363.509 290.918 363.539C290.831 363.568 290.75 363.616 290.681 363.681C290.612 363.745 290.556 363.825 290.518 363.913C290.479 364.002 290.458 364.099 290.456 364.197C290.454 364.295 290.471 364.392 290.506 364.483C290.541 364.573 290.593 364.655 290.66 364.722C290.726 364.789 290.805 364.841 290.891 364.874C290.977 364.907 291.068 364.92 291.159 364.912L291.291 364.915C291.189 365.027 291.129 365.175 291.12 365.331L291.118 365.473C291.114 365.644 291.174 365.81 291.284 365.933C291.394 366.056 291.546 366.127 291.705 366.131L295.748 366.213C295.908 366.216 296.062 366.152 296.177 366.033C296.292 365.914 296.359 365.751 296.362 365.58L296.365 365.438C296.365 365.282 296.313 365.132 296.217 365.015L296.35 365.018C296.516 365.012 296.674 364.937 296.792 364.81C296.91 364.683 296.978 364.513 296.983 364.334Z" fill="#92E3A9"/>
<path d="M294.947 362.276C294.881 362.271 294.82 362.242 294.776 362.196C294.732 362.149 294.709 362.088 294.712 362.025C294.882 359.442 295.278 356.877 295.896 354.357L295.769 354.354C295.431 354.444 295.072 354.446 294.732 354.359C294.392 354.272 294.083 354.1 293.838 353.861C293.598 354.085 293.298 354.243 292.969 354.317C292.641 354.391 292.297 354.38 291.975 354.283C292.487 356.816 292.774 359.384 292.832 361.962C292.833 361.993 292.828 362.024 292.816 362.053C292.804 362.082 292.787 362.109 292.764 362.131C292.741 362.154 292.713 362.171 292.683 362.184C292.653 362.196 292.62 362.202 292.587 362.202C292.554 362.205 292.52 362.201 292.488 362.191C292.457 362.18 292.428 362.164 292.403 362.142C292.379 362.12 292.36 362.093 292.348 362.063C292.335 362.034 292.33 362.002 292.332 361.97C292.266 359.346 291.967 356.73 291.438 354.152C289.893 353.673 288.139 352.371 288.106 351.381C288.111 351.11 288.234 350.628 289.132 350.444C289.336 350.401 289.548 350.403 289.751 350.451C289.954 350.499 290.142 350.591 290.3 350.72C290.957 351.225 291.48 352.383 291.845 353.776L292.038 353.818C292.61 353.924 293.337 353.92 293.616 353.302C293.64 353.263 293.674 353.231 293.716 353.209C293.757 353.187 293.804 353.176 293.852 353.177C293.9 353.178 293.946 353.191 293.987 353.214C294.027 353.238 294.061 353.272 294.083 353.312C294.337 353.947 295.097 353.962 295.692 353.886C295.812 353.87 295.93 353.847 296.047 353.818C296.468 352.466 297.012 351.317 297.708 350.872C297.871 350.75 298.062 350.666 298.265 350.626C298.468 350.587 298.679 350.593 298.88 350.644C299.756 350.863 299.866 351.332 299.854 351.596C299.835 352.553 298.023 353.751 296.466 354.204C295.829 356.776 295.419 359.393 295.239 362.03C295.242 362.065 295.236 362.101 295.222 362.134C295.208 362.168 295.186 362.197 295.157 362.221C295.129 362.245 295.095 362.262 295.059 362.272C295.023 362.281 294.984 362.283 294.947 362.276ZM289.436 350.911C289.367 350.903 289.298 350.901 289.229 350.906C288.56 351.038 288.594 351.29 288.593 351.379C288.58 352.008 289.892 353.094 291.282 353.607C291.124 352.66 290.679 351.775 290 351.061C289.836 350.951 289.636 350.898 289.436 350.911ZM298.537 351.097C298.336 351.096 298.142 351.161 297.986 351.281C297.291 351.94 296.811 352.774 296.603 353.684C298.007 353.203 299.302 352.19 299.314 351.598C299.318 351.383 299.121 351.228 298.717 351.125C298.658 351.111 298.598 351.102 298.537 351.097Z" fill="white"/>
<path d="M288.227 339.862L285.63 335.967" stroke="white" stroke-width="0.64916" stroke-linecap="round" stroke-linejoin="round" stroke-dasharray="1.95 1.95"/>
<path d="M293.42 338.563L293.42 333.37" stroke="white" stroke-width="0.64916" stroke-linecap="round" stroke-linejoin="round" stroke-dasharray="1.95 1.95"/>
<path d="M298.614 339.862L301.21 335.967" stroke="white" stroke-width="0.64916" stroke-linecap="round" stroke-linejoin="round" stroke-dasharray="1.95 1.95"/>
<path d="M57.7754 293.122V292.473C57.4169 292.473 57.1262 292.764 57.1262 293.122H57.7754ZM149.956 293.771C150.315 293.771 150.605 293.481 150.605 293.122C150.605 292.764 150.315 292.473 149.956 292.473V293.771ZM58.4246 515.135V513.502H57.1262V515.135H58.4246ZM58.4246 510.237V506.973H57.1262V510.237H58.4246ZM58.4246 503.708V500.443H57.1262V503.708H58.4246ZM58.4246 497.178V493.913H57.1262V497.178H58.4246ZM58.4246 490.648V487.383H57.1262V490.648H58.4246ZM58.4246 484.118V480.853H57.1262V484.118H58.4246ZM58.4246 477.588V474.324H57.1262V477.588H58.4246ZM58.4246 471.059V467.794H57.1262V471.059H58.4246ZM58.4246 464.529V461.264H57.1262V464.529H58.4246ZM58.4246 457.999V454.734H57.1262V457.999H58.4246ZM58.4246 451.469V448.204H57.1262V451.469H58.4246ZM58.4246 444.94V441.675H57.1262V444.94H58.4246ZM58.4246 438.41V435.145H57.1262V438.41H58.4246ZM58.4246 431.88V428.615H57.1262V431.88H58.4246ZM58.4246 425.35V422.085H57.1262V425.35H58.4246ZM58.4246 418.82V415.556H57.1262V418.82H58.4246ZM58.4246 412.291V409.026H57.1262V412.291H58.4246ZM58.4246 405.761V402.496H57.1262V405.761H58.4246ZM58.4246 399.231V395.966H57.1262V399.231H58.4246ZM58.4246 392.701V389.436H57.1262V392.701H58.4246ZM58.4246 386.171V382.907H57.1262V386.171H58.4246ZM58.4246 379.642V376.377H57.1262V379.642H58.4246ZM58.4246 373.112V369.847H57.1262V373.112H58.4246ZM58.4246 366.582V363.317H57.1262V366.582H58.4246ZM58.4246 360.052V356.787H57.1262V360.052H58.4246ZM58.4246 353.523V350.258H57.1262V353.523H58.4246ZM58.4246 346.993V343.728H57.1262V346.993H58.4246ZM58.4246 340.463V337.198H57.1262V340.463H58.4246ZM58.4246 333.933V330.668H57.1262V333.933H58.4246ZM58.4246 327.403V324.139H57.1262V327.403H58.4246ZM58.4246 320.874V317.609H57.1262V320.874H58.4246ZM58.4246 314.344V311.079H57.1262V314.344H58.4246ZM58.4246 307.814V304.549H57.1262V307.814H58.4246ZM58.4246 301.284V298.019H57.1262V301.284H58.4246ZM58.4246 294.754V293.122H57.1262V294.754H58.4246ZM57.7754 293.771H59.4215V292.473H57.7754V293.771ZM62.7136 293.771H66.0058V292.473H62.7136V293.771ZM69.298 293.771H72.5901V292.473H69.298V293.771ZM75.8823 293.771H79.1745V292.473H75.8823V293.771ZM82.4667 293.771H85.7588V292.473H82.4667V293.771ZM89.051 293.771H92.3432V292.473H89.051V293.771ZM95.6353 293.771H98.9275V292.473H95.6353V293.771ZM102.22 293.771H105.512V292.473H102.22V293.771ZM108.804 293.771H112.096V292.473H108.804V293.771ZM115.388 293.771H118.681V292.473H115.388V293.771ZM121.973 293.771H125.265V292.473H121.973V293.771ZM128.557 293.771H131.849V292.473H128.557V293.771ZM135.141 293.771H138.434V292.473H135.141V293.771ZM141.726 293.771H145.018V292.473H141.726V293.771ZM148.31 293.771H149.956V292.473H148.31V293.771Z" fill="white"/>
<path d="M12.3342 687.811H426.498" stroke="white" stroke-width="1.29832" stroke-linecap="round" stroke-linejoin="round" stroke-dasharray="3.25 3.25"/>
<path d="M214 368C214 338.173 223.198 274.629 257.617 263.606C289.675 253.339 336.777 287.69 367.696 196.304C370.543 170.457 373.539 136.764 334.89 95.2243C299.387 18.3764 460.633 -25.3785 516 18.3764" stroke="white" stroke-width="1.29832" stroke-linecap="round" stroke-linejoin="round" stroke-dasharray="3.25 3.25"/>
</svg>
