<?xml version="1.0" encoding="UTF-8"?>
<svg width="104px" height="104px" viewBox="0 0 104 104" version="1.1" xmlns="http://www.w3.org/2000/svg" xmlns:xlink="http://www.w3.org/1999/xlink">
    <!-- Generator: Sketch 54.1 (76490) - https://sketchapp.com -->
    <title>icon4</title>
    <desc>Created with Sketch.</desc>
    <g id="Landing-podcast" stroke="none" stroke-width="1" fill="none" fill-rule="evenodd">
        <g id="Landing-podcast_Mobile" transform="translate(-108.000000, -4783.000000)" fill-rule="nonzero">
            <g id="topicos" transform="translate(0.000000, 4004.000000)">
                <g id="4" transform="translate(0.000000, 766.000000)">
                    <g id="icon4" transform="translate(108.000000, 13.000000)">
                        <path d="M91.3118205,25.8429681 C91.7683796,25.8429681 92.2077101,25.6620673 92.5298858,25.3381688 L99.4213439,18.4467106 C99.7452425,18.1245349 99.9261432,17.6852045 99.9261432,17.2286454 L99.9261432,10.0201802 C101.926389,9.30691424 103.371872,7.41176324 103.371872,5.16859362 C103.371872,2.31897567 101.052897,1.20792265e-13 98.2032787,1.20792265e-13 C95.3536607,1.20792265e-13 93.0346851,2.31897567 93.0346851,5.16859362 C93.0346851,7.41176324 94.4801684,9.30691424 96.4804142,10.0201802 L96.4804142,16.5153795 L90.5985546,22.397239 L69.7191593,22.397239 C68.4683596,21.6236728 67.1882713,20.9035154 65.8599427,20.3022357 C65.7341736,20.2453812 65.601513,20.2195382 65.4688525,20.1954181 L65.4688525,12.7733177 L71.350712,6.89145815 L74.4001822,6.89145815 C75.1134481,8.89170388 77.0085991,10.3371872 79.2517688,10.3371872 C82.1013867,10.3371872 84.4203624,8.01821156 84.4203624,5.16859362 C84.4203624,2.31897567 82.1013867,1.20792265e-13 79.2517688,1.20792265e-13 C77.0085991,1.20792265e-13 75.1134481,1.44548335 74.4001822,3.44572908 L70.6374461,3.44572908 C70.180887,3.44572908 69.7415565,3.62662985 69.4193808,3.95052839 L62.5279227,10.8419865 C62.2040242,11.1641622 62.0231234,11.6034927 62.0231234,12.0600518 L62.0231234,22.690126 L60.8843099,23.9064683 C59.8178568,23.5532811 58.7290064,23.262117 57.6246502,23.0346989 L56.6184973,18.7240918 C56.4513795,18.0056573 55.8432083,17.4732921 55.109268,17.4009318 C54.5303855,17.3440773 53.9739003,17.3440773 53.4088007,17.3165115 L53.4088007,10.0201802 C55.4090464,9.30691424 56.8545298,7.41176324 56.8545298,5.16859362 C56.8545298,2.31897567 54.5355541,1.20792265e-13 51.6859362,1.20792265e-13 C48.8363182,1.20792265e-13 46.5173425,2.31897567 46.5173425,5.16859362 C46.5173425,7.41176324 47.9628259,9.30691424 49.9630716,10.0201802 L49.9630716,17.3165115 C49.397972,17.3458002 48.8397639,17.3440773 48.2626043,17.4009318 C47.528664,17.4732921 46.9204928,18.0056573 46.753375,18.7240918 L45.7472221,23.0346989 C44.6445888,23.262117 43.5540155,23.5532811 42.4892852,23.9064683 L41.3487489,22.6884031 L41.3487489,12.0600518 C41.3487489,11.6034927 41.1678481,11.1641622 40.8439496,10.8419865 L33.9524915,3.95052839 C33.6303158,3.62662985 33.1909853,3.44572908 32.7344262,3.44572908 L28.9716901,3.44572908 C28.2584242,1.44548335 26.3632732,1.20792265e-13 24.1201035,1.20792265e-13 C21.2704856,1.20792265e-13 18.9515099,2.31897567 18.9515099,5.16859362 C18.9515099,8.01821156 21.2704856,10.3371872 24.1201035,10.3371872 C26.3632732,10.3371872 28.2584242,8.89170388 28.9716901,6.89145815 L32.0211603,6.89145815 L37.9030198,12.7733177 L37.9030198,20.1954181 C37.7720821,20.2212611 37.6394216,20.2453812 37.5119296,20.3022357 C36.183601,20.9035154 34.9052355,21.6236728 33.652713,22.397239 L12.7733177,22.397239 L6.89145815,16.5153795 L6.89145815,10.0201802 C8.89170388,9.30691424 10.3371872,7.41176324 10.3371872,5.16859362 C10.3371872,2.31897567 8.01821156,1.20792265e-13 5.16859362,1.20792265e-13 C2.31897567,1.20792265e-13 0,2.31897567 0,5.16859362 C0,7.41176324 1.44548335,9.30691424 3.44572908,10.0201802 L3.44572908,17.2286454 C3.44572908,17.6852045 3.62662985,18.1245349 3.95052839,18.4467106 L10.8419865,25.3381688 C11.1641622,25.6620673 11.6034927,25.8429681 12.0600518,25.8429681 L31.0063931,25.8429681 L32.2123983,29.812448 C31.3681947,30.5653398 30.5636169,31.3681947 29.812448,32.2123983 L25.6362243,30.9426471 C24.9332956,30.727289 24.1683437,30.9839959 23.7376276,31.5835527 C23.070879,32.5104538 22.4489249,33.4700894 21.875211,34.4572908 L15.1870509,34.4572908 C14.4755079,32.457045 12.5803569,31.0115617 10.3371872,31.0115617 C7.48756928,31.0115617 5.16859362,33.3305374 5.16859362,36.1801553 C5.16859362,39.0297733 7.48756928,41.3487489 10.3371872,41.3487489 C12.5803569,41.3487489 14.4755079,39.9032656 15.1887738,37.9030198 L20.1954181,37.9030198 C20.0868777,38.473288 20.2574412,39.0693991 20.6950488,39.4794409 L23.9064683,42.4875624 C23.5532811,43.5540155 23.262117,44.6428659 23.0346989,45.7472221 L18.7240918,46.753375 C18.0056573,46.9204928 17.4732921,47.528664 17.4009318,48.2626043 C17.3440773,48.8414868 17.3440773,49.3945263 17.3147886,49.9630716 L10.0201802,49.9630716 C9.30691424,47.9628259 7.41176324,46.5173425 5.16859362,46.5173425 C2.31897567,46.5173425 0,48.8363182 0,51.6859362 C0,54.5355541 2.31897567,56.8545298 5.16859362,56.8545298 C7.41176324,56.8545298 9.30691424,55.4090464 10.0201802,53.4088007 L17.3165115,53.4088007 C17.3458002,53.977346 17.3458002,54.5303855 17.4026547,55.109268 C17.475015,55.8432083 18.0073802,56.4513795 18.7258147,56.6184973 L23.0364217,57.6246502 C23.2638399,58.7272835 23.555004,59.8178568 23.9081912,60.8825871 L20.6967717,63.8907085 C20.2591641,64.3007503 20.0886005,64.8968614 20.197141,65.4688525 L15.1904966,65.4688525 C14.4755079,63.4686067 12.5803569,62.0231234 10.3371872,62.0231234 C7.48756928,62.0231234 5.16859362,64.3420991 5.16859362,67.191717 C5.16859362,70.0413349 7.48756928,72.3603106 10.3371872,72.3603106 C12.5803569,72.3603106 14.4755079,70.9148273 15.1887738,68.9145815 L21.8769339,68.9145815 C22.4489249,69.9000601 23.0691562,70.8596956 23.7376276,71.7865967 C24.1683437,72.3844307 24.9264041,72.6428604 25.6379472,72.4275023 L29.8141708,71.159474 C30.5670626,72.0054005 31.3699175,72.8082554 32.2141211,73.5594243 L31.0046702,77.5289042 L12.0600518,77.5289042 C11.6034927,77.5289042 11.1641622,77.709805 10.8419865,78.0337035 L3.95052839,84.9251617 C3.62662985,85.2473374 3.44572908,85.6866678 3.44572908,86.1432269 L3.44572908,93.3516921 C1.44548335,94.0649581 0,95.9601091 0,98.2032787 C0,101.052897 2.31897567,103.371872 5.16859362,103.371872 C8.01821156,103.371872 10.3371872,101.052897 10.3371872,98.2032787 C10.3371872,95.9601091 8.89170388,94.0649581 6.89145815,93.3516921 L6.89145815,86.8564928 L12.7733177,80.9746333 L33.652713,80.9746333 C34.9035127,81.7464766 36.1818782,82.4683569 37.5119296,83.0696366 C37.6376987,83.1264911 37.7703593,83.1523341 37.9030198,83.178177 L37.9030198,90.5985546 L32.0211603,96.4804142 L28.9716901,96.4804142 C28.2584242,94.4801684 26.3632732,93.0346851 24.1201035,93.0346851 C21.2704856,93.0346851 18.9515099,95.3536607 18.9515099,98.2032787 C18.9515099,101.052897 21.2704856,103.371872 24.1201035,103.371872 C26.3632732,103.371872 28.2584242,101.926389 28.9716901,99.9261432 L32.7344262,99.9261432 C33.1909853,99.9261432 33.6303158,99.7452425 33.9524915,99.4213439 L40.8439496,92.5298858 C41.1678481,92.2077101 41.3487489,91.7683796 41.3487489,91.3118205 L41.3487489,80.6817463 L42.4875624,79.465404 C43.5540155,79.8185912 44.6428659,80.1097553 45.7472221,80.3371734 L46.753375,84.6477805 C46.9204928,85.366215 47.528664,85.8985802 48.2626043,85.9709405 C48.8414868,86.027795 49.3945263,86.027795 49.9630716,86.0570837 L49.9630716,93.353415 C47.9628259,94.0666809 46.5173425,95.9618319 46.5173425,98.2050016 C46.5173425,101.054619 48.8363182,103.373595 51.6859362,103.373595 C54.5355541,103.373595 56.8545298,101.054619 56.8545298,98.2050016 C56.8545298,95.9618319 55.4090464,94.0666809 53.4088007,93.353415 L53.4088007,86.0570837 C53.977346,86.027795 54.5321084,86.027795 55.109268,85.9709405 C55.8432083,85.8985802 56.4513795,85.366215 56.6184973,84.6477805 L57.6246502,80.3371734 C58.7272835,80.1097553 59.8178568,79.8185912 60.8825871,79.465404 L62.0231234,80.6834692 L62.0231234,91.3118205 C62.0231234,91.7683796 62.2040242,92.2077101 62.5279227,92.5298858 L69.4193808,99.4213439 C69.7415565,99.7452425 70.180887,99.9261432 70.6374461,99.9261432 L74.4001822,99.9261432 C75.1134481,101.926389 77.0085991,103.371872 79.2517688,103.371872 C82.1013867,103.371872 84.4203624,101.052897 84.4203624,98.2032787 C84.4203624,95.3536607 82.1013867,93.0346851 79.2517688,93.0346851 C77.0085991,93.0346851 75.1134481,94.4801684 74.4001822,96.4804142 L71.350712,96.4804142 L65.4688525,90.5985546 L65.4688525,83.178177 C65.5997902,83.1523341 65.7324507,83.128214 65.8599427,83.0713594 C67.1882713,82.4700797 68.4666368,81.7499223 69.7191593,80.9763562 L90.5985546,80.9763562 L96.4804142,86.8564928 L96.4804142,93.3516921 C94.4801684,94.0649581 93.0346851,95.9601091 93.0346851,98.2032787 C93.0346851,101.052897 95.3536607,103.371872 98.2032787,103.371872 C101.052897,103.371872 103.371872,101.052897 103.371872,98.2032787 C103.371872,95.9601091 101.926389,94.0649581 99.9261432,93.3516921 L99.9261432,86.1432269 C99.9261432,85.6866678 99.7452425,85.2473374 99.4213439,84.9251617 L92.5298858,78.0337035 C92.2077101,77.709805 91.7683796,77.5289042 91.3118205,77.5289042 L72.3654792,77.5289042 L71.159474,73.5594243 C72.0054005,72.8065325 72.8082554,72.0036777 73.5594243,71.159474 L77.7339251,72.4292252 C78.4385767,72.6428604 79.2035286,72.3861536 79.6325218,71.7883196 C80.3009933,70.8614185 80.9229474,69.9000601 81.4949384,68.9145815 L88.1830985,68.9145815 C88.8963645,70.9148273 90.7915154,72.3603106 93.0346851,72.3603106 C95.884303,72.3603106 98.2032787,70.0413349 98.2032787,67.191717 C98.2032787,64.3420991 95.884303,62.0231234 93.0346851,62.0231234 C90.7915154,62.0231234 88.8963645,63.4686067 88.1830985,65.4688525 L83.1764542,65.4688525 C83.2849947,64.8985843 83.1144311,64.3024732 82.6768235,63.8924314 L79.465404,60.8843099 C79.8185912,59.8178568 80.1097553,58.7290064 80.3371734,57.6246502 L84.6477805,56.6184973 C85.366215,56.4513795 85.8985802,55.8432083 85.9709405,55.109268 C86.027795,54.5303855 86.027795,53.977346 86.0570837,53.4088007 L93.353415,53.4088007 C94.0666809,55.4090464 95.9618319,56.8545298 98.2050016,56.8545298 C101.054619,56.8545298 103.373595,54.5355541 103.373595,51.6859362 C103.373595,48.8363182 101.054619,46.5173425 98.2050016,46.5173425 C95.9618319,46.5173425 94.0666809,47.9628259 93.353415,49.9630716 L86.0570837,49.9630716 C86.027795,49.3945263 86.027795,48.8397639 85.9709405,48.2626043 C85.8985802,47.528664 85.366215,46.9204928 84.6477805,46.753375 L80.3371734,45.7472221 C80.1097553,44.6445888 79.8185912,43.5540155 79.465404,42.4892852 L82.6768235,39.4811638 C83.1144311,39.071122 83.2849947,38.4750109 83.1764542,37.9030198 L88.1830985,37.9030198 C88.8963645,39.9032656 90.7915154,41.3487489 93.0346851,41.3487489 C95.884303,41.3487489 98.2032787,39.0297733 98.2032787,36.1801553 C98.2032787,33.3305374 95.884303,31.0115617 93.0346851,31.0115617 C90.7915154,31.0115617 88.8963645,32.457045 88.1830985,34.4572908 L81.4949384,34.4572908 C80.9229474,33.4718123 80.3027161,32.5121767 79.6342447,31.5852756 C79.2035286,30.9874416 78.4402996,30.7290119 77.7339251,30.94437 L73.5577015,32.2123983 C72.8048097,31.3664718 72.0019548,30.5636169 71.1577512,29.812448 L72.3637563,25.8429681 L91.3118205,25.8429681 Z M98.2032787,3.44572908 C99.152577,3.44572908 99.9261432,4.21929525 99.9261432,5.16859362 C99.9261432,6.11789198 99.152577,6.89145815 98.2032787,6.89145815 C97.2539803,6.89145815 96.4804142,6.11789198 96.4804142,5.16859362 C96.4804142,4.21929525 97.2539803,3.44572908 98.2032787,3.44572908 Z M79.2517688,3.44572908 C80.2010671,3.44572908 80.9746333,4.21929525 80.9746333,5.16859362 C80.9746333,6.11789198 80.2010671,6.89145815 79.2517688,6.89145815 C78.3024704,6.89145815 77.5289042,6.11789198 77.5289042,5.16859362 C77.5289042,4.21929525 78.3024704,3.44572908 79.2517688,3.44572908 Z M24.1201035,6.89145815 C23.1708052,6.89145815 22.397239,6.11789198 22.397239,5.16859362 C22.397239,4.21929525 23.1708052,3.44572908 24.1201035,3.44572908 C25.0694019,3.44572908 25.8429681,4.21929525 25.8429681,5.16859362 C25.8429681,6.11789198 25.0694019,6.89145815 24.1201035,6.89145815 Z M5.16859362,3.44572908 C6.11789198,3.44572908 6.89145815,4.21929525 6.89145815,5.16859362 C6.89145815,6.11789198 6.11789198,6.89145815 5.16859362,6.89145815 C4.21929525,6.89145815 3.44572908,6.11789198 3.44572908,5.16859362 C3.44572908,4.21929525 4.21929525,3.44572908 5.16859362,3.44572908 Z M10.3371872,37.9030198 C9.38788887,37.9030198 8.61432269,37.1294537 8.61432269,36.1801553 C8.61432269,35.2308569 9.38788887,34.4572908 10.3371872,34.4572908 C11.2864856,34.4572908 12.0600518,35.2308569 12.0600518,36.1801553 C12.0600518,37.1294537 11.2864856,37.9030198 10.3371872,37.9030198 Z M10.3371872,68.9145815 C9.38788887,68.9145815 8.61432269,68.1410154 8.61432269,67.191717 C8.61432269,66.2424186 9.38788887,65.4688525 10.3371872,65.4688525 C11.2864856,65.4688525 12.0600518,66.2424186 12.0600518,67.191717 C12.0600518,68.1410154 11.2864856,68.9145815 10.3371872,68.9145815 Z M5.16859362,99.9261432 C4.21929525,99.9261432 3.44572908,99.152577 3.44572908,98.2032787 C3.44572908,97.2539803 4.21929525,96.4804142 5.16859362,96.4804142 C6.11789198,96.4804142 6.89145815,97.2539803 6.89145815,98.2032787 C6.89145815,99.152577 6.11789198,99.9261432 5.16859362,99.9261432 Z M24.1201035,99.9261432 C23.1708052,99.9261432 22.397239,99.152577 22.397239,98.2032787 C22.397239,97.2539803 23.1708052,96.4804142 24.1201035,96.4804142 C25.0694019,96.4804142 25.8429681,97.2539803 25.8429681,98.2032787 C25.8429681,99.152577 25.0694019,99.9261432 24.1201035,99.9261432 Z M79.2517688,96.4804142 C80.2010671,96.4804142 80.9746333,97.2539803 80.9746333,98.2032787 C80.9746333,99.152577 80.2010671,99.9261432 79.2517688,99.9261432 C78.3024704,99.9261432 77.5289042,99.152577 77.5289042,98.2032787 C77.5289042,97.2539803 78.3024704,96.4804142 79.2517688,96.4804142 Z M98.2032787,99.9261432 C97.2539803,99.9261432 96.4804142,99.152577 96.4804142,98.2032787 C96.4804142,97.2539803 97.2539803,96.4804142 98.2032787,96.4804142 C99.152577,96.4804142 99.9261432,97.2539803 99.9261432,98.2032787 C99.9261432,99.152577 99.152577,99.9261432 98.2032787,99.9261432 Z M93.0346851,65.4688525 C93.9839834,65.4688525 94.7575496,66.2424186 94.7575496,67.191717 C94.7575496,68.1410154 93.9839834,68.9145815 93.0346851,68.9145815 C92.0853867,68.9145815 91.3118205,68.1410154 91.3118205,67.191717 C91.3118205,66.2424186 92.0853867,65.4688525 93.0346851,65.4688525 Z M93.0346851,34.4572908 C93.9839834,34.4572908 94.7575496,35.2308569 94.7575496,36.1801553 C94.7575496,37.1294537 93.9839834,37.9030198 93.0346851,37.9030198 C92.0853867,37.9030198 91.3118205,37.1294537 91.3118205,36.1801553 C91.3118205,35.2308569 92.0853867,34.4572908 93.0346851,34.4572908 Z M51.6859362,3.44572908 C52.6352345,3.44572908 53.4088007,4.21929525 53.4088007,5.16859362 C53.4088007,6.11789198 52.6352345,6.89145815 51.6859362,6.89145815 C50.7366378,6.89145815 49.9630716,6.11789198 49.9630716,5.16859362 C49.9630716,4.21929525 50.7366378,3.44572908 51.6859362,3.44572908 Z M5.16859362,53.4088007 C4.21929525,53.4088007 3.44572908,52.6352345 3.44572908,51.6859362 C3.44572908,50.7366378 4.21929525,49.9630716 5.16859362,49.9630716 C6.11789198,49.9630716 6.89145815,50.7366378 6.89145815,51.6859362 C6.89145815,52.6352345 6.11789198,53.4088007 5.16859362,53.4088007 Z M51.6859362,99.9261432 C50.7366378,99.9261432 49.9630716,99.152577 49.9630716,98.2032787 C49.9630716,97.2539803 50.7366378,96.4804142 51.6859362,96.4804142 C52.6352345,96.4804142 53.4088007,97.2539803 53.4088007,98.2032787 C53.4088007,99.152577 52.6352345,99.9261432 51.6859362,99.9261432 Z M98.2032787,49.9630716 C99.152577,49.9630716 99.9261432,50.7366378 99.9261432,51.6859362 C99.9261432,52.6352345 99.152577,53.4088007 98.2032787,53.4088007 C97.2539803,53.4088007 96.4804142,52.6352345 96.4804142,51.6859362 C96.4804142,50.7366378 97.2539803,49.9630716 98.2032787,49.9630716 Z M71.6539362,35.2825429 C72.0949895,35.8200766 72.8168697,36.0371575 73.4853412,35.8355824 L77.5357957,34.6054571 C78.2232186,35.6460673 78.8486185,36.7228576 79.4033808,37.8272138 L76.2901646,40.7423006 C75.7819196,41.2178112 75.6096331,41.9534744 75.8560028,42.60644 C76.4417767,44.1656324 76.8776614,45.7954623 77.1515969,47.4511351 C77.265306,48.1368352 77.7804425,48.6881519 78.4592511,48.8466554 L82.6406433,49.8217967 C82.6785463,50.4558109 82.6974978,51.077765 82.6974978,51.6859362 C82.6974978,52.2941073 82.6785463,52.9160614 82.6389204,53.5500756 L78.4575282,54.5252169 C77.7787196,54.6837204 77.2635831,55.2350371 77.149874,55.9207372 C76.8759386,57.57641 76.438331,59.2062399 75.8542799,60.7654323 C75.6096331,61.4166751 75.7819196,62.1540611 76.2884418,62.6295717 L79.401658,65.5446585 C78.8451727,66.6524604 78.2197729,67.7292507 77.5340728,68.7664152 L73.4853412,67.534567 C72.8185926,67.3329919 72.0967123,67.5500728 71.6539362,68.0876066 C70.587483,69.3832007 69.3900921,70.5823144 68.0893294,71.6522133 C67.5517957,72.0949895 67.3329919,72.8168697 67.5362899,73.4836183 L68.7664152,77.5340728 C67.725805,78.2214958 66.6490147,78.8468956 65.5446585,79.401658 L62.6295717,76.2884418 C62.1523382,75.7801967 61.4132293,75.6079103 60.7654323,75.8542799 C59.2062399,76.4400538 57.57641,76.8759386 55.9207372,77.149874 C55.2350371,77.2635831 54.6837204,77.7787196 54.5252169,78.4575282 L53.5500756,82.6389204 C52.2837701,82.7164494 51.0881022,82.7164494 49.8217967,82.6389204 L48.8466554,78.4575282 C48.6881519,77.7787196 48.1368352,77.2635831 47.4511351,77.149874 C45.7954623,76.8759386 44.1656324,76.438331 42.60644,75.8542799 C41.9517515,75.6079103 41.2178112,75.7819196 40.7423006,76.2884418 L37.8254909,79.401658 C36.7194119,78.8468956 35.6426216,78.2214958 34.6037343,77.5340728 L35.8355824,73.4853412 C36.0388804,72.8185926 35.8200766,72.0949895 35.2825429,71.6539362 C33.9869487,70.587483 32.787835,69.3900921 31.7179362,68.0893294 C31.27516,67.5500728 30.5515569,67.331269 29.8865311,67.5362899 L25.8360766,68.7664152 C25.1486537,67.725805 24.5232538,66.6490147 23.9684915,65.5446585 L27.0817077,62.6295717 C27.5899527,62.1540611 27.7622392,61.4183979 27.5158695,60.7654323 C26.9300956,59.2062399 26.4942109,57.57641 26.2202754,55.9207372 C26.1065664,55.2350371 25.5914299,54.6837204 24.9126212,54.5252169 L20.731229,53.5500756 C20.693326,52.9160614 20.6743745,52.2941073 20.6743745,51.6859362 C20.6743745,51.077765 20.693326,50.4558109 20.7329519,49.8217967 L24.9143441,48.8466554 C25.5931527,48.6881519 26.1082892,48.1368352 26.2219983,47.4511351 C26.4959337,45.7954623 26.9335413,44.1656324 27.5175924,42.60644 C27.7622392,41.9551972 27.5899527,41.2178112 27.0834305,40.7423006 L23.9702143,37.8272138 C24.5266996,36.7194119 25.1520994,35.6426216 25.8377995,34.6054571 L29.8865311,35.8355824 C30.5550026,36.0406033 31.27516,35.8217995 31.7179362,35.2825429 C32.7843893,33.9869487 33.983503,32.787835 35.2825429,31.7179362 C35.8200766,31.27516 36.0388804,30.5532797 35.8355824,29.8865311 L34.6054571,25.8360766 C35.6460673,25.1486537 36.7228576,24.5232538 37.8272138,23.9684915 L40.7423006,27.0817077 C41.2178112,27.5882299 41.9551972,27.7605163 42.60644,27.5158695 C44.1656324,26.9300956 45.7954623,26.4942109 47.4511351,26.2202754 C48.1368352,26.1065664 48.6881519,25.5914299 48.8466554,24.9126212 L49.8217967,20.731229 C51.0881022,20.6537001 52.2837701,20.6537001 53.5500756,20.731229 L54.5252169,24.9126212 C54.6837204,25.5914299 55.2350371,26.1065664 55.9207372,26.2202754 C57.57641,26.4942109 59.2062399,26.9318185 60.7654323,27.5158695 C61.4166751,27.7587934 62.1523382,27.5882299 62.6295717,27.0817077 L65.5463814,23.9684915 C66.6524604,24.5232538 67.7292507,25.1486537 68.7681381,25.8360766 L67.5362899,29.8848083 C67.3329919,30.5515569 67.5517957,31.27516 68.0893294,31.7162133 C69.3849236,32.7843893 70.5840373,33.983503 71.6539362,35.2825429 Z" id="Shape" fill="#0000EC"></path>
                        <path d="M51.6859362,32.7344262 C43.9795631,32.7344262 36.1801553,35.1016421 36.1801553,39.6258844 L36.1801553,48.2402071 L36.1801553,56.8545298 L36.1801553,65.4688525 C36.1801553,69.9930947 43.9795631,72.3603106 51.6859362,72.3603106 C59.3923092,72.3603106 67.191717,69.9930947 67.191717,65.4688525 L67.191717,56.8545298 L67.191717,48.2402071 L67.191717,39.6258844 C67.191717,35.1016421 59.3923092,32.7344262 51.6859362,32.7344262 Z M51.6859362,68.9145815 C43.8520711,68.9145815 39.6258844,66.4698368 39.6258844,65.4688525 L39.6258844,61.3339776 C42.6167772,62.9241815 47.1616939,63.7459879 51.6859362,63.7459879 C56.2101784,63.7459879 60.7550951,62.9241815 63.7459879,61.3339776 L63.7459879,65.4688525 C63.7459879,66.4698368 59.5198012,68.9145815 51.6859362,68.9145815 Z M51.6859362,60.3002588 C43.8520711,60.3002588 39.6258844,57.8555141 39.6258844,56.8545298 L39.6258844,52.7196549 C42.6167772,54.3098588 47.1616939,55.1316652 51.6859362,55.1316652 C56.2101784,55.1316652 60.7550951,54.3098588 63.7459879,52.7196549 L63.7459879,56.8545298 C63.7459879,57.8555141 59.5198012,60.3002588 51.6859362,60.3002588 Z M51.6859362,51.6859362 C43.8520711,51.6859362 39.6258844,49.2411914 39.6258844,48.2402071 L39.6258844,44.1053322 C42.6167772,45.6955362 47.1616939,46.5173425 51.6859362,46.5173425 C56.2101784,46.5173425 60.7550951,45.6955362 63.7459879,44.1053322 L63.7459879,48.2402071 C63.7459879,49.2411914 59.5198012,51.6859362 51.6859362,51.6859362 Z M51.6859362,43.0716135 C43.8520711,43.0716135 39.6258844,40.6268687 39.6258844,39.6258844 C39.6258844,38.6249001 43.8520711,36.1801553 51.6859362,36.1801553 C59.5198012,36.1801553 63.7459879,38.6249001 63.7459879,39.6258844 C63.7459879,40.6268687 59.5198012,43.0716135 51.6859362,43.0716135 Z" id="Shape" fill="#00F3BB"></path>
                    </g>
                </g>
            </g>
        </g>
    </g>
</svg>