<svg width="37" height="37" viewBox="0 0 37 37" fill="none" xmlns="http://www.w3.org/2000/svg">
<path fill-rule="evenodd" clip-rule="evenodd" d="M18.2379 36.7715C28.2495 36.7715 36.3655 28.6555 36.3655 18.6439C36.3655 8.63237 28.2495 0.516388 18.2379 0.516388C8.22633 0.516388 0.110352 8.63237 0.110352 18.6439C0.110352 28.6555 8.22633 36.7715 18.2379 36.7715Z" fill="#573DDC"/>
<path fill-rule="evenodd" clip-rule="evenodd" d="M14.6983 14.3972C14.3924 14.0969 13.8983 14.0969 13.5924 14.3972L9.99212 17.9307C9.68622 18.231 9.68622 18.716 9.99212 19.0162L13.5924 22.5498C13.8983 22.85 14.3924 22.85 14.6983 22.5498C15.0042 22.2495 15.0042 21.7645 14.6983 21.4643L11.655 18.4696L14.6983 15.4826C15.0042 15.1824 14.9964 14.6897 14.6983 14.3972Z" fill="#F9F7F5"/>
<path fill-rule="evenodd" clip-rule="evenodd" d="M21.08 22.5421C21.3859 22.8423 21.8801 22.8423 22.186 22.5421L25.7862 19.0085C26.0921 18.7083 26.0921 18.2233 25.7862 17.9231L22.186 14.3895C21.8801 14.0892 21.3859 14.0892 21.08 14.3895C20.7741 14.6897 20.7741 15.1747 21.08 15.475L24.1233 18.4696L21.08 21.4566C20.7741 21.7569 20.7819 22.2495 21.08 22.5421Z" fill="#F9F7F5"/>
</svg>
