<svg width="32" height="32" viewBox="0 0 32 32" fill="none" xmlns="http://www.w3.org/2000/svg">
<circle cx="16" cy="16" r="16" fill="#253141"/>
<path d="M16.004 11.385C13.4495 11.385 11.389 13.4455 11.389 16C11.389 18.5545 13.4495 20.615 16.004 20.615C18.5585 20.615 20.619 18.5545 20.619 16C20.619 13.4455 18.5585 11.385 16.004 11.385ZM16.004 19.0003C14.3532 19.0003 13.0037 17.6548 13.0037 16C13.0037 14.3452 14.3492 12.9997 16.004 12.9997C17.6588 12.9997 19.0044 14.3452 19.0044 16C19.0044 17.6548 17.6548 19.0003 16.004 19.0003ZM21.8842 11.1963C21.8842 11.7947 21.4022 12.2727 20.8078 12.2727C20.2093 12.2727 19.7313 11.7907 19.7313 11.1963C19.7313 10.6018 20.2133 10.1198 20.8078 10.1198C21.4022 10.1198 21.8842 10.6018 21.8842 11.1963ZM24.9408 12.2887C24.8725 10.8468 24.5431 9.56956 23.4868 8.51724C22.4345 7.46491 21.1572 7.13556 19.7153 7.06326C18.2292 6.97891 13.7749 6.97891 12.2887 7.06326C10.8508 7.13154 9.57358 7.46089 8.51724 8.51322C7.46089 9.56555 7.13556 10.8428 7.06326 12.2847C6.97891 13.7708 6.97891 18.2251 7.06326 19.7113C7.13154 21.1532 7.46089 22.4304 8.51724 23.4828C9.57358 24.5351 10.8468 24.8644 12.2887 24.9367C13.7749 25.0211 18.2292 25.0211 19.7153 24.9367C21.1572 24.8685 22.4345 24.5391 23.4868 23.4828C24.5391 22.4304 24.8685 21.1532 24.9408 19.7113C25.0251 18.2251 25.0251 13.7749 24.9408 12.2887ZM23.0209 21.3058C22.7076 22.093 22.1011 22.6995 21.3098 23.0168C20.125 23.4868 17.3134 23.3783 16.004 23.3783C14.6946 23.3783 11.8791 23.4828 10.6982 23.0168C9.91097 22.7036 9.30447 22.0971 8.98717 21.3058C8.51724 20.1209 8.62568 17.3094 8.62568 16C8.62568 14.6906 8.52125 11.875 8.98717 10.6942C9.30046 9.90695 9.90695 9.30046 10.6982 8.98315C11.8831 8.51322 14.6946 8.62167 16.004 8.62167C17.3134 8.62167 20.129 8.51724 21.3098 8.98315C22.0971 9.29644 22.7036 9.90293 23.0209 10.6942C23.4908 11.8791 23.3823 14.6906 23.3823 16C23.3823 17.3094 23.4908 20.125 23.0209 21.3058Z" fill="white"/>
</svg>
