<svg width="74" height="22" viewBox="0 0 74 22" fill="none" xmlns="http://www.w3.org/2000/svg">
<path d="M13.5652 6.91243C14.2203 4.20415 16.3896 3.49429 17.6713 3.49429C19.3982 3.49429 21.2017 4.5719 21.593 6.91243H13.5652V6.91243ZM24.942 9.7262C25.0469 9.25296 25.1518 8.64859 25.1518 7.96439C25.1518 4.28397 22.2481 0.287109 17.6458 0.287109C13.0435 0.287109 10.0093 4.07301 10.0093 8.20101C10.0093 12.329 13.3582 15.9296 17.6713 15.9296C21.0713 15.9296 23.8446 13.4836 24.6811 10.8551H21.0202C20.3652 12.0639 19.2167 12.7224 17.6713 12.7224C15.1872 12.7224 13.8261 10.6727 13.6701 9.7262H24.942Z" fill="#2C3B4E"/>
<path d="M30.4568 6.91235C31.1119 4.20407 33.2812 3.49421 34.5629 3.49421C36.2898 3.49421 38.0933 4.57182 38.4846 6.91235H30.4568V6.91235ZM41.8336 9.72612C41.9385 9.25288 42.0434 8.64851 42.0434 7.96431C42.0406 4.28389 39.1397 0.28418 34.5374 0.28418C29.9351 0.28418 26.9009 4.07008 26.9009 8.19808C26.9009 12.3261 30.247 15.9267 34.5629 15.9267C37.9629 15.9267 40.7333 13.4807 41.5698 10.8522H37.909C37.2539 12.0609 36.1055 12.7195 34.56 12.7195C32.076 12.7195 30.7149 10.6697 30.5589 9.72327H41.8307L41.8336 9.72612Z" fill="#2C3B4E"/>
<path d="M43.7962 0.760347H47.0119V1.51011C47.5875 0.957054 48.7898 0.287109 50.9875 0.287109C52.2437 0.287109 54.1521 0.84017 55.3544 2.3112C56.6872 3.91621 56.6872 6.35937 56.6872 7.49115V15.7186H53.2078V8.17535C53.2078 6.9666 53.1284 3.80788 50.3523 3.75086C49.7256 3.73946 48.5913 4.03595 47.9646 5.00808C47.338 5.90324 47.2699 7.20037 47.2699 8.43477V15.7158H43.7905V0.760347H43.7962Z" fill="#2C3B4E"/>
<path d="M0.0986328 2.77848C0.0986328 1.71512 0.957843 0.851318 2.01555 0.851318C3.07326 0.851318 3.93247 1.71512 3.93247 2.77848C3.93247 3.84184 3.07326 4.70564 2.01555 4.70564C0.957843 4.70564 0.0986328 3.84469 0.0986328 2.77848Z" fill="#2C3B4E"/>
<path d="M4.99842 0.28418V13.207C4.99842 16.4427 2.52004 18.0448 0.557749 18.0448H0.0756836V21.2891H0.557749C3.35656 21.1893 8.21975 19.4731 8.21975 12.671V0.28418H4.99842Z" fill="#2C3B4E"/>
<path d="M66.1555 12.6455C63.9578 12.6455 61.8934 10.8581 61.8934 8.09845C61.8934 5.04807 64.352 3.49722 66.1555 3.49722C68.3248 3.49722 70.3664 5.46999 70.3664 8.12411C70.3664 10.439 68.6934 12.6455 66.1555 12.6455ZM70.6897 0.760426H70.6727V1.75822C69.3598 0.803188 67.7775 0.290039 66.1555 0.290039C61.9984 0.290039 58.4141 3.68252 58.4141 8.09845C58.4141 12.2778 61.8396 15.8527 66.1555 15.8527C67.7406 15.8527 69.269 15.3823 70.5394 14.5214C69.9751 16.879 67.9249 18.0478 66.249 18.0478H65.767V21.2921H66.249C69.0479 21.1923 73.911 19.4761 73.911 12.674V0.760426H70.6897V0.760426Z" fill="#2C3B4E"/>
</svg>
