<svg width="32" height="32" viewBox="0 0 32 32" fill="none" xmlns="http://www.w3.org/2000/svg">
<circle cx="16" cy="16" r="16" fill="#253141"/>
<path d="M11.0291 23H7.29732V10.9823H11.0291V23ZM9.16121 9.343C7.9679 9.343 7 8.35458 7 7.16125C7 6.58805 7.2277 6.03833 7.633 5.63302C8.03831 5.2277 8.58802 5 9.16121 5C9.73439 5 10.2841 5.2277 10.6894 5.63302C11.0947 6.03833 11.3224 6.58805 11.3224 7.16125C11.3224 8.35458 10.3541 9.343 9.16121 9.343ZM24.996 23H21.2722V17.1499C21.2722 15.7556 21.2441 13.9677 19.332 13.9677C17.3918 13.9677 17.0945 15.4824 17.0945 17.0494V23H13.3667V10.9823H16.9458V12.6216H16.998C17.4963 11.6774 18.7133 10.681 20.5289 10.681C24.3057 10.681 25 13.1681 25 16.3985V23H24.996Z" fill="white"/>
</svg>
