<svg width="46" height="47" viewBox="0 0 46 47" fill="none" xmlns="http://www.w3.org/2000/svg">
<path d="M13.6441 40.5466H14.1441V40.0466V17.6172V17.1172H13.6441H6.81567H6.31567V17.6172V40.0466V40.5466H6.81567H13.6441ZM31.8763 40.0466V40.5466H32.3763H38.6946H39.1946H39.1971V40.0466H39.6946V27.7483C39.6946 24.717 39.3802 21.9213 38.1186 19.8775C36.8233 17.7789 34.5919 16.5636 31.0091 16.5636C28.2663 16.5636 26.206 17.7668 24.9643 19.2071V17.6198V17.1198H24.4643H17.9221H17.4221V17.6198V40.0492V40.5492H17.9221H24.7378H25.2378V40.0492V28.9572C25.2378 27.502 25.3765 26.1719 25.8916 25.2153C26.1429 24.7488 26.4808 24.3772 26.9378 24.1184C27.3973 23.8581 28.0079 23.6945 28.8292 23.6945C29.6226 23.6945 30.1747 23.8828 30.5702 24.1648C30.9675 24.4482 31.2501 24.8573 31.4494 25.3724C31.8586 26.4305 31.8763 27.8177 31.8763 29.14V40.0466ZM2.55556 0.5H43.4444C44.5711 0.5 45.5 1.4354 45.5 2.61111V44.3889C45.5 45.5646 44.5711 46.5 43.4444 46.5H2.55556C1.42888 46.5 0.5 45.5646 0.5 44.3889V2.61111C0.5 1.4354 1.42888 0.5 2.55556 0.5ZM5.77389 10.5123C5.77389 13.0077 7.75569 15.0543 10.2299 15.0543C12.6983 15.0543 14.6859 13.011 14.6859 10.5123C14.6859 8.01367 12.6983 5.97033 10.2299 5.97033C7.75293 5.97033 5.77389 8.01713 5.77389 10.5123Z" fill="#0A0A0A" stroke="black"/>
</svg>
