<svg width="86" height="41" viewBox="0 0 86 41" fill="none" xmlns="http://www.w3.org/2000/svg">
<path d="M23.0726 10.459V15.953L8.51756 20.709V20.791L23.0726 25.547V31.041L1.75256 23.661L1.75256 17.839L23.0726 10.459ZM29.434 6.687L29.434 1.07H35.461V6.687H29.434ZM35.256 10.5L35.256 36.453L30.5 39.2H25.539L25.539 34.403H29.639V10.5H35.256Z" fill="#F2BC6B"/>
<path d="M47.0274 15.297L47.0274 26.203H57.1954V31H46.1664L41.4104 28.253L41.4104 13.247L46.1664 10.5L57.1954 10.5V15.297L47.0274 15.297ZM62.921 15.953V10.459L84.241 17.839V23.661L62.921 31.041V25.547L77.476 20.791V20.709L62.921 15.953Z" fill="#00C9A7"/>
<path d="M23.0726 10.459H24.0726V9.05463L22.7454 9.51401L23.0726 10.459ZM23.0726 15.953L23.3832 16.9035L24.0726 16.6783V15.953H23.0726ZM8.51756 20.709L8.20696 19.7585L7.51756 19.9837V20.709H8.51756ZM8.51756 20.791H7.51756V21.5163L8.20696 21.7415L8.51756 20.791ZM23.0726 25.547H24.0726V24.8217L23.3832 24.5965L23.0726 25.547ZM23.0726 31.041L22.7454 31.986L24.0726 32.4454V31.041H23.0726ZM1.75256 23.661H0.752559V24.3731L1.42545 24.606L1.75256 23.661ZM1.75256 17.839L1.42545 16.894L0.752559 17.1269V17.839H1.75256ZM22.0726 10.459V15.953H24.0726V10.459H22.0726ZM22.762 15.0025L8.20696 19.7585L8.82816 21.6595L23.3832 16.9035L22.762 15.0025ZM7.51756 20.709V20.791H9.51756V20.709H7.51756ZM8.20696 21.7415L22.762 26.4975L23.3832 24.5965L8.82816 19.8405L8.20696 21.7415ZM22.0726 25.547V31.041H24.0726V25.547H22.0726ZM23.3997 30.096L2.07967 22.716L1.42545 24.606L22.7454 31.986L23.3997 30.096ZM2.75256 23.661L2.75256 17.839H0.752559L0.752559 23.661H2.75256ZM2.07967 18.784L23.3997 11.404L22.7454 9.51401L1.42545 16.894L2.07967 18.784ZM29.434 6.687H28.434V7.687H29.434V6.687ZM29.434 1.07V0.0699989H28.434V1.07H29.434ZM35.461 1.07H36.461V0.0699989H35.461V1.07ZM35.461 6.687V7.687H36.461V6.687H35.461ZM35.256 10.5H36.256V9.5H35.256V10.5ZM35.256 36.453L35.7561 37.3189L36.256 37.0302V36.453H35.256ZM30.5 39.2V40.2H30.768L31.0001 40.0659L30.5 39.2ZM25.539 39.2H24.539V40.2H25.539V39.2ZM25.539 34.403V33.403H24.539V34.403H25.539ZM29.639 34.403V35.403H30.639V34.403H29.639ZM29.639 10.5V9.5H28.639V10.5H29.639ZM30.434 6.687L30.434 1.07H28.434L28.434 6.687H30.434ZM29.434 2.07H35.461V0.0699989H29.434V2.07ZM34.461 1.07V6.687H36.461V1.07H34.461ZM35.461 5.687H29.434V7.687H35.461V5.687ZM34.256 10.5L34.256 36.453H36.256L36.256 10.5H34.256ZM34.7558 35.5871L29.9998 38.3341L31.0001 40.0659L35.7561 37.3189L34.7558 35.5871ZM30.5 38.2H25.539L25.539 40.2H30.5L30.5 38.2ZM26.539 39.2L26.539 34.403H24.539L24.539 39.2H26.539ZM25.539 35.403H29.639V33.403H25.539V35.403ZM30.639 34.403V10.5H28.639V34.403H30.639ZM29.639 11.5H35.256V9.5H29.639V11.5ZM47.0274 15.297V14.297H46.0274V15.297H47.0274ZM47.0274 26.203H46.0274V27.203H47.0274V26.203ZM57.1954 26.203H58.1954V25.203H57.1954V26.203ZM57.1954 31V32H58.1954V31H57.1954ZM46.1664 31L45.6663 31.8659L45.8984 32H46.1664V31ZM41.4104 28.253H40.4104V28.8302L40.9103 29.1189L41.4104 28.253ZM41.4104 13.247L40.9103 12.3811L40.4104 12.6698V13.247H41.4104ZM46.1664 10.5V9.5H45.8984L45.6663 9.63406L46.1664 10.5ZM57.1954 10.5H58.1954V9.5H57.1954V10.5ZM57.1954 15.297V16.297H58.1954V15.297H57.1954ZM46.0274 15.297L46.0274 26.203H48.0274L48.0274 15.297H46.0274ZM47.0274 27.203H57.1954V25.203H47.0274V27.203ZM56.1954 26.203V31H58.1954V26.203H56.1954ZM57.1954 30H46.1664V32H57.1954V30ZM46.6666 30.1341L41.9106 27.3871L40.9103 29.1189L45.6663 31.8659L46.6666 30.1341ZM42.4104 28.253L42.4104 13.247H40.4104L40.4104 28.253H42.4104ZM41.9106 14.1129L46.6666 11.3659L45.6663 9.63406L40.9103 12.3811L41.9106 14.1129ZM46.1664 11.5L57.1954 11.5V9.5L46.1664 9.5V11.5ZM56.1954 10.5V15.297H58.1954V10.5H56.1954ZM57.1954 14.297L47.0274 14.297V16.297L57.1954 16.297V14.297ZM62.921 15.953H61.921V16.6783L62.6104 16.9035L62.921 15.953ZM62.921 10.459L63.2481 9.51401L61.921 9.05463V10.459H62.921ZM84.241 17.839H85.241V17.1269L84.5681 16.894L84.241 17.839ZM84.241 23.661L84.5681 24.606L85.241 24.3731V23.661H84.241ZM62.921 31.041H61.921V32.4454L63.2481 31.986L62.921 31.041ZM62.921 25.547L62.6104 24.5965L61.921 24.8217V25.547H62.921ZM77.476 20.791L77.7866 21.7415L78.476 21.5163V20.791H77.476ZM77.476 20.709H78.476V19.9837L77.7866 19.7585L77.476 20.709ZM63.921 15.953V10.459H61.921V15.953H63.921ZM62.5939 11.404L83.9139 18.784L84.5681 16.894L63.2481 9.51401L62.5939 11.404ZM83.241 17.839V23.661H85.241V17.839H83.241ZM83.9139 22.716L62.5939 30.096L63.2481 31.986L84.5681 24.606L83.9139 22.716ZM63.921 31.041V25.547H61.921V31.041H63.921ZM63.2316 26.4975L77.7866 21.7415L77.1654 19.8405L62.6104 24.5965L63.2316 26.4975ZM78.476 20.791V20.709H76.476V20.791H78.476ZM77.7866 19.7585L63.2316 15.0025L62.6104 16.9035L77.1654 21.6595L77.7866 19.7585Z" fill="black"/>
</svg>
