<svg width="136" height="38" viewBox="0 0 136 38" fill="none" xmlns="http://www.w3.org/2000/svg">
<g clip-path="url(#clip0)">
<path d="M25.4805 25.5111H21.8519C21.348 25.5111 21.0456 25.1153 21.0456 24.7195V20.4645C21.0456 19.0792 22.2551 17.8917 23.6662 17.8917H23.8678C25.2789 17.8917 26.3876 18.9802 26.3876 20.3656V24.6205C26.3876 25.1153 25.9845 25.5111 25.4805 25.5111Z" fill="#003764"/>
<path d="M34.0106 25.5111H31.2025C30.6411 25.5111 30.2661 25.0302 30.2661 24.5483V15.0181C30.2661 14.3442 29.9849 13.7664 29.4235 13.3814L18.5641 6.16082C17.9089 5.77589 17.16 5.77589 16.5049 6.16082L5.55068 13.3814C4.98926 13.7664 4.70805 14.3442 4.70805 15.0181V24.4523C4.70805 25.0302 4.24037 25.4151 3.77168 25.4151H0.963589C0.402172 25.4151 0.0272217 24.9342 0.0272217 24.4523V12.4186C0.0272217 11.7447 0.308434 11.1669 0.869851 10.7819L16.5039 0.28894C17.159 -0.0959878 17.9079 -0.0959878 18.5631 0.28894L34.1033 10.7819C34.6647 11.1669 34.946 11.7447 34.946 12.4186V24.5483C34.947 25.0302 34.4783 25.5111 34.0106 25.5111Z" fill="#003764"/>
<path d="M34.7504 28.1433C34.5287 27.9196 34.2213 27.8959 33.9078 27.9622C33.681 28.0107 33.4512 28.1057 33.2486 28.2066C31.6208 29.018 30.0383 29.9254 28.3803 30.6666C24.9523 32.2004 21.218 32.9534 17.4806 32.9573C13.7431 32.9534 10.0088 32.2004 6.58079 30.6666C4.92275 29.9244 3.3403 29.017 1.71249 28.2066C1.5099 28.1057 1.28009 28.0097 1.05331 27.9622C0.73984 27.8959 0.432421 27.9186 0.210676 28.1433C-0.194512 28.5529 0.0534392 29.2585 0.355818 29.7542C2.42006 33.1493 5.91556 35.4193 9.6066 36.6928C12.1143 37.5587 14.7561 37.9713 17.4019 37.9921V37.999C17.4281 37.999 17.4543 37.996 17.4806 37.996C17.5068 37.996 17.533 37.999 17.5592 37.999V37.9921C20.204 37.9703 22.8458 37.5587 25.3545 36.6928C29.0455 35.4183 32.542 33.1493 34.6053 29.7542C34.9077 29.2585 35.1566 28.5539 34.7504 28.1433Z" fill="#74E0C1"/>
<path d="M44.8448 25.0401C44.1826 24.7274 43.6605 24.3029 43.2795 23.7675C42.8975 23.2322 42.707 22.6434 42.707 22.0012C42.707 20.9612 43.1354 20.1191 43.9921 19.4769C44.8489 18.8347 46.0261 18.3983 47.5209 18.1688L50.7231 17.7096V17.2277C50.7231 16.5697 50.5517 16.0729 50.209 15.7365C49.8663 15.4001 49.321 15.2308 48.5732 15.2308C48.0581 15.2308 47.6459 15.3229 47.3344 15.5059C47.022 15.689 46.77 15.877 46.5744 16.068C46.3799 16.26 46.2509 16.3856 46.1884 16.447C46.1259 16.631 46.009 16.7221 45.8386 16.7221H44.0153C43.8752 16.7221 43.7542 16.6766 43.6524 16.5845C43.5506 16.4925 43.5002 16.3708 43.5002 16.2174C43.5164 15.8355 43.7069 15.403 44.0727 14.9211C44.4386 14.4392 45.0031 14.0187 45.7671 13.6595C46.5301 13.3003 47.4735 13.1202 48.5953 13.1202C50.4338 13.1202 51.7733 13.5259 52.615 14.3363C53.4566 15.1477 53.8769 16.2105 53.8769 17.5256V24.7304C53.8769 24.8837 53.8265 25.0134 53.7247 25.1202C53.6229 25.2271 53.4868 25.2805 53.3155 25.2805H51.3762C51.22 25.2805 51.0879 25.2271 50.9791 25.1202C50.8702 25.0134 50.8158 24.8827 50.8158 24.7304V23.8358C50.4731 24.3256 49.9893 24.7274 49.3664 25.0401C48.7435 25.3538 47.9644 25.5111 47.029 25.5111C46.2348 25.5111 45.507 25.3538 44.8448 25.0401ZM49.9278 22.4821C50.4731 21.931 50.7452 21.1364 50.7452 20.0954V19.6362L48.4079 20.0034C46.6158 20.2784 45.7197 20.8682 45.7197 21.7697C45.7197 22.2595 45.9263 22.6385 46.3396 22.9057C46.7518 23.1728 47.2467 23.3074 47.8233 23.3074C48.681 23.3084 49.3825 23.0333 49.9278 22.4821ZM60.3286 25.1321C60.2037 25.0322 60.1019 24.8907 60.0242 24.7076L55.6307 14.0612C55.6146 14.0157 55.6075 13.9464 55.6075 13.8544C55.6075 13.7169 55.6579 13.5991 55.7597 13.4992C55.8605 13.3992 55.9734 13.3497 56.0984 13.3497H58.0386C58.3501 13.3497 58.5607 13.4952 58.6696 13.7861L61.7549 21.7934L64.8401 13.7861C64.8714 13.6793 64.9369 13.5803 65.0387 13.4883C65.1395 13.3963 65.2766 13.3507 65.4479 13.3507H67.3872C67.5273 13.3507 67.6442 13.4002 67.7379 13.5002C67.8317 13.6001 67.878 13.7179 67.878 13.8554C67.878 13.9474 67.87 14.0167 67.8549 14.0622L63.4845 24.7086C63.3121 25.0905 63.0319 25.2825 62.6429 25.2825H60.8669C60.632 25.2815 60.4526 25.232 60.3286 25.1321ZM70.8333 25.0401C70.1711 24.7274 69.649 24.3029 69.268 23.7675C68.886 23.2322 68.6955 22.6434 68.6955 22.0012C68.6955 20.9612 69.1238 20.1191 69.9806 19.4769C70.8373 18.8347 72.0146 18.3983 73.5093 18.1688L76.7115 17.7096V17.2277C76.7115 16.5697 76.5402 16.0729 76.1975 15.7365C75.8548 15.4001 75.3095 15.2308 74.5616 15.2308C74.0466 15.2308 73.6343 15.3229 73.3229 15.5059C73.0104 15.689 72.7584 15.877 72.5629 16.068C72.3684 16.26 72.2394 16.3856 72.1769 16.447C72.1144 16.631 71.9975 16.7221 71.8271 16.7221H70.0038C69.8637 16.7221 69.7427 16.6766 69.6409 16.5845C69.5391 16.4925 69.4887 16.3708 69.4887 16.2174C69.5048 15.8355 69.6953 15.403 70.0612 14.9211C70.4271 14.4392 70.9915 14.0187 71.7556 13.6595C72.5186 13.3003 73.462 13.1202 74.5838 13.1202C76.4223 13.1202 77.7618 13.5259 78.6034 14.3363C79.445 15.1477 79.8654 16.2105 79.8654 17.5256V24.7304C79.8654 24.8837 79.815 25.0134 79.7132 25.1202C79.6114 25.2271 79.4753 25.2805 79.3039 25.2805H77.3647C77.2084 25.2805 77.0764 25.2271 76.9676 25.1202C76.8587 25.0134 76.8043 24.8827 76.8043 24.7304V23.8358C76.4616 24.3256 75.9778 24.7274 75.3549 25.0401C74.732 25.3538 73.9528 25.5111 73.0175 25.5111C72.2242 25.5111 71.4955 25.3538 70.8333 25.0401ZM75.9173 22.4821C76.4626 21.931 76.7347 21.1364 76.7347 20.0954V19.6362L74.3973 20.0034C72.6052 20.2784 71.7092 20.8682 71.7092 21.7697C71.7092 22.2595 71.9158 22.6385 72.3291 22.9057C72.7413 23.1728 73.2362 23.3074 73.8127 23.3074C74.6705 23.3084 75.372 23.0333 75.9173 22.4821ZM83.0454 25.1212C82.9365 25.0143 82.8811 24.8837 82.8811 24.7313V9.54203C82.8811 9.37381 82.9355 9.24022 83.0454 9.14028C83.1542 9.04034 83.2863 8.99086 83.4425 8.99086H85.4059C85.5773 8.99086 85.7134 9.04034 85.8152 9.14028C85.916 9.24022 85.9674 9.37381 85.9674 9.54203V24.7313C85.9674 24.8847 85.917 25.0143 85.8152 25.1212C85.7134 25.2281 85.5773 25.2815 85.4059 25.2815H83.4425C83.2863 25.2815 83.1532 25.2281 83.0454 25.1212ZM89.1444 11.2391C89.0345 11.1322 88.9801 11.0026 88.9801 10.8492V9.17491C88.9801 9.00669 89.0345 8.86915 89.1444 8.76228C89.2532 8.65541 89.3853 8.60197 89.5415 8.60197H91.6914C91.8627 8.60197 92.0029 8.65541 92.1117 8.76228C92.2206 8.86915 92.275 9.00669 92.275 9.17491V10.8502C92.275 11.0036 92.2165 11.1332 92.0996 11.2401C91.9827 11.3479 91.8466 11.4014 91.6904 11.4014H89.5405C89.3853 11.4004 89.2532 11.3469 89.1444 11.2391ZM89.2381 25.1212C89.1292 25.0143 89.0738 24.8837 89.0738 24.7313V13.9009C89.0738 13.7327 89.1282 13.5991 89.2381 13.5002C89.347 13.4002 89.479 13.3507 89.6352 13.3507H91.6219C91.7781 13.3507 91.9101 13.4042 92.019 13.512C92.1278 13.6189 92.1823 13.7495 92.1823 13.9019V24.7323C92.1823 24.8857 92.1278 25.0153 92.019 25.1222C91.9101 25.2291 91.7771 25.2825 91.6219 25.2825H89.6352C89.479 25.2815 89.347 25.2281 89.2381 25.1212ZM96.9266 24.9827C96.1323 24.6314 95.5437 24.2217 95.1617 23.7557C94.7797 23.2886 94.5892 22.8878 94.5892 22.5514C94.5892 22.398 94.6396 22.2763 94.7414 22.1843C94.8432 22.0923 94.9642 22.0467 95.1043 22.0467H97.0203C97.1453 22.0467 97.2542 22.1081 97.3479 22.2298C97.4255 22.2912 97.6009 22.4366 97.874 22.6662C98.1462 22.8958 98.4586 23.0759 98.8084 23.2055C99.1592 23.3361 99.5452 23.4004 99.9655 23.4004C100.588 23.4004 101.094 23.2817 101.484 23.0442C101.874 22.8067 102.069 22.4663 102.069 22.023C102.069 21.7172 101.979 21.4689 101.801 21.2769C101.622 21.0859 101.302 20.9098 100.842 20.7495C100.383 20.5882 99.6934 20.4091 98.7741 20.2102C97.4497 19.9351 96.472 19.5145 95.841 18.9485C95.2101 18.3825 94.8946 17.6334 94.8946 16.7003C94.8946 16.0888 95.0811 15.5109 95.455 14.9676C95.829 14.4244 96.3853 13.9811 97.1262 13.6367C97.867 13.2924 98.7509 13.1202 99.779 13.1202C100.838 13.1202 101.751 13.2844 102.514 13.613C103.277 13.9415 103.857 14.3353 104.255 14.7945C104.652 15.2536 104.851 15.6593 104.851 16.0106C104.851 16.1481 104.801 16.2669 104.699 16.3668C104.597 16.4668 104.477 16.5162 104.336 16.5162H102.583C102.411 16.5162 102.279 16.4559 102.186 16.3332C102.076 16.257 101.902 16.1145 101.66 15.9087C101.418 15.7029 101.15 15.5376 100.853 15.4159C100.557 15.2932 100.198 15.2318 99.778 15.2318C99.2015 15.2318 98.757 15.3545 98.4455 15.599C98.1341 15.8444 97.9779 16.165 97.9779 16.5628C97.9779 16.8378 98.0524 17.0684 98.2006 17.2515C98.3488 17.4345 98.6481 17.6077 99.1007 17.768C99.5522 17.9293 100.23 18.0936 101.134 18.2608C103.938 18.7961 105.341 19.9974 105.341 21.8627C105.341 22.9492 104.862 23.8289 103.903 24.5018C102.945 25.1756 101.609 25.5121 99.896 25.5121C98.7106 25.5111 97.7218 25.335 96.9266 24.9827ZM109.991 24.192C109.275 23.4657 108.917 22.398 108.917 20.9909V15.8058H107.07C106.914 15.8058 106.782 15.7523 106.673 15.6445C106.564 15.5376 106.51 15.408 106.51 15.2546V13.8999C106.51 13.7475 106.564 13.6179 106.673 13.5101C106.782 13.4022 106.915 13.3488 107.07 13.3488H108.917V9.54203C108.917 9.37381 108.971 9.24022 109.08 9.14028C109.189 9.04034 109.322 8.99086 109.477 8.99086H111.418C111.589 8.99086 111.725 9.04034 111.827 9.14028C111.928 9.24022 111.979 9.37381 111.979 9.54203V13.3507H114.9C115.056 13.3507 115.188 13.4042 115.297 13.512C115.406 13.6199 115.461 13.7495 115.461 13.9019V15.2566C115.461 15.41 115.407 15.5396 115.297 15.6465C115.188 15.7543 115.055 15.8077 114.9 15.8077H111.979V20.7406C111.979 21.3986 112.096 21.8953 112.33 22.2318C112.564 22.5682 112.945 22.7364 113.475 22.7364H115.111C115.282 22.7364 115.418 22.7859 115.52 22.8859C115.621 22.9858 115.672 23.1194 115.672 23.2876V24.7333C115.672 24.8867 115.622 25.0163 115.52 25.1232C115.418 25.2301 115.282 25.2835 115.111 25.2835H113.195C111.775 25.2815 110.708 24.9184 109.991 24.192ZM118.895 24.1337C117.899 23.2164 117.36 21.9468 117.283 20.325L117.26 19.3156L117.283 18.3053C117.361 16.6993 117.906 15.4337 118.919 14.5085C119.931 13.5833 121.341 13.1202 123.149 13.1202C124.94 13.1202 126.343 13.5833 127.356 14.5085C128.368 15.4347 128.913 16.6993 128.992 18.3053C129.007 18.4894 129.015 18.8258 129.015 19.3156C129.015 19.8055 129.007 20.1409 128.992 20.325C128.913 21.9458 128.376 23.2154 127.379 24.1337C126.382 25.051 124.971 25.5111 123.149 25.5111C121.31 25.5111 119.892 25.0519 118.895 24.1337ZM125.054 22.4366C125.498 21.931 125.735 21.1898 125.766 20.2112C125.782 20.0578 125.79 19.7599 125.79 19.3166C125.79 18.8733 125.782 18.5745 125.766 18.4221C125.735 17.4434 125.494 16.6973 125.042 16.1848C124.59 15.6722 123.959 15.4159 123.149 15.4159C122.323 15.4159 121.684 15.6722 121.233 16.1848C120.78 16.6973 120.539 17.4425 120.508 18.4221L120.485 19.3166L120.508 20.2112C120.539 21.1898 120.78 21.932 121.233 22.4366C121.684 22.9413 122.323 23.1936 123.149 23.1936C123.974 23.1936 124.61 22.9413 125.054 22.4366ZM131.746 12.4315C131.313 12.1821 130.968 11.8447 130.714 11.4192C130.46 10.9947 130.333 10.5296 130.333 10.0249C130.333 9.52026 130.46 9.05518 130.714 8.62968C130.968 8.20517 131.313 7.86774 131.746 7.61739C132.179 7.36803 132.652 7.24335 133.167 7.24335C133.681 7.24335 134.154 7.36803 134.587 7.61739C135.02 7.86774 135.364 8.20517 135.618 8.62968C135.872 9.05518 136 9.51927 136 10.0249C136 10.5306 135.873 10.9947 135.618 11.4192C135.364 11.8447 135.02 12.1821 134.587 12.4315C134.154 12.6818 133.681 12.8065 133.167 12.8065C132.653 12.8065 132.179 12.6818 131.746 12.4315ZM134.293 11.9486C134.633 11.7477 134.903 11.4766 135.103 11.1372C135.303 10.7968 135.401 10.4257 135.401 10.0239C135.401 9.62218 135.302 9.25111 135.103 8.91071C134.903 8.57031 134.633 8.30017 134.293 8.09929C133.951 7.89842 133.576 7.79748 133.167 7.79748C132.763 7.79748 132.39 7.89842 132.049 8.09929C131.708 8.30017 131.438 8.57031 131.239 8.91071C131.039 9.25111 130.939 9.62119 130.939 10.0239C130.939 10.4257 131.039 10.7968 131.239 11.1372C131.438 11.4766 131.708 11.7477 132.049 11.9486C132.39 12.1494 132.763 12.2504 133.167 12.2504C133.576 12.2504 133.951 12.1494 134.293 11.9486ZM132.096 11.3845C132.065 11.3539 132.049 11.3123 132.049 11.2608V8.77316C132.049 8.72171 132.065 8.68015 132.096 8.64947C132.128 8.6188 132.17 8.60296 132.222 8.60296H133.285C133.615 8.60296 133.889 8.67817 134.107 8.82759C134.325 8.97701 134.434 9.21153 134.434 9.53015C134.434 9.72608 134.388 9.89133 134.297 10.0249C134.205 10.1585 134.08 10.2594 133.923 10.3267L134.386 11.153C134.407 11.1837 134.418 11.2193 134.418 11.2608C134.418 11.3064 134.403 11.3469 134.374 11.3806C134.346 11.4142 134.303 11.431 134.245 11.431H133.898C133.804 11.431 133.728 11.3826 133.67 11.2846L133.237 10.4573H132.756V11.2618C132.756 11.3133 132.74 11.3539 132.709 11.3855C132.678 11.4172 132.636 11.432 132.583 11.432H132.221C132.17 11.431 132.128 11.4152 132.096 11.3845ZM133.278 9.87748C133.566 9.87748 133.71 9.76171 133.71 9.52917C133.71 9.42625 133.676 9.34115 133.607 9.27486C133.54 9.20757 133.429 9.17392 133.277 9.17392H132.756V9.87649H133.278V9.87748Z" fill="#003764"/>
</g>
<defs>
<clipPath id="clip0">
<rect width="136" height="38" fill="white"/>
</clipPath>
</defs>
</svg>
