<svg xmlns="http://www.w3.org/2000/svg" xmlns:xlink="http://www.w3.org/1999/xlink" width="154" height="52" viewBox="0 0 154 52">
  <defs>
    <clipPath id="clip-Logo">
      <rect width="154" height="52"/>
    </clipPath>
  </defs>
  <g id="Logo" clip-path="url(#clip-Logo)">
    <g id="Сгруппировать_1088" data-name="Сгруппировать 1088" transform="translate(-436.01 70.6)">
      <g id="Сгруппировать_700" data-name="Сгруппировать 700" transform="translate(438.001 -56.183)">
        <g id="Сгруппировать_699" data-name="Сгруппировать 699">
          <path id="Контур_4913" data-name="Контур 4913" d="M446.2-56.181a12.8,12.8,0,0,1,1.935.15,10.965,10.965,0,0,1,1.814.431l-.72,2.751c-.494-.106-1-.188-1.525-.249a12.284,12.284,0,0,0-1.382-.09,4.986,4.986,0,0,0-1.777.3,3.265,3.265,0,0,0-1.344.947,4.4,4.4,0,0,0-.842,1.666,9.052,9.052,0,0,0-.29,2.453,3.338,3.338,0,0,0,.581,2.144,2.252,2.252,0,0,0,1.846.71,5.872,5.872,0,0,0,.65-.042c.249-.025.478-.058.691-.1l.541-4.428h3.47l-.842,6.8a14.927,14.927,0,0,1-2.567.64,15.79,15.79,0,0,1-2.388.2,7.958,7.958,0,0,1-2.948-.469,4.77,4.77,0,0,1-1.855-1.255,4.4,4.4,0,0,1-.957-1.836,8.809,8.809,0,0,1-.27-2.226,13.228,13.228,0,0,1,.149-1.945,9.172,9.172,0,0,1,.511-1.945,7.927,7.927,0,0,1,.962-1.774,6.121,6.121,0,0,1,1.513-1.468,7.571,7.571,0,0,1,2.155-1A10.2,10.2,0,0,1,446.2-56.181Z" transform="translate(-438.027 56.183)" fill="#fefefe"/>
          <path id="Контур_4914" data-name="Контур 4914" d="M459.253-56.161a7.289,7.289,0,0,1,2.727.46,4.916,4.916,0,0,1,1.876,1.277,5.184,5.184,0,0,1,1.086,1.933,8.158,8.158,0,0,1,.349,2.453,10.122,10.122,0,0,1-.5,3.233,7.533,7.533,0,0,1-1.453,2.581,6.629,6.629,0,0,1-2.346,1.7,7.806,7.806,0,0,1-3.2.618,7.621,7.621,0,0,1-2.7-.429,4.788,4.788,0,0,1-2.977-3.1,7.682,7.682,0,0,1-.361-2.412,10.763,10.763,0,0,1,.471-3.213,7.778,7.778,0,0,1,1.4-2.653,6.545,6.545,0,0,1,2.346-1.794A7.658,7.658,0,0,1,459.253-56.161Z" transform="translate(-438.203 56.183)" fill="#fefefe"/>
          <path id="Контур_4915" data-name="Контур 4915" d="M475.349-56.181a12.8,12.8,0,0,1,1.935.15,10.964,10.964,0,0,1,1.814.431l-.722,2.751c-.494-.106-1-.188-1.524-.249a12.285,12.285,0,0,0-1.382-.09,4.986,4.986,0,0,0-1.777.3,3.265,3.265,0,0,0-1.344.947,4.4,4.4,0,0,0-.842,1.666,9.053,9.053,0,0,0-.29,2.453,3.326,3.326,0,0,0,.581,2.144,2.254,2.254,0,0,0,1.845.71,5.924,5.924,0,0,0,.652-.042c.247-.025.478-.058.691-.1l.541-4.428H479l-.842,6.8a14.928,14.928,0,0,1-2.567.64,15.776,15.776,0,0,1-2.386.2,7.957,7.957,0,0,1-2.948-.469,4.769,4.769,0,0,1-1.855-1.255,4.417,4.417,0,0,1-.962-1.835,8.9,8.9,0,0,1-.271-2.226,13.237,13.237,0,0,1,.15-1.945,9.19,9.19,0,0,1,.511-1.945,7.85,7.85,0,0,1,.962-1.774,6.09,6.09,0,0,1,1.514-1.468,7.559,7.559,0,0,1,2.155-1A10.182,10.182,0,0,1,475.349-56.181Z" transform="translate(-438.401 56.183)" fill="#fefefe"/>
          <path id="Контур_4916" data-name="Контур 4916" d="M488.978-44.931h-4.611c-.053.12-.137.313-.249.578s-.236.545-.362.839-.246.567-.361.828-.191.449-.229.567h-3.829l6.374-13.762h4.837l2.745,13.762h-3.868Zm-1.283-8.238-1.042,2.912-1.164,2.769h3.049l-.422-2.851-.3-2.834Z" transform="translate(-438.557 56.183)" fill="#fefefe"/>
          <path id="Контур_4917" data-name="Контур 4917" d="M503.425-47.8c.04-.093.1-.243.171-.449l.261-.728q.151-.419.331-.906t.4-1.007q.241-.618.521-1.288c.188-.444.371-.884.552-1.316s.357-.848.531-1.247.341-.771.5-1.117h4.671l-.181,13.743h-3.79l.241-4.867.181-4.229h-.1c-.014.04-.057.151-.13.329l-.291.708c-.12.294-.261.622-.421.987s-.328.748-.5,1.147q-.481,1.08-1.023,2.264t-1.023,2.184H501.4a4.089,4.089,0,0,1-.112-.459q-.07-.338-.181-.816t-.231-1.067c-.08-.392-.167-.79-.261-1.189s-.184-.8-.27-1.205-.167-.78-.241-1.119-.137-.635-.191-.886-.087-.426-.1-.519h-.1q-.1.636-.191,1.177t-.21,1.235q-.12.7-.261,1.476l-.922,4.847h-3.85l3.248-13.743h4.11c.013.08.057.289.13.628s.161.751.261,1.237.21,1.016.331,1.586.234,1.124.341,1.657c.067.346.133.677.2,1s.123.612.171.879.087.494.12.688.056.321.07.387Z" transform="translate(-438.749 56.183)" fill="#fefefe"/>
          <path id="Контур_4918" data-name="Контур 4918" d="M513.456-42.118l1.686-13.762h10.025l-.321,2.673h-6.175l-.319,2.651h5.211l-.3,2.553h-5.213l-.4,3.173h6.456l-.319,2.711Z" transform="translate(-438.995 56.183)" fill="#fefefe"/>
        </g>
      </g>
      <g id="Сгруппировать_702" data-name="Сгруппировать 702" transform="translate(454.464 -52.699)" opacity="0.3">
        <g id="Сгруппировать_701" data-name="Сгруппировать 701">
          <path id="Контур_4919" data-name="Контур 4919" d="M462.193-50.053l-.268,1.9a.51.51,0,0,1-.488.426h-1.8l-.254,1.794a.509.509,0,0,1-.488.426h-1.9a.361.361,0,0,1-.372-.35.39.39,0,0,1,0-.076l.254-1.794h-1.8a.361.361,0,0,1-.372-.35.388.388,0,0,1,0-.076l.268-1.9a.507.507,0,0,1,.486-.426h1.8l.253-1.794a.509.509,0,0,1,.488-.426h1.9a.361.361,0,0,1,.372.35.385.385,0,0,1,0,.076l-.254,1.794h1.807a.36.36,0,0,1,.366.354A.355.355,0,0,1,462.193-50.053Z" transform="translate(-454.704 52.699)" fill="#0f227a"/>
        </g>
      </g>
      <g id="Сгруппировать_703" data-name="Сгруппировать 703" transform="translate(453.919 -53.61)">
        <path id="Контур_4920" data-name="Контур 4920" d="M461.644-50.964l-.268,1.9a.509.509,0,0,1-.488.426h-1.8l-.253,1.794a.507.507,0,0,1-.488.426h-1.9a.359.359,0,0,1-.371-.347.353.353,0,0,1,0-.079l.253-1.794h-1.8a.36.36,0,0,1-.372-.348.346.346,0,0,1,0-.078l.268-1.9a.509.509,0,0,1,.488-.426h1.8l.254-1.794a.508.508,0,0,1,.488-.426h1.9a.36.36,0,0,1,.372.348.344.344,0,0,1,0,.078l-.252,1.794h1.8a.361.361,0,0,1,.373.349A.4.4,0,0,1,461.644-50.964Z" transform="translate(-454.152 53.61)" fill="#100a26"/>
      </g>
      <g id="Сгруппировать_705" data-name="Сгруппировать 705" transform="translate(524.776 -55.899)">
        <g id="Сгруппировать_704" data-name="Сгруппировать 704">
          <path id="Контур_4921" data-name="Контур 4921" d="M528.026-45.406a1.736,1.736,0,0,1,1.3.429,1.562,1.562,0,0,1,.413,1.127,1.834,1.834,0,0,1-.536,1.366,2.153,2.153,0,0,1-1.579.529,1.718,1.718,0,0,1-1.3-.419,1.479,1.479,0,0,1-.395-1.057,2.008,2.008,0,0,1,.525-1.4A2.017,2.017,0,0,1,528.026-45.406Z" transform="translate(-525.929 55.899)" fill="#fefefe"/>
          <path id="Контур_4922" data-name="Контур 4922" d="M531.211-42.115l1.678-13.763h3.85l-1.382,11.07h6.515l-.319,2.693Z" transform="translate(-525.997 55.899)" fill="#fefefe"/>
          <path id="Контур_4923" data-name="Контур 4923" d="M542.726-42.115l1.684-13.763h3.829l-1.684,13.763Z" transform="translate(-526.145 55.899)" fill="#fefefe"/>
          <path id="Контур_4924" data-name="Контур 4924" d="M555-45.406q.2-.5.412-1.117l.431-1.267q.221-.648.431-1.257c.14-.406.277-.78.411-1.127q.043-.12.22-.559t.411-1.037q.231-.6.5-1.267c.179-.445.352-.868.509-1.267s.3-.741.411-1.027.193-.475.231-.568h4.072q-.263.6-.753,1.686T561.2-51.8q-.6,1.326-1.273,2.793t-1.271,2.793q-.6,1.326-1.095,2.414t-.752,1.686h-4.732c-.08-.4-.2-.959-.341-1.686s-.309-1.529-.494-2.414-.367-1.815-.562-2.793-.379-1.908-.562-2.793-.345-1.689-.494-2.414-.261-1.287-.341-1.686h4.152q.058.358.179,1.157c.08.532.162,1.09.242,1.676s.155,1.144.229,1.676.13.918.171,1.157.085.582.13,1.027.1.911.15,1.4.1.947.152,1.386.082.778.109,1.017Z" transform="translate(-526.229 55.899)" fill="#fefefe"/>
        </g>
      </g>
      <path id="Контур_4925" data-name="Контур 4925" d="M561.557-44.843l-1.272,2.848h12.378l1.271-2.848Z" transform="translate(-1.594 0)" fill="#28e566"/>
      <path id="Контур_4926" data-name="Контур 4926" d="M566.667-55.895,565.4-53.047h12.376l1.271-2.848Z" transform="translate(-1.66 0)" fill="#ff8000"/>
      <path id="Контур_4927" data-name="Контур 4927" d="M562.741-47.541h6.18l1.256-2.812H564Z" transform="translate(-1.626 0)" fill="#fefefe"/>
      <path id="Контур_5275" data-name="Контур 5275" d="M526.858-19.6a4.251,4.251,0,0,0,3.073-1.313,70.2,70.2,0,0,0,7.093-9.586c.068-.107.136-.21.205-.314a6.2,6.2,0,0,1,5.473-3.42l22.206-3.05a6.714,6.714,0,0,1,1.678-.228,6.483,6.483,0,0,1,4.541,2.033,72.369,72.369,0,0,0,9.728,7.565,4.33,4.33,0,0,0,2.176.592,4.23,4.23,0,0,0,2.746-1.017c3.651-3.112,4.213-8.425,1.721-16.244-2.131-6.692-6.232-14.33-10.346-21.587-.275-.491-.555-.979-.828-1.461l-.029-.048-.052-.022-2.006-.848-.01-.028-.109-.015-8.012-.967a5.707,5.707,0,0,0-.679-.042,5.706,5.706,0,0,0-4.7,2.515l-2.663,3.9a4.126,4.126,0,0,1-2.828,1.769l-4.884.669-4.885.672a4,4,0,0,1-.548.038,4.146,4.146,0,0,1-2.655-.976l-3.627-3.04a5.778,5.778,0,0,0-3.7-1.358,5.6,5.6,0,0,0-2.157.431l-7.45,3.093-.022.01-.018.013-1.763,1.407-.045.035-.013.054-.2.821-.174.709c-.1.4-.193.8-.289,1.211l-.176.745h-9.368l-.018.146-.027.22-.2,1.627-1.859-1.852-.074-.073-.048-.048h-5.728l-.045.1-.066.145-.157.338c-.164.352-.333.731-.513,1.138s-.355.826-.536,1.262l-.222.532-.091-.431q-.1-.468-.12-.575l-.032-.193-.013-.078-.009-.053-.038-.038-.056-.057-1.976-1.965-.072-.071-.05-.05H495.99l-.031.128-.044.193-2,8.482L492.6-54.585l-.015-.075-.009-.05-.037-.035-.053-.054-1.968-1.957-.074-.073-.048-.05h-5.887l-.045.1-.066.145-3.634,7.844-1.456-1.446.124.026.549.118.234.05.157.033.04-.152.06-.233.949-3.614.036-.138.025-.093-.068-.066-.1-.1-1.908-1.9-.3-.2a11.258,11.258,0,0,0-2.07-.51,13.955,13.955,0,0,0-2.124-.163,11.183,11.183,0,0,0-3.137.412,8.484,8.484,0,0,0-2.439,1.132,7.147,7.147,0,0,0-1.759,1.706,9.135,9.135,0,0,0-.844,1.434,5.3,5.3,0,0,0-.661-.932l-2.1-2.088a9.533,9.533,0,0,0-1.817-1.112,8.33,8.33,0,0,0-3.1-.532,8.7,8.7,0,0,0-3.7.753,7.6,7.6,0,0,0-2.7,2.068l-.015.016-.089-.088-1.909-1.9-.3-.2a11.258,11.258,0,0,0-2.07-.51,13.929,13.929,0,0,0-2.122-.163,11.163,11.163,0,0,0-3.137.412,8.484,8.484,0,0,0-2.441,1.132,7.147,7.147,0,0,0-1.759,1.706,8.817,8.817,0,0,0-1.083,2,10.277,10.277,0,0,0-.567,2.154,14.075,14.075,0,0,0-.16,2.092,9.838,9.838,0,0,0,.3,2.473,5.419,5.419,0,0,0,1.175,2.241c.09.1.279.289.3.312l1.841,1.774a5.985,5.985,0,0,0,1.762,1.1,8.935,8.935,0,0,0,3.323.542,16.611,16.611,0,0,0,2.542-.211,16.353,16.353,0,0,0,2.738-.68l.346-.12.147-.05.1-.035.014-.1.018-.153.333-2.683a4.727,4.727,0,0,0,.346.414l1.97,1.917a5.95,5.95,0,0,0,1.95,1.21,8.667,8.667,0,0,0,3.052.494,8.837,8.837,0,0,0,3.607-.705,7.661,7.661,0,0,0,2.692-1.961,7.949,7.949,0,0,0,1.17-1.8,4.546,4.546,0,0,0,.519.732c.107.123.343.35.371.377l1.054,1.046v.073l0,.081.065.05.1.073.772.577a6.064,6.064,0,0,0,1.54.911,8.947,8.947,0,0,0,3.325.542,16.621,16.621,0,0,0,2.542-.211,16.333,16.333,0,0,0,2.44-.582l.456.452.074.073.048.048h4.97l.039-.113.055-.173.132-.4c.033-.1.1-.263.2-.481l.714-1.644h1.684l.078.494.014.082.008.053.039.038.057.057L490-39.58l.074.073.048.048h9.767l.026-.134.039-.2.493-2.6,1.344,1.337.073.073.05.048h3.973l.045-.095.068-.141.06-.124,1.725,1.715.073.073.048.048H513.1l0-.163,0-.246,0-.2.491.487.074.073.048.048h.215l.074.01h5.3c-.156,1.45-.256,2.761-.3,4l0,.134-.006.122,0,.013,0,.055c-.042,1.233-.032,2.363.034,3.427,0,.062,0,.11.009.16.376,6.069,2.352,9.845,6.042,11.544a4.233,4.233,0,0,0,1.784.394m-.128-.179c.064,0,.125.008.188.008-.021,0-.039,0-.059,0-.043,0-.085-.012-.128-.013m1.03-.1c-.038.008-.075.023-.114.032.038-.009.075-.024.114-.032m-1.855-.013c.072.016.144.03.217.043-.073-.013-.145-.027-.217-.043m2.658-.264c-.07.033-.14.064-.212.094.072-.03.142-.063.212-.094m.663-.383c-.062.045-.127.083-.19.123.063-.04.128-.078.19-.123M582.951-27.5h.063l.165,0c-.05,0-.1.012-.148.012-.028,0-.054-.009-.08-.01m.894-.082c-.088.019-.177.032-.267.045.09-.013.179-.026.267-.045m-1.974-.088c.05.015.1.033.148.047-.049-.014-.1-.032-.148-.047m2.62-.1c-.081.032-.164.055-.248.082.084-.027.167-.05.248-.082m.611-.294c-.063.038-.132.067-.2.1.065-.033.134-.062.2-.1m-14.788-8.3a9.377,9.377,0,0,1,.929.768,9.377,9.377,0,0,0-.929-.768m-1.22-.743a7.3,7.3,0,0,1,.989.578,7.3,7.3,0,0,0-.989-.578M569-37.145a6.144,6.144,0,0,0-.98-.337,5.951,5.951,0,0,1,.98.337m-2.369-.525a5.75,5.75,0,0,1,1.131.125,5.75,5.75,0,0,0-1.131-.125m-.556.028c-.1.008-.19.007-.287.02.1-.013.191-.012.287-.02M544.424-59.913c.1.014.2.024.307.029-.1-.005-.205-.015-.307-.029m-.518-.093c-.1-.025-.2-.048-.3-.079.1.031.2.054.3.079m-1.052-.4h0l0,0,0,0h0c.077.044.157.073.235.11-.078-.035-.158-.066-.235-.11m-5.31-4.162c.08.043.161.083.239.13-.078-.047-.159-.087-.239-.13m-.844-.369c.091.032.181.067.269.1-.091-.035-.179-.07-.269-.1m-2.678-.211c-.087.013-.172.028-.257.047.085-.019.17-.034.257-.047m1.826-.01c.065.012.128.032.193.045-.064-.013-.127-.033-.193-.045m-.914-.08c.017,0,.034,0,.05,0-.06,0-.121.008-.182.01.043,0,.088-.014.131-.014m26.875-2.814c-.041.035-.075.075-.114.11.039-.037.073-.075.114-.11m1.141-.769c-.062.031-.12.064-.181.1.06-.034.118-.067.181-.1m1.264-.458c-.064.015-.129.027-.193.044.063-.017.127-.029.193-.044m1.842-.114a5.205,5.205,0,0,0-.61-.032h-.054l.036,0a5.3,5.3,0,0,1,.628.037l.031,0-.031,0m-39.2,50.8a5.2,5.2,0,0,1-2.193-.484,9.976,9.976,0,0,1-4.727-4.575,19.273,19.273,0,0,1-1.891-7.816v-.006c0-.053-.007-.106-.009-.17-.065-1.083-.077-2.211-.036-3.446l-.02-.221.029-.078,0-.09c.036-.932.1-1.909.2-2.963h-4.269l-.065-.008-.009,0H507.5l-.288-.286-.048-.048-.075-.074-1.073-1.068h-4.5l-.286-.276-.049-.048-.006-.005,0-.006-.074-.073-.03-.029-.145.765-.039.2-.025.131-.151.814H489.715l-.288-.287-.048-.049-.072-.071-1.978-1.967-.057-.057-.037-.036L487-41.159l-.017-.111h-.2l-.454,1.047c-.041.095-.136.313-.159.385l0,0,0,.005-.13.4-.053.168,0,.01,0,.009-.038.113-.23.674h-6.078l-.288-.286-.048-.049-.073-.073-.039-.039a17.073,17.073,0,0,1-2.016.444,17.524,17.524,0,0,1-2.692.223,9.918,9.918,0,0,1-3.69-.613,7.041,7.041,0,0,1-1.773-1.044l-.76-.568-.1-.072-.006,0-.006,0-.065-.05-.382-.292,0-.231-.763-.756-.08-.078a7.937,7.937,0,0,1-.556.71,8.616,8.616,0,0,1-3.035,2.213,9.805,9.805,0,0,1-4,.789,9.63,9.63,0,0,1-3.4-.557,6.9,6.9,0,0,1-2.268-1.406l-.011-.01-.011-.01-.906-.881-.079.637-.018.149v.01l-.014.1-.079.61-.573.2-.1.035-.007,0-.007,0-.145.049-.342.118a17.269,17.269,0,0,1-2.907.722,17.524,17.524,0,0,1-2.692.223,9.92,9.92,0,0,1-3.689-.613,6.966,6.966,0,0,1-2.045-1.278l-.016-.014-.016-.015L438.1-41.932l0-.005,0,0c-.111-.109-.259-.259-.351-.365a6.4,6.4,0,0,1-1.392-2.653,10.854,10.854,0,0,1-.334-2.724,15.105,15.105,0,0,1,.172-2.243,11.188,11.188,0,0,1,.622-2.365,9.864,9.864,0,0,1,1.205-2.227,8.129,8.129,0,0,1,2-1.943,9.445,9.445,0,0,1,2.721-1.265,12.157,12.157,0,0,1,3.413-.452,15,15,0,0,1,2.271.174,12.312,12.312,0,0,1,2.244.554l.115.04.1.068.3.2.082.055.069.069,1.281,1.274a8.711,8.711,0,0,1,2.328-1.567,9.668,9.668,0,0,1,4.114-.844,9.3,9.3,0,0,1,3.465.6,10.38,10.38,0,0,1,2.095,1.281l.026.022.025.024,1.958,1.944c.053-.078.107-.155.162-.232a8.136,8.136,0,0,1,2-1.944,9.48,9.48,0,0,1,2.718-1.265,12.157,12.157,0,0,1,3.414-.452,15.008,15.008,0,0,1,2.273.174,12.25,12.25,0,0,1,2.244.554l.115.04.1.068.3.2.083.054.07.069,1.907,1.9.1.1.066.064.252.245,1.086-2.344.066-.143.045-.1.266-.578h6.93l.29.3.042.043.067.067,1.968,1.957,0,.005.006,0,.039.041.023.022.244.231.055.333.006.034.012.06.418,2.09.964-4.079.044-.19.031-.13.181-.768h6.5l.288.287.049.049.072.072,1.628,1.617c.13-.293.265-.592.395-.873l.157-.337.066-.142v-.006l.045-.1.268-.571h6.756l.287.287.048.048.073.072.434.433.109-.86h9.458l.067-.283c.073-.307.145-.611.218-.912l.174-.711.2-.82.014-.054L522.6-61l.274-.213.039-.03,1.758-1.4.018-.015.019-.013.019-.013.078-.057.086-.04.022-.01.018-.008.018-.007L532.4-65.9a6.571,6.571,0,0,1,2.531-.5,6.762,6.762,0,0,1,4.329,1.587l3.627,3.041a3.167,3.167,0,0,0,2.026.746,3.073,3.073,0,0,0,.415-.029l4.885-.671,4.885-.67a3.136,3.136,0,0,0,2.148-1.347l2.664-3.9a6.686,6.686,0,0,1,5.516-2.946,6.807,6.807,0,0,1,.794.048l8.015.968h.016l.109.015.594.082.065.184,1.6.678.048.02.3.126.169.286.028.048,0,.007,0,.007.2.356c.208.367.42.738.628,1.109,4.138,7.3,8.268,15,10.427,21.775a25.6,25.6,0,0,1,1.486,10.3,10.292,10.292,0,0,1-3.51,7.015,5.208,5.208,0,0,1-3.382,1.252,5.312,5.312,0,0,1-2.668-.725,73.049,73.049,0,0,1-9.881-7.675l-.015-.013-.015-.014a5.552,5.552,0,0,0-3.866-1.763,5.782,5.782,0,0,0-1.433.2l-.055.014-.056.008-22.206,3.05-.057.008h-.058a5.23,5.23,0,0,0-4.646,2.935l-.011.019-.012.019-.057.086-.144.222,0,0v0a70.748,70.748,0,0,1-7.21,9.733A5.227,5.227,0,0,1,526.858-18.6Z" transform="translate(0 0)" fill="#fff"/>
    </g>
  </g>
</svg>
