<svg xmlns="http://www.w3.org/2000/svg" width="22.9306mm" height="6.5261mm" viewBox="0 0 65 18.4992"><defs><style>.cls-1{fill:#003764;}.cls-2{fill:#74e0c1;}</style></defs><g id="Capa_2" data-name="Capa 2"><g id="Capa_1-2" data-name="Capa 1"><path class="cls-1" d="M12.1781,12.42H10.4439a.38.38,0,0,1-.3854-.3854V9.9626A1.2754,1.2754,0,0,1,11.311,8.71h.0964a1.1926,1.1926,0,0,1,1.2043,1.2044v2.0714a.4318.4318,0,0,1-.4336.4336Z"/><path class="cls-1" d="M16.255,12.42H14.9127a.46.46,0,0,1-.4474-.4687v-4.64a.9335.9335,0,0,0-.4027-.7967l-5.19-3.515a.9321.9321,0,0,0-.9844,0L2.6531,6.5144a.9335.9335,0,0,0-.4027.7967v4.5928a.459.459,0,0,1-.4474.4687H.4607a.46.46,0,0,1-.4474-.4687V6.0457A.9332.9332,0,0,1,.416,5.249L7.888.1406a.9317.9317,0,0,1,.9844,0L16.3,5.249a.9332.9332,0,0,1,.4027.7967v5.9051a.4931.4931,0,0,1-.4474.4687Z"/><path class="cls-2" d="M16.6087,13.7011a.4106.4106,0,0,0-.4025-.088,1.3533,1.3533,0,0,0-.315.1192c-.7778.3949-1.5342.8367-2.3268,1.1978a12.7249,12.7249,0,0,1-10.4188,0c-.7926-.3611-1.549-.8029-2.3267-1.1978a1.3541,1.3541,0,0,0-.3151-.1192.4106.4106,0,0,0-.4025.088c-.1938.2-.0749.5427.0692.7842a8.2252,8.2252,0,0,0,4.4214,3.3781,11.5161,11.5161,0,0,0,3.7256.6327v.0031l.0375-.0015.0376.0015v-.0031a11.516,11.516,0,0,0,3.7255-.6327A8.2258,8.2258,0,0,0,16.54,14.4853C16.6837,14.2438,16.8026,13.9007,16.6087,13.7011Z"/><path class="cls-1" d="M21.4331,12.19a1.8916,1.8916,0,0,1-.7483-.62,1.5178,1.5178,0,0,1,.3405-2.0888,3.6915,3.6915,0,0,1,1.6868-.6367l1.53-.2234V8.387a.9848.9848,0,0,0-.2457-.7259,1.07,1.07,0,0,0-.7817-.246,1.1438,1.1438,0,0,0-.5921.1341,1.8783,1.8783,0,0,0-.3631.2736q-.14.14-.1843.1844a.1688.1688,0,0,1-.1674.1341h-.8713a.2451.2451,0,0,1-.1731-.0672.2307.2307,0,0,1-.0728-.1785,1.182,1.182,0,0,1,.2738-.6311,2.1387,2.1387,0,0,1,.81-.6144,3.1142,3.1142,0,0,1,1.3517-.2624,2.6624,2.6624,0,0,1,1.9211.5918A2.0793,2.0793,0,0,1,25.75,8.5323V12.04a.27.27,0,0,1-.0725.19.2544.2544,0,0,1-.1955.0781h-.9271a.2667.2667,0,0,1-.268-.2681V11.604a1.831,1.831,0,0,1-.6927.5863,2.4371,2.4371,0,0,1-1.117.2292A2.3744,2.3744,0,0,1,21.4331,12.19Zm2.43-1.2453a1.6006,1.6006,0,0,0,.3908-1.1618V9.56l-1.117.1787q-1.2846.2013-1.2845.86a.6248.6248,0,0,0,.2961.553,1.2575,1.2575,0,0,0,.7093.1955A1.3414,1.3414,0,0,0,23.8627,10.945Zm4.9707,1.29a.5136.5136,0,0,1-.1453-.2066l-2.1-5.1829a.3337.3337,0,0,1-.0112-.1007A.236.236,0,0,1,26.65,6.572a.2232.2232,0,0,1,.1618-.0728h.9272a.2968.2968,0,0,1,.3015.2123L29.5147,10.61l1.4745-3.8983a.3161.3161,0,0,1,.0948-.1451.2757.2757,0,0,1,.1955-.0672h.9271a.2183.2183,0,0,1,.1676.0728.2466.2466,0,0,1,.0669.1729.3479.3479,0,0,1-.0111.1007l-2.0887,5.1829a.4163.4163,0,0,1-.4021.2792H29.09A.397.397,0,0,1,28.8334,12.2351Zm5.0208-.0448a1.892,1.892,0,0,1-.7482-.62,1.5178,1.5178,0,0,1,.34-2.0888,3.6911,3.6911,0,0,1,1.6867-.6367l1.53-.2234V8.387a.9848.9848,0,0,0-.2457-.7259,1.07,1.07,0,0,0-.7818-.246,1.1437,1.1437,0,0,0-.592.1341,1.8783,1.8783,0,0,0-.3631.2736q-.14.14-.1844.1844a.1686.1686,0,0,1-.1673.1341h-.8713a.2454.2454,0,0,1-.1732-.0672.2306.2306,0,0,1-.0727-.1785,1.182,1.182,0,0,1,.2738-.6311,2.1383,2.1383,0,0,1,.81-.6144,3.1147,3.1147,0,0,1,1.3518-.2624,2.6622,2.6622,0,0,1,1.921.5918,2.079,2.079,0,0,1,.6032,1.5528V12.04a.27.27,0,0,1-.0725.19.2542.2542,0,0,1-.1955.0781h-.927a.2667.2667,0,0,1-.268-.2681V11.604a1.8306,1.8306,0,0,1-.6928.5863,2.4364,2.4364,0,0,1-1.1169.2292A2.3748,2.3748,0,0,1,33.8542,12.19Zm2.43-1.2453a1.6005,1.6005,0,0,0,.3907-1.1618V9.56l-1.1169.1787q-1.2847.2013-1.2846.86a.6247.6247,0,0,0,.2962.553,1.2574,1.2574,0,0,0,.7092.1955A1.3417,1.3417,0,0,0,36.2839,10.945ZM39.6906,12.23a.2587.2587,0,0,1-.0784-.19V4.6451a.2537.2537,0,0,1,.0784-.1954.2675.2675,0,0,1,.19-.0728h.9382a.25.25,0,0,1,.268.2682V12.04a.27.27,0,0,1-.0725.19.2544.2544,0,0,1-.1955.0781h-.9382A.2578.2578,0,0,1,39.6906,12.23Zm2.9152-6.7581a.2567.2567,0,0,1-.0783-.19V4.4664a.2713.2713,0,0,1,.0783-.2011.2585.2585,0,0,1,.19-.0781h1.0277a.2676.2676,0,0,1,.2792.2792v.8155a.2494.2494,0,0,1-.0837.19.2766.2766,0,0,1-.1955.0784H42.7955A.2568.2568,0,0,1,42.6058,5.4715ZM42.65,12.23a.259.259,0,0,1-.0783-.19V6.7672A.2539.2539,0,0,1,42.65,6.572a.268.268,0,0,1,.19-.0728H43.79a.2672.2672,0,0,1,.268.268V12.04a.2667.2667,0,0,1-.268.2681H42.84A.2579.2579,0,0,1,42.65,12.23Zm3.675-.0672a2.2418,2.2418,0,0,1-.8434-.5974,1.0108,1.0108,0,0,1-.2736-.5865.2311.2311,0,0,1,.0725-.1788.2473.2473,0,0,1,.1732-.0669H46.37a.1932.1932,0,0,1,.1564.0892q.0556.0447.2513.2122a1.4794,1.4794,0,0,0,.4468.2625,1.549,1.549,0,0,0,.553.0951,1.362,1.362,0,0,0,.726-.1732.5522.5522,0,0,0,.2792-.497.5168.5168,0,0,0-.1283-.3631,1.1588,1.1588,0,0,0-.458-.2569,8.8523,8.8523,0,0,0-.9886-.2624,2.98,2.98,0,0,1-1.4017-.6144A1.4106,1.4106,0,0,1,45.3537,8.13a1.4792,1.4792,0,0,1,.268-.8434,1.9313,1.9313,0,0,1,.7985-.6479,2.9381,2.9381,0,0,1,1.2678-.2512,3.237,3.237,0,0,1,1.3069.24,2.2657,2.2657,0,0,1,.8322.5751.9772.9772,0,0,1,.2848.592.2479.2479,0,0,1-.2457.2458h-.8376a.2226.2226,0,0,1-.19-.0893q-.0786-.0556-.2515-.2067a1.4327,1.4327,0,0,0-.3852-.24,1.3216,1.3216,0,0,0-.514-.09.9987.9987,0,0,0-.6367.1788.572.572,0,0,0-.2234.4691.5223.5223,0,0,0,.1063.3352.98.98,0,0,0,.43.2513,6.7185,6.7185,0,0,0,.9717.24q2.01.391,2.0108,1.7537a1.51,1.51,0,0,1-.6872,1.2845,3.2449,3.2449,0,0,1-1.9154.4917A3.4521,3.4521,0,0,1,46.3254,12.1624Zm6.2438-.3852a2.1548,2.1548,0,0,1-.5138-1.5584V7.6945H51.173a.267.267,0,0,1-.268-.268V6.7672a.2672.2672,0,0,1,.268-.268h.8824V4.6451a.2539.2539,0,0,1,.0781-.1954.2686.2686,0,0,1,.19-.0728h.9272a.2505.2505,0,0,1,.2681.2682V6.4992h1.3961a.2677.2677,0,0,1,.2683.268v.6593a.2675.2675,0,0,1-.2683.268H53.5188v2.4016a1.2906,1.2906,0,0,0,.1676.7259.6133.6133,0,0,0,.5472.2457h.782a.25.25,0,0,1,.268.2683V12.04a.27.27,0,0,1-.0725.19.2545.2545,0,0,1-.1955.0781H54.1A2.038,2.038,0,0,1,52.5692,11.7772Zm4.2558-.0281a2.596,2.596,0,0,1-.7708-1.8541l-.0112-.4914.0112-.4917a2.58,2.58,0,0,1,.782-1.8485,3.3459,3.3459,0,0,1,4.0324,0A2.5815,2.5815,0,0,1,61.65,8.9119q.0108.1343.0111.4917c0,.2384-.0039.4019-.0111.4914a2.5975,2.5975,0,0,1-.7706,1.8541,3.4008,3.4008,0,0,1-4.0548,0Zm2.9432-.8264a1.7018,1.7018,0,0,0,.3407-1.0835q.011-.1118.0112-.4356t-.0112-.4357a1.7038,1.7038,0,0,0-.3463-1.089,1.1325,1.1325,0,0,0-.9048-.3743,1.1454,1.1454,0,0,0-.9158.3743,1.7038,1.7038,0,0,0-.3464,1.089l-.0112.4357.0112.4356a1.68,1.68,0,0,0,.3464,1.0835,1.1543,1.1543,0,0,0,.9158.3684A1.1373,1.1373,0,0,0,59.7682,10.9227ZM62.9668,6.052a1.3647,1.3647,0,0,1-.4928-.4928,1.3555,1.3555,0,0,1,0-1.3579,1.3678,1.3678,0,0,1,.4928-.4928,1.3555,1.3555,0,0,1,1.3579,0,1.3663,1.3663,0,0,1,.4928.4928,1.3542,1.3542,0,0,1,0,1.3579,1.3632,1.3632,0,0,1-.4928.4928,1.3542,1.3542,0,0,1-1.3579,0Zm1.217-.235a1.0881,1.0881,0,0,0,.3874-.3949,1.0988,1.0988,0,0,0,0-1.0834,1.0869,1.0869,0,0,0-.3874-.395,1.0521,1.0521,0,0,0-1.0721,0,1.0832,1.0832,0,0,0-.3875.395,1.0975,1.0975,0,0,0,0,1.0834,1.0845,1.0845,0,0,0,.3875.3949,1.0521,1.0521,0,0,0,1.0721,0Zm-1.05-.2747a.0814.0814,0,0,1-.0225-.06V4.2709a.0776.0776,0,0,1,.0828-.0828h.5078a.6707.6707,0,0,1,.393.1092.3883.3883,0,0,1,.156.3422.4228.4228,0,0,1-.0656.2409.4055.4055,0,0,1-.1788.1467l.2218.4025a.0921.0921,0,0,1,.0151.0527.0871.0871,0,0,1-.0207.0581.0758.0758,0,0,1-.0619.0245h-.1656a.1234.1234,0,0,1-.1091-.0713L63.68,5.0909h-.23v.3914a.0776.0776,0,0,1-.0828.0826h-.1728A.0817.0817,0,0,1,63.1342,5.5423Zm.5643-.7334q.2068,0,.2068-.1694a.1674.1674,0,0,0-.0489-.124.2159.2159,0,0,0-.1579-.0489H63.45v.3423Z"/></g></g></svg>