<svg width="60" height="60" viewBox="0 0 60 60" fill="none" xmlns="http://www.w3.org/2000/svg">
    <path d="M31.4297 23.0273C33.375 23.8828 35.4024 24.3164 37.3477 24.3164C38.3789 24.3164 39.3867 24.1992 40.3477 23.9414C43.1484 23.2148 45.2461 21.5156 46.2539 19.1601C47.3086 16.6875 47.0391 13.8281 45.5039 11.1211C44.0508 8.55467 41.6133 6.41014 38.6484 5.10936C35.6719 3.79686 32.5078 3.46873 29.7305 4.18358C26.9297 4.91014 24.832 6.60936 23.8242 8.96483C22.7695 11.4375 23.0391 14.2969 24.5742 17.0039C26.0273 19.582 28.4648 21.7148 31.4297 23.0273ZM28.0547 18.5039L31.2891 16.8984C32.5313 18.1172 34.2774 18.8437 35.9766 18.8437C36.293 18.8437 36.6094 18.8203 36.9141 18.7617L39.2227 22.2656C35.3789 22.9804 30.9492 21.4101 28.0547 18.5039ZM31.6406 12.4804C31.8867 11.8945 32.4375 11.4609 33.1875 11.2734C33.4805 11.2031 33.7852 11.168 34.0899 11.168C35.6836 11.168 37.418 12.1054 38.1914 13.5C38.6133 14.25 38.6953 15.0117 38.4258 15.6445C38.1797 16.2304 37.6289 16.664 36.8789 16.8515C35.0977 17.3086 32.8008 16.289 31.875 14.625C31.4648 13.8867 31.3711 13.1133 31.6406 12.4804ZM44.5195 18.4219C43.8985 19.8867 42.7031 21.0234 41.0977 21.7148L38.707 18.0937C39.3516 17.6719 39.8555 17.0976 40.1484 16.3945C40.6406 15.2461 40.5234 13.8867 39.8555 12.6445L43.1836 10.9804C43.4297 11.3203 43.6641 11.6719 43.8633 12.0351C45.1055 14.2383 45.3399 16.5 44.5195 18.4219ZM41.918 9.51561L38.6836 11.1328C37.1719 9.71482 34.957 8.99998 32.9766 9.39842L30.6563 5.88279C31.3359 5.74217 32.0391 5.67186 32.7422 5.67186C36.0469 5.68358 39.4922 7.1367 41.918 9.51561ZM25.5586 9.70311C26.1563 8.28514 27.293 7.18358 28.8047 6.49217L31.2188 10.1484C30.6445 10.5586 30.1992 11.0976 29.918 11.7539C29.4492 12.8672 29.5313 14.1679 30.1523 15.375L26.8125 17.0273C26.6016 16.7226 26.3906 16.4062 26.2148 16.0781C24.9727 13.8867 24.7383 11.625 25.5586 9.70311Z" fill="#111111"/>
    <path d="M51.1289 8.87109C45.4805 3.22266 37.9805 0.117188 30 0.117188C22.0195 0.117188 14.5195 3.22266 8.87109 8.87109C4.66406 13.0781 1.86328 18.3164 0.714844 24.0234C0.703125 24.0586 0.703125 24.0938 0.691406 24.1289C0.386719 25.6875 0.199219 27.2812 0.140625 28.8984C0.128906 28.9688 0.128906 29.0273 0.128906 29.0977C0.128906 29.3906 0.117188 29.6953 0.117188 30C0.117188 36.3633 2.09766 42.4219 5.75391 47.4844C5.75391 47.4844 5.75391 47.4961 5.76562 47.4961C6.69141 48.7734 7.72266 49.9922 8.87109 51.1289C14.5195 56.7773 22.0195 59.8828 30 59.8828C37.9805 59.8828 45.4805 56.7773 51.1289 51.1289C56.7773 45.4805 59.8828 37.9805 59.8828 30C59.8828 22.0195 56.7773 14.5195 51.1289 8.87109ZM10.1953 10.1953C15.4805 4.91016 22.5234 1.99219 30 1.99219C37.4766 1.99219 44.5195 4.91016 49.8047 10.1953C52.2422 12.6328 54.1758 15.4453 55.5469 18.4922C53.918 19.7695 48.5391 23.6719 39.8203 27.1641C22.7578 33.9727 7.41797 36.5859 2.92969 37.2422C2.68359 36.3281 2.49609 35.4023 2.34375 34.4648C4.52344 34.1484 6.82031 33.7734 9.03516 33.3633C15.5273 32.1562 22.043 30.375 26.4609 28.6055C26.9414 28.418 27.1758 27.8672 26.9766 27.3867C26.7891 26.9062 26.2383 26.6719 25.7578 26.8711C21.4453 28.6055 15.0703 30.3398 8.68359 31.5352C6.49219 31.9453 4.24219 32.3086 2.09766 32.625C2.01562 31.7695 1.98047 30.8906 1.98047 30.0234C1.98047 29.9766 1.98047 29.918 1.98047 29.8711C3.02344 29.7305 4.65234 29.4844 6.77344 29.1211C10.3711 28.5117 15.457 27.4922 19.3125 26.1094C19.8047 25.9336 20.0508 25.3945 19.875 24.9141C19.6992 24.4219 19.1602 24.1758 18.6797 24.3516C14.9531 25.6875 9.97266 26.6719 6.44531 27.2812C4.54688 27.6094 3.07031 27.832 2.03906 27.9727C2.10938 27.0117 2.22656 26.0742 2.39062 25.1367C3.22266 25.0195 4.08984 24.8906 4.99219 24.7617C7.26562 24.3984 10.6406 23.7539 13.3125 23.0039C13.8164 22.8633 14.0977 22.3477 13.957 21.8438C13.8164 21.3398 13.3008 21.0586 12.7969 21.1992C10.207 21.9258 6.90234 22.5586 4.6875 22.9102C4.03125 23.0156 3.39844 23.1094 2.78906 23.1914C3.03516 22.1953 3.33984 21.2109 3.70312 20.25C5.60156 19.9688 8.12109 19.5469 10.2188 19.0195C10.7227 18.8906 11.0273 18.3867 10.8984 17.8828C10.7695 17.3789 10.2656 17.0742 9.76172 17.2031C8.08594 17.6133 6.10547 17.9766 4.54688 18.2227C5.95312 15.2578 7.83984 12.5508 10.1953 10.1953ZM49.8047 49.8047C44.5195 55.0898 37.4766 58.0078 30 58.0078C25.5234 58.0078 21.2227 56.9648 17.3438 54.9961C19.4297 54.5039 21.2461 53.9883 22.7812 53.4492C23.2734 53.2734 23.5312 52.7461 23.3555 52.2539C23.1797 51.7617 22.6523 51.5039 22.1602 51.6797C20.2148 52.3594 17.7773 53.0039 14.918 53.6133C13.9336 52.9805 12.9844 52.2891 12.0703 51.5273C15.1406 50.8477 18.1289 50.0273 20.4727 49.1953C20.9648 49.0195 21.2109 48.4922 21.0469 48C20.8828 47.5078 20.3438 47.2617 19.8516 47.4258C17.25 48.3516 13.8164 49.2656 10.3711 49.9688C10.3125 49.9102 10.2539 49.8516 10.1953 49.8047C9.49219 49.1016 8.82422 48.3633 8.20312 47.5898C12.6914 46.7461 17.3203 45.5859 20.8359 44.4258C21.3281 44.2617 21.5977 43.7344 21.4336 43.2422C21.2695 42.75 20.7422 42.4805 20.25 42.6445C15.9609 44.0625 10.6875 45.2461 6.94922 45.9141C6.375 45.0938 5.85938 44.2383 5.37891 43.3711C9.31641 42.7031 18.0352 41.0391 24.5508 38.6016C25.0312 38.4141 25.2773 37.875 25.1016 37.3945C24.9141 36.9141 24.375 36.668 23.8945 36.8438C17.2031 39.3516 8.0625 41.0273 4.5 41.6133C4.11328 40.7812 3.77344 39.9258 3.48047 39.0469C8.35547 38.3086 23.6133 35.6367 40.5117 28.8984C48.8906 25.5469 54.1875 21.8906 56.2852 20.2969C57.4219 23.3672 58.0078 26.6367 58.0078 30C58.0078 37.4766 55.0898 44.5195 49.8047 49.8047Z" fill="#111111"/>
</svg>
