<svg width="201" height="39" viewBox="0 0 201 39" fill="none" xmlns="http://www.w3.org/2000/svg">
<path d="M110.44 15.567C109.872 14.6244 109.062 13.8512 108.093 13.3273C107.125 12.8035 106.035 12.5483 104.935 12.588C100.377 12.588 97.4345 16.03 97.4345 21.357C97.3152 23.7612 98.1149 26.1208 99.6715 27.957C100.35 28.6762 101.172 29.246 102.083 29.6301C102.994 30.0142 103.976 30.2042 104.965 30.188C106.056 30.2194 107.138 29.963 108.099 29.4445C109.061 28.926 109.869 28.1636 110.443 27.234V29.627C110.442 29.6472 110.446 29.6672 110.453 29.686C110.46 29.7048 110.472 29.7219 110.486 29.7364C110.5 29.7509 110.516 29.7625 110.535 29.7705C110.553 29.7785 110.573 29.7827 110.594 29.783H113.775C113.795 29.7827 113.815 29.7785 113.833 29.7705C113.852 29.7625 113.868 29.7509 113.882 29.7364C113.897 29.7219 113.908 29.7048 113.915 29.686C113.922 29.6672 113.926 29.6472 113.926 29.627V13.062C113.926 13.0213 113.91 12.9821 113.882 12.9529C113.854 12.9236 113.815 12.9068 113.775 12.906H110.597C110.556 12.9068 110.517 12.9236 110.489 12.9529C110.461 12.9821 110.445 13.0213 110.446 13.062L110.44 15.567ZM105.746 27.049C102.764 27.049 100.913 24.868 100.913 21.357C100.913 17.917 102.788 15.694 105.69 15.694C108.627 15.694 110.525 17.917 110.525 21.357C110.525 24.815 108.648 27.049 105.746 27.049Z" fill="#FF7900"/>
<path d="M180.269 12.559C179.178 12.5092 178.093 12.7505 177.126 13.2579C176.159 13.7654 175.344 14.5209 174.764 15.447V13.062C174.765 13.0418 174.761 13.0218 174.754 13.003C174.746 12.9842 174.735 12.9671 174.721 12.9526C174.707 12.9381 174.691 12.9265 174.672 12.9185C174.654 12.9105 174.634 12.9063 174.613 12.906H171.435C171.415 12.9063 171.395 12.9105 171.377 12.9185C171.358 12.9265 171.342 12.9381 171.327 12.9526C171.313 12.9671 171.302 12.9842 171.295 13.003C171.288 13.0218 171.284 13.0418 171.284 13.062V35.003C171.284 35.0232 171.288 35.0432 171.295 35.062C171.302 35.0808 171.313 35.0979 171.327 35.1124C171.342 35.1269 171.358 35.1385 171.377 35.1465C171.395 35.1545 171.415 35.1588 171.435 35.159H174.613C174.634 35.1588 174.654 35.1545 174.672 35.1465C174.691 35.1385 174.707 35.1269 174.721 35.1124C174.735 35.0979 174.746 35.0808 174.754 35.062C174.761 35.0432 174.765 35.0232 174.764 35.003V27.147C175.335 28.0769 176.144 28.8376 177.107 29.3504C178.07 29.8632 179.152 30.1096 180.242 30.064C183.716 30.064 187.773 27.775 187.773 21.324C187.773 14.851 183.731 12.555 180.273 12.555M184.296 21.324C184.296 24.764 182.396 26.987 179.462 26.987C176.562 26.987 174.684 24.764 174.684 21.324C174.684 17.813 176.536 15.632 179.518 15.632C182.418 15.632 184.296 17.866 184.296 21.324Z" fill="#FF7900"/>
<path d="M199.571 27.059C199.566 27.02 199.546 26.9847 199.515 26.9606C199.484 26.9364 199.445 26.9255 199.405 26.93C198.98 27.0058 198.549 27.0549 198.117 27.077C195.779 27.077 194.989 25.962 194.989 22.658V15.78H199.566C199.607 15.7792 199.646 15.7624 199.674 15.7331C199.702 15.7039 199.718 15.6647 199.717 15.624V13.062C199.718 13.0418 199.714 13.0218 199.707 13.003C199.699 12.9842 199.688 12.9671 199.674 12.9526C199.66 12.9381 199.644 12.9265 199.625 12.9185C199.607 12.9105 199.587 12.9063 199.566 12.906H194.989V9.321C194.99 9.29822 194.985 9.27563 194.976 9.25489C194.966 9.23415 194.952 9.21577 194.935 9.20111C194.917 9.18645 194.897 9.17586 194.875 9.17013C194.853 9.16441 194.83 9.16368 194.807 9.168L191.601 9.868C191.567 9.87599 191.536 9.89551 191.514 9.92334C191.493 9.95117 191.481 9.98563 191.481 10.021V12.898H189.31C189.29 12.8983 189.27 12.9025 189.252 12.9105C189.233 12.9185 189.217 12.9301 189.202 12.9446C189.188 12.9591 189.177 12.9762 189.17 12.995C189.163 13.0138 189.159 13.0338 189.159 13.054V15.621C189.159 15.6412 189.163 15.6612 189.17 15.68C189.177 15.6988 189.188 15.7159 189.202 15.7304C189.217 15.7449 189.233 15.7565 189.252 15.7645C189.27 15.7725 189.29 15.7767 189.31 15.777H191.481V23.031C191.481 28.007 193.265 30.036 197.641 30.036C198.395 30.0333 199.146 29.9525 199.883 29.795C199.922 29.7857 199.955 29.762 199.976 29.7289C199.998 29.6958 200.006 29.6558 199.998 29.617L199.571 27.059Z" fill="#FF7900"/>
<path d="M95.4064 27.059C95.4012 27.02 95.3809 26.9847 95.3498 26.9606C95.3188 26.9364 95.2795 26.9255 95.2404 26.93C94.8146 27.0058 94.3844 27.0549 93.9525 27.077C91.6145 27.077 90.8244 25.962 90.8244 22.658V15.78H95.4014C95.4421 15.7792 95.4808 15.7624 95.5091 15.7331C95.5374 15.7039 95.553 15.6647 95.5524 15.624V13.062C95.5528 13.0418 95.5492 13.0218 95.5419 13.003C95.5345 12.9842 95.5234 12.9671 95.5094 12.9526C95.4954 12.9381 95.4786 12.9265 95.4601 12.9185C95.4416 12.9105 95.4216 12.9063 95.4014 12.906H90.8275V9.321C90.8279 9.29822 90.8232 9.27563 90.8138 9.25489C90.8043 9.23415 90.7904 9.21577 90.7729 9.20111C90.7555 9.18645 90.735 9.17586 90.7129 9.17013C90.6909 9.16441 90.6678 9.16368 90.6454 9.168L87.4395 9.868C87.4052 9.87618 87.3747 9.89579 87.3531 9.9236C87.3315 9.95142 87.3199 9.98577 87.3204 10.021V12.898H85.1494C85.1293 12.8983 85.1093 12.9025 85.0908 12.9105C85.0723 12.9185 85.0555 12.9301 85.0415 12.9446C85.0275 12.9591 85.0164 12.9762 85.009 12.995C85.0016 13.0138 84.998 13.0338 84.9984 13.054V15.621C84.998 15.6412 85.0016 15.6612 85.009 15.68C85.0164 15.6988 85.0275 15.7159 85.0415 15.7304C85.0555 15.7449 85.0723 15.7565 85.0908 15.7645C85.1093 15.7725 85.1293 15.7767 85.1494 15.777H87.3204V23.031C87.3204 28.007 89.1045 30.036 93.4805 30.036C94.2341 30.0333 94.9854 29.9525 95.7224 29.795C95.7608 29.7857 95.794 29.762 95.8154 29.7289C95.8368 29.6958 95.8447 29.6558 95.8374 29.617L95.4064 27.059Z" fill="#18214D"/>
<path d="M65.2025 17.967H56.9505C56.9098 17.9678 56.8711 17.9846 56.8428 18.0139C56.8145 18.0431 56.799 18.0823 56.7995 18.123V21.032C56.799 21.0727 56.8145 21.1119 56.8428 21.1411C56.8711 21.1704 56.9098 21.1872 56.9505 21.188H61.6725C61.4545 24.895 59.3895 26.932 55.8405 26.932C52.0305 26.932 49.6635 23.998 49.6635 19.273C49.6635 14.621 52.0885 11.614 55.8405 11.614C58.2595 11.614 59.8455 12.475 60.8085 14.314C60.8229 14.3431 60.8464 14.3666 60.8755 14.3809C60.9047 14.3952 60.9377 14.3994 60.9695 14.393L64.2025 13.683C64.2249 13.6774 64.2458 13.6671 64.2638 13.6527C64.2818 13.6383 64.2965 13.6202 64.3069 13.5996C64.3172 13.5789 64.323 13.5563 64.3238 13.5333C64.3246 13.5102 64.3204 13.4873 64.3115 13.466C62.8835 10.018 60.0915 8.33701 55.7835 8.33701C49.9745 8.33701 46.0705 12.721 46.0705 19.247C46.0705 25.892 49.8505 30.185 55.6995 30.185C61.6735 30.185 65.3845 26.16 65.3845 19.685C65.3845 19.155 65.3725 18.464 65.3525 18.122C65.3515 18.0825 65.3352 18.0449 65.307 18.0171C65.2789 17.9893 65.241 17.9735 65.2015 17.973" fill="#18214D"/>
<path d="M165.07 25.074C165.039 25.0654 165.006 25.0673 164.977 25.0794C164.947 25.0916 164.922 25.1132 164.905 25.141C164.112 26.418 162.769 27.049 160.798 27.049C160.156 27.108 159.509 27.0299 158.9 26.8198C158.29 26.6098 157.732 26.2727 157.263 25.8308C156.793 25.3889 156.423 24.8522 156.177 24.2565C155.93 23.6607 155.813 23.0194 155.833 22.375H168.398C168.438 22.3743 168.476 22.3586 168.504 22.3312C168.533 22.3037 168.549 22.2665 168.551 22.227C168.82 19.6423 168.066 17.0551 166.451 15.019C165.708 14.2172 164.801 13.585 163.791 13.1654C162.781 12.7459 161.693 12.549 160.6 12.588C155.738 12.588 152.342 16.194 152.342 21.357C152.342 26.684 155.642 30.126 160.742 30.126C164.142 30.126 166.572 28.782 167.967 26.126C167.978 26.1052 167.985 26.0823 167.986 26.0589C167.987 26.0355 167.983 26.0121 167.974 25.9904C167.965 25.9687 167.952 25.9491 167.934 25.9332C167.917 25.9172 167.897 25.9052 167.874 25.898L165.07 25.074ZM160.658 15.521C161.22 15.4741 161.786 15.5395 162.322 15.7135C162.858 15.8875 163.355 16.1665 163.782 16.5342C164.209 16.902 164.559 17.3512 164.811 17.8556C165.063 18.3599 165.212 18.9094 165.249 19.472H155.935C155.986 18.9023 156.148 18.3481 156.413 17.8411C156.677 17.3341 157.039 16.8843 157.478 16.5173C157.917 16.1504 158.423 15.8735 158.969 15.7025C159.515 15.5316 160.089 15.4699 160.658 15.521Z" fill="#FF7900"/>
<path d="M80.5675 25.074C80.5364 25.0654 80.5034 25.0673 80.4736 25.0794C80.4437 25.0916 80.4187 25.1132 80.4025 25.141C79.6095 26.418 78.2665 27.049 76.2955 27.049C75.6535 27.108 75.0063 27.0299 74.3967 26.8198C73.7872 26.6098 73.2292 26.2727 72.7598 25.8308C72.2904 25.3889 71.9202 24.8522 71.6738 24.2565C71.4274 23.6607 71.3104 23.0194 71.3305 22.375H83.8955C83.935 22.3743 83.9727 22.3586 84.0011 22.3312C84.0295 22.3037 84.0465 22.2665 84.0485 22.227C84.3169 19.6423 83.5632 17.0551 81.9485 15.019C81.2052 14.2172 80.2978 13.585 79.2881 13.1654C78.2784 12.7459 77.1902 12.549 76.0975 12.588C71.2355 12.588 67.8395 16.194 67.8395 21.357C67.8395 26.684 71.1395 30.126 76.2395 30.126C79.6395 30.126 82.0695 28.782 83.4645 26.126C83.4754 26.1052 83.4816 26.0823 83.4827 26.0589C83.4839 26.0355 83.4799 26.0121 83.471 25.9904C83.4621 25.9687 83.4486 25.9491 83.4315 25.9332C83.4143 25.9172 83.3938 25.9052 83.3715 25.898L80.5675 25.074ZM76.1555 15.521C76.7174 15.474 77.283 15.5393 77.8193 15.7132C78.3557 15.8871 78.852 16.1661 79.2794 16.5339C79.7068 16.9017 80.0566 17.3509 80.3085 17.8554C80.5604 18.3598 80.7093 18.9094 80.7465 19.472H71.4375C71.4878 18.9023 71.6499 18.3481 71.9145 17.8411C72.1792 17.3341 72.5412 16.8843 72.9799 16.5173C73.4185 16.1504 73.9252 15.8735 74.471 15.7025C75.0168 15.5316 75.5909 15.4699 76.1605 15.521" fill="#18214D"/>
<path d="M129.22 24.056C129.185 24.047 129.148 24.0511 129.116 24.0677C129.084 24.0843 129.059 24.1122 129.045 24.146C128.726 25.0006 128.147 25.7342 127.391 26.2444C126.634 26.7545 125.738 27.0159 124.825 26.992C122.025 26.992 120.075 24.675 120.075 21.358C120.075 17.971 121.984 15.695 124.825 15.695C125.755 15.6317 126.68 15.8794 127.453 16.3991C128.227 16.9189 128.806 17.6812 129.098 18.566C129.112 18.6001 129.137 18.6282 129.169 18.645C129.202 18.6618 129.239 18.6661 129.274 18.657L131.974 17.903C132.014 17.8893 132.047 17.8608 132.065 17.8234C132.084 17.786 132.087 17.7428 132.074 17.703C130.926 14.269 128.502 12.594 124.674 12.594C119.986 12.594 116.584 16.282 116.584 21.363C116.584 26.444 119.984 30.132 124.674 30.132C126.296 30.2326 127.905 29.7828 129.239 28.8554C130.573 27.928 131.556 26.5773 132.026 25.022C132.039 24.9816 132.035 24.9378 132.015 24.9003C131.996 24.8628 131.962 24.8347 131.921 24.822L129.22 24.056Z" fill="#FF7900"/>
<path d="M147.095 24.056C147.06 24.047 147.023 24.0511 146.991 24.0677C146.959 24.0843 146.934 24.1122 146.92 24.146C146.601 25.0006 146.022 25.7342 145.266 26.2444C144.509 26.7545 143.613 27.0159 142.7 26.992C139.9 26.992 137.95 24.675 137.95 21.358C137.95 17.971 139.859 15.695 142.7 15.695C143.63 15.6317 144.555 15.8794 145.328 16.3991C146.102 16.9189 146.681 17.6812 146.973 18.566C146.987 18.6001 147.012 18.6282 147.044 18.645C147.077 18.6618 147.114 18.6661 147.149 18.657L149.849 17.903C149.889 17.8893 149.922 17.8608 149.94 17.8234C149.959 17.786 149.962 17.7428 149.949 17.703C148.801 14.269 146.377 12.594 142.549 12.594C137.861 12.594 134.459 16.282 134.459 21.363C134.459 26.444 137.859 30.132 142.549 30.132C144.171 30.2326 145.78 29.7828 147.114 28.8554C148.448 27.928 149.431 26.5773 149.901 25.022C149.914 24.9816 149.91 24.9378 149.89 24.9003C149.871 24.8628 149.837 24.8347 149.796 24.822L147.095 24.056Z" fill="#FF7900"/>
<path d="M35.0555 8.29201L37.9925 4.10601C38.1939 3.8285 38.3381 3.51369 38.4166 3.17992C38.4952 2.84614 38.5066 2.50007 38.4501 2.16186C38.3936 1.82365 38.2704 1.50005 38.0876 1.20992C37.9049 0.919787 37.6662 0.668912 37.3856 0.471905C37.1049 0.274898 36.7879 0.135696 36.4529 0.0624056C36.1179 -0.0108849 35.7717 -0.0167995 35.4344 0.0450063C35.0972 0.106812 34.7756 0.235103 34.4883 0.422408C34.2011 0.609714 33.954 0.85229 33.7615 1.13601L31.4745 4.40001C27.7173 1.29956 22.9237 -0.259748 18.0615 0.0369569C13.1993 0.333662 8.63087 2.46427 5.27861 5.99856C1.92635 9.53285 0.0400608 14.2075 0.000630806 19.0786C-0.0387992 23.9496 1.77157 28.6542 5.06618 32.2423C8.36078 35.8304 12.8942 38.0347 17.7509 38.4101C22.6076 38.7854 27.4259 37.3039 31.2327 34.2647C35.0396 31.2255 37.5513 26.855 38.2609 22.0357C38.9704 17.2164 37.8248 12.3074 35.0555 8.30001" fill="#FF7900"/>
<path d="M12.2785 15.678C12.0398 15.4332 11.7548 15.2381 11.4402 15.1042C11.1256 14.9702 10.7875 14.9 10.4456 14.8976C10.1036 14.8952 9.76459 14.9607 9.44813 15.0903C9.13167 15.2199 8.84407 15.4109 8.60197 15.6524C8.35987 15.8939 8.1681 16.1811 8.03775 16.4972C7.90741 16.8134 7.84108 17.1522 7.84262 17.4942C7.84415 17.8361 7.91352 18.1744 8.0467 18.4893C8.17988 18.8043 8.37422 19.0897 8.61848 19.329L17.4185 28.15C17.6586 28.3906 17.9439 28.5815 18.2579 28.7118C18.5719 28.842 18.9085 28.909 19.2485 28.909C19.3225 28.909 19.3965 28.909 19.4715 28.9C19.8475 28.8674 20.2119 28.7528 20.5389 28.5643C20.8659 28.3758 21.1477 28.118 21.3645 27.809L35.0555 8.292C34.0463 6.83396 32.8413 5.52167 31.4745 4.392L18.8995 22.318L12.2785 15.678Z" fill="white"/>
</svg>
