<?xml version="1.0" encoding="utf-8"?>
<!-- Generator: Adobe Illustrator 23.0.5, SVG Export Plug-In . SVG Version: 6.00 Build 0)  -->
<svg version="1.1" id="Layer_1" xmlns="http://www.w3.org/2000/svg" xmlns:xlink="http://www.w3.org/1999/xlink" x="0px" y="0px"
	 viewBox="0 0 511.6 511.6" style="enable-background:new 0 0 511.6 511.6;" xml:space="preserve">
<style type="text/css">
	.st0{fill:#0101DB;}
</style>
<g>
	<g>
		<g>
			<path class="st0" d="M436.6,339.7l-12.3-2.4c-5.8-1.1-10.3-4.9-12.5-10.4c-2.2-5.5-1.4-11.3,2.1-16.1l7.7-10.5
				c2.5-3.4,2.1-8.1-0.9-11.1l-16.7-16.7c-2.9-2.9-7.4-3.3-10.8-1l-10.4,7c-4.9,3.3-10.8,3.8-16.2,1.5c-5.4-2.3-9-7-9.9-12.9
				l-2-12.9c-0.6-4.2-4.2-7.2-8.4-7.2h-23.6c-4.1,0-7.6,2.9-8.4,6.9l-3.1,15.9c-1.1,5.6-4.8,10.2-10.1,12.4
				c-5.3,2.2-11.1,1.6-15.9-1.6l-13.4-9.1c-3.4-2.3-7.9-1.9-10.8,1l-16.7,16.7c-3,3-3.3,7.7-0.9,11.1l7.7,10.5
				c3.5,4.7,4.3,10.6,2.1,16.1c-2.1,5.5-6.7,9.3-12.5,10.4l-12.3,2.4c-4,0.8-6.9,4.3-6.9,8.4v23.6c0,4.2,3.1,7.8,7.2,8.4l12.9,2
				c5.8,0.9,10.5,4.5,12.9,9.9c2.4,5.4,1.8,11.3-1.5,16.2l-7,10.4c-2.3,3.4-1.9,7.9,1,10.8l16.7,16.7c3,3,7.7,3.3,11.1,0.9l10.5-7.7
				c4.7-3.5,10.6-4.3,16.1-2.1c5.5,2.1,9.3,6.7,10.4,12.5l2.4,12.3c0.8,4,4.3,6.9,8.4,6.9h23.6c4.2,0,7.8-3.1,8.4-7.2l1.4-9.1
				c0.9-5.9,4.7-10.7,10.2-13c5.5-2.3,11.6-1.5,16.4,2l7.4,5.4c3.4,2.5,8.1,2.1,11.1-0.9l16.7-16.7c2.9-2.9,3.3-7.4,1-10.8l-7-10.4
				c-3.3-4.9-3.8-10.8-1.5-16.2c2.3-5.4,7-9,12.9-9.9l12.9-2c4.2-0.6,7.2-4.2,7.2-8.4v-23.6C443.5,344,440.6,340.5,436.6,339.7z
				 M332.6,400.6c-23.5,0-42.7-19.1-42.7-42.7c0-23.5,19.1-42.7,42.7-42.7c23.5,0,42.7,19.1,42.7,42.7
				C375.3,381.5,356.1,400.6,332.6,400.6z"/>
			<path class="st0" d="M332.6,332.4c-14.1,0-25.6,11.5-25.6,25.6s11.5,25.6,25.6,25.6s25.6-11.5,25.6-25.6S346.7,332.4,332.6,332.4
				z"/>
			<path class="st0" d="M238.7,178.8c0-14.1-11.5-25.6-25.6-25.6s-25.6,11.5-25.6,25.6s11.5,25.6,25.6,25.6S238.7,192.9,238.7,178.8
				z"/>
			<path class="st0" d="M358.2,232.9v-54.1c0-4.7-3.8-8.5-8.5-8.5s-8.5,3.8-8.5,8.5V230h5.2C350.6,230,354.6,231.1,358.2,232.9z"/>
			<path class="st0" d="M280.2,463.5c-3.2,1.4-6.7,2.2-10.3,2.2c-5.7,0-11.1-1.9-15.5-5.4h-32.8v-51.6c3.9-0.2,7.6-0.7,11.4-1.2
				l6-8.8l-12.8-1.6c-4.4-0.7-8.4-2.5-11.7-5c-0.5,0-1,0.1-1.5,0.1c-70.6,0-128-57.4-128-128v-85.3c0-4.7-3.8-8.5-8.5-8.5
				S68,174,68,178.8v85.3c0,77.1,60.5,140.2,136.5,144.6v51.6h-42.7c-23.5,0-42.7,19.1-42.7,42.7c0,4.7,3.8,8.5,8.5,8.5h170.7
				c4.7,0,8.5-3.8,8.5-8.5C307,485.1,295.9,469.8,280.2,463.5z M137.8,494.5c3.5-9.9,13-17.1,24.1-17.1h102.4
				c11.1,0,20.6,7.1,24.1,17.1H137.8z"/>
			<path class="st0" d="M179,264.1h-59.7c0,48.9,37.6,89.1,85.3,93.4v-59.3c0-4.7,3.8-8.5,8.5-8.5c4.4,0,7.9,3.4,8.4,7.6
				c0.5,0.5,0.8,1,1.1,1.6c0.3-0.1,0.6-0.2,0.9-0.2c0.1,0,0.2,0.1,0.3,0.1c0.4-0.5,0.8-1.1,1.4-1.5c-0.6-7.3,1.7-14.7,7.2-20.2
				l13.4-13.4c-4-0.7-7-4-7-8.2c0-4.7,3.8-8.5,8.5-8.5h51.4c1.6-4.7,4.6-8.6,8.3-11.6v-22.6h-34.1c-4.7,0-8.5-3.8-8.5-8.5
				s3.8-8.5,8.5-8.5H307v-34.1h-34.1c-4.7,0-8.5-3.8-8.5-8.5c0-4.7,3.8-8.5,8.5-8.5H307v-34.1h-59.7c-4.7,0-8.5-3.8-8.5-8.5
				s3.8-8.5,8.5-8.5H307c0-48.9-37.6-89.1-85.3-93.4v59.3c0,4.7-3.8,8.5-8.5,8.5s-8.5-3.8-8.5-8.5V0c-47.8,4.3-85.3,44.6-85.3,93.4
				H179c4.7,0,8.5,3.8,8.5,8.5s-3.8,8.5-8.5,8.5h-59.7v34.1h34.1c4.7,0,8.5,3.8,8.5,8.5c0,4.7-3.8,8.5-8.5,8.5h-34.1v34.1h34.1
				c4.7,0,8.5,3.8,8.5,8.5s-3.8,8.5-8.5,8.5h-34.1V247H179c4.7,0,8.5,3.8,8.5,8.5C187.5,260.3,183.7,264.1,179,264.1z M170.4,178.8
				c0-23.5,19.1-42.7,42.7-42.7c23.5,0,42.7,19.1,42.7,42.7s-19.1,42.7-42.7,42.7C189.6,221.4,170.4,202.3,170.4,178.8z"/>
		</g>
	</g>
</g>
</svg>
