<svg width="60" height="60" viewBox="0 0 60 60" fill="none" xmlns="http://www.w3.org/2000/svg">
<path d="M58.3008 38.9883V22.207H59.0625C59.5781 22.207 60 21.7852 60 21.2695C60 20.7539 59.5781 20.332 59.0625 20.332H58.3008V18.0703C58.3008 17.5547 57.8789 17.1328 57.3633 17.1328C56.8477 17.1328 56.4258 17.5547 56.4258 18.0703V20.332H55.6641C55.1484 20.332 54.7266 20.7539 54.7266 21.2695C54.7266 21.7852 55.1484 22.207 55.6641 22.207H56.4258V38.9883C55.4648 39.3633 54.7852 40.3008 54.7852 41.3906V42.3164H52.1016C51.9844 42.3164 51.8555 42.3164 51.7383 42.3164V25.6992H52.2305C52.7461 25.6992 53.168 25.2774 53.168 24.7617C53.168 24.2461 52.7461 23.8242 52.2305 23.8242H51.7383V21.5742C51.7383 21.0586 51.3164 20.6367 50.8008 20.6367C50.2852 20.6367 49.8633 21.0586 49.8633 21.5742V23.8242H49.3594C48.8438 23.8242 48.4219 24.2461 48.4219 24.7617C48.4219 25.2774 48.8438 25.6992 49.3594 25.6992H49.8633V42.2461C46.9922 42.0703 44.1445 41.5547 41.3789 40.7109C40.8633 40.043 40.0547 39.6094 39.1523 39.6094H37.1719L32.9766 2.78906C32.8125 1.28906 31.5938 0.140625 30.1172 0.0351563V0.0234375C30.082 0.0234375 30.0352 0.0234375 30 0.0234375C29.9648 0.0234375 29.918 0.0234375 29.8828 0.0234375V0.0351563C28.4062 0.140625 27.1875 1.28906 27.0234 2.78906L22.8281 39.6211H20.8477C19.9453 39.6211 19.1367 40.0547 18.6211 40.7227C15.8555 41.5664 13.0078 42.082 10.1367 42.2578V25.6992H10.6406C11.1562 25.6992 11.5781 25.2774 11.5781 24.7617C11.5781 24.2461 11.1562 23.8242 10.6406 23.8242H10.1367V21.5742C10.1367 21.0586 9.71484 20.6367 9.19922 20.6367C8.68359 20.6367 8.26172 21.0586 8.26172 21.5742V23.8242H7.76953C7.25391 23.8242 6.83203 24.2461 6.83203 24.7617C6.83203 25.2774 7.25391 25.6992 7.76953 25.6992H8.26172V42.3164C8.14453 42.3164 8.01562 42.3164 7.89844 42.3164H5.21484V41.3906C5.21484 40.3008 4.53516 39.3633 3.57422 38.9883V22.207H4.33594C4.85156 22.207 5.27344 21.7852 5.27344 21.2695C5.27344 20.7539 4.85156 20.332 4.33594 20.332H3.57422V18.0703C3.57422 17.5547 3.15234 17.1328 2.63672 17.1328C2.12109 17.1328 1.69922 17.5547 1.69922 18.0703V20.332H0.9375C0.421875 20.332 0 20.7539 0 21.2695C0 21.7852 0.421875 22.207 0.9375 22.207H1.69922V38.9883C0.738281 39.3633 0.0585938 40.3008 0.0585938 41.3906V52.1719C0.0585938 53.5899 1.21875 54.75 2.63672 54.75C3.65625 54.75 4.54688 54.1524 4.96875 53.2852L10.6875 54.5274C14.0273 55.2539 17.4844 55.6406 20.9648 55.6875V59.0508C20.9648 59.5664 21.3867 59.9883 21.9023 59.9883C22.418 59.9883 22.8398 59.5664 22.8398 59.0508V56.1563L23.4492 56.4141C25.5 57.2813 27.6562 57.7383 29.8828 57.7617C29.918 57.7617 29.9648 57.7617 30 57.7617C30.0352 57.7617 30.082 57.7617 30.1172 57.7617C32.3438 57.7266 34.5117 57.2813 36.5508 56.4141L37.1602 56.1563V59.0508C37.1602 59.5664 37.582 59.9883 38.0977 59.9883C38.6133 59.9883 39.0352 59.5664 39.0352 59.0508V55.6641C42.6211 55.5938 46.1953 55.1602 49.6758 54.3516L54.9609 53.1211C55.3359 54.0703 56.2734 54.75 57.3516 54.75C58.7695 54.75 59.9297 53.5899 59.9297 52.1719V41.3906C59.9414 40.3008 59.2617 39.3633 58.3008 38.9883ZM40.0898 42.4336V48.2578C40.0898 49.3594 39.1992 50.25 38.0977 50.25C36.9961 50.25 36.1055 49.3594 36.1055 48.2578V42.4336C36.1055 41.918 36.5273 41.4961 37.043 41.4961H39.1523C39.668 41.4961 40.0898 41.918 40.0898 42.4336ZM30 1.89844C30.5742 1.95703 31.0547 2.40234 31.125 3L31.7109 8.14453C31.2188 7.96875 30.6445 7.82813 30.0117 7.82813C29.3672 7.82813 28.793 7.95703 28.3125 8.1211L28.8984 3C28.9453 2.41406 29.4258 1.95703 30 1.89844ZM19.9102 42.4336C19.9102 41.918 20.332 41.4961 20.8477 41.4961H22.957C23.4727 41.4961 23.8945 41.918 23.8945 42.4336V48.2578C23.8945 49.3594 23.0039 50.25 21.9023 50.25C20.8008 50.25 19.9102 49.3594 19.9102 48.2578V42.4336ZM3.33984 52.1719C3.33984 52.5586 3.02344 52.875 2.63672 52.875C2.25 52.875 1.93359 52.5586 1.93359 52.1719V41.3906C1.93359 41.0039 2.25 40.6875 2.63672 40.6875C3.02344 40.6875 3.33984 41.0039 3.33984 41.3906V52.1719ZM5.21484 51.4102V44.1914H7.89844C8.27344 44.1914 8.64844 44.1797 9.02344 44.168C9.08203 44.1797 9.14062 44.1914 9.19922 44.1914C9.28125 44.1914 9.36328 44.1797 9.43359 44.1563C12.3398 44.0391 15.2227 43.5938 18.0352 42.832V48.2461C18.0352 50.0508 19.2891 51.5742 20.9648 51.9961V53.7891C17.625 53.7539 14.2969 53.3789 11.0859 52.6758L5.21484 51.4102ZM35.8242 54.668C33.9727 55.4531 32.0156 55.8516 30 55.875C27.9844 55.8633 26.0273 55.4531 24.1758 54.668L22.8398 54.1055V52.0078C24.5156 51.5859 25.7695 50.0625 25.7695 48.2578V42.4336C25.7695 41.5195 25.3242 40.6992 24.6445 40.1836L28.043 10.3477C28.2539 10.1836 28.9922 9.70313 30 9.70313C30.9141 9.70313 31.6875 10.1719 31.957 10.3594L35.3555 40.1836C34.6758 40.6992 34.2305 41.5078 34.2305 42.4336V48.2578C34.2305 50.0625 35.4844 51.5859 37.1602 52.0078V54.1055L35.8242 54.668ZM49.2539 52.5235C45.9141 53.2969 42.4805 53.7305 39.0352 53.7891V52.0078C40.7109 51.5859 41.9648 50.0625 41.9648 48.2578V42.8438C44.7773 43.6055 47.6602 44.0508 50.5664 44.168C50.6367 44.1914 50.7188 44.2031 50.8008 44.2031C50.8594 44.2031 50.918 44.1914 50.9766 44.1797C51.3516 44.1914 51.7266 44.2031 52.1016 44.2031H54.7852V51.2461L49.2539 52.5235ZM58.0664 52.1719C58.0664 52.5586 57.75 52.875 57.3633 52.875C56.9766 52.875 56.6602 52.5586 56.6602 52.1719V41.3906C56.6602 41.0039 56.9766 40.6875 57.3633 40.6875C57.75 40.6875 58.0664 41.0039 58.0664 41.3906V52.1719Z" fill="white"/>
<path d="M32.3555 24.8672C32.2031 23.6953 31.1836 22.8047 30 22.8047C28.8047 22.8047 27.7969 23.6836 27.6445 24.8555L26.7891 30.9609C26.6016 32.2617 26.7656 33.6211 27.2461 34.875C27.5977 35.7891 28.4883 36.3984 29.4727 36.3984H30.0117H30.5508C31.5352 36.3984 32.4258 35.7891 32.7773 34.875C33.2578 33.6211 33.4102 32.2734 33.2344 30.9609L32.3555 24.8672ZM31.0078 34.1953C30.9375 34.3828 30.7383 34.5234 30.5391 34.5234H30H29.4609C29.2617 34.5234 29.0625 34.3945 28.9922 34.1953C28.6289 33.2344 28.5117 32.2031 28.6523 31.2187L29.5078 25.1016C29.543 24.8555 29.7539 24.6797 30.0117 24.6797C30.2578 24.6797 30.4805 24.8672 30.5156 25.1133L31.3711 31.2187C31.5 32.2148 31.3828 33.2461 31.0078 34.1953Z" fill="white"/>
<path d="M30 38.707C28.4531 38.707 27.1875 39.9726 27.1875 41.5195C27.1875 43.0664 28.4531 44.332 30 44.332C31.5469 44.332 32.8125 43.0664 32.8125 41.5195C32.8125 39.9726 31.5469 38.707 30 38.707ZM30 42.457C29.4844 42.457 29.0625 42.0351 29.0625 41.5195C29.0625 41.0039 29.4844 40.582 30 40.582C30.5156 40.582 30.9375 41.0039 30.9375 41.5195C30.9375 42.0351 30.5156 42.457 30 42.457Z" fill="white"/>
</svg>
