<svg width="60" height="60" viewBox="0 0 60 60" fill="none" xmlns="http://www.w3.org/2000/svg">
    <path d="M38.2852 27.5625C35.5781 27.6797 33.9961 28.1367 33.0117 29.0977C31.875 30.1875 31.875 31.5703 31.875 32.5781V32.6133C31.875 33.9727 32.0273 35.3789 33.1172 36.3984C34.0195 37.2422 35.3086 37.6172 37.3242 37.6172C37.6758 37.6172 38.0625 37.6055 38.4375 37.582C41.4492 37.418 43.5117 37.0078 44.4609 35.4844C45.0703 34.5117 45.082 33.3164 44.4961 31.9336C43.8633 30.3398 42.6563 27.3867 38.2852 27.5625ZM42.8789 34.4883C42.3281 35.3672 40.3711 35.6016 38.332 35.7188C37.9805 35.7422 37.6406 35.7539 37.3242 35.7539C35.8477 35.7539 34.9219 35.5313 34.4063 35.0508C33.9375 34.6055 33.75 33.9258 33.75 32.625V32.5781C33.75 31.6172 33.7852 30.9492 34.3125 30.4453C34.9219 29.8477 36.2109 29.5313 38.3672 29.4375C41.4258 29.3086 42.1758 31.1602 42.7852 32.6367V32.6484C43.2774 33.8438 42.9844 34.3242 42.8789 34.4883Z" fill="#111"/>
    <path d="M34.6875 56.3086C35.2031 56.3086 35.625 55.8867 35.625 55.3711V51.3867C35.625 50.8711 35.2031 50.4492 34.6875 50.4492C34.1719 50.4492 33.75 50.8711 33.75 51.3867V55.3711C33.75 55.8867 34.1719 56.3086 34.6875 56.3086Z" fill="#111"/>
    <path d="M30 56.3086C30.5156 56.3086 30.9375 55.8867 30.9375 55.3711V49.043C30.9375 48.5273 30.5156 48.1055 30 48.1055C29.4844 48.1055 29.0625 48.5273 29.0625 49.043V55.3711C29.0625 55.8867 29.4844 56.3086 30 56.3086Z" fill="#111"/>
    <path d="M21.7031 27.5859C17.3672 27.375 16.1367 30.3516 15.4687 31.9453L16.3359 32.3086L15.4687 31.9453C14.8945 33.3398 14.9062 34.5352 15.5039 35.4961C16.2187 36.6211 17.4726 37.3711 21.5273 37.5937C21.9375 37.6172 22.3008 37.6289 22.6523 37.6289C24.6797 37.6289 25.9687 37.2539 26.8594 36.4102C27.9492 35.3789 28.1016 33.9844 28.1016 32.625V32.5898C28.1016 31.582 28.1016 30.1992 26.9766 29.1211C25.9805 28.1602 24.3984 27.7031 21.7031 27.5859ZM26.2266 32.6367C26.2266 33.9375 26.0391 34.6172 25.5703 35.0625C25.0664 35.543 24.1406 35.7656 22.6523 35.7656C22.3477 35.7656 22.0195 35.7539 21.6445 35.7305C19.6172 35.6133 17.6601 35.3906 17.0976 34.5C17.0039 34.3477 16.7109 33.8789 17.2031 32.6602C17.8594 31.0898 18.5976 29.3086 21.6211 29.4609C23.7656 29.5547 25.0547 29.8711 25.6758 30.4805C26.1914 30.9727 26.2266 31.6172 26.2266 32.6016V32.6367Z" fill="#111"/>
    <path d="M25.3125 56.3086C25.8281 56.3086 26.25 55.8867 26.25 55.3711V51.3867C26.25 50.8711 25.8281 50.4492 25.3125 50.4492C24.7969 50.4492 24.375 50.8711 24.375 51.3867V55.3711C24.375 55.8867 24.7969 56.3086 25.3125 56.3086Z" fill="#111"/>
    <path d="M58.1133 49.582L57.9961 49.207C56.7188 45.1406 55.5704 41.5781 54.5626 38.5664C54.1172 36.4102 51.5274 24.1992 49.8868 21.9375C49.8633 21.9141 49.8516 21.8906 49.8282 21.8672C49.793 18.8086 49.3008 12.1055 45.9376 7.73437C42.2227 2.91797 36.211 2.08594 33.211 1.99219C33.129 1.86328 33.0469 1.73437 32.9532 1.61719L32.8594 1.5C32.168 0.621094 31.1251 0.117188 30.0001 0.117188C28.8751 0.117188 27.8321 0.621094 27.1524 1.5L27.0469 1.62891C26.9532 1.74609 26.8711 1.875 26.7891 2.00391C25.1368 2.05078 22.8633 2.32031 20.5313 3.16406C17.8243 4.14844 15.6563 5.69531 14.0743 7.74609C10.711 12.1055 10.2188 18.8086 10.1836 21.8672C10.1602 21.8906 10.1485 21.9141 10.1251 21.9375C8.43755 24.2578 5.75396 37.043 5.4024 38.7187C3.59771 44.0742 1.9688 49.3477 1.89849 49.582C1.73443 50.0859 1.93365 50.6367 2.37896 50.918L14.7188 58.9102C15.668 59.5195 16.7579 59.8477 17.8946 59.8711H17.9063C17.9532 59.8711 18.0001 59.8711 18.0469 59.8711H41.9063C41.9532 59.8711 42 59.8711 42.0469 59.8711H42.0586C43.1602 59.8359 44.25 59.5078 45.2227 58.9102L57.5977 50.9062L57.6329 50.8828C58.1016 50.5898 58.2774 50.0625 58.1133 49.582ZM16.3711 57.457C16.0196 57.1055 15.8321 56.6484 15.8321 56.1445C15.8321 55.6406 16.0313 55.1719 16.3829 54.8086C17.0977 54.082 18.293 54.082 19.0313 54.8203C19.3829 55.1719 19.5821 55.6289 19.5821 56.1328C19.5821 56.6367 19.3829 57.1055 19.0196 57.4687C18.7266 57.7734 18.3282 57.9609 17.8946 57.9961C17.6016 57.9844 17.3086 57.9375 17.0274 57.8789C16.793 57.7969 16.5586 57.6445 16.3711 57.457ZM20.3438 53.4844C19.8868 53.0391 19.3594 52.7227 18.7852 52.5586L26.4024 45.4922C27.0469 46.1836 27.9024 46.2891 28.3829 46.2891H30.0001H31.6172C32.5782 46.2891 33.1993 45.9141 33.5977 45.4922L41.2149 52.5586C40.6407 52.7344 40.1133 53.0391 39.6563 53.4844C38.9415 54.1875 38.5547 55.125 38.5547 56.1211C38.5547 56.7891 38.7305 57.4336 39.0586 58.0078H20.9532C21.2813 57.4453 21.4571 56.8008 21.4571 56.1211C21.4454 55.125 21.0586 54.1875 20.3438 53.4844ZM27.4102 42.7031C27.4102 41.2734 28.0782 39.6094 29.9766 39.6094H30.0001H30.0235C31.9219 39.6094 32.5899 41.2734 32.5899 42.7031C32.5899 44.4141 31.9571 44.4141 31.6172 44.4141H30.0001H28.3829C28.043 44.4141 27.4102 44.4141 27.4102 42.7031ZM40.9805 57.457C40.629 57.1055 40.4297 56.625 40.4297 56.1211C40.4297 55.6289 40.629 55.1602 40.9805 54.8086C41.7188 54.082 42.9024 54.0703 43.629 54.7969C44.3555 55.5352 44.3672 56.7187 43.629 57.4453C43.4532 57.6211 43.2305 57.7617 43.0196 57.8437C42.7266 57.9258 42.4219 57.9609 42.1172 57.9844C41.6836 57.9609 41.2852 57.7734 40.9805 57.457ZM44.7422 53.2734L34.3946 43.6641C34.4415 43.3711 34.4649 43.043 34.4649 42.6914C34.4649 39.7617 32.6368 37.7227 30.0235 37.7227H30.0001H29.9766C27.3633 37.7227 25.5352 39.7617 25.5352 42.6914C25.5352 43.043 25.5586 43.3711 25.6055 43.6641L15.2579 53.2734C14.7305 50.8828 13.8516 47.4023 12.6094 44.3789C10.9922 40.4531 9.17583 37.5586 8.25005 36.1992C9.12896 33.6914 9.97271 31.3945 10.6407 29.8945C11.4727 28.0078 12.6094 25.418 17.6368 25.418C20.0274 25.418 21.961 25.9453 23.6719 26.4141C25.1485 26.8125 26.543 27.1875 28.0079 27.1875H32.0157C33.4805 27.1875 34.8751 26.8125 36.3516 26.4141C38.0626 25.9453 39.9961 25.418 42.3868 25.418C47.4024 25.418 48.5508 28.0078 49.3829 29.8945C49.9805 31.2422 50.7774 33.375 51.7618 36.1875C50.836 37.5469 49.0079 40.4414 47.3907 44.3789C46.1485 47.4023 45.2696 50.8828 44.7422 53.2734ZM26.2735 19.5703V25.125C25.6055 24.9961 24.9141 24.8086 24.1641 24.5977C22.336 24.1055 20.2735 23.543 17.6368 23.543C13.5352 23.543 11.4376 25.1133 10.2305 26.7422C10.7696 24.9375 11.2618 23.5547 11.6251 23.0508C14.1446 19.6055 20.0157 19.5703 26.2735 19.5703ZM33.7266 19.5703C39.9727 19.5703 45.8555 19.6055 48.3633 23.0508C48.7266 23.5547 49.2188 24.9141 49.7461 26.6953C48.5391 25.0781 46.4415 23.543 42.3868 23.543C39.7501 23.543 37.6876 24.1055 35.8594 24.5977C35.0977 24.8086 34.4063 24.9961 33.7266 25.125V19.5703ZM44.4493 8.89453C46.9219 12.1055 47.6719 16.8516 47.8829 20.0273C44.4727 17.7187 39.2344 17.6953 33.7266 17.6953V3.90234C36.5508 4.07812 41.4258 4.98047 44.4493 8.89453ZM28.5118 2.78906L28.6055 2.66016C28.9454 2.23828 29.4493 1.99219 29.9883 1.99219C30.5274 1.99219 31.0313 2.23828 31.3829 2.67187L31.4766 2.78906C31.711 3.09375 31.8516 3.48047 31.8516 3.86719V25.3125H28.1485V3.86719C28.1485 3.48047 28.2774 3.09375 28.5118 2.78906ZM15.5508 8.89453C18.5743 4.98047 23.4493 4.07812 26.2735 3.90234V17.6953C20.7657 17.6953 15.5274 17.7187 12.1172 20.0273C12.3282 16.8398 13.0782 12.1055 15.5508 8.89453ZM7.47661 38.4492C8.41411 39.9492 9.70318 42.2344 10.8751 45.0937C12.6329 49.3711 13.6758 54.832 13.9219 56.1445L3.85552 49.6289C4.33599 48.082 5.87115 43.1836 7.47661 38.4492ZM46.0782 56.1562C46.3126 54.8437 47.3555 49.3828 49.1251 45.0937C50.3086 42.2227 51.5977 39.9375 52.5352 38.4375C52.6055 38.6484 52.6758 38.8594 52.7579 39.082C52.7579 39.1055 52.7696 39.1289 52.7696 39.1406H52.7813C53.7891 42.1289 54.9258 45.6562 56.1797 49.6406L46.0782 56.1562Z" fill="#111"/>
</svg>
    