<svg width="60" height="60" viewBox="0 0 60 60" fill="none" xmlns="http://www.w3.org/2000/svg">
<path d="M20.2734 35.4375C24.6211 35.4375 28.1602 31.8984 28.1602 27.5508C28.1602 23.2031 24.6211 19.6641 20.2734 19.6641C15.9258 19.6641 12.3867 23.2031 12.3867 27.5508C12.3867 31.8984 15.9258 35.4375 20.2734 35.4375ZM20.2734 21.5391C23.5898 21.5391 26.2852 24.2344 26.2852 27.5508C26.2852 30.8672 23.5898 33.5625 20.2734 33.5625C16.957 33.5625 14.2617 30.8672 14.2617 27.5508C14.2617 24.2344 16.957 21.5391 20.2734 21.5391Z" fill="white"/>
<path d="M40.9336 29.5547C43.5352 29.5547 45.6563 27.4336 45.6563 24.832C45.6563 22.2305 43.5352 20.1094 40.9336 20.1094C38.332 20.1094 36.2109 22.2305 36.2109 24.832C36.2109 27.4336 38.332 29.5547 40.9336 29.5547ZM40.9336 21.9844C42.5039 21.9844 43.7813 23.2617 43.7813 24.832C43.7813 26.4023 42.5039 27.6797 40.9336 27.6797C39.3633 27.6797 38.0859 26.4023 38.0859 24.832C38.0859 23.2617 39.3633 21.9844 40.9336 21.9844Z" fill="white"/>
<path d="M58.8047 13.3711C56.918 10.1016 52.125 8.88281 45.2812 9.90234C40.9102 6.5625 35.5898 4.74609 29.9883 4.74609C23.2383 4.74609 16.8984 7.37109 12.1289 12.1406C7.35938 16.9102 4.7461 23.25 4.7461 30C4.7461 31.0781 4.81641 32.1445 4.94531 33.1992C0.644534 38.6016 -0.691404 43.3711 1.19531 46.6406C2.64844 49.1602 5.82422 50.4609 10.3359 50.4609C11.6836 50.4609 13.1484 50.3438 14.7188 50.1094C19.0898 53.4492 24.4102 55.2539 30 55.2539C36.75 55.2539 43.0898 52.6289 47.8594 47.8594C52.6289 43.0898 55.2539 36.75 55.2539 30C55.2539 28.9336 55.1836 27.8672 55.0547 26.8242C57.1875 24.1406 58.6523 21.5273 59.2852 19.1602C59.8945 16.9102 59.7305 14.9648 58.8047 13.3711ZM30 6.62109C41.625 6.62109 51.2812 15.1406 53.0742 26.2617C49.125 30.9844 42.9961 35.9883 35.8359 40.125C28.7344 44.2266 21.457 47.0391 15.2461 48.1172C9.98438 43.8281 6.6211 37.3008 6.6211 30C6.6211 17.1094 17.1094 6.62109 30 6.62109ZM2.8125 45.7031C1.5 43.4297 2.4375 39.8438 5.39063 35.7187C6.44531 40.2773 8.75391 44.4727 12.1406 47.8594C12.3516 48.0703 12.5508 48.2695 12.7734 48.4688C7.71094 48.9492 4.125 47.9766 2.8125 45.7031ZM43.6172 48.9961C43.2656 48.3516 43.0547 47.6133 43.0547 46.9336C43.0547 44.6602 44.8945 42.8203 47.168 42.8203C47.8359 42.8203 48.5508 43.0195 49.1836 43.3477C47.6602 45.5273 45.7734 47.4375 43.6172 48.9961ZM53.3789 30C53.3789 34.2891 52.2188 38.3086 50.1914 41.7656C49.2539 41.2383 48.1875 40.9453 47.168 40.9453C43.8633 40.9453 41.1797 43.6289 41.1797 46.9336C41.1797 47.9883 41.4961 49.0898 42.0469 50.0273C38.5312 52.1484 34.4062 53.3789 30 53.3789C25.3242 53.3789 20.9766 51.9961 17.3203 49.6289C23.332 48.3281 30.1406 45.5859 36.7734 41.7539C43.5234 37.8633 49.2891 33.3047 53.3555 28.8281C53.3672 29.2148 53.3789 29.6133 53.3789 30ZM57.4805 18.668C57.0117 20.4023 56.0273 22.3125 54.6094 24.293C53.5547 19.7227 51.2578 15.5391 47.8594 12.1406C47.6602 11.9414 47.4492 11.7422 47.2383 11.543C52.3008 11.0625 55.875 12.0352 57.1875 14.3086C57.8438 15.457 57.9492 16.9219 57.4805 18.668Z" fill="white"/>
</svg>
