<svg xmlns="http://www.w3.org/2000/svg" xmlns:xlink="http://www.w3.org/1999/xlink" width="20" height="20" viewBox="0 0 20 20">
  <defs>
    <clipPath id="clip-Plus">
      <rect width="20" height="20"/>
    </clipPath>
  </defs>
  <g id="Plus" clip-path="url(#clip-Plus)">
    <path id="fi-rr-plus" d="M19.167,9.167H10.833V.833A.833.833,0,0,0,10,0h0a.833.833,0,0,0-.833.833V9.167H.833A.833.833,0,0,0,0,10H0a.833.833,0,0,0,.833.833H9.167v8.333A.833.833,0,0,0,10,20h0a.833.833,0,0,0,.833-.833V10.833h8.333A.833.833,0,0,0,20,10h0A.833.833,0,0,0,19.167,9.167Z" fill="#fff"/>
  </g>
</svg>
