<svg width="61" height="46" viewBox="0 0 61 46" fill="none" xmlns="http://www.w3.org/2000/svg">
<path fill-rule="evenodd" clip-rule="evenodd" d="M6.53454 0.189208C6.15484 0.244541 5.78824 1.63765 5.05503 2.3635C4.51821 2.88429 3.8472 2.85499 3.49041 3.50272C3.35621 3.74359 3.39876 4.15696 3.24492 4.55406C2.94378 5.34501 1.88652 5.41662 1.88652 6.27917C1.88652 7.21334 2.76702 7.3891 3.53296 8.05311C4.13197 8.58366 4.18762 8.95147 4.91428 9.21186C5.53292 9.42018 6.45271 8.73664 7.28084 8.98402C7.96168 9.18582 8.61306 9.32904 8.7669 10.0223C8.9011 10.6636 8.75708 11.6563 7.93222 11.5424C7.65399 11.5098 6.44943 11.1095 4.96992 11.2625C3.17945 11.4675 1.14349 12.0469 0.94382 14.0292C0.832529 15.1358 2.21057 16.4411 3.53951 16.1774C4.4593 15.9984 4.02395 14.9177 4.52476 14.3937C5.17941 13.7232 8.9011 16.7372 12.3577 16.7372C13.811 16.7372 14.8944 16.3727 15.9713 15.253C16.0728 15.1684 16.1939 14.9828 16.351 14.9731C16.4983 14.9861 16.7536 15.1293 16.8387 15.1879C19.621 17.411 21.729 21.8768 31.9612 21.9289C33.4014 21.9386 35.038 22.6189 36.3768 23.833C37.5715 24.9299 38.2687 26.6387 38.9463 28.3736C39.9708 30.971 41.8071 33.5034 44.5861 36.3156C44.7367 36.4654 47.028 38.236 47.2113 38.3695C47.2407 38.389 47.4077 38.7894 47.3488 39.0107C47.28 40.7 47.0345 45.6052 50.7137 45.8265C51.6105 45.8721 51.3781 45.2439 51.3781 44.811C51.3781 43.9549 51.221 43.1054 51.6727 42.2331C52.2914 41.0288 50.3602 40.4754 50.4158 37.8747C50.4551 35.9348 48.8152 36.2668 47.987 34.7891C47.5091 33.933 47.0836 33.4773 47.1131 32.4292C47.2997 26.5346 45.8529 22.6612 45.1295 21.7108C44.5665 20.9914 44.0984 20.7083 44.6156 20.3763C47.6859 18.3582 48.3798 16.4834 48.3798 16.4834C50.0132 12.6686 51.4796 9.18257 53.5058 7.64624C53.9149 7.33051 54.9591 6.55259 55.6006 6.24988C57.4926 5.36454 58.4844 4.82748 59.0343 4.29692C59.9017 3.45715 60.5891 1.70275 59.7577 0.638387C58.7233 -0.673348 56.9328 0.368228 56.144 0.833683C50.5009 4.16347 49.6695 10.0386 47.7121 13.414C46.1507 16.1123 43.6172 18.0913 41.3489 18.254C39.6501 18.381 37.817 18.0392 35.9938 17.2418C31.5553 15.3083 29.1298 12.8086 28.5537 12.3691C27.3623 11.4545 18.1088 2.41883 10.6097 2.05103C10.6097 2.05103 9.68014 0.198972 9.44446 0.166423C8.89456 0.0980696 8.33483 1.2731 7.93222 1.4098C7.55252 1.53349 6.91751 0.137129 6.53454 0.198972V0.189208Z" fill="#2C3B4E"/>
</svg>
