<svg width="52" height="52" viewBox="0 0 52 52" fill="none" xmlns="http://www.w3.org/2000/svg">
<g clip-path="url(#clip0)">
<path d="M18.6828 35.7826L27.8028 29.1432L25.9733 27.8112L16.5135 34.698V50.6984H18.6828V35.7826Z" fill="#9BA6FA"/>
<path d="M22.1132 40.2544C21.8696 39.9905 21.4582 39.9735 21.1939 40.2172C20.9295 40.4612 20.913 40.8726 21.1566 41.1369L24.1553 44.3886C24.3981 44.6522 24.8086 44.6695 25.073 44.4272L30.7515 39.2262C30.9244 39.0694 31.0006 38.8322 30.9506 38.6042C30.9006 38.3763 30.732 38.1924 30.5092 38.1225C30.2863 38.0526 30.0435 38.1077 29.8724 38.2666L24.6718 43.0295L22.1132 40.2544Z" fill="#6979F8"/>
<path d="M26.6241 2.32851V0.650762C26.6241 0.291487 26.333 0 25.9733 0C25.614 0 25.3226 0.291487 25.3226 0.650762V2.32851C14.9756 2.67295 6.66357 11.1964 6.66357 21.626C6.66357 21.9539 6.90761 22.2306 7.23299 22.2717C7.55837 22.3127 7.86342 22.1051 7.94476 21.7878C8.06551 21.3163 8.54511 19.8444 9.1446 19.2805C9.15392 19.2716 9.16325 19.2623 9.17214 19.2526C9.90637 18.4908 10.9215 18.0646 11.979 18.0735C13.042 18.0726 14.0601 18.5031 14.7998 19.2665C14.8045 19.2712 14.8091 19.2754 14.8138 19.2801C15.5755 20.0143 16.0018 21.029 15.9933 22.0869C15.9933 22.4462 16.2843 22.7377 16.644 22.7377C17.0033 22.7377 17.2948 22.4462 17.2948 22.0869C17.2859 21.029 17.7125 20.0143 18.4739 19.2801C18.4836 19.2712 18.493 19.2619 18.5018 19.2521C19.2361 18.4904 20.2508 18.0642 21.3087 18.073C22.3717 18.0722 23.3893 18.5027 24.1295 19.2661C24.1342 19.2708 24.1388 19.275 24.1435 19.2797C24.9052 20.0139 25.3315 21.029 25.3226 22.0874V27.2803C25.3226 27.6396 25.614 27.9311 25.9733 27.9311C26.333 27.9311 26.6241 27.6396 26.6241 27.2803V22.0874C26.6156 21.0294 27.0418 20.0147 27.8036 19.2805C27.8129 19.2716 27.8222 19.2623 27.8316 19.2526C28.5654 18.4908 29.5805 18.0646 30.6384 18.0735C31.701 18.0726 32.7186 18.5031 33.4584 19.2665C33.463 19.2712 33.4677 19.2754 33.4723 19.2801C34.2341 20.0143 34.6603 21.029 34.6518 22.0869C34.6518 22.4462 34.9429 22.7377 35.3026 22.7377C35.6619 22.7377 35.9534 22.4462 35.9534 22.0869C35.9445 21.029 36.3707 20.0143 37.1325 19.2801C37.1422 19.2712 37.1511 19.2619 37.1604 19.2521C37.8942 18.4908 38.9093 18.0642 39.9672 18.073C41.0298 18.0722 42.0475 18.5027 42.7872 19.2661C42.7919 19.2708 42.7965 19.275 42.8012 19.2797C43.4007 19.8436 43.8705 21.2811 44.001 21.7865C44.0828 22.1043 44.3879 22.3115 44.7128 22.2704C45.0382 22.2293 45.2822 21.9526 45.2822 21.6251C45.2831 11.1964 36.9715 2.67295 26.6241 2.32851V2.32851ZM11.979 16.7719C10.5859 16.7639 9.2484 17.3193 8.27057 18.312C9.72419 10.6194 15.9708 4.7409 23.7372 3.75671C17.2482 8.75563 15.8196 14.5837 15.6755 18.3035C14.6973 17.3198 13.3665 16.7681 11.979 16.7719ZM25.0425 18.3395C24.0579 17.3354 22.7102 16.7707 21.3036 16.7719C19.8974 16.7732 18.5506 17.3405 17.5676 18.3463C17.3414 18.5628 17.1368 18.8005 16.9559 19.056C16.8322 11.3286 22.359 6.2979 25.5484 4.04566C26.6648 9.53392 26.0051 16.0059 25.5946 18.9598C25.4285 18.7378 25.2438 18.5302 25.0425 18.3395ZM34.3722 18.3395C32.3623 16.2911 29.078 16.2441 27.0101 18.2336C27.4092 15.0612 27.8506 9.49155 26.949 4.44052C30.1817 6.85588 35.1141 11.7514 34.9976 19.0594C34.8128 18.7996 34.6035 18.5586 34.3722 18.3395V18.3395ZM39.9677 16.7719C38.5852 16.7647 37.2574 17.3121 36.2813 18.2917C36.2063 16.3483 35.8085 14.4307 35.1039 12.6178C33.7994 9.24667 31.4887 6.27418 28.2209 3.7584C35.983 4.74768 42.2242 10.6257 43.6765 18.315C42.697 17.324 41.3607 16.7681 39.9677 16.7719Z" fill="#1AE5BE"/>
<path d="M40.6548 36.8901L36.7346 34.0358V29.0682C36.7346 28.7089 36.4435 28.4175 36.0838 28.4175C35.7245 28.4175 35.4331 28.7089 35.4331 29.0682V33.088L26.3563 26.48C26.1279 26.3139 25.8186 26.3139 25.5903 26.48L11.2917 36.8901C11.0994 37.0252 10.9952 37.2536 11.0189 37.4874C11.0422 37.7213 11.1901 37.9243 11.4053 38.0183C11.6205 38.1128 11.8701 38.0836 12.0577 37.942L15.212 35.6457V51.3492C15.212 51.7084 15.5035 51.9999 15.8628 51.9999H36.0838C36.4435 51.9999 36.7346 51.7084 36.7346 51.3492V35.6457L39.8888 37.942C40.0765 38.0836 40.3261 38.1128 40.5413 38.0183C40.7565 37.9243 40.9044 37.7213 40.9281 37.4874C40.9514 37.2536 40.8472 37.0252 40.6548 36.8901V36.8901ZM35.4331 50.6984H16.5135V34.6984L25.9733 27.8112L35.4331 34.6984V50.6984Z" fill="#6979F8"/>
</g>
<defs>
<clipPath id="clip0">
<rect width="52" height="52" fill="white"/>
</clipPath>
</defs>
</svg>
