<?xml version="1.0" standalone="no"?>
<!DOCTYPE svg PUBLIC "-//W3C//DTD SVG 20010904//EN"
 "http://www.w3.org/TR/2001/REC-SVG-20010904/DTD/svg10.dtd">
<svg version="1.0" xmlns="http://www.w3.org/2000/svg"
 width="537.000000pt" height="537.000000pt" viewBox="0 0 537.000000 537.000000"
 preserveAspectRatio="xMidYMid meet">
<metadata>
Created by potrace 1.14, written by Peter Selinger 2001-2017
</metadata>
<g transform="translate(0.000000,537.000000) scale(0.100000,-0.100000)"
fill="#000000" stroke="none">
<path d="M4915 5288 c-49 -33 -103 -66 -120 -74 -41 -20 -159 -90 -236 -141
-35 -23 -84 -54 -109 -69 -25 -15 -94 -60 -155 -99 -137 -89 -189 -118 -240
-135 -22 -7 -49 -18 -60 -25 -12 -7 -52 -25 -90 -40 -39 -14 -86 -35 -106 -46
-20 -10 -39 -16 -42 -12 -17 17 -28 -136 -15 -206 4 -25 13 -89 19 -141 6 -52
17 -126 25 -165 8 -38 17 -92 20 -120 19 -195 72 -345 155 -439 16 -19 29 -37
29 -41 0 -20 52 -73 82 -85 18 -7 43 -22 56 -33 23 -21 30 -47 12 -47 -5 0
-10 -5 -10 -11 0 -12 -240 -254 -288 -290 -18 -13 -48 -36 -65 -52 -18 -15
-52 -44 -76 -65 -24 -20 -63 -54 -86 -74 l-42 -38 -34 68 c-21 42 -57 90 -97
131 l-64 63 -63 -4 c-51 -3 -74 -11 -131 -46 -83 -51 -143 -105 -156 -144 -14
-39 -28 -32 -58 28 -29 57 -105 114 -152 114 -38 0 -92 -29 -150 -82 -41 -37
-50 -53 -64 -108 -19 -76 -19 -76 -38 -61 -11 10 -21 9 -43 -2 -45 -24 -124
-108 -144 -154 -18 -42 -32 -53 -44 -33 -9 14 -58 12 -78 -2 -9 -7 -30 -42
-47 -77 -32 -64 -37 -125 -16 -173 7 -16 3 -17 -38 -12 -44 6 -49 5 -77 -27
-42 -47 -56 -100 -40 -152 30 -99 26 -117 -28 -117 -35 0 -91 -39 -106 -72 -9
-24 -9 -46 2 -110 8 -45 21 -97 28 -115 13 -32 13 -36 -5 -56 -11 -11 -20 -24
-20 -28 0 -11 -33 -42 -124 -119 -43 -36 -115 -101 -160 -145 -223 -216 -293
-278 -310 -268 -63 38 -115 76 -136 98 -14 14 -62 45 -108 68 l-83 41 -62 -13
c-34 -7 -69 -14 -78 -16 -56 -11 -94 -28 -169 -74 -107 -67 -131 -72 -164 -36
-16 18 -31 25 -42 21 -16 -6 -16 -14 1 -76 11 -38 31 -173 29 -195 -1 -11 -4
-63 -8 -115 -7 -117 -9 -123 -39 -185 -13 -27 -32 -72 -42 -100 -25 -70 -56
-137 -71 -156 -12 -13 -12 -18 0 -34 12 -17 17 -16 76 30 34 26 74 68 89 92
14 25 37 57 49 71 49 55 90 128 96 172 12 75 36 190 58 278 17 69 24 82 42 83
45 4 93 -3 152 -21 58 -18 120 -28 214 -36 37 -3 110 -14 130 -19 3 -1 19 -5
35 -9 17 -5 47 -14 69 -21 34 -11 45 -10 95 9 44 17 75 40 149 114 52 51 96
91 99 88 6 -6 60 19 83 39 8 7 26 16 38 20 13 4 43 19 65 34 56 37 83 37 114
1 13 -16 42 -35 64 -41 21 -7 39 -14 39 -15 0 -2 -10 -29 -21 -60 -34 -91 -11
-200 52 -246 46 -34 238 -19 280 23 27 27 43 16 83 -61 38 -71 72 -106 113
-116 37 -10 112 25 166 74 l48 45 42 -41 c51 -50 143 -87 194 -77 18 3 46 17
62 31 l30 25 7 -27 c10 -38 61 -111 92 -132 30 -20 96 -21 141 -2 20 8 47 36
76 81 25 38 49 69 54 69 5 0 15 -8 22 -17 8 -9 42 -29 77 -45 53 -24 71 -28
123 -23 70 5 105 20 131 55 24 33 35 111 26 180 -18 141 -19 170 -9 170 6 0
11 -4 11 -10 0 -19 60 -77 100 -95 31 -14 46 -16 63 -8 21 10 25 6 50 -46 15
-31 48 -83 73 -116 25 -33 68 -107 96 -165 29 -58 64 -120 80 -138 15 -18 34
-45 42 -61 14 -26 13 -30 -3 -48 -10 -10 -37 -48 -61 -84 -23 -35 -51 -76 -61
-91 -11 -15 -19 -31 -19 -37 0 -5 -3 -11 -8 -13 -15 -6 -112 -143 -118 -166
-10 -37 8 -45 52 -25 36 16 172 99 184 113 5 5 31 21 75 44 28 15 104 92 145
146 19 25 46 55 59 67 l25 22 -17 55 c-14 43 -32 69 -81 118 -74 74 -122 151
-166 267 -18 46 -51 115 -73 154 -22 40 -46 85 -53 102 -7 16 -22 44 -34 60
-11 17 -20 40 -20 53 0 13 -6 22 -15 22 -20 0 -19 5 7 35 12 14 35 56 51 93
25 58 29 79 29 158 0 78 -4 99 -26 142 -14 28 -26 53 -26 56 0 3 27 26 60 52
77 60 104 103 103 163 -1 105 -38 216 -84 256 -17 14 -34 25 -39 25 -5 0 -20
4 -34 9 -21 9 -23 14 -17 38 12 44 -25 165 -65 209 -31 34 -78 53 -135 55 -30
1 -60 0 -68 -2 -9 -3 -17 8 -23 29 -5 18 -25 54 -44 79 l-35 46 59 61 c33 34
77 84 98 111 74 95 138 162 227 240 42 37 65 81 73 140 7 49 -2 80 -48 158
-16 27 -39 91 -52 142 -13 52 -33 111 -44 132 -78 149 -123 259 -154 373 -26
99 -27 104 -34 180 l-5 65 53 59 c153 172 345 343 436 390 18 10 60 38 94 64
33 26 70 54 82 62 22 15 106 84 129 106 32 30 68 79 136 179 41 61 82 118 93
128 14 14 16 22 8 37 -6 11 -12 20 -13 19 -1 0 -42 -28 -92 -61z m-11 -70
c-24 -40 -99 -147 -118 -168 -24 -27 -115 -106 -150 -129 -12 -8 -23 -18 -26
-21 -3 -3 -21 -17 -40 -30 -19 -14 -42 -32 -52 -42 -9 -9 -37 -25 -62 -37 -25
-11 -46 -25 -46 -30 0 -6 -7 -11 -15 -11 -8 0 -15 -4 -15 -8 0 -5 -9 -13 -19
-18 -37 -17 -234 -201 -337 -315 -46 -49 -83 -108 -79 -122 2 -7 6 -37 9 -67
6 -59 8 -72 25 -135 33 -130 50 -178 95 -270 78 -157 104 -226 122 -321 6 -31
64 -154 73 -154 13 0 18 -80 8 -120 -4 -14 -21 -39 -39 -56 -95 -88 -182 -180
-219 -230 -22 -30 -70 -87 -107 -125 l-66 -70 -24 31 c-39 50 -75 64 -133 50
-27 -7 -55 -20 -62 -30 -9 -13 -17 -16 -27 -10 -12 8 -4 19 36 57 69 64 146
131 219 189 113 90 365 355 365 383 0 6 -15 18 -32 26 -94 45 -134 74 -153
106 -11 20 -37 58 -57 85 -66 85 -93 156 -121 314 -3 19 -9 58 -12 87 -3 28
-11 82 -19 120 -8 37 -17 97 -21 133 -9 95 -16 143 -22 153 -7 12 -6 154 2
166 6 10 108 61 121 61 4 0 34 13 68 29 33 15 81 36 106 45 45 17 161 85 300
176 41 27 100 64 130 82 30 17 78 48 105 68 28 20 64 43 80 52 63 32 151 82
175 99 29 21 44 24 34 7z m-1495 -2203 c28 -26 58 -67 70 -95 12 -28 25 -50
29 -50 15 0 31 -66 26 -110 -2 -25 -2 -57 2 -72 6 -31 31 -37 41 -11 16 40
114 112 156 113 21 0 77 -57 77 -80 0 -21 -38 -81 -66 -105 -26 -22 -31 -51
-11 -58 18 -6 37 3 37 19 0 8 4 14 10 14 5 0 20 18 32 40 13 22 26 40 29 40 4
0 21 -16 38 -35 44 -51 43 -96 -4 -139 -38 -35 -44 -53 -20 -62 9 -4 35 12 66
40 48 43 55 46 106 46 73 0 107 -22 139 -87 31 -62 40 -118 25 -157 -9 -23
-16 -27 -36 -24 -18 4 -26 0 -30 -13 -4 -11 -3 -23 0 -29 8 -13 75 -13 75 0 0
6 15 10 34 10 53 0 89 -37 114 -117 30 -93 29 -160 -2 -202 -30 -40 -92 -93
-128 -109 -27 -11 -40 -52 -17 -52 5 0 22 -25 36 -55 20 -44 25 -73 26 -134 0
-69 -4 -87 -33 -147 -29 -61 -61 -99 -82 -99 -17 0 -28 -24 -34 -75 -6 -58
-35 -130 -60 -150 -20 -17 -86 30 -126 89 -32 47 -75 91 -89 91 -17 0 -20 -22
-10 -73 19 -95 21 -111 27 -217 7 -118 -2 -155 -41 -170 -49 -19 -118 -19
-169 1 -71 27 -84 42 -79 92 9 85 -47 102 -62 19 -10 -54 -123 -197 -157 -198
-14 -1 -33 -4 -43 -8 -25 -9 -87 58 -110 118 -18 46 -18 51 -2 95 11 33 13 49
5 58 -22 26 -37 12 -56 -49 -16 -56 -23 -65 -61 -87 l-43 -24 -56 19 c-74 25
-108 61 -123 132 -13 62 -30 89 -49 77 -8 -5 -10 -23 -6 -54 l6 -47 -62 -51
c-69 -55 -99 -73 -122 -73 -25 0 -80 55 -110 110 -28 52 -28 65 1 65 21 0 38
28 30 49 -11 27 -37 30 -65 7 -56 -45 -147 -82 -215 -86 -96 -5 -118 3 -145
55 -17 33 -22 57 -19 90 6 74 31 114 87 140 51 24 70 48 48 62 -19 12 -30 10
-73 -12 -33 -17 -44 -18 -77 -8 -35 10 -88 57 -88 78 0 10 72 80 82 80 14 0 9
30 -6 36 -15 6 -63 -21 -83 -46 -20 -25 -36 3 -41 70 l-4 60 35 15 c20 8 46
14 59 12 33 -3 35 28 2 45 -35 17 -68 97 -90 216 -13 75 -14 98 -5 116 24 45
101 72 128 45 15 -15 43 -4 43 17 0 10 -12 46 -26 82 -33 82 -29 132 13 174
26 25 35 29 66 23 19 -4 44 -15 56 -26 11 -10 25 -19 30 -19 22 0 20 22 -9 78
-16 33 -30 74 -30 92 0 39 57 150 78 150 8 0 29 -16 48 -37 28 -31 36 -34 49
-23 11 9 14 22 10 41 -9 40 18 89 81 149 61 58 74 57 94 -6 10 -30 15 -33 38
-28 42 10 47 20 27 58 -18 32 -18 37 -2 102 15 61 23 74 64 111 27 24 65 48
85 55 34 10 41 9 78 -16 46 -30 76 -73 91 -131 14 -57 30 -95 39 -95 5 0 15
21 24 46 17 52 63 134 74 134 4 0 24 15 45 34 55 48 135 86 179 86 32 0 47 -8
87 -45z m-1441 -1397 c-7 -4 -18 -8 -25 -8 -34 0 -45 -121 -18 -186 8 -20 13
-40 10 -44 -8 -14 -113 -80 -126 -80 -7 0 -27 -11 -45 -25 -18 -14 -39 -25
-48 -25 -8 0 -18 -4 -21 -10 -3 -5 -14 -10 -23 -10 -8 0 -52 -38 -96 -84 -71
-74 -113 -104 -166 -118 -8 -3 -39 2 -70 10 -70 17 -143 31 -200 38 -25 3 -56
7 -70 11 -14 3 -47 7 -73 9 -27 2 -56 8 -65 13 -25 12 -143 31 -172 27 -14 -2
-33 -4 -42 -5 -9 0 -21 -15 -27 -33 -14 -44 -68 -284 -74 -328 -3 -19 -6 -36
-7 -37 -2 -2 -4 -7 -5 -13 -1 -5 -4 -12 -5 -15 -1 -3 -3 -8 -4 -12 -5 -21 -38
-73 -54 -85 -10 -7 -35 -41 -56 -75 -20 -35 -42 -65 -47 -69 -11 -7 -2 40 14
71 6 11 12 25 13 32 1 7 17 43 34 80 27 56 33 83 37 153 2 47 5 106 7 131 1
26 -2 83 -9 127 l-11 80 24 -2 c29 -3 86 23 153 70 27 19 49 32 49 29 0 -3 10
1 23 10 13 8 64 23 114 33 l90 19 79 -38 c43 -20 89 -48 101 -62 12 -14 43
-38 70 -53 53 -31 75 -49 67 -56 -2 -3 2 -11 10 -17 12 -10 23 -4 62 31 110
101 203 188 285 268 48 47 112 105 143 130 30 25 81 72 113 106 52 55 59 59
66 41 5 -13 3 -23 -5 -29z m2243 -451 c34 -55 159 -295 159 -305 -1 -4 7 -27
16 -52 29 -77 93 -175 150 -231 55 -53 84 -95 84 -122 0 -8 -9 -24 -20 -37
-11 -13 -34 -42 -52 -64 -18 -23 -55 -61 -82 -84 -56 -48 -258 -184 -264 -177
-2 2 6 14 18 27 12 13 47 61 77 108 31 47 72 109 91 138 19 28 47 62 63 75
l28 22 -38 60 c-21 33 -48 69 -60 79 -11 11 -21 24 -21 29 0 20 -93 194 -130
242 -58 77 -86 126 -98 174 -9 38 -8 50 9 82 10 21 19 49 19 63 0 35 19 25 51
-27z"/>
<path d="M2833 1951 c4 -128 3 -230 -2 -244 -6 -16 -6 -28 1 -35 6 -6 11 -79
12 -186 1 -112 6 -180 13 -187 12 -12 25 3 30 31 1 8 5 30 8 48 3 18 2 38 -2
45 -7 10 -14 147 -8 147 1 0 16 -21 33 -47 17 -27 39 -57 50 -69 11 -11 26
-32 33 -46 24 -46 101 -128 120 -128 32 0 26 25 -16 66 -23 22 -51 54 -61 70
-11 16 -47 69 -81 118 -35 49 -68 106 -75 128 -11 36 -10 42 8 54 52 38 135
105 194 158 138 125 150 138 145 147 -11 17 -42 9 -67 -18 -36 -38 -167 -156
-187 -167 -9 -6 -27 -20 -41 -33 -53 -50 -60 -49 -61 9 -5 229 -9 334 -13 345
-3 7 -13 13 -22 13 -16 0 -17 -18 -11 -219z"/>
<path d="M2467 2103 c-39 -29 -89 -121 -101 -181 -5 -30 -1 -39 40 -80 25 -26
53 -60 61 -77 9 -16 30 -50 47 -75 62 -88 72 -144 34 -180 -38 -35 -109 -25
-161 24 -25 23 -57 26 -57 5 0 -18 72 -77 102 -83 89 -18 154 7 174 66 16 47
1 102 -49 178 -23 36 -49 78 -57 94 -8 16 -34 47 -56 68 -36 34 -41 44 -34 67
26 91 73 151 116 151 28 0 34 34 8 44 -24 9 -28 8 -67 -21z"/>
<path d="M3678 2086 c-100 -41 -140 -81 -203 -206 -56 -111 -88 -326 -54 -367
25 -29 128 -72 168 -69 39 3 110 34 146 64 56 46 145 196 127 214 -4 4 -67 10
-140 12 -122 3 -132 2 -132 -14 0 -20 40 -28 158 -34 28 -2 55 -6 58 -9 4 -3
-15 -36 -42 -72 -39 -53 -61 -72 -111 -97 l-62 -30 -50 17 c-103 34 -112 62
-75 226 24 110 71 206 127 262 41 41 107 76 143 77 28 0 39 27 16 39 -13 7
-34 3 -74 -13z"/>
</g>
</svg>
