<svg width="110" height="17" viewBox="0 0 110 17" fill="none" xmlns="http://www.w3.org/2000/svg">
<path d="M8.02571 11.853C8.15468 12.2248 8.16447 12.6276 8.0537 13.0052C7.91932 13.5141 7.57216 14.051 6.55309 14.051C5.59001 14.051 4.99928 13.4918 4.99928 12.6528V11.1539H0.841797V12.334C0.841797 15.7876 3.54906 16.8335 6.4719 16.8335C9.27155 16.8335 11.5645 15.8687 11.9396 13.2988C12.0825 12.4557 12.073 11.5938 11.9116 10.754C11.2705 7.51297 5.39683 6.55939 4.94049 4.75289C4.87997 4.4896 4.87047 4.21716 4.91249 3.9503C5.01888 3.46932 5.36883 2.90444 6.33471 2.90444C7.2474 2.90444 7.78213 3.46373 7.78213 4.30266V5.26743H11.6429V4.16843C11.6429 0.793127 8.61363 0.28418 6.4131 0.28418C3.65265 0.28418 1.42693 1.19582 0.995779 3.71261C0.871428 4.40432 0.880929 5.11342 1.02377 5.80155C1.72649 8.93356 7.22221 9.8452 8.02571 11.853ZM58.3047 11.8279C58.4319 12.1884 58.4417 12.58 58.3327 12.9464C58.1983 13.4554 57.8511 13.9643 56.832 13.9643C55.8662 13.9643 55.3034 13.4051 55.3034 12.5661V11.1036H51.1935V12.2809C51.1935 15.6814 53.8728 16.7272 56.7705 16.7272C59.5337 16.7272 61.8098 15.7904 62.1878 13.2177C62.33 12.3839 62.3205 11.5313 62.1598 10.7009C61.5159 7.4878 55.6982 6.5482 55.2698 4.75568C55.2084 4.49251 55.1989 4.21991 55.2418 3.9531C55.3482 3.47212 55.6702 2.93521 56.6417 2.93521C56.8305 2.91947 57.0205 2.94466 57.1987 3.00905C57.3769 3.07344 57.539 3.1755 57.6741 3.30826C57.8091 3.44103 57.9139 3.60136 57.9811 3.77829C58.0484 3.95522 58.0766 4.14459 58.0639 4.33342V5.27302H61.8882V4.20199C61.8882 0.879823 58.8842 0.345702 56.7145 0.345702C54.0072 0.345702 51.7815 1.25734 51.3531 3.74617C51.2283 4.42846 51.2378 5.12849 51.3811 5.80714C52.0782 8.93356 57.518 9.8452 58.3047 11.8279ZM90.3971 13.1925L90.1815 0.765167H94.0142V16.0337H88.4849L84.599 3.20366L84.8146 16.0337H81.007V0.765167H86.7463L90.3971 13.1925ZM20.8677 1.88933L18.7232 16.1931H14.5405L17.3821 0.765167H24.2721L27.1165 16.1931H22.9619L20.8677 1.88933ZM43.4441 1.88933L40.762 16.1931H36.8425L34.1885 1.88933L34.0821 16.1931H30.2269L30.5489 0.765167H36.8481L38.8079 12.8178L40.7676 0.765167H47.0669L47.4168 16.1931H43.5505L43.4441 1.88933ZM71.2727 13.8916C72.3449 13.8916 72.6949 13.1394 72.7481 12.7731C72.7715 12.5773 72.7808 12.3801 72.7761 12.183V0.728812H76.6956V11.8195C76.6956 12.1131 76.6676 12.6752 76.6676 12.8374C76.3876 15.7317 74.1199 16.6685 71.2783 16.6685C68.4366 16.6685 66.1577 15.7317 65.8889 12.8374C65.8506 12.4995 65.8412 12.159 65.8609 11.8195V0.728812H69.7804V12.1662C69.7753 12.3633 69.7837 12.5604 69.8056 12.7563C69.8868 13.159 70.2088 13.8749 71.2811 13.8749L71.2727 13.8916ZM103.553 13.7294C104.673 13.7294 105.053 13.0052 105.134 12.6109C105.171 12.4164 105.18 12.2179 105.162 12.0208V9.78368H103.581V7.54653H109.048V11.6992C109.052 12.0393 109.034 12.3793 108.995 12.7171C108.715 15.5304 106.288 16.5203 103.553 16.5203C100.817 16.5203 98.3789 15.5304 98.1101 12.7171C98.0707 12.3793 98.0529 12.0393 98.0569 11.6992V5.15837C98.0569 4.87872 98.0849 4.40893 98.1101 4.14047C98.4573 1.24895 100.789 0.337313 103.553 0.337313C106.316 0.337313 108.698 1.24616 108.978 4.14047C109.011 4.47872 109.021 4.81883 109.006 5.15837V5.66732H105.087V4.80881C105.087 4.61092 105.069 4.41341 105.034 4.21877C104.952 3.87201 104.659 3.10019 103.48 3.10019C102.36 3.10019 102.032 3.84964 101.951 4.21877C101.906 4.45735 101.888 4.70038 101.898 4.94304V12.0152C101.894 12.2123 101.903 12.4095 101.926 12.6053C102.032 13.0331 102.436 13.7239 103.564 13.7239L103.553 13.7294Z" fill="#2C3B4E"/>
</svg>
