<svg width="69" height="22" viewBox="0 0 69 22" fill="none" xmlns="http://www.w3.org/2000/svg">
<path d="M0.257324 17.9766L4.00619 15.1364C4.99361 16.4139 6.39375 17.0748 8.00136 17.0748C9.93515 17.0748 10.6807 16.0039 10.6807 14.9728C10.6807 14.2346 10.3079 13.6986 9.3194 12.8742L7.95809 11.6397C6.52023 10.4064 5.48843 9.08462 5.48843 7.15062C5.48843 3.23841 8.78242 0.316406 13.2713 0.316406C16.5697 0.316406 18.7498 1.7973 19.6551 3.23951L15.9495 6.07973C14.9621 5.00885 13.9303 4.59884 12.7776 4.59884C11.2133 4.59884 10.5542 5.50506 10.5542 6.45106C10.5542 7.19372 11.0091 7.81039 11.8334 8.46684L13.1892 9.70129C14.5505 10.8584 15.7465 12.0928 15.7465 14.1915C15.7454 18.2662 12.7388 21.3141 7.67296 21.3141C4.17039 21.439 1.69962 19.915 0.257324 17.9766ZM49.6028 17.9766L53.3506 15.1364C54.3391 16.4139 55.7392 17.0748 57.3469 17.0748C59.284 17.0748 60.0251 16.0039 60.0251 14.9728C60.0251 14.2346 59.6523 13.6986 58.6649 12.8742L57.3036 11.6397C55.8646 10.4053 54.8328 9.08462 54.8328 7.15062C54.8328 3.23841 58.1279 0.316406 62.6168 0.316406C65.9152 0.316406 68.0953 1.7973 69.0006 3.23951L65.2562 6.07973C64.2688 5.00885 63.237 4.59884 62.0831 4.59884C60.5188 4.59884 59.8609 5.50506 59.8609 6.45106C59.8609 7.19372 60.3113 7.81039 61.1345 8.46684L62.4959 9.70129C63.8516 10.8584 65.0476 12.0928 65.0476 14.1915C65.0476 18.2662 62.041 21.3141 56.9741 21.3141C53.5159 21.439 50.963 19.915 49.6028 17.9766ZM52.6927 5.09063H47.912L43.422 20.9859H38.4816L42.9716 5.09063H37.8237L39.0574 0.808195H53.9663L52.6927 5.09063ZM34.5252 0.894396V21.0677H30.2039V16.8681H23.404L21.0985 21.0677H15.8674L27.8119 0.894396H34.5252ZM30.2039 12.5459V4.7193L25.8359 12.5459H30.2039Z" fill="#2C3B4E"/>
</svg>
