<svg width="24" height="24" viewBox="0 0 24 24" fill="none" xmlns="http://www.w3.org/2000/svg">
<path d="M16.9962 13.1536L12.4378 14.3389C12.1561 14.4122 11.8605 14.4136 11.5781 14.3432L6.76928 13.1441C6.00667 12.954 5.4715 12.269 5.4715 11.483V6.22929C5.4715 2.98328 8.10292 0.351852 11.3489 0.351852H12.4C15.646 0.351852 18.2774 2.98328 18.2774 6.22929V11.4967C18.2773 12.2763 17.7507 12.9575 16.9962 13.1536Z" fill="#FD9727"/>
<path d="M12.3999 0.351883H11.3489C11.0849 0.351883 10.8251 0.369602 10.5703 0.403305C13.4481 0.784259 15.669 3.24731 15.669 6.22928V11.4967C15.669 12.2763 15.1423 12.9575 14.3879 13.1536L10.6771 14.1185L11.5781 14.3432C11.8605 14.4136 12.1561 14.4121 12.4378 14.3389L16.9962 13.1536C17.7507 12.9574 18.2773 12.2763 18.2773 11.4967V6.22928C18.2773 2.98327 15.6459 0.351883 12.3999 0.351883Z" fill="#FF6D3A"/>
<path d="M5.74352 9.89847H6.99072V6.85356H5.74352C5.37709 6.85356 5.08005 7.15061 5.08005 7.51703V9.23505C5.08005 9.60143 5.37709 9.89847 5.74352 9.89847Z" fill="#3D6687"/>
<path d="M18.2565 9.89847H17.0093V6.85356H18.2565C18.6229 6.85356 18.92 7.15061 18.92 7.51703V9.23505C18.92 9.60143 18.623 9.89847 18.2565 9.89847Z" fill="#3D6687"/>
<path d="M14.8161 15.2114C14.38 15.1237 14.0661 14.7406 14.0661 14.2956V12.1902H12H9.93392V14.2956C9.93392 14.7406 9.62009 15.1237 9.18392 15.2114L8.68048 15.3126V18.6937H12H15.3195V15.3126L14.8161 15.2114Z" fill="#FED9A8"/>
<path d="M19.1179 16.3466L14.9738 15.0545C14.8451 15.0144 14.7049 15.0469 14.607 15.1397L12 17.6103L9.39303 15.1397C9.2952 15.047 9.15495 15.0144 9.02628 15.0545L4.88214 16.3466C3.04483 16.8876 1.78333 18.5741 1.78333 20.4894V23.2502C1.78333 23.47 1.9615 23.6481 2.18125 23.6481H21.8188C22.0386 23.6481 22.2167 23.4699 22.2167 23.2502V20.4894C22.2167 18.5741 20.9552 16.8876 19.1179 16.3466Z" fill="#FF4C4C"/>
<path d="M19.1179 16.3466L14.9738 15.0545C14.8452 15.0144 14.7049 15.0469 14.607 15.1397L14.1197 15.6015L16.5096 16.3466C18.3469 16.8875 19.6084 18.5741 19.6084 20.4894V23.6481H21.8188C22.0386 23.6481 22.2167 23.4699 22.2167 23.2502V20.4894C22.2167 18.5741 20.9552 16.8876 19.1179 16.3466Z" fill="#EF2929"/>
<path d="M12 13.9408C9.15569 13.9408 6.84995 11.635 6.84995 8.79072V7.34336C6.84995 4.49907 9.15573 2.19328 12 2.19328C14.8443 2.19328 17.1501 4.49907 17.1501 7.34336V8.79072C17.1501 11.6351 14.8443 13.9408 12 13.9408Z" fill="#FED9A8"/>
<path d="M14.5418 2.86351V8.79073C14.5418 11.1844 12.9087 13.1966 10.6959 13.7741C11.1124 13.8828 11.5494 13.9408 12.0001 13.9408C14.8443 13.9408 17.1501 11.635 17.1501 8.79073V7.34341C17.1501 5.4235 16.0994 3.74917 14.5418 2.86351Z" fill="#F4C892"/>
<path d="M9.39302 15.14L12 17.6106L10.3922 18.1584C9.99827 18.2926 9.56229 18.1759 9.28802 17.8629L7.29935 15.5934L9.02623 15.055C9.1549 15.0148 9.2952 15.0474 9.39302 15.14Z" fill="#D4145A"/>
<path d="M14.607 15.1397L12 17.6103L13.4572 18.1067C13.9423 18.2719 14.4792 18.1283 14.8169 17.7428L16.7007 15.5929L14.9738 15.0545C14.8452 15.0144 14.7049 15.047 14.607 15.1397Z" fill="#D4145A"/>
<path d="M8.92371 21.6046H6.27292C6.12574 21.6046 6.00644 21.4853 6.00644 21.3381V20.164C6.00644 20.0168 6.12574 19.8975 6.27292 19.8975H8.92371C9.0709 19.8975 9.1902 20.0168 9.1902 20.164V21.3381C9.1902 21.4853 9.0709 21.6046 8.92371 21.6046Z" fill="#EDA558"/>
<path d="M18.2773 7.31487C18.2773 7.31487 16.0553 7.13852 15.295 5.09467C15.295 5.09467 9.92373 9.395 5.47144 7.31487V6.22929C5.47144 2.98328 8.10286 0.351852 11.3489 0.351852H12.3999C15.6459 0.351852 18.2773 2.98328 18.2773 6.22929V7.31487H18.2773Z" fill="#FD9727"/>
<path d="M12.3999 0.351883H11.3489C11.0849 0.351883 10.8251 0.369602 10.5703 0.403305C13.3067 0.765556 15.4489 3.01022 15.6529 5.79352C16.5899 7.18069 18.2773 7.31485 18.2773 7.31485V6.22927C18.2773 2.98326 15.6459 0.351883 12.3999 0.351883Z" fill="#FF6D3A"/>
<path d="M12.9182 13.3005C12.5929 13.3005 12.3053 13.0665 12.2485 12.7351C12.1849 12.3648 12.4337 12.013 12.804 11.9496L13.9511 11.7528C14.3215 11.6892 14.6731 11.938 14.7366 12.3084C14.8001 12.6787 14.5514 13.0304 14.1811 13.0938L13.034 13.2906C12.9951 13.2973 12.9564 13.3005 12.9182 13.3005Z" fill="#D4145A"/>
<path d="M21.6381 17.6918C21.0299 16.8787 20.1939 16.2973 19.2201 16.0099L16.806 15.2572C16.8058 15.2571 16.8056 15.257 16.8055 15.257L15.0787 14.7186C14.9243 14.6704 14.761 14.6763 14.614 14.7302C14.4917 14.6213 14.4181 14.4635 14.4181 14.2956V14.1876L17.0848 13.4943C17.9942 13.2578 18.6293 12.4364 18.6293 11.4968V10.1792C19.0052 10.0303 19.2719 9.66335 19.2719 9.23505V7.51703C19.2719 7.08615 19.0076 6.72104 18.6293 6.57334V6.22932C18.6293 5.96425 18.6124 5.69739 18.5792 5.43601C18.5547 5.24326 18.3784 5.10728 18.1858 5.13132C17.993 5.15584 17.8566 5.33199 17.8811 5.52479C17.9106 5.75682 17.9255 5.99382 17.9255 6.22932V6.85464V6.89603C17.7372 6.85075 17.4946 6.77673 17.2345 6.65804C17.2221 6.65242 17.2099 6.64665 17.1976 6.64094C16.7007 6.40754 16.1472 6.00957 15.7882 5.33509C15.7828 5.32487 15.7774 5.3146 15.7721 5.30429C15.7586 5.27828 15.7455 5.25193 15.7326 5.22507C15.7226 5.20426 15.7131 5.18312 15.7036 5.16198C15.6948 5.14243 15.6858 5.12312 15.6774 5.1032C15.6591 5.06007 15.6414 5.01643 15.6249 4.97195C15.5855 4.8661 15.4977 4.78562 15.3889 4.75552C15.3617 4.74798 15.334 4.74381 15.3063 4.74292C15.3011 4.74273 15.2959 4.74324 15.2907 4.74334C15.2821 4.74343 15.2735 4.74329 15.265 4.74404C15.2044 4.74924 15.1458 4.77067 15.0949 4.80596C15.0883 4.81056 15.0815 4.81487 15.0752 4.81993C15.0739 4.82092 15.069 4.82485 15.0611 4.83099C15.0602 4.8317 15.0596 4.83217 15.0586 4.83292C15.0557 4.83521 15.0518 4.83821 15.0481 4.84107C15.0454 4.84313 15.0428 4.84515 15.0397 4.84749C15.0365 4.84993 15.0327 4.85284 15.0292 4.8556C15.024 4.85959 15.0186 4.86371 15.0125 4.86831C15.0098 4.87037 15.0068 4.87267 15.0039 4.87487C14.9959 4.88092 14.9874 4.88738 14.978 4.89442C14.9761 4.89587 14.9741 4.89737 14.9721 4.89887C14.321 5.38726 10.698 7.95709 7.22105 7.46664C7.21491 7.46575 7.20877 7.46481 7.20263 7.46392C7.14675 7.45586 7.09087 7.44686 7.03509 7.4372C7.01916 7.43444 7.00327 7.43158 6.98733 7.42867C6.93914 7.41991 6.89105 7.41048 6.84295 7.4005C6.82748 7.39726 6.81192 7.39417 6.7965 7.3908C6.74095 7.3788 6.6855 7.3659 6.63009 7.35217C6.60759 7.34659 6.58528 7.3405 6.56287 7.33464C6.52856 7.32569 6.49434 7.31645 6.46012 7.30684C6.43308 7.29925 6.40603 7.29151 6.37912 7.2835C6.34172 7.27234 6.30436 7.26062 6.26705 7.24867C6.23358 7.23794 6.20025 7.22687 6.16701 7.21553C6.12951 7.20273 6.09206 7.18966 6.0547 7.17597C6.03244 7.16781 6.01022 7.15956 5.98809 7.15112C5.9377 7.13195 5.8874 7.11222 5.83725 7.0914C5.83265 7.08948 5.82797 7.08775 5.82337 7.08583V6.91234V6.22928C5.82337 3.18249 8.30213 0.703736 11.3489 0.703736H12.3999C14.6095 0.703736 16.6023 2.01507 17.4769 4.04457C17.5538 4.22307 17.7609 4.30543 17.9393 4.22846C18.1178 4.15154 18.2001 3.94454 18.1232 3.76609C17.1373 1.4783 14.8908 0 12.3999 0H11.349C7.9141 0 5.11968 2.79441 5.11968 6.22928V6.71734C4.87668 6.90719 4.72823 7.20086 4.72823 7.51698V9.235C4.72823 9.55975 4.8817 9.84916 5.11968 10.0352V11.483C5.11968 12.4324 5.76304 13.2559 6.68419 13.4855L9.5821 14.2082V14.2956C9.5821 14.4636 9.50846 14.6214 9.38616 14.7303C9.23907 14.6765 9.07589 14.6705 8.92158 14.7186L7.1947 15.257C7.19452 15.2571 7.19433 15.2572 7.19414 15.2572L4.78017 16.0099C3.44179 16.4048 2.35879 17.367 1.80857 18.6502C1.76629 18.7489 1.72686 18.8503 1.69147 18.9518C1.62744 19.1353 1.72424 19.3359 1.90776 19.4C2.09127 19.4639 2.29185 19.3672 2.35593 19.1837C2.38602 19.0975 2.41949 19.0113 2.4554 18.9275C2.92302 17.8368 3.84379 17.0192 4.98154 16.6842C4.98332 16.6836 4.98511 16.6831 4.98689 16.6826L7.18561 15.997L9.02339 18.0944C9.29077 18.3996 9.66915 18.5654 10.059 18.5654C10.2081 18.5653 10.3589 18.5411 10.5057 18.4911L12.0001 17.982L13.3438 18.4398C13.516 18.4984 13.6927 18.5269 13.8676 18.5269C14.3245 18.5268 14.7682 18.3324 15.0816 17.9747L16.8145 15.997L19.0132 16.6826C19.015 16.6831 19.0168 16.6836 19.0186 16.6842C19.8466 16.928 20.5576 17.4222 21.0746 18.1134C21.5916 18.8046 21.8649 19.6261 21.8649 20.4893V23.2501C21.8649 23.2755 21.8442 23.2962 21.8188 23.2962H19.9181V20.0795C19.9181 19.8851 19.7606 19.7276 19.5662 19.7276C19.3719 19.7276 19.2143 19.8851 19.2143 20.0795V23.2962H4.78579V20.0795C4.78579 19.8851 4.62824 19.7276 4.4339 19.7276C4.23956 19.7276 4.08201 19.8851 4.08201 20.0795V23.2962H2.18127C2.15587 23.2962 2.13524 23.2755 2.13524 23.2501V20.7161C2.13524 20.5217 1.97769 20.3642 1.78335 20.3642C1.589 20.3642 1.43146 20.5217 1.43146 20.7161V23.2501C1.43146 23.6636 1.76783 24 2.18127 24H21.8188C22.2323 24 22.5687 23.6636 22.5687 23.2501V20.4893C22.5687 19.4731 22.2469 18.5057 21.6381 17.6918ZM17.9255 11.4967C17.9255 12.1159 17.5069 12.6573 16.9077 12.8131L15.2178 13.2525C15.2395 13.2368 15.2603 13.2202 15.2816 13.2042C15.2905 13.1977 15.2992 13.191 15.3079 13.1844C15.3681 13.139 15.4273 13.0924 15.4854 13.0447C15.493 13.0385 15.5006 13.0323 15.5081 13.026C15.5702 12.9745 15.6311 12.9217 15.6908 12.8676C15.6936 12.865 15.6966 12.8625 15.6994 12.8599C15.7948 12.773 15.887 12.683 15.976 12.5899C15.9827 12.583 15.9892 12.5759 15.9957 12.569C16.0398 12.5224 16.0831 12.4753 16.1255 12.4273L16.5227 12.3592C17.1769 12.247 17.6981 11.8011 17.9254 11.2135V11.4967H17.9255V11.4967ZM17.4518 9.53313C17.4675 9.41725 17.4796 9.30025 17.488 9.18217C17.4888 9.17022 17.4895 9.15827 17.4903 9.14636C17.4932 9.10024 17.4956 9.05402 17.4974 9.00761C17.498 8.99266 17.4986 8.97775 17.4991 8.9628C17.5008 8.90561 17.502 8.84833 17.502 8.79072V7.51187C17.9125 7.63525 18.2114 7.66253 18.2487 7.66553C18.2489 7.66553 18.2494 7.66558 18.2495 7.66558C18.2496 7.66558 18.2498 7.66558 18.2499 7.66558C18.3476 7.67327 18.4441 7.6398 18.5161 7.57323C18.5255 7.56451 18.5344 7.55528 18.5427 7.54572C18.5457 7.54234 18.5482 7.53869 18.551 7.53522C18.5562 7.5288 18.5614 7.52237 18.5661 7.51562C18.5667 7.51473 18.5675 7.51389 18.5681 7.513C18.5681 7.51426 18.5681 7.51562 18.5681 7.51694V9.23496C18.5681 9.40169 18.4364 9.53786 18.2715 9.54574C18.2696 9.54578 18.2677 9.54555 18.2657 9.54564C18.2602 9.54583 18.2547 9.54611 18.2486 9.54653H17.45C17.4507 9.54213 17.4512 9.53763 17.4518 9.53313ZM16.8934 11.3043C16.918 11.2567 16.9419 11.2086 16.9651 11.1602C16.9768 11.1357 16.9882 11.111 16.9996 11.0864C17.0213 11.0395 17.0424 10.9922 17.0628 10.9446C17.0733 10.92 17.0834 10.8952 17.0936 10.8704C17.1112 10.8273 17.1283 10.7838 17.145 10.7402C17.1526 10.7201 17.1605 10.7 17.168 10.6798C17.1884 10.6242 17.2076 10.5681 17.2262 10.5117C17.2331 10.4906 17.24 10.4696 17.2467 10.4485C17.2651 10.3905 17.2826 10.332 17.2991 10.2732C17.3012 10.2656 17.3037 10.2581 17.3058 10.2505H17.3459V10.5483C17.3459 10.9692 17.1167 11.3411 16.7673 11.5367C16.7762 11.5212 16.7843 11.5053 16.7931 11.4898C16.8134 11.4539 16.8333 11.4179 16.8528 11.3816C16.8664 11.3558 16.8801 11.3302 16.8934 11.3043ZM5.61595 9.51888C5.61567 9.51874 5.61534 9.51869 5.61501 9.51855C5.5072 9.46947 5.43197 9.361 5.43197 9.23505V7.68348C5.44228 7.68803 5.45273 7.69234 5.46304 7.69684C5.47922 7.70392 5.49548 7.71086 5.51175 7.71775C5.54672 7.73266 5.58183 7.74723 5.61712 7.76148C5.63254 7.76772 5.64787 7.774 5.66334 7.78009C5.71078 7.79884 5.75845 7.81708 5.80645 7.8347C5.80842 7.83541 5.81034 7.8362 5.81231 7.83691C6.03529 7.91842 6.26428 7.9878 6.49805 8.04447V8.79077C6.49805 8.84838 6.49922 8.90566 6.501 8.96285C6.50147 8.9778 6.50212 8.99271 6.50269 9.00766C6.50451 9.05406 6.50686 9.10028 6.50981 9.14641C6.51056 9.15836 6.51122 9.17031 6.51211 9.18222C6.52045 9.30025 6.53259 9.41725 6.5483 9.53317C6.54891 9.53767 6.54928 9.54217 6.54994 9.54663H5.7435C5.69976 9.54658 5.65683 9.53725 5.61595 9.51888ZM6.85444 12.8027C6.2474 12.6514 5.82342 12.1086 5.82342 11.483V10.2504H6.69441C6.69647 10.2579 6.699 10.2652 6.70106 10.2727C6.71794 10.333 6.73584 10.3928 6.75473 10.4522C6.76134 10.4731 6.76819 10.4939 6.77508 10.5147C6.79411 10.5723 6.81384 10.6296 6.83475 10.6863C6.84244 10.7072 6.85055 10.7278 6.85847 10.7486C6.87637 10.7955 6.89489 10.8421 6.91406 10.8884C6.92541 10.9158 6.93703 10.9432 6.9488 10.9705C6.96783 11.0143 6.98737 11.0579 7.00748 11.1012C7.01831 11.1245 7.029 11.1479 7.0402 11.1711C7.06411 11.2208 7.08895 11.2699 7.11431 11.3186C7.12767 11.3443 7.14117 11.37 7.15495 11.3955C7.18008 11.4421 7.20581 11.4883 7.23225 11.5341C7.24777 11.5609 7.2637 11.5876 7.27964 11.6141C7.29942 11.6471 7.31963 11.6798 7.34006 11.7123C7.36434 11.751 7.38914 11.7893 7.41441 11.8273C7.43142 11.8529 7.44863 11.8783 7.46606 11.9036C7.49658 11.9479 7.5278 11.9918 7.55958 12.0352C7.57542 12.0568 7.59131 12.0784 7.60744 12.0998C7.64452 12.1489 7.68258 12.1973 7.72125 12.2452C7.73414 12.2611 7.74685 12.2771 7.75992 12.2929C7.78608 12.3246 7.81256 12.3559 7.83938 12.3869C7.84575 12.3943 7.85231 12.4015 7.85874 12.4088C7.90838 12.4656 7.95914 12.5215 8.01113 12.5762C8.01985 12.5854 8.02866 12.5944 8.03747 12.6036C8.08833 12.6565 8.14027 12.7084 8.19324 12.7592C8.20163 12.7673 8.21006 12.7753 8.2185 12.7834C8.27367 12.8357 8.32997 12.8868 8.38735 12.9369C8.3941 12.9427 8.40075 12.9487 8.4075 12.9545C8.50528 13.039 8.60602 13.1202 8.70985 13.1979C8.71149 13.1991 8.71322 13.2003 8.71486 13.2016C8.75939 13.2348 8.80374 13.2682 8.8493 13.3002L6.85444 12.8027ZM7.49536 10.4437C7.49409 10.4402 7.49278 10.4367 7.49152 10.4332C7.47895 10.3989 7.46677 10.3644 7.455 10.3298C7.45425 10.3275 7.4535 10.3253 7.45275 10.323C7.41773 10.2194 7.38633 10.1141 7.35834 10.0075C7.35638 9.99996 7.35427 9.9925 7.35234 9.985C7.34578 9.95941 7.33964 9.93363 7.33345 9.90785C7.32909 9.88966 7.32473 9.87152 7.32061 9.85324C7.31541 9.83041 7.31048 9.80749 7.30561 9.78452C7.30163 9.76568 7.29773 9.74683 7.29398 9.72789C7.29005 9.70807 7.28625 9.68824 7.28255 9.66832C7.27823 9.64488 7.27406 9.62139 7.27008 9.59786C7.26731 9.5815 7.26455 9.5651 7.26192 9.54869C7.25756 9.52136 7.25353 9.49394 7.24964 9.46652C7.24772 9.45311 7.2458 9.43971 7.24397 9.42625C7.23994 9.39588 7.23633 9.36546 7.23286 9.33499C7.23159 9.32378 7.23019 9.31258 7.22902 9.30133C7.22559 9.26903 7.22264 9.23669 7.21983 9.20435C7.21898 9.19441 7.21795 9.18452 7.21716 9.17458C7.21453 9.14144 7.21238 9.10825 7.21045 9.07506C7.20989 9.0656 7.20914 9.05617 7.20863 9.04666C7.20684 9.01286 7.20563 8.97906 7.2045 8.94527C7.20422 8.93627 7.2037 8.92736 7.20347 8.91836C7.20234 8.8758 7.20173 8.83319 7.20173 8.79058V8.17455C7.72505 8.24181 8.2733 8.24945 8.84105 8.19869C8.85957 8.19705 8.87822 8.19499 8.89678 8.19325C8.94282 8.18884 8.98894 8.18416 9.03521 8.17895C9.07613 8.17445 9.11714 8.16963 9.15825 8.16452C9.16983 8.16306 9.18146 8.16147 9.19308 8.15992C10.1483 8.0373 11.1533 7.7537 12.1915 7.30816C13.5505 6.72494 14.6216 6.01928 15.152 5.64025C15.572 6.4517 16.2087 6.94005 16.7962 7.23311C16.7971 7.27019 16.7981 7.30745 16.7981 7.34341V8.79072C16.7981 8.83333 16.7975 8.87589 16.7964 8.9185C16.7962 8.9275 16.7957 8.93641 16.7954 8.94541C16.7943 8.97921 16.7931 9.01305 16.7913 9.0468C16.7907 9.05631 16.79 9.06574 16.7894 9.07521C16.7875 9.10839 16.7853 9.14158 16.7827 9.17472C16.7819 9.18466 16.7809 9.19455 16.7801 9.20449C16.7773 9.23683 16.7743 9.26917 16.7709 9.30147C16.7697 9.31272 16.7683 9.32388 16.767 9.33513C16.7636 9.3656 16.7599 9.39602 16.7559 9.42639C16.7541 9.43985 16.7522 9.45325 16.7502 9.46666C16.7463 9.49408 16.7423 9.5215 16.738 9.54883C16.7353 9.56524 16.7326 9.58164 16.7298 9.598C16.7258 9.62153 16.7217 9.64502 16.7173 9.66846C16.7136 9.68838 16.7098 9.70821 16.7059 9.72804C16.7021 9.74693 16.6983 9.76582 16.6943 9.78466C16.6894 9.80763 16.6845 9.8305 16.6793 9.85333C16.6751 9.87166 16.6707 9.88989 16.6664 9.90813C16.6602 9.93377 16.6541 9.95946 16.6476 9.98496C16.6456 9.99283 16.6434 10.0006 16.6413 10.0085C16.6135 10.1145 16.5822 10.2191 16.5475 10.322C16.5465 10.3248 16.5457 10.3275 16.5447 10.3302C16.5331 10.3645 16.521 10.3987 16.5086 10.4326C16.5072 10.4365 16.5057 10.4404 16.5043 10.4443C16.3254 10.9302 16.0698 11.3793 15.7525 11.7772L14.9622 11.9127C14.8884 11.783 14.7874 11.6694 14.662 11.5807C14.4369 11.4214 14.1632 11.3593 13.8915 11.4061L12.7443 11.6029C12.1834 11.699 11.8053 12.2336 11.9015 12.7946C11.9615 13.1449 12.1919 13.4267 12.4988 13.5631C12.3347 13.5801 12.1683 13.5889 11.9998 13.5889C11.3027 13.5889 10.64 13.4394 10.0418 13.1709C10.0285 13.1649 10.0153 13.1588 10.0021 13.1527C8.84705 12.6215 7.93749 11.6448 7.49536 10.4437ZM14.3343 12.613C14.2836 12.6846 14.2082 12.7322 14.1217 12.7471L12.9744 12.9438C12.9558 12.947 12.9369 12.9486 12.9182 12.9486C12.7582 12.9486 12.6224 12.8338 12.5953 12.6756C12.5647 12.4971 12.6849 12.3271 12.8634 12.2964L14.0107 12.0997C14.0295 12.0965 14.0483 12.0949 14.0669 12.0949C14.1342 12.0949 14.1997 12.1156 14.2558 12.1552C14.3274 12.2058 14.375 12.2814 14.3898 12.3678C14.4047 12.4543 14.385 12.5413 14.3343 12.613ZM10.2788 17.8249C10.0187 17.9135 9.73374 17.8372 9.55271 17.6307L7.92052 15.7679L9.13107 15.3905C9.138 15.3883 9.1456 15.3901 9.15094 15.3951L11.3352 17.4651L10.2788 17.8249ZM12.0001 17.1254L9.93915 15.1724C10.1574 14.9381 10.2858 14.6256 10.2858 14.2956V14.0202C10.3087 14.0277 10.3319 14.0342 10.3549 14.0414C10.3665 14.045 10.3781 14.0485 10.3897 14.0521C10.4594 14.0735 10.5294 14.0934 10.5998 14.1119C10.6125 14.1152 10.6251 14.1186 10.6378 14.1219C10.677 14.1319 10.7163 14.1416 10.7557 14.1507C10.7659 14.1531 10.7762 14.1552 10.7865 14.1575C10.8542 14.1728 10.9223 14.1868 10.9906 14.1995C11.0143 14.204 11.0381 14.2082 11.0619 14.2123C11.095 14.218 11.1281 14.2238 11.1613 14.2288C11.2113 14.2365 11.2616 14.2434 11.3121 14.2497C11.3385 14.253 11.365 14.2559 11.3915 14.2588C11.4341 14.2636 11.4769 14.2677 11.5199 14.2715C11.5379 14.273 11.5559 14.2749 11.574 14.2763C11.6342 14.281 11.6948 14.2843 11.7555 14.287C11.7726 14.2877 11.7897 14.2883 11.8068 14.2889C11.871 14.2911 11.9353 14.2927 12 14.2927C12.0647 14.2927 12.129 14.2911 12.1932 14.2889C12.2103 14.2883 12.2274 14.2877 12.2446 14.287C12.3053 14.2843 12.3659 14.2809 12.4261 14.2763C12.4441 14.275 12.4621 14.273 12.4802 14.2715C12.5231 14.2677 12.5659 14.2636 12.6085 14.2588C12.635 14.2559 12.6615 14.253 12.6879 14.2497C12.7384 14.2434 12.7887 14.2365 12.8387 14.2288C12.8719 14.2238 12.905 14.218 12.9381 14.2123C12.9619 14.2082 12.9857 14.204 13.0094 14.1995C13.0778 14.1868 13.1458 14.1728 13.2136 14.1575C13.2238 14.1552 13.2341 14.1531 13.2443 14.1507C13.2837 14.1416 13.3231 14.1319 13.3622 14.1219C13.3749 14.1186 13.3876 14.1152 13.4002 14.1119C13.4706 14.0934 13.5406 14.0734 13.6103 14.0521C13.6219 14.0485 13.6336 14.045 13.6451 14.0414C13.6681 14.0342 13.6913 14.0277 13.7142 14.0202V14.2956C13.7142 14.6256 13.8426 14.9381 14.0609 15.1724L12.0001 17.1254ZM14.5523 17.511C14.3075 17.7903 13.9221 17.8933 13.5707 17.7736L12.6649 17.4651L14.8491 15.3951C14.8544 15.3901 14.862 15.3882 14.869 15.3905L16.0795 15.7679L14.5523 17.511Z" fill="black"/>
<path d="M8.9237 21.9565C9.26467 21.9565 9.54207 21.6791 9.54207 21.3381V20.164C9.54207 19.823 9.26467 19.5456 8.9237 19.5456H6.27292C5.93195 19.5456 5.65454 19.823 5.65454 20.164V21.3381C5.65454 21.6791 5.93195 21.9565 6.27292 21.9565H8.9237ZM6.35828 20.2494H8.83829V21.2527H6.35828V20.2494V20.2494Z" fill="black"/>
</svg>
