<svg width="52" height="52" viewBox="0 0 52 52" fill="none" xmlns="http://www.w3.org/2000/svg">
<path d="M19.1114 36.4901L27.8265 30.1451L26.051 28.8528L17.0062 35.4375V50.7368H19.1114V36.4901Z" fill="#9BA6FA"/>
<path d="M12.3671 38.6657C12.5004 38.6657 12.6307 38.6233 12.7384 38.5448L15.743 36.3569V51.3684C15.743 51.7171 16.0259 52 16.3745 52H35.7269C36.0756 52 36.3585 51.7171 36.3585 51.3684V36.3569L39.3634 38.5448C39.5456 38.6817 39.7874 38.7101 39.9967 38.6188C40.2055 38.5271 40.349 38.3302 40.3717 38.1032C40.3947 37.8762 40.2931 37.6546 40.1069 37.5234L36.3585 34.7948V31.7475C36.3585 31.5391 36.2557 31.3441 36.0838 31.2261L33.0111 29.1209C32.8174 28.9885 32.567 28.9741 32.3593 29.0835C32.1521 29.1928 32.0226 29.4079 32.0226 29.6423V31.6373L26.4222 27.5604C26.201 27.3992 25.9004 27.3992 25.6788 27.5604L11.9946 37.5234C11.7734 37.6842 11.6813 37.9696 11.766 38.2294C11.8507 38.4897 12.0933 38.6657 12.3671 38.6653V38.6657ZM25.4597 50.7368H22.5123V44.4083H25.4597V50.7368ZM33.2857 30.8404L35.0953 32.0806V33.875L33.2857 32.558V30.8404ZM26.0509 28.8528L35.0953 35.4375V50.7368H26.7228V43.7767C26.7228 43.428 26.4399 43.1451 26.0912 43.1451H21.8807C21.5316 43.1451 21.2491 43.428 21.2491 43.7767V50.7368H17.0061V35.4375L26.0509 28.8528Z" fill="#6979F8"/>
<path d="M29.1673 44.0691H33.3779C33.727 44.0691 34.0094 43.7862 34.0094 43.4375V40.2796C34.0094 39.9305 33.727 39.648 33.3779 39.648H29.1673C28.8187 39.648 28.5358 39.9305 28.5358 40.2796V43.4375C28.5358 43.7862 28.8187 44.0691 29.1673 44.0691ZM29.7989 40.9112H32.7463V42.8059H29.7989V40.9112Z" fill="#6979F8"/>
<path d="M26.6608 1.38816C27.0094 1.38816 27.2923 1.10526 27.2923 0.756579V0.631579C27.2923 0.282895 27.0094 0 26.6608 0C26.3121 0 26.0292 0.282895 26.0292 0.631579V0.756579C26.0292 1.10526 26.3121 1.38816 26.6608 1.38816Z" fill="#1AE5BE"/>
<path d="M26.6608 6.53702C27.0094 6.53702 27.2923 6.25412 27.2923 5.90544V2.30141C27.2923 1.95231 27.0094 1.66983 26.6608 1.66983C26.3121 1.66983 26.0292 1.95231 26.0292 2.30141V5.90544C26.0292 6.25412 26.3121 6.53702 26.6608 6.53702Z" fill="#1AE5BE"/>
<path d="M26.6608 13.8672C27.0094 13.8672 27.2923 13.5843 27.2923 13.2356V7.35939C27.2923 7.01071 27.0094 6.72781 26.6608 6.72781C26.3121 6.72781 26.0292 7.01071 26.0292 7.35939V13.2356C26.0292 13.5843 26.3121 13.8672 26.6608 13.8672Z" fill="#1AE5BE"/>
<path d="M29.8232 5.45066C30.1723 5.45066 30.4548 5.16817 30.4548 4.81908V0.631579C30.4548 0.282895 30.1723 0 29.8232 0C29.4745 0 29.1916 0.282895 29.1916 0.631579V4.81908C29.1916 5.16817 29.4745 5.45066 29.8232 5.45066Z" fill="#1AE5BE"/>
<path d="M29.8232 12.9042C30.1723 12.9042 30.4548 12.6213 30.4548 12.2726V6.77797C30.4548 6.42888 30.1723 6.14639 29.8232 6.14639C29.4745 6.14639 29.1916 6.42888 29.1916 6.77797V12.2726C29.1916 12.6213 29.4745 12.9042 29.8232 12.9042Z" fill="#1AE5BE"/>
<path d="M23.7081 10.8791C24.0567 10.8791 24.3396 10.5962 24.3396 10.2475V6.40953C24.3396 6.06085 24.0567 5.77795 23.7081 5.77795C23.3594 5.77795 23.0765 6.06085 23.0765 6.40953V10.2475C23.0765 10.5962 23.3594 10.8791 23.7081 10.8791Z" fill="#1AE5BE"/>
<path d="M23.7081 5.35239C24.0567 5.35239 24.3396 5.06949 24.3396 4.72081V3.78948C24.3396 3.44079 24.0567 3.1579 23.7081 3.1579C23.3594 3.1579 23.0765 3.44079 23.0765 3.78948V4.72081C23.0765 5.06949 23.3594 5.35239 23.7081 5.35239Z" fill="#1AE5BE"/>
<path d="M26.3668 25.6098C26.6209 25.8483 27.0205 25.8355 27.2594 25.5814L32.3561 20.1513C32.5308 19.9651 32.5761 19.692 32.4708 19.4593C32.3655 19.2266 32.1307 19.0802 31.8754 19.0884L30.5029 19.132L30.4552 13.7738C30.4523 13.4272 30.1702 13.148 29.8236 13.148H29.8178C29.4691 13.1509 29.1891 13.4363 29.192 13.7854L29.2459 19.7895C29.2471 19.9597 29.317 20.1217 29.44 20.2397C29.5625 20.3573 29.7274 20.4206 29.8972 20.4153L30.3914 20.3997L26.7705 24.2574L22.9128 20.6361L23.7278 20.6102C24.0687 20.5995 24.3396 20.3199 24.3396 19.9786V12.2253C24.3396 11.8766 24.0567 11.5938 23.708 11.5938C23.3589 11.5938 23.0765 11.8766 23.0765 12.2253V19.3668L21.3487 19.4215C21.0933 19.4297 20.868 19.5909 20.7779 19.8298C20.6875 20.0687 20.7504 20.3384 20.9367 20.5136L26.3668 25.6098Z" fill="#1AE5BE"/>
<path d="M14.0292 5.55676C14.3778 5.55676 14.6607 5.27427 14.6607 4.92518V1.68422C14.6607 1.33554 14.3778 1.05264 14.0292 1.05264C13.6805 1.05264 13.3976 1.33554 13.3976 1.68422V4.92518C13.3976 5.27427 13.6805 5.55676 14.0292 5.55676Z" fill="#1AE5BE"/>
<path d="M14.0292 10.7566C14.3778 10.7566 14.6607 10.4737 14.6607 10.125V7.26317C14.6607 6.91449 14.3778 6.63159 14.0292 6.63159C13.6805 6.63159 13.3976 6.91449 13.3976 7.26317V10.125C13.3976 10.4737 13.6805 10.7566 14.0292 10.7566Z" fill="#1AE5BE"/>
<path d="M14.0292 13.354C14.3779 13.354 14.6608 13.0711 14.6608 12.7224V11.8002C14.6608 11.4511 14.3779 11.1686 14.0292 11.1686C13.6805 11.1686 13.3976 11.4511 13.3976 11.8002V12.722C13.3972 13.0711 13.6801 13.354 14.0292 13.354Z" fill="#1AE5BE"/>
<path d="M17.1916 5.59867C17.5407 5.59867 17.8232 5.31578 17.8232 4.96709V3.57894C17.8232 3.23025 17.5407 2.94736 17.1916 2.94736C16.8429 2.94736 16.56 3.23025 16.56 3.57894V4.96709C16.56 5.31578 16.8429 5.59867 17.1916 5.59867Z" fill="#1AE5BE"/>
<path d="M17.1916 10.3014C17.5407 10.3014 17.8232 10.0185 17.8232 9.66983V7.35939C17.8232 7.01071 17.5407 6.72781 17.1916 6.72781C16.8429 6.72781 16.56 7.01071 16.56 7.35939V9.66983C16.56 10.0185 16.8429 10.3014 17.1916 10.3014Z" fill="#1AE5BE"/>
<path d="M17.1916 15.977C17.5407 15.977 17.8232 15.6945 17.8232 15.3454V11.6304C17.8232 11.2817 17.5407 10.9988 17.1916 10.9988C16.8429 10.9988 16.56 11.2817 16.56 11.6304V15.3454C16.56 15.6945 16.8429 15.977 17.1916 15.977Z" fill="#1AE5BE"/>
<path d="M11.0765 16.1423C11.4252 16.1423 11.7081 15.8594 11.7081 15.5107V8.7788C11.7081 8.43011 11.4252 8.14722 11.0765 8.14722C10.7278 8.14722 10.4449 8.43011 10.4449 8.7788V15.5107C10.4449 15.8594 10.7278 16.1423 11.0765 16.1423Z" fill="#1AE5BE"/>
<path d="M11.0765 6.92518C11.4252 6.92518 11.7081 6.64269 11.7081 6.2936V1.68422C11.7081 1.33554 11.4252 1.05264 11.0765 1.05264C10.7278 1.05264 10.4449 1.33554 10.4449 1.68422V6.2936C10.4449 6.64269 10.7278 6.92518 11.0765 6.92518Z" fill="#1AE5BE"/>
<path d="M11.0765 21.1501C11.4252 21.1501 11.7081 20.8672 11.7081 20.5185V17.4885C11.7081 17.1398 11.4252 16.8569 11.0765 16.8569C10.7278 16.8569 10.4449 17.1398 10.4449 17.4885V20.5185C10.4449 20.8672 10.7278 21.1501 11.0765 21.1501Z" fill="#1AE5BE"/>
<path d="M19.8392 26.8277C19.734 26.595 19.4988 26.4486 19.2434 26.4564L17.8701 26.5L17.8232 21.9893V17.3039C17.8232 16.9552 17.5407 16.6723 17.1916 16.6723C16.8429 16.6723 16.56 16.9552 16.56 17.3039V21.9959L16.6139 27.1579C16.6156 27.3277 16.6855 27.4897 16.8084 27.6073C16.9309 27.7249 17.0954 27.7883 17.2652 27.7829L17.7595 27.7669L14.1386 31.6246L10.2809 28.0037L11.0958 27.9778C11.4371 27.9671 11.7077 27.6875 11.7077 27.3462V22.2184C11.7077 21.8697 11.4248 21.5868 11.0761 21.5868C10.7274 21.5868 10.4445 21.8697 10.4445 22.2184V26.7352L8.71671 26.7899C8.46136 26.7981 8.23604 26.9593 8.14599 27.1982C8.05594 27.4371 8.11844 27.7068 8.3047 27.882L13.7352 32.9782C13.9893 33.2167 14.389 33.204 14.6279 32.9499L19.7245 27.5198C19.8993 27.3335 19.9445 27.0605 19.8392 26.8277Z" fill="#1AE5BE"/>
<path d="M38.13 2.4408C38.4786 2.4408 38.7615 2.15791 38.7615 1.80922V1.68422C38.7615 1.33554 38.4786 1.05264 38.13 1.05264C37.7813 1.05264 37.4984 1.33554 37.4984 1.68422V1.80922C37.4984 2.15791 37.7813 2.4408 38.13 2.4408Z" fill="#1AE5BE"/>
<path d="M38.13 8.22122C38.4786 8.22122 38.7615 7.93833 38.7615 7.58964V4.40666C38.7615 4.05757 38.4786 3.77509 38.13 3.77509C37.7813 3.77509 37.4984 4.05757 37.4984 4.40666V7.58964C37.4984 7.93833 37.7813 8.22122 38.13 8.22122Z" fill="#1AE5BE"/>
<path d="M38.13 10.2882C38.4786 10.2882 38.7615 10.0054 38.7615 9.65667V9.46465C38.7615 9.11596 38.4786 8.83307 38.13 8.83307C37.7813 8.83307 37.4984 9.11596 37.4984 9.46465V9.65667C37.4984 10.0054 37.7813 10.2882 38.13 10.2882Z" fill="#1AE5BE"/>
<path d="M41.2928 4.39804C41.6419 4.39804 41.9244 4.11555 41.9244 3.76646V1.68422C41.9244 1.33554 41.6419 1.05264 41.2928 1.05264C40.9441 1.05264 40.6612 1.33554 40.6612 1.68422V3.76646C40.6612 4.11555 40.9441 4.39804 41.2928 4.39804Z" fill="#1AE5BE"/>
<path d="M41.2928 12.1674C41.6419 12.1674 41.9244 11.8845 41.9244 11.5358V5.72533C41.9244 5.37623 41.6419 5.09375 41.2928 5.09375C40.9441 5.09375 40.6612 5.37623 40.6612 5.72533V11.5358C40.6612 11.8845 40.9441 12.1674 41.2928 12.1674Z" fill="#1AE5BE"/>
<path d="M35.1772 5.61596C35.5259 5.61596 35.8088 5.33306 35.8088 4.98438V2.8199C35.8088 2.47122 35.5259 2.18832 35.1772 2.18832C34.8285 2.18832 34.5457 2.47122 34.5457 2.8199V4.98438C34.5457 5.33306 34.8285 5.61596 35.1772 5.61596Z" fill="#1AE5BE"/>
<path d="M35.1772 13.2553C35.5259 13.2553 35.8088 12.9724 35.8088 12.6238V6.96218C35.8088 6.61349 35.5259 6.3306 35.1772 6.3306C34.8285 6.3306 34.5457 6.61349 34.5457 6.96218V12.6238C34.5457 12.9724 34.8285 13.2553 35.1772 13.2553Z" fill="#1AE5BE"/>
<path d="M43.3446 24.3512L41.9745 24.3943L41.9243 13.7759C41.9231 13.4281 41.6406 13.1472 41.2928 13.1472H41.2899C40.9412 13.1489 40.6595 13.433 40.6612 13.7817L40.715 25.0493C40.7159 25.22 40.7854 25.3828 40.9083 25.5012C41.0308 25.6193 41.1961 25.683 41.3664 25.6776L41.8606 25.662L38.2397 29.5197L34.382 25.8984L35.197 25.8725C35.5382 25.8618 35.8088 25.5822 35.8088 25.241V14.8499C35.8088 14.5012 35.5259 14.2184 35.1772 14.2184C34.8285 14.2184 34.5456 14.5012 34.5456 14.8499V24.6299L32.8178 24.6846C32.5625 24.6929 32.3372 24.854 32.2471 25.0929C32.1571 25.3318 32.2196 25.6016 32.4058 25.7767L37.8359 30.8729C38.09 31.1114 38.4897 31.0987 38.7286 30.8446L43.8248 25.4145C43.9996 25.2282 44.0448 24.9552 43.9395 24.7225C43.8343 24.4897 43.5995 24.3433 43.3442 24.3516L43.3446 24.3512Z" fill="#1AE5BE"/>
</svg>
