<svg width="48" height="48" viewBox="0 0 48 48" fill="none" xmlns="http://www.w3.org/2000/svg">
<g clip-path="url(#clip0)">
<path d="M8.16384 43.7339C8.16384 43.4895 8.36187 43.2914 8.60628 43.2914H23.3786V41.4215C23.3786 41.1771 23.1806 40.9791 22.9362 40.9791H6.3937C6.14929 40.9791 5.95126 41.1771 5.95126 41.4215V46.5452C5.95126 46.7896 6.14929 46.9876 6.3937 46.9876H8.16384V43.7339Z" fill="#9BA6FA"/>
<path d="M11.0184 24.8334C11.0161 24.1766 11.2687 23.5447 11.7236 23.0707L18.1033 17.7431V14.8043L9.51103 21.9644C9.05612 22.4384 8.80352 23.0703 8.80586 23.7271V39.851H11.0184V24.8334Z" fill="#9BA6FA"/>
<path d="M40.6064 0H20.648C19.2158 0.00155925 18.0549 1.16242 18.0534 2.59459V13.3702L8.8577 20.6932C8.8386 20.7084 8.82028 20.7244 8.80351 20.7419C8.05663 21.499 7.63875 22.5203 7.64109 23.5833V40.2299H8.8386V23.5833C8.83704 22.8462 9.12199 22.1371 9.63343 21.6062L18.0534 14.901V21.3337L12.6919 25.5791C12.5231 25.7117 12.4385 25.9241 12.4693 26.1366C12.5001 26.3486 12.6424 26.5279 12.8416 26.6067C13.0412 26.6858 13.2677 26.6519 13.4353 26.5182L21.3173 20.2769L21.5516 20.5108C22.3285 21.2896 22.3285 22.5507 21.5516 23.3295L17.8854 26.9953C17.7817 27.0994 17.7193 27.2378 17.7111 27.3847L17.6647 28.1839C17.6644 28.1956 17.664 28.2069 17.664 28.2186C17.6675 28.8157 17.8039 29.4051 18.0631 29.9435C18.6646 31.2353 18.552 32.747 17.7645 33.9352C17.699 34.0334 17.664 34.1492 17.664 34.2673V35.9953C17.664 36.3259 17.9322 36.5941 18.2627 36.5941C18.5937 36.5941 18.8615 36.3259 18.8615 35.9953V34.4427C19.3975 33.5676 19.6672 32.556 19.6388 31.5304C19.958 31.6657 20.3014 31.7351 20.648 31.7347H24.5761V34.2673C24.5746 35.8445 23.2964 37.1227 21.7192 37.1246C21.3882 37.1246 21.1204 37.3928 21.1204 37.7234V40.2306H22.3179V38.2769C24.3029 37.9779 25.7713 36.2736 25.7736 34.2665V31.7339H40.6064C42.0386 31.7323 43.1994 30.5715 43.201 29.1393V2.59459C43.1994 1.16242 42.0386 0.00155925 40.6064 0V0ZM22.2447 24.3298L22.3982 24.1766C23.6421 22.9296 23.6421 20.9107 22.3982 19.6637L22.2447 19.5105V4.49064H39.0097V25.2474H22.2447V24.3298ZM42.0035 29.1393C42.0027 29.9107 41.3775 30.5356 40.6064 30.5364H20.648C19.8765 30.5356 19.2517 29.9107 19.2509 29.1393V27.3235L21.0471 25.5273V25.8462C21.0471 26.1767 21.3153 26.4449 21.6459 26.4449H39.6085C39.939 26.4449 40.2072 26.1767 40.2072 25.8462V3.89189C40.2072 3.56133 39.939 3.29314 39.6085 3.29314H21.6459C21.3153 3.29314 21.0471 3.56133 21.0471 3.89189V18.971C21.028 18.9819 21.0097 18.994 20.9922 19.0069L19.2509 20.3857V2.59459C19.2517 1.82315 19.8765 1.19828 20.648 1.19751H40.6064C41.3775 1.19828 42.0027 1.82315 42.0035 2.59459V29.1393Z" fill="#6979F8"/>
<path d="M31.6976 27.6424H29.5568C29.2262 27.6424 28.958 27.9106 28.958 28.2411C28.958 28.5717 29.2262 28.8399 29.5568 28.8399H31.6976C32.0282 28.8399 32.2964 28.5717 32.2964 28.2411C32.2964 27.9106 32.0282 27.6424 31.6976 27.6424Z" fill="#6979F8"/>
<path d="M24.5644 41.2278C24.5633 40.3464 23.8491 39.6319 22.9678 39.6311H6.38668C5.50532 39.6319 4.79118 40.3464 4.79001 41.2278V46.4033C4.79118 47.2847 5.50532 47.9988 6.38668 48H22.9678C23.8491 47.9988 24.5633 47.2847 24.5644 46.4033V41.2278ZM23.3669 46.4033C23.3669 46.624 23.188 46.8025 22.9678 46.8025H6.38668C6.16605 46.8025 5.98751 46.624 5.98751 46.4033V41.2278C5.98751 41.0071 6.16605 40.8286 6.38668 40.8286H22.9678C23.188 40.8286 23.3669 41.0071 23.3669 41.2278V46.4033Z" fill="#6979F8"/>
<path d="M30.6287 7.64463L23.6433 12.7305C23.4336 12.8829 23.3459 13.1531 23.4262 13.3998C23.5065 13.6462 23.7361 13.8134 23.9953 13.8134H25.4423V19.9128C25.4423 20.2434 25.7105 20.5116 26.041 20.5116H35.9205C36.2514 20.5116 36.5192 20.2434 36.5192 19.9128V13.8134H37.9662C38.2258 13.8134 38.4554 13.6462 38.5357 13.3998C38.616 13.1531 38.5283 12.8829 38.3186 12.7305L31.3331 7.64463C31.1234 7.49183 30.8385 7.49183 30.6287 7.64463ZM35.9205 12.6159C35.5899 12.6159 35.3217 12.8837 35.3217 13.2147V19.3141H26.6398V13.2147C26.6398 12.8837 26.372 12.6159 26.041 12.6159H25.8348L30.9807 8.86943L36.1267 12.6159H35.9205Z" fill="#1AE5BE"/>
<path d="M29.073 12.7134C29.073 13.7674 29.9275 14.6215 30.9811 14.6215C32.0348 14.6211 32.8893 13.767 32.8889 12.713C32.8889 11.6593 32.0348 10.8052 30.9807 10.8052C29.9275 10.8064 29.0738 11.6601 29.073 12.7134ZM31.6914 12.7134C31.6918 13.1059 31.3733 13.4244 30.9811 13.4244C30.5886 13.4244 30.2705 13.1063 30.2705 12.7138C30.2701 12.3212 30.5886 12.0031 30.9807 12.0031C31.3733 12.0035 31.691 12.3212 31.6914 12.7134Z" fill="#1AE5BE"/>
</g>
<defs>
<clipPath id="clip0">
<rect width="48" height="48" fill="white"/>
</clipPath>
</defs>
</svg>
