<svg width="48" height="48" viewBox="0 0 48 48" fill="none" xmlns="http://www.w3.org/2000/svg">
<path d="M15.4882 29.466H13.536C13.5433 29.8565 13.8742 30.2469 14.2811 30.2469H16.2332C15.8264 30.2469 15.4955 29.8565 15.4882 29.466Z" fill="#9BA6FA"/>
<path d="M15.4905 27.6115H15.8584C15.5351 27.6115 15.2728 27.3491 15.2728 27.0258C15.2728 26.7025 15.5351 26.4402 15.8584 26.4402H15.4905V25.7569H13.5383V26.4402H14.4801C14.8038 26.4402 15.0658 26.7025 15.0658 27.0258C15.0658 27.3491 14.8038 27.6115 14.4801 27.6115H13.5383V28.2947H15.4905V27.6115Z" fill="#9BA6FA"/>
<path d="M13.3397 20.2225C11.6769 18.6898 10.7302 16.5325 10.7275 14.2711C10.726 10.1894 13.7717 6.74949 17.8236 6.25649C17.5239 6.2195 17.2223 6.19929 16.9203 6.19586C16.8948 6.19586 16.8696 6.19662 16.8445 6.19662C12.3865 6.19815 8.7738 9.8131 8.77533 14.2711C8.778 16.5325 9.72473 18.6898 11.3875 20.2225C12.6114 21.3633 13.3675 22.9186 13.5082 24.5856H15.4604C15.3197 22.9186 14.5636 21.3633 13.3397 20.2225Z" fill="#9BA6FA"/>
<path d="M31.2966 26.3326H30.4833L36.1401 22.2144L34.6759 21.1487L27.5551 26.3326H28.3684C28.6917 26.3326 28.954 26.595 28.954 26.9183V36.869H31.8823V26.9183C31.8823 26.595 31.62 26.3326 31.2966 26.3326V26.3326Z" fill="#9BA6FA"/>
<path d="M18.1553 3.24816V0.585653C18.1553 0.262324 17.893 0 17.5697 0C17.2463 0 16.984 0.262324 16.984 0.585653V3.24816C16.984 3.57187 17.2463 3.83381 17.5697 3.83381C17.893 3.83381 18.1553 3.57187 18.1553 3.24816Z" fill="#6979F8"/>
<path d="M26.6938 13.2748C26.6938 13.5981 26.9557 13.8605 27.2794 13.8605H29.9423C30.2657 13.8605 30.528 13.5981 30.528 13.2748C30.528 12.9515 30.2657 12.6891 29.9423 12.6891H27.2794C26.9557 12.6891 26.6938 12.9515 26.6938 13.2748V13.2748Z" fill="#6979F8"/>
<path d="M7.22694 12.6891H4.56405C4.24072 12.6891 3.97839 12.9515 3.97839 13.2748C3.97839 13.5981 4.24072 13.8605 4.56405 13.8605H7.22694C7.55065 13.8605 7.81259 13.5981 7.81259 13.2748C7.81259 12.9515 7.55065 12.6891 7.22694 12.6891Z" fill="#6979F8"/>
<path d="M26.2016 3.49827L24.1236 5.57627C23.9737 5.72382 23.9142 5.94039 23.9684 6.14362C24.0221 6.34722 24.1811 6.50584 24.3844 6.5596C24.588 6.61374 24.8045 6.55426 24.9521 6.40442L27.0301 4.32642C27.2554 4.09688 27.2539 3.72894 27.0267 3.50132C26.799 3.27407 26.4307 3.27255 26.2016 3.49827Z" fill="#6979F8"/>
<path d="M9.96876 6.57602C10.2055 6.57602 10.4191 6.43304 10.5098 6.21456C10.6002 5.99571 10.5502 5.74368 10.3828 5.57629L8.30484 3.49829C8.15804 3.34387 7.93957 3.28134 7.73329 3.33472C7.5274 3.3881 7.3665 3.549 7.31312 3.7549C7.26012 3.96117 7.32265 4.17965 7.47707 4.32644L9.55507 6.40444C9.66449 6.51425 9.81358 6.57602 9.96876 6.57602Z" fill="#6979F8"/>
<path d="M34.6531 36.8492C34.3297 36.8492 34.0674 37.1116 34.0674 37.4349V42.5353C34.0674 44.9065 32.1454 46.8286 29.7742 46.8286C27.403 46.8286 25.4809 44.9065 25.4809 42.5353V41.3488C25.4554 40.0086 24.3618 38.9356 23.0216 38.9356C21.681 38.9356 20.5875 40.0086 20.5623 41.3488V45.0247C20.5623 45.777 19.9527 46.3867 19.2004 46.3867C18.4485 46.3867 17.8388 45.777 17.8388 45.0247V31.3797H19.8162C20.8746 31.3786 21.7321 30.5211 21.7336 29.4626V25.1358C21.7451 23.5733 22.4032 22.0851 23.5512 21.0252C26.3342 18.4332 27.2447 14.4004 25.8454 10.864C24.4461 7.32754 21.0229 5.00971 17.22 5.02344C13.4167 5.03678 10.0103 7.37939 8.63652 10.9261C7.26313 14.4724 8.20262 18.4984 11.0043 21.0706C12.1363 22.1214 12.7776 23.5973 12.7731 25.1419V29.4626C12.7742 30.5207 13.6317 31.3786 14.6902 31.3797H16.6675V45.0247C16.6675 46.4237 17.8015 47.558 19.2004 47.558C20.5993 47.558 21.7336 46.4237 21.7336 45.0247V41.3488C21.7516 40.6506 22.3231 40.094 23.0216 40.094C23.7201 40.094 24.2913 40.6506 24.3096 41.3488V42.5353C24.3096 45.5536 26.7559 47.9999 29.7742 47.9999C32.792 47.9999 35.2387 45.5536 35.2387 42.5353V37.4349C35.2387 37.1116 34.9764 36.8492 34.6531 36.8492V36.8492ZM11.7962 20.2077C9.34609 17.9581 8.52709 14.4354 9.73386 11.336C10.941 8.23614 13.9265 6.19474 17.2528 6.19474H17.3287C20.6306 6.22525 23.581 8.26473 24.7759 11.3432C25.9709 14.4217 25.1694 17.9177 22.7528 20.1681C21.5167 21.3153 20.7469 22.8775 20.5902 24.5563H18.1553V20.8601C18.1553 20.7903 18.1427 20.7213 18.1183 20.6561C19.1058 20.382 19.7391 19.42 19.6007 18.4042C19.4623 17.3885 18.5949 16.6313 17.5696 16.6313C16.5447 16.6313 15.6769 17.3885 15.5385 18.4042C15.4001 19.42 16.0334 20.382 17.0213 20.6561C16.9969 20.7213 16.984 20.7903 16.984 20.8601V24.5563H13.9169C13.7774 22.8931 13.0209 21.342 11.7962 20.2077ZM17.5692 19.5614C17.0843 19.5614 16.6908 19.1683 16.6908 18.6829C16.6908 18.198 17.0843 17.8045 17.5692 17.8045C18.0546 17.8045 18.4477 18.198 18.4477 18.6829C18.4473 19.1679 18.0546 19.561 17.5696 19.5614H17.5692ZM13.9451 29.476H18.3505C18.6738 29.476 18.9362 29.2136 18.9362 28.8903C18.9362 28.5666 18.6738 28.3047 18.3505 28.3047H13.9444V27.5718H14.8888C15.2125 27.5718 15.4745 27.3095 15.4745 26.9862C15.4745 26.6628 15.2125 26.4005 14.8888 26.4005H13.9444V25.7276H20.5623V26.4001H16.2675C15.9438 26.4001 15.6819 26.6625 15.6819 26.9858C15.6819 27.3095 15.9438 27.5714 16.2675 27.5714H20.5623V28.3047H19.7288C19.4055 28.3047 19.1432 28.5666 19.1432 28.8903C19.1432 29.2136 19.4055 29.476 19.7288 29.476H20.5616C20.5539 29.8824 20.2226 30.208 19.8162 30.2084H14.6902C14.2837 30.208 13.9524 29.8824 13.9451 29.476V29.476Z" fill="#6979F8"/>
<path d="M43.9412 26.4451L41.6962 24.8109V22.2529C41.6962 21.9292 41.4339 21.6672 41.1105 21.6672C40.7868 21.6672 40.5249 21.9292 40.5249 22.2529V23.9588L35.0203 19.9511C34.8148 19.8016 34.536 19.8016 34.3309 19.9511L25.4104 26.4455C25.2052 26.595 25.1198 26.8592 25.1984 27.1002C25.2769 27.3411 25.5015 27.5047 25.7551 27.5047H27.7824V37.4547C27.7824 37.778 28.0443 38.0404 28.368 38.0404H40.9836C41.3069 38.0404 41.5692 37.778 41.5692 37.4547V27.5039H43.5961C43.8501 27.5039 44.0746 27.3408 44.1532 27.0998C44.2317 26.8584 44.1459 26.5942 43.9412 26.4451V26.4451ZM40.9836 26.333C40.6602 26.333 40.3979 26.595 40.3979 26.9187V36.8691H28.954V26.9183C28.954 26.595 28.6917 26.3326 28.3684 26.3326H27.5551L34.676 21.1487L41.7968 26.3326L40.9836 26.333Z" fill="#1AE5BE"/>
</svg>
