<svg width="48" height="48" viewBox="0 0 48 48" fill="none" xmlns="http://www.w3.org/2000/svg">
<g clip-path="url(#clip0)">
<path d="M6.69586 34.7949H10.2853L9.91711 33.5955H5.59634L7.26397 47.1895H8.21629L6.69586 34.7949Z" fill="#9BA6FA"/>
<path d="M31.2324 37.4047L28.0763 37.2521C27.2013 37.2123 26.3244 37.2302 25.4517 37.3056C25.1866 37.3306 24.9223 37.361 24.6587 37.3973C24.6302 37.4008 24.6017 37.4028 24.5732 37.4024C24.547 37.4059 24.5205 37.4087 24.4939 37.4122C24.1671 37.4579 23.9387 37.7597 23.984 38.0869C24.0297 38.4137 24.3315 38.6421 24.6587 38.5968C25.7727 38.4426 26.8987 38.3903 28.0221 38.4406L31.8778 38.6148H31.9051C32.2362 38.6148 32.5049 38.3465 32.5049 38.015C32.5049 37.9514 32.5029 37.8881 32.4998 37.8253L32.9762 37.5742L38.5612 34.5611C39.0192 34.3127 39.5534 34.2425 40.0606 34.3635L41.0367 33.6931C40.371 33.057 39.371 32.9231 38.5616 33.3616L32.9762 36.3751L32.4998 36.6262C32.5029 36.689 32.5045 36.7523 32.5045 36.8159C32.5045 37.147 32.2362 37.4157 31.9048 37.4157C31.8958 37.4157 31.8868 37.4157 31.8778 37.4157L31.2273 37.3864C31.2289 37.3923 31.2308 37.3985 31.2324 37.4047Z" fill="#9BA6FA"/>
<path d="M12.6948 36.1041L13.8013 35.119C15.8696 33.5666 18.632 33.3015 20.9576 34.433L21.4238 34.6782C22.2336 35.0757 23.1223 35.2865 24.0242 35.2947H28.5445C29.3133 35.2924 30.0485 35.611 30.5729 36.1733L31.2328 36.2053C30.936 34.9625 29.8221 34.0882 28.5445 34.0953H24.0242C23.1223 34.0871 22.2336 33.8766 21.4238 33.4791L20.9576 33.2339C18.632 32.1024 15.8696 32.3675 13.8013 33.9199L12.6948 34.9047C12.1739 35.3685 11.5617 35.718 10.8979 35.9316L11.2271 37.0112C11.7651 36.796 12.2618 36.4891 12.6948 36.1041V36.1041Z" fill="#9BA6FA"/>
<path d="M23.4592 10.6021C23.6029 10.5818 23.749 10.6146 23.8704 10.6942C24.1047 10.5408 24.2015 10.2456 24.1027 9.98318C24.0039 9.72119 23.7365 9.56306 23.4592 9.60249C22.3449 9.75672 21.2192 9.80865 20.0955 9.75828L16.2401 9.58414C16.0761 9.57672 15.9168 9.63685 15.7985 9.75008C15.6798 9.86332 15.6131 10.0203 15.6131 10.1839C15.6131 10.2475 15.615 10.3108 15.6181 10.374L15.1418 10.6251L9.55673 13.6382C9.03391 13.9213 8.41582 13.9713 7.85396 13.7757L7.08203 14.3059C7.74737 14.9423 8.74732 15.0763 9.55673 14.6378L15.1418 11.6247L15.6181 11.3736C15.615 11.3107 15.6131 11.2475 15.6131 11.1834C15.6131 11.0198 15.6798 10.8629 15.7985 10.7496C15.9168 10.6364 16.0761 10.5763 16.2401 10.5837L20.0955 10.7578C21.2192 10.8082 22.3449 10.7563 23.4592 10.6021Z" fill="#9BA6FA"/>
<path d="M35.4227 12.0947L34.3166 13.0802C32.2483 14.6327 29.4855 14.8978 27.1603 13.7663L26.6941 13.5211C25.8843 13.1236 24.9957 12.9127 24.0937 12.9045H19.5734C18.7086 12.9077 17.8921 12.5051 17.3677 11.8175L16.8851 11.7941C17.1819 13.0365 18.2959 13.9111 19.5734 13.9041H24.0937C24.9957 13.9123 25.8843 14.1227 26.6941 14.5202L27.1603 14.7654C29.4855 15.897 32.2483 15.6319 34.3166 14.0794L35.4227 13.0939C35.944 12.6304 36.5558 12.2806 37.22 12.067L36.9451 11.1658C36.386 11.3818 35.8706 11.6965 35.4227 12.0947V12.0947Z" fill="#9BA6FA"/>
<path d="M40.8536 0.809814H39.9766L41.522 13.4043H37.8939L38.2004 14.4039H42.5216L40.8536 0.809814Z" fill="#9BA6FA"/>
<path d="M37.1833 32.6681L37.0783 32.7248C36.2685 31.8095 34.9222 31.4675 33.8898 31.9911L33.8765 31.9981L33.4994 32.2015C32.3678 31.2879 30.7916 31.1633 29.5312 31.888L27.1467 33.1847H23.966C23.289 33.1839 22.6209 33.0305 22.0114 32.7369L21.5698 32.5229C18.9659 31.2563 15.8707 31.5585 13.5612 33.3054C13.5479 33.3151 13.535 33.3253 13.5229 33.3366L12.457 34.2862C12.097 34.606 11.6765 34.85 11.2204 35.0038L10.6496 33.1316C10.5727 32.879 10.34 32.7068 10.076 32.7068H4.91889C4.74709 32.7064 4.58349 32.7802 4.46987 32.9087C4.35586 33.0375 4.30276 33.2085 4.32345 33.3792L6.04223 47.473C6.07893 47.7736 6.33429 48.0001 6.63767 48.0001H14.3718C14.5619 48.0001 14.7408 47.9099 14.8536 47.7572C14.9668 47.6046 15.0008 47.407 14.9454 47.2254L13.956 43.9784L17.0402 42.0289C17.4365 41.8106 17.9007 41.7513 18.3396 41.8622C18.3521 41.8653 18.3646 41.868 18.3771 41.87L24.8141 43.0554C26.5887 43.3732 28.4184 43.1147 30.036 42.3182C30.0614 42.3057 30.086 42.2913 30.1094 42.2753L41.2428 34.6309C41.5044 34.4513 41.581 34.0988 41.4174 33.827C40.5431 32.3702 38.6772 31.8595 37.1833 32.6681V32.6681ZM34.4376 33.0582C34.9272 32.8138 35.5328 32.9789 35.967 33.3245L31.8977 35.52L31.77 35.5872C31.6525 35.2881 31.4967 35.005 31.3073 34.745L34.4376 33.0582ZM30.1106 32.9383L30.1247 32.9301C30.7904 32.5451 31.6037 32.5147 32.2964 32.8493L30.4093 33.8653C30.0864 33.6392 29.7299 33.4651 29.3531 33.3495L30.1106 32.9383ZM7.16869 46.7994L5.59633 33.9051H9.63089L13.562 46.7994H7.16869ZM29.466 41.2609C28.0892 41.9289 26.536 42.1441 25.0296 41.8746L18.6113 40.6931C17.8765 40.5124 17.1007 40.6182 16.4408 40.9883C16.4314 40.9938 16.4221 40.9993 16.4131 41.0051L13.5924 42.7879L11.5691 36.1514C12.1911 35.9472 12.7643 35.6168 13.2531 35.1819L14.3003 34.2495C16.2499 32.7864 18.8542 32.5369 21.0462 33.6033L21.4878 33.8169C22.2605 34.1893 23.107 34.3834 23.9649 34.3846H28.2474C29.4308 34.3861 30.4628 35.1901 30.7533 36.3376L27.8061 36.2041C26.6703 36.1533 25.5325 36.2056 24.4065 36.3614C24.0785 36.4067 23.8493 36.7093 23.8946 37.0377C23.9403 37.3657 24.2429 37.5949 24.5708 37.5496C25.6247 37.404 26.6891 37.3548 27.7519 37.4024L31.4046 37.5679C31.4135 37.5679 31.4225 37.5683 31.4315 37.5683C31.7626 37.5683 32.0312 37.3001 32.0312 36.9686C32.0312 36.9147 32.0293 36.8612 32.0273 36.8073L32.4611 36.5785L37.7522 33.7243C38.4944 33.3225 39.4097 33.4362 40.0313 34.007L29.466 41.2609Z" fill="#6979F8"/>
<path d="M8.46851 44.9335C8.46851 45.8343 9.19865 46.5644 10.0994 46.5644C11.0002 46.5644 11.7304 45.8343 11.7304 44.9335C11.7304 44.0327 11.0002 43.3026 10.0994 43.3026C9.19904 43.3037 8.46968 44.0331 8.46851 44.9335ZM10.0994 44.502C10.338 44.502 10.5309 44.6953 10.5309 44.9335C10.5309 45.1721 10.338 45.3649 10.0994 45.3649C9.86125 45.3649 9.66798 45.1721 9.66798 44.9335C9.66837 44.6953 9.86125 44.5024 10.0994 44.502Z" fill="#6979F8"/>
<path d="M42.0757 0.527113C42.039 0.226073 41.7832 0 41.4802 0H33.7461C33.556 0 33.3771 0.0901949 33.2639 0.242863C33.1511 0.39553 33.1167 0.59271 33.1722 0.774661L34.162 4.02129L31.0778 5.97122C30.6814 6.18948 30.2172 6.24883 29.7783 6.13794C29.7662 6.13482 29.7537 6.13208 29.7408 6.12974L23.3038 4.94432C21.5292 4.62688 19.6995 4.88497 18.0823 5.68189C18.0565 5.69438 18.0323 5.70883 18.0089 5.72484L6.87506 13.3692C6.61346 13.5488 6.53732 13.901 6.70092 14.1727C7.57476 15.6299 9.44113 16.1402 10.935 15.3308L11.0404 15.2742C11.58 15.8868 12.3535 16.2429 13.1696 16.2546C13.5374 16.257 13.9005 16.1726 14.2293 16.0078L14.2425 16.0008L14.6193 15.7982C15.7505 16.7118 17.3271 16.836 18.5875 16.1113L20.972 14.8146H24.1527C24.8293 14.8154 25.4974 14.9685 26.1073 15.2625L26.5489 15.476C29.1528 16.7431 32.2476 16.4409 34.5575 14.694C34.5708 14.6838 34.5833 14.674 34.5957 14.6627L35.6617 13.7131C36.0213 13.3934 36.4418 13.1493 36.8983 12.9955L37.4691 14.8677C37.546 15.1203 37.7787 15.2925 38.0427 15.2925H43.1986C43.3704 15.2925 43.534 15.2191 43.648 15.0903C43.7617 14.9618 43.8152 14.7908 43.7941 14.6202L42.0757 0.527113ZM13.6807 14.9407C13.1907 15.1852 12.5855 15.0204 12.1517 14.6744L16.221 12.4793L16.3487 12.4118C16.4666 12.7112 16.622 12.9943 16.8113 13.254L13.6807 14.9407ZM18.0077 15.061L17.9936 15.0688C17.3279 15.4538 16.5146 15.4839 15.8219 15.1496L17.7082 14.1341C18.0315 14.3601 18.388 14.5343 18.7648 14.6498L18.0077 15.061ZM34.864 12.8178L33.8168 13.7502C31.8673 15.2133 29.2629 15.4628 27.0713 14.3964L26.6297 14.1829C25.857 13.8104 25.0105 13.6163 24.1527 13.6151H19.8702C18.6863 13.6136 17.6547 12.8092 17.3638 11.6621L20.3118 11.7956C21.4472 11.8464 22.585 11.7941 23.7111 11.6383C24.0394 11.593 24.2686 11.2904 24.2229 10.962C24.1777 10.634 23.875 10.4048 23.5467 10.4501C22.4932 10.5958 21.4285 10.645 20.366 10.5973L16.7133 10.4318C16.5497 10.4243 16.3904 10.4841 16.2717 10.5973C16.1534 10.7105 16.0867 10.8671 16.0867 11.0311C16.0867 11.085 16.0882 11.1385 16.0906 11.1924L15.6564 11.4212L10.3653 14.2754C9.62308 14.6776 8.70747 14.5639 8.08586 13.9927L18.6519 6.73807C20.0287 6.07 21.5819 5.85525 23.0883 6.12427L29.5066 7.30618C30.2414 7.48657 31.0172 7.38076 31.6767 7.01061C31.6861 7.00553 31.6955 7.00006 31.7044 6.99421L34.5251 5.211L36.5484 11.8483C35.9264 12.0525 35.3532 12.3825 34.864 12.8178V12.8178ZM38.487 14.0938L34.5559 1.19948H40.9492L42.5216 14.0938H38.487Z" fill="#6979F8"/>
<path d="M38.0185 1.43454C37.1177 1.43454 36.3872 2.16508 36.3872 3.06586C36.3872 3.96624 37.1177 4.69678 38.0185 4.69678C38.9188 4.69678 39.6494 3.96624 39.6494 3.06586C39.6482 2.16547 38.9185 1.43571 38.0185 1.43454V1.43454ZM38.0185 3.49731C37.7799 3.49731 37.5866 3.30403 37.5866 3.06586C37.5866 2.82729 37.7799 2.63402 38.0185 2.63402C38.2566 2.63402 38.4499 2.82729 38.4499 3.06586C38.4495 3.30403 38.2566 3.49692 38.0185 3.49731Z" fill="#6979F8"/>
<path d="M31.4088 21.9295L29.7061 20.6902V18.7543C29.7061 18.4232 29.4374 18.1546 29.1063 18.1546C28.7752 18.1546 28.5066 18.4232 28.5066 18.7543V19.8167L24.4119 16.8356C24.2015 16.6826 23.9164 16.6826 23.706 16.8356L16.709 21.9295C16.499 22.0825 16.4111 22.3531 16.4915 22.6003C16.572 22.8471 16.8023 23.0142 17.062 23.0142H18.5114V30.6788C18.5114 31.0099 18.78 31.2785 19.1111 31.2785H29.0068C29.3379 31.2785 29.6065 31.0099 29.6065 30.6788V23.0142H31.0559C31.3155 23.0142 31.5459 22.8471 31.6259 22.6003C31.7064 22.3531 31.6189 22.0825 31.4088 21.9295ZM25.1061 30.079H23.0114V28.4235H25.1061V30.079ZM29.0068 21.8147C28.6757 21.8147 28.407 22.0833 28.407 22.4144V30.079H26.3056V27.8238C26.3056 27.4923 26.0374 27.224 25.7059 27.224H22.4116C22.0805 27.224 21.8119 27.4923 21.8119 27.8238V30.079H19.7108V22.4144C19.7108 22.0833 19.4422 21.8147 19.1111 21.8147H18.9046L24.0589 18.062L29.2129 21.8147H29.0068Z" fill="#1AE5BE"/>
</g>
<defs>
<clipPath id="clip0">
<rect width="48" height="48" fill="white"/>
</clipPath>
</defs>
</svg>
