<svg width="48" height="48" viewBox="0 0 48 48" fill="none" xmlns="http://www.w3.org/2000/svg">
<g clip-path="url(#clip0)">
<path d="M12.6836 1.04349H9.70225C7.45302 1.0462 5.63043 2.8688 5.62772 5.11802V5.95265H8.60908V5.11802C8.6118 2.8688 10.4344 1.0462 12.6836 1.04349Z" fill="#9BA6FA"/>
<path d="M5.82648 7.14517H8.80784V35.6273H5.82648V7.14517Z" fill="#9BA6FA"/>
<path d="M8.80784 39.0062V36.7205H5.82648V39.0062C5.82919 41.2554 7.65179 43.078 9.90101 43.0807H12.8824C10.6332 43.078 8.81056 41.2554 8.80784 39.0062Z" fill="#9BA6FA"/>
<path d="M25.1429 0H9.24224C6.71856 0.0027174 4.67352 2.04775 4.67081 4.57143V39.354C4.67352 41.8777 6.71856 43.9227 9.24224 43.9255H21.764C22.0932 43.9255 22.3602 43.6584 22.3602 43.3292C22.3602 43 22.0932 42.7329 21.764 42.7329H9.24224C7.37694 42.731 5.86529 41.2193 5.86335 39.354V36.7702H26.2919V35.5776H5.86335V7.15528H22.0621C22.3913 7.15528 22.6584 6.8882 22.6584 6.55901C22.6584 6.22981 22.3913 5.96273 22.0621 5.96273H5.86335V4.57143C5.86529 2.70613 7.37694 1.19449 9.24224 1.19255H25.1429C27.0082 1.19449 28.5198 2.70613 28.5217 4.57143V5.96273H27.1304C26.8012 5.96273 26.5342 6.22981 26.5342 6.55901C26.5342 6.8882 26.8012 7.15528 27.1304 7.15528H28.5217V12.9468C28.5217 13.276 28.7888 13.5431 29.118 13.5431C29.4472 13.5431 29.7143 13.276 29.7143 12.9468V4.57143C29.7116 2.04775 27.6665 0.0027174 25.1429 0Z" fill="#6979F8"/>
<path d="M24.0194 5.96274C23.6898 5.96274 23.4231 6.22982 23.4231 6.55901C23.4231 6.8882 23.6898 7.15528 24.0194 7.15528H25.1238C25.4534 7.15528 25.7201 6.8882 25.7201 6.55901C25.7201 6.22982 25.4534 5.96274 25.1238 5.96274H24.0194Z" fill="#6979F8"/>
<path d="M15.1056 39.7516C15.1056 40.9041 16.04 41.8385 17.1925 41.8385C18.3451 41.8385 19.2795 40.9041 19.2795 39.7516C19.2795 38.599 18.3451 37.6646 17.1925 37.6646C16.0404 37.6658 15.1068 38.5994 15.1056 39.7516ZM18.087 39.7516C18.087 40.2454 17.6863 40.646 17.1925 40.646C16.6988 40.646 16.2981 40.2454 16.2981 39.7516C16.2981 39.2578 16.6988 38.8572 17.1925 38.8572C17.6863 38.8575 18.0866 39.2578 18.087 39.7516Z" fill="#6979F8"/>
<path d="M12.238 25.441C12.238 25.1118 11.9713 24.8447 11.6417 24.8447H8.53882C8.20963 24.8447 7.94255 25.1118 7.94255 25.441C7.94255 25.7702 8.20963 26.0373 8.53882 26.0373H11.6417C11.9713 26.0373 12.238 25.7702 12.238 25.441Z" fill="#6979F8"/>
<path d="M16.3975 25.441C16.3975 25.1118 16.1304 24.8447 15.8012 24.8447H13.9569C13.6277 24.8447 13.3606 25.1118 13.3606 25.441C13.3606 25.7702 13.6277 26.0373 13.9569 26.0373H15.8012C16.1304 26.0373 16.3975 25.7702 16.3975 25.441Z" fill="#6979F8"/>
<path d="M17.7589 25.441C17.7589 25.7702 18.026 26.0373 18.3552 26.0373H21.0757C21.4049 26.0373 21.672 25.7702 21.672 25.441C21.672 25.1118 21.4049 24.8447 21.0757 24.8447H18.3552C18.026 24.8447 17.7589 25.1118 17.7589 25.441Z" fill="#6979F8"/>
<path d="M9.65412 28.2236H8.53882C8.20963 28.2236 7.94255 28.4907 7.94255 28.8199C7.94255 29.1491 8.20963 29.4161 8.53882 29.4161H9.65412C9.9837 29.4161 10.2504 29.1491 10.2504 28.8199C10.2504 28.4907 9.9837 28.2236 9.65412 28.2236Z" fill="#6979F8"/>
<path d="M11.9693 28.2236C11.6401 28.2236 11.3731 28.4907 11.3731 28.8199C11.3731 29.1491 11.6401 29.4161 11.9693 29.4161H14.8075C15.1366 29.4161 15.4037 29.1491 15.4037 28.8199C15.4037 28.4907 15.1366 28.2236 14.8075 28.2236H11.9693Z" fill="#6979F8"/>
<path d="M21.9328 28.8199C21.9328 28.4907 21.6661 28.2236 21.3366 28.2236H17.1009C16.7713 28.2236 16.5047 28.4907 16.5047 28.8199C16.5047 29.1491 16.7713 29.4161 17.1009 29.4161H21.3366C21.6661 29.4161 21.9328 29.1491 21.9328 28.8199Z" fill="#6979F8"/>
<path d="M9.65412 31.205H8.53882C8.20963 31.205 7.94255 31.472 7.94255 31.8012C7.94255 32.1304 8.20963 32.3975 8.53882 32.3975H9.65412C9.9837 32.3975 10.2504 32.1304 10.2504 31.8012C10.2504 31.472 9.9837 31.205 9.65412 31.205Z" fill="#6979F8"/>
<path d="M11.9693 32.3975H17.7888C18.118 32.3975 18.3851 32.1304 18.3851 31.8012C18.3851 31.472 18.118 31.205 17.7888 31.205H11.9693C11.6401 31.205 11.3731 31.472 11.3731 31.8012C11.3731 32.1304 11.6401 32.3975 11.9693 32.3975Z" fill="#6979F8"/>
<path d="M20.0823 31.205C19.7527 31.205 19.486 31.472 19.486 31.8012C19.486 32.1304 19.7527 32.3975 20.0823 32.3975H20.3428C20.6724 32.3975 20.9391 32.1304 20.9391 31.8012C20.9391 31.472 20.6724 31.205 20.3428 31.205H20.0823Z" fill="#6979F8"/>
<path d="M18.5241 10.363C18.1949 10.363 17.9278 10.63 17.9278 10.9592V12.0179L14.3079 9.38198C14.0986 9.22981 13.8148 9.22981 13.6056 9.38198L7.14597 14.085C6.88471 14.2803 6.8292 14.6495 7.02136 14.9134C7.21352 15.177 7.58192 15.2376 7.84822 15.0489L8.79271 14.361V20.8614C8.79271 21.1906 9.05979 21.4577 9.38898 21.4577H18.5241C18.8537 21.4577 19.1204 21.1906 19.1204 20.8614V14.361L20.0652 15.0489C20.3315 15.236 20.6988 15.1751 20.8905 14.9123C21.0819 14.6491 21.0272 14.2807 20.7671 14.085L19.1204 12.8859V10.9592C19.1204 10.63 18.8537 10.363 18.5241 10.363ZM17.9278 20.2651H9.98565V13.493L13.9569 10.6017L17.9278 13.493V20.2651Z" fill="#6979F8"/>
<path d="M42.6335 23.8304H42.2981C42.2892 22.9251 41.665 22.1421 40.7845 21.9321V20.3917C40.7834 17.2966 39.1258 14.4391 36.4394 12.9018C33.7535 11.3645 30.4499 11.3828 27.7807 12.9496C25.1118 14.5167 23.4856 17.3925 23.519 20.4872L23.5361 22.0517C22.934 22.2815 22.4845 22.7943 22.3354 23.4216C22.0679 24.5132 22.5869 25.6452 23.5881 26.1557L21.229 33.5901C21.179 33.7473 21.1964 33.9181 21.2772 34.0621C21.3579 34.2062 21.4946 34.3102 21.6549 34.3494C21.7453 34.3715 23.4099 34.7721 25.8769 34.7721C26.455 34.7721 27.0769 34.75 27.7329 34.6961V34.9666L23.6293 36.7182C23.6184 36.7228 23.6075 36.7279 23.5967 36.7333C22.2213 37.4267 21.3028 38.783 21.1696 40.318C21.1685 40.3343 21.1677 40.351 21.1677 40.3676V47.4037C21.1677 47.7329 21.4348 48 21.764 48H41.3443C41.6735 48 41.9406 47.7329 41.9406 47.4037V40.3676C41.9406 40.3513 41.9398 40.3346 41.9387 40.318C41.8055 38.783 40.887 37.4267 39.5112 36.7333C39.5008 36.7279 39.4899 36.7228 39.4786 36.7182L35.3754 34.9666V34.6945C36.3393 34.7492 37.4126 34.7508 37.4697 34.7508C37.6661 34.7508 37.8501 34.6541 37.9612 34.4923L38.172 34.186L38.2364 34.349C38.3315 34.5893 38.571 34.7411 38.8292 34.7248C39.7644 34.6747 40.6941 34.5493 41.6091 34.3494C41.7694 34.3102 41.906 34.2062 41.9868 34.0621C42.0675 33.9185 42.085 33.7473 42.0349 33.5901L40.2383 27.929V27.033H40.3288C41.4165 27.0319 42.2977 26.1506 42.2993 25.0633V25.0229H42.6335C42.9627 25.0229 43.2298 24.7562 43.2298 24.4267C43.2298 24.0975 42.9627 23.8304 42.6335 23.8304V23.8304ZM39.592 20.3913V21.877H38.7275C38.3979 21.877 38.1312 22.1437 38.1312 22.4732V24.127C37.6626 24.0249 37.2065 23.8715 36.7713 23.6701C35.5916 23.1157 34.8354 22.2799 34.5163 21.1856C35.1087 20.6957 35.6215 20.1169 36.0365 19.4697C36.2147 19.193 36.1343 18.8238 35.8571 18.6456C35.58 18.4678 35.2108 18.5482 35.033 18.8253C32.8913 22.1592 28.3463 22.4344 24.7321 22.0214L24.7205 21.1433C25.0097 21.1646 25.3785 21.1821 25.8117 21.1821C26.7061 21.1821 27.5994 21.1083 28.4817 20.9616C31.7814 20.41 34.5233 18.8475 36.4103 16.4437C36.6137 16.1848 36.5683 15.8098 36.3094 15.6064C36.0505 15.4034 35.6755 15.4484 35.472 15.7073C33.7554 17.8944 31.3501 19.2644 28.323 19.7791C27.1351 19.9794 25.9274 20.0357 24.7259 19.9464C24.7539 19.4635 24.8292 18.9841 24.9499 18.5155C25.1879 18.533 25.5054 18.5485 25.889 18.5485C26.8354 18.5478 27.7791 18.4573 28.7085 18.2787C31.6793 17.7073 34.2151 16.2574 36.0749 14.0742C38.2601 15.4305 39.5901 17.8191 39.592 20.3913ZM39.0462 28.2283V29.2364C39.0458 29.8214 38.5714 30.2954 37.9864 30.2962H37.9068C38.4006 29.6759 38.7857 28.9767 39.0458 28.2283H39.0462ZM26.861 15.1592C28.9825 13.0128 32.1902 12.3618 34.9806 13.5109C33.3152 15.3781 31.1479 16.5854 28.5241 17.0986C27.4829 17.3017 26.4212 17.3836 25.361 17.3424C25.7263 16.5307 26.2345 15.7912 26.861 15.1592V15.1592ZM23.493 23.7042C23.5582 23.4235 23.7768 23.2034 24.0574 23.1367C24.0714 23.1398 24.0854 23.1429 24.0998 23.1448C25.1277 23.2857 26.1642 23.3583 27.2015 23.3626C29.7418 23.3626 31.8579 22.8684 33.4977 21.8979C34.3556 24.1332 36.6153 25.0854 38.1304 25.3517V26.4367C38.1304 26.5031 38.1417 26.5687 38.1634 26.6316C38.064 27.9103 37.521 29.0117 36.4049 30.2155C36.1549 29.6433 35.5901 29.2729 34.9654 29.2721H32.0846C31.217 29.2733 30.514 29.9763 30.5128 30.8436V30.9414C30.514 31.5594 30.8765 32.1196 31.4402 32.3731C27.8517 32.3172 24.9709 29.3944 24.9666 25.8055V25.7947C24.9666 25.5051 24.7585 25.2574 24.4732 25.2073C24.1386 25.1479 23.8435 24.9527 23.658 24.6681C23.4724 24.3832 23.413 24.0346 23.4934 23.7042H23.493ZM34.1824 34.9926C32.5019 35.7042 30.6052 35.7042 28.9251 34.9926V33.1157C30.6258 33.7228 32.4845 33.719 34.1824 33.1041V34.9926ZM35.3443 30.9414C35.3443 31.1506 35.1747 31.3203 34.9654 31.3203H32.0846C31.8754 31.3203 31.7057 31.1506 31.7053 30.9414V30.8436C31.7057 30.6343 31.8754 30.4651 32.0846 30.4647H34.9658C35.1751 30.4651 35.3447 30.6343 35.3447 30.8436L35.3443 30.9414ZM26.8548 33.5567L27.0633 32.6794C27.1397 32.3591 26.9418 32.0377 26.6215 31.9612C26.3008 31.8851 25.9794 32.0831 25.9033 32.4034L25.6242 33.5761C24.6001 33.5652 23.5784 33.4775 22.5675 33.3137L24.172 28.2566C24.7853 30.0846 26.0536 31.6208 27.7325 32.5691V33.4992C27.4332 33.5249 27.1405 33.5439 26.8552 33.5567H26.8548ZM28.3016 36.0214C30.3699 36.9515 32.738 36.9515 34.8063 36.0214L35.6448 36.3789C33.1654 38.0245 29.9418 38.0245 27.4623 36.3789L28.3016 36.0214ZM32.762 40.8739H31.9026C31.5734 40.8739 31.3063 41.1409 31.3063 41.4701C31.3063 41.7993 31.5734 42.0664 31.9026 42.0664H32.762V43.1782H31.9026C31.5734 43.1782 31.3063 43.4453 31.3063 43.7745C31.3063 44.1037 31.5734 44.3707 31.9026 44.3707H32.762V46.8075H29.8777V38.639C30.8276 38.8296 31.8032 38.8564 32.7624 38.719L32.762 40.8739ZM22.3602 40.3937C22.4643 39.2885 23.1262 38.3129 24.1149 37.8075L26.189 36.9224C26.9363 37.5237 27.7807 37.9938 28.6852 38.3125V46.8075H22.3602V40.3937ZM40.7481 40.3937V46.8075H33.955V38.4631C35.0349 38.151 36.0427 37.6273 36.9189 36.9228L38.9934 37.8079C39.9821 38.3133 40.6436 39.2885 40.7481 40.3937V40.3937ZM39.1852 33.5023L38.8703 32.7062C38.7892 32.5016 38.6021 32.3579 38.3831 32.3331C38.1642 32.3083 37.9491 32.4061 37.8245 32.5878L37.1588 33.5563C36.7535 33.552 36.0229 33.5388 35.3758 33.5004V32.5536C35.4487 32.5117 35.5217 32.4694 35.5935 32.4251C35.6409 32.396 35.6836 32.3603 35.7213 32.3191C36.0516 32.1367 36.3055 31.8424 36.4375 31.4888H37.9868C38.7143 31.4884 39.3963 31.1367 39.8187 30.5447L40.6972 33.3137C40.3292 33.3758 39.8137 33.4488 39.1852 33.5023V33.5023ZM41.1071 25.0633C41.1067 25.4923 40.7589 25.8401 40.33 25.8405H39.3234V23.0695H40.3292C40.7585 23.0699 41.106 23.4173 41.1067 23.8463L41.1071 25.0633Z" fill="#1AE5BE"/>
<path d="M27.8276 27.0485C28.1568 27.0485 28.4239 26.7814 28.4239 26.4523V25.3005C28.4239 24.9709 28.1568 24.7042 27.8276 24.7042C27.4985 24.7042 27.2314 24.9709 27.2314 25.3005V26.4523C27.2314 26.7814 27.4985 27.0485 27.8276 27.0485Z" fill="#1AE5BE"/>
<path d="M35.2318 27.0485C35.5613 27.0485 35.828 26.7814 35.828 26.4523V25.3005C35.828 24.9709 35.5613 24.7042 35.2318 24.7042C34.9026 24.7042 34.6355 24.9709 34.6355 25.3005V26.4523C34.6355 26.7814 34.9026 27.0485 35.2318 27.0485Z" fill="#1AE5BE"/>
</g>
<defs>
<clipPath id="clip0">
<rect width="48" height="48" fill="white"/>
</clipPath>
</defs>
</svg>
