<svg width="32" height="32" viewBox="0 0 32 32" fill="none" xmlns="http://www.w3.org/2000/svg">
<circle cx="16" cy="16" r="16" fill="#253141"/>
<path d="M23.1498 12.6434C23.1612 12.8033 23.1612 12.9632 23.1612 13.1231C23.1612 18 19.4493 23.6193 12.665 23.6193C10.5749 23.6193 8.63326 23.014 7 21.9632C7.29697 21.9975 7.58247 22.0089 7.89086 22.0089C9.61546 22.0089 11.2031 21.4264 12.4708 20.4328C10.849 20.3985 9.48985 19.3363 9.02156 17.8744C9.25001 17.9086 9.47842 17.9315 9.71829 17.9315C10.0495 17.9315 10.3807 17.8858 10.6891 17.8059C8.99875 17.4632 7.73094 15.9784 7.73094 14.1853V14.1396C8.22204 14.4137 8.79315 14.585 9.39844 14.6079C8.40478 13.9454 7.75379 12.8147 7.75379 11.5355C7.75379 10.8502 7.9365 10.2221 8.25631 9.67384C10.0723 11.9124 12.802 13.3743 15.8629 13.5343C15.8058 13.2601 15.7716 12.9746 15.7716 12.6891C15.7716 10.6561 17.4162 9 19.4607 9C20.5228 9 21.4822 9.44543 22.1561 10.165C22.9898 10.0051 23.7893 9.69669 24.4975 9.27411C24.2233 10.1307 23.6409 10.8503 22.8756 11.3071C23.618 11.2272 24.3376 11.0216 25 10.7361C24.4975 11.467 23.8693 12.118 23.1498 12.6434Z" fill="white"/>
</svg>
