<svg width="193" height="55" viewBox="0 0 193 55" fill="none" xmlns="http://www.w3.org/2000/svg">
<path d="M37.3473 38.4731C39.3517 41.9202 41.3337 45.3282 43.3142 48.7324C34.5441 55.3866 20.8994 56.1908 10.7985 48.5279C-0.825486 39.7026 -2.73599 24.6441 3.4873 13.8044C10.645 1.33641 24.0393 -1.42097 32.6634 0.60091C32.4302 1.10306 27.265 11.7227 27.265 11.7227C27.265 11.7227 26.8567 11.7493 26.6257 11.7537C24.0766 11.8608 22.178 12.4486 20.1431 13.4913C17.9105 14.6459 15.9972 16.3248 14.5705 18.3814C13.1437 20.4379 12.247 22.8095 11.9586 25.2888C11.6577 27.8032 12.0086 30.3521 12.978 32.6947C13.7976 34.6753 14.957 36.4343 16.5113 37.9193C18.8957 40.1996 21.7332 41.6115 25.0222 42.079C28.1368 42.5221 31.1322 42.0834 33.9391 40.6855C34.9919 40.162 35.8876 39.5838 36.9345 38.7907C37.0678 38.705 37.1863 38.5965 37.3473 38.4731Z" fill="#FF492C"/>
<path d="M37.3668 8.24174C36.8579 7.7455 36.3862 7.28766 35.9168 6.82687C35.6366 6.55216 35.3669 6.26638 35.08 5.99832C34.9772 5.90159 34.8565 5.7694 34.8565 5.7694C34.8565 5.7694 34.9541 5.56411 34.9958 5.47993C35.545 4.38776 36.4056 3.58949 37.4264 2.95443C38.5552 2.24683 39.8704 1.88681 41.2057 1.91986C42.9142 1.95309 44.5028 2.37474 45.8433 3.51048C46.8329 4.34862 47.3403 5.41199 47.4297 6.68139C47.5787 8.8229 46.6846 10.463 44.9089 11.6076C43.8658 12.2811 42.7406 12.8017 41.6125 13.4183C40.9903 13.7587 40.4583 14.0578 39.8503 14.6736C39.3153 15.2917 39.2892 15.8744 39.2892 15.8744L47.3716 15.864V19.4315H34.8959C34.8959 19.4315 34.8959 19.1878 34.8959 19.0866C34.8483 17.3336 35.0547 15.6839 35.8646 14.0918C36.6097 12.6311 37.7677 11.5618 39.1588 10.7384C40.2303 10.1041 41.3584 9.56431 42.4321 8.93293C43.0946 8.54377 43.5625 7.97294 43.5588 7.14514C43.5588 6.43475 43.0372 5.80337 42.2921 5.6062C40.5351 5.13655 38.7468 5.88608 37.8168 7.47966C37.6812 7.71227 37.5426 7.9434 37.3668 8.24174Z" fill="#FF492C"/>
<path d="M53.0003 34.6813L46.1891 23.0241H32.7105L25.8553 34.8016H39.433L46.1332 46.4034L53.0003 34.6813Z" fill="#FF492C"/>
<path fill-rule="evenodd" clip-rule="evenodd" d="M85 32.27L90.17 35.39C90.55 35.62 91.02 35.28 90.92 34.85L89.55 28.97L94.11 25.02C94.44 24.73 94.27 24.18 93.82 24.14L87.81 23.63L85.46 18.09C85.29 17.68 84.71 17.68 84.54 18.09L82.19 23.63L76.18 24.14C75.74 24.18 75.56 24.73 75.9 25.02L80.46 28.97L79.09 34.85C78.99 35.28 79.46 35.62 79.84 35.39L85 32.27Z" fill="#FF492C"/>
<path fill-rule="evenodd" clip-rule="evenodd" d="M133 32.27L138.17 35.39C138.55 35.62 139.02 35.28 138.92 34.85L137.55 28.97L142.11 25.02C142.44 24.73 142.27 24.18 141.82 24.14L135.81 23.63L133.46 18.09C133.29 17.68 132.71 17.68 132.54 18.09L130.19 23.63L124.18 24.14C123.74 24.18 123.56 24.73 123.9 25.02L128.46 28.97L127.09 34.85C126.99 35.28 127.46 35.62 127.84 35.39L133 32.27Z" fill="#FF492C"/>
<path fill-rule="evenodd" clip-rule="evenodd" d="M109 32.27L114.17 35.39C114.55 35.62 115.02 35.28 114.92 34.85L113.55 28.97L118.11 25.02C118.44 24.73 118.27 24.18 117.82 24.14L111.81 23.63L109.46 18.09C109.29 17.68 108.71 17.68 108.54 18.09L106.19 23.63L100.18 24.14C99.74 24.18 99.56 24.73 99.9 25.02L104.46 28.97L103.09 34.85C102.99 35.28 103.46 35.62 103.84 35.39L109 32.27Z" fill="#FF492C"/>
<path fill-rule="evenodd" clip-rule="evenodd" d="M157 32.27L162.17 35.39C162.55 35.62 163.02 35.28 162.92 34.85L161.55 28.97L166.11 25.02C166.44 24.73 166.27 24.18 165.82 24.14L159.81 23.63L157.46 18.09C157.29 17.68 156.71 17.68 156.54 18.09L154.19 23.63L148.18 24.14C147.74 24.18 147.56 24.73 147.9 25.02L152.46 28.97L151.09 34.85C150.99 35.28 151.46 35.62 151.84 35.39L157 32.27Z" fill="#FF492C"/>
<path fill-rule="evenodd" clip-rule="evenodd" d="M181 32.27L186.17 35.39C186.55 35.62 187.02 35.28 186.92 34.85L185.55 28.97L190.11 25.02C190.44 24.73 190.27 24.18 189.82 24.14L183.81 23.63L181.46 18.09C181.29 17.68 180.71 17.68 180.54 18.09L178.19 23.63L172.18 24.14C171.74 24.18 171.56 24.73 171.9 25.02L176.46 28.97L175.09 34.85C174.99 35.28 175.46 35.62 175.84 35.39L181 32.27Z" fill="#FF492C"/>
</svg>
