<svg width="32" height="32" viewBox="0 0 32 32" fill="none" xmlns="http://www.w3.org/2000/svg">
<circle cx="16" cy="16" r="16" fill="#253141"/>
<path d="M24.6239 11.9803C24.4169 11.2008 23.8069 10.5869 23.0325 10.3786C21.6288 10 16 10 16 10C16 10 10.3713 10 8.96752 10.3786C8.19308 10.5869 7.58314 11.2008 7.37613 11.9803C7 13.3931 7 16.3409 7 16.3409C7 16.3409 7 19.2887 7.37613 20.7015C7.58314 21.481 8.19308 22.0693 8.96752 22.2777C10.3713 22.6562 16 22.6562 16 22.6562C16 22.6562 21.6287 22.6562 23.0325 22.2777C23.8069 22.0693 24.4169 21.481 24.6239 20.7015C25 19.2887 25 16.3409 25 16.3409C25 16.3409 25 13.3931 24.6239 11.9803ZM14.1591 19.0173V13.6645L18.8636 16.341L14.1591 19.0173Z" fill="white"/>
</svg>
