<svg width="24" height="24" viewBox="0 0 24 24" fill="none" xmlns="http://www.w3.org/2000/svg">
<path d="M19.1528 5.42737C17.6481 3.78674 15.4262 2.91956 12.7262 2.91956C10.3356 2.91956 8.0059 3.84768 6.17309 5.53518C4.34027 7.22268 3.21527 9.46331 3.00434 11.8539C2.7934 14.2774 3.5434 16.5555 5.11371 18.2711C6.67934 19.9774 8.86371 20.9196 11.2731 20.9196C12.7965 20.9196 13.7856 20.8071 15.2809 20.1836C15.6606 20.0242 15.8434 19.5836 15.684 19.2039C15.5246 18.8242 15.084 18.6414 14.7043 18.8008C13.4293 19.3352 12.6512 19.4242 11.2778 19.4242C9.29496 19.4242 7.49965 18.6555 6.22465 17.2633C4.94027 15.8617 4.32621 13.9867 4.50434 11.9899C4.86996 7.81799 8.56371 4.42424 12.7356 4.42424C15.0043 4.42424 16.8418 5.12268 18.0559 6.44456C19.209 7.70549 19.7246 9.44456 19.5465 11.4696C19.3918 13.2227 18.7122 14.0852 18.1731 14.4977C17.6575 14.8914 17.1418 14.9758 16.8606 14.9242C16.0309 14.7789 15.5996 13.9633 15.7075 12.7539L16.1059 8.23987C16.1434 7.82737 15.8387 7.46174 15.4262 7.42893C15.0137 7.39143 14.6481 7.69612 14.6153 8.10862L14.5778 8.53518C13.8653 7.81799 12.9184 7.42424 11.9012 7.42424C10.7856 7.42424 9.72152 7.89768 8.90121 8.75549C8.11371 9.57581 7.62621 10.6821 7.52309 11.8586C7.4059 13.1664 7.79496 14.4039 8.57777 15.2617C9.26215 16.0117 10.209 16.4242 11.245 16.4242C12.3887 16.4242 13.4668 16.0024 14.2778 15.243C14.3903 15.1399 14.4981 15.0274 14.5965 14.9102C15.0606 15.8055 15.8575 16.2696 16.6075 16.4055C17.3996 16.5461 18.3278 16.2789 19.0965 15.693C19.8793 15.093 20.8496 13.8977 21.0512 11.6055C21.2434 9.17268 20.5778 6.98362 19.1528 5.42737ZM11.2262 14.9196C10.6075 14.9196 10.0684 14.6852 9.66527 14.2446C9.16371 13.6961 8.91996 12.8711 8.99965 11.9852C9.14965 10.2649 10.42 8.91956 11.8871 8.91956C12.534 8.91956 13.1293 9.18206 13.57 9.66018C14.0809 10.218 14.3293 11.0149 14.2543 11.8539C14.0668 13.968 12.595 14.9196 11.2262 14.9196Z" fill="#B52184"/>
</svg>
