<svg width="32" height="32" viewBox="0 0 32 32" fill="none" xmlns="http://www.w3.org/2000/svg">
<path d="M21.3125 14.2188V9.71875L18.9375 12.0938V14.2188C18.9344 15.8031 17.625 17.0969 16 17.0938C15.4031 17.0969 14.85 16.925 14.375 16.625L12.6875 18.3438C13.5969 19.0437 14.7469 19.4688 16 19.4688C18.9313 19.4688 21.3125 17.1219 21.3125 14.2188Z" fill="#5F6368"/>
<path d="M26.0313 13.9375H24.1563C24.0188 13.9375 23.9063 14.05 23.9063 14.1875C23.9063 18.5719 20.3531 22.125 15.9688 22.125C14 22.125 12.1969 21.4062 10.8125 20.2187L9.12501 21.9062C10.6531 23.2562 12.5875 24.1656 14.7188 24.4375V27.625H10.1875C9.75314 27.625 9.40939 28.0719 9.40626 28.625V29.75C9.40939 29.8875 9.49689 30 9.59376 30H22.3438C22.4438 30 22.5313 29.8875 22.5313 29.75V28.625C22.5313 28.0719 22.1875 27.625 21.75 27.625H17.0938V24.4375C22.2594 23.8781 26.2813 19.5031 26.2813 14.1875C26.2813 14.05 26.1688 13.9375 26.0313 13.9375ZM26.4406 2.13437L25.0813 0.824993C24.9844 0.731243 24.8281 0.731243 24.7313 0.828118L20.7 4.85937C19.8219 3.16249 18.0313 1.99999 15.9688 1.99999C13.0344 1.99999 10.6563 4.35312 10.6563 7.24999V14.25C10.6563 14.4594 10.6688 14.6656 10.6938 14.8687L8.56876 16.9937C8.24064 16.1219 8.05939 15.175 8.06251 14.1875C8.05626 14.05 7.94376 13.9375 7.81251 13.9375H5.93751C5.80001 13.9375 5.68751 14.05 5.68751 14.1875C5.68751 15.8437 6.07814 17.4062 6.76876 18.7937L2.48751 23.075C2.39064 23.1719 2.39064 23.3312 2.48751 23.4281L3.82189 24.7625C3.91876 24.8594 4.07814 24.8594 4.17501 24.7625L26.4438 2.49374L26.4469 2.49062C26.5438 2.39062 26.5406 2.23124 26.4406 2.13437ZM13.0313 12.5312V7.24999C13.0313 5.66874 14.3406 4.37499 15.9688 4.37499C17.4063 4.37499 18.5969 5.38437 18.8531 6.70937L13.0313 12.5312Z" fill="#5F6368"/>
</svg>
