<svg width="235" height="134" viewBox="0 0 235 134" fill="none" xmlns="http://www.w3.org/2000/svg">
<path d="M223 54C229.627 54 235 59.3726 235 66V66C235 72.6274 229.627 78 223 78L14 78V54L223 54Z" fill="white"/>
<path d="M57.3042 8.03452C62.2269 3.59718 69.5247 4.23404 73.6044 9.45699V9.45699C77.684 14.6799 77.0006 22.5112 72.0779 26.9485L19.9142 73.9694L5.14051 55.0554L57.3042 8.03452Z" fill="white"/>
<path d="M57.3042 125.065C62.2269 129.502 69.5247 128.866 73.6044 123.643V123.643C77.684 118.42 77.0006 110.588 72.0779 106.151L19.9142 59.1303L5.14051 78.0442L57.3042 125.065Z" fill="white"/>
<ellipse cx="13.7539" cy="66.4886" rx="14.7752" ry="13.7539" transform="rotate(90 13.7539 66.4886)" fill="white"/>
</svg>
