<svg width="685" height="185" viewBox="0 0 685 185" fill="none" xmlns="http://www.w3.org/2000/svg">
<mask id="mask0_34_1692" style="mask-type:alpha" maskUnits="userSpaceOnUse" x="0" y="0" width="685" height="185">
<rect width="685" height="185" fill="#D9D9D9"/>
</mask>
<g mask="url(#mask0_34_1692)">
<path fill-rule="evenodd" clip-rule="evenodd" d="M47 10.6667C27.1178 10.6667 11 26.7844 11 46.6667V88.6667H100.556V78.5556C100.556 71.3759 106.376 65.5556 113.556 65.5556H148.222C155.402 65.5556 161.222 71.3758 161.222 78.5555V88.6667H172.778V46.6667C172.778 26.7844 156.66 10.6667 136.778 10.6667H47Z" fill="#4E5EF2"/>
<path d="M28 63H77V104C77 108.418 73.4183 112 69 112H36C31.5817 112 28 108.418 28 104V63Z" fill="#4E5EF2"/>
<path d="M155 120H106V79C106 74.5817 109.582 71 114 71H147C151.418 71 155 74.5817 155 79V120Z" fill="#4DC9FF"/>
<path fill-rule="evenodd" clip-rule="evenodd" d="M22.5556 94.4444H11V136.444C11 156.327 27.1178 172.444 47 172.444H136.778C156.66 172.444 172.778 156.327 172.778 136.444V94.4444H83.2222V104.556C83.2222 111.735 77.4019 117.556 70.2222 117.556H35.5556C28.3759 117.556 22.5556 111.735 22.5556 104.556V94.4444Z" fill="#4DC9FF"/>
<path d="M242.466 90.52C247.265 91.5427 251.119 93.942 254.03 97.718C256.941 101.415 258.396 105.663 258.396 110.462C258.396 117.385 255.957 122.891 251.08 126.982C246.281 130.994 239.555 133 230.902 133H192.316V50.164H229.604C238.021 50.164 244.59 52.0913 249.31 55.946C254.109 59.8007 256.508 65.032 256.508 71.64C256.508 76.5173 255.21 80.5687 252.614 83.794C250.097 87.0193 246.714 89.2613 242.466 90.52ZM212.494 83.676H225.71C229.014 83.676 231.531 82.968 233.262 81.552C235.071 80.0573 235.976 77.894 235.976 75.062C235.976 72.23 235.071 70.0667 233.262 68.572C231.531 67.0773 229.014 66.33 225.71 66.33H212.494V83.676ZM227.362 116.716C230.745 116.716 233.341 115.969 235.15 114.474C237.038 112.901 237.982 110.659 237.982 107.748C237.982 104.837 236.999 102.556 235.032 100.904C233.144 99.252 230.509 98.426 227.126 98.426H212.494V116.716H227.362ZM290.277 45.68V133H270.099V45.68H290.277ZM334.872 133.944C328.421 133.944 322.6 132.567 317.408 129.814C312.295 127.061 308.243 123.127 305.254 118.014C302.343 112.901 300.888 106.922 300.888 100.078C300.888 93.3127 302.383 87.3733 305.372 82.26C308.361 77.068 312.452 73.0953 317.644 70.342C322.836 67.5887 328.657 66.212 335.108 66.212C341.559 66.212 347.38 67.5887 352.572 70.342C357.764 73.0953 361.855 77.068 364.844 82.26C367.833 87.3733 369.328 93.3127 369.328 100.078C369.328 106.843 367.794 112.822 364.726 118.014C361.737 123.127 357.607 127.061 352.336 129.814C347.144 132.567 341.323 133.944 334.872 133.944ZM334.872 116.48C338.727 116.48 341.991 115.064 344.666 112.232C347.419 109.4 348.796 105.349 348.796 100.078C348.796 94.8073 347.459 90.756 344.784 87.924C342.188 85.092 338.963 83.676 335.108 83.676C331.175 83.676 327.91 85.092 325.314 87.924C322.718 90.6773 321.42 94.7287 321.42 100.078C321.42 105.349 322.679 109.4 325.196 112.232C327.792 115.064 331.017 116.48 334.872 116.48ZM376.021 100.078C376.021 93.234 377.397 87.2553 380.151 82.142C382.983 77.0287 386.877 73.0953 391.833 70.342C396.867 67.5887 402.61 66.212 409.061 66.212C417.321 66.212 424.204 68.3753 429.711 72.702C435.296 77.0287 438.954 83.1253 440.685 90.992H419.209C417.399 85.9573 413.899 83.44 408.707 83.44C405.009 83.44 402.059 84.8953 399.857 87.806C397.654 90.638 396.553 94.7287 396.553 100.078C396.553 105.427 397.654 109.557 399.857 112.468C402.059 115.3 405.009 116.716 408.707 116.716C413.899 116.716 417.399 114.199 419.209 109.164H440.685C438.954 116.873 435.296 122.931 429.711 127.336C424.125 131.741 417.242 133.944 409.061 133.944C402.61 133.944 396.867 132.567 391.833 129.814C386.877 127.061 382.983 123.127 380.151 118.014C377.397 112.901 376.021 106.922 376.021 100.078ZM491.716 133L471.656 105.388V133H451.478V45.68H471.656V93.942L491.598 67.156H516.496L489.12 100.196L516.732 133H491.716Z" fill="#4E5EF2"/>
<path d="M534.569 60.312C531.029 60.312 528.119 59.2893 525.837 57.244C523.635 55.12 522.533 52.524 522.533 49.456C522.533 46.3093 523.635 43.7133 525.837 41.668C528.119 39.544 531.029 38.482 534.569 38.482C538.031 38.482 540.863 39.544 543.065 41.668C545.347 43.7133 546.487 46.3093 546.487 49.456C546.487 52.524 545.347 55.12 543.065 57.244C540.863 59.2893 538.031 60.312 534.569 60.312ZM544.599 67.156V133H524.421V67.156H544.599ZM592.262 83.912H581.406V133H561.228V83.912H553.912V67.156H561.228V65.268C561.228 57.1653 563.549 51.0293 568.19 46.86C572.832 42.612 579.636 40.488 588.604 40.488C590.099 40.488 591.2 40.5273 591.908 40.606V57.716C588.054 57.48 585.34 58.0307 583.766 59.368C582.193 60.7053 581.406 63.1047 581.406 66.566V67.156H592.262V83.912ZM669.004 67.156L627.704 164.27H605.992L621.096 130.758L594.31 67.156H616.848L632.07 108.338L647.174 67.156H669.004Z" fill="#4DC9FF"/>
</g>
</svg>
