<svg width="162" height="162" viewBox="0 0 162 162" fill="none" xmlns="http://www.w3.org/2000/svg">
<path fill-rule="evenodd" clip-rule="evenodd" d="M36 0C16.1178 0 0 16.1177 0 36V78H89.5556V67.8889C89.5556 60.7092 95.3759 54.8889 102.556 54.8889H137.222C144.402 54.8889 150.222 60.7092 150.222 67.8889V78H161.778V36C161.778 16.1178 145.66 0 125.778 0H36Z" fill="#4E5EF2"/>
<path d="M17.3334 77H66.4445V93.11C66.4445 97.5283 62.8628 101.11 58.4445 101.11H25.3334C20.9151 101.11 17.3334 97.5283 17.3334 93.11V77Z" fill="#4E5EF2"/>
<path d="M144.444 84.78H95.3333V68.67C95.3333 64.2517 98.9151 60.67 103.333 60.67H136.444C140.863 60.67 144.444 64.2517 144.444 68.67V84.78Z" fill="#4DC9FF"/>
<path fill-rule="evenodd" clip-rule="evenodd" d="M11.5556 83.7778H0V125.778C0 145.66 16.1178 161.778 36 161.778H125.778C145.66 161.778 161.778 145.66 161.778 125.778V83.7778H72.2222V93.8889C72.2222 101.069 66.4019 106.889 59.2222 106.889H24.5556C17.3759 106.889 11.5556 101.069 11.5556 93.8889V83.7778Z" fill="#4DC9FF"/>
</svg>
