<svg width="161" height="160" viewBox="0 0 161 160" fill="none" xmlns="http://www.w3.org/2000/svg">
<path d="M46.3501 82.276C46.3501 84.9931 47.5542 87.4322 49.4376 89.1304V93.0824C49.4376 95.6451 51.5063 97.7137 54.0689 97.7137C56.6316 97.7137 58.7003 95.6451 58.7003 93.0824V91.5386H83.4006V93.0824C83.4006 95.6142 85.4692 97.7137 88.0319 97.7137C90.5637 97.7137 92.6632 95.6451 92.6632 93.0824V89.1304C94.5466 87.4322 95.7507 84.9931 95.7507 82.276V51.4006C95.7507 40.5942 84.6973 39.0505 71.0504 39.0505C57.4035 39.0505 46.3501 40.5942 46.3501 51.4006V82.276ZM57.1565 85.3636C54.5938 85.3636 52.5252 83.2949 52.5252 80.7323C52.5252 78.1696 54.5938 76.1009 57.1565 76.1009C59.7191 76.1009 61.7878 78.1696 61.7878 80.7323C61.7878 83.2949 59.7191 85.3636 57.1565 85.3636ZM84.9443 85.3636C82.3817 85.3636 80.313 83.2949 80.313 80.7323C80.313 78.1696 82.3817 76.1009 84.9443 76.1009C87.507 76.1009 89.5756 78.1696 89.5756 80.7323C89.5756 83.2949 87.507 85.3636 84.9443 85.3636ZM89.5756 66.8383H52.5252V51.4006H89.5756V66.8383Z" fill="#3B79F0"/>
<path d="M126.626 29.7879C126.626 51.4006 98.8384 69.9259 98.8384 69.9259C98.8384 69.9259 71.0505 51.4006 71.0505 29.7879C71.0505 22.4181 73.9782 15.3501 79.1894 10.1389C84.4006 4.92764 91.4686 2 98.8384 2C106.208 2 113.276 4.92764 118.487 10.1389C123.699 15.3501 126.626 22.4181 126.626 29.7879Z" fill="#3B79F0" stroke="white" stroke-width="3" stroke-linecap="round" stroke-linejoin="round"/>
<path d="M98.8385 39.0505C103.954 39.0505 108.101 34.9035 108.101 29.7879C108.101 24.6723 103.954 20.5252 98.8385 20.5252C93.7229 20.5252 89.5759 24.6723 89.5759 29.7879C89.5759 34.9035 93.7229 39.0505 98.8385 39.0505Z" fill="white"/>
<path d="M14.75 139.9C15.7167 140.217 16.4833 140.75 17.05 141.5C17.6167 142.233 17.9 143.15 17.9 144.25C17.9 145.767 17.3167 146.942 16.15 147.775C14.9833 148.592 13.2833 149 11.05 149H2.35V131.5H10.55C12.6167 131.5 14.2083 131.908 15.325 132.725C16.4417 133.525 17 134.633 17 136.05C17 136.917 16.8 137.683 16.4 138.35C16 139.017 15.45 139.533 14.75 139.9ZM5.6 134.05V138.875H10.2C11.3333 138.875 12.2 138.675 12.8 138.275C13.4167 137.858 13.725 137.258 13.725 136.475C13.725 135.675 13.4167 135.075 12.8 134.675C12.2 134.258 11.3333 134.05 10.2 134.05H5.6ZM10.85 146.45C13.3667 146.45 14.625 145.608 14.625 143.925C14.625 142.242 13.3667 141.4 10.85 141.4H5.6V146.45H10.85ZM33.9936 135.65V149H31.0186V147.3C30.5186 147.9 29.8936 148.367 29.1436 148.7C28.3936 149.017 27.5852 149.175 26.7186 149.175C24.9352 149.175 23.5269 148.683 22.4936 147.7C21.4769 146.7 20.9686 145.225 20.9686 143.275V135.65H24.0936V142.85C24.0936 144.05 24.3602 144.95 24.8936 145.55C25.4436 146.133 26.2186 146.425 27.2186 146.425C28.3352 146.425 29.2186 146.083 29.8686 145.4C30.5352 144.7 30.8686 143.7 30.8686 142.4V135.65H33.9936ZM42.2102 149.175C41.1268 149.175 40.0685 149.033 39.0352 148.75C38.0018 148.467 37.1768 148.108 36.5602 147.675L37.7602 145.3C38.3602 145.7 39.0768 146.025 39.9102 146.275C40.7602 146.508 41.5935 146.625 42.4102 146.625C44.2768 146.625 45.2102 146.133 45.2102 145.15C45.2102 144.683 44.9685 144.358 44.4852 144.175C44.0185 143.992 43.2602 143.817 42.2102 143.65C41.1102 143.483 40.2102 143.292 39.5102 143.075C38.8268 142.858 38.2268 142.483 37.7102 141.95C37.2102 141.4 36.9602 140.642 36.9602 139.675C36.9602 138.408 37.4852 137.4 38.5352 136.65C39.6018 135.883 41.0352 135.5 42.8352 135.5C43.7518 135.5 44.6685 135.608 45.5852 135.825C46.5018 136.025 47.2518 136.3 47.8352 136.65L46.6352 139.025C45.5018 138.358 44.2268 138.025 42.8102 138.025C41.8935 138.025 41.1935 138.167 40.7102 138.45C40.2435 138.717 40.0102 139.075 40.0102 139.525C40.0102 140.025 40.2602 140.383 40.7602 140.6C41.2768 140.8 42.0685 140.992 43.1352 141.175C44.2018 141.342 45.0768 141.533 45.7602 141.75C46.4435 141.967 47.0268 142.333 47.5102 142.85C48.0102 143.367 48.2602 144.1 48.2602 145.05C48.2602 146.3 47.7185 147.3 46.6352 148.05C45.5518 148.8 44.0768 149.175 42.2102 149.175ZM61.7105 134.25H55.9105V131.5H70.7605V134.25H64.9605V149H61.7105V134.25ZM75.5572 137.6C76.4572 136.2 78.0406 135.5 80.3072 135.5V138.475C80.0406 138.425 79.7989 138.4 79.5822 138.4C78.3656 138.4 77.4156 138.758 76.7322 139.475C76.0489 140.175 75.7072 141.192 75.7072 142.525V149H72.5822V135.65H75.5572V137.6ZM87.985 135.5C89.9516 135.5 91.4516 135.975 92.485 136.925C93.535 137.858 94.06 139.275 94.06 141.175V149H91.11V147.375C90.7266 147.958 90.1766 148.408 89.46 148.725C88.76 149.025 87.91 149.175 86.91 149.175C85.91 149.175 85.035 149.008 84.285 148.675C83.535 148.325 82.9516 147.85 82.535 147.25C82.135 146.633 81.935 145.942 81.935 145.175C81.935 143.975 82.3766 143.017 83.26 142.3C84.16 141.567 85.5683 141.2 87.485 141.2H90.935V141C90.935 140.067 90.6516 139.35 90.085 138.85C89.535 138.35 88.71 138.1 87.61 138.1C86.86 138.1 86.1183 138.217 85.385 138.45C84.6683 138.683 84.06 139.008 83.56 139.425L82.335 137.15C83.035 136.617 83.8766 136.208 84.86 135.925C85.8433 135.642 86.885 135.5 87.985 135.5ZM87.56 146.9C88.3433 146.9 89.035 146.725 89.635 146.375C90.2516 146.008 90.685 145.492 90.935 144.825V143.275H87.71C85.91 143.275 85.01 143.867 85.01 145.05C85.01 145.617 85.235 146.067 85.685 146.4C86.135 146.733 86.76 146.9 87.56 146.9ZM104.318 149.175C102.934 149.175 101.693 148.883 100.593 148.3C99.4926 147.717 98.6342 146.908 98.0176 145.875C97.4009 144.825 97.0926 143.642 97.0926 142.325C97.0926 141.008 97.4009 139.833 98.0176 138.8C98.6342 137.767 99.4842 136.958 100.568 136.375C101.668 135.792 102.918 135.5 104.318 135.5C105.634 135.5 106.784 135.767 107.768 136.3C108.768 136.833 109.518 137.6 110.018 138.6L107.618 140C107.234 139.383 106.751 138.925 106.168 138.625C105.601 138.308 104.976 138.15 104.293 138.15C103.126 138.15 102.159 138.533 101.393 139.3C100.626 140.05 100.243 141.058 100.243 142.325C100.243 143.592 100.618 144.608 101.368 145.375C102.134 146.125 103.109 146.5 104.293 146.5C104.976 146.5 105.601 146.35 106.168 146.05C106.751 145.733 107.234 145.267 107.618 144.65L110.018 146.05C109.501 147.05 108.743 147.825 107.743 148.375C106.759 148.908 105.618 149.175 104.318 149.175ZM118.047 143.275L115.722 145.475V149H112.597V130.45H115.722V141.65L122.197 135.65H125.947L120.372 141.25L126.472 149H122.672L118.047 143.275ZM140.479 142.4C140.479 142.617 140.462 142.925 140.429 143.325H129.954C130.137 144.308 130.612 145.092 131.379 145.675C132.162 146.242 133.129 146.525 134.279 146.525C135.746 146.525 136.954 146.042 137.904 145.075L139.579 147C138.979 147.717 138.221 148.258 137.304 148.625C136.387 148.992 135.354 149.175 134.204 149.175C132.737 149.175 131.446 148.883 130.329 148.3C129.212 147.717 128.346 146.908 127.729 145.875C127.129 144.825 126.829 143.642 126.829 142.325C126.829 141.025 127.121 139.858 127.704 138.825C128.304 137.775 129.129 136.958 130.179 136.375C131.229 135.792 132.412 135.5 133.729 135.5C135.029 135.5 136.187 135.792 137.204 136.375C138.237 136.942 139.037 137.75 139.604 138.8C140.187 139.833 140.479 141.033 140.479 142.4ZM133.729 138C132.729 138 131.879 138.3 131.179 138.9C130.496 139.483 130.079 140.267 129.929 141.25H137.504C137.371 140.283 136.962 139.5 136.279 138.9C135.596 138.3 134.746 138 133.729 138ZM146.456 137.6C147.356 136.2 148.939 135.5 151.206 135.5V138.475C150.939 138.425 150.697 138.4 150.481 138.4C149.264 138.4 148.314 138.758 147.631 139.475C146.947 140.175 146.606 141.192 146.606 142.525V149H143.481V135.65H146.456V137.6Z" fill="black"/>
</svg>
