<svg id="icons" enable-background="new 0 0 64 64" height="512" viewBox="0 0 64 64" width="512" xmlns="http://www.w3.org/2000/svg"><g><g><g><path d="m38.995 32.52v4c0 1.051-.16 2.051-.46 3-1.271 4.051-5.061 6.99-9.54 6.99-5.521 0-10-4.471-10-9.99v-4z" fill="#ed5565"/></g></g><g><g><path d="m35.992 32.52v4c0 1.051-.16 2.051-.46 3-1.123 3.58-4.215 6.289-8.01 6.871.481.07.971.119 1.473.119 4.479 0 8.27-2.939 9.54-6.99.3-.949.46-1.949.46-3v-4z" fill="#da4453"/></g></g><g><g><path d="m55.995 36.49c0 14.359-11.65 26-26 26-14.36 0-26-11.641-26-26 0-7.381 3.07-14.041 8.02-18.77.931-.9 1.931-1.73 3-2.48 4.23-2.99 9.4-4.75 14.98-4.75 5.59 0 10.78 1.77 15.02 4.779 1.07.75 2.07 1.58 3 2.48 4.92 4.741 7.98 11.382 7.98 18.741zm-26 23c12.7 0 23-10.301 23-23 0-12.701-10.3-23-23-23s-23 10.299-23 23c0 12.699 10.3 23 23 23z" fill="#965353"/></g></g><g><g><path d="m28.995 46.51c4.479 0 8.27-2.939 9.54-6.99h3.46c1.66 0 3-1.35 3-3 0-1.66-1.34-3-3-3-1.65 0-3 1.34-3 3v-4h-20v4c0 5.519 4.48 9.99 10 9.99zm1-33.02c12.7 0 23 10.299 23 23 0 12.699-10.3 23-23 23s-23-10.301-23-23c0-12.701 10.3-23 23-23z" fill="#ffd2a6"/></g></g><g><g><path d="m38.995 36.52c0-1.66 1.35-3 3-3 1.66 0 3 1.34 3 3 0 1.65-1.34 3-3 3h-3.46c.3-.95.46-1.95.46-3z" fill="#ffd2a6"/></g></g><g><g><path d="m59.495 1.51c1.93 0 3.5 1.57 3.5 3.5s-1.57 3.5-3.5 3.5c-1.4 0-2.601-.82-3.16-2-.22-.449-.34-.959-.34-1.5 0-.539.12-1.049.34-1.5.56-1.18 1.76-2 3.16-2z" fill="#e6e9ed"/></g></g><g><g><path d="m48.015 6.51v11.24c-.93-.9-1.93-1.73-3-2.48v-8.76z" fill="#844747"/></g></g><g><g><path d="m15.015 6.51v8.73c-1.069.75-2.069 1.58-3 2.48l-.01-.01v-11.2z" fill="#844747"/></g></g><g><g><path d="m1.005 3.51h55.33c-.22.451-.34.961-.34 1.5 0 .541.12 1.051.34 1.5h-8.32-3-30-3.01-11z" fill="#ccd1d9"/></g></g></g><g><g><g><path d="m29.99 63.49c-14.888 0-27-12.112-27-27s12.112-27 27-27 27 12.112 27 27-12.112 27-27 27zm0-52c-13.785 0-25 11.215-25 25s11.215 25 25 25 25-11.215 25-25-11.215-25-25-25z"/></g></g><g><g><path d="m29.99 60.49c-13.233 0-24-10.767-24-24s10.767-24 24-24 24 10.767 24 24-10.766 24-24 24zm0-46c-12.131 0-22 9.869-22 22s9.869 22 22 22 22-9.869 22-22-9.869-22-22-22z"/></g></g><g><g><path d="m56.33 7.51h-55.322c-.553 0-1-.447-1-1s.447-1 1-1h55.322c.553 0 1 .447 1 1s-.447 1-1 1z"/></g></g><g><g><path d="m56.33 4.51h-55.322c-.553 0-1-.447-1-1s.447-1 1-1h55.322c.553 0 1 .447 1 1s-.447 1-1 1z"/></g></g><g><g><path d="m59.492 9.51c-2.482 0-4.502-2.019-4.502-4.5s2.02-4.5 4.502-4.5c2.481 0 4.5 2.019 4.5 4.5s-2.018 4.5-4.5 4.5zm0-7c-1.38 0-2.502 1.121-2.502 2.5s1.122 2.5 2.502 2.5c1.379 0 2.5-1.121 2.5-2.5s-1.121-2.5-2.5-2.5z"/></g></g><g><g><path d="m12.008 18.713c-.553 0-1-.447-1-1v-11.203c0-.553.447-1 1-1s1 .447 1 1v11.203c0 .553-.447 1-1 1z"/></g></g><g><g><path d="m48.012 18.748c-.553 0-1-.447-1-1v-11.238c0-.553.447-1 1-1s1 .447 1 1v11.238c0 .553-.448 1-1 1z"/></g></g><g><g><path d="m45.01 16.266c-.553 0-1-.447-1-1v-8.756c0-.553.447-1 1-1s1 .447 1 1v8.756c0 .552-.447 1-1 1z"/></g></g><g><g><path d="m15.01 16.266c-.553 0-1-.447-1-1v-8.756c0-.553.447-1 1-1s1 .447 1 1v8.756c0 .552-.447 1-1 1z"/></g></g><g><g><g><g><path d="m28.997 47.514c-6.065 0-11-4.935-11-10.999 0-.553.447-1 1-1s1 .447 1 1c0 4.962 4.037 8.999 9 8.999s9-4.037 9-8.999c0-.553.447-1 1-1s1 .447 1 1c0 6.064-4.934 10.999-11 10.999z"/></g></g><g><g><path d="m18.997 37.515c-.553 0-1-.447-1-1v-3.999c0-.553.447-1 1-1s1 .447 1 1v3.999c0 .552-.447 1-1 1z"/></g></g><g><g><path d="m38.998 33.516h-20.001c-.553 0-1-.447-1-1s.447-1 1-1h20.001c.553 0 1 .447 1 1s-.447 1-1 1z"/></g></g><g><g><path d="m38.998 47.517h-20.001c-.553 0-1-.447-1-1s.447-1 1-1h20.001c.553 0 1 .447 1 1s-.447 1-1 1z"/></g></g><g><g><path d="m38.998 37.515c-.553 0-1-.447-1-1v-3.999c0-.553.447-1 1-1s1 .447 1 1v3.999c0 .552-.447 1-1 1z"/></g></g><g><g><path d="m41.999 40.517c-.553 0-1-.447-1-1s.447-1 1-1c1.103 0 2-.897 2-2s-.897-2-2-2-2 .897-2 2c0 .553-.447 1-1 1s-1-.447-1-1c0-2.206 1.794-4 4-4s4 1.794 4 4-1.794 4-4 4z"/></g></g><g><g><path d="m41.999 40.517h-3.461c-.553 0-1-.447-1-1s.447-1 1-1h3.461c.553 0 1 .447 1 1s-.447 1-1 1z"/></g></g></g><g><g><path d="m28.998 30.514c-.553 0-1-.447-1-1v-6c0-.553.447-1 1-1s1 .447 1 1v6c0 .552-.447 1-1 1z"/></g></g><g><g><path d="m33.998 30.514c-.553 0-1-.447-1-1v-2.998c0-.553.447-1 1-1s1 .447 1 1v2.998c0 .552-.447 1-1 1z"/></g></g><g><g><path d="m23.998 30.514c-.553 0-1-.447-1-1v-2.998c0-.553.447-1 1-1s1 .447 1 1v2.998c0 .552-.447 1-1 1z"/></g></g></g></g></svg>