<?xml version="1.0" encoding="UTF-8"?>
<svg width="18px" height="18px" viewBox="0 0 18 18" version="1.1" xmlns="http://www.w3.org/2000/svg" xmlns:xlink="http://www.w3.org/1999/xlink">
    <!-- Generator: Sketch Beta 60.1 (88133) - https://sketch.com -->
    <title>calendar 1</title>
    <desc>Created with Sketch Beta.</desc>
    <g id="Page-1" stroke="none" stroke-width="1" fill="none" fill-rule="evenodd">
        <g id="Artboard" transform="translate(-482.000000, -3651.000000)" fill="#FFFFFF" fill-rule="nonzero">
            <g id="Element/Button/Medium/Filled" transform="translate(444.000000, 3639.000000)">
                <g id="calendar-1" transform="translate(38.000000, 12.000000)">
                    <path d="M16.521,0.02 C17.187,0.02 17.728,0.57 17.728,1.23 L17.728,16.52 C17.728,17.19 17.187,17.73 16.521,17.73 L1.229,17.73 C0.564,17.73 0.022,17.19 0.022,16.52 L0.022,1.23 C0.022,0.57 0.564,0.02 1.229,0.02 L16.521,0.02 Z M14.509,8.07 C14.616,8.07 14.718,8.03 14.793,7.95 C14.869,7.88 14.911,7.78 14.911,7.67 C14.911,7.56 14.869,7.46 14.793,7.39 C14.718,7.31 14.616,7.27 14.509,7.27 C14.402,7.27 14.3,7.31 14.224,7.39 C14.149,7.46 14.107,7.56 14.107,7.67 C14.107,7.78 14.149,7.88 14.224,7.95 C14.3,8.03 14.402,8.07 14.509,8.07 Z M14.509,11.29 C14.616,11.29 14.718,11.25 14.793,11.17 C14.869,11.1 14.911,11 14.911,10.89 C14.911,10.78 14.869,10.68 14.793,10.6 C14.718,10.53 14.616,10.49 14.509,10.49 C14.402,10.49 14.3,10.53 14.224,10.6 C14.149,10.68 14.107,10.78 14.107,10.89 C14.107,11 14.149,11.1 14.224,11.17 C14.3,11.25 14.402,11.29 14.509,11.29 Z M14.509,14.51 C14.616,14.51 14.718,14.47 14.793,14.39 C14.869,14.32 14.911,14.22 14.911,14.11 C14.911,14 14.869,13.9 14.793,13.82 C14.718,13.75 14.616,13.71 14.509,13.71 C14.402,13.71 14.3,13.75 14.224,13.82 C14.149,13.9 14.107,14 14.107,14.11 C14.107,14.22 14.149,14.32 14.224,14.39 C14.3,14.47 14.402,14.51 14.509,14.51 Z M11.29,7.67 C11.29,7.78 11.332,7.88 11.407,7.95 C11.483,8.03 11.585,8.07 11.692,8.07 C11.799,8.07 11.901,8.03 11.977,7.95 C12.052,7.88 12.094,7.78 12.094,7.67 C12.094,7.56 12.052,7.46 11.977,7.39 C11.901,7.31 11.799,7.27 11.692,7.27 C11.585,7.27 11.483,7.31 11.407,7.39 C11.332,7.46 11.29,7.56 11.29,7.67 Z M11.692,12.1 C12.012,12.1 12.319,11.97 12.546,11.74 C12.772,11.52 12.899,11.21 12.899,10.89 C12.899,10.57 12.772,10.26 12.546,10.04 C12.319,9.81 12.012,9.68 11.692,9.68 C11.372,9.68 11.065,9.81 10.838,10.04 C10.612,10.26 10.485,10.57 10.485,10.89 C10.485,11.21 10.612,11.52 10.838,11.74 C11.065,11.97 11.372,12.1 11.692,12.1 Z M11.692,14.51 C11.799,14.51 11.901,14.47 11.977,14.39 C12.052,14.32 12.094,14.22 12.094,14.11 C12.094,14 12.052,13.9 11.977,13.82 C11.901,13.75 11.799,13.71 11.692,13.71 C11.585,13.71 11.483,13.75 11.407,13.82 C11.332,13.9 11.29,14 11.29,14.11 C11.29,14.22 11.332,14.32 11.407,14.39 C11.483,14.47 11.585,14.51 11.692,14.51 Z M8.875,8.07 C8.982,8.07 9.084,8.03 9.16,7.95 C9.235,7.88 9.278,7.78 9.278,7.67 C9.278,7.56 9.235,7.46 9.16,7.39 C9.084,7.31 8.982,7.27 8.875,7.27 C8.768,7.27 8.666,7.31 8.591,7.39 C8.515,7.46 8.473,7.56 8.473,7.67 C8.473,7.78 8.515,7.88 8.591,7.95 C8.666,8.03 8.768,8.07 8.875,8.07 Z M8.875,11.29 C8.982,11.29 9.084,11.25 9.16,11.17 C9.235,11.1 9.278,11 9.278,10.89 C9.278,10.78 9.235,10.68 9.16,10.6 C9.084,10.53 8.982,10.49 8.875,10.49 C8.768,10.49 8.666,10.53 8.591,10.6 C8.515,10.68 8.473,10.78 8.473,10.89 C8.473,11 8.515,11.1 8.591,11.17 C8.666,11.25 8.768,11.29 8.875,11.29 Z M8.875,14.51 C8.982,14.51 9.084,14.47 9.16,14.39 C9.235,14.32 9.278,14.22 9.278,14.11 C9.278,14 9.235,13.9 9.16,13.82 C9.084,13.75 8.982,13.71 8.875,13.71 C8.768,13.71 8.666,13.75 8.591,13.82 C8.515,13.9 8.473,14 8.473,14.11 C8.473,14.22 8.515,14.32 8.591,14.39 C8.666,14.47 8.768,14.51 8.875,14.51 Z M6.058,8.07 C6.165,8.07 6.267,8.03 6.343,7.95 C6.418,7.88 6.461,7.78 6.461,7.67 C6.461,7.56 6.418,7.46 6.343,7.39 C6.267,7.31 6.165,7.27 6.058,7.27 C5.952,7.27 5.849,7.31 5.774,7.39 C5.698,7.46 5.656,7.56 5.656,7.67 C5.656,7.78 5.698,7.88 5.774,7.95 C5.849,8.03 5.952,8.07 6.058,8.07 Z M6.058,11.29 C6.165,11.29 6.267,11.25 6.343,11.17 C6.418,11.1 6.461,11 6.461,10.89 C6.461,10.78 6.418,10.68 6.343,10.6 C6.267,10.53 6.165,10.49 6.058,10.49 C5.952,10.49 5.849,10.53 5.774,10.6 C5.698,10.68 5.656,10.78 5.656,10.89 C5.656,11 5.698,11.1 5.774,11.17 C5.849,11.25 5.952,11.29 6.058,11.29 Z M6.058,14.51 C6.165,14.51 6.267,14.47 6.343,14.39 C6.418,14.32 6.461,14.22 6.461,14.11 C6.461,14 6.418,13.9 6.343,13.82 C6.267,13.75 6.165,13.71 6.058,13.71 C5.952,13.71 5.849,13.75 5.774,13.82 C5.698,13.9 5.656,14 5.656,14.11 C5.656,14.22 5.698,14.32 5.774,14.39 C5.849,14.47 5.952,14.51 6.058,14.51 Z M3.241,8.07 C3.348,8.07 3.45,8.03 3.526,7.95 C3.601,7.88 3.644,7.78 3.644,7.67 C3.644,7.56 3.601,7.46 3.526,7.39 C3.45,7.31 3.348,7.27 3.241,7.27 C3.135,7.27 3.032,7.31 2.957,7.39 C2.881,7.46 2.839,7.56 2.839,7.67 C2.839,7.78 2.881,7.88 2.957,7.95 C3.032,8.03 3.135,8.07 3.241,8.07 Z M3.241,11.29 C3.348,11.29 3.45,11.25 3.526,11.17 C3.601,11.1 3.644,11 3.644,10.89 C3.644,10.78 3.601,10.68 3.526,10.6 C3.45,10.53 3.348,10.49 3.241,10.49 C3.135,10.49 3.032,10.53 2.957,10.6 C2.881,10.68 2.839,10.78 2.839,10.89 C2.839,11 2.881,11.1 2.957,11.17 C3.032,11.25 3.135,11.29 3.241,11.29 Z M3.241,14.51 C3.348,14.51 3.45,14.47 3.526,14.39 C3.601,14.32 3.644,14.22 3.644,14.11 C3.644,14 3.601,13.9 3.526,13.82 C3.45,13.75 3.348,13.71 3.241,13.71 C3.135,13.71 3.032,13.75 2.957,13.82 C2.881,13.9 2.839,14 2.839,14.11 C2.839,14.22 2.881,14.32 2.957,14.39 C3.032,14.47 3.135,14.51 3.241,14.51 Z M1.632,4.85 L16.119,4.85 L16.119,1.63 L1.632,1.63 L1.632,4.85 Z" id="Vector"></path>
                </g>
            </g>
        </g>
    </g>
</svg>