<svg width="235" height="301" viewBox="0 0 235 301" fill="none" xmlns="http://www.w3.org/2000/svg">
<path d="M201 68V34C201 21.8497 191.15 12 179 12H57.6127C51.7779 12 46.1821 14.3179 42.0563 18.4437L18.4437 42.0563C14.3179 46.1821 12 51.7779 12 57.6127V246C12 258.15 21.8497 268 34 268H55" stroke="white" stroke-width="24"/>
<path d="M58 90.6127C58 87.9605 59.0536 85.417 60.9289 83.5416L84.5416 59.9289C86.417 58.0536 88.9605 57 91.6127 57H213C218.523 57 223 61.4772 223 67V279C223 284.523 218.523 289 213 289H68C62.4771 289 58 284.523 58 279V90.6127Z" stroke="white" stroke-width="24"/>
</svg>
