<?xml version="1.0" encoding="utf-8"?>
<!-- Generator: Adobe Illustrator 19.1.0, SVG Export Plug-In . SVG Version: 6.00 Build 0)  -->
<svg version="1.1" id="Layer_1" xmlns="http://www.w3.org/2000/svg" xmlns:xlink="http://www.w3.org/1999/xlink" x="0px" y="0px"
	 viewBox="0 0 547.9 64.4" style="enable-background:new 0 0 547.9 64.4;" xml:space="preserve">
<style type="text/css">
	.st0{fill:#FFFFFF;}
	.st1{fill:#C8C372;}
	.st2{fill:#1F4E2A;}
</style>
<g>
	<path class="st0" d="M86.3,20.8h-7.2c-3.2,0-4.9,1.6-4.9,4.5V38c0,2.9,1.8,4.5,4.9,4.5h7.2c3.2,0,4.9-1.6,4.9-4.5v-3.4h-4.7v3.2
		c0,0.3-0.1,0.6-0.8,0.6h-6c-0.6,0-0.7-0.3-0.7-0.6V25.5c0-0.3,0.1-0.6,0.7-0.6h6c0.7,0,0.8,0.3,0.8,0.6v3.2h4.7v-3.4
		C91.2,22.4,89.4,20.8,86.3,20.8z"/>
	<path class="st0" d="M108.3,20.8h-7.6c-3.2,0-4.9,1.6-4.9,4.5V38c0,2.9,1.8,4.5,4.9,4.5h7.6c3.2,0,4.9-1.6,4.9-4.5V25.3
		C113.2,22.4,111.5,20.8,108.3,20.8z M108.5,25.5v12.2c0,0.3-0.1,0.6-0.8,0.6h-6.5c-0.6,0-0.7-0.3-0.7-0.6V25.5
		c0-0.3,0.1-0.6,0.7-0.6h6.5C108.4,24.9,108.5,25.2,108.5,25.5z"/>
	<polygon class="st0" points="122.6,20.8 117.8,20.8 117.8,42.4 132.7,42.4 132.7,38.4 122.6,38.4 	"/>
	<path class="st0" d="M148.8,20.8h-7.6c-3.2,0-4.9,1.6-4.9,4.5V38c0,2.9,1.8,4.5,4.9,4.5h7.6c3.2,0,4.9-1.6,4.9-4.5V25.3
		C153.8,22.4,152,20.8,148.8,20.8z M149,25.5v12.2c0,0.3-0.1,0.6-0.8,0.6h-6.5c-0.6,0-0.7-0.3-0.7-0.6V25.5c0-0.3,0.1-0.6,0.7-0.6
		h6.5C149,24.9,149,25.2,149,25.5z"/>
	<path class="st0" d="M175.2,30v-4.7c0-2.9-1.8-4.5-4.9-4.5h-11.9v21.6h4.7v-8h3.8l4.1,8h5.2l-4.3-8.2
		C174.1,33.8,175.2,32.3,175.2,30z M163.1,24.9h6.6c0.6,0,0.7,0.3,0.7,0.6v4.4c0,0.3-0.1,0.6-0.7,0.6h-6.6V24.9z"/>
	<path class="st0" d="M187.1,20.8l-7.9,21.6h5l1.7-5.1h7.5l1.7,5.1h5.2l-8-21.6H187.1z M192,33.3h-4.7l2.4-7L192,33.3z"/>
	<path class="st0" d="M216.2,20.8H204v21.6h12.2c3.2,0,4.9-1.6,4.9-4.5V25.3C221.1,22.4,219.4,20.8,216.2,20.8z M208.7,24.9h6.9
		c0.6,0,0.7,0.3,0.7,0.6v12.2c0,0.3-0.1,0.6-0.7,0.6h-6.9V24.9z"/>
	<path class="st0" d="M238.1,20.8h-7.6c-3.2,0-4.9,1.6-4.9,4.5V38c0,2.9,1.8,4.5,4.9,4.5h7.6c3.2,0,4.9-1.6,4.9-4.5V25.3
		C243,22.4,241.3,20.8,238.1,20.8z M238.3,25.5v12.2c0,0.3-0.1,0.6-0.8,0.6h-6.5c-0.6,0-0.7-0.3-0.7-0.6V25.5c0-0.3,0.1-0.6,0.7-0.6
		h6.5C238.2,24.9,238.3,25.2,238.3,25.5z"/>
	<path class="st0" d="M267,30l-5.9-1.2c-1.1-0.2-1.1-0.4-1.1-1v-2.4c0-0.3,0.1-0.6,0.8-0.6h5.5c0.6,0,0.7,0.3,0.7,0.6V28h4.7v-2.6
		c0-2.9-1.8-4.5-4.9-4.5h-6.6c-3.2,0-4.9,1.6-4.9,4.5v3c0,3.1,2.4,4.1,5,4.6l5.9,1.2c1,0.2,1.1,0.4,1.1,1v2.7c0,0.4-0.1,0.6-0.7,0.6
		h-6c-0.6,0-0.7-0.3-0.7-0.6v-2.7h-4.7V38c0,2.9,1.8,4.5,4.9,4.5h7c3.2,0,4.9-1.6,4.9-4.5v-3.3C271.9,31.5,269.5,30.6,267,30z"/>
	<polygon class="st0" points="292.5,20.8 275.2,20.8 275.2,24.9 281.5,24.9 281.5,42.4 286.2,42.4 286.2,24.9 292.5,24.9 	"/>
	<path class="st0" d="M299.8,20.8l-7.9,21.6h5l1.7-5.1h7.5l1.7,5.1h5.2l-8-21.6H299.8z M304.7,33.3h-4.7l2.4-7L304.7,33.3z"/>
	<polygon class="st0" points="312.2,24.9 318.5,24.9 318.5,42.4 323.3,42.4 323.3,24.9 329.6,24.9 329.6,20.8 312.2,20.8 	"/>
	<polygon class="st0" points="332.9,42.4 348.6,42.4 348.6,38.4 337.7,38.4 337.7,33.4 346.6,33.4 346.6,29.4 337.7,29.4 
		337.7,24.9 348.6,24.9 348.6,20.8 332.9,20.8 	"/>
	<path class="st0" d="M373.5,37.8c0,0.3-0.1,0.6-0.7,0.6h-6.3c-0.7,0-0.8-0.3-0.8-0.6V20.8H361V38c0,2.9,1.8,4.5,4.9,4.5h7.4
		c3.2,0,4.9-1.6,4.9-4.5V20.8h-4.7V37.8z"/>
	<polygon class="st0" points="396.6,34.7 387.6,20.8 382.9,20.8 382.9,42.4 387.4,42.4 387.4,28.2 396.6,42.4 401.1,42.4 
		401.1,20.8 396.6,20.8 	"/>
	<rect x="405.7" y="20.8" class="st0" width="4.7" height="21.6"/>
	<polygon class="st0" points="424.3,36.7 419.3,20.8 414.2,20.8 421.7,42.4 426.8,42.4 434.3,20.8 429.3,20.8 	"/>
	<polygon class="st0" points="438,42.4 453.6,42.4 453.6,38.4 442.7,38.4 442.7,33.4 451.7,33.4 451.7,29.4 442.7,29.4 442.7,24.9 
		453.6,24.9 453.6,20.8 438,20.8 	"/>
	<path class="st0" d="M474.9,30v-4.7c0-2.9-1.8-4.5-4.9-4.5H458v21.6h4.7v-8h3.8l4.1,8h5.2l-4.3-8.2C473.7,33.8,474.9,32.3,474.9,30
		z M462.8,24.9h6.6c0.6,0,0.7,0.3,0.7,0.6v4.4c0,0.3-0.1,0.6-0.7,0.6h-6.6V24.9z"/>
	<path class="st0" d="M491.1,30l-5.9-1.2c-1.1-0.2-1.1-0.4-1.1-1v-2.4c0-0.3,0.1-0.6,0.8-0.6h5.5c0.6,0,0.7,0.3,0.7,0.6V28h4.7v-2.6
		c0-2.9-1.8-4.5-4.9-4.5h-6.6c-3.2,0-4.9,1.6-4.9,4.5v3c0,3.1,2.4,4.1,5,4.6l5.9,1.2c1,0.2,1.1,0.4,1.1,1v2.7c0,0.4-0.1,0.6-0.7,0.6
		h-6c-0.6,0-0.7-0.3-0.7-0.6v-2.7h-4.7V38c0,2.9,1.8,4.5,4.9,4.5h7c3.2,0,4.9-1.6,4.9-4.5v-3.3C496.1,31.5,493.7,30.6,491.1,30z"/>
	<rect x="500.5" y="20.8" class="st0" width="4.7" height="21.6"/>
	<polygon class="st0" points="508.5,24.9 514.8,24.9 514.8,42.4 519.6,42.4 519.6,24.9 525.9,24.9 525.9,20.8 508.5,20.8 	"/>
	<polygon class="st0" points="542.8,20.8 537.7,30.2 532.7,20.8 527.5,20.8 535.3,34.9 535.3,42.4 540.1,42.4 540.1,34.9 
		547.9,20.8 	"/>
</g>
<g>
	<g>
		<path id="XMLID_3_" class="st1" d="M32.2,63c-17,0-30.8-13.8-30.8-30.9c0-17,13.8-30.8,30.8-30.8c17,0,30.8,13.8,30.8,30.8
			C63,49.2,49.2,63,32.2,63z"/>
		<path class="st1" d="M32.2,64.4C14.4,64.4,0,49.9,0,32.2C0,14.4,14.4,0,32.2,0C50,0,64.4,14.4,64.4,32.2
			C64.4,49.9,50,64.4,32.2,64.4z"/>
	</g>
	<path class="st2" d="M32.2,1.3c-17,0-30.9,13.8-30.9,30.9c0,17,13.8,30.9,30.9,30.9c17,0,30.9-13.9,30.9-30.9
		C63.1,15.2,49.2,1.3,32.2,1.3z"/>
	<g>
		<path class="st0" d="M27.3,39.5c0.9-1.3,1.8-4.2,1.2-5.4c-0.8-0.3-1.8-1-2.4-1.9c-0.6-0.9-1-1.9-2-2.1c-0.7-0.3-1.5-0.1-2.1,0.2
			c-0.9,0.5-1.2,1.8-1.3,2.9c-0.1,2.1,0.3,5.2,1.2,7.2c0.5,1.5,1.8,3.9,3.4,6.2C24.9,42.8,26.9,40.4,27.3,39.5z M24.6,34.8
			c-0.4-0.7-1.5-0.6-2-0.9c-0.8-0.5-0.8-1.6,0-2.3c1-0.9,3.5,2,3,4.2C25.3,35.9,25.2,35.8,24.6,34.8z"/>
		<path class="st0" d="M19.2,26c-1.1,0.2-1.3,1.8-0.5,2.8c-0.8-0.1-1.9-1.1-4.6-0.3c-0.9,0.3-2,0.7-2.1,1.9
			c-0.1,0.9,1.1,1.9,1.9,2.4c0.8,0.6,2,0.6,2.7,1.6c0.5,0.8,1,2.1,1.1,3.3c0.2,2.2,0.2,5,1.8,6.8c0.3-1.1-0.5-3.5-0.5-6.7
			c0-1.2-0.5-2.5-1.1-3.4c1.3-0.1,1.3,0.1,1.4-0.3c0.1-0.4-0.1-0.8-0.4-1.2c-0.9-1.1-2.2-0.5-3.4-0.9c-0.8-0.3-2-0.7-2-1.7
			c0-0.7,2.3-0.9,2.3-0.9c1.8,0.1,1.6,1.2,2.9,1.3c1,0.1,1.5-1,1.8-1.7C20.7,28,21.3,25.7,19.2,26z"/>
		<path class="st0" d="M32.3,37.6L32.3,37.6C32.3,37.6,32.2,37.6,32.3,37.6L32.3,37.6L32.3,37.6c-1,0-1.6,0.9-2.5,1.8
			c-1.6,1.8-4.9,6.1-2.5,8.2c1.1,0.9,2.5,1.5,4.4,1c0.5-0.3,0.2-1.3,0-1.8c-0.9-1.2-2.3-0.7-2.7-1.3c-0.4-0.6-0.1-1,0.1-1.3
			c0.3-0.4,0.9-0.3,1.3-0.2c0.8,0.2,1.4,0.5,1.9,1v0c0,0,0,0,0,0c0,0,0,0,0,0v0c0.5-0.5,1.1-0.8,1.9-1c0.4-0.1,1-0.2,1.3,0.2
			c0.3,0.3,0.5,0.7,0.1,1.3c-0.4,0.6-1.8,0.1-2.7,1.3c-0.2,0.4-0.5,1.4-0.1,1.8c1.9,0.6,3.3,0,4.4-1c2.4-2.1-0.9-6.4-2.5-8.2
			C33.8,38.4,33.2,37.6,32.3,37.6z"/>
		<path class="st0" d="M50.6,28.5c-2.7-0.9-3.9,0.2-4.7,0.3c0.9-1,0.6-2.6-0.5-2.8c-2.1-0.3-1.5,1.9-1,3c0.3,0.7,0.8,1.8,1.8,1.7
			c1.3-0.1,1.1-1.1,2.9-1.3c0,0,2.3,0.2,2.3,0.9c-0.1,1.1-1.3,1.5-2,1.7c-1.1,0.4-2.5-0.2-3.4,0.9c-0.3,0.4-0.5,0.8-0.4,1.2
			c0.1,0.4,0.2,0.2,1.4,0.3c-0.7,0.9-1.1,2.2-1.1,3.4c0,3.1-0.8,5.6-0.5,6.7c1.5-1.8,1.5-4.6,1.8-6.8c0.1-1.1,0.6-2.4,1.1-3.3
			c0.6-1,1.9-1,2.7-1.6c0.8-0.6,2-1.5,1.9-2.4C52.6,29.2,51.5,28.8,50.6,28.5z"/>
		<path class="st0" d="M32.2,3C16.1,3,3,16.1,3,32.2c0,16.1,13.1,29.2,29.2,29.2c16.1,0,29.2-13.1,29.2-29.2
			C61.4,16.1,48.3,3,32.2,3z M49.5,53.9L49.5,53.9L49.5,53.9L49.5,53.9z M50.5,52.4c-0.9,0.4-1.8,0.5-2.7,0.1
			c-0.7-0.3-1.2-1-1.3-1.8c-0.2-1.2,0.5-2.5,1.1-3.5c0.8-1.3,2.6-3.6,4.6-5.1c2.9-2.2,5-2.8,4.2-3.3c-0.5-0.4-3.3,1.2-3.9,1.5
			c-3.1,1.6-7.4,6.3-7.9,9.7c-0.4,2.5,2.2,4.3,4.3,4c-6.8,5.6-14.2,5.8-16.7,5.8c-2.5-0.1-10-0.2-16.7-5.8c2.1,0.3,4.7-1.5,4.3-4
			c-0.5-3.4-4.8-8.1-7.9-9.7C11.3,40,8.5,38.4,8,38.8c-0.8,0.5,1.3,1.1,4.2,3.3c2.1,1.5,3.8,3.8,4.6,5.1c0.6,0.9,1.2,2.3,1.1,3.5
			c-0.1,0.8-0.6,1.5-1.3,1.8c-0.9,0.4-1.8,0.3-2.7-0.1c-1.4-0.5-2.5-1.6-3.5-2.9c-1.8-2.5-3.6-5.3-4.5-8.4c0.8,1.7,5.7,9,7.9,9.1
			c2.3,0.1-2.2-5.9-5.2-8.4c-0.7-0.6-1.6-1.3-1.7-2.4C6.6,38.6,7.1,38,7.9,38c1.2,0,4.4,1.6,4.4,1.5c-5.5-9.9,2.9-14.9-0.6-17.1
			c-1.2-0.8-3.8,0-5.2,0.2c13-7.7,15.3,0,19.2,3.5c0.6,0.6,3.4,0,3.9-0.6c0.7-0.8,2.1-3.8,0.5-5.8c-2.2-2.8-11.2-10.9-19.7-4.4
			C14.8,8.9,24,4.4,32.2,4.6c8.2-0.2,17.3,4.3,21.7,10.7c-8.4-6.5-17.4,1.6-19.7,4.4c-1.6,2-0.2,5,0.5,5.8c0.5,0.6,3.3,1.2,3.9,0.6
			c3.9-3.5,6.2-11.2,19.2-3.5c-1.4-0.2-4-1-5.2-0.2c-3.5,2.2,4.9,7.2-0.6,17.1c0,0.1,3.2-1.6,4.4-1.5c0.8,0,1.2,0.6,1.1,1.4
			c-0.2,1.1-1,1.8-1.7,2.4c-3.1,2.5-7.5,8.5-5.3,8.4c2.2-0.1,7.1-7.3,7.9-9.1c-0.9,3-2.7,5.9-4.5,8.4C53,50.8,51.9,51.9,50.5,52.4z"
			/>
		<path class="st0" d="M42.4,30.2c-0.6-0.3-1.4-0.5-2.1-0.2c-1.1,0.3-1.4,1.3-2,2.1c-0.6,0.9-1.6,1.6-2.4,1.9
			c-0.5,1.2,0.4,4.1,1.2,5.4c0.5,1,2.5,3.4,2,7c1.6-2.3,2.8-4.7,3.3-6.2c0.9-2,1.3-5.1,1.3-7.2C43.5,32.1,43.3,30.8,42.4,30.2z
			 M41.8,33.9c-0.5,0.3-1.5,0.1-2,0.9c-0.6,1-0.7,1.1-1,1c-0.6-2.3,2-5.1,3-4.2C42.6,32.3,42.6,33.4,41.8,33.9z"/>
		<path class="st0" d="M35.4,49.1c-1.1,0.1-2.2,0.4-3.2,0.3c-0.9,0-2.1-0.2-3.2-0.3c-0.2,0-0.3,0.1-0.3,0.1c-0.6,1.3,2.9,2,3.4,2
			c0.5,0,4.1-0.7,3.5-2C35.7,49.2,35.6,49.1,35.4,49.1z"/>
	</g>
</g>
</svg>
