<?xml version="1.0" encoding="utf-8"?>
<!-- Generator: Adobe Illustrator 19.1.0, SVG Export Plug-In . SVG Version: 6.00 Build 0)  -->
<svg version="1.1" id="Layer_1" xmlns="http://www.w3.org/2000/svg" xmlns:xlink="http://www.w3.org/1999/xlink" x="0px" y="0px"
	 viewBox="0 0 243.2 58.3" style="enable-background:new 0 0 243.2 58.3;" xml:space="preserve">
<style type="text/css">
	.st0{fill:#C8C372;stroke:#C8C372;stroke-width:2.4593;stroke-miterlimit:10;}
	.st1{fill:#1F4E2A;stroke:#1F4E2A;stroke-width:1.0979;stroke-miterlimit:10;}
	.st2{fill:#FFFFFF;}
	.st3{fill:none;stroke:#FFFFFF;stroke-width:0.4392;stroke-miterlimit:10;}
</style>
<g>
	<g id="XMLID_466_">
		<g id="XMLID_515_">
			<path id="XMLID_531_" class="st0" d="M29.2,57.1c-15.4,0-27.9-12.5-27.9-27.9c0-15.4,12.5-27.9,27.9-27.9
				c15.4,0,27.9,12.5,27.9,27.9C57.1,44.6,44.6,57.1,29.2,57.1z M29.2,2.3C14.3,2.3,2.3,14.3,2.3,29.2C2.3,44,14.3,56,29.2,56
				C44,56,56,44,56,29.2C56,14.3,44,2.3,29.2,2.3z"/>
			<path id="XMLID_530_" class="st1" d="M29.2,1.8C14.1,1.8,1.8,14.1,1.8,29.2c0,15.1,12.3,27.4,27.4,27.4
				c15.1,0,27.4-12.3,27.4-27.4C56.6,14.1,44.3,1.8,29.2,1.8z"/>
			<path id="XMLID_516_" class="st2" d="M29.2,2.7C14.6,2.7,2.7,14.6,2.7,29.2c0,14.5,11.9,26.4,26.4,26.4
				c14.5,0,26.4-11.9,26.4-26.4C55.6,14.6,43.7,2.7,29.2,2.7z M45.7,47.5c-0.8,0.3-1.6,0.5-2.5,0.1c-0.6-0.3-1-0.9-1.2-1.6
				c-0.1-1.1,0.4-2.3,1-3.1c0.7-1.2,2.3-3.3,4.2-4.6c2.7-2,4.5-2.5,3.8-3c-0.5-0.3-3,1.1-3.5,1.3c-2.8,1.5-6.7,5.7-7.2,8.8
				c-0.4,2.5,2.5,4.2,4.4,3.5c-6.3,5.3-13.2,5.5-15.6,5.6v0l0,0l0,0l0,0c-2.4-0.1-9.4-0.3-15.6-5.6c1.9,0.7,4.8-1.1,4.4-3.5
				c-0.5-3.1-4.4-7.3-7.2-8.8c-0.5-0.3-3-1.6-3.5-1.3c-0.7,0.5,1.2,1,3.8,3c1.9,1.4,3.5,3.5,4.2,4.6c0.5,0.8,1.1,2.1,1,3.1
				c-0.1,0.7-0.5,1.4-1.2,1.6c-0.8,0.4-1.7,0.2-2.5-0.1c-1.3-0.5-2.3-1.4-3.1-2.6c-1.7-2.2-3.3-4.8-4.1-7.6c0.7,1.6,5.2,8.1,7.2,8.2
				c2,0.1-2-5.3-4.8-7.6c-0.7-0.5-1.4-1.2-1.6-2.2c-0.1-0.7,0.3-1.2,1-1.3c1.1,0,4,1.5,4,1.4c-5-9,2.7-13.5-0.5-15.5
				c-1.1-0.7-3.5,0-4.7,0.2c11.8-7,13.8,0,17.4,3.2c0.6,0.5,3.1,0,3.5-0.6c0.6-0.8,1.9-3.5,0.5-5.3c-2.1-2.6-10.6-10.3-18.4-3.5
				C12.7,8.2,21.5,3.7,29.2,3.9c7.7-0.2,16.5,4.3,20.3,10.4c-7.8-6.8-16.3,0.9-18.4,3.5c-1.4,1.8-0.2,4.5,0.5,5.3
				c0.5,0.6,3,1.1,3.5,0.6c3.6-3.2,5.6-10.1,17.4-3.2c-1.3-0.2-3.6-0.9-4.7-0.2c-3.2,2,4.5,6.5-0.5,15.5c0,0.1,2.9-1.4,4-1.4
				c0.7,0,1.1,0.5,1,1.3c-0.2,1-0.9,1.7-1.6,2.2c-2.8,2.3-6.8,7.7-4.8,7.6c2-0.1,6.5-6.7,7.2-8.2c-0.8,2.7-2.5,5.3-4.1,7.6
				C48,46,47,47,45.7,47.5z M32.1,44.5c-1,0.1-2,0.3-2.9,0.3c-0.8,0-1.9-0.2-2.9-0.3c-0.2,0-0.3,0.1-0.3,0.1
				c-0.6,1.2,2.7,1.9,3.1,1.8c0.5,0,3.7-0.6,3.1-1.8C32.3,44.6,32.2,44.5,32.1,44.5z M29.2,34L29.2,34C29.2,34,29.2,34,29.2,34
				L29.2,34L29.2,34c-0.9,0-1.4,0.8-2.3,1.7c-1.5,1.6-4.4,5.5-2.3,7.4c1,0.8,2.2,1.4,4,0.9c0.4-0.3,0.2-1.2,0-1.6
				c-0.8-1.1-2.1-0.6-2.4-1.2c-0.3-0.5-0.1-0.9,0.1-1.2c0.3-0.4,0.8-0.3,1.2-0.2c0.7,0.2,1.2,0.5,1.7,0.9v0c0,0,0,0,0,0c0,0,0,0,0,0
				v0c0.4-0.5,1-0.8,1.7-0.9c0.4-0.1,0.9-0.2,1.2,0.2c0.2,0.3,0.4,0.7,0.1,1.2c-0.4,0.5-1.6,0.1-2.4,1.2c-0.2,0.4-0.5,1.3-0.1,1.6
				c1.8,0.5,3,0,4-0.9c2.2-1.9-0.8-5.8-2.3-7.4C30.6,34.8,30.1,34,29.2,34z M47.8,27.5c-0.1-1.1-1.1-1.4-1.9-1.7
				c-2.5-0.8-3.5,0.2-4.2,0.3c0.8-0.9,0.6-2.4-0.4-2.5c-1.9-0.3-1.4,1.8-0.9,2.7c0.3,0.6,0.7,1.6,1.6,1.5c1.2-0.1,1-1,2.6-1.2
				c0,0,2.1,0.2,2,0.8c-0.1,1-1.2,1.3-1.9,1.6c-1,0.3-2.2-0.2-3.1,0.8c-0.3,0.3-0.5,0.7-0.4,1.1c0.1,0.4,0.1,0.2,1.3,0.3
				c-0.6,0.8-1,2-1,3.1c0,2.9-0.8,5.1-0.5,6c1.4-1.7,1.4-4.2,1.6-6.2c0.1-1,0.5-2.2,1-2.9c0.6-0.9,1.7-0.9,2.4-1.5
				C46.8,29.2,47.9,28.4,47.8,27.5z M17.4,23.6c-1,0.2-1.2,1.6-0.4,2.5c-0.7-0.1-1.7-1-4.2-0.3c-0.8,0.3-1.8,0.6-1.9,1.7
				c-0.1,0.8,1,1.7,1.7,2.2c0.7,0.5,1.9,0.6,2.4,1.5c0.5,0.8,0.9,1.9,1,2.9c0.2,2,0.2,4.5,1.6,6.2c0.3-1-0.5-3.2-0.5-6
				c0-1.1-0.4-2.3-1-3.1c1.2-0.1,1.2,0.1,1.3-0.3c0.1-0.4-0.1-0.8-0.4-1.1c-0.8-1-2-0.5-3.1-0.8c-0.7-0.2-1.8-0.6-1.8-1.6
				c0-0.7,2-0.8,2-0.8c1.7,0.1,1.5,1.1,2.6,1.2c0.9,0.1,1.3-0.9,1.6-1.5C18.8,25.3,19.3,23.3,17.4,23.6z M24.8,35.7
				c0.8-1.2,1.6-3.8,1.1-4.9c-0.8-0.3-1.7-0.9-2.2-1.7c-0.5-0.8-0.9-1.7-1.8-1.9c-0.6-0.2-1.4-0.1-1.9,0.2c-0.8,0.5-1.1,1.7-1.2,2.6
				c-0.1,1.9,0.3,4.7,1.1,6.5c0.5,1.3,1.6,3.5,3,5.6C22.5,38.8,24.3,36.6,24.8,35.7z M22.3,31.5c-0.4-0.7-1.3-0.5-1.8-0.8
				c-0.7-0.5-0.7-1.5,0-2.1c0.9-0.8,3.2,1.8,2.7,3.8C22.9,32.5,22.8,32.4,22.3,31.5z M38.4,27.4c-0.5-0.3-1.2-0.4-1.9-0.2
				c-1,0.3-1.3,1.2-1.8,1.9c-0.5,0.8-1.5,1.4-2.2,1.7c-0.5,1.1,0.3,3.7,1.1,4.9c0.4,0.9,2.2,3,1.9,6.3c1.4-2.1,2.5-4.3,3-5.6
				c0.8-1.8,1.2-4.6,1.1-6.5C39.4,29,39.2,27.9,38.4,27.4z M37.8,30.7c-0.4,0.3-1.4,0.1-1.8,0.8c-0.5,0.9-0.6,1-0.9,0.9
				c-0.5-2,1.8-4.6,2.7-3.8C38.6,29.2,38.6,30.3,37.8,30.7z"/>
		</g>
		<g id="XMLID_467_">
			<path id="XMLID_514_" class="st3" d="M44.8,48.8c-6.3,5.3-13.2,5.5-15.6,5.6v0l0,0l0,0l0,0c-2.4-0.1-9.4-0.3-15.6-5.6"/>
			<path id="XMLID_468_" class="st3" d="M8.9,14.3C12.7,8.2,21.5,3.7,29.2,3.9c7.7-0.2,16.5,4.3,20.3,10.4"/>
		</g>
	</g>
	<g id="XMLID_269_">
		<g>
			<g id="XMLID_975_">
				<path id="XMLID_979_" class="st2" d="M70.8,25.4c-1.9,0-2.9-0.9-2.9-2.6v-8.1c0-1.7,1-2.6,2.9-2.6h4.6c1.9,0,2.9,0.9,2.9,2.6
					v1.9h-2.5v-1.7c0-0.4-0.3-0.7-0.8-0.7h-3.9c-0.5,0-0.8,0.2-0.8,0.7v7.8c0,0.4,0.3,0.7,0.8,0.7H75c0.5,0,0.8-0.2,0.8-0.7V21h2.5
					v1.9c0,1.7-1,2.6-2.9,2.6H70.8z"/>
				<path id="XMLID_976_" class="st2" d="M75.4,25.7h-4.6c-2,0-3.2-1-3.2-2.9v-8.1c0-1.8,1.1-2.9,3.2-2.9h4.6c2,0,3.2,1,3.2,2.9v2.1
					h-3v-2c0-0.2,0-0.4-0.5-0.4h-3.9c-0.4,0-0.5,0.2-0.5,0.4v7.8c0,0.2,0.1,0.4,0.5,0.4H75c0.4,0,0.5-0.2,0.5-0.4v-2h3v2.1
					C78.6,24.7,77.4,25.7,75.4,25.7z M70.8,12.5c-1.7,0-2.6,0.8-2.6,2.3v8.1c0,1.5,0.9,2.3,2.6,2.3h4.6c1.7,0,2.6-0.8,2.6-2.3v-1.6
					h-1.9v1.4c0,0.6-0.4,1-1.1,1h-3.9c-0.6,0-1-0.4-1-1v-7.8c0-0.6,0.4-1,1-1H75c0.7,0,1.1,0.4,1.1,1v1.4H78v-1.6
					c0-1.5-0.9-2.3-2.6-2.3H70.8z"/>
			</g>
			<g id="XMLID_966_">
				<path id="XMLID_972_" class="st2" d="M84.6,25.4c-1.9,0-2.9-0.9-2.9-2.6v-8.1c0-1.7,1-2.6,2.9-2.6h4.8c1.9,0,2.9,0.9,2.9,2.6
					v8.1c0,1.7-1,2.6-2.9,2.6H84.6z M84.2,22.7c0,0.4,0.3,0.7,0.8,0.7h4.1c0.5,0,0.8-0.2,0.8-0.7v-7.8c0-0.4-0.3-0.7-0.8-0.7H85
					c-0.5,0-0.8,0.2-0.8,0.7V22.7z"/>
				<path id="XMLID_967_" class="st2" d="M89.5,25.7h-4.8c-2,0-3.2-1-3.2-2.9v-8.1c0-1.8,1.1-2.9,3.2-2.9h4.8c2,0,3.2,1,3.2,2.9v8.1
					C92.6,24.7,91.5,25.7,89.5,25.7z M84.6,12.5c-1.7,0-2.6,0.8-2.6,2.3v8.1c0,1.5,0.9,2.3,2.6,2.3h4.8c1.7,0,2.6-0.8,2.6-2.3v-8.1
					c0-1.5-0.9-2.3-2.6-2.3H84.6z M89.1,23.7H85c-0.6,0-1-0.4-1-1v-7.8c0-0.6,0.4-1,1-1h4.1c0.7,0,1.1,0.4,1.1,1v7.8
					C90.2,23.3,89.8,23.7,89.1,23.7z M85,14.5c-0.4,0-0.5,0.2-0.5,0.4v7.8c0,0.2,0.1,0.4,0.5,0.4h4.1c0.4,0,0.5-0.2,0.5-0.4v-7.8
					c0-0.2,0-0.4-0.5-0.4H85z"/>
			</g>
			<g id="XMLID_960_">
				<path id="XMLID_964_" class="st2" d="M98.3,12.2v11.2h6.5v2h-8.9V12.2H98.3z"/>
				<path id="XMLID_961_" class="st2" d="M105.1,25.7h-9.5V11.9h3v11.2h6.5V25.7z M96.2,25.2h8.3v-1.4H98V12.5h-1.9V25.2z"/>
			</g>
			<g id="XMLID_951_">
				<path id="XMLID_957_" class="st2" d="M110.6,25.4c-1.9,0-2.9-0.9-2.9-2.6v-8.1c0-1.7,1-2.6,2.9-2.6h4.8c1.9,0,2.9,0.9,2.9,2.6
					v8.1c0,1.7-1,2.6-2.9,2.6H110.6z M110.2,22.7c0,0.4,0.3,0.7,0.8,0.7h4.1c0.5,0,0.8-0.2,0.8-0.7v-7.8c0-0.4-0.3-0.7-0.8-0.7h-4.1
					c-0.5,0-0.8,0.2-0.8,0.7V22.7z"/>
				<path id="XMLID_952_" class="st2" d="M115.4,25.7h-4.8c-2,0-3.2-1-3.2-2.9v-8.1c0-1.8,1.1-2.9,3.2-2.9h4.8c2,0,3.2,1,3.2,2.9
					v8.1C118.6,24.7,117.5,25.7,115.4,25.7z M110.6,12.5c-1.7,0-2.6,0.8-2.6,2.3v8.1c0,1.5,0.9,2.3,2.6,2.3h4.8
					c1.7,0,2.6-0.8,2.6-2.3v-8.1c0-1.5-0.9-2.3-2.6-2.3H110.6z M115.1,23.7h-4.1c-0.6,0-1-0.4-1-1v-7.8c0-0.6,0.4-1,1-1h4.1
					c0.7,0,1.1,0.4,1.1,1v7.8C116.1,23.3,115.7,23.7,115.1,23.7z M110.9,14.5c-0.4,0-0.5,0.2-0.5,0.4v7.8c0,0.2,0.1,0.4,0.5,0.4h4.1
					c0.4,0,0.5-0.2,0.5-0.4v-7.8c0-0.2,0-0.4-0.5-0.4H110.9z"/>
			</g>
			<g id="XMLID_942_">
				<path id="XMLID_948_" class="st2" d="M129.8,25.4l-2.6-5.1h-2.9v5.1h-2.5V12.2h7.3c1.9,0,2.9,0.9,2.9,2.6v3
					c0,1.5-0.8,2.3-2.2,2.5l2.7,5.1H129.8z M128.8,18.4c0.5,0,0.8-0.2,0.8-0.7v-2.8c0-0.4-0.3-0.7-0.8-0.7h-4.5v4.2H128.8z"/>
				<path id="XMLID_943_" class="st2" d="M133,25.7h-3.3l-2.6-5.1h-2.4v5.1h-3V11.9h7.6c2,0,3.2,1,3.2,2.9v3c0,1.5-0.7,2.4-2.1,2.7
					L133,25.7z M130,25.2h2l-2.6-5.1l0.4-0.1c1.3-0.2,2-0.9,2-2.2v-3c0-1.5-0.9-2.3-2.6-2.3h-7.1v12.7h1.9V20h3.4L130,25.2z
					 M128.8,18.7H124v-4.7h4.8c0.6,0,1,0.4,1,1v2.8C129.9,18.3,129.5,18.7,128.8,18.7z M124.6,18.1h4.2c0.4,0,0.5-0.2,0.5-0.4v-2.8
					c0-0.2-0.1-0.4-0.5-0.4h-4.2V18.1z"/>
			</g>
			<g id="XMLID_933_">
				<path id="XMLID_939_" class="st2" d="M139,22.2l-1.1,3.3h-2.6l4.9-13.2h2.9l4.9,13.2h-2.7l-1.1-3.3H139z M141.6,14.4l-1.9,5.7
					h3.8L141.6,14.4z"/>
				<path id="XMLID_934_" class="st2" d="M148.4,25.7H145l-1.1-3.3h-4.8l-1.1,3.3h-3.2l5.1-13.8h3.3L148.4,25.7z M145.5,25.2h2.1
					l-4.7-12.7h-2.5l-4.7,12.7h2l1.1-3.3h5.6L145.5,25.2z M143.9,20.4h-4.7l2.3-6.9L143.9,20.4z M140,19.9h3l-1.5-4.5L140,19.9z"/>
			</g>
			<g id="XMLID_924_">
				<path id="XMLID_930_" class="st2" d="M158.5,12.2c1.9,0,2.9,0.9,2.9,2.6v8.1c0,1.7-1,2.6-2.9,2.6H151V12.2H158.5z M158.2,23.4
					c0.5,0,0.8-0.2,0.8-0.7v-7.8c0-0.4-0.3-0.7-0.8-0.7h-4.7v9.2H158.2z"/>
				<path id="XMLID_925_" class="st2" d="M158.5,25.7h-7.8V11.9h7.8c2,0,3.2,1,3.2,2.9v8.1C161.7,24.7,160.6,25.7,158.5,25.7z
					 M151.3,25.2h7.2c1.7,0,2.6-0.8,2.6-2.3v-8.1c0-1.5-0.9-2.3-2.6-2.3h-7.2V25.2z M158.2,23.7h-5v-9.8h5c0.7,0,1,0.4,1,1v7.8
					C159.2,23.3,158.8,23.7,158.2,23.7z M153.8,23.1h4.4c0.4,0,0.5-0.2,0.5-0.4v-7.8c0-0.2-0.1-0.4-0.5-0.4h-4.4V23.1z"/>
			</g>
			<g id="XMLID_915_">
				<path id="XMLID_921_" class="st2" d="M167.7,25.4c-1.9,0-2.9-0.9-2.9-2.6v-8.1c0-1.7,1-2.6,2.9-2.6h4.8c1.9,0,2.9,0.9,2.9,2.6
					v8.1c0,1.7-1,2.6-2.9,2.6H167.7z M167.3,22.7c0,0.4,0.3,0.7,0.8,0.7h4.1c0.5,0,0.8-0.2,0.8-0.7v-7.8c0-0.4-0.3-0.7-0.8-0.7h-4.1
					c-0.5,0-0.8,0.2-0.8,0.7V22.7z"/>
				<path id="XMLID_916_" class="st2" d="M172.6,25.7h-4.8c-2,0-3.2-1-3.2-2.9v-8.1c0-1.8,1.1-2.9,3.2-2.9h4.8c2,0,3.2,1,3.2,2.9
					v8.1C175.7,24.7,174.6,25.7,172.6,25.7z M167.7,12.5c-1.7,0-2.6,0.8-2.6,2.3v8.1c0,1.5,0.9,2.3,2.6,2.3h4.8
					c1.7,0,2.6-0.8,2.6-2.3v-8.1c0-1.5-0.9-2.3-2.6-2.3H167.7z M172.2,23.7h-4.1c-0.6,0-1-0.4-1-1v-7.8c0-0.6,0.4-1,1-1h4.1
					c0.7,0,1.1,0.4,1.1,1v7.8C173.3,23.3,172.9,23.7,172.2,23.7z M168.1,14.5c-0.4,0-0.5,0.2-0.5,0.4v7.8c0,0.2,0.1,0.4,0.5,0.4h4.1
					c0.4,0,0.5-0.2,0.5-0.4v-7.8c0-0.2,0-0.4-0.5-0.4H168.1z"/>
			</g>
			<g id="XMLID_909_">
				<path id="XMLID_913_" class="st2" d="M191.3,14.9c0-0.5-0.3-0.7-0.8-0.7H187c-0.5,0-0.8,0.2-0.8,0.7v1.5c0,0.6,0.3,0.8,1,0.9
					l3.8,0.8c1.7,0.3,2.9,0.9,2.9,2.6v2.1c0,1.7-1,2.6-2.9,2.6h-4.5c-1.9,0-2.9-0.9-2.9-2.6v-1.5h2.4v1.5c0,0.5,0.3,0.7,0.8,0.7h3.8
					c0.5,0,0.8-0.2,0.8-0.7V21c0-0.6-0.3-0.8-1-0.9l-3.8-0.8c-1.7-0.3-2.9-0.9-2.9-2.6v-1.9c0-1.7,1-2.6,2.9-2.6h4.2
					c1.9,0,2.9,0.9,2.9,2.6v1.4h-2.4V14.9z"/>
				<path id="XMLID_910_" class="st2" d="M191,25.7h-4.5c-2,0-3.2-1-3.2-2.9V21h3v1.7c0,0.2,0.1,0.4,0.5,0.4h3.8
					c0.4,0,0.5-0.2,0.5-0.4V21c0-0.4-0.1-0.5-0.7-0.6l-3.8-0.8c-1.6-0.3-3.2-0.9-3.2-2.9v-1.9c0-1.8,1.1-2.9,3.2-2.9h4.2
					c2,0,3.2,1,3.2,2.9v1.7h-3v-1.6c0-0.2-0.1-0.4-0.5-0.4H187c-0.4,0-0.5,0.2-0.5,0.4v1.5c0,0.4,0.1,0.5,0.7,0.6l3.8,0.8
					c1.7,0.3,3.2,0.9,3.2,2.9v2.1C194.2,24.7,193.1,25.7,191,25.7z M184,21.6v1.3c0,1.5,0.9,2.3,2.6,2.3h4.5c1.7,0,2.6-0.8,2.6-2.3
					v-2.1c0-1.5-1-2-2.7-2.4l-3.8-0.8c-0.8-0.2-1.2-0.4-1.2-1.2v-1.5c0-0.6,0.4-1,1.1-1h3.5c0.7,0,1,0.4,1,1v1h1.8v-1.1
					c0-1.5-0.9-2.3-2.6-2.3h-4.2c-1.7,0-2.6,0.8-2.6,2.3v1.9c0,1.5,1,2,2.7,2.4l3.8,0.8c0.6,0.1,1.2,0.3,1.2,1.2v1.7
					c0,0.6-0.4,1-1,1h-3.8c-0.7,0-1-0.4-1-1v-1.2H184z"/>
			</g>
			<g id="XMLID_903_">
				<path id="XMLID_907_" class="st2" d="M203,14.2v11.2h-2.5V14.2h-4v-2h10.5v2H203z"/>
				<path id="XMLID_904_" class="st2" d="M203.3,25.7h-3V14.5h-4v-2.6h11.1v2.6h-4V25.7z M200.9,25.2h1.9V13.9h4v-1.4h-9.9v1.4h4
					V25.2z"/>
			</g>
			<g id="XMLID_894_">
				<path id="XMLID_900_" class="st2" d="M211,22.2l-1.1,3.3h-2.6l4.9-13.2h2.9l4.9,13.2h-2.7l-1.1-3.3H211z M213.6,14.4l-1.9,5.7
					h3.8L213.6,14.4z"/>
				<path id="XMLID_895_" class="st2" d="M220.5,25.7h-3.3l-1.1-3.3h-4.8l-1.1,3.3h-3.2l5.1-13.8h3.3L220.5,25.7z M217.5,25.2h2.1
					l-4.7-12.7h-2.5l-4.7,12.7h2l1.1-3.3h5.6L217.5,25.2z M216,20.4h-4.7l2.3-6.9L216,20.4z M212.1,19.9h3l-1.5-4.5L212.1,19.9z"/>
			</g>
			<g id="XMLID_888_">
				<path id="XMLID_892_" class="st2" d="M226.8,14.2v11.2h-2.5V14.2h-4v-2h10.5v2H226.8z"/>
				<path id="XMLID_889_" class="st2" d="M227,25.7h-3V14.5h-4v-2.6h11.1v2.6h-4V25.7z M224.6,25.2h1.9V13.9h4v-1.4h-9.9v1.4h4V25.2
					z"/>
			</g>
			<g id="XMLID_882_">
				<path id="XMLID_886_" class="st2" d="M242.9,12.2v2h-7v3.5h5.7v2h-5.7v3.8h7v2h-9.4V12.2H242.9z"/>
				<path id="XMLID_883_" class="st2" d="M243.2,25.7h-10V11.9h10v2.6h-7v2.9h5.7V20h-5.7v3.2h7V25.7z M233.8,25.2h8.8v-1.4h-7v-4.3
					h5.7V18h-5.7v-4h7v-1.4h-8.8V25.2z"/>
			</g>
		</g>
	</g>
	<g id="XMLID_104_">
		<g id="XMLID_162_">
			<path id="XMLID_168_" class="st2" d="M78.5,43.4c0,1.7-1,2.6-2.9,2.6h-4.8C69,46,68,45.1,68,43.4V32.7h2.5v10.5
				c0,0.4,0.3,0.7,0.8,0.7h4c0.5,0,0.8-0.2,0.8-0.7V32.7h2.5V43.4z"/>
			<path id="XMLID_163_" class="st2" d="M75.6,46.3h-4.8c-2,0-3.2-1-3.2-2.9v-11h3v10.8c0,0.2,0.1,0.4,0.5,0.4h4
				c0.4,0,0.5-0.2,0.5-0.4V32.5h3v11C78.7,45.3,77.6,46.3,75.6,46.3z M68.3,33v10.4c0,1.5,0.9,2.3,2.6,2.3h4.8
				c1.7,0,2.6-0.8,2.6-2.3V33h-1.9v10.2c0,0.6-0.4,1-1,1h-4c-0.7,0-1.1-0.4-1.1-1V33H68.3z"/>
		</g>
		<g id="XMLID_156_">
			<path id="XMLID_160_" class="st2" d="M93.1,32.7V46h-2.4l-6.4-9.8V46H82V32.7h2.6l6.2,9.5v-9.5H93.1z"/>
			<path id="XMLID_157_" class="st2" d="M93.4,46.3h-2.9l-5.9-9.1v9.1h-2.9V32.5h3l5.7,8.9v-8.9h2.9V46.3z M90.8,45.7h2V33H91v10.2
				L84.4,33h-2.1v12.7H84V35.2L90.8,45.7z"/>
		</g>
		<g id="XMLID_150_">
			<path id="XMLID_154_" class="st2" d="M96.6,32.7H99V46h-2.5V32.7z"/>
			<path id="XMLID_151_" class="st2" d="M99.3,46.3h-3V32.5h3V46.3z M96.9,45.7h1.9V33h-1.9V45.7z"/>
		</g>
		<g id="XMLID_144_">
			<path id="XMLID_148_" class="st2" d="M109.6,46h-2.8l-4.6-13.2h2.7l3.4,10.8l3.4-10.8h2.6L109.6,46z"/>
			<path id="XMLID_145_" class="st2" d="M109.8,46.3h-3.3l-4.8-13.8h3.3l3.2,10.1l3.2-10.1h3.2L109.8,46.3z M106.9,45.7h2.4
				l4.4-12.7h-2l-3.6,11.5L104.6,33h-2.1L106.9,45.7z"/>
		</g>
		<g id="XMLID_138_">
			<path id="XMLID_142_" class="st2" d="M126.7,32.7v2h-7v3.5h5.7v2h-5.7V44h7v2h-9.4V32.7H126.7z"/>
			<path id="XMLID_139_" class="st2" d="M127,46.3h-10V32.5h10v2.6h-7v2.9h5.7v2.6H120v3.2h7V46.3z M117.5,45.7h8.8v-1.4h-7v-4.3
				h5.7v-1.4h-5.7v-4h7V33h-8.8V45.7z"/>
		</g>
		<g id="XMLID_129_">
			<path id="XMLID_135_" class="st2" d="M138.1,46l-2.6-5.1h-2.9V46h-2.5V32.7h7.3c1.9,0,2.9,0.9,2.9,2.6v3c0,1.5-0.8,2.3-2.2,2.5
				l2.7,5.1H138.1z M137.1,38.9c0.5,0,0.8-0.2,0.8-0.7v-2.8c0-0.4-0.3-0.7-0.8-0.7h-4.5v4.2H137.1z"/>
			<path id="XMLID_130_" class="st2" d="M141.2,46.3h-3.3l-2.6-5.1h-2.4v5.1h-3V32.5h7.6c2,0,3.2,1,3.2,2.9v3c0,1.5-0.7,2.4-2.1,2.7
				L141.2,46.3z M138.2,45.7h2l-2.6-5.1l0.4-0.1c1.3-0.2,2-0.9,2-2.2v-3c0-1.5-0.9-2.3-2.6-2.3h-7.1v12.7h1.9v-5.1h3.4L138.2,45.7z
				 M137.1,39.2h-4.8v-4.7h4.8c0.6,0,1,0.4,1,1v2.8C138.1,38.8,137.7,39.2,137.1,39.2z M132.8,38.6h4.2c0.4,0,0.5-0.2,0.5-0.4v-2.8
				c0-0.2-0.1-0.4-0.5-0.4h-4.2V38.6z"/>
		</g>
		<g id="XMLID_123_">
			<path id="XMLID_127_" class="st2" d="M151.2,35.4c0-0.5-0.3-0.7-0.8-0.7h-3.5c-0.5,0-0.8,0.2-0.8,0.7V37c0,0.6,0.3,0.8,1,0.9
				l3.8,0.8c1.7,0.3,2.9,0.9,2.9,2.6v2.1c0,1.7-1,2.6-2.9,2.6h-4.5c-1.9,0-2.9-0.9-2.9-2.6v-1.5h2.4v1.5c0,0.5,0.3,0.7,0.8,0.7h3.8
				c0.5,0,0.8-0.2,0.8-0.7v-1.7c0-0.6-0.3-0.8-1-0.9l-3.8-0.8c-1.7-0.3-2.9-0.9-2.9-2.6v-1.9c0-1.7,1-2.6,2.9-2.6h4.2
				c1.9,0,2.9,0.9,2.9,2.6v1.4h-2.4V35.4z"/>
			<path id="XMLID_124_" class="st2" d="M151,46.3h-4.5c-2,0-3.2-1-3.2-2.9v-1.8h3v1.7c0,0.2,0.1,0.4,0.5,0.4h3.8
				c0.4,0,0.5-0.2,0.5-0.4v-1.7c0-0.4-0.1-0.5-0.7-0.6l-3.8-0.8c-1.6-0.3-3.2-0.9-3.2-2.9v-1.9c0-1.8,1.1-2.9,3.2-2.9h4.2
				c2,0,3.2,1,3.2,2.9V37h-3v-1.6c0-0.2-0.1-0.4-0.5-0.4h-3.5c-0.4,0-0.5,0.2-0.5,0.4V37c0,0.4,0.1,0.5,0.7,0.6l3.8,0.8
				c1.7,0.3,3.2,0.9,3.2,2.9v2.1C154.1,45.3,153,46.3,151,46.3z M143.9,42.2v1.3c0,1.5,0.9,2.3,2.6,2.3h4.5c1.7,0,2.6-0.8,2.6-2.3
				v-2.1c0-1.5-1-2-2.7-2.4l-3.8-0.8c-0.8-0.2-1.2-0.4-1.2-1.2v-1.5c0-0.6,0.4-1,1.1-1h3.5c0.7,0,1,0.4,1,1v1h1.8v-1.1
				c0-1.5-0.9-2.3-2.6-2.3h-4.2c-1.7,0-2.6,0.8-2.6,2.3v1.9c0,1.5,1,2,2.7,2.4l3.8,0.8c0.6,0.1,1.2,0.3,1.2,1.2v1.7c0,0.6-0.4,1-1,1
				h-3.8c-0.7,0-1-0.4-1-1v-1.2H143.9z"/>
		</g>
		<g id="XMLID_117_">
			<path id="XMLID_121_" class="st2" d="M157.2,32.7h2.5V46h-2.5V32.7z"/>
			<path id="XMLID_118_" class="st2" d="M160,46.3h-3V32.5h3V46.3z M157.5,45.7h1.9V33h-1.9V45.7z"/>
		</g>
		<g id="XMLID_111_">
			<path id="XMLID_115_" class="st2" d="M168.9,34.7V46h-2.5V34.7h-4v-2h10.5v2H168.9z"/>
			<path id="XMLID_112_" class="st2" d="M169.1,46.3h-3V35h-4v-2.6h11.1V35h-4V46.3z M166.7,45.7h1.9V34.5h4V33h-9.9v1.4h4V45.7z"/>
		</g>
		<g id="XMLID_105_">
			<path id="XMLID_109_" class="st2" d="M179.5,46v-4.6l-4.8-8.6h2.7l3.4,6.3l3.4-6.3h2.6l-4.8,8.6V46H179.5z"/>
			<path id="XMLID_106_" class="st2" d="M182.3,46.3h-3v-4.8l-5-9h3.3l3.2,6l3.2-6h3.3l-5,9V46.3z M179.8,45.7h1.9v-4.4l0-0.1
				l4.6-8.2h-1.9l-3.6,6.6l-3.6-6.6h-2l4.6,8.2V45.7z"/>
		</g>
	</g>
</g>
</svg>
