<?xml version="1.0" encoding="utf-8"?>
<!-- Generator: Adobe Illustrator 19.1.0, SVG Export Plug-In . SVG Version: 6.00 Build 0)  -->
<svg version="1.1" id="Layer_1" xmlns="http://www.w3.org/2000/svg" xmlns:xlink="http://www.w3.org/1999/xlink" x="0px" y="0px"
	 viewBox="0 0 158.5 58.3" style="enable-background:new 0 0 158.5 58.3;" xml:space="preserve">
<style type="text/css">
	.st0{fill:#C8C372;stroke:#C8C372;stroke-width:2.4593;stroke-miterlimit:10;}
	.st1{fill:#1F4E2A;stroke:#1F4E2A;stroke-width:1.0979;stroke-miterlimit:10;}
	.st2{fill:#FFFFFF;}
	.st3{fill:none;stroke:#FFFFFF;stroke-width:0.4392;stroke-miterlimit:10;}
</style>
<g>
	<g id="XMLID_100_">
		<g id="XMLID_273_">
			<path id="XMLID_290_" class="st0" d="M29.2,57.1c-15.4,0-27.9-12.5-27.9-27.9c0-15.4,12.5-27.9,27.9-27.9
				c15.4,0,27.9,12.5,27.9,27.9C57.1,44.6,44.6,57.1,29.2,57.1z M29.2,2.3C14.3,2.3,2.3,14.3,2.3,29.2C2.3,44,14.3,56,29.2,56
				C44,56,56,44,56,29.2C56,14.3,44,2.3,29.2,2.3z"/>
			<path id="XMLID_289_" class="st1" d="M29.2,1.8C14.1,1.8,1.8,14.1,1.8,29.2c0,15.1,12.3,27.4,27.4,27.4
				c15.1,0,27.4-12.3,27.4-27.4C56.6,14.1,44.3,1.8,29.2,1.8z"/>
			<path id="XMLID_274_" class="st2" d="M29.2,2.7C14.6,2.7,2.7,14.6,2.7,29.2c0,14.5,11.9,26.4,26.4,26.4
				c14.5,0,26.4-11.9,26.4-26.4C55.6,14.6,43.7,2.7,29.2,2.7z M45.7,47.5c-0.8,0.3-1.6,0.5-2.5,0.1c-0.6-0.3-1-0.9-1.2-1.6
				c-0.1-1.1,0.4-2.3,1-3.1c0.7-1.2,2.3-3.3,4.2-4.6c2.7-2,4.5-2.5,3.8-3c-0.5-0.3-3,1.1-3.5,1.3c-2.8,1.5-6.7,5.7-7.2,8.8
				c-0.4,2.5,2.5,4.2,4.4,3.5c-6.3,5.3-13.2,5.5-15.6,5.6v0l0,0l0,0l0,0c-2.4-0.1-9.4-0.3-15.6-5.6c1.9,0.7,4.8-1.1,4.4-3.5
				c-0.5-3.1-4.4-7.3-7.2-8.8c-0.5-0.3-3-1.6-3.5-1.3c-0.7,0.5,1.2,1,3.8,3c1.9,1.4,3.5,3.5,4.2,4.6c0.5,0.8,1.1,2.1,1,3.1
				c-0.1,0.7-0.5,1.4-1.2,1.6c-0.8,0.4-1.7,0.2-2.5-0.1c-1.3-0.5-2.3-1.4-3.1-2.6c-1.7-2.2-3.3-4.8-4.1-7.6c0.7,1.6,5.2,8.1,7.2,8.2
				c2,0.1-2-5.3-4.8-7.6c-0.7-0.5-1.4-1.2-1.6-2.2c-0.1-0.7,0.3-1.2,1-1.3c1.1,0,4,1.5,4,1.4c-5-9,2.7-13.5-0.5-15.5
				c-1.1-0.7-3.5,0-4.7,0.2c11.8-7,13.8,0,17.4,3.2c0.6,0.5,3.1,0,3.5-0.6c0.6-0.8,1.9-3.5,0.5-5.3c-2.1-2.6-10.6-10.3-18.4-3.5
				C12.7,8.2,21.5,3.7,29.2,3.9c7.7-0.2,16.5,4.3,20.3,10.4c-7.8-6.8-16.3,0.9-18.4,3.5c-1.4,1.8-0.2,4.5,0.5,5.3
				c0.5,0.6,3,1.1,3.5,0.6c3.6-3.2,5.6-10.1,17.4-3.2c-1.3-0.2-3.6-0.9-4.7-0.2c-3.2,2,4.5,6.5-0.5,15.5c0,0.1,2.9-1.4,4-1.4
				c0.7,0,1.1,0.5,1,1.3c-0.2,1-0.9,1.7-1.6,2.2c-2.8,2.3-6.8,7.7-4.8,7.6c2-0.1,6.5-6.7,7.2-8.2c-0.8,2.7-2.5,5.3-4.1,7.6
				C48,46,47,47,45.7,47.5z M32.1,44.5c-1,0.1-2,0.3-2.9,0.3c-0.8,0-1.9-0.2-2.9-0.3c-0.2,0-0.3,0.1-0.3,0.1
				c-0.6,1.2,2.7,1.9,3.1,1.8c0.5,0,3.7-0.6,3.1-1.8C32.3,44.6,32.2,44.5,32.1,44.5z M29.2,34L29.2,34C29.2,34,29.2,34,29.2,34
				L29.2,34L29.2,34c-0.9,0-1.4,0.8-2.3,1.7c-1.5,1.6-4.4,5.5-2.3,7.4c1,0.8,2.2,1.4,4,0.9c0.4-0.3,0.2-1.2,0-1.6
				c-0.8-1.1-2.1-0.6-2.4-1.2c-0.3-0.5-0.1-0.9,0.1-1.2c0.3-0.4,0.8-0.3,1.2-0.2c0.7,0.2,1.2,0.5,1.7,0.9v0c0,0,0,0,0,0c0,0,0,0,0,0
				v0c0.4-0.5,1-0.8,1.7-0.9c0.4-0.1,0.9-0.2,1.2,0.2c0.2,0.3,0.4,0.7,0.1,1.2c-0.4,0.5-1.6,0.1-2.4,1.2c-0.2,0.4-0.5,1.3-0.1,1.6
				c1.8,0.5,3,0,4-0.9c2.2-1.9-0.8-5.8-2.3-7.4C30.6,34.8,30.1,34,29.2,34z M47.8,27.5c-0.1-1.1-1.1-1.4-1.9-1.7
				c-2.5-0.8-3.5,0.2-4.2,0.3c0.8-0.9,0.6-2.4-0.4-2.5c-1.9-0.3-1.4,1.8-0.9,2.7c0.3,0.6,0.7,1.6,1.6,1.5c1.2-0.1,1-1,2.6-1.2
				c0,0,2.1,0.2,2,0.8c-0.1,1-1.2,1.3-1.9,1.6c-1,0.3-2.2-0.2-3.1,0.8c-0.3,0.3-0.5,0.7-0.4,1.1c0.1,0.4,0.1,0.2,1.3,0.3
				c-0.6,0.8-1,2-1,3.1c0,2.9-0.8,5.1-0.5,6c1.4-1.7,1.4-4.2,1.6-6.2c0.1-1,0.5-2.2,1-2.9c0.6-0.9,1.7-0.9,2.4-1.5
				C46.8,29.2,47.9,28.4,47.8,27.5z M17.4,23.6c-1,0.2-1.2,1.6-0.4,2.5c-0.7-0.1-1.7-1-4.2-0.3c-0.8,0.3-1.8,0.6-1.9,1.7
				c-0.1,0.8,1,1.7,1.7,2.2c0.7,0.5,1.9,0.6,2.4,1.5c0.5,0.8,0.9,1.9,1,2.9c0.2,2,0.2,4.5,1.6,6.2c0.3-1-0.5-3.2-0.5-6
				c0-1.1-0.4-2.3-1-3.1c1.2-0.1,1.2,0.1,1.3-0.3c0.1-0.4-0.1-0.8-0.4-1.1c-0.8-1-2-0.5-3.1-0.8c-0.7-0.2-1.8-0.6-1.8-1.6
				c0-0.7,2-0.8,2-0.8c1.7,0.1,1.5,1.1,2.6,1.2c0.9,0.1,1.3-0.9,1.6-1.5C18.8,25.3,19.3,23.3,17.4,23.6z M24.8,35.7
				c0.8-1.2,1.6-3.8,1.1-4.9c-0.8-0.3-1.7-0.9-2.2-1.7c-0.5-0.8-0.9-1.7-1.8-1.9c-0.6-0.2-1.4-0.1-1.9,0.2c-0.8,0.5-1.1,1.7-1.2,2.6
				c-0.1,1.9,0.3,4.7,1.1,6.5c0.5,1.3,1.6,3.5,3,5.6C22.5,38.8,24.3,36.6,24.8,35.7z M22.3,31.5c-0.4-0.7-1.3-0.5-1.8-0.8
				c-0.7-0.5-0.7-1.5,0-2.1c0.9-0.8,3.2,1.8,2.7,3.8C22.9,32.5,22.8,32.4,22.3,31.5z M38.4,27.4c-0.5-0.3-1.2-0.4-1.9-0.2
				c-1,0.3-1.3,1.2-1.8,1.9c-0.5,0.8-1.5,1.4-2.2,1.7c-0.5,1.1,0.3,3.7,1.1,4.9c0.4,0.9,2.2,3,1.9,6.3c1.4-2.1,2.5-4.3,3-5.6
				c0.8-1.8,1.2-4.6,1.1-6.5C39.4,29,39.2,27.9,38.4,27.4z M37.8,30.7c-0.4,0.3-1.4,0.1-1.8,0.8c-0.5,0.9-0.6,1-0.9,0.9
				c-0.5-2,1.8-4.6,2.7-3.8C38.6,29.2,38.6,30.3,37.8,30.7z"/>
		</g>
		<g id="XMLID_270_">
			<path id="XMLID_272_" class="st3" d="M44.8,48.8c-6.3,5.3-13.2,5.5-15.6,5.6v0l0,0l0,0l0,0c-2.4-0.1-9.4-0.3-15.6-5.6"/>
			<path id="XMLID_271_" class="st3" d="M8.9,14.3C12.7,8.2,21.5,3.7,29.2,3.9c7.7-0.2,16.5,4.3,20.3,10.4"/>
		</g>
	</g>
	<g>
		<path class="st2" d="M87.9,10.5H76.7c-5,0-7.7,2.5-7.7,7v19.8c0,4.5,2.7,7,7.7,7h11.2c5,0,7.7-2.5,7.7-7V32h-7.4v4.9
			c0,0.5-0.1,1-1.2,1h-9.4c-1,0-1.1-0.5-1.1-1V17.8c0-0.5,0.1-1,1.1-1H87c1.1,0,1.2,0.5,1.2,1v4.9h7.4v-5.2
			C95.6,12.9,92.9,10.5,87.9,10.5z"/>
		<path class="st2" d="M119.1,24.8l-9.3-1.8c-1.6-0.3-1.8-0.7-1.8-1.6v-3.8c0-0.5,0.1-1,1.2-1h8.6c0.9,0,1.1,0.4,1.1,1v3.9h7.3v-4.1
			c0-4.5-2.7-7-7.7-7h-10.3c-5,0-7.7,2.5-7.7,7v4.8c0,4.9,3.7,6.3,7.8,7.2l9.3,1.9c1.6,0.3,1.8,0.6,1.8,1.5V37c0,0.6-0.2,1-1.1,1
			H109c-0.9,0-1.1-0.4-1.1-1v-4.3h-7.3v4.5c0,4.5,2.7,7,7.7,7h10.9c5,0,7.7-2.5,7.7-7V32C126.9,26.8,122.9,25.6,119.1,24.8z"/>
		<path class="st2" d="M151.1,10.5v26.5c0,0.5-0.1,1-1.1,1H140c-1.1,0-1.2-0.5-1.2-1V10.5h-7.4v26.8c0,4.5,2.7,7,7.7,7h11.6
			c5,0,7.7-2.5,7.7-7V10.5H151.1z"/>
	</g>
</g>
</svg>
