<svg xmlns="http://www.w3.org/2000/svg" xmlns:xlink="http://www.w3.org/1999/xlink" width="500" zoomAndPan="magnify" viewBox="0 0 375 374.999991" height="500" preserveAspectRatio="xMidYMid meet" version="1.0"><defs><g/><clipPath id="6b46d4e583"><path d="M 1.347656 86 L 188 86 L 188 250.5 L 1.347656 250.5 Z M 1.347656 86 " clip-rule="nonzero"/></clipPath><clipPath id="5216dfe807"><path d="M 187 0 L 373.347656 0 L 373.347656 165 L 187 165 Z M 187 0 " clip-rule="nonzero"/></clipPath></defs><g clip-path="url(#6b46d4e583)"><path fill="#ffffff" d="M 126.605469 202.511719 L 126.605469 225.183594 L 24.0625 177.480469 L 24.0625 159.082031 L 126.605469 111.378906 L 126.605469 134.058594 L 49.058594 168.066406 L 49.058594 168.496094 Z M 187.503906 86.183594 L 16.023438 86.183594 C 7.925781 86.183594 1.363281 92.757812 1.363281 100.867188 L 1.363281 235.699219 C 1.363281 243.804688 7.925781 250.378906 16.023438 250.378906 L 139.902344 250.378906 L 187.503906 86.183594 " fill-opacity="1" fill-rule="nonzero"/></g><g clip-path="url(#5216dfe807)"><path fill="#64cea5" d="M 350.671875 92.019531 L 248.128906 139.078125 L 248.128906 116.398438 L 327.386719 82.390625 L 327.386719 81.960938 L 248.128906 47.949219 L 248.128906 25.273438 L 350.671875 72.335938 Z M 235.113281 0.0820312 L 187.503906 164.273438 L 358.714844 164.273438 C 366.808594 164.273438 373.371094 157.703125 373.371094 149.589844 L 373.371094 14.757812 C 373.371094 6.652344 366.808594 0.0820312 358.714844 0.0820312 L 235.113281 0.0820312 " fill-opacity="1" fill-rule="nonzero"/></g><g fill="#ffffff" fill-opacity="1"><g transform="translate(132.771476, 331.094672)"><g><path d="M 30.636719 -45.386719 L 5.75 -45.386719 L 5.75 -36.539062 L 20.652344 -36.539062 L 20.652344 -12.9375 C 20.652344 -10.210938 18.683594 -8.167969 16.1875 -8.167969 C 13.917969 -8.167969 12.179688 -9.835938 11.800781 -12.179688 L 1.96875 -9.304688 C 2.949219 -3.175781 7.867188 0.605469 16.1875 0.605469 C 25.492188 0.605469 30.636719 -4.160156 30.636719 -11.648438 Z M 30.636719 -45.386719 "/></g></g></g><g fill="#ffffff" fill-opacity="1"><g transform="translate(169.852179, 331.094672)"><g><path d="M 6.808594 9.078125 L 12.785156 9.078125 L 12.785156 -45.386719 L 6.808594 -45.386719 Z M 6.808594 9.078125 "/></g></g></g><g fill="#ffffff" fill-opacity="1"><g transform="translate(192.182469, 331.094672)"><g><path d="M 32.90625 -45.386719 L 32.90625 -27.15625 L 14.449219 -27.15625 L 14.449219 -45.386719 L 4.464844 -45.386719 L 4.464844 0 L 14.449219 0 L 14.449219 -18.304688 L 32.90625 -18.304688 L 32.90625 0 L 42.816406 0 L 42.816406 -45.386719 Z M 32.90625 -45.386719 "/></g></g></g></svg>