<svg xmlns="http://www.w3.org/2000/svg" xmlns:xlink="http://www.w3.org/1999/xlink" width="150" height="47">
  <defs>
    <linearGradient id="a" x1="50%" x2="50%" y1="0%" y2="97.72%">
      <stop offset="0%" stop-color="#5770FF"/>
      <stop offset="100%" stop-color="#6FDBFF"/>
    </linearGradient>
    <path id="b" d="M1.52 0h20.96c.53 0 .72.06.91.16.2.1.35.25.45.45.1.19.16.38.16.9v12.97c0 .53-.06.72-.16.91-.1.2-.25.35-.45.45-.19.1-.38.16-.9.16H1.51c-.53 0-.72-.06-.91-.16-.2-.1-.35-.25-.45-.45-.1-.19-.16-.38-.16-.9V1.51C0 .99.06.8.16.6.26.4.4.26.6.16.8.06.99 0 1.5 0z"/>
  </defs>
  <g fill="none" fill-rule="evenodd">
    <path fill="#363636" fill-rule="nonzero" stroke="#000" stroke-opacity=".25" stroke-width=".62" d="M17.09.31c-5.37 0-7.7.45-10.12 1.74a11.8 11.8 0 0 0-4.92 4.92C.76 9.38.31 11.72.31 17.09v12.63c0 5.37.45 7.7 1.74 10.12a11.8 11.8 0 0 0 4.92 4.92c2.41 1.29 4.75 1.74 10.12 1.74h115.86c5.37 0 7.7-.45 10.12-1.74a11.8 11.8 0 0 0 4.92-4.92c1.29-2.41 1.74-4.75 1.74-10.12V17.1c0-5.37-.45-7.7-1.74-10.12a11.8 11.8 0 0 0-4.92-4.92C140.66.76 138.32.31 132.95.31H17.1z"/>
    <path fill="url(#a)" d="M11.13 0h14.94c3.87 0 5.27.4 6.69 1.16a7.89 7.89 0 0 1 3.28 3.28c.76 1.42 1.16 2.82 1.16 6.69V26c0 3.87-.4 5.27-1.16 6.69a7.89 7.89 0 0 1-3.28 3.28c-1.42.76-2.82 1.16-6.69 1.16H11.13c-3.87 0-5.27-.4-6.69-1.16a7.89 7.89 0 0 1-3.28-3.28C.4 31.28 0 29.88 0 26V11.13c0-3.87.4-5.27 1.16-6.69a7.89 7.89 0 0 1 3.28-3.28C5.86.4 7.26 0 11.13 0z" transform="translate(5 5)"/>
    <g transform="translate(11 16)">
      <mask id="c" fill="#fff">
        <use xlink:href="#b"/>
      </mask>
      <path fill="#FFF" fill-rule="nonzero" d="M7.53 8.48l2.25 2.33a2.96 2.96 0 0 0 4.26.01l2.27-2.34 7.99 8.26-24.9.21 8.13-8.47z" mask="url(#c)"/>
      <path fill="#FFF" fill-rule="nonzero" d="M24.3 11.91L13.6.86a2.37 2.37 0 0 0-3.41.01L-.6 12.12l24.9-.2z" mask="url(#c)" transform="matrix(1 0 0 -1 0 11.22)"/>
      <path fill="#FFF" fill-rule="nonzero" mask="url(#c)" d="M16.69 8.04L24 15.27V.56z"/>
      <path fill="#FFF" fill-rule="nonzero" mask="url(#c)" transform="matrix(-1 0 0 1 6.72 0)" d="M-.3 8.09l7.32 7.23V.6z"/>
    </g>
    <path fill="#FFF" fill-rule="nonzero" d="M56.91 20.7V23h-8.54V10.11h8.54v2.3h-5.84v3.02h5.51v2.13h-5.51v3.14h5.84zM59.5 23v-9.85h2.52v1.6h.16a2.77 2.77 0 0 1 2.72-1.81c1.39 0 2.34.67 2.73 1.82h.16a3.1 3.1 0 0 1 2.96-1.82c1.97 0 3.2 1.27 3.2 3.3V23h-2.6v-6.07c0-1.17-.55-1.75-1.65-1.75-1.05 0-1.73.75-1.73 1.8V23h-2.5v-6.18c0-1.04-.61-1.64-1.63-1.64s-1.74.8-1.74 1.89V23h-2.6zm20.52-1.8c1.2 0 2.11-.77 2.11-1.77v-.73l-1.99.13c-1.12.08-1.66.48-1.66 1.19 0 .73.63 1.18 1.54 1.18zm-.86 1.95c-1.9 0-3.23-1.16-3.23-2.96 0-1.79 1.37-2.83 3.82-2.97l2.38-.14v-.8c0-.83-.59-1.3-1.66-1.3-.94 0-1.56.33-1.78.92H76.3c.17-1.82 1.84-2.96 4.31-2.96 2.61 0 4.08 1.23 4.08 3.34V23h-2.51v-1.29H82c-.51.9-1.58 1.44-2.86 1.44zm8.1-.15v-9.85h2.6V23h-2.6zm1.31-11.23c-.94 0-1.54-.54-1.54-1.3 0-.79.6-1.32 1.54-1.32.93 0 1.54.53 1.54 1.31 0 .77-.61 1.31-1.54 1.31zM92.57 23V9.39h2.6V23h-2.6zm10.01 0v-9.85h2.52v1.6h.16a2.77 2.77 0 0 1 2.73-1.81c1.38 0 2.33.67 2.72 1.82h.16a3.1 3.1 0 0 1 2.96-1.82c1.97 0 3.2 1.27 3.2 3.3V23h-2.6v-6.07c0-1.17-.55-1.75-1.65-1.75-1.05 0-1.73.75-1.73 1.8V23h-2.5v-6.18c0-1.04-.61-1.64-1.63-1.64s-1.74.8-1.74 1.89V23h-2.6zm21.22-8.07c-1.2 0-2.05.84-2.14 2.11h4.2c-.06-1.3-.84-2.11-2.06-2.11zm2.1 5.27h2.43c-.4 1.85-2.1 3.01-4.5 3.01-3 0-4.77-1.89-4.77-5.09s1.8-5.18 4.73-5.18c2.9 0 4.62 1.84 4.62 4.97v.8h-6.76v.13c.03 1.46.9 2.37 2.25 2.37 1.03 0 1.73-.36 2-1.01zM47.62 37v-5.76h1.26v.93h.09c.24-.65.83-1.04 1.6-1.04.8 0 1.35.4 1.59 1.04h.09c.28-.63.94-1.04 1.74-1.04 1.16 0 1.85.72 1.85 1.91V37h-1.3v-3.63c0-.74-.35-1.1-1.05-1.1-.68 0-1.13.49-1.13 1.15V37h-1.27v-3.72c0-.63-.4-1.02-1.04-1.02-.65 0-1.12.53-1.12 1.24V37H47.6zm11.74-.93c.79 0 1.38-.51 1.38-1.18v-.46l-1.3.09c-.73.04-1.08.3-1.08.77 0 .49.42.78 1 .78zm-.39 1.02c-1.1 0-1.9-.67-1.9-1.72 0-1.04.78-1.64 2.18-1.73l1.49-.09v-.48c0-.57-.38-.88-1.09-.88-.6 0-1 .21-1.13.6h-1.23c.1-1.02 1.06-1.66 2.43-1.66 1.48 0 2.3.72 2.3 1.94V37h-1.25v-.79h-.1c-.31.56-.94.88-1.7.88zM63.6 37v-5.76h1.3V37h-1.3zm.65-6.7c-.48 0-.8-.3-.8-.72 0-.41.32-.72.8-.72.48 0 .8.3.8.72s-.32.72-.8.72zm2.32 6.7v-7.98h1.3V37h-1.3zm7.08-4.48c-.6 0-.97.48-.97 1.3 0 .81.37 1.3.97 1.3.62 0 1.02-.5 1.02-1.3s-.4-1.3-1.02-1.3zm.18-3.13c2.51 0 4.24 1.6 4.24 3.9 0 1.7-.78 2.76-2.04 2.76-.64 0-1.12-.34-1.21-.85h-.1c-.22.54-.67.82-1.28.82-1.1 0-1.82-.9-1.82-2.23 0-1.27.73-2.16 1.8-2.16.55 0 1.01.28 1.22.75h.1v-.64h.96v2.9c0 .38.2.6.53.6.59 0 .96-.75.96-1.9 0-1.9-1.37-3.16-3.4-3.16-2.05 0-3.48 1.5-3.48 3.64 0 2.17 1.42 3.56 3.67 3.56a5 5 0 0 0 1.55-.2v.78a5.8 5.8 0 0 1-1.6.21c-2.74 0-4.5-1.72-4.5-4.38 0-2.6 1.79-4.4 4.4-4.4zm5.52 3.5c0-1.04.95-1.76 2.3-1.76 1.37 0 2.23.6 2.33 1.65h-1.23c-.1-.4-.48-.66-1.09-.66-.6 0-1.04.28-1.04.7 0 .32.27.52.85.65l1.02.23c1.1.25 1.6.73 1.6 1.57 0 1.1-1 1.85-2.45 1.85-1.43 0-2.34-.63-2.44-1.67h1.3c.12.42.52.68 1.18.68.65 0 1.11-.3 1.11-.72 0-.33-.24-.53-.8-.65l-1.01-.24c-1.1-.25-1.63-.76-1.63-1.63zm6.48-3.06h1.3v1.45h1.24v1.04h-1.24v2.83c0 .57.25.82.8.82.18 0 .28-.01.44-.03v1.02a3.7 3.7 0 0 1-.69.07c-1.32 0-1.85-.45-1.85-1.57v-3.14h-.9v-1.04h.9v-1.45zM89.7 37v-5.76h1.3V37h-1.3zm.65-6.7c-.48 0-.81-.3-.81-.72 0-.41.33-.72.8-.72.48 0 .81.3.81.72s-.33.72-.8.72zm3.58.94v5.98c0 1.17-.65 1.75-1.94 1.75l-.31-.02v-1.02h.17c.57 0 .78-.21.78-.74v-5.95h1.3zm-.65-.94c-.48 0-.8-.3-.8-.72 0-.41.32-.72.8-.72.48 0 .8.3.8.72s-.32.72-.8.72zm2.27 6.7v-5.76h1.25v.92h.1c.27-.64.85-1.03 1.7-1.03 1.29 0 1.99.77 1.99 2.14V37h-1.3v-3.42c0-.88-.38-1.32-1.17-1.32-.78 0-1.27.54-1.27 1.39V37h-1.3zm8.67.1c-1.46 0-2.37-1.15-2.37-2.98s.92-2.97 2.37-2.97c.79 0 1.44.38 1.75 1h.09v-3.13h1.3V37h-1.26v-.91H106c-.33.63-.99 1-1.79 1zm.4-4.84c-.88 0-1.43.7-1.43 1.86 0 1.16.54 1.86 1.44 1.86.9 0 1.44-.7 1.44-1.86 0-1.15-.55-1.86-1.44-1.86zm9.41-1.02L111.98 37h-1.43l-2.05-5.76h1.4l1.33 4.45h.1l1.31-4.45h1.38zm2.08 5.87a.81.81 0 0 1-.85-.83.8.8 0 0 1 .85-.83c.5 0 .84.35.84.83a.8.8 0 0 1-.84.83zm7.54-3.93h-1.24c-.12-.56-.55-.96-1.27-.96-.9 0-1.42.69-1.42 1.88 0 1.22.53 1.92 1.42 1.92.68 0 1.13-.32 1.27-.92h1.24c-.14 1.2-1.04 2.02-2.5 2.02-1.73 0-2.75-1.12-2.75-3.02 0-1.86 1.01-2.97 2.74-2.97 1.48 0 2.38.84 2.51 2.05zm3.74 3.94c-1.73 0-2.77-1.13-2.77-3 0-1.86 1.06-3 2.77-3s2.76 1.14 2.76 3c0 1.87-1.04 3-2.76 3zm0-1.1c.9 0 1.42-.7 1.42-1.9s-.52-1.9-1.42-1.9c-.91 0-1.44.7-1.44 1.9s.53 1.9 1.44 1.9zm4.08.98v-5.76h1.26v.93h.09c.25-.65.83-1.04 1.6-1.04.8 0 1.35.4 1.59 1.04h.09c.28-.63.94-1.04 1.74-1.04 1.16 0 1.85.72 1.85 1.91V37h-1.3v-3.63c0-.74-.35-1.1-1.05-1.1-.68 0-1.13.49-1.13 1.15V37h-1.27v-3.72c0-.63-.4-1.02-1.04-1.02-.65 0-1.12.53-1.12 1.24V37h-1.31z"/>
  </g>
</svg>
