<svg width="32" height="32" viewBox="0 0 32 32" fill="none" xmlns="http://www.w3.org/2000/svg">
<path d="M10.5 5C9.04131 5 7.64236 5.57946 6.61091 6.61091C5.57946 7.64236 5 9.04131 5 10.5C5 11.9587 5.57946 13.3576 6.61091 14.3891C7.64236 15.4205 9.04131 16 10.5 16C11.9587 16 13.3576 15.4205 14.3891 14.3891C15.4205 13.3576 16 11.9587 16 10.5C16 9.04131 15.4205 7.64236 14.3891 6.61091C13.3576 5.57946 11.9587 5 10.5 5Z" fill="#5F6368"/>
<path d="M7 10.5C7 9.57174 7.36875 8.6815 8.02513 8.02513C8.6815 7.36875 9.57174 7 10.5 7C11.4283 7 12.3185 7.36875 12.9749 8.02513C13.6313 8.6815 14 9.57174 14 10.5C14 11.4283 13.6313 12.3185 12.9749 12.9749C12.3185 13.6313 11.4283 14 10.5 14C9.57174 14 8.6815 13.6313 8.02513 12.9749C7.36875 12.3185 7 11.4283 7 10.5Z" fill="white"/>
<path d="M21 12C21 11.4696 21.2107 10.9609 21.5858 10.5858C21.9609 10.2107 22.4696 10 23 10C23.5304 10 24.0391 10.2107 24.4142 10.5858C24.7893 10.9609 25 11.4696 25 12C25 12.5304 24.7893 13.0391 24.4142 13.4142C24.0391 13.7893 23.5304 14 23 14C22.4696 14 21.9609 13.7893 21.5858 13.4142C21.2107 13.0391 21 12.5304 21 12ZM23 8C21.9391 8 20.9217 8.42143 20.1716 9.17157C19.4214 9.92172 19 10.9391 19 12C19 13.0609 19.4214 14.0783 20.1716 14.8284C20.9217 15.5786 21.9391 16 23 16C24.0609 16 25.0783 15.5786 25.8284 14.8284C26.5786 14.0783 27 13.0609 27 12C27 10.9391 26.5786 9.92172 25.8284 9.17157C25.0783 8.42143 24.0609 8 23 8Z" fill="#5F6368"/>
<path d="M2 21C2 20.2044 2.31607 19.4413 2.87868 18.8787C3.44129 18.3161 4.20435 18 5 18H16C16.7956 18 17.5587 18.3161 18.1213 18.8787C18.6839 19.4413 19 20.2044 19 21V21.226C18.998 21.3193 18.9914 21.4124 18.98 21.505C18.96 21.678 18.923 21.913 18.85 22.191C18.6579 22.9244 18.3179 23.6107 17.851 24.208C16.681 25.71 14.48 27 10.5 27C6.52 27 4.32 25.71 3.149 24.208C2.68171 23.6108 2.34141 22.9244 2.149 22.191C2.07262 21.8968 2.02374 21.5962 2.003 21.293C2.00203 21.2707 2.00137 21.2483 2.001 21.226V21.203L2 21.195V21ZM4 21.178V21.19C4.01386 21.3581 4.0423 21.5248 4.085 21.688C4.175 22.036 4.358 22.506 4.726 22.979C5.431 23.883 6.98 25 10.5 25C14.02 25 15.57 23.883 16.274 22.98C16.573 22.5973 16.7908 22.1577 16.914 21.688C16.957 21.5248 16.9858 21.3582 17 21.19L17.001 21.178V21C17.001 20.7348 16.8956 20.4804 16.7081 20.2929C16.5206 20.1054 16.2662 20 16.001 20H5C4.73478 20 4.48043 20.1054 4.29289 20.2929C4.10536 20.4804 4 20.7348 4 21V21.178ZM19.477 24.492C20.407 24.808 21.564 25 23 25C26.201 25 28.02 24.047 29.013 22.875C29.496 22.305 29.743 21.727 29.868 21.283C29.9354 21.045 29.9786 20.8007 29.997 20.554L29.998 20.518L29.999 20.496V20.458C29.9991 20.1352 29.9356 19.8155 29.8122 19.5172C29.6887 19.2189 29.5076 18.9479 29.2794 18.7196C29.0511 18.4914 28.7801 18.3103 28.4818 18.1868C28.1835 18.0634 27.8638 17.9999 27.541 18H19.352C19.852 18.559 20.215 19.243 20.387 20H27.541C27.791 20 27.993 20.199 27.999 20.446C27.9892 20.5455 27.9704 20.6439 27.943 20.74C27.881 20.96 27.753 21.268 27.486 21.583C26.98 22.182 25.799 23 23 23C21.835 23 20.951 22.858 20.279 22.65C20.1011 23.2992 19.831 23.9195 19.477 24.492Z" fill="#5F6368"/>
</svg>
