<svg xmlns="http://www.w3.org/2000/svg" width="446" height="528" viewBox="0 0 446 528"><title>  Group</title><desc>  Created with Sketch.</desc><g fill="none"><g fill="#FFAE00"><path d="M54.5 0L54.5 59.2 256.3 59.6C357.5 61.1 360.3 193.4 258 192.6 256.9 192.6 242.7 192.6 242.7 192.6L215.4 192.6 215.4 91.6 156.2 91.6 156.2 192.6 54 192.6 54 251.8 156.2 251.8 156.2 352.8 215.4 352.8 215.4 251.8 242.5 251.8C242.5 251.8 256.7 251.7 257.4 251.7 438.3 251.8 436.6 0 256.8 0.3 197.8 0.4 130.3 0.3 54.5 0Z"/><path d="M24.3 466.5L38.2 466.5C47.2 466.5 53.3 461.2 53.3 453 53.3 444.4 47.2 439.3 38.2 439.3L24.3 439.3 24.3 466.5ZM40.6 486.9L24.2 486.9 24.2 525.1 0.5 525.1 0.5 418.8 40.6 418.8C62.2 418.8 77 433 77 452.8 77 472.9 62.2 486.9 40.6 486.9ZM191.3 525.1L121.7 525.1 121.7 418.8 145.4 418.8 145.4 502.5 191.3 502.5 191.3 525.1ZM276.4 527.5C253 527.5 234.2 513.4 234.2 486.7L234.2 418.8 257.9 418.8 257.9 484.8C257.9 497.7 265.1 504.1 276.4 504.1 287.6 504.1 294.8 497.7 294.8 484.8L294.8 418.8 318.5 418.8 318.5 486.7C318.5 513.4 299.8 527.5 276.4 527.5ZM443.9 444.9L422.6 450.9C421.9 445.9 417.8 437.5 404.9 437.5 396.1 437.5 390.4 443.1 390.4 448.9 390.4 454 393.5 457.8 400.9 459.1L415.1 461.8C435.4 465.6 445.9 478.6 445.9 493.8 445.9 510.4 431.9 527.4 406.6 527.4 377.2 527.4 364.6 508.3 363.1 493.3L384.8 488.1C385.7 497.8 392.3 506.4 406.9 506.4 416.2 506.4 421.9 501.9 421.9 495.3 421.9 489.9 417.5 486 410.5 484.6L395.9 481.9C377.9 478.5 367 466.5 367 450.7 367 430.6 384.7 416.5 405.1 416.5 431.6 416.5 441.7 432.4 443.9 444.9Z"/></g></g></svg>
