<svg width="383" height="81" viewBox="0 0 383 81" fill="none" xmlns="http://www.w3.org/2000/svg">
<line y1="48.75" x2="29.1096" y2="48.75" stroke="#EB1E2D" stroke-width="2"/>
<line y1="-1" x2="12.1208" y2="-1" transform="matrix(0.565089 -0.82503 0.939381 0.342874 29.1095 49.75)" stroke="#D19E29" stroke-width="2"/>
<line y1="-1" x2="26.4254" y2="-1" transform="matrix(0.323993 0.946059 -0.983752 0.179535 34.2466 39.75)" stroke="#2D9A47" stroke-width="2"/>
<line y1="-1" x2="64.5726" y2="-1" transform="matrix(0.159107 -0.987261 0.996332 0.0855674 44.5205 64.75)" stroke="#C11F34" stroke-width="2"/>
<line y1="-1" x2="80.657" y2="-1" transform="matrix(0.127379 0.991854 -0.997666 0.0682778 53.0823 1)" stroke="#ED4129" stroke-width="2"/>
<line y1="-1" x2="36.032" y2="-1" transform="matrix(0.237613 -0.97136 0.99161 0.129263 65.0684 81)" stroke="#00ADD8" stroke-width="2"/>
<line y1="-1" x2="19.441" y2="-1" transform="matrix(0.264235 0.964458 -0.989509 0.144468 71.9177 46)" stroke="#FEB614" stroke-width="2"/>
<line y1="-1" x2="15.8552" y2="-1" transform="matrix(0.323993 -0.946059 0.983752 0.179535 78.7671 64.75)" stroke="#8F1838" stroke-width="2"/>
<line x1="82.1918" y1="48.75" x2="121.575" y2="48.75" stroke="#F36D24" stroke-width="2"/>
<line y1="-1" x2="13.1644" y2="-1" transform="matrix(0.650363 -0.759624 0.909781 0.415088 121.575 49.75)" stroke="#DF1A83" stroke-width="2"/>
<line y1="-1" x2="25.9213" y2="-1" transform="matrix(0.264235 0.964458 -0.989509 0.144468 128.425 39.75)" stroke="#FA9D26" stroke-width="2"/>
<line y1="-1" x2="64.5726" y2="-1" transform="matrix(0.159107 -0.987261 0.996332 0.0855674 136.986 64.75)" stroke="#CD8B2A" stroke-width="2"/>
<line y1="-1" x2="80.2927" y2="-1" transform="matrix(0.0853044 0.996355 -0.998961 0.0455776 145.548 1)" stroke="#48783E" stroke-width="2"/>
<line y1="-1" x2="42.1291" y2="-1" transform="matrix(0.203224 -0.979132 0.993939 0.109936 154.109 81)" stroke="#007CBA" stroke-width="2"/>
<line y1="-1" x2="20.6122" y2="-1" transform="matrix(0.415367 0.909654 -0.971648 0.236434 160.959 39.75)" stroke="#3EAE49" stroke-width="2"/>
<line y1="-1" x2="10.1465" y2="-1" transform="matrix(0.506282 -0.862368 0.954383 0.298585 171.233 58.5)" stroke="#01548A" stroke-width="2"/>
<line x1="174.658" y1="48.75" x2="250" y2="48.75" stroke="#5680CB" stroke-width="2"/>
<path d="M257.601 48.3501C258.58 48.2381 259.595 48.1401 260.645 48.0562C261.709 47.9722 262.703 47.9302 263.626 47.9302C263.906 47.9162 264.228 47.9022 264.592 47.8882C264.9 47.8742 265.257 47.8672 265.663 47.8672C266.083 47.8532 266.538 47.8462 267.028 47.8462C267.546 47.8462 268.092 47.8532 268.666 47.8672C269.253 47.8812 269.841 47.9022 270.429 47.9302C270.485 47.0903 270.541 46.2225 270.597 45.3267C270.653 44.4308 270.702 43.57 270.744 42.7441C270.8 41.9043 270.842 41.1344 270.87 40.4346C270.912 39.7207 270.947 39.1258 270.975 38.6499V37.2222C270.975 36.8302 270.975 36.4453 270.975 36.0674C270.975 35.6755 270.989 35.3605 271.017 35.1226C271.115 34.6606 271.318 34.4297 271.626 34.4297C271.808 34.4297 271.948 34.4507 272.046 34.4927C272.144 34.5347 272.319 34.6117 272.571 34.7236C272.697 34.7656 272.83 34.8216 272.97 34.8916C273.124 34.9616 273.271 35.0386 273.411 35.1226C273.551 35.1925 273.677 35.2695 273.789 35.3535C273.901 35.4235 273.985 35.4865 274.041 35.5425C274.097 35.5985 274.167 35.6965 274.25 35.8364C274.334 35.9624 274.418 36.1024 274.502 36.2563C274.586 36.4103 274.656 36.5713 274.712 36.7393C274.768 36.8932 274.789 37.0262 274.775 37.1382C274.761 37.2502 274.726 37.6631 274.67 38.377C274.614 39.0768 274.544 40.0076 274.46 41.1694C274.376 42.3172 274.285 43.654 274.188 45.1797C274.09 46.7054 273.999 48.3361 273.915 50.0718C273.789 52.8713 273.726 55.1948 273.726 57.0425C273.726 58.4282 273.747 59.548 273.789 60.4019C273.845 61.2557 273.915 61.8576 273.999 62.2075C274.125 62.7954 274.215 63.2153 274.271 63.4673C274.327 63.7192 274.32 63.8872 274.25 63.9712C274.222 63.9992 274.181 64.0272 274.125 64.0552C273.985 64.1112 273.754 64.1672 273.432 64.2231C273.376 64.3771 273.32 64.5031 273.264 64.6011C273.208 64.6851 273.152 64.755 273.096 64.811C273.04 64.867 272.984 64.916 272.928 64.958C272.788 65 272.655 65.042 272.529 65.084C272.403 65.126 272.305 65.112 272.235 65.042C272.193 65.028 272.158 65.007 272.13 64.979C272.074 64.951 272.025 64.874 271.983 64.748C271.843 64.804 271.717 64.804 271.605 64.748C271.549 64.7201 271.5 64.6921 271.458 64.6641C271.346 64.5661 271.185 64.3911 270.975 64.1392C270.765 63.8872 270.625 63.5443 270.555 63.1104C270.527 62.9004 270.478 62.6764 270.408 62.4385C270.352 62.1865 270.289 61.9346 270.219 61.6826C270.163 61.4167 270.1 61.1647 270.03 60.9268C269.974 60.6748 269.932 60.4438 269.904 60.2339C269.862 60.0379 269.841 59.625 269.841 58.9951C269.855 58.3652 269.876 57.6304 269.904 56.7905C269.946 55.9507 269.995 55.0549 270.051 54.103C270.107 53.1512 270.163 52.2554 270.219 51.4155C270.219 51.3035 270.219 51.1846 270.219 51.0586C270.219 50.9326 270.233 50.7926 270.261 50.6387C269.631 50.6107 269.008 50.5967 268.393 50.5967C267.791 50.5967 267.21 50.5967 266.65 50.5967C265.95 50.5967 265.313 50.6037 264.739 50.6177C264.165 50.6177 263.661 50.6247 263.228 50.6387C262.724 50.6527 262.269 50.6667 261.863 50.6807C260.379 50.6807 258.944 50.7227 257.559 50.8066C257.545 51.0166 257.531 51.1986 257.517 51.3525C257.517 51.5065 257.517 51.6395 257.517 51.7515V52.0664C257.489 53.4382 257.461 54.7539 257.433 56.0137C257.405 57.2734 257.384 58.4002 257.37 59.394C257.356 60.3879 257.342 61.2137 257.328 61.8716C257.328 62.5295 257.335 62.9424 257.349 63.1104C257.349 63.2503 257.342 63.3973 257.328 63.5513C257.314 63.6912 257.286 63.8592 257.244 64.0552C257.216 64.2371 257.167 64.4401 257.097 64.6641C256.957 64.6781 256.824 64.7271 256.698 64.811C256.642 64.853 256.586 64.888 256.53 64.916C256.404 65 256.285 65.091 256.173 65.189C256.075 65.3009 255.984 65.3219 255.9 65.252C255.788 65.168 255.648 65.112 255.48 65.084C255.326 65.056 255.13 65.042 254.892 65.042C254.78 65.042 254.661 65.007 254.535 64.937C254.409 64.867 254.29 64.79 254.178 64.7061C254.066 64.6081 253.968 64.5031 253.884 64.3911C253.8 64.2791 253.751 64.1812 253.737 64.0972C253.709 64.0132 253.674 63.8942 253.632 63.7402C253.59 63.5723 253.548 63.4043 253.506 63.2363C253.478 63.0544 253.45 62.8864 253.422 62.7324C253.394 62.5645 253.373 62.4455 253.359 62.3755C253.345 62.3055 253.345 61.9556 253.359 61.3257C253.373 60.6958 253.401 59.87 253.443 58.8481C253.485 57.8123 253.534 56.6296 253.59 55.2998C253.646 53.9561 253.709 52.5423 253.779 51.0586C253.247 51.1146 252.799 51.1636 252.436 51.2056C252.072 51.2336 251.848 51.2616 251.764 51.2896C251.61 51.3175 251.484 51.3525 251.386 51.3945C251.302 51.4225 251.225 51.4505 251.155 51.4785C251.099 51.5065 251.043 51.5275 250.987 51.5415C250.931 51.5415 250.875 51.5275 250.819 51.4995C250.735 51.4995 250.651 51.4505 250.567 51.3525C250.497 51.2406 250.448 51.1146 250.42 50.9746C250.266 50.9466 250.161 50.8976 250.105 50.8276C250.063 50.7437 250.028 50.6807 250 50.6387C250 50.5267 250.049 50.4497 250.147 50.4077C250.259 50.3517 250.427 50.2118 250.651 49.9878C250.749 49.8898 250.889 49.7988 251.071 49.7148C251.267 49.6169 251.47 49.5259 251.68 49.4419C251.89 49.3579 252.093 49.2879 252.289 49.2319C252.499 49.1619 252.681 49.113 252.834 49.085L253.863 48.917C253.947 47.5452 254.031 46.2925 254.115 45.1587C254.199 44.0249 254.276 42.9751 254.346 42.0093C254.416 41.0435 254.472 40.1476 254.514 39.3218C254.57 38.4819 254.598 37.6701 254.598 36.8862C254.598 36.6623 254.591 36.4523 254.577 36.2563C254.563 36.0604 254.556 35.8504 254.556 35.6265C254.556 35.4585 254.598 35.3185 254.682 35.2065C254.78 35.0806 254.899 35.0036 255.039 34.9756H255.291C255.445 34.9756 255.732 34.9966 256.152 35.0386C256.208 34.8986 256.271 34.8076 256.341 34.7656C256.383 34.7376 256.418 34.7236 256.446 34.7236C256.558 34.7236 256.649 34.7516 256.719 34.8076C256.803 34.8496 256.859 34.8916 256.887 34.9336C256.887 34.9616 256.894 34.9896 256.908 35.0176C256.922 35.0596 256.943 35.1226 256.971 35.2065C257.083 35.2345 257.167 35.2625 257.223 35.2905C257.279 35.3185 257.328 35.3465 257.37 35.3745C257.412 35.4165 257.447 35.4445 257.475 35.4585L257.538 35.5845C257.58 35.6685 257.622 35.8294 257.664 36.0674C257.762 36.2773 257.825 36.4243 257.853 36.5083C257.867 36.5643 257.874 36.5993 257.874 36.6133C257.874 36.6413 257.881 36.6763 257.895 36.7183C257.895 36.7463 257.895 36.7743 257.895 36.8022C257.909 36.8302 257.916 36.8582 257.916 36.8862L257.601 48.3501ZM291.404 64.874C291.404 65 291.299 65.154 291.089 65.3359C290.879 65.5179 290.613 65.6089 290.292 65.6089C290.194 65.6089 290.012 65.5599 289.746 65.4619C289.494 65.3639 289.228 65.217 288.948 65.021C288.668 64.839 288.416 64.6151 288.192 64.3491C287.968 64.0692 287.849 63.7542 287.835 63.4043C287.807 63.2503 287.793 63.0404 287.793 62.7744C287.793 62.4945 287.793 62.1725 287.793 61.8086C287.793 61.2487 287.793 60.6258 287.793 59.9399C287.793 59.2541 287.807 58.5612 287.835 57.8613C287.737 58.3652 287.618 58.8901 287.478 59.436C287.338 59.9679 287.163 60.4998 286.953 61.0317C286.743 61.5636 286.498 62.0885 286.218 62.6064C285.938 63.1243 285.616 63.6213 285.252 64.0972C285.056 64.3491 284.847 64.5661 284.623 64.748C284.413 64.916 284.203 65.056 283.993 65.168C283.783 65.2939 283.587 65.3849 283.405 65.4409C283.223 65.4969 283.083 65.5249 282.985 65.5249C282.929 65.5249 282.796 65.4619 282.586 65.3359C282.39 65.224 282.152 65.077 281.872 64.895C281.606 64.6991 281.319 64.4891 281.011 64.2651C280.703 64.0272 280.409 63.7962 280.129 63.5723C279.849 63.3343 279.597 63.1174 279.374 62.9214C279.15 62.7114 278.989 62.5435 278.891 62.4175C278.793 62.2775 278.702 62.0396 278.618 61.7036C278.548 61.3677 278.485 60.9548 278.429 60.4648C278.373 59.9749 278.324 59.422 278.282 58.8062C278.254 58.1903 278.24 57.5324 278.24 56.8325C278.24 56.4546 278.247 55.9647 278.261 55.3628C278.275 54.7609 278.303 54.117 278.345 53.4312C278.387 52.7313 278.436 52.0314 278.492 51.3315C278.562 50.6177 278.639 49.9808 278.723 49.4209C278.821 48.847 278.933 48.3851 279.059 48.0352C279.185 47.6712 279.332 47.4893 279.5 47.4893C279.611 47.4893 279.807 47.5243 280.087 47.5942C280.367 47.6502 280.654 47.6782 280.948 47.6782C281.382 47.6782 281.683 47.6432 281.851 47.5732C282.033 47.4893 282.166 47.4473 282.25 47.4473C282.39 47.4473 282.46 47.5662 282.46 47.8042C282.46 47.8742 282.46 47.9442 282.46 48.0142C282.46 48.0701 282.446 48.1401 282.418 48.2241C282.404 48.3081 282.369 48.5251 282.313 48.875C282.271 49.2249 282.215 49.6729 282.145 50.2188C282.075 50.7646 282.005 51.3805 281.935 52.0664C281.865 52.7383 281.795 53.4451 281.725 54.187C281.669 54.9289 281.62 55.6777 281.578 56.4336C281.536 57.1895 281.515 57.9103 281.515 58.5962C281.515 59.0581 281.522 59.52 281.536 59.9819C281.564 60.4438 281.606 60.8638 281.662 61.2417C281.718 61.6196 281.795 61.9276 281.893 62.1655C281.991 62.3895 282.11 62.5015 282.25 62.5015C282.376 62.5015 282.551 62.4455 282.775 62.3335C283.013 62.2075 283.286 61.9626 283.594 61.5986C283.916 61.2347 284.266 60.7168 284.644 60.0449C285.021 59.373 285.427 58.4842 285.861 57.3784C286.309 56.2586 286.771 54.8939 287.247 53.2842C287.737 51.6605 288.234 49.7288 288.738 47.4893C288.738 47.4473 288.759 47.4193 288.801 47.4053C288.857 47.3773 288.92 47.3633 288.99 47.3633C289.172 47.3633 289.403 47.3843 289.683 47.4263C289.963 47.4543 290.229 47.5033 290.48 47.5732C290.746 47.6292 290.97 47.6992 291.152 47.7832C291.348 47.8672 291.446 47.9582 291.446 48.0562C291.446 48.686 291.418 49.3719 291.362 50.1138C291.306 50.8556 291.243 51.6255 291.173 52.4233C291.103 53.2072 291.04 54.012 290.984 54.8379C290.928 55.6637 290.9 56.4826 290.9 57.2944C290.9 58.7502 290.942 60.1429 291.026 61.4727C291.124 62.7884 291.25 63.9222 291.404 64.874ZM299.425 36.5293C299.411 36.6273 299.383 36.9422 299.341 37.4741C299.313 38.006 299.271 38.6779 299.215 39.4897C299.173 40.2876 299.117 41.1834 299.047 42.1772C298.991 43.1571 298.928 44.1439 298.858 45.1377C298.802 46.1315 298.746 47.0903 298.69 48.0142C298.648 48.924 298.613 49.7148 298.585 50.3867C298.767 50.0788 299.005 49.7708 299.299 49.4629C299.593 49.1549 299.943 48.882 300.349 48.644C300.769 48.3921 301.244 48.1891 301.776 48.0352C302.322 47.8812 302.931 47.8042 303.603 47.8042C304.457 47.8042 305.304 47.9582 306.144 48.2661C306.997 48.5741 307.76 49.05 308.432 49.6938C309.104 50.3237 309.65 51.1356 310.07 52.1294C310.49 53.1092 310.7 54.278 310.7 55.6357C310.7 56.7695 310.546 57.7983 310.238 58.7222C309.944 59.646 309.552 60.4718 309.062 61.1997C308.586 61.9136 308.04 62.5365 307.424 63.0684C306.808 63.6003 306.186 64.0412 305.556 64.3911C304.926 64.741 304.317 65 303.729 65.168C303.141 65.3359 302.63 65.4199 302.196 65.4199C301.748 65.4199 301.328 65.3779 300.937 65.2939C300.559 65.21 300.223 65.105 299.929 64.979C299.649 64.853 299.425 64.7131 299.257 64.5591C299.103 64.4051 299.019 64.2511 299.005 64.0972C298.977 63.7752 298.97 63.4323 298.984 63.0684C299.012 62.7044 299.145 62.4035 299.383 62.1655C299.607 61.9416 299.796 61.8086 299.95 61.7666C300.118 61.7246 300.279 61.8016 300.433 61.9976C300.587 62.1935 300.678 62.4105 300.706 62.6484C300.748 62.8864 300.727 63.0684 300.643 63.1943C300.601 63.2643 300.601 63.3273 300.643 63.3833C300.699 63.4253 300.776 63.4673 300.874 63.5093C300.986 63.5373 301.104 63.5653 301.23 63.5933C301.37 63.6073 301.503 63.6143 301.629 63.6143C302.105 63.6143 302.644 63.4253 303.246 63.0474C303.862 62.6554 304.436 62.1165 304.968 61.4307C305.5 60.7448 305.948 59.9399 306.312 59.0161C306.675 58.0923 306.85 57.0915 306.836 56.0137C306.822 55.1598 306.717 54.418 306.521 53.7881C306.326 53.1442 306.081 52.6053 305.787 52.1714C305.493 51.7235 305.157 51.3595 304.779 51.0796C304.415 50.7996 304.051 50.5897 303.687 50.4497C303.337 50.2957 303.001 50.1978 302.679 50.1558C302.371 50.1138 302.119 50.0998 301.923 50.1138C301.097 50.2118 300.391 50.4987 299.803 50.9746C299.215 51.4365 298.788 52.0244 298.522 52.7383C298.48 54.222 298.424 55.7197 298.354 57.2314C298.298 58.7292 298.27 60.1289 298.27 61.4307C298.27 62.0745 298.277 62.6904 298.291 63.2783C298.319 63.8662 298.368 64.3841 298.438 64.832C298.452 64.972 298.445 65.07 298.417 65.126C298.403 65.182 298.368 65.21 298.312 65.21C298.256 65.21 298.193 65.196 298.123 65.168C298.053 65.14 297.99 65.112 297.934 65.084C297.878 65.056 297.864 65.091 297.892 65.189C297.92 65.2869 297.934 65.3849 297.934 65.4829C297.948 65.5949 297.927 65.6719 297.871 65.7139C297.829 65.7699 297.703 65.7349 297.493 65.6089C297.381 65.5109 297.241 65.4339 297.073 65.3779C296.919 65.3359 296.863 65.3709 296.905 65.4829C296.919 65.5249 296.877 65.5459 296.779 65.5459C296.681 65.5599 296.562 65.5459 296.422 65.5039C296.296 65.4619 296.17 65.3849 296.044 65.2729C295.932 65.161 295.855 65 295.813 64.79C295.743 64.3561 295.674 63.8942 295.604 63.4043C295.548 62.9004 295.499 62.3545 295.457 61.7666C295.415 61.1647 295.38 60.5068 295.352 59.793C295.324 59.0651 295.31 58.2463 295.31 57.3364C295.31 56.6506 295.31 55.9087 295.31 55.1108C295.324 54.299 295.352 53.4102 295.394 52.4443C295.45 50.6947 295.52 48.966 295.604 47.2583C295.688 45.5506 295.778 43.9899 295.876 42.5762C295.974 41.1484 296.079 39.9237 296.191 38.9019C296.317 37.88 296.45 37.1802 296.59 36.8022C296.618 36.6623 296.674 36.5783 296.758 36.5503C296.856 36.5223 297.031 36.4733 297.283 36.4033C297.521 36.3333 297.766 36.2633 298.018 36.1934C298.284 36.1234 298.487 36.1094 298.627 36.1514C298.683 36.1794 298.76 36.1794 298.858 36.1514C298.956 36.1234 299.047 36.1094 299.131 36.1094C299.229 36.1094 299.306 36.1374 299.362 36.1934C299.432 36.2493 299.453 36.3613 299.425 36.5293ZM326.426 55.3208C326.426 55.7547 326.307 56.1466 326.069 56.4966C325.831 56.8325 325.39 57.0145 324.746 57.0425C324.62 57.0565 324.291 57.0705 323.759 57.0845C323.227 57.0985 322.59 57.1125 321.849 57.1265C321.121 57.1405 320.337 57.1615 319.497 57.1895C318.657 57.2035 317.873 57.2174 317.146 57.2314C316.418 57.2454 315.795 57.2594 315.277 57.2734C314.773 57.2874 314.472 57.2944 314.374 57.2944C314.08 57.2944 313.849 57.2244 313.681 57.0845C313.513 56.9305 313.387 56.7625 313.303 56.5806C313.219 56.3846 313.17 56.2026 313.156 56.0347C313.142 55.8667 313.135 55.7617 313.135 55.7197C313.135 55.6217 313.142 55.5098 313.156 55.3838C313.17 55.2578 313.191 55.1388 313.219 55.0269C313.261 54.9009 313.31 54.7959 313.366 54.7119C313.422 54.6279 313.485 54.5719 313.555 54.5439C313.835 54.474 314.234 54.418 314.752 54.376C315.27 54.32 315.858 54.278 316.516 54.25C317.174 54.208 317.88 54.18 318.636 54.166C319.392 54.138 320.148 54.117 320.904 54.103C321.66 54.089 322.402 54.082 323.129 54.082C323.857 54.082 324.522 54.082 325.124 54.082C325.334 54.082 325.516 54.138 325.67 54.25C325.838 54.348 325.978 54.467 326.09 54.6069C326.202 54.7469 326.286 54.8869 326.342 55.0269C326.398 55.1668 326.426 55.2648 326.426 55.3208ZM348.346 35.6685C348.444 35.6685 348.5 35.6965 348.514 35.7524C348.528 35.7944 348.458 35.8714 348.304 35.9834C348.276 36.0114 348.262 36.0394 348.262 36.0674C348.262 36.0814 348.262 36.1024 348.262 36.1304C348.262 36.1584 348.248 36.2004 348.22 36.2563C348.206 36.2983 348.164 36.3613 348.094 36.4453C347.968 36.5853 347.737 36.8652 347.401 37.2852C347.065 37.7051 346.666 38.216 346.204 38.8179C345.742 39.4058 345.231 40.0636 344.671 40.7915C344.125 41.5194 343.559 42.2682 342.971 43.0381C342.397 43.8079 341.823 44.5778 341.249 45.3477C340.689 46.1035 340.164 46.8174 339.674 47.4893C339.184 48.1471 338.757 48.735 338.394 49.2529C338.03 49.7568 337.764 50.1488 337.596 50.4287V51.1006C337.596 51.6325 337.582 52.2764 337.554 53.0322C337.54 53.7881 337.519 54.5929 337.491 55.4468C337.463 56.2866 337.435 57.1405 337.407 58.0083C337.379 58.8761 337.351 59.681 337.323 60.4229C337.295 61.1647 337.267 61.8156 337.239 62.3755C337.225 62.9354 337.218 63.3343 337.218 63.5723C337.218 63.7682 337.204 63.9152 337.176 64.0132C337.162 64.1112 337.134 64.1812 337.092 64.2231C337.05 64.2511 336.987 64.2651 336.903 64.2651C336.833 64.2651 336.735 64.2651 336.609 64.2651C336.483 64.2651 336.413 64.2231 336.399 64.1392C336.385 64.0552 336.357 63.9992 336.315 63.9712C336.273 63.9572 336.245 63.9852 336.231 64.0552C336.217 64.1252 336.21 64.2021 336.21 64.2861C336.21 64.3701 336.203 64.4471 336.189 64.5171C336.189 64.5871 336.175 64.6221 336.147 64.6221C336.063 64.6221 335.972 64.6011 335.874 64.5591C335.79 64.5031 335.706 64.4471 335.622 64.3911C335.552 64.3351 335.482 64.2931 335.412 64.2651C335.356 64.2231 335.314 64.2091 335.286 64.2231C335.258 64.2371 335.251 64.2651 335.265 64.3071C335.279 64.3491 335.286 64.3911 335.286 64.4331C335.286 64.4751 335.279 64.5101 335.265 64.5381C335.251 64.5521 335.216 64.5451 335.16 64.5171C335.09 64.5031 335.02 64.4751 334.95 64.4331C334.88 64.3771 334.817 64.3351 334.761 64.3071C334.705 64.2651 334.656 64.2511 334.614 64.2651C334.586 64.2651 334.565 64.3071 334.551 64.3911C334.523 64.5871 334.502 64.783 334.488 64.979C334.474 65.161 334.425 65.238 334.341 65.21C334.201 65.182 334.019 65.126 333.795 65.042C333.571 64.958 333.438 64.783 333.396 64.5171C333.368 64.3491 333.354 64.1392 333.354 63.8872C333.354 63.6353 333.354 63.3483 333.354 63.0264C333.354 62.3125 333.368 61.4797 333.396 60.5278C333.438 59.576 333.48 58.6032 333.522 57.6094C333.564 56.6156 333.599 55.6567 333.627 54.7329C333.669 53.8091 333.69 53.0182 333.69 52.3604C333.69 51.4645 333.648 50.9326 333.564 50.7646C333.494 50.6527 333.278 50.3097 332.914 49.7358C332.55 49.1479 332.095 48.4341 331.549 47.5942C331.017 46.7404 330.422 45.8026 329.764 44.7808C329.12 43.759 328.483 42.7511 327.854 41.7573C327.238 40.7495 326.657 39.8047 326.111 38.9229C325.579 38.041 325.152 37.3132 324.83 36.7393C324.774 36.6413 324.732 36.5363 324.704 36.4243C324.676 36.2983 324.655 36.1794 324.641 36.0674C324.627 35.9554 324.627 35.8644 324.641 35.7944C324.655 35.7104 324.676 35.6545 324.704 35.6265C324.76 35.5985 324.837 35.5705 324.935 35.5425C325.019 35.5145 325.124 35.5005 325.25 35.5005C325.376 35.4865 325.537 35.4865 325.733 35.5005C325.789 35.6685 325.838 35.7734 325.88 35.8154C325.922 35.8574 325.964 35.8714 326.006 35.8574C326.048 35.8294 326.09 35.7874 326.132 35.7314C326.174 35.6615 326.216 35.6125 326.258 35.5845C326.412 35.4305 326.51 35.3465 326.552 35.3325C326.594 35.3185 326.692 35.3745 326.846 35.5005C326.986 35.6265 327.091 35.6615 327.161 35.6055C327.231 35.5495 327.329 35.4165 327.455 35.2065C327.581 35.0246 327.721 34.9826 327.875 35.0806C328.042 35.1646 328.231 35.3325 328.441 35.5845L328.756 35.9414C328.924 36.1374 329.183 36.4943 329.533 37.0122C329.883 37.5161 330.282 38.118 330.73 38.8179C331.192 39.5177 331.682 40.2876 332.2 41.1274C332.732 41.9533 333.257 42.7861 333.774 43.626C334.292 44.4658 334.789 45.2777 335.265 46.0615C335.741 46.8454 336.161 47.5382 336.525 48.1401C336.819 47.6222 337.211 46.9784 337.701 46.2085C338.205 45.4246 338.743 44.5988 339.317 43.731C339.891 42.8631 340.486 41.9883 341.102 41.1064C341.718 40.2106 342.299 39.3848 342.845 38.6289C343.391 37.873 343.874 37.2292 344.293 36.6973C344.727 36.1514 345.049 35.7944 345.259 35.6265C345.357 35.5425 345.441 35.4795 345.511 35.4375C345.595 35.3955 345.665 35.3675 345.721 35.3535C345.791 35.3255 345.854 35.3115 345.91 35.3115C345.98 35.3115 346.05 35.3045 346.12 35.2905C346.33 35.2905 346.463 35.3045 346.519 35.3325C346.589 35.3605 346.631 35.3885 346.645 35.4165C346.673 35.4445 346.694 35.4725 346.708 35.5005C346.736 35.5145 346.799 35.5145 346.897 35.5005C347.107 35.4725 347.31 35.4585 347.506 35.4585C347.702 35.4585 347.814 35.5005 347.842 35.5845C347.842 35.6125 347.863 35.6335 347.905 35.6475C347.947 35.6615 348.094 35.6685 348.346 35.6685Z" fill="white"/>
</svg>
