<svg xmlns="http://www.w3.org/2000/svg" width="116.173" height="103.531" viewBox="0 0 116.173 103.531">
  <path id="icon-2" d="M117.173,94.909h0a12.626,12.626,0,0,1-12.628,12.628H13.628A12.626,12.626,0,0,1,1,94.909V21.669a10.1,10.1,0,0,1,10.1-10.1H62.044L82.5,4.158a2.5,2.5,0,0,1,3.2,1.488l2.154,5.922h9.115a10.1,10.1,0,0,1,10.1,10.1V26.72h0a10.1,10.1,0,0,1,10.1,10.1ZM11.1,16.618h0a5.051,5.051,0,1,0,0,10.1H20.28c.033-.013.053-.04.086-.053L48.1,16.618Zm73.437.457L81.857,9.691h0l-5.18,1.876h.008L62.756,16.618h-.025L34.852,26.72H88.044Zm17.482,4.594a5.053,5.053,0,0,0-5.051-5.051H89.688l3.672,10.1h8.66Zm5.051,10.1H11.1a9.989,9.989,0,0,1-5.051-1.4V94.909a7.578,7.578,0,0,0,7.577,7.577h90.918a7.576,7.576,0,0,0,7.577-7.577V77.23h-10.1a10.1,10.1,0,0,1,0-20.2h10.1v-20.2A5.053,5.053,0,0,0,107.071,31.771Zm5.051,40.408v-10.1h-10.1a5.051,5.051,0,0,0,0,10.1ZM102.02,64.6h5.051v5.051H102.02Z" transform="translate(-1 -4.006)" fill="#fff" fill-rule="evenodd"/>
</svg>
