<svg xmlns="http://www.w3.org/2000/svg" width="123.107" height="101.697" viewBox="0 0 123.107 101.697">
  <path id="icon-1" d="M113.4,106.7H11.7A10.705,10.705,0,0,1,1,95.992V15.7A10.705,10.705,0,0,1,11.7,5H113.4a10.705,10.705,0,0,1,10.7,10.7V95.992A10.705,10.705,0,0,1,113.4,106.7ZM118.754,15.7a5.354,5.354,0,0,0-5.352-5.352H11.7A5.354,5.354,0,0,0,6.352,15.7V31.762h112.4Zm0,21.41H6.352V95.992a5.354,5.354,0,0,0,5.352,5.352H113.4a5.354,5.354,0,0,0,5.352-5.352Zm-10.7,37.467H102.7a2.675,2.675,0,0,1-2.676-2.676V66.553a2.677,2.677,0,0,1,2.676-2.676h5.352a2.675,2.675,0,0,1,2.676,2.676v5.352A2.674,2.674,0,0,1,108.049,74.582Zm0-18.734H102.7a2.675,2.675,0,0,1-2.676-2.676V47.82a2.676,2.676,0,0,1,2.676-2.676h5.352a2.674,2.674,0,0,1,2.676,2.676v5.352A2.674,2.674,0,0,1,108.049,55.848ZM86.639,74.582H81.287a2.675,2.675,0,0,1-2.676-2.676V66.553a2.677,2.677,0,0,1,2.676-2.676h5.352a2.675,2.675,0,0,1,2.676,2.676v5.352A2.674,2.674,0,0,1,86.639,74.582Zm0-18.734H81.287a2.675,2.675,0,0,1-2.676-2.676V47.82a2.675,2.675,0,0,1,2.676-2.676h5.352a2.674,2.674,0,0,1,2.676,2.676v5.352A2.674,2.674,0,0,1,86.639,55.848ZM65.229,74.582H59.877A2.674,2.674,0,0,1,57.2,71.906V66.553a2.675,2.675,0,0,1,2.676-2.676h5.352a2.675,2.675,0,0,1,2.676,2.676v5.352A2.674,2.674,0,0,1,65.229,74.582Zm0-18.734H59.877A2.674,2.674,0,0,1,57.2,53.172V47.82a2.674,2.674,0,0,1,2.676-2.676h5.352a2.674,2.674,0,0,1,2.676,2.676v5.352A2.674,2.674,0,0,1,65.229,55.848ZM43.82,93.316H38.467a2.674,2.674,0,0,1-2.676-2.676V85.287a2.674,2.674,0,0,1,2.676-2.676H43.82A2.674,2.674,0,0,1,46.5,85.287v5.352A2.674,2.674,0,0,1,43.82,93.316Zm0-18.734H38.467a2.674,2.674,0,0,1-2.676-2.676V66.553a2.675,2.675,0,0,1,2.676-2.676H43.82A2.675,2.675,0,0,1,46.5,66.553v5.352A2.674,2.674,0,0,1,43.82,74.582Zm0-18.734H38.467a2.674,2.674,0,0,1-2.676-2.676V47.82a2.674,2.674,0,0,1,2.676-2.676H43.82A2.674,2.674,0,0,1,46.5,47.82v5.352A2.674,2.674,0,0,1,43.82,55.848ZM22.41,93.316H17.057a2.674,2.674,0,0,1-2.676-2.676V85.287a2.674,2.674,0,0,1,2.676-2.676H22.41a2.674,2.674,0,0,1,2.676,2.676v5.352A2.674,2.674,0,0,1,22.41,93.316Zm0-18.734H17.057a2.674,2.674,0,0,1-2.676-2.676V66.553a2.675,2.675,0,0,1,2.676-2.676H22.41a2.675,2.675,0,0,1,2.676,2.676v5.352A2.674,2.674,0,0,1,22.41,74.582Zm37.467,8.029h5.352a2.674,2.674,0,0,1,2.676,2.676v5.352a2.674,2.674,0,0,1-2.676,2.676H59.877A2.674,2.674,0,0,1,57.2,90.639V85.287A2.674,2.674,0,0,1,59.877,82.611Z" transform="translate(-1 -5)" fill="#fff" fill-rule="evenodd"/>
</svg>
