<?xml version="1.0" encoding="UTF-8"?>
<svg xmlns="http://www.w3.org/2000/svg" xmlns:xlink="http://www.w3.org/1999/xlink" viewBox="0 0 48 48" width="48px" height="48px">
<g id="surface20494998">
<path style=" stroke:none;fill-rule:nonzero;fill:rgb(100%,100%,100%);fill-opacity:1;" d="M 48 8.601562 C 46.601562 10.601562 45 12.398438 43 13.796875 C 43 14.203125 43 14.601562 43 15 C 43 17.066406 42.753906 19.183594 42.261719 21.285156 C 40.335938 20.457031 38.21875 20 36 20 C 27.199219 20 20 27.199219 20 36 C 20 38.253906 20.472656 40.402344 21.324219 42.351562 C 19.34375 42.773438 17.234375 43 15 43 C 9.601562 43 4.398438 41.398438 0 38.601562 C 0.796875 38.796875 1.601562 38.796875 2.398438 38.796875 C 7 38.796875 11.203125 37.203125 14.601562 34.601562 C 10.203125 34.601562 6.601562 31.796875 5.398438 27.796875 C 6 28 6.601562 28 7.203125 28 C 8.203125 28 9 27.796875 9.796875 27.601562 C 5.398438 26.796875 2 22.796875 2 18 C 2 17.796875 2 17.796875 2 17.796875 C 3.203125 18.398438 4.796875 18.796875 6.398438 19 C 3.796875 17.203125 2 14.203125 2 10.796875 C 2 9 2.398438 7.203125 3.398438 5.796875 C 8.203125 11.796875 15.398438 15.601562 23.601562 16 C 23.398438 15.398438 23.398438 14.601562 23.398438 13.796875 C 23.398438 8.398438 27.796875 4 33.203125 4 C 36 4 38.601562 5.203125 40.601562 7.203125 C 42.796875 6.796875 44.796875 6 46.796875 4.796875 C 46 7 44.398438 9 42.398438 10.203125 C 44.398438 10 46.203125 9.398438 48 8.601562 "/>
<path style=" stroke:none;fill-rule:nonzero;fill:rgb(80.000001%,80.000001%,80.000001%);fill-opacity:1;" d="M 36 24 C 29.398438 24 24 29.398438 24 36 C 24 42.601562 29.398438 48 36 48 C 42.601562 48 48 42.601562 48 36 C 48 29.398438 42.601562 24 36 24 Z M 42 38 L 38 38 L 38 42 L 34 42 L 34 38 L 30 38 L 30 34 L 34 34 L 34 30 L 38 30 L 38 34 L 42 34 Z M 42 38 "/>
</g>
</svg>
