<svg xmlns="http://www.w3.org/2000/svg" width="73.899" height="130.744" viewBox="0 0 73.899 130.744">
  <path id="icon-3" d="M73.53,131.744H22.369A11.37,11.37,0,0,1,11,120.375V12.369A11.37,11.37,0,0,1,22.369,1H73.53A11.37,11.37,0,0,1,84.9,12.369V120.375A11.37,11.37,0,0,1,73.53,131.744ZM79.214,12.369A5.687,5.687,0,0,0,73.53,6.685H22.369a5.687,5.687,0,0,0-5.685,5.685V23.738h62.53Zm0,17.054H16.685v73.9h62.53Zm0,79.583H16.685v11.369a5.687,5.687,0,0,0,5.685,5.685H73.53a5.687,5.687,0,0,0,5.685-5.685ZM47.949,123.217a5.685,5.685,0,1,1,5.685-5.685A5.687,5.687,0,0,1,47.949,123.217Zm-19.9-85.268h5.685a2.841,2.841,0,0,1,2.842,2.842v5.685a2.841,2.841,0,0,1-2.842,2.842H28.054a2.841,2.841,0,0,1-2.842-2.842V40.792A2.841,2.841,0,0,1,28.054,37.949Zm0,19.9h5.685a2.841,2.841,0,0,1,2.842,2.842v5.685a2.84,2.84,0,0,1-2.842,2.842H28.054a2.84,2.84,0,0,1-2.842-2.842V60.688A2.841,2.841,0,0,1,28.054,57.845Zm0,19.9h5.685a2.84,2.84,0,0,1,2.842,2.842v5.685a2.84,2.84,0,0,1-2.842,2.842H28.054a2.84,2.84,0,0,1-2.842-2.842V80.583A2.84,2.84,0,0,1,28.054,77.741ZM45.107,37.949h5.685a2.841,2.841,0,0,1,2.842,2.842v5.685a2.841,2.841,0,0,1-2.842,2.842H45.107a2.841,2.841,0,0,1-2.842-2.842V40.792A2.841,2.841,0,0,1,45.107,37.949Zm0,19.9h5.685a2.841,2.841,0,0,1,2.842,2.842v5.685a2.84,2.84,0,0,1-2.842,2.842H45.107a2.84,2.84,0,0,1-2.842-2.842V60.688A2.841,2.841,0,0,1,45.107,57.845Zm0,19.9h5.685a2.84,2.84,0,0,1,2.842,2.842v5.685a2.84,2.84,0,0,1-2.842,2.842H45.107a2.84,2.84,0,0,1-2.842-2.842V80.583A2.84,2.84,0,0,1,45.107,77.741ZM62.161,37.949h5.685a2.841,2.841,0,0,1,2.842,2.842v5.685a2.841,2.841,0,0,1-2.842,2.842H62.161a2.841,2.841,0,0,1-2.842-2.842V40.792A2.841,2.841,0,0,1,62.161,37.949Zm0,19.9h5.685a2.841,2.841,0,0,1,2.842,2.842v5.685a2.84,2.84,0,0,1-2.842,2.842H62.161a2.84,2.84,0,0,1-2.842-2.842V60.688A2.841,2.841,0,0,1,62.161,57.845ZM39.423,12.369H56.476a2.842,2.842,0,0,1,0,5.685H39.423a2.842,2.842,0,1,1,0-5.685Z" transform="translate(-11 -1)" fill="#fff" fill-rule="evenodd"/>
</svg>
