<?xml version="1.0" encoding="UTF-8"?>
<svg width="16px" height="16px" viewBox="0 0 16 16" version="1.1" xmlns="http://www.w3.org/2000/svg" xmlns:xlink="http://www.w3.org/1999/xlink">
    <!-- Generator: Sketch Beta 60.1 (88133) - https://sketch.com -->
    <title>Icon/Social/Instagram Copy 3</title>
    <desc>Created with Sketch Beta.</desc>
    <g id="Page-1" stroke="none" stroke-width="1" fill="none" fill-rule="evenodd" fill-opacity="0.75">
        <g id="Artboard" transform="translate(-971.000000, -4061.000000)" fill="#FFFFFF">
            <g id="footer" transform="translate(15.000000, 3956.000000)">
                <g id="Icon/Social/Instagram-Copy-3" transform="translate(956.000000, 105.000000)">
                    <path d="M3.5,1.75 C3.5,2.72 2.72,3.5 1.75,3.5 C0.78,3.5 0,2.72 0,1.75 C0,0.78 0.78,0 1.75,0 C2.72,0 3.5,0.78 3.5,1.75 Z M0,5 L3.58,5 L3.58,16 L0,16 L0,5 Z M13.3,5.12 C13.3,5.12 13.29,5.12 13.29,5.12 C13.26,5.11 13.24,5.1 13.21,5.09 C13.16,5.08 13.11,5.07 13.07,5.07 C12.88,5.03 12.67,5 12.42,5 C10.34,5 9.01,6.52 8.58,7.1 L8.58,5 L5,5 L5,16 L8.58,16 L8.58,10 C8.58,10 11.28,6.23 12.42,9 L12.42,16 L16,16 L16,8.58 C16,6.91 14.86,5.53 13.32,5.13 C13.32,5.13 13.31,5.12 13.3,5.12 Z" id="Combined-Shape_4"></path>
                </g>
            </g>
        </g>
    </g>
</svg>