<?xml version="1.0" encoding="UTF-8"?>
<svg width="16px" height="16px" viewBox="0 0 16 16" version="1.1" xmlns="http://www.w3.org/2000/svg" xmlns:xlink="http://www.w3.org/1999/xlink">
    <!-- Generator: Sketch Beta 60.1 (88133) - https://sketch.com -->
    <title>Icon/Social/Instagram</title>
    <desc>Created with Sketch Beta.</desc>
    <g id="Page-1" stroke="none" stroke-width="1" fill="none" fill-rule="evenodd" fill-opacity="0.75">
        <g id="Artboard" transform="translate(-1109.000000, -4061.000000)" fill="#FFFFFF">
            <g id="footer" transform="translate(15.000000, 3956.000000)">
                <g id="Icon/Social/Instagram" transform="translate(1094.000000, 105.000000)">
                    <path d="M5,0 L11,0 C13.76,0 16,2.24 16,5 L16,11 C16,13.76 13.76,16 11,16 L5,16 C2.24,16 0,13.76 0,11 L0,5 C0,2.24 2.24,0 5,0 Z M11,14.5 C12.93,14.5 14.5,12.93 14.5,11 L14.5,5 C14.5,3.07 12.93,1.5 11,1.5 L5,1.5 C3.07,1.5 1.5,3.07 1.5,5 L1.5,11 C1.5,12.93 3.07,14.5 5,14.5 L11,14.5 Z M4,8 C4,5.79 5.79,4 8,4 C10.21,4 12,5.79 12,8 C12,10.21 10.21,12 8,12 C5.79,12 4,10.21 4,8 Z M5.5,8 C5.5,9.38 6.62,10.5 8,10.5 C9.38,10.5 10.5,9.38 10.5,8 C10.5,6.62 9.38,5.5 8,5.5 C6.62,5.5 5.5,6.62 5.5,8 Z M12.83,3.7 C12.83,3.99 12.59,4.23 12.3,4.23 C12.01,4.23 11.77,3.99 11.77,3.7 C11.77,3.41 12.01,3.17 12.3,3.17 C12.59,3.17 12.83,3.41 12.83,3.7 Z" id="Combined-Shape_3"></path>
                </g>
            </g>
        </g>
    </g>
</svg>