<?xml version="1.0" encoding="UTF-8"?>
<svg width="16px" height="12px" viewBox="0 0 16 12" version="1.1" xmlns="http://www.w3.org/2000/svg" xmlns:xlink="http://www.w3.org/1999/xlink">
    <!-- Generator: Sketch Beta 60.1 (88133) - https://sketch.com -->
    <title>Icon/Social/Instagram Copy</title>
    <desc>Created with Sketch Beta.</desc>
    <g id="Page-1" stroke="none" stroke-width="1" fill="none" fill-rule="evenodd" fill-opacity="0.75">
        <g id="Artboard" transform="translate(-1063.000000, -4063.000000)" fill="#FFFFFF">
            <g id="footer" transform="translate(15.000000, 3956.000000)">
                <g id="Icon/Social/Instagram-Copy" transform="translate(1048.000000, 107.000000)">
                    <path d="M13.46,0.76 C14.42,0.81 14.89,0.95 15.32,1.73 C15.77,2.5 16,3.83 16,6.16 L16,6.17 L16,6.17 C16,8.5 15.77,9.84 15.32,10.6 C14.89,11.37 14.42,11.51 13.46,11.58 C12.5,11.63 10.09,11.67 8,11.67 C5.91,11.67 3.5,11.63 2.54,11.58 C1.59,11.51 1.12,11.37 0.68,10.6 C0.23,9.84 0,8.5 0,6.17 L0,6.17 L0,6.17 L0,6.16 C0,3.83 0.23,2.5 0.68,1.73 C1.12,0.95 1.59,0.81 2.54,0.76 C3.5,0.69 5.91,0.67 8,0.67 C10.09,0.67 12.5,0.69 13.46,0.76 Z M11,6.17 L6,3.17 L6,9.17 L11,6.17 Z" id="Shape"></path>
                </g>
            </g>
        </g>
    </g>
</svg>