<?xml version="1.0" encoding="UTF-8"?>
<svg width="16px" height="14px" viewBox="0 0 16 14" version="1.1" xmlns="http://www.w3.org/2000/svg" xmlns:xlink="http://www.w3.org/1999/xlink">
    <!-- Generator: Sketch Beta 60.1 (88133) - https://sketch.com -->
    <title>Icon/Social/Instagram Copy 2</title>
    <desc>Created with Sketch Beta.</desc>
    <g id="Page-1" stroke="none" stroke-width="1" fill="none" fill-rule="evenodd" fill-opacity="0.75">
        <g id="Artboard" transform="translate(-1017.000000, -4062.000000)" fill="#FFFFFF" fill-rule="nonzero">
            <g id="footer" transform="translate(15.000000, 3956.000000)">
                <g id="Icon/Social/Instagram-Copy-2" transform="translate(1002.000000, 106.000000)">
                    <path d="M16,1.87 C15.41,2.13 14.77,2.31 14.11,2.39 C14.79,1.98 15.31,1.35 15.55,0.58 C14.92,0.96 14.22,1.22 13.47,1.37 C12.87,0.73 12.01,0.33 11.08,0.33 C9.26,0.33 7.8,1.81 7.8,3.61 C7.8,3.87 7.82,4.12 7.88,4.36 C5.15,4.23 2.74,2.92 1.11,0.93 C0.83,1.42 0.67,1.98 0.67,2.59 C0.67,3.73 1.25,4.73 2.12,5.32 C1.6,5.31 1.08,5.15 0.64,4.91 C0.64,4.92 0.64,4.93 0.64,4.95 C0.64,6.54 1.78,7.87 3.27,8.17 C3,8.24 2.71,8.28 2.41,8.28 C2.2,8.28 1.99,8.27 1.79,8.22 C2.21,9.52 3.42,10.48 4.85,10.51 C3.74,11.38 2.32,11.91 0.79,11.91 C0.52,11.91 0.26,11.89 0,11.86 C1.45,12.8 3.17,13.33 5.03,13.33 C11.07,13.33 14.37,8.33 14.37,4 C14.37,3.85 14.36,3.71 14.36,3.58 C15.01,3.11 15.55,2.54 16,1.87 Z" id="Path_2"></path>
                </g>
            </g>
        </g>
    </g>
</svg>