<svg xmlns="http://www.w3.org/2000/svg" width="93" height="137" viewBox="0 0 93 137">
  <defs>
    <linearGradient id="labda-a" x1="50%" x2="50%" y1="0%" y2="100%">
      <stop offset="0%" stop-color="#FFF"/>
      <stop offset="100%" stop-color="#FFF" stop-opacity=".848"/>
    </linearGradient>
  </defs>
  <path fill="url(#labda-a)" fill-rule="evenodd" d="M13.7499429,13.6142447 C13.4964995,13.6420959 13.2389184,13.6563963 12.9779578,13.6563963 C12.7552355,13.6563963 12.5349747,13.6459797 12.3176471,13.6256125 C11.6450871,13.5859602 10.9974578,13.4253379 10.3923035,13.1620872 C7.85774841,12.1503962 6.06933307,9.69571922 6.06933307,6.82819816 C6.06933307,3.05708845 9.16242971,-1.42108547e-14 12.9779578,-1.42108547e-14 C13.1054858,-1.42108547e-14 13.2322068,0.00341515295 13.3580323,0.010157973 C13.8330456,0.0121436334 14.9554735,0.0145816601 16.1422079,0.000972448711 C18.7969928,-0.0294720457 22.5972406,0.661145894 24.3640306,1.19886461 C27.1737909,2.05400903 29.6781048,3.51994891 31.8770476,5.59672822 C34.0759904,7.67350753 36.0916578,10.4832256 37.9241101,14.0259668 C39.7565624,17.568708 41.6500681,22.0276085 43.6046839,27.402802 L73.2902633,112.244921 C74.7562252,116.154153 76.3443267,118.780628 78.0546156,120.124426 C79.4730641,121.238922 80.9518221,121.803159 83.2945822,121.993331 C83.6559862,122.022668 84.5164776,122.008013 84.9244757,121.998842 C85.0606352,121.995781 84.9244757,121.998842 84.9244757,121.998842 C84.9330315,121.999091 84.9415842,121.999365 84.9501334,121.999664 C85.0409652,121.996321 85.13223,121.994634 85.223897,121.994634 C89.1782545,121.994634 92.3838947,125.133507 92.3838947,129.005503 C92.3838947,132.877499 89.1782545,136.016373 85.223897,136.016373 C85.0935555,136.016373 84.9640275,136.012962 84.8354009,136.006228 C84.8188193,136.009698 84.8022328,136.01308 84.7856419,136.016373 C84.7856419,136.016373 84.780035,135.998973 84.7856419,136.016373 C84.792609,136.037994 83.9734645,136.016373 82.8227426,136.016373 C79.7686554,136.016373 77.0445109,135.607206 74.7234046,135.05747 C72.4022984,134.507735 70.3583634,133.287484 68.5259111,131.760441 C66.6934587,130.233397 65.013736,128.156649 63.4866923,125.530134 C61.9596487,122.903619 60.4631684,119.513633 58.9972066,115.360074 L41.0392635,62.9521995 L14.048322,131.129453 C13.8982979,131.508403 13.7044058,131.875899 13.4739535,132.227094 C12.2669667,134.477207 9.89228617,136.007411 7.16020725,136.007411 C4.48879167,136.007411 2.15907923,134.544406 0.928579394,132.375906 C0.313493167,131.357396 -0.00987812492,130.154238 0.000229933848,128.83017 C0.000806508108,128.585574 0.013647786,128.34386 0.0381713542,128.105609 C0.127623321,127.17474 0.375551116,126.192996 0.795187808,125.180571 L27.2420012,61.3744244 C31.1175062,52.0242983 31.3811863,36.7697571 29.3116272,31.2509326 C27.8456653,27.4638645 26.5324275,24.3792826 25.3718744,21.9970946 C24.2113212,19.6149066 22.9897046,17.7824817 21.706988,16.4997651 C20.4242714,15.2170485 19.6668509,14.4535386 18.0787255,14.0259664 C17.0926001,13.760471 14.9929373,13.6321607 13.7499429,13.6142447 Z"/>
</svg>
