<?xml version="1.0" encoding="UTF-8"?>
<svg width="36px" height="37px" viewBox="0 0 36 37" version="1.1" xmlns="http://www.w3.org/2000/svg" xmlns:xlink="http://www.w3.org/1999/xlink">
    <!-- Generator: Sketch Beta 60.1 (88133) - https://sketch.com -->
    <title>Element/Card/Info-Card/Small/Icon-Position/Left_2</title>
    <desc>Created with Sketch Beta.</desc>
    <g id="Page-1" stroke="none" stroke-width="1" fill="none" fill-rule="evenodd">
        <g id="Artboard" transform="translate(-15.000000, -1553.000000)" fill="#000000">
            <g id="Element/Card/Info-Card/Medium/Icon-Top-Left/2-Line-Title-Copy-3" transform="translate(15.000000, 1553.000000)">
                <g id="Element/Card/Info-Card/Small/Icon-Position/Left_2">
                    <g id="Icon_2">
                        <path d="M35.623,23.24 C35.394,23.15 35.133,23.21 34.963,23.38 L32.4,26.08 L32.4,10.08 L32.403,10.08 L34.848,7.44 C35.073,7.2 35.058,6.82 34.815,6.59 L34.814,6.59 L33.934,5.77 L35.157,4.45 C35.382,4.21 35.367,3.83 35.123,3.6 L32.483,1.16 C32.24,0.93 31.861,0.95 31.636,1.19 L27.37,5.8 L6.6,5.8 C6.598,4.14 5.256,2.8 3.6,2.8 L3,2.8 C1.344,2.8 0.002,4.14 0,5.8 L0,31.6 C0,31.93 0.269,32.2 0.6,32.2 L9.683,32.2 L8.423,33.71 C8.211,33.96 8.246,34.34 8.5,34.55 L11.267,36.86 C11.521,37.07 11.9,37.03 12.112,36.78 L12.112,36.78 L15.183,33.09 C15.395,32.84 15.532,32.53 15.577,32.2 L26.571,32.2 L22.965,35.98 C22.737,36.22 22.746,36.6 22.986,36.83 C23.098,36.94 23.246,37 23.4,37 L35.4,37 C35.731,37 36,36.73 36,36.4 L36,23.8 C36,23.55 35.851,23.33 35.623,23.24 Z M33.56,7.06 L32.4,8.31 L32.4,7.43 L33.12,6.65 L33.56,7.06 Z M31.2,6.96 L31.2,6.95 L31.207,6.95 L32.238,5.84 L30.476,4.21 L24.363,10.81 L26.126,12.44 L31.2,6.96 Z M24.973,13.01 L23.593,13.41 L23.888,12.01 L24.973,13.01 Z M33.868,4.08 L32.107,2.45 L31.292,3.33 L33.053,4.96 L33.868,4.08 Z M3,4 L3.6,4 C4.595,4 5.4,4.8 5.4,5.8 L5.4,28.61 C4.884,28.22 4.252,28 3.6,28 L3,28 C2.349,28 1.717,28.22 1.2,28.61 L1.2,5.8 C1.2,4.8 2.006,4 3,4 Z M3.6,29.2 L3,29.2 C2.006,29.2 1.2,30 1.2,31 L5.4,31 C5.4,30 4.595,29.2 3.6,29.2 Z M14.261,32.32 L13.877,32.78 L12.033,31.25 L12.416,30.79 C12.628,30.53 13.006,30.5 13.261,30.71 C13.261,30.71 13.261,30.71 13.262,30.71 L14.184,31.48 C14.439,31.69 14.473,32.07 14.262,32.32 L14.261,32.32 L14.261,32.32 Z M9.729,34.02 L11.574,35.55 L13.109,33.71 L11.265,32.17 L9.729,34.02 Z M15.325,31 C15.225,30.83 15.099,30.68 14.951,30.56 L14.029,29.79 C13.265,29.15 12.13,29.26 11.494,30.02 L10.68,31 L6.6,31 L6.6,7 L26.26,7 L23.076,10.44 C23.03,10.49 22.994,10.55 22.969,10.61 C22.962,10.63 22.956,10.65 22.95,10.67 C22.948,10.67 22.945,10.68 22.942,10.69 C22.938,10.7 22.934,10.71 22.931,10.72 L22.215,14.15 C22.147,14.47 22.355,14.79 22.68,14.85 C22.776,14.87 22.876,14.87 22.97,14.84 L26.33,13.86 C26.338,13.86 26.346,13.86 26.354,13.85 C26.36,13.85 26.367,13.85 26.374,13.85 C26.389,13.84 26.404,13.83 26.421,13.82 C26.488,13.79 26.549,13.75 26.601,13.7 L31.2,8.73 L31.2,27.34 L27.714,31 L15.325,31 Z M24.8,35.8 L34.8,35.8 L34.8,25.3 L24.8,35.8 Z M28.801,34.6 C28.558,34.6 28.339,34.45 28.246,34.23 C28.153,34 28.205,33.74 28.376,33.57 L32.576,29.37 C32.689,29.26 32.841,29.2 33,29.2 C33.332,29.2 33.6,29.47 33.6,29.8 L33.6,34 C33.6,34.33 33.332,34.6 33,34.6 L28.801,34.6 Z M32.4,33.4 L32.4,31.24 L30.249,33.4 L32.4,33.4 Z M22.2,23.8 L26.4,23.8 C26.731,23.8 27,24.07 27,24.4 C27,24.73 26.731,25 26.4,25 L9.6,25 C9.269,25 9,24.73 9,24.4 C9,24.07 9.269,23.8 9.6,23.8 L13.8,23.8 L13.8,17.2 C13.8,17.04 13.863,16.89 13.975,16.77 L17.575,13.17 C17.809,12.94 18.189,12.94 18.424,13.17 L22.023,16.77 C22.136,16.89 22.199,17.04 22.2,17.2 L22.2,23.8 Z M20.152,16.6 L18,14.45 L15.849,16.6 L20.152,16.6 Z M15,17.8 L21,17.8 L21,23.8 L15,23.8 L15,17.8 Z M17.4,10.6 L18.6,10.6 L18.6,11.8 L17.4,11.8 L17.4,10.6 Z M18.6,26.2 L17.4,26.2 L17.4,27.4 L18.6,27.4 L18.6,26.2 Z" id="Combined-Shape_2"></path>
                    </g>
                </g>
            </g>
        </g>
    </g>
</svg>