<svg xmlns="http://www.w3.org/2000/svg" width="426" height="138">
  <g fill="none">
    <path fill="#FFF" d="M29 28.8v106.8H.2V0L29 28.8zm53.7 53.6v53.2H53.9v-82l28.8 28.8zm53.2 53.2L107 107V33.7h28.8v12.8a31 31 0 0 1 12.7-11.1c5.4-2.7 11.5-4 18-4 7.3 0 13.8 1.6 19.6 5a35 35 0 0 1 13.5 14c3.2 6 4.8 12.8 4.8 20.4v64.8h-27.8V77c0-6.3-1.8-11.4-5.3-15.4a18 18 0 0 0-14-6c-6 0-11.1 2-15.2 5.8-4 3.8-6.1 8.5-6.1 14l-.2-.6v61zm141-23c4 0 8.2-.9 12.7-2.6 4.4-1.7 8-3.9 10.7-6.5l18.3 18.7a47.5 47.5 0 0 1-18.4 11.5A66.5 66.5 0 0 1 277 138c-10 0-19-2.3-27.4-6.9a50.5 50.5 0 0 1-19.5-19.1 54 54 0 0 1-7-27.6c0-10.1 2.2-19.2 6.8-27.3 4.6-8.1 10.9-14.4 18.8-19a53 53 0 0 1 26.8-6.8 48 48 0 0 1 27.2 7.6C310.3 44 316 51.3 320 60.7a85 85 0 0 1 6 33.3h-73.5a26.3 26.3 0 0 0 9 13.5 24 24 0 0 0 15.2 5zm-.3-55.8A24.9 24.9 0 0 0 253 73.3h45.5c-1.4-5-4-9.1-7.8-12a22 22 0 0 0-14-4.5zM384 138a78 78 0 0 1-24.7-4 67.3 67.3 0 0 1-21.2-11.4l12.4-19.9a57.5 57.5 0 0 0 34 11.4c3.9 0 7-.7 9.5-2.1 2.5-1.5 3.8-3.3 3.8-5.5 0-3-1.4-5-4.2-6.5-2.7-1.3-7.3-2.9-13.8-4.6-8.2-2-15-4-20.2-6.3a30.5 30.5 0 0 1-12.4-9.4 25 25 0 0 1-4.6-15.6c0-6.3 1.7-12 5-17 3.4-5 8-8.9 14-11.6 6-2.8 13-4.2 20.8-4.2A73.7 73.7 0 0 1 422.5 44L411 64.6a61.6 61.6 0 0 0-14.5-6.7c-5-1.6-9.8-2.4-14-2.4-3.6 0-6.5.6-8.8 1.7-2.2 1-3.3 2.6-3.3 4.4 0 2.6 1.1 4.6 3.4 6a73 73 0 0 0 14.5 4.9c7.6 2 14 4 19 6.2 5.1 2.1 9.4 5.3 12.9 9.6 3.4 4.3 5.2 10 5.2 16.9 0 10-3.8 18-11.4 24a47 47 0 0 1-30 8.9z"/>
    <path fill="#FFC000" d="M68.5 38.6a15 15 0 0 1-11.3-4.7 15.4 15.4 0 0 1 .1-21.8c3.1-3.1 6.8-4.7 11.2-4.7 4.2 0 7.8 1.6 10.8 4.7 3 3 4.5 6.6 4.5 10.7 0 4.3-1.5 8-4.5 11.1-3 3.1-6.6 4.7-10.8 4.7z"/>
  </g>
</svg>
