<svg xmlns="http://www.w3.org/2000/svg" xmlns:xlink="http://www.w3.org/1999/xlink" width="500" zoomAndPan="magnify" viewBox="0 0 375 374.999991" height="500" preserveAspectRatio="xMidYMid meet" version="1.0"><defs><g/><clipPath id="6079dc9db4"><path d="M 0 86 L 187 86 L 187 250.5 L 0 250.5 Z M 0 86 " clip-rule="nonzero"/></clipPath><clipPath id="aea69146b4"><path d="M 186 0 L 372 0 L 372 165 L 186 165 Z M 186 0 " clip-rule="nonzero"/></clipPath></defs><g clip-path="url(#6079dc9db4)"><path fill="#0a0a0a" d="M 125.261719 202.511719 L 125.261719 225.183594 L 22.71875 177.480469 L 22.71875 159.082031 L 125.261719 111.378906 L 125.261719 134.058594 L 47.710938 168.066406 L 47.710938 168.496094 Z M 186.160156 86.183594 L 14.675781 86.183594 C 6.578125 86.183594 0.015625 92.757812 0.015625 100.867188 L 0.015625 235.699219 C 0.015625 243.804688 6.578125 250.378906 14.675781 250.378906 L 138.554688 250.378906 L 186.160156 86.183594 " fill-opacity="1" fill-rule="nonzero"/></g><g clip-path="url(#aea69146b4)"><path fill="#64cea5" d="M 349.324219 92.019531 L 246.785156 139.078125 L 246.785156 116.398438 L 326.039062 82.390625 L 326.039062 81.960938 L 246.785156 47.949219 L 246.785156 25.273438 L 349.324219 72.335938 Z M 233.765625 0.0820312 L 186.160156 164.273438 L 357.367188 164.273438 C 365.460938 164.273438 372.027344 157.703125 372.027344 149.589844 L 372.027344 14.757812 C 372.027344 6.652344 365.460938 0.0820312 357.367188 0.0820312 L 233.765625 0.0820312 " fill-opacity="1" fill-rule="nonzero"/></g><g fill="#0a0a0a" fill-opacity="1"><g transform="translate(132.771476, 331.094643)"><g><path d="M 30.636719 -45.386719 L 5.75 -45.386719 L 5.75 -36.539062 L 20.652344 -36.539062 L 20.652344 -12.9375 C 20.652344 -10.210938 18.683594 -8.167969 16.1875 -8.167969 C 13.917969 -8.167969 12.179688 -9.835938 11.800781 -12.179688 L 1.96875 -9.304688 C 2.949219 -3.175781 7.867188 0.605469 16.1875 0.605469 C 25.492188 0.605469 30.636719 -4.160156 30.636719 -11.648438 Z M 30.636719 -45.386719 "/></g></g></g><g fill="#0a0a0a" fill-opacity="1"><g transform="translate(169.852179, 331.094643)"><g><path d="M 6.808594 9.078125 L 12.785156 9.078125 L 12.785156 -45.386719 L 6.808594 -45.386719 Z M 6.808594 9.078125 "/></g></g></g><g fill="#0a0a0a" fill-opacity="1"><g transform="translate(192.182469, 331.094643)"><g><path d="M 32.90625 -45.386719 L 32.90625 -27.15625 L 14.449219 -27.15625 L 14.449219 -45.386719 L 4.464844 -45.386719 L 4.464844 0 L 14.449219 0 L 14.449219 -18.304688 L 32.90625 -18.304688 L 32.90625 0 L 42.816406 0 L 42.816406 -45.386719 Z M 32.90625 -45.386719 "/></g></g></g></svg>