<?xml version="1.0" standalone="no"?>
<!DOCTYPE svg PUBLIC "-//W3C//DTD SVG 20010904//EN"
 "http://www.w3.org/TR/2001/REC-SVG-20010904/DTD/svg10.dtd">
<svg version="1.0" xmlns="http://www.w3.org/2000/svg"
 width="300.000000pt" height="300.000000pt" viewBox="0 0 300.000000 300.000000"
 preserveAspectRatio="xMidYMid meet">
<metadata>
Created by potrace 1.15, written by Peter Selinger 2001-2017
</metadata>
<g transform="translate(0.000000,300.000000) scale(0.100000,-0.100000)"
fill="#000000" stroke="none">
<path d="M0 2450 c0 -474 2 -550 15 -550 7 0 18 6 22 13 4 6 22 17 38 23 17 6
37 14 45 18 11 4 25 -14 54 -71 27 -51 36 -78 28 -81 -7 -2 -18 -10 -26 -17
-7 -8 -16 -12 -19 -9 -3 4 -16 -3 -28 -15 -13 -12 -29 -21 -36 -21 -7 0 -13
-5 -13 -12 0 -6 -9 -3 -20 7 -11 10 -20 22 -20 26 0 5 -9 23 -20 41 l-20 33 0
-917 0 -918 1500 0 1500 0 0 960 c0 528 -2 960 -5 960 -2 0 -17 -27 -32 -60
-24 -52 -32 -60 -56 -60 -16 0 -26 4 -22 10 5 9 -15 15 -37 11 -5 0 -8 3 -8 8
0 5 -14 14 -30 21 -25 10 -30 18 -28 41 1 16 5 29 9 29 10 0 30 51 24 61 -3 5
1 6 9 3 11 -4 16 0 16 10 0 22 26 31 45 16 8 -6 24 -9 37 -5 18 5 20 4 8 -4
-13 -9 -12 -12 8 -17 12 -4 22 -10 22 -15 0 -5 9 -9 20 -9 20 0 20 7 20 520
l0 520 -750 0 c-412 0 -750 -2 -750 -5 0 -2 23 -27 51 -55 44 -44 48 -52 35
-65 -8 -8 -20 -15 -27 -15 -7 0 -10 -3 -7 -6 13 -12 -67 -72 -94 -71 -14 1
-24 6 -21 10 3 5 -13 28 -35 50 -39 40 -54 87 -27 87 6 0 25 16 44 35 l33 35
-726 0 -726 0 0 -550z m1660 351 c36 -12 74 -26 85 -31 52 -21 84 -31 106 -33
13 0 26 -4 29 -8 3 -4 61 -25 130 -48 69 -23 133 -46 143 -52 10 -5 23 -7 29
-3 5 4 14 1 18 -5 4 -7 18 -13 31 -14 13 -1 30 -6 36 -12 42 -34 78 -71 78
-80 0 -5 6 -11 13 -11 25 -3 27 -4 13 -13 -11 -7 -9 -10 8 -16 11 -3 21 -13
21 -21 0 -7 9 -19 20 -26 11 -7 20 -17 20 -22 0 -14 50 -57 60 -51 4 3 6 -3 3
-14 -3 -11 3 -24 14 -32 10 -8 30 -30 43 -49 13 -19 25 -37 27 -40 2 -2 9 2
14 10 8 12 9 10 4 -7 -4 -16 0 -26 14 -35 12 -7 21 -16 21 -19 0 -8 37 -52 92
-110 49 -53 53 -70 29 -135 -24 -64 -17 -90 27 -100 15 -3 37 -10 50 -16 l22
-11 0 -374 0 -374 -30 -44 c-17 -24 -30 -48 -30 -54 0 -6 -5 -11 -11 -11 -5 0
-8 -4 -5 -9 4 -5 3 -11 -1 -13 -15 -6 -63 -88 -63 -107 0 -11 -8 -22 -18 -25
-10 -4 -29 -29 -42 -56 -13 -28 -27 -50 -32 -50 -4 0 -8 -7 -8 -15 0 -8 -4
-15 -10 -15 -5 0 -7 -7 -4 -15 4 -10 0 -15 -11 -15 -9 0 -14 -4 -11 -9 3 -5
-1 -14 -9 -21 -8 -7 -15 -18 -15 -25 0 -7 -14 -27 -30 -45 -17 -18 -30 -38
-30 -45 0 -7 -4 -15 -9 -17 -5 -1 -11 -10 -13 -18 -2 -8 -13 -25 -25 -37 -21
-22 -28 -23 -98 -17 l-75 7 0 -72 c0 -52 3 -72 12 -69 17 6 32 69 18 78 -6 4
-1 11 13 17 14 7 28 8 33 3 5 -5 35 -10 66 -12 32 -2 59 -7 61 -13 4 -11 -13
-157 -19 -164 -2 -2 -39 2 -84 10 -78 12 -80 13 -80 41 0 15 -2 28 -4 28 -2 0
-11 3 -20 6 -11 4 -16 0 -16 -12 0 -12 -3 -15 -8 -8 -8 13 -20 12 -82 -9 -25
-8 -78 -25 -117 -37 -40 -13 -73 -26 -73 -30 0 -4 -13 -7 -30 -8 -32 -1 -99
-21 -115 -34 -5 -4 -17 -8 -27 -8 -19 0 -59 -19 -69 -34 -4 -5 -11 -6 -17 -2
-10 6 -113 -21 -122 -33 -9 -11 -75 -9 -82 3 -6 8 -11 7 -18 -4 -5 -8 -10 -10
-10 -4 0 6 -19 16 -42 23 -24 7 -56 16 -72 21 -21 7 -32 6 -37 -2 -5 -8 -12
-6 -24 5 -9 10 -21 15 -26 12 -5 -4 -9 -2 -9 3 0 6 -15 12 -32 15 -18 3 -52
10 -75 16 -24 6 -61 16 -83 21 -22 6 -58 15 -80 20 -99 25 -128 31 -167 37
-37 5 -43 9 -43 29 0 12 -5 26 -10 29 -6 3 -10 17 -10 30 0 13 -6 30 -13 37
-8 7 -12 19 -9 26 4 13 -34 17 -40 3 -1 -4 -24 -11 -51 -15 -38 -6 -48 -4 -53
8 -3 9 -12 16 -20 16 -8 0 -14 7 -14 15 0 8 -8 23 -17 33 -10 10 -19 25 -21
33 -2 8 -12 23 -23 35 -10 11 -19 25 -19 31 0 6 -3 13 -8 15 -4 2 -29 32 -56
68 -27 36 -53 64 -58 62 -5 -1 -6 2 -3 8 4 6 -3 19 -14 29 -12 10 -21 24 -21
30 0 7 -9 21 -20 33 -11 12 -20 28 -20 35 0 17 -17 17 -23 1 -2 -7 -8 -9 -13
-5 -5 4 -3 12 4 16 10 6 8 16 -10 42 -13 19 -27 34 -31 34 -5 0 -15 18 -23 40
-12 35 -19 104 -39 390 -3 39 -10 120 -15 180 -6 61 -12 137 -14 171 l-3 61
43 27 c24 15 42 32 38 37 -3 5 3 6 12 2 12 -4 15 -3 10 5 -4 7 -1 12 8 12 9 0
16 5 16 10 0 6 -4 10 -10 10 -5 0 -10 6 -10 13 0 6 -11 25 -25 41 -14 16 -25
34 -25 40 0 6 20 37 45 68 25 32 45 60 45 63 0 6 51 74 83 109 9 11 17 25 17
31 0 6 9 17 19 25 11 7 18 17 15 22 -3 4 -1 8 4 8 6 0 8 9 5 20 -4 15 0 20 16
20 11 0 21 5 21 10 0 6 8 18 18 28 40 43 62 73 62 87 0 8 5 15 10 15 6 0 24
21 41 48 28 44 98 92 136 92 7 0 13 5 13 10 0 6 9 10 21 10 11 0 18 4 15 9 -3
5 6 9 20 9 15 0 29 3 33 8 3 5 11 9 16 9 6 0 46 14 90 31 44 18 88 34 98 38
10 3 15 10 12 16 -3 5 0 7 9 4 8 -3 25 0 38 7 13 7 25 14 28 15 3 0 14 4 25 8
11 4 34 13 50 19 17 6 36 15 44 21 7 6 19 11 25 11 17 2 50 17 57 28 9 13 53
1 73 -19 9 -8 16 -13 16 -10 0 4 14 -7 31 -24 35 -33 59 -39 59 -15 0 8 4 15
8 15 5 0 15 12 23 28 18 34 41 53 54 42 5 -4 39 -17 75 -29z m-919 -2500 c0
-3 2 -15 4 -26 2 -11 7 -45 10 -75 l7 -55 -66 -13 c-36 -6 -72 -12 -79 -12
-15 0 -33 55 -40 127 -5 45 4 52 68 53 17 0 36 4 44 9 14 9 50 4 52 -8z"/>
<path d="M1455 2643 c-16 -27 -32 -52 -34 -58 -2 -5 -12 -16 -23 -23 -10 -7
-18 -18 -18 -23 0 -5 -11 -21 -24 -34 -14 -13 -27 -34 -31 -45 -3 -11 -9 -20
-13 -20 -4 0 -18 -18 -32 -40 -14 -22 -27 -40 -31 -40 -3 0 -6 -7 -6 -15 0
-16 119 -57 142 -48 8 3 15 1 15 -5 0 -8 34 -22 155 -62 29 -9 40 -10 43 -1 2
6 10 11 18 11 8 0 14 4 14 8 0 5 11 22 25 38 14 16 25 35 25 42 0 6 3 12 8 12
4 0 18 17 32 38 14 20 28 39 31 42 18 15 12 38 -16 67 -18 18 -35 33 -39 33
-5 0 -21 14 -36 30 -15 17 -33 30 -38 30 -6 0 -36 25 -67 55 -31 30 -59 55
-63 55 -4 0 -21 -21 -37 -47z"/>
<path d="M2220 2549 c0 -5 -6 -9 -12 -7 -19 3 -141 -23 -152 -33 -6 -5 -22 -9
-37 -9 -36 0 -89 -20 -89 -33 0 -8 -3 -7 -9 1 -7 12 -14 11 -40 -2 -17 -9 -36
-14 -40 -11 -5 3 -8 -1 -7 -9 2 -16 172 -186 186 -186 6 0 10 -4 10 -9 0 -4
23 -31 50 -59 28 -28 50 -49 50 -46 0 3 14 -11 31 -31 17 -19 36 -32 42 -28 5
3 8 2 5 -3 -3 -5 7 -22 23 -38 l28 -30 1 270 c1 264 0 270 -20 271 -11 1 -20
-3 -20 -8z"/>
<path d="M651 2463 c-6 -21 -11 -92 -12 -158 0 -66 -3 -152 -7 -192 -7 -65 -6
-71 10 -70 10 1 18 7 18 14 0 7 9 13 20 13 11 0 20 5 20 10 0 6 6 10 13 8 6
-1 28 6 47 17 19 10 85 44 145 75 182 95 200 105 203 113 2 4 11 7 20 7 10 0
25 7 35 14 15 12 2 18 -115 56 -73 23 -143 46 -156 51 -13 5 -28 6 -34 3 -6
-4 -13 -2 -17 4 -3 5 -37 21 -76 35 -38 13 -78 28 -87 32 -13 5 -19 -1 -27
-32z"/>
<path d="M1200 2280 c0 -18 -3 -21 -9 -11 -7 11 -10 10 -15 -5 -3 -11 -22 -37
-41 -59 -19 -22 -35 -45 -35 -52 0 -7 -4 -13 -9 -13 -5 0 -13 -9 -16 -20 -4
-11 -17 -31 -29 -43 -12 -13 -27 -30 -32 -38 -5 -9 -21 -32 -36 -50 -72 -92
-158 -212 -158 -220 0 -5 9 -9 19 -9 11 0 21 -3 23 -7 2 -5 23 -18 48 -29 25
-12 92 -45 149 -73 79 -39 107 -48 113 -39 6 10 8 9 8 -2 0 -15 48 -46 80 -52
8 -2 17 -6 20 -9 6 -8 135 -69 145 -69 4 0 20 -9 36 -20 l28 -21 -24 68 c-14
37 -25 76 -25 85 0 10 -5 18 -11 18 -5 0 -8 4 -5 8 10 16 -19 79 -34 75 -11
-3 -12 -2 -3 4 16 11 14 20 -40 183 -25 74 -64 196 -87 270 -43 137 -60 174
-60 130z"/>
<path d="M1615 2158 c-2 -7 -9 -51 -16 -98 -6 -47 -14 -112 -19 -145 -4 -33
-15 -116 -24 -185 -9 -69 -20 -153 -26 -186 -15 -94 -12 -101 28 -64 12 11 24
20 27 20 9 0 68 43 86 63 9 9 21 17 28 17 6 0 16 9 23 20 7 11 18 20 25 20 7
0 13 3 13 8 0 4 14 13 30 20 17 8 28 18 24 23 -3 5 2 9 10 9 8 0 21 8 28 18 7
10 30 26 50 35 20 10 56 35 80 57 24 22 51 42 61 46 10 3 14 11 11 17 -4 7 -3
9 1 4 9 -8 56 19 68 40 4 7 14 13 20 13 7 0 32 17 56 39 33 30 39 40 27 44 -9
4 -16 2 -16 -3 0 -6 -8 -10 -17 -10 -14 0 -15 2 -5 9 14 9 -5 18 -83 42 -22 6
-48 15 -57 20 -10 5 -24 9 -31 9 -7 0 -88 25 -180 55 -170 56 -214 65 -222 43z"/>
<path d="M597 1992 c-4 -5 -39 -29 -79 -53 -71 -43 -85 -52 -111 -75 -7 -6
-22 -14 -32 -18 -11 -3 -33 -17 -48 -30 l-28 -24 23 -36 c17 -27 28 -34 43
-30 16 4 17 3 5 -5 -12 -8 -11 -13 8 -34 12 -13 22 -28 22 -33 0 -5 9 -16 20
-24 11 -8 20 -19 20 -24 0 -5 7 -16 15 -25 9 -9 33 -41 53 -71 40 -58 50 -64
67 -34 5 10 15 24 22 31 7 8 20 27 30 43 9 17 21 30 25 30 4 0 8 7 8 15 0 8
14 30 31 48 40 42 54 67 37 67 -7 1 -1 7 13 15 15 8 29 21 33 30 6 16 -13 55
-26 55 -5 0 -8 6 -8 13 0 8 -11 19 -24 27 -14 7 -22 18 -20 24 2 6 -8 25 -22
41 -14 17 -36 43 -49 59 -12 15 -25 24 -28 18z"/>
<path d="M2286 1962 c-11 -11 -7 -372 5 -372 5 0 8 -4 5 -9 -7 -10 17 -21 45
-21 10 0 19 -5 19 -11 0 -6 7 -8 16 -5 9 3 28 0 42 -8 43 -22 92 -35 108 -29
8 3 14 0 14 -7 0 -6 4 -9 9 -6 5 4 11 0 14 -6 2 -7 10 5 17 27 7 22 11 40 9
40 -2 0 4 11 13 24 9 13 14 29 12 36 -3 6 2 18 11 25 8 7 15 21 15 31 0 10 5
21 10 24 6 3 10 13 10 21 0 8 9 34 20 56 24 50 24 48 5 48 -9 0 -18 6 -21 14
-3 8 -31 22 -62 31 -31 9 -66 21 -77 25 -23 10 -167 58 -207 70 -14 5 -29 6
-32 2z"/>
<path d="M2227 1544 c-1 -2 -18 -5 -37 -7 -83 -11 -125 -21 -132 -31 -6 -8 -8
-8 -8 1 0 8 -10 9 -32 2 -18 -4 -50 -11 -70 -14 -29 -5 -36 -9 -32 -23 5 -13
4 -14 -4 -3 -9 13 -45 12 -127 -4 -16 -3 -57 -10 -90 -16 -90 -15 -145 -31
-145 -40 0 -5 10 -14 22 -20 12 -6 30 -20 41 -30 11 -9 25 -15 33 -12 8 3 14
0 14 -7 0 -18 29 -42 41 -34 8 4 9 3 5 -4 -4 -7 -3 -12 3 -12 6 0 21 -11 35
-25 14 -14 32 -25 41 -25 9 0 13 -4 10 -10 -3 -5 -1 -10 5 -10 6 0 25 -13 43
-30 18 -16 38 -30 45 -30 6 0 12 -4 12 -10 0 -5 6 -10 14 -10 8 0 17 -6 19
-12 4 -10 8 -9 17 2 9 13 10 13 8 -2 -3 -15 70 -78 90 -78 4 0 13 -9 20 -20 7
-12 17 -18 21 -15 5 2 11 -2 15 -10 3 -8 12 -12 21 -9 10 4 15 2 13 -6 -3 -14
83 -80 95 -73 4 2 7 -1 7 -6 0 -6 5 -11 10 -11 6 0 10 114 10 323 0 281 -2
324 -15 324 -8 0 -16 -2 -18 -3z"/>
<path d="M590 1406 c0 -9 8 -16 18 -16 12 0 13 -3 5 -8 -9 -6 -4 -17 17 -42
17 -19 30 -41 30 -47 0 -7 10 -13 23 -13 16 0 18 -3 8 -9 -10 -7 -8 -12 10
-25 13 -9 23 -19 22 -21 -7 -12 0 -23 37 -64 22 -24 40 -48 40 -53 0 -11 85
-130 118 -164 12 -13 22 -27 22 -32 0 -19 25 -30 37 -17 6 7 9 16 6 19 -4 3 0
6 7 6 18 0 81 70 74 81 -3 5 1 9 9 9 18 0 97 80 97 98 0 7 5 10 10 7 6 -3 10
1 10 9 0 9 3 15 8 14 11 -4 102 89 95 96 -4 3 -1 6 6 6 17 0 81 69 81 87 0 7
6 13 13 13 17 1 67 46 67 62 0 11 -85 14 -435 17 -394 3 -435 1 -435 -13z"/>
<path d="M2568 1403 c-18 -5 -63 -88 -59 -110 1 -7 -2 -13 -7 -13 -10 0 -62
-99 -62 -119 0 -6 -8 -21 -18 -32 -11 -10 -23 -29 -29 -42 -6 -12 -29 -60 -52
-106 -22 -46 -39 -86 -37 -88 2 -2 37 7 77 20 41 14 86 27 101 31 20 5 26 11
22 24 -5 13 -4 14 4 3 9 -12 19 -11 70 7 32 12 69 22 81 22 11 0 21 4 21 10 0
5 3 9 8 9 4 -1 12 0 17 1 6 1 15 3 20 4 47 8 95 29 95 41 0 8 -4 15 -10 15 -5
0 -10 5 -10 12 0 6 -11 26 -25 43 -13 18 -21 35 -18 39 4 3 2 6 -4 6 -6 0 -16
14 -23 30 -7 17 -16 30 -21 30 -5 0 -9 7 -9 15 0 8 -5 14 -12 13 -6 -2 -14 6
-16 17 -2 11 -15 30 -29 42 -14 12 -22 27 -18 32 3 6 1 11 -6 11 -7 0 -9 3 -6
7 4 3 2 12 -4 20 -12 13 -13 14 -41 6z"/>
<path d="M537 1388 c-2 -7 -6 -17 -8 -23 -2 -5 -14 -20 -26 -31 -13 -12 -23
-28 -23 -35 0 -8 -9 -20 -21 -27 -12 -7 -19 -16 -16 -18 3 -3 -6 -17 -19 -31
-13 -14 -24 -34 -24 -44 0 -11 -6 -19 -14 -19 -11 0 -66 -70 -66 -85 0 -3 -14
-19 -30 -37 -16 -17 -30 -37 -30 -44 0 -8 -4 -14 -9 -14 -5 0 -11 -9 -14 -21
-4 -15 1 -23 21 -31 15 -6 38 -15 52 -20 14 -6 33 -14 43 -19 11 -6 17 -5 17
2 0 6 7 3 16 -6 15 -15 64 -30 80 -25 4 1 10 -3 14 -9 3 -7 35 -22 71 -35 35
-13 72 -27 83 -31 17 -7 18 -4 12 36 -4 24 -11 62 -16 84 -4 22 -14 74 -20
115 -7 41 -21 121 -31 178 -10 57 -19 116 -19 132 0 16 -4 31 -10 35 -5 3 -7
12 -3 20 3 8 3 15 0 15 -3 0 -7 -6 -10 -12z"/>
<path d="M1490 1351 c-7 -14 -6 -21 2 -23 9 -3 8 -10 -5 -22 -9 -10 -20 -29
-23 -44 -3 -15 -12 -40 -19 -57 -8 -16 -11 -33 -9 -37 3 -4 0 -8 -5 -8 -6 0
-11 -9 -11 -20 0 -11 -4 -28 -9 -38 -5 -9 -24 -64 -41 -122 -42 -135 -69 -220
-80 -245 -19 -46 -39 -128 -34 -136 3 -5 -2 -16 -10 -25 -9 -8 -16 -20 -16
-25 0 -14 27 -11 43 6 8 8 17 12 20 9 3 -3 59 13 125 35 66 23 127 41 136 41
9 0 16 4 16 8 0 5 29 15 65 22 36 7 65 17 65 22 0 4 14 8 30 8 17 0 39 9 51
21 13 13 24 17 28 11 4 -7 13 -7 28 1 21 12 21 13 3 47 -51 101 -52 102 -62
89 -7 -11 -8 -9 -4 5 6 19 -31 96 -46 96 -5 0 -6 5 -3 10 4 6 -1 23 -11 38
-16 25 -37 62 -95 172 -13 25 -27 47 -31 48 -5 2 -8 12 -8 23 0 10 -9 24 -20
31 -11 7 -20 23 -20 36 0 13 -4 20 -10 17 -5 -3 -10 1 -10 9 0 22 -17 20 -30
-3z"/>
<path d="M2203 832 c-28 -10 -55 -21 -59 -25 -4 -4 -18 -7 -31 -7 -13 0 -32
-4 -43 -10 -11 -5 -29 -14 -40 -20 -11 -5 -26 -10 -34 -10 -7 0 -34 -9 -60
-21 l-47 -20 3 -142 3 -142 50 -7 c28 -3 110 -8 183 -10 l132 -3 0 218 c0 119
-1 217 -2 216 -2 0 -26 -8 -55 -17z"/>
<path d="M910 831 c-8 -5 -63 -24 -121 -43 -116 -37 -110 -31 -90 -113 14 -63
72 -279 74 -281 4 -3 166 52 173 59 4 4 18 7 31 7 16 0 22 4 17 12 -4 7 -3 8
4 4 6 -3 47 5 91 20 60 20 81 31 81 44 0 20 -32 60 -49 60 -7 0 -10 4 -7 9 3
4 -3 19 -14 31 -11 13 -20 29 -20 36 0 7 -9 16 -20 19 -11 3 -20 12 -20 19 0
13 -23 46 -60 85 -13 14 -22 28 -20 31 9 9 -35 9 -50 1z"/>
<path d="M1252 481 c6 -11 16 -17 20 -15 4 3 8 0 8 -6 0 -12 51 -89 74 -112 7
-8 20 -27 29 -43 8 -17 26 -42 41 -57 14 -16 23 -28 20 -28 -2 0 13 -22 33
-49 38 -48 56 -73 73 -101 7 -12 12 -11 29 4 12 11 21 23 21 28 0 5 14 21 30
35 17 13 30 33 30 44 0 10 7 19 15 19 8 0 15 3 15 8 0 4 25 34 55 67 30 33 55
66 55 73 0 6 5 12 11 12 6 0 9 8 7 18 -4 13 1 18 15 19 20 2 33 10 26 17 -2 2
-29 6 -59 10 -92 10 -184 23 -200 30 -8 3 -40 8 -70 10 -30 3 -82 10 -115 16
-33 6 -86 13 -118 16 -56 5 -57 4 -45 -15z"/>
</g>
</svg>
