<?xml version="1.0" encoding="UTF-8"?><svg id="a" xmlns="http://www.w3.org/2000/svg" viewBox="0 0 1092.7 651.46"><defs><style>.b{letter-spacing:0em;}.c,.d{fill:#ef7f1b;}.e{letter-spacing:.02em;}.f{letter-spacing:-.02em;}.g{letter-spacing:-.02em;}.h{letter-spacing:0em;}.i{letter-spacing:-.02em;}.j{letter-spacing:-.03em;}.k{letter-spacing:0em;}.l{fill:#243873;}.m{letter-spacing:0em;}.n{font-size:38.4px;}.n,.o{fill:#f3f3f3;}.n,.d{font-family:Bahnschrift-BoldSemiCondensed, Bahnschrift;font-variation-settings:'wght' 700, 'wdth' 87;}.p{letter-spacing:0em;}.q{letter-spacing:0em;}.r{letter-spacing:-.02em;}.d{font-size:51.74px;}.s{letter-spacing:0em;}</style></defs><path class="l" d="M372.37,2.29c-1.75-1.52-4.03-2.28-6.34-2.28-2.54,0-4.99,.96-6.83,2.71-1.82,1.74-3.47,3.66-4.22,6.03-.23,.73-.33,1.5-.36,2.27-.36,8.24,.32,16.51-.24,24.74-.54,5.7-6.57,9.59-12.03,8.71-5.31-.35-9.52-5.4-9.67-10.58-.33-7.91,.2-15.82-.16-23.73-.14-2.96-1.89-5.24-3.91-7.28-1.84-1.86-4.37-2.88-6.99-2.88h-.08c-2.74,0-5.35,1.14-7.24,3.12-1.85,1.94-3.4,4.11-3.52,6.9-.38,7.94,.14,15.9-.15,23.84-.34,5.43-4.91,10.71-10.6,10.65-5.97,.71-11.46-4.77-11.47-10.62-.23-7.62,.17-15.25-.08-22.87-.18-5.26-4.46-9.72-9.5-10.74-6.33-1.17-12.56,4.47-12.83,10.73-.55,8.4,.32,16.85-.36,25.23-.01,.18-.04,.35-.08,.53-1.62,6.78-10.45,9.82-16.27,6.4-3.4-2.17-5.66-6.11-5.6-10.18-.16-7.63,.24-15.28-.09-22.9-.17-3.14-2.01-5.58-4.25-7.6C237.7,.87,235.34,.01,232.92,.01h-.18c-2.58,0-5.07,.98-6.91,2.79-2.07,2.04-3.89,4.33-3.97,7.34-.38,7.9,.16,15.8-.18,23.7-.05,3.89-2.52,7.41-5.86,9.27-6.09,3.87-15.87-.83-15.92-8.26-.35-7.94,.14-15.89-.14-23.83-.14-3.36-2.09-5.98-4.42-8.23-1.84-1.78-4.32-2.76-6.88-2.76h-.13c-2.57,0-5.07,.96-6.89,2.77-2.1,2.09-3.8,4.55-4.09,7.6-.59,8.44,.29,16.93-.37,25.36-.47,5.82-6.69,9.52-12.15,8.73-5.25-.47-9.42-5.41-9.59-10.57-.31-7.94,.16-15.9-.14-23.84-.09-3.21-2.12-5.64-4.47-7.66-1.8-1.55-4.09-2.38-6.46-2.38h-.12c-2.43,0-4.78,.87-6.59,2.49-2.25,2.02-4.15,4.44-4.32,7.58-.24,5.48,0,10.97-.05,16.45,.13,5.35,.55,11.78-4.1,15.53-5.97,5.5-16.83,1.41-17.92-6.55-.58-8.47,.26-16.99-.35-25.46-.14-3.03-1.91-5.41-4.04-7.43-1.81-1.71-4.23-2.61-6.72-2.61h-.14c-2.61,0-5.13,1.01-6.98,2.86-2.25,2.25-4.16,4.83-4.4,8.14-.27,7.33,.08,14.67-.05,22,.14,3.07-.95,6.14-3.15,8.32-3.37,3.87-9.61,4.2-13.77,1.47-2.92-1.99-4.99-5.36-5.11-8.93-.27-7.94,.23-15.89-.15-23.83-.06-2.99-1.85-5.24-3.89-7.25C60.49,1.02,58,.04,55.43,.04h-.09c-2.47,0-4.87,.89-6.67,2.57-2.17,2.01-3.98,4.39-4.06,7.47-.38,7.65,.05,15.31-.11,22.97,.08,4.92-3.36,9.77-8.1,11.17-.13,.04-.27,.07-.4,.09-2.73,.49-5.68,.35-8.15-.97-3.49-1.72-5.37-5.67-5.54-9.42-.28-7.87,.27-15.76-.17-23.62-.21-3.09-1.88-5.54-4.03-7.56C16.28,1.01,13.84,.06,11.31,.06h-.26C8.38,.06,5.81,1.11,3.96,3.03c-.54,.56-1.06,1.13-1.57,1.72C.84,6.5,0,8.8,0,11.18V438.79c0,7.26,.64,14.5,1.75,21.67,.08,.55,.17,1.1,.24,1.66,1.55,11.07,4.12,21.99,8.14,32.42,8.57,22.23,22.1,42.54,39.19,59.14,5.26,5.09,10.28,10.44,15.97,15.07,14.07,11.78,28.58,23.09,44.04,33.02,15.98,10.62,32.07,21.13,48.54,30.98,9.76,5.84,19.61,11.57,28.89,18.16,.51,.36,1.11,.55,1.73,.55,.7,0,1.38-.25,1.92-.7,4.66-3.8,9.99-6.64,15.14-9.71,37.03-22.76,74.52-45.23,107.71-73.49,6.05-4.88,11.12-10.8,16.69-16.18,19.76-20.01,34.94-44.85,41.9-72.21,1.5-6.33,2.62-12.74,3.55-19.17,.71-4.89,1.17-9.81,1.39-14.75,.16-3.55,.33-7.1,.41-10.66-.04-140.62,.04-281.24-.04-421.86,.37-4.23-1.75-7.82-4.78-10.46v.02Z"/><path class="l" d="M188.37,92.54c2.73,3.6,3.41,8.16,4.96,12.3,1.12,3.24,2.71,6.42,2.76,9.93-4.99,.19-9.99,.17-14.99,0-.15-3.54,1.74-6.66,2.86-9.9,1.6-4.07,2.19-8.52,4.4-12.33h.01Z"/><g><path class="o" d="M262.44,227.74c3.56-.21,7.16-.42,10.71,.03,10.78,10.81,21.57,21.64,32.42,32.41,3.6,3.12,1.88,8.41,1.95,12.54-1.23-.83-2.37-1.78-3.43-2.79-10.29-10.43-20.68-20.78-31.09-31.1-3.58-3.63-7.92-6.63-10.56-11.09h0Z"/><path class="o" d="M285.37,227.74c3.51-.2,7.06-.42,10.57,0,4.25,3.37,8.28,7.16,11.53,11.53,.54,3.39,.28,6.85,.09,10.26-3.93-2.53-6.86-6.27-10.23-9.45-3.99-4.11-8.28-7.94-11.96-12.34Z"/><path class="o" d="M162.35,436.84c8.03-2.87,15.23-9.32,14.95-18.28-.05-11.3,.02-22.6-.07-33.9,.27-2.1-1.39-4.24-3.52-4.29-7.69-.3-15.39,.17-23.07-.18-.3-15.09-.22-30.19-.05-45.28,24.02-.18,48.07-.25,72.09,.03,.33,33.03,.05,66.09,.14,99.12,.36,13.8-6.05,27.31-16.14,36.57-8.19,7.58-19.07,11.8-30.06,13.12-19.23,.09-38.47-.03-57.72,.05-14.67-.33-29.16-7.28-38.16-18.96-5.9-6.55-9.2-14.96-10.89-23.51-.7-5.44-.48-10.93-.5-16.41v-128.1c.11-6.71-.25-13.42,.26-20.11,1.52-13.73,8.8-26.63,19.75-35.06,8.02-6.49,18.4-9.58,28.6-10.06,18.32-.04,36.64,.03,54.94-.03,9.45-.12,18.77,2.86,26.85,7.64,13.23,8.52,22.75,23.37,23.03,39.33-.02,5.83,.24,11.67-.15,17.49-12.61,.28-25.23,0-37.84,.13-2.34-.05-4.74,.17-7.05-.35-.85-5.25-2.94-10.6-7.18-14.04-3.6-3.13-8.45-4.63-13.18-4.54-7.96,.05-15.93-.02-23.89,.04-9.54,.26-18.41,8.88-17.89,18.62,.02,40.88,0,81.76,0,122.64-.7,9.53,7.48,18.72,17.06,18.99,8.84,.04,17.69,.02,26.52,0"/><path class="o" d="M254.01,232.17c3.89,3.1,7.05,6.96,10.65,10.38,12.94,12.66,25.65,25.57,38.51,38.31,1.63,1.82,3.87,3.4,4.51,5.87,.02,3.55,.15,7.11-.1,10.66-3.37-4.56-8.06-8.31-12-12.54-13.59-13.51-27.07-27.18-40.72-40.66-1.81-3.61-.48-8.07-.86-12.01h0Z"/><path class="o" d="M254.15,257.54c.24-.25,.7-.75,.93-1.01,4.41,3.56,8.04,7.94,12.1,11.89,12.87,12.74,25.58,25.64,38.44,38.39,3.59,3.07,1.78,8.29,1.91,12.38-3.38-2.22-5.94-5.41-8.86-8.15-14.26-14.38-28.75-28.55-42.96-42.99-2.92-2.65-1.47-7.05-1.56-10.51h0Z"/><path class="o" d="M254.17,279.64c4.43,2.4,7.41,6.6,11.11,9.89,13.45,13.4,26.79,26.91,40.3,40.25,3.75,3.17,1.64,8.64,2.05,12.87-7.89-6.81-14.78-14.7-22.3-21.9-10.24-10.23-20.53-20.42-30.72-30.69-1.27-3.19-.41-7.01-.43-10.42h0Z"/><path class="o" d="M134.43,285.56c3.45-.42,7.01-.63,10.46-.05,8.94,8.44,17.37,17.4,26.15,26,3.48,3.04,2.07,8.03,2.1,12.07-2.84-1.06-4.93-3.3-7.03-5.38-7.04-6.99-13.67-14.37-20.82-21.25-3.54-3.86-7.78-7.11-10.85-11.39h-.01Z"/><path class="o" d="M157.33,285.22c4.62-.39,9.09,2.53,11.24,6.51,.57,1.89,.3,3.91,.32,5.86-3.64-4.32-8.38-7.67-11.57-12.37h0Z"/><path class="o" d="M123.77,295.96c.36-1.96-.4-5.67,2.4-5.82,10.92,10.81,21.67,21.82,32.66,32.56,.9,1.08,2.53,2.2,1.9,3.85-2.92,.11-5.91,.42-8.78-.21-8.23-6.78-15.28-14.87-22.98-22.22-2.09-2.42-5.72-4.47-5.2-8.16Z"/><path class="o" d="M254.07,302.39c2.45,1.11,4.12,3.29,5.92,5.22,7.59,8.28,16.21,15.52,23.8,23.81,5.83,6.06,11.78,12,17.96,17.71,2.02,2.02,4.3,3.89,5.7,6.42,.58,3.28,.27,6.68,.13,10-1.76-1.02-3.29-2.36-4.74-3.77-14.34-14.35-28.66-28.72-43.05-43.01-1.87-2-4.14-3.68-5.64-5.98-.35-3.45-.16-6.94-.08-10.39h0Z"/><path class="o" d="M123.1,311.53c.99,.19,1.99,.47,2.66,1.28,3.86,3.77,7.58,7.69,11.5,11.39,1.72,1.78,3.75,3.39,4.86,5.65,.28,2.89,.23,5.81,.04,8.71l-1.12,.14c-4.04-2.88-7.07-6.95-10.74-10.28-2.35-2.46-5.11-4.55-7.15-7.31-.27-3.18-.16-6.39-.05-9.58h0Z"/><path class="o" d="M254.14,325.93c1.88,.86,3.38,2.32,4.83,3.78,13.44,13.68,27.14,27.13,40.64,40.74,2.53,2.67,5.54,4.95,7.69,7.95,.91,3.34,.37,6.96,.26,10.4-1.45-.87-2.74-1.99-3.94-3.17-16.18-16.48-32.7-32.62-48.93-49.02-1.44-3.23-.48-7.19-.55-10.69h0Z"/><path class="o" d="M123.13,334.48c.89,.34,1.88,.6,2.56,1.33,5.16,4.9,9.76,10.37,15.12,15.07,.85,.64,1.52,1.57,1.45,2.71,.12,3.28,.04,6.58-.12,9.86-5.89-5.13-11.14-10.96-16.79-16.35-3.88-2.99-1.88-8.44-2.21-12.62h-.01Z"/><path class="o" d="M254.15,349.47c2.64,1.04,4.46,3.25,6.38,5.22,14.26,13.49,27.64,27.87,41.8,41.46,1.78,1.95,4.02,3.54,5.22,5.94,.36,3.37,.25,6.78,.04,10.16-1.02-.62-1.99-1.32-2.87-2.11-16.44-16.43-32.9-32.87-49.35-49.29-2.52-3.16-1.04-7.66-1.21-11.37h0Z"/><path class="o" d="M123.17,357.3c4.25,2.78,7.15,7.05,10.97,10.33,2.7,2.7,5.93,4.99,7.98,8.24,.38,3.2-.05,6.44,.17,9.66,.08,1.35,1.27,2.43,2.6,2.55,3.36,.9,6.88,.11,10.28,.68,3.33,2.71,6.09,6.04,9.28,8.92,1.72,1.82,3.93,3.38,4.88,5.76,.32,3.46,.15,6.94,.03,10.41-7.33-6.67-14.11-13.98-21.2-20.92-8.09-8.61-17.11-16.33-24.93-25.18-.39-3.48-.2-6.99-.05-10.47v.02Z"/><path class="o" d="M254.16,372.75c3.47,1.55,5.7,4.77,8.43,7.27,13.15,12.8,25.88,26.02,39.01,38.84,2.04,1.96,4.25,3.81,5.85,6.19,.59,3.27,.25,6.64,.14,9.95-2.15-.8-3.66-2.6-5.26-4.14-12.92-13-26.01-25.82-38.88-38.88-3.01-3.15-6.46-5.9-9.11-9.37-.69-3.22-.28-6.6-.17-9.86h-.01Z"/><path class="o" d="M123.13,380.18c12.68,11.78,24.59,24.37,36.92,36.53,2.45,2.68,5.58,4.87,7.25,8.18-1.24,1.98-3.26,3.23-5.41,4.04-2.48-1.14-4.26-3.28-6.11-5.22-8.86-9.13-18.01-17.97-26.93-27.04-1.89-1.98-4.31-3.53-5.68-5.94-.32-3.5-.11-7.04-.04-10.55h0Z"/><path class="o" d="M254.2,395.61c4.39,3.23,8.08,7.26,12,11.03,13.26,13.46,26.88,26.59,40,40.2-.47,2.24-1.36,4.38-2.34,6.44-1.49,0-2.87-.51-3.87-1.63-8.45-8.36-16.69-16.93-25.19-25.24-7.11-6.68-14.11-13.5-20.62-20.75-.37-3.34-.24-6.72,.02-10.05h0Z"/><path class="o" d="M124,404.75c4.02,2.77,6.99,6.72,10.63,9.93,4.05,3.58,7.59,7.7,11.55,11.38,1.14,1.05,2.21,2.24,2.79,3.71-3.41,.05-6.85,.28-10.25-.13-3.08-2.31-5.56-5.3-8.36-7.91-2.07-2.34-4.68-4.21-6.4-6.84-.38-3.37-.26-6.77,.04-10.13h0Z"/><path class="o" d="M254.37,419.11c.86,.44,1.65,1,2.36,1.65,6.95,6.74,13.67,13.73,20.79,20.29,5.78,6.09,11.55,12.23,17.7,17.97,1.24,1.38,3.12,2.5,3.6,4.38-.95,1.62-2.02,3.18-3.23,4.63-1.35,.82-2.8-.03-3.72-1.05-12.47-12.57-25.06-25.02-37.53-37.57-3.14-2.79-.62-6.99,.05-10.3h-.02Z"/><path class="o" d="M237.31,433.63c3.48,.26,8.01-1.78,10.67,1.31,12.59,12.72,25.31,25.3,37.96,37.96,.8,.76,1.58,1.7,1.02,2.87-1.35,1.72-3.33,2.82-5.22,3.84-13.18-12.65-25.9-25.8-38.9-38.64-1.86-2.35-5.54-4.14-5.53-7.35h0Z"/><path class="o" d="M230.63,442.28c1.03,.38,2.12,.75,2.92,1.57,10.73,10.32,20.81,21.32,31.71,31.46,2.56,2.71,5.6,5.1,7.57,8.3-2.39,1.48-5.55,2.86-8.31,1.99-6.11-4.62-10.58-11.02-16.37-16-4.56-4.02-8.35-8.77-12.75-12.96-2.03-2.08-4.26-3.97-6.13-6.2-.37-2.78,.72-5.49,1.35-8.15h0Z"/><path class="o" d="M225.3,459.84c1.91-.16,2.86,1.71,4.07,2.84,3.12,3.6,6.79,6.66,9.99,10.17,4.78,5.05,10.2,9.44,14.77,14.7-3.71,.11-7.48,.56-11.14-.07-7.16-6.85-14.17-13.9-21.09-20.99-.3-2.64,1.88-4.75,3.4-6.65h0Z"/><path class="o" d="M210.95,477.54c1.45-1.78,3.27-3.25,4.97-4.79,5.02,4.79,10.12,9.58,14.66,14.84-3.58,.17-7.17,.34-10.74,0-2.38-1.38-3.93-3.87-5.99-5.68-1.02-1.36-3.3-2.39-2.89-4.36h0Z"/><path class="o" d="M195.68,487.47c2.46-1.56,4.94-3.79,8.02-3.66,1.6,.69,2.83,2.09,3.03,3.86-3.68,.19-7.38,.16-11.05-.2h0Z"/></g><rect class="c" x="30.78" y="184.54" width="315.63" height="9.03" rx="4.51" ry="4.51"/><g><path class="c" d="M188.99,590.79l117.48-74.05c.63-.4,.35-1.37-.4-1.37h-27.34c-.14,0-.28,.04-.4,.11l-71.56,45.12-.28,.18c-2.68-7.29-9.68-11.48-17.9-11.48s-15.22,4.19-17.9,11.48l-.28-.18-71.57-45.12c-.12-.07-.26-.11-.4-.11h-27.34c-.74,0-1.03,.97-.4,1.37l117.48,74.05c.24,.15,.55,.15,.79,0h.02Z"/><path class="c" d="M188.6,535.78c4.58,0,8.78,1.62,12.06,4.31,.25,.2,.59,.23,.86,.06l37.13-23.41c.63-.4,.35-1.37-.4-1.37h-27.33c-.14,0-.28,.04-.4,.11l-21.53,13.58c-.24,.15-.55,.15-.79,0l-21.53-13.58c-.12-.07-.26-.11-.4-.11h-27.34c-.74,0-1.03,.97-.4,1.37l37.13,23.4c.27,.17,.61,.14,.86-.06,3.28-2.69,7.49-4.31,12.07-4.31h0Z"/></g><g><path class="c" d="M69.18,165.73c0,2.01-.54,3.56-1.62,4.67s-2.61,1.66-4.58,1.66-3.47-.55-4.55-1.66c-1.08-1.11-1.61-2.66-1.61-4.67v-22.5h-6.59v22.33c0,2.74,.5,5.09,1.49,7.04s2.45,3.43,4.36,4.45,4.21,1.53,6.91,1.53,5-.51,6.92-1.53,3.38-2.5,4.38-4.45,1.5-4.3,1.5-7.04v-22.33h-6.59v22.5h-.02Z"/><polygon class="c" points="104.3 168.85 91.86 143.23 83.8 143.23 83.8 178.2 90.1 178.2 90.1 152.97 102.49 178.2 110.6 178.2 110.6 143.23 104.3 143.23 104.3 168.85"/><rect class="c" x="119.1" y="143.23" width="6.83" height="34.99"/><polygon class="c" points="146.01 166.57 138.57 143.23 131.79 143.23 143.43 178.22 148.58 178.22 160.23 143.23 153.45 143.23 146.01 166.57"/><polygon class="c" points="168.22 143.23 165.84 143.23 165.84 178.22 168.22 178.22 172.44 178.22 189.28 178.22 189.28 171.87 172.44 171.87 172.44 164.02 186.63 164.02 186.63 157.67 172.44 157.67 172.44 149.58 189.28 149.58 189.28 143.23 172.44 143.23 168.22 143.23"/><path class="c" d="M216.97,162.84c1.47-.87,2.6-2.09,3.41-3.67,.8-1.58,1.2-3.41,1.2-5.5s-.4-3.92-1.2-5.5-1.93-2.8-3.39-3.67-3.15-1.3-5.08-1.3h-15.33v35.02h6.59v-14.08h4l7.89,14.08h7.99l-8.37-14.43c.81-.22,1.58-.53,2.29-.95Zm-13.8-13.28h8.21c.69,0,1.29,.17,1.8,.51,.51,.34,.91,.82,1.19,1.44,.28,.63,.42,1.35,.42,2.17-.02,.82-.16,1.54-.45,2.17-.28,.63-.68,1.11-1.19,1.44-.51,.34-1.11,.51-1.78,.51h-8.21v-8.23h0Z"/><path class="c" d="M248.14,159.32c-1.48-.62-3.33-1.14-5.55-1.58-.1-.02-.19-.04-.28-.06s-.18-.04-.28-.06c-.06-.02-.13-.03-.19-.04-.06,0-.13-.02-.19-.04-1.54-.3-2.74-.59-3.59-.87-.85-.27-1.56-.7-2.14-1.29s-.87-1.38-.87-2.39v-.02c0-1.2,.55-2.14,1.66-2.8,1.11-.67,2.67-1,4.69-1,1.35,0,2.76,.26,4.22,.77,1.47,.51,2.88,1.24,4.22,2.17l2.79-5.58c-1.12-.77-2.31-1.43-3.56-1.97-1.25-.55-2.53-.96-3.84-1.25s-2.59-.43-3.84-.43c-2.73,0-5.05,.42-6.98,1.26s-3.39,2.07-4.4,3.67c-1.01,1.6-1.52,3.54-1.52,5.8v.02c0,2.55,.54,4.52,1.61,5.91s2.38,2.36,3.92,2.91,3.48,1.02,5.82,1.38l.53,.07s.09,.02,.13,.02,.08,0,.13,.02c1.33,.21,2.42,.44,3.27,.7s1.54,.66,2.07,1.2c.53,.55,.79,1.28,.79,2.21v.02c0,1.33-.59,2.36-1.78,3.09s-2.86,1.1-5.01,1.1c-1.86,0-3.67-.3-5.44-.9-1.76-.6-3.32-1.46-4.67-2.56l-3.06,5.44c1.11,.91,2.36,1.7,3.77,2.35,1.4,.65,2.9,1.14,4.5,1.48s3.23,.51,4.9,.51c2.81,0,5.21-.42,7.21-1.25s3.52-2.05,4.56-3.63c1.04-1.59,1.56-3.5,1.56-5.73v-.05c0-2.37-.5-4.25-1.49-5.62s-2.23-2.37-3.72-2.98h.05Z"/><rect class="c" x="259.68" y="143.23" width="6.83" height="34.99"/><polygon class="c" points="272.12 149.58 281.65 149.58 281.65 178.22 288.25 178.22 288.25 149.58 297.78 149.58 297.78 143.23 272.12 143.23 272.12 149.58"/><polygon class="c" points="313.37 158.29 306.68 143.23 299.78 143.23 310.08 164.72 310.08 178.22 316.67 178.22 316.67 164.72 326.97 143.23 320.06 143.23 313.37 158.29"/><path class="c" d="M62.15,134.81c3.8,1.98,8.18,2.98,13.15,2.98s9.28-1.05,13.03-3.16,6.65-5.09,8.7-8.95c2.05-3.86,3.07-8.32,3.07-13.38v-13.31h-23.62v12.38h10.31v1.12c0,2.47-.47,4.61-1.41,6.42s-2.27,3.2-4.01,4.15c-1.73,.95-3.76,1.43-6.07,1.43s-4.41-.44-6.19-1.31c-1.78-.87-3.16-2.12-4.12-3.75-.97-1.62-1.45-3.5-1.45-5.62v-20.11c0-2.41,.48-4.53,1.43-6.38,.95-1.84,2.3-3.27,4.03-4.27,1.73-1,3.74-1.5,6.02-1.5,1.56,0,3.07,.27,4.52,.82s2.72,1.34,3.8,2.39,1.85,2.29,2.32,3.73h13.88c-.81-4.03-2.37-7.58-4.66-10.64-2.3-3.06-5.16-5.43-8.6-7.1-3.44-1.67-7.19-2.51-11.25-2.51-4.94,0-9.28,1.05-13.03,3.16s-6.65,5.09-8.7,8.93c-2.05,3.84-3.07,8.3-3.07,13.36v20.11c0,4.78,1.04,8.98,3.12,12.61,2.08,3.63,5.02,6.43,8.81,8.41h0Z"/><polygon class="c" points="158.41 137.09 158.41 124.71 125.6 124.71 125.6 109.43 153.25 109.43 153.25 97.05 125.6 97.05 125.6 81.3 158.41 81.3 158.41 68.93 125.6 68.93 117.39 68.93 112.75 68.93 112.75 137.09 117.39 137.09 125.6 137.09 158.41 137.09"/><polygon class="c" points="182.97 137.09 215.78 137.09 215.78 124.71 182.97 124.71 182.97 109.43 210.63 109.43 210.63 97.05 182.97 97.05 182.97 81.3 215.78 81.3 215.78 68.93 182.97 68.93 174.77 68.93 170.13 68.93 170.13 137.09 174.77 137.09 182.97 137.09"/><polygon class="c" points="238.56 137.09 251.41 137.09 251.41 81.3 269.97 81.3 269.97 68.93 220 68.93 220 81.3 238.56 81.3 238.56 137.09"/><path class="c" d="M284.35,126.16h24.97l3.83,10.92h13.83l-26.06-68.16h-8.16l-26.06,68.16h13.83l3.83-10.92h0Zm12.48-35.62l8.15,23.25h-16.3l8.15-23.25Z"/></g><g><path class="c" d="M551.76,127.39v48.45c0,12.38-2.45,23.2-7.34,32.44-4.89,9.24-11.84,16.33-20.86,21.27-9.02,4.94-19.58,7.4-31.7,7.4s-23.02-2.36-32.17-7.07-16.2-11.46-21.13-20.26c-4.94-8.79-7.4-19.11-7.4-30.96V98.99c0-12.56,2.45-23.49,7.34-32.77s11.84-16.44,20.86-21.47c9.02-5.02,19.58-7.54,31.7-7.54s22.39,2.27,30.82,6.8c8.43,4.53,15.03,11.31,19.79,20.32s7.58,20.35,8.48,33.99h-36.74c-.45-5.65-1.64-10.34-3.57-14.07-1.93-3.72-4.49-6.48-7.67-8.28-3.19-1.79-6.89-2.69-11.1-2.69-4.76,0-8.93,1.06-12.52,3.16-3.59,2.11-6.35,5.11-8.28,9.02s-2.89,8.41-2.89,13.53v79.68c0,4.4,.99,8.3,2.96,11.71,1.97,3.41,4.82,6.01,8.55,7.81,3.72,1.8,8.05,2.69,12.99,2.69s9.22-.96,12.85-2.89c3.63-1.93,6.46-4.76,8.48-8.48,2.02-3.72,3.03-8.14,3.03-13.26v-15.07h-23.02v-33.78h58.55Z"/><path class="c" d="M580.56,39.23h34.99V234.93h-34.99V39.23Zm14,0h94.89v34.05h-94.89V39.23Zm0,81.57h84.12v33.78h-84.12v-33.78Zm0,80.08h94.89v34.05h-94.89v-34.05Z"/><path class="c" d="M715.02,39.23h34.99V234.93h-34.99V39.23Zm14,0h94.89v34.05h-94.89V39.23Zm0,81.57h84.12v33.78h-84.12v-33.78Zm0,80.08h94.89v34.05h-94.89v-34.05Z"/><path class="c" d="M834.68,39.23h120.6v33.78h-120.6V39.23Zm42.67,16.29h35.13V234.93h-35.13V55.51Z"/><path class="c" d="M1008.58,39.23h23.42l60.7,195.7h-36.34l-36.07-130.83-36.07,130.83h-36.34l60.7-195.7Zm-26.92,131.5h78.07v33.38h-78.07v-33.38Z"/></g><g><path class="l" d="M445.49,371.56c-4.67-2.54-8.23-6.22-10.67-11.06s-3.66-10.64-3.66-17.43v-72.19h18.56v72.69c0,4.22,1.1,7.5,3.31,9.85s5.3,3.52,9.28,3.52,7.16-1.17,9.39-3.52,3.34-5.63,3.34-9.85v-72.69h18.56v72.19c0,6.78-1.23,12.59-3.7,17.43-2.47,4.84-6.05,8.52-10.74,11.06-4.69,2.54-10.31,3.81-16.86,3.81s-12.15-1.27-16.82-3.81Z"/><path class="l" d="M508.69,270.88h18.78l31.44,74.04-1.85,2.35v-76.39h17.35v103.35h-18.99l-31.15-71.48,1.71-2.35v73.83h-17.28v-103.35Z"/><path class="l" d="M609.61,374.3h-18.85v-103.42h18.85v103.42Z"/><path class="l" d="M620.28,270.88h19.35l15.93,70.2,15.93-70.2h19.35l-26.67,103.42h-17.21l-26.67-103.42Z"/><path class="l" d="M700.8,270.88h18.49v103.42h-18.49v-103.42Zm7.4,0h50.14v17.99h-50.14v-17.99Zm0,43.1h44.45v17.85h-44.45v-17.85Zm0,42.32h50.14v17.99h-50.14v-17.99Z"/><path class="l" d="M771.85,270.81h18.35v103.49h-18.35v-103.49Zm7.82,42.96h27.24c1.75,0,3.3-.39,4.62-1.17s2.34-1.88,3.02-3.31,1.03-3.08,1.03-4.98v-5.83c0-1.99-.34-3.73-1.03-5.23s-1.68-2.63-2.99-3.41-2.86-1.17-4.66-1.17h-27.24v-17.85h27.45c5.64,0,10.54,1.09,14.69,3.27,4.15,2.18,7.34,5.32,9.57,9.42,2.23,4.1,3.34,8.93,3.34,14.47v6.05c0,5.64-1.11,10.54-3.34,14.69-2.23,4.15-5.42,7.34-9.57,9.57-4.15,2.23-9.04,3.34-14.69,3.34h-27.45v-17.85Zm18.07,14.65l18.49-3.27,22.12,49.15h-21.2l-19.42-45.88Z"/><path class="l" d="M862.47,372.77c-4.41-1.73-8.05-4.3-10.92-7.72-2.87-3.41-4.9-7.66-6.08-12.73l17.28-7.61c1.33,4.13,3.38,7.25,6.15,9.39s6.13,3.2,10.06,3.2,7.25-.9,9.53-2.7c2.28-1.8,3.41-4.31,3.41-7.54v-4.55c0-2.32-.66-4.24-1.99-5.76-1.33-1.52-3.06-2.71-5.19-3.59-2.13-.88-4.93-1.84-8.39-2.88-.14-.09-.27-.15-.39-.18-.12-.02-.2-.06-.25-.11l-.92-.21c-5.64-1.71-10.25-3.46-13.83-5.26-3.58-1.8-6.63-4.59-9.14-8.36s-3.77-8.81-3.77-15.11v-2.85c0-5.93,1.24-11.02,3.73-15.29s6.1-7.51,10.85-9.74c4.74-2.23,10.5-3.34,17.28-3.34,5.12,0,9.64,.82,13.55,2.45s7.17,4.1,9.78,7.4c2.61,3.3,4.58,7.39,5.9,12.27l-16.43,7.68c-1.38-3.89-3.25-6.85-5.62-8.89-2.37-2.04-5.12-3.06-8.25-3.06-3.98,0-7.04,.84-9.18,2.52-2.13,1.68-3.2,3.99-3.2,6.93v3.49c0,2.56,.71,4.64,2.13,6.22,1.42,1.59,3.18,2.85,5.26,3.77s4.98,1.98,8.68,3.17c.33,.05,.64,.13,.92,.25,.28,.12,.57,.23,.85,.32,.28,.05,.51,.11,.68,.18s.37,.13,.6,.18c5.17,1.61,9.45,3.34,12.84,5.19s6.24,4.59,8.54,8.22c2.3,3.63,3.45,8.45,3.45,14.47v4.41c0,5.93-1.28,11.02-3.84,15.29-2.56,4.27-6.28,7.52-11.17,9.74-4.88,2.23-10.72,3.34-17.5,3.34-5.88,0-11.02-.87-15.43-2.6Z"/><path class="l" d="M941.63,374.3h-18.85v-103.42h18.85v103.42Z"/><path class="l" d="M953.01,270.88h63.73v17.85h-63.73v-17.85Zm22.55,8.61h18.56v94.81h-18.56v-94.81Z"/><path class="l" d="M1064.04,334.54v39.76h-18.56v-39.76l-24.82-63.66h19.35l14.72,43.67,14.51-43.67h19.35l-24.54,63.66Z"/></g><text class="d" transform="translate(427.03 448.81)"><tspan class="g" x="0" y="0">P</tspan><tspan class="k" x="26.15" y="0">anipat, Delhi N</tspan><tspan class="q" x="318.01" y="0">C</tspan><tspan class="h" x="344.31" y="0">R, IN</tspan><tspan class="b" x="436.91" y="0">DI</tspan><tspan x="476.04" y="0">A</tspan></text><text class="n" transform="translate(428.82 514.44)"><tspan class="p" x="0" y="0">P</tspan><tspan class="s" x="19.97" y="0">O</tspan><tspan class="m" x="41.01" y="0">W</tspan><tspan x="68.27" y="0">ERING E</tspan><tspan class="f" x="187.76" y="0">DU</tspan><tspan class="j" x="227.63" y="0">C</tspan><tspan class="r" x="246.4" y="0">A</tspan><tspan class="e" x="266.57" y="0">T</tspan><tspan x="283.19" y="0">I</tspan><tspan class="p" x="292.09" y="0">O</tspan><tspan x="312.76" y="0">N, EM</tspan><tspan class="p" x="395.74" y="0">P</tspan><tspan x="415.71" y="0">O</tspan><tspan class="m" x="436.75" y="0">W</tspan><tspan x="464.01" y="0">ERING MIN</tspan><tspan class="i" x="621.3" y="0">D</tspan><tspan x="641.44" y="0">S</tspan></text><rect class="c" x="941.63" y="438.61" width="146.95" height="10.21"/></svg>