<svg width="342" height="342" viewBox="0 0 342 342" fill="none" xmlns="http://www.w3.org/2000/svg">
  <path d="M239.553 114.941C235.588 114.116 231.483 113.678 227.272 113.678C221.801 113.678 216.504 114.415 211.471 115.789C192.973 120.836 177.931 134.527 171.13 152.247C164.453 134.201 149.264 120.225 130.533 115.115C125.496 113.736 120.199 113 114.728 113C110.517 113 106.412 113.437 102.447 114.263L102 166.773C102 168.558 102.103 170.78 102.223 172.574C103.786 195.779 113.5 217.123 130.962 230.368C141.247 238.168 153.672 243.291 167.204 244.697C168.526 244.835 169.857 244.933 171.197 244.996C172.407 244.938 173.608 244.857 174.796 244.746C188.328 243.487 200.757 238.842 211.038 231.041C228.5 217.797 238.214 196.453 239.777 173.248C239.897 171.454 240 169.232 240 167.447L239.553 114.941ZM174.796 237.124V178.219V177.541C174.796 175.93 174.801 174.618 174.796 173.199C174.917 149.878 190.807 129.284 213.467 123.103C217.951 121.88 222.596 121.26 227.272 121.26C228.857 121.26 230.438 121.331 232.015 121.474L232.408 167.482C232.408 168.879 232.332 170.843 232.202 172.744C231.474 183.574 228.893 193.61 224.539 202.571C220.09 211.723 214.003 219.269 206.447 225.004C197.524 231.769 186.694 235.901 174.796 237.124ZM109.798 172.065C109.668 170.164 109.592 168.201 109.592 166.804L109.985 120.8C111.562 120.658 113.143 120.586 114.728 120.586C119.404 120.586 124.049 121.206 128.533 122.429C151.216 128.619 167.119 149.253 167.204 172.601C167.204 172.788 167.204 172.967 167.204 173.145C167.204 173.181 167.204 173.212 167.204 173.248C167.199 174.921 167.204 176.372 167.204 178.219V237.066C155.708 235.74 144.887 231.403 135.553 224.321C127.997 218.591 121.91 211.041 117.461 201.888C113.107 192.932 110.53 182.896 109.798 172.065Z" fill="#E37435" stroke="#E37435" stroke-width="16"/>
  <path fill-rule="evenodd" clip-rule="evenodd" d="M171 318C252.186 318 318 252.186 318 171C318 89.8141 252.186 24 171 24C89.8141 24 24 89.8141 24 171C24 252.186 89.8141 318 171 318ZM171 342C265.441 342 342 265.441 342 171C342 76.5593 265.441 0 171 0C76.5593 0 0 76.5593 0 171C0 265.441 76.5593 342 171 342Z" fill="#8EAA3C"/>
</svg>
