<svg xmlns="http://www.w3.org/2000/svg" width="150" height="47">
  <g fill="none" fill-rule="evenodd">
    <path fill="#363636" fill-rule="nonzero" stroke="#000" stroke-opacity=".3" stroke-width=".6" d="M17 .3C11.8.3 9.5.8 7 2.1A11.8 11.8 0 0 0 2 7C.9 9.4.4 11.7.4 17v12.7c0 5.4.5 7.7 1.8 10.1 1 2.2 2.7 3.8 4.9 5 2.4 1.2 4.7 1.7 10 1.7h116c5.3 0 7.7-.5 10-1.7 2.2-1.2 3.9-2.8 5-5 1.3-2.4 1.7-4.7 1.7-10V17c0-5.4-.4-7.7-1.7-10.1a11.8 11.8 0 0 0-5-5C140.8.9 138.4.4 133 .4H17z"/>
    <path fill="#1DA1F2" d="M16.1 5h15c3.8 0 5.2.4 6.7 1.2 1.4.7 2.5 1.8 3.2 3.2.8 1.5 1.2 2.9 1.2 6.7v15c0 3.8-.4 5.2-1.2 6.7a7.9 7.9 0 0 1-3.2 3.2c-1.5.8-2.9 1.2-6.7 1.2H16c-3.8 0-5.2-.4-6.7-1.2a7.9 7.9 0 0 1-3.2-3.2C5.4 36.3 5 34.9 5 31V16c0-3.8.4-5.2 1.2-6.7a7.9 7.9 0 0 1 3.2-3.2C11 5.4 12.3 5 16.1 5z"/>
    <path fill="#FFF" fill-rule="nonzero" d="M62.3 22.3h-2.6v-9h-.1L56 21.5h-1.8l-3.4-8.4h-.2v9.1h-2.6V8.9h3.3l3.7 9.2h.2L59 9h3.3v13.4zM66 26h-1v-2.1h.6c1 0 1.6-.3 1.8-1.2l.1-.3L64 12h3l2.2 7.8h.1l2.2-7.8h2.8l-3.5 10.4C70 25 68.6 26 66 26zm20.3-3.7h-2.8v-11h-4V8.8h10.9v2.3h-4v11.1zm19.3-10.2L103 22.3H100l-1.8-7.1H98l-1.8 7.1h-2.8l-2.7-10.2h2.7l1.5 7.4h.2l1.8-7.4h2.6l1.8 7.4h.1L103 12h2.6zm2.8-1.6c-.8 0-1.5-.7-1.5-1.5s.7-1.5 1.5-1.5c.9 0 1.6.7 1.6 1.5s-.7 1.5-1.6 1.5zm-1.3 11.8V12.1h2.7v10.2H107zm5.7-12.7h2.7v2.6h2.1v2h-2.1V19c0 1 .4 1.4 1.3 1.4h.8v2h-1.4c-2.4 0-3.4-.8-3.4-2.8v-5.3h-1.6v-2h1.6V9.6zm7.4 0h2.7v2.6h2.1v2h-2V19c0 1 .3 1.4 1.2 1.4h.8v2h-1.3c-2.5 0-3.5-.8-3.5-2.8v-5.3h-1.6v-2h1.6V9.6zm13.1 9.8h2.5c-.4 2-2.1 3.1-4.6 3.1-3.2 0-5-2-5-5.3s1.9-5.3 5-5.3c3 0 4.7 1.9 4.7 5.1v.8h-7v.2c0 1.5 1 2.5 2.3 2.5 1.1 0 1.8-.4 2.1-1zm-2.2-5.5c-1.2 0-2.1.9-2.2 2.2h4.4c0-1.4-.9-2.2-2.2-2.2zm6.5 8.4V12.1h2.6v1.6h.2c.3-1 1.3-1.8 2.6-1.8l1.1.1v2.4l-1.3-.1c-1.5 0-2.5.8-2.5 2.3v5.7h-2.7zm-85.9 7.2c2.6 0 4.3 1.7 4.3 4 0 1.7-.8 2.8-2 2.8-.7 0-1.2-.3-1.3-.8-.3.5-.8.8-1.4.8-1.1 0-1.8-1-1.8-2.3 0-1.3.7-2.2 1.8-2.2.6 0 1 .3 1.2.8h.1v-.7h1v3c0 .4.2.6.6.6.6 0 1-.7 1-2 0-1.9-1.5-3.2-3.5-3.2-2.1 0-3.6 1.6-3.6 3.8 0 2.2 1.5 3.6 3.8 3.6a5 5 0 0 0 1.5-.2v.8l-1.6.2c-2.8 0-4.6-1.8-4.6-4.5 0-2.6 1.8-4.5 4.5-4.5zm-.2 3.2c-.6 0-1 .5-1 1.4 0 .8.4 1.3 1 1.3.7 0 1-.5 1-1.3 0-.9-.3-1.4-1-1.4zm5.8 2.5h1.3c.1.7.8 1.2 1.8 1.2.9 0 1.5-.5 1.5-1.2 0-.5-.4-.9-1.4-1.1l-1-.3c-1.4-.3-2-1-2-2.1 0-1.4 1.1-2.3 2.8-2.3 1.7 0 2.8.9 3 2.2h-1.4c-.1-.7-.7-1.1-1.6-1.1-.9 0-1.4.4-1.4 1s.3 1 1.3 1.2l.9.2c1.6.3 2.2 1 2.2 2.2 0 1.5-1.1 2.4-3 2.4-1.8 0-3-.9-3-2.3zm7.9-5.2h1.3v1.5h1.3v1h-1.3v3c0 .5.2.8.8.8h.5v1H67c-1.4 0-2-.4-2-1.6v-3.2h-.9v-1h1V30zm4.6.4a.8.8 0 0 1-.8-.7c0-.5.3-.8.8-.8.4 0 .8.3.8.8 0 .4-.4.7-.8.7zm-.7 6.9v-5.9h1.3v5.9h-1.3zm3.7-6.9a.8.8 0 0 1-.8-.7.8.8 0 0 1 1.6 0c0 .4-.4.7-.8.7zm.6 1v6.1c0 1.2-.6 1.8-2 1.8h-.3v-1h.2c.6 0 .8-.3.8-.8v-6h1.3zm1.7 5.9v-5.9h1.3v1c.3-.7 1-1 1.8-1 1.3 0 2 .7 2 2.1v3.8H79v-3.5c0-.9-.4-1.4-1.2-1.4-.8 0-1.3.6-1.3 1.5v3.4h-1.3zm6.8-7.8h3c2.2 0 3.6 1.5 3.6 3.9 0 2.5-1.3 3.9-3.7 3.9H82v-7.8zm1.4 1.2v5.4h1.4c1.5 0 2.4-1 2.4-2.7 0-1.7-1-2.7-2.4-2.7h-1.4zm10.5 6.6h-1.6l-2.7-7.8H91l2 6.2 2-6.2h1.5l-2.7 7.8zM19.4 34.2c9.4 0 14.6-7.9 14.6-14.6v-.7c1-.7 1.8-1.6 2.5-2.7-1 .5-2 .7-3 .9 1.1-.7 2-1.7 2.3-2.9-1 .6-2.1 1-3.2 1.3a5.1 5.1 0 0 0-8.8 4.6c-4.1-.2-8-2.1-10.6-5.3a5.1 5.1 0 0 0 1.6 6.8 5 5 0 0 1-2.3-.6c0 2.5 1.7 4.6 4.1 5-.7.3-1.5.3-2.3.2.7 2 2.6 3.5 4.8 3.5a10.3 10.3 0 0 1-7.6 2.2c2.3 1.5 5 2.3 7.9 2.3"/>
  </g>
</svg>
