<svg width="181" height="35" viewBox="0 0 181 35" fill="none" xmlns="http://www.w3.org/2000/svg">
  <path d="M19.62 4.28398C19.884 4.28398 20.1 4.34398 20.268 4.46398C20.46 4.58398 20.556 4.81198 20.556 5.14798L20.7 10.224C20.7 10.464 20.592 10.644 20.376 10.764C20.184 10.884 19.992 10.944 19.8 10.944C19.536 10.944 19.272 10.896 19.008 10.8C18.768 10.68 18.624 10.512 18.576 10.296C18.456 9.47998 18.312 8.78398 18.144 8.20798C18 7.63198 17.796 7.15198 17.532 6.76798C17.292 6.38398 16.968 6.10798 16.56 5.93998C16.176 5.74798 15.672 5.63998 15.048 5.61598H12.6V22.788C12.6 23.124 12.612 23.46 12.636 23.796C12.684 24.132 12.78 24.432 12.924 24.696C13.068 24.96 13.296 25.176 13.608 25.344C13.92 25.488 14.364 25.56 14.94 25.56C15.18 25.56 15.384 25.584 15.552 25.632C15.72 25.68 15.816 25.908 15.84 26.316C15.84 26.508 15.792 26.688 15.696 26.856C15.6 27.024 15.432 27.108 15.192 27.108C14.424 27.06 13.692 27.024 12.996 27C12.324 27 11.64 27 10.944 27C9.48004 27 7.98004 27.036 6.44404 27.108C6.20404 27.108 6.03604 27.024 5.94004 26.856C5.84404 26.688 5.79604 26.508 5.79604 26.316C5.82004 25.908 5.90404 25.68 6.04804 25.632C6.21604 25.584 6.43204 25.56 6.69604 25.56C7.27204 25.56 7.71604 25.488 8.02804 25.344C8.34004 25.176 8.56804 24.96 8.71204 24.696C8.85604 24.432 8.94004 24.132 8.96404 23.796C9.01204 23.46 9.03604 23.124 9.03604 22.788V5.61598H6.55204C5.92804 5.63998 5.41204 5.74798 5.00404 5.93998C4.62004 6.10798 4.29604 6.38398 4.03204 6.76798C3.79204 7.15198 3.60004 7.63198 3.45604 8.20798C3.31204 8.78398 3.18004 9.47998 3.06004 10.296C3.01204 10.512 2.85604 10.68 2.59204 10.8C2.32804 10.896 2.06404 10.944 1.80004 10.944C1.60804 10.944 1.41604 10.884 1.22404 10.764C1.03204 10.644 0.936035 10.464 0.936035 10.224L1.04404 5.14798C1.04404 4.81198 1.14004 4.58398 1.33204 4.46398C1.52404 4.34398 1.75204 4.28398 2.01604 4.28398H19.62Z" fill="#E37435"/>
  <path d="M38.245 23.58C38.245 24.996 39.193 25.704 41.089 25.704C41.353 25.704 41.521 25.776 41.593 25.92C41.665 26.064 41.701 26.22 41.701 26.388C41.701 26.724 41.497 26.928 41.089 27L35.293 27.396C35.101 27.396 34.993 27.324 34.969 27.18C34.969 27.036 34.969 26.868 34.969 26.676V24.66H34.897C34.537 24.996 34.177 25.332 33.817 25.668C33.457 25.98 33.049 26.268 32.593 26.532C32.161 26.796 31.657 27.012 31.081 27.18C30.505 27.348 29.845 27.432 29.101 27.432C27.445 27.432 26.137 26.94 25.177 25.956C24.241 24.972 23.773 23.676 23.773 22.068V15.408C23.773 15.096 23.773 14.796 23.773 14.508C23.773 14.196 23.713 13.932 23.593 13.716C23.497 13.476 23.317 13.296 23.053 13.176C22.813 13.032 22.441 12.96 21.937 12.96C21.721 12.96 21.517 12.936 21.325 12.888C21.157 12.816 21.073 12.6 21.073 12.24C21.073 12.096 21.121 11.964 21.217 11.844C21.313 11.724 21.457 11.64 21.649 11.592C22.465 11.472 23.137 11.352 23.665 11.232C24.193 11.088 24.625 10.968 24.961 10.872C25.297 10.752 25.561 10.656 25.753 10.584C25.969 10.512 26.173 10.464 26.365 10.44C26.557 10.416 26.713 10.452 26.833 10.548C26.977 10.644 27.049 10.836 27.049 11.124V22.032C27.049 22.632 27.145 23.148 27.337 23.58C27.553 24.012 27.817 24.372 28.129 24.66C28.465 24.924 28.837 25.128 29.245 25.272C29.677 25.392 30.097 25.452 30.505 25.452C31.129 25.452 31.693 25.368 32.197 25.2C32.701 25.008 33.145 24.78 33.529 24.516C33.913 24.252 34.225 23.988 34.465 23.724C34.705 23.436 34.873 23.184 34.969 22.968V15.408C34.969 15.096 34.969 14.796 34.969 14.508C34.969 14.196 34.909 13.932 34.789 13.716C34.693 13.476 34.513 13.296 34.249 13.176C34.009 13.032 33.637 12.96 33.133 12.96C32.917 12.96 32.713 12.936 32.521 12.888C32.353 12.816 32.269 12.6 32.269 12.24C32.269 12.096 32.317 11.964 32.413 11.844C32.509 11.724 32.653 11.64 32.845 11.592C33.661 11.472 34.333 11.352 34.861 11.232C35.389 11.088 35.821 10.968 36.157 10.872C36.493 10.752 36.757 10.656 36.949 10.584C37.165 10.512 37.369 10.464 37.561 10.44C37.753 10.416 37.909 10.452 38.029 10.548C38.173 10.644 38.245 10.836 38.245 11.124V23.58Z" fill="#E37435"/>
  <path d="M45.4343 5.72398C45.4343 5.41198 45.4343 5.11198 45.4343 4.82398C45.4343 4.51198 45.3743 4.24798 45.2543 4.03198C45.1583 3.79198 44.9783 3.61198 44.7143 3.49198C44.4743 3.34798 44.1023 3.27598 43.5983 3.27598C43.3823 3.27598 43.1783 3.25198 42.9863 3.20398C42.8183 3.13198 42.7343 2.91598 42.7343 2.55598C42.7343 2.41198 42.7823 2.27998 42.8783 2.15998C42.9743 2.03998 43.1183 1.95598 43.3103 1.90798C44.1263 1.78798 44.7983 1.66798 45.3263 1.54798C45.8543 1.40398 46.2863 1.28398 46.6223 1.18798C46.9583 1.06798 47.2223 0.971979 47.4143 0.89998C47.6303 0.82798 47.8343 0.779979 48.0263 0.755979C48.2183 0.731979 48.3743 0.76798 48.4943 0.86398C48.6383 0.959979 48.7103 1.15198 48.7103 1.43998V23.292C48.7103 23.604 48.7103 23.916 48.7103 24.228C48.7103 24.516 48.7583 24.78 48.8543 25.02C48.9743 25.236 49.1663 25.416 49.4303 25.56C49.6943 25.68 50.0783 25.74 50.5823 25.74C50.7983 25.74 50.9783 25.764 51.1223 25.812C51.2903 25.836 51.3863 26.028 51.4103 26.388C51.4103 26.58 51.3623 26.748 51.2663 26.892C51.1703 27.036 51.0263 27.108 50.8343 27.108C50.1383 27.06 49.4903 27.024 48.8903 27C48.3143 27 47.7023 27 47.0543 27C46.4063 27 45.7943 27 45.2183 27C44.6423 27.024 44.0063 27.06 43.3103 27.108C43.1183 27.108 42.9743 27.036 42.8783 26.892C42.7823 26.748 42.7343 26.58 42.7343 26.388C42.7583 26.028 42.8423 25.836 42.9863 25.812C43.1543 25.764 43.3463 25.74 43.5623 25.74C44.0663 25.74 44.4383 25.68 44.6783 25.56C44.9423 25.416 45.1223 25.236 45.2183 25.02C45.3383 24.78 45.3983 24.516 45.3983 24.228C45.4223 23.916 45.4343 23.604 45.4343 23.292V5.72398Z" fill="#E37435"/>
  <path d="M57.3911 5.72398C57.1271 5.72398 56.8511 5.68798 56.5631 5.61598C56.2991 5.54398 56.0471 5.42398 55.8071 5.25598C55.5911 5.06398 55.3991 4.83598 55.2311 4.57198C55.0871 4.28398 55.0151 3.93598 55.0151 3.52798C55.0151 3.33598 55.0631 3.11998 55.1591 2.87998C55.2791 2.61598 55.4471 2.37598 55.6631 2.15998C55.9031 1.94398 56.1911 1.76398 56.5271 1.61998C56.8631 1.47598 57.2591 1.40398 57.7151 1.40398C57.9311 1.40398 58.1591 1.45198 58.3991 1.54798C58.6391 1.61998 58.8551 1.75198 59.0471 1.94398C59.2631 2.11198 59.4311 2.33998 59.5511 2.62798C59.6951 2.89198 59.7671 3.22798 59.7671 3.63598C59.7671 4.13998 59.5631 4.61998 59.1551 5.07598C58.7471 5.50798 58.1591 5.72398 57.3911 5.72398ZM59.4071 23.292C59.4071 23.604 59.4071 23.916 59.4071 24.228C59.4071 24.516 59.4551 24.78 59.5511 25.02C59.6711 25.236 59.8631 25.416 60.1271 25.56C60.3911 25.68 60.7751 25.74 61.2791 25.74C61.4951 25.74 61.6751 25.764 61.8191 25.812C61.9871 25.836 62.0831 26.028 62.1071 26.388C62.1071 26.58 62.0591 26.748 61.9631 26.892C61.8671 27.036 61.7231 27.108 61.5311 27.108C60.8351 27.06 60.1871 27.024 59.5871 27C59.0111 27 58.3991 27 57.7511 27C57.1031 27 56.4911 27 55.9151 27C55.3391 27.024 54.7031 27.06 54.0071 27.108C53.8151 27.108 53.6711 27.036 53.5751 26.892C53.4791 26.748 53.4311 26.58 53.4311 26.388C53.4791 26.028 53.5751 25.836 53.7191 25.812C53.8631 25.764 54.0551 25.74 54.2951 25.74C54.7991 25.74 55.1711 25.68 55.4111 25.56C55.6751 25.416 55.8551 25.236 55.9511 25.02C56.0711 24.78 56.1311 24.516 56.1311 24.228C56.1311 23.916 56.1311 23.604 56.1311 23.292V15.048C56.1311 14.736 56.1311 14.436 56.1311 14.148C56.1311 13.836 56.0711 13.572 55.9511 13.356C55.8551 13.116 55.6751 12.936 55.4111 12.816C55.1711 12.672 54.7991 12.6 54.2951 12.6C54.0791 12.6 53.8751 12.576 53.6831 12.528C53.5151 12.456 53.4311 12.24 53.4311 11.88C53.4311 11.736 53.4791 11.604 53.5751 11.484C53.6711 11.364 53.8151 11.28 54.0071 11.232C54.8231 11.112 55.4951 10.992 56.0231 10.872C56.5511 10.728 56.9831 10.608 57.3191 10.512C57.6551 10.392 57.9191 10.296 58.1111 10.224C58.3271 10.152 58.5311 10.104 58.7231 10.08C58.9151 10.056 59.0711 10.092 59.1911 10.188C59.3351 10.284 59.4071 10.476 59.4071 10.764V23.292Z" fill="#E37435"/>
  <path d="M73.6988 26.208C74.6348 26.208 75.4148 25.98 76.0388 25.524C76.6628 25.044 77.1548 24.444 77.5148 23.724C77.8988 23.004 78.1628 22.224 78.3068 21.384C78.4748 20.52 78.5588 19.704 78.5588 18.936C78.5588 18.096 78.4628 17.268 78.2708 16.452C78.0788 15.636 77.7668 14.904 77.3348 14.256C76.9268 13.608 76.3988 13.08 75.7508 12.672C75.1028 12.264 74.3228 12.06 73.4108 12.06C72.4988 12.06 71.7428 12.252 71.1428 12.636C70.5428 12.996 70.0028 13.428 69.5228 13.932V23.58C69.6428 23.892 69.8228 24.204 70.0628 24.516C70.3028 24.828 70.6028 25.116 70.9628 25.38C71.3228 25.62 71.7308 25.824 72.1868 25.992C72.6428 26.136 73.1468 26.208 73.6988 26.208ZM69.5948 12.492C70.2668 11.868 71.0708 11.34 72.0068 10.908C72.9428 10.476 73.8428 10.26 74.7068 10.26C75.7868 10.26 76.7828 10.476 77.6948 10.908C78.6308 11.316 79.4348 11.904 80.1068 12.672C80.7788 13.416 81.2948 14.316 81.6548 15.372C82.0388 16.404 82.2308 17.556 82.2308 18.828C82.2308 20.124 81.9908 21.312 81.5108 22.392C81.0548 23.448 80.4428 24.348 79.6748 25.092C78.9068 25.836 78.0308 26.412 77.0468 26.82C76.0628 27.228 75.0428 27.432 73.9868 27.432C72.9068 27.432 72.0308 27.312 71.3588 27.072C70.7108 26.856 70.1468 26.604 69.6668 26.316H69.5228V30.672C69.5228 30.984 69.5228 31.284 69.5228 31.572C69.5468 31.884 69.6188 32.148 69.7388 32.364C69.8588 32.604 70.0388 32.784 70.2788 32.904C70.5428 33.048 70.9148 33.12 71.3948 33.12C71.6108 33.12 71.7908 33.132 71.9348 33.156C72.1028 33.204 72.1988 33.408 72.2228 33.768C72.2228 33.96 72.1748 34.128 72.0788 34.272C71.9828 34.416 71.8388 34.488 71.6468 34.488C70.9508 34.44 70.3028 34.404 69.7028 34.38C69.1268 34.38 68.5148 34.38 67.8668 34.38C67.2188 34.38 66.6068 34.38 66.0308 34.38C65.4548 34.404 64.8188 34.44 64.1228 34.488C63.9308 34.488 63.7868 34.416 63.6908 34.272C63.5948 34.128 63.5468 33.96 63.5468 33.768C63.5708 33.408 63.6548 33.204 63.7988 33.156C63.9668 33.132 64.1588 33.12 64.3748 33.12C64.8548 33.12 65.2148 33.048 65.4548 32.904C65.7188 32.784 65.9108 32.604 66.0308 32.364C66.1508 32.148 66.2108 31.884 66.2108 31.572C66.2348 31.284 66.2468 30.984 66.2468 30.672V15.048C66.2468 14.736 66.2468 14.436 66.2468 14.148C66.2468 13.836 66.1868 13.572 66.0668 13.356C65.9708 13.116 65.7908 12.936 65.5268 12.816C65.2868 12.672 64.9148 12.6 64.4108 12.6C64.1948 12.6 63.9908 12.576 63.7988 12.528C63.6308 12.456 63.5468 12.24 63.5468 11.88C63.5468 11.736 63.5948 11.604 63.6908 11.484C63.7868 11.364 63.9308 11.28 64.1228 11.232C64.9388 11.112 65.6108 10.992 66.1388 10.872C66.6668 10.728 67.0988 10.608 67.4348 10.512C67.7708 10.392 68.0348 10.296 68.2268 10.224C68.4188 10.152 68.6108 10.104 68.8028 10.08C68.9948 10.056 69.1508 10.092 69.2708 10.188C69.4148 10.284 69.4868 10.476 69.4868 10.764V12.492H69.5948Z" fill="#E37435"/>
  <path d="M111.378 4.28398C111.642 4.28398 111.858 4.34398 112.026 4.46398C112.218 4.58398 112.314 4.81198 112.314 5.14798L112.458 10.224C112.458 10.464 112.35 10.644 112.134 10.764C111.942 10.884 111.75 10.944 111.558 10.944C111.294 10.944 111.03 10.896 110.766 10.8C110.526 10.68 110.382 10.512 110.334 10.296C110.214 9.47998 110.07 8.78398 109.902 8.20798C109.758 7.63198 109.554 7.15198 109.29 6.76798C109.05 6.38398 108.726 6.10798 108.318 5.93998C107.934 5.74798 107.43 5.63998 106.806 5.61598H104.358V22.788C104.358 23.124 104.37 23.46 104.394 23.796C104.442 24.132 104.538 24.432 104.682 24.696C104.826 24.96 105.054 25.176 105.366 25.344C105.678 25.488 106.122 25.56 106.698 25.56C106.938 25.56 107.142 25.584 107.31 25.632C107.478 25.68 107.574 25.908 107.598 26.316C107.598 26.508 107.55 26.688 107.454 26.856C107.358 27.024 107.19 27.108 106.95 27.108C106.182 27.06 105.45 27.024 104.754 27C104.082 27 103.398 27 102.702 27C101.238 27 99.7379 27.036 98.2019 27.108C97.9619 27.108 97.7939 27.024 97.6979 26.856C97.6019 26.688 97.5538 26.508 97.5538 26.316C97.5778 25.908 97.6619 25.68 97.8059 25.632C97.9739 25.584 98.1898 25.56 98.4538 25.56C99.0298 25.56 99.4739 25.488 99.7859 25.344C100.098 25.176 100.326 24.96 100.47 24.696C100.614 24.432 100.698 24.132 100.722 23.796C100.77 23.46 100.794 23.124 100.794 22.788V5.61598H98.3099C97.6859 5.63998 97.1698 5.74798 96.7618 5.93998C96.3778 6.10798 96.0538 6.38398 95.7898 6.76798C95.5498 7.15198 95.3579 7.63198 95.2139 8.20798C95.0699 8.78398 94.9378 9.47998 94.8178 10.296C94.7698 10.512 94.6139 10.68 94.3499 10.8C94.0859 10.896 93.8219 10.944 93.5579 10.944C93.3659 10.944 93.1738 10.884 92.9818 10.764C92.7898 10.644 92.6938 10.464 92.6938 10.224L92.8018 5.14798C92.8018 4.81198 92.8979 4.58398 93.0899 4.46398C93.2819 4.34398 93.5098 4.28398 93.7738 4.28398H111.378Z" fill="#E37435"/>
  <path d="M120.887 10.26C122.135 10.26 123.275 10.5 124.307 10.98C125.339 11.436 126.227 12.048 126.971 12.816C127.715 13.584 128.279 14.472 128.663 15.48C129.071 16.488 129.275 17.532 129.275 18.612C129.275 20.028 129.011 21.288 128.483 22.392C127.955 23.496 127.283 24.42 126.467 25.164C125.675 25.908 124.775 26.472 123.767 26.856C122.783 27.24 121.823 27.432 120.887 27.432C119.615 27.432 118.463 27.204 117.431 26.748C116.423 26.268 115.547 25.644 114.803 24.876C114.059 24.108 113.483 23.22 113.075 22.212C112.691 21.204 112.499 20.16 112.499 19.08C112.499 17.664 112.751 16.404 113.255 15.3C113.783 14.196 114.443 13.272 115.235 12.528C116.051 11.784 116.951 11.22 117.935 10.836C118.943 10.452 119.927 10.26 120.887 10.26ZM120.887 26.1C121.751 26.1 122.483 25.896 123.083 25.488C123.683 25.08 124.163 24.54 124.523 23.868C124.907 23.172 125.183 22.38 125.351 21.492C125.519 20.58 125.603 19.62 125.603 18.612C125.603 17.676 125.507 16.788 125.315 15.948C125.147 15.084 124.871 14.328 124.487 13.68C124.127 13.032 123.647 12.528 123.047 12.168C122.447 11.784 121.727 11.592 120.887 11.592C119.999 11.592 119.255 11.796 118.655 12.204C118.055 12.588 117.563 13.128 117.179 13.824C116.819 14.496 116.555 15.276 116.387 16.164C116.243 17.052 116.171 18 116.171 19.008C116.171 19.944 116.255 20.844 116.423 21.708C116.591 22.548 116.855 23.304 117.215 23.976C117.599 24.624 118.091 25.14 118.691 25.524C119.291 25.908 120.023 26.1 120.887 26.1Z" fill="#E37435"/>
  <path d="M140.694 23.076H140.802C140.97 22.572 141.15 21.972 141.342 21.276C141.558 20.556 141.774 19.8 141.99 19.008C142.23 18.216 142.458 17.4 142.674 16.56C142.914 15.72 143.13 14.928 143.322 14.184C143.538 13.44 143.73 12.768 143.898 12.168C144.066 11.544 144.198 11.052 144.294 10.692H146.022L150.954 23.076H151.062C151.302 22.332 151.542 21.516 151.782 20.628C152.022 19.716 152.25 18.828 152.466 17.964C152.682 17.1 152.886 16.284 153.078 15.516C153.27 14.724 153.438 14.052 153.582 13.5C153.726 12.852 153.702 12.432 153.51 12.24C153.318 12.048 152.886 11.952 152.214 11.952C151.998 11.952 151.818 11.94 151.674 11.916C151.53 11.868 151.446 11.664 151.422 11.304C151.422 11.16 151.458 11.004 151.53 10.836C151.602 10.668 151.734 10.584 151.926 10.584C152.622 10.632 153.222 10.668 153.726 10.692C154.254 10.692 154.83 10.692 155.454 10.692C155.766 10.692 156.03 10.692 156.246 10.692C156.486 10.692 156.702 10.692 156.894 10.692C157.11 10.668 157.338 10.656 157.578 10.656C157.818 10.632 158.118 10.608 158.478 10.584C158.67 10.584 158.802 10.668 158.874 10.836C158.97 11.004 159.018 11.16 159.018 11.304C158.994 11.664 158.898 11.868 158.73 11.916C158.586 11.94 158.418 11.952 158.226 11.952C157.362 11.952 156.678 12.096 156.174 12.384C155.694 12.672 155.346 13.236 155.13 14.076L151.134 27.36H149.01L144.438 15.588L140.874 27.36H138.75L134.142 14.58C133.95 14.148 133.758 13.776 133.566 13.464C133.398 13.152 133.206 12.9 132.99 12.708C132.798 12.492 132.57 12.336 132.306 12.24C132.066 12.12 131.766 12.036 131.406 11.988C131.094 11.94 130.878 11.904 130.758 11.88C130.662 11.832 130.602 11.64 130.578 11.304C130.554 10.896 130.662 10.68 130.902 10.656C131.166 10.608 131.478 10.572 131.838 10.548C133.302 10.476 134.454 10.692 135.294 11.196C136.134 11.7 136.83 12.552 137.382 13.752L140.694 23.076Z" fill="#E37435"/>
  <path d="M166.105 13.032H166.213C166.573 12.696 166.933 12.372 167.293 12.06C167.653 11.724 168.049 11.424 168.481 11.16C168.937 10.896 169.441 10.68 169.993 10.512C170.569 10.344 171.241 10.26 172.009 10.26C173.665 10.26 174.961 10.752 175.897 11.736C176.857 12.72 177.337 14.016 177.337 15.624V23.292C177.337 23.604 177.337 23.916 177.337 24.228C177.337 24.516 177.385 24.78 177.481 25.02C177.601 25.236 177.793 25.416 178.057 25.56C178.321 25.68 178.705 25.74 179.209 25.74C179.425 25.74 179.605 25.764 179.749 25.812C179.917 25.836 180.013 26.028 180.037 26.388C180.037 26.58 179.989 26.748 179.893 26.892C179.797 27.036 179.653 27.108 179.461 27.108C178.765 27.06 178.117 27.024 177.517 27C176.941 27 176.329 27 175.681 27C175.033 27 174.421 27 173.845 27C173.269 27.024 172.633 27.06 171.937 27.108C171.745 27.108 171.601 27.036 171.505 26.892C171.409 26.748 171.361 26.58 171.361 26.388C171.385 26.028 171.469 25.836 171.613 25.812C171.781 25.764 171.973 25.74 172.189 25.74C172.693 25.74 173.065 25.68 173.305 25.56C173.569 25.416 173.749 25.236 173.845 25.02C173.965 24.78 174.025 24.516 174.025 24.228C174.049 23.916 174.061 23.604 174.061 23.292V15.66C174.061 15.06 173.953 14.544 173.737 14.112C173.545 13.68 173.281 13.332 172.945 13.068C172.633 12.78 172.261 12.576 171.829 12.456C171.421 12.312 171.013 12.24 170.605 12.24C169.981 12.24 169.417 12.336 168.913 12.528C168.409 12.696 167.965 12.912 167.581 13.176C167.221 13.44 166.909 13.716 166.645 14.004C166.405 14.268 166.237 14.508 166.141 14.724V23.292C166.141 23.604 166.141 23.916 166.141 24.228C166.141 24.516 166.189 24.78 166.285 25.02C166.405 25.236 166.597 25.416 166.861 25.56C167.125 25.68 167.509 25.74 168.013 25.74C168.229 25.74 168.409 25.764 168.553 25.812C168.721 25.836 168.817 26.028 168.841 26.388C168.841 26.58 168.793 26.748 168.697 26.892C168.601 27.036 168.457 27.108 168.265 27.108C167.569 27.06 166.921 27.024 166.321 27C165.745 27 165.133 27 164.485 27C163.837 27 163.225 27 162.649 27C162.073 27.024 161.437 27.06 160.741 27.108C160.549 27.108 160.405 27.036 160.309 26.892C160.213 26.748 160.165 26.58 160.165 26.388C160.213 26.028 160.309 25.836 160.453 25.812C160.597 25.764 160.789 25.74 161.029 25.74C161.533 25.74 161.905 25.68 162.145 25.56C162.409 25.416 162.589 25.236 162.685 25.02C162.805 24.78 162.865 24.516 162.865 24.228C162.865 23.916 162.865 23.604 162.865 23.292V15.048C162.865 14.736 162.865 14.436 162.865 14.148C162.865 13.836 162.805 13.572 162.685 13.356C162.589 13.116 162.409 12.936 162.145 12.816C161.905 12.672 161.533 12.6 161.029 12.6C160.813 12.6 160.609 12.576 160.417 12.528C160.249 12.456 160.165 12.24 160.165 11.88C160.165 11.736 160.213 11.604 160.309 11.484C160.405 11.364 160.549 11.28 160.741 11.232C161.557 11.112 162.229 10.992 162.757 10.872C163.285 10.728 163.717 10.608 164.053 10.512C164.389 10.392 164.653 10.296 164.845 10.224C165.037 10.152 165.229 10.104 165.421 10.08C165.613 10.056 165.769 10.092 165.889 10.188C166.033 10.284 166.105 10.476 166.105 10.764V13.032Z" fill="#E37435"/>
</svg>
