<?xml version="1.0" encoding="UTF-8"?>
<svg width="1061px" height="807px" viewBox="0 0 1061 807" version="1.1" xmlns="http://www.w3.org/2000/svg" xmlns:xlink="http://www.w3.org/1999/xlink">
    <!-- Generator: Sketch Beta 60.1 (88133) - https://sketch.com -->
    <title>Nugget</title>
    <desc>Created with Sketch Beta.</desc>
    <g id="Page-1" stroke="none" stroke-width="1" fill="none" fill-rule="evenodd">
        <g id="Artboard" transform="translate(-40.000000, -3034.000000)" fill="#FFD100" fill-rule="nonzero">
            <path d="M1098.2,3637.79 C1091.06,3682.64 1065.96,3723.6 1031.03,3752.57 C1028.61,3754.48 1026.16,3756.38 1023.7,3758.28 C1023.7,3758.28 1023.57,3758.28 1023.51,3758.4 C999.27,3776.83 970.84,3788.96 940.76,3793.7 C885.57,3801.94 829.836,3785.33 774.082,3782.44 C674.162,3777.23 577.876,3815.79 479.44,3833.44 C381.004,3851.1 265.081,3841.05 202.762,3762.94 C202.389,3762.51 202.04,3762.06 201.715,3761.59 C181.963,3736.31 169.462,3706.23 153.896,3678.08 C151.194,3673.15 148.435,3668.36 145.542,3663.62 C117.856,3618.78 77.172,3582.05 56.107,3533.82 C35.049,3485.18 35.776,3429.86 58.105,3381.78 C78.047,3339.59 113.117,3306.74 147.312,3275 C149.538,3272.97 151.689,3270.93 153.896,3268.9 C183.264,3241.65 212.657,3214.39 242.075,3187.1 C258.25,3172.16 274.424,3157.09 291.227,3142.81 C313.509,3123.82 336.629,3105.94 361.9,3091.16 C423.363,3054.86 481.781,3058.99 548.572,3047.67 C625.715,3034.56 704.722,3023.13 779.791,3052.84 C823.557,3070.12 861.18,3099.7 898.09,3128.81 C904.07,3133.54 910.04,3138.2 916,3142.94 C949.77,3169.57 983.44,3196.21 1016.72,3223.47 C1023.99,3229.42 1031.31,3235.53 1038.13,3242.04 C1048.72,3252.14 1058.12,3263.27 1064.16,3276.49 C1071.43,3292.3 1073.27,3309.95 1075.04,3327.22 C1077.51,3351.54 1079.98,3375.79 1082.42,3399.99 C1083.91,3414.39 1085.32,3428.79 1086.8,3443.12 C1090.14,3475.77 1093.46,3508.39 1096.77,3540.97 C1099.99,3573.2 1103.26,3605.81 1098.2,3637.79 Z" id="Nugget"></path>
        </g>
    </g>
</svg>