<svg width="100" height="100" viewBox="0 0 100 100" fill="none" xmlns="http://www.w3.org/2000/svg">
<g clip-path="url(#clip0_14_11)">
<path d="M50 56.5624C54.144 56.5624 58.1183 54.9162 61.0485 51.9859C63.9788 49.0557 65.625 45.0814 65.625 40.9374C65.625 36.7934 63.9788 32.8191 61.0485 29.8888C58.1183 26.9586 54.144 25.3124 50 25.3124C45.856 25.3124 41.8817 26.9586 38.9515 29.8888C36.0212 32.8191 34.375 36.7934 34.375 40.9374C34.375 45.0814 36.0212 49.0557 38.9515 51.9859C41.8817 54.9162 45.856 56.5624 50 56.5624Z" fill="#5F6368"/>
<path d="M12.5 12.5C9.18479 12.5 6.00537 13.817 3.66117 16.1612C1.31696 18.5054 0 21.6848 0 25L0 75C0 78.3152 1.31696 81.4946 3.66117 83.8388C6.00537 86.183 9.18479 87.5 12.5 87.5H87.5C90.8152 87.5 93.9946 86.183 96.3388 83.8388C98.683 81.4946 100 78.3152 100 75V25C100 21.6848 98.683 18.5054 96.3388 16.1612C93.9946 13.817 90.8152 12.5 87.5 12.5H12.5ZM79.9875 81.25C77.1562 73.3125 68.9875 62.5 50 62.5C31.0188 62.5 22.8438 73.3125 20.0125 81.25H12.5C10.8424 81.25 9.25268 80.5915 8.08058 79.4194C6.90848 78.2473 6.25 76.6576 6.25 75V25C6.25 23.3424 6.90848 21.7527 8.08058 20.5806C9.25268 19.4085 10.8424 18.75 12.5 18.75H87.5C89.1576 18.75 90.7473 19.4085 91.9194 20.5806C93.0915 21.7527 93.75 23.3424 93.75 25V75C93.75 76.6576 93.0915 78.2473 91.9194 79.4194C90.7473 80.5915 89.1576 81.25 87.5 81.25H79.9875Z" fill="#5F6368"/>
</g>
<defs>
<clipPath id="clip0_14_11">
<rect width="100" height="100" fill="white"/>
</clipPath>
</defs>
</svg>
