<svg width="24" height="24" viewBox="0 0 24 24" fill="none" xmlns="http://www.w3.org/2000/svg">
<path d="M15.5926 3.02719C14.6805 2.04234 13.4064 1.5 12.0001 1.5C10.5864 1.5 9.30812 2.03906 8.40015 3.01781C7.48233 4.00734 7.03515 5.35219 7.14015 6.80437C7.34827 9.66937 9.52843 12 12.0001 12C14.4719 12 16.6483 9.66984 16.8597 6.80531C16.9661 5.36625 16.5161 4.02422 15.5926 3.02719Z" fill="#B52184"/>
<path d="M20.2501 22.5H3.75015C3.53418 22.5028 3.3203 22.4574 3.12407 22.3672C2.92784 22.2769 2.75419 22.1441 2.61577 21.9783C2.31108 21.6141 2.18827 21.1167 2.27921 20.6137C2.67483 18.4191 3.90952 16.5755 5.85015 15.2812C7.57421 14.1323 9.75811 13.5 12.0001 13.5C14.2422 13.5 16.4261 14.1328 18.1501 15.2812C20.0908 16.575 21.3255 18.4186 21.7211 20.6133C21.812 21.1162 21.6892 21.6136 21.3845 21.9778C21.2461 22.1437 21.0725 22.2766 20.8763 22.367C20.6801 22.4573 20.4662 22.5028 20.2501 22.5Z" fill="#B52184"/>
</svg>
