<?xml version="1.0" encoding="UTF-8"?>
<svg width="15px" height="14px" viewBox="0 0 15 14" version="1.1" xmlns="http://www.w3.org/2000/svg" xmlns:xlink="http://www.w3.org/1999/xlink">
    <!-- Generator: Sketch Beta 60.1 (88133) - https://sketch.com -->
    <title>phone-audio 1</title>
    <desc>Created with Sketch Beta.</desc>
    <g id="Page-1" stroke="none" stroke-width="1" fill="none" fill-rule="evenodd">
        <g id="Artboard" transform="translate(-1011.000000, -24.000000)" fill="#000000" fill-rule="nonzero">
            <g id="Nav" transform="translate(-150.000000, 0.000000)">
                <g id="Element/Button/Small/Filled_2" transform="translate(1115.000000, 18.000000)">
                    <g id="phone-audio-1" transform="translate(46.000000, 6.000000)">
                        <path d="M7.27,6.4284 C7.56,6.4458 7.79,6.6767 7.81,6.9665 C7.82,7.1132 7.88,7.251 7.99,7.3519 C8.1,7.4527 8.24,7.509 8.39,7.5091 C8.4,7.5091 8.41,7.5091 8.42,7.508 C8.5,7.5035 8.57,7.4841 8.64,7.451 C8.71,7.4179 8.77,7.3716 8.82,7.3149 C8.87,7.2582 8.91,7.1921 8.93,7.1204 C8.96,7.0488 8.97,6.9729 8.96,6.8972 C8.94,6.4754 8.76,6.0775 8.46,5.7788 C8.16,5.4801 7.76,5.3013 7.34,5.2762 C7.26,5.2713 7.19,5.2815 7.12,5.3062 C7.05,5.3309 6.98,5.3695 6.92,5.4198 C6.87,5.4702 6.82,5.5313 6.79,5.5995 C6.75,5.6678 6.73,5.742 6.73,5.8177 C6.73,5.8934 6.74,5.9692 6.76,6.0409 C6.79,6.1125 6.82,6.1786 6.87,6.2353 C6.92,6.2921 6.99,6.3383 7.05,6.3715 C7.12,6.4046 7.2,6.424 7.27,6.4284 L7.27,6.4284 Z M13.12,9.8564 C11.68,8.4218 11.14,8.4998 9.28,9.4892 C8.14,10.0908 7.72,9.82 6.07,8.1701 C4.42,6.5191 4.15,6.0965 4.75,4.961 C5.74,3.0929 5.82,2.5572 4.38,1.122 C3.57,0.3069 3.3,0.0725 2.73,0.0725 C2.31,0.0725 1.86,0.3473 1.19,1.0216 C0.13,2.0844 0.04,2.9971 0.84,4.778 C1.48,6.1895 2.45,8.0501 4.32,9.9182 C6.19,11.7863 8.05,12.7567 9.46,13.3923 C10.92,14.0475 11.97,14.2853 13.21,13.0459 C13.89,12.3734 14.16,11.9265 14.16,11.5074 C14.16,10.9325 13.93,10.6721 13.12,9.8564 Z M7.77,4.1632 C8.34,4.2714 8.86,4.5495 9.28,4.9612 C9.69,5.3729 9.97,5.8991 10.08,6.4712 C10.09,6.5457 10.12,6.6168 10.16,6.6804 C10.2,6.744 10.25,6.7989 10.32,6.8419 C10.38,6.8848 10.45,6.9151 10.52,6.9309 C10.6,6.9466 10.67,6.9477 10.75,6.9339 C10.82,6.9201 10.89,6.8917 10.96,6.8504 C11.02,6.8092 11.08,6.7558 11.12,6.6933 C11.16,6.6308 11.19,6.5605 11.21,6.4863 C11.22,6.4121 11.22,6.3356 11.21,6.261 C11.06,5.4596 10.67,4.7225 10.09,4.1458 C9.52,3.569 8.78,3.1794 7.98,3.0276 C7.83,3.0059 7.68,3.0424 7.56,3.1293 C7.44,3.2163 7.35,3.347 7.33,3.494 C7.3,3.6409 7.33,3.7928 7.41,3.9176 C7.49,4.0423 7.62,4.1304 7.77,4.1632 Z M7.87,1.2369 C7.88,1.1627 7.91,1.0923 7.96,1.0297 C8,0.9671 8.05,0.9135 8.12,0.8721 C8.18,0.8306 8.25,0.8021 8.32,0.7881 C8.4,0.7742 8.48,0.775 8.55,0.7907 C9.75,1.0441 10.86,1.6417 11.73,2.5109 C12.6,3.38 13.2,4.4833 13.45,5.6866 C13.49,5.8364 13.46,5.9927 13.37,6.1211 C13.29,6.2495 13.16,6.3395 13.01,6.3713 C12.86,6.4031 12.7,6.374 12.57,6.2906 C12.45,6.2071 12.36,6.076 12.32,5.9262 C12.11,4.9419 11.62,4.0393 10.91,3.3282 C10.2,2.6171 9.3,2.128 8.31,1.9204 C8.16,1.8889 8.03,1.7992 7.95,1.6711 C7.86,1.5429 7.84,1.3867 7.87,1.2369 Z" id="Vector_805"></path>
                    </g>
                </g>
            </g>
        </g>
    </g>
</svg>