<?xml version="1.0" encoding="UTF-8"?>
<svg width="1840px" height="833px" viewBox="0 0 1840 833" version="1.1" xmlns="http://www.w3.org/2000/svg" xmlns:xlink="http://www.w3.org/1999/xlink">
    <!-- Generator: Sketch 54.1 (76490) - https://sketchapp.com -->
    <title>portfolio 1 - wide</title>
    <desc>Created with Sketch.</desc>
    <defs>
        <rect id="path-1" x="0" y="0" width="1840" height="833"></rect>
        <linearGradient x1="-2.22044605e-14%" y1="50%" x2="100%" y2="50%" id="linearGradient-3">
            <stop stop-color="#373737" offset="0%"></stop>
            <stop stop-color="#494949" offset="100%"></stop>
        </linearGradient>
        <linearGradient x1="50%" y1="100%" x2="50%" y2="-2.48949813e-15%" id="linearGradient-4">
            <stop stop-color="#393939" offset="0%"></stop>
            <stop stop-color="#303030" offset="100%"></stop>
        </linearGradient>
        <linearGradient x1="50%" y1="-2.48949813e-15%" x2="50%" y2="100%" id="linearGradient-5">
            <stop stop-color="#565656" offset="0%"></stop>
            <stop stop-color="#7A7A7A" offset="100%"></stop>
        </linearGradient>
    </defs>
    <g id="Illustrations-Dark-V2" stroke="none" stroke-width="1" fill="none" fill-rule="evenodd">
        <g id="portfolio-1---wide">
            <mask id="mask-2" fill="white">
                <use xlink:href="#path-1"></use>
            </mask>
            <use id="Shape" fill="#000000" xlink:href="#path-1"></use>
            <path d="M-841.347634,833 C-564.649577,833 -413.391991,412 -126.275243,412 C160.841506,412 340.944229,833 592.557062,833 C844.169895,833 -1016.47062,833 -841.347634,833 Z" id="Shape" fill="url(#linearGradient-3)" opacity="0.519999981" mask="url(#mask-2)"></path>
            <path d="M1235.65237,421 C1512.35042,421 1663.60801,2.61911819e-14 1950.72476,0 C2237.84151,0 2417.94423,421 2669.55706,421 C2921.1699,421 1060.52938,421 1235.65237,421 Z" id="Shape" fill="url(#linearGradient-3)" opacity="0.519999981" mask="url(#mask-2)" transform="translate(1958.500000, 210.500000) scale(1, -1) translate(-1958.500000, -210.500000) "></path>
            <rect id="Shape" fill="url(#linearGradient-4)" mask="url(#mask-2)" x="865" y="239" width="500" height="895" rx="6.80000019"></rect>
            <rect id="Shape" fill="url(#linearGradient-5)" opacity="0.800000012" mask="url(#mask-2)" x="475" y="119" width="500" height="895" rx="6.80000019"></rect>
        </g>
    </g>
</svg>