<svg width="20" height="20" viewBox="0 0 20 20" fill="none" xmlns="http://www.w3.org/2000/svg">
<path fill-rule="evenodd" clip-rule="evenodd" d="M4 0C1.79086 0 0 1.79086 0 4V9.64286H11.0714V9.28571C11.0714 7.905 12.1907 6.78571 13.5714 6.78571H16.0714C17.4521 6.78571 18.5714 7.905 18.5714 9.28571V9.64286H20V4C20 1.79086 18.2091 0 16 0H4Z" fill="white"/>
<path d="M2.14288 9.64285H8.21431V10.5C8.21431 11.6046 7.31888 12.5 6.21431 12.5H4.14288C3.03831 12.5 2.14288 11.6046 2.14288 10.5V9.64285Z" fill="white"/>
<path d="M17.8571 10.3571H11.7857V9.50001C11.7857 8.39544 12.6811 7.5 13.7857 7.5H15.8571C16.9617 7.5 17.8571 8.39543 17.8571 9.5V10.3571Z" fill="white"/>
<path fill-rule="evenodd" clip-rule="evenodd" d="M1.42857 10.3571H0V16C0 18.2091 1.79086 20 4 20H16C18.2091 20 20 18.2091 20 16V10.3571H8.92857V10.7143C8.92857 12.095 7.80928 13.2143 6.42857 13.2143H3.92857C2.54786 13.2143 1.42857 12.095 1.42857 10.7143V10.3571Z" fill="white"/>
</svg>
