<?xml version="1.0" encoding="UTF-8"?>
<svg enable-background="new 0 0 268 149.1" version="1.1" viewBox="0 0 268 149.1" xmlns="http://www.w3.org/2000/svg">
 <style type="text/css">.st0{fill:#999999;} .st1{fill:#666666;} .st2{fill:#333333;} .st3{fill:#4D4D4D;} .st4{fill:#FFFFFF;fill-opacity:0.205;} .st5{fill:#555555;} .st6{fill:#B3B3B3;} .st7{fill:#E6E6E6;} .st8{fill:#B0BEC5;} .st9{fill:#CCCCCC;} .st10{fill:#0275D8;}</style>
 <g transform="translate(90 -440.52) scale(1.7)">
  <g transform="translate(154.78 -367.24)">
   <g transform="matrix(.54529 0 0 .54529 -1613.7 -23.611)">
    <path class="st0" d="m2671.2 1289.2l32 0.7 2.6 25h-37.4l2.8-25.7z"/>
    <path class="st1" d="m2671.2 1289.2l-0.8 7.8h33.6l-0.7-7.1-32.1-0.7z"/>
    <path class="st0" d="m2621.4 1295.2h131.5c3.6 0 6.6-2.9 6.6-6.6v-81.8c0-3.6-2.9-6.6-6.6-6.6h-131.5c-3.6 0-6.6 2.9-6.6 6.6v81.8c0 3.6 2.9 6.6 6.6 6.6z"/>
    <path class="st2" d="m2614.7 1198.1v83.8h144.8v-83.8h-144.8zm3.5 4.4h137.3l-18.4 69-102.9-6.9-16-62.1z"/>
    <path class="st2" d="m2622.2 1192h129.8c4.1 0 7.5 3.4 7.5 7.5v24.9c0 4.1-3.4 7.5-7.5 7.5h-129.8c-4.1 0-7.5-3.4-7.5-7.5v-24.9c0-4.2 3.4-7.5 7.5-7.5z"/>
    <path class="st2" d="m2658.7 1311.1h56.8c0.6 0 1.1 0.5 1.1 1.1v1.6c0 0.6-0.5 1.1-1.1 1.1h-56.8c-0.6 0-1.1-0.5-1.1-1.1v-1.6c0-0.6 0.5-1.1 1.1-1.1z"/>
    <circle class="st2" cx="2687.1" cy="1288.7" r="3.7"/>
    <rect class="st3" x="2620.6" y="1198.3" width="133" height="76.7"/>
    <rect class="st1" x="2621.6" y="1199.3" width="132" height="74.6"/>
    <path class="st4" d="m2687.2 1192l43.2 89.9h29.1v-83.8h-0.1c-0.6-3.5-3.7-6.1-7.4-6.1h-64.8z"/>
   </g>
  </g>
  <g transform="matrix(.47918 0 0 .47918 -805.17 -263.31)">
   <path class="st0" d="m1750.1 1158.3h130.3c2.3 0 4.2 1.9 4.2 4.2v77c0 2.3-1.9 4.2-4.2 4.2h-130.3c-2.3 0-4.2-1.9-4.2-4.2v-77c0.1-2.3 1.9-4.2 4.2-4.2z"/>
   <rect class="st2" x="1746" y="1240.1" width="138.7" height=".8"/>
   <path class="st5" d="m1732.2 1240.8c-0.8 1.4-0.4 2.1 0 2.9 0.9 1.7 16.9 3.4 19.9 3.4h126.5c2.9 0 18.9-1.8 19.9-3.4 0.7-1.1 0.3-2 0-2.9h-166.3z"/>
   <rect class="st6" x="1750.9" y="1162.9" width="128.8" height="71.8"/>
   <path class="st7" d="m1798.9 1240.9v1.2c0 0.8 0.5 1.4 1 1.4h30.9c0.6 0 1-0.6 1-1.4v-1.2h-32.9z"/>
   <path class="st1" d="m1732.4 1244c1.8 1.7 5.7 3.1 8.4 3.1h150.5c2.7 0 5.2-1.4 7-3.1h-165.9z"/>
   <path class="st8" d="m1815 1160.1h0.6c0.3 0 0.6 0.3 0.6 0.6v0.2c0 0.3-0.3 0.6-0.6 0.6h-0.6c-0.3 0-0.6-0.3-0.6-0.6v-0.2c0-0.3 0.3-0.6 0.6-0.6z"/>
   <rect class="st9" x="1751.3" y="1163.3" width="128.4" height="71.3"/>
   <path class="st4" d="m1822.7 1158.3l41 85.4h16.8c2.3 0 4.2-1.9 4.2-4.2v-77c0-2.3-1.9-4.2-4.2-4.2h-57.8z"/>
  </g>
  <g transform="matrix(.54529 0 0 .54529 -1415.7 -365.04)">
   <path class="st1" d="m2503 1202.2h48.6c2.1 0 3.9 1.7 3.9 3.9v76.8c0 2.1-1.7 3.9-3.9 3.9h-48.6c-2.1 0-3.9-1.7-3.9-3.9v-76.8c0-2.1 1.8-3.9 3.9-3.9z"/>
   <rect class="st9" x="2503.5" y="1208.2" width="47.6" height="71.1"/>
   <path class="st6" d="m2517 1204.5h0.4c0.3 0 0.6 0.3 0.6 0.6v0.2c0 0.3-0.3 0.6-0.6 0.6h-0.4c-0.3 0-0.6-0.3-0.6-0.6v-0.2c0-0.3 0.3-0.6 0.6-0.6z"/>
   <path class="st6" d="m2521.4 1204.6h11.6c0.1 0 0.2 0.1 0.2 0.2v0.7c0 0.1-0.1 0.2-0.2 0.2h-11.6c-0.1 0-0.2-0.1-0.2-0.2v-0.7c0-0.1 0.1-0.2 0.2-0.2z"/>
   <path class="st6" d="m2527.3 1280.8c-1.3 0-2.4 1.1-2.4 2.4s1.1 2.4 2.4 2.4 2.4-1.1 2.4-2.4-1.1-2.4-2.4-2.4zm0 0.7c0.9 0 1.7 0.8 1.7 1.7s-0.8 1.7-1.7 1.7-1.7-0.8-1.7-1.7 0.7-1.7 1.7-1.7z"/>
   <rect class="st9" x="2503.8" y="1208.5" width="47.3" height="70.8"/>
   <path class="st4" d="m2507.7 1202.2l40.6 84.6h3.3c2.1 0 3.9-1.7 3.9-3.9v-76.8c0-2.1-1.7-3.9-3.9-3.9h-43.9z"/>
  </g>
  <g transform="matrix(.54529 0 0 .54529 -1674.3 -334.74)">
   <path class="st10" d="m3019.4 1196.3h25c1.4 0 2.5 1.1 2.5 2.5v48.6c0 1.4-1.1 2.5-2.5 2.5h-25c-1.4 0-2.5-1.1-2.5-2.5v-48.6c0-1.4 1.1-2.5 2.5-2.5z"/>
   <rect class="st9" x="3017.9" y="1201.2" width="28.2" height="42.8"/>
   <path class="st6" d="m3026.5 1198h0.1c0.2 0 0.4 0.2 0.4 0.4v0.1c0 0.2-0.2 0.4-0.4 0.4h-0.1c-0.2 0-0.4-0.2-0.4-0.4v-0.1c0.1-0.3 0.2-0.4 0.4-0.4z"/>
   <path class="st6" d="m3028.8 1198h6.1c0.1 0 0.2 0.1 0.2 0.2v0.4c0 0.1-0.1 0.2-0.2 0.2h-6.1c-0.1 0-0.2-0.1-0.2-0.2v-0.4c0.1-0.1 0.1-0.2 0.2-0.2z"/>
   <path class="st6" d="m3031.9 1245.2c-1.1 0-2 0.9-2 2s0.9 2 2 2 2-0.9 2-2-0.9-2-2-2zm0 0.5c0.8 0 1.4 0.6 1.4 1.4s-0.6 1.4-1.4 1.4-1.4-0.6-1.4-1.4c0-0.7 0.6-1.4 1.4-1.4z"/>
   <rect class="st6" x="3018.5" y="1201.7" width="27.6" height="42.3"/>
   <path class="st4" d="m3024.5 1196.3l22.3 46.5v-44.1c0-1.4-1.1-2.5-2.5-2.5l-19.8 0.1z"/>
  </g>
 </g>
</svg>
