<?xml version="1.0" encoding="UTF-8"?>
<svg width="30px" height="45px" viewBox="0 0 30 45" version="1.1" xmlns="http://www.w3.org/2000/svg" xmlns:xlink="http://www.w3.org/1999/xlink">
    <!-- Generator: Sketch Beta 60.1 (88133) - https://sketch.com -->
    <title>Path</title>
    <desc>Created with Sketch Beta.</desc>
    <g id="Page-1" stroke="none" stroke-width="1" fill="none" fill-rule="evenodd">
        <g id="Artboard" transform="translate(-555.000000, -3956.000000)" fill="#FFFFFF">
            <g id="footer" transform="translate(15.000000, 3956.000000)">
                <path d="M556.004937,0.0216798284 C557.308787,0.0793427199 558.587967,0.235913414 559.801568,0.551011652 C560.63792,0.76585136 561.625705,1.08580184 562.791071,1.62307312 L563.146035,1.79088634 C564.467293,2.43092964 565.39216,2.75094649 565.920664,2.75094649 C566.429593,2.75094649 566.830858,2.59339973 567.124471,2.27830149 C567.418084,1.96320325 567.692119,1.20500949 567.946583,0.00369745719 L568.827418,0.00369745719 L569.150391,13.3559186 L567.946583,13.3559186 C567.378931,10.0079998 565.984291,7.31493491 563.762619,5.27664318 C563.130941,4.69710515 562.484629,4.19995704 561.823682,3.78519814 C560.388863,2.88481863 557.728858,1.65988596 555.837983,1.33992435 L555.458952,1.28710709 C555.199651,1.25502226 554.886384,1.22166987 554.655394,1.20356122 L554.402964,1.18906332 C554.186568,1.18075031 553.971963,1.18075031 553.885796,1.18075031 C552.02878,1.18075031 550.385346,1.68519649 548.955443,2.69410398 C547.525541,3.70301147 546.810601,5.2256916 546.810601,7.26219005 C546.810601,9.2986885 547.581251,10.858735 549.122574,11.9423764 C550.573231,12.9622742 552.599598,13.8580339 555.20173,14.6296792 L556.567682,15.023194 C558.962919,15.7226579 560.733747,16.339851 561.88021,16.8747883 C563.161551,17.4726594 564.377878,18.2573535 565.529228,19.228894 C567.831927,21.1719751 568.98326,24.179969 568.98326,28.2529659 L568.98326,30.5859375 L568.825609,30.524 L543.481382,41.6054945 L541.117247,45 L540.849609,45 L540.849609,35.8884327 L541.117247,35.8884327 L543.475115,39.5571482 L566.807609,29.74 L543.74654,20.7769233 L541.117018,25.2609341 L540.849609,25.2609341 L540.849609,13.3996799 C540.849609,9.36404996 542.103076,6.12251619 544.610048,3.67498135 C546.977829,1.36333724 550.049591,0.14335862 553.825419,0.0150145714 L554.670729,0.00244882209 L554.670729,0.00244882209 C555.123555,-0.00404125358 555.568291,0.00236908184 556.004937,0.0216798284 Z" id="Path"></path>
            </g>
        </g>
    </g>
</svg>