<?xml version="1.0" encoding="UTF-8"?>
<svg width="29px" height="46px" viewBox="0 0 29 46" version="1.1" xmlns="http://www.w3.org/2000/svg" xmlns:xlink="http://www.w3.org/1999/xlink">
    <!-- Generator: Sketch Beta 60.1 (88133) - https://sketch.com -->
    <title>Path</title>
    <desc>Created with Sketch Beta.</desc>
    <g id="Page-1" stroke="none" stroke-width="1" fill="none" fill-rule="evenodd">
        <g id="Artboard" transform="translate(-15.000000, -7.000000)" fill="#FFFFFF">
            <g id="Nav" transform="translate(-150.000000, 0.000000)">
                <path d="M180.155328,7.52167983 C181.459177,7.57934272 182.738358,7.73591341 183.951958,8.05101165 C184.788311,8.26585136 185.776095,8.58580184 186.941462,9.12307312 L187.296425,9.29088634 C188.617684,9.93092964 189.542551,10.2509465 190.071054,10.2509465 C190.579984,10.2509465 190.981249,10.0933997 191.274862,9.77830149 C191.568475,9.46320325 191.842509,8.70500949 192.096974,7.50369746 L192.977809,7.50369746 L193.300781,20.8559186 L192.096974,20.8559186 C191.529322,17.5079998 190.134681,14.8149349 187.913009,12.7766432 C187.281332,12.1971052 186.63502,11.699957 185.974072,11.2851981 C184.539253,10.3848186 181.879248,9.15988596 179.988373,8.83992435 L179.609343,8.78710709 C179.350042,8.75502226 179.036774,8.72166987 178.805785,8.70356122 L178.553354,8.68906332 C178.336958,8.68075031 178.122354,8.68075031 178.036187,8.68075031 C176.179171,8.68075031 174.535736,9.18519649 173.105834,10.194104 C171.675932,11.2030115 170.960991,12.7256916 170.960991,14.76219 C170.960991,16.7986885 171.731641,18.358735 173.272965,19.4423764 C174.723622,20.4622742 176.749989,21.3580339 179.352121,22.1296792 L180.718073,22.523194 C183.11331,23.2226579 184.884137,23.839851 186.0306,24.3747883 C187.311941,24.9726594 188.528268,25.7573535 189.679618,26.728894 C191.982318,28.6719751 193.133651,31.679969 193.133651,35.7529659 L193.133651,38.0859375 L192.976,38.024 L167.631773,49.1054945 L165.267638,52.5 L165,52.5 L165,43.3884327 L165.267638,43.3884327 L167.625506,47.0571482 L190.958,37.24 L167.89693,28.2769233 L165.267409,32.7609341 L165,32.7609341 L165,20.8996799 C165,16.86405 166.253467,13.6225162 168.760438,11.1749814 C171.128219,8.86333724 174.199982,7.64335862 177.97581,7.51501457 L178.82112,7.50244882 L178.82112,7.50244882 C179.273945,7.49595875 179.718681,7.50236908 180.155328,7.52167983 Z" id="Path"></path>
            </g>
        </g>
    </g>
</svg>