<?xml version="1.0" encoding="utf-8"?>
<!-- Generator: Adobe Illustrator 21.0.2, SVG Export Plug-In . SVG Version: 6.00 Build 0)  -->
<svg version="1.1" id="Layer_1" xmlns="http://www.w3.org/2000/svg" xmlns:xlink="http://www.w3.org/1999/xlink" x="0px" y="0px"
	 viewBox="0 0 173 241" style="enable-background:new 0 0 173 241;" xml:space="preserve">
<style type="text/css">
	.st0{fill:#00C853;}
	.st1{fill:#EF6C00;}
	.st2{fill:#FFFFFF;}
	.st3{fill:none;stroke:#00C853;stroke-width:7;}
	.st4{fill:none;stroke:#00C853;stroke-width:3;}
	.st5{fill:none;stroke:#B71C1C;stroke-width:7;}
	.st6{fill:none;stroke:#B71C1C;stroke-width:5;}
	.st7{fill:none;stroke:#B71C1C;stroke-width:3;}
	.st8{fill:none;stroke:#FFC400;stroke-width:7;}
	.st9{fill:none;stroke:#FFC400;stroke-width:5;}
	.st10{fill:none;stroke:#FFC400;stroke-width:3;}
	.st11{fill:#FBFBFB;}
</style>
<g>
	<path class="st0" d="M94.3,50c-0.4-0.1-0.8,0.2-1.1,0.5c-0.3,0.3-0.6,0.7-0.8,1c-0.5,0.7-0.7,1.6-0.9,2.4c-0.1,0.6-1.3,2.2,0.2,1.2
		c0.5-0.3,1.1,0.3,1.6,0.4c0.6,0.1,1.1,0.2,1.7,0.1c1.3-0.2,1.9-1,2.5-2.1c0.5-1,1.2-2.2,1.3-3.3c0-0.1,0.2-0.3,0-0.4
		c-0.2,0-0.4-0.1-0.6-0.1c-0.3,0-0.7,0-1,0.1c-0.6,0.2-1.3,0.3-1.7,0.7c-0.2,0.1-1.4,1.6-1.6,1.1c-0.1-0.2,0.2-0.7,0.3-0.8
		C94.2,50.5,94.5,50.1,94.3,50z"/>
	<path class="st0" d="M41.7,44.8c-0.4,0.3-0.7-1.6-0.8-1.8c-0.2-0.6-0.7-1-1.1-1.5c-0.2-0.2-0.5-0.4-0.8-0.6
		c-0.2-0.1-0.3-0.1-0.5-0.2c-0.2,0-0.2,0.2-0.2,0.3c-0.5,1-0.6,2.4-0.6,3.5c-0.1,1.2,0,2.3,1,3.1c0.4,0.4,0.9,0.6,1.5,0.8
		c0.5,0.2,1.3,0,1.6,0.5c0.8,1.6,0.6-0.4,0.8-0.9c0.3-0.8,0.5-1.7,0.4-2.5c0-0.4,0-0.9-0.2-1.3c-0.1-0.3-0.3-0.9-0.7-1
		c-0.2,0-0.2,0.5-0.2,0.7C41.8,44.1,41.9,44.7,41.7,44.8z"/>
	<path class="st0" d="M43.7,61.1c0.6,0.6,1.3,1.1,2.1,1.5c0.8,0.4,2.1,0.3,2.3,1.1c0.9,2.7,1-0.5,1.4-1.3c0.6-1.2,1.1-2.5,1.2-3.8
		c0.1-0.6,0.2-1.4,0-2.1c-0.1-0.5-0.4-1.4-0.9-1.6c-0.3,0-0.5,0.8-0.5,1c-0.1,0.3,0,1.2-0.4,1.3c-0.6,0.4-0.8-2.6-0.8-2.9
		c-0.2-1-0.9-1.7-1.5-2.5c-0.3-0.4-0.7-0.8-1.1-1c-0.2-0.2-0.5-0.3-0.7-0.5c-0.3-0.1-0.3,0.3-0.4,0.4c-1,1.5-1.3,3.5-1.7,5.2
		C42.3,58,42.3,59.6,43.7,61.1z"/>
	<path class="st0" d="M75.9,38.9c-0.3,0-0.5,0.8-0.5,1c-0.1,0.3,0,1.2-0.4,1.3c-0.6,0.4-0.8-2.6-0.8-2.9c-0.2-1-0.9-1.7-1.5-2.5
		c-0.3-0.4-0.7-0.8-1.1-1c-0.2-0.2-0.5-0.3-0.7-0.5c-0.3-0.1-0.3,0.3-0.4,0.4c-1,1.5-1.3,3.5-1.7,5.2c-0.4,1.9-0.4,3.5,0.9,5
		c0.6,0.6,1.3,1.1,2.1,1.5c0.8,0.4,2.1,0.3,2.3,1.1c0.9,2.7,1-0.5,1.4-1.3c0.6-1.2,1.1-2.5,1.2-3.8c0.1-0.6,0.2-1.4,0-2.1
		C76.7,40,76.5,39.1,75.9,38.9z"/>
	<path class="st0" d="M118.3,33.7c-0.2-1-0.9-1.7-1.5-2.5c-0.3-0.4-0.7-0.8-1.1-1c-0.2-0.2-0.5-0.3-0.7-0.5
		c-0.3-0.1-0.3,0.3-0.4,0.4c-1,1.5-1.3,3.5-1.7,5.2c-0.4,1.9-0.4,3.5,0.9,5c0.6,0.6,1.3,1.1,2.1,1.5c0.8,0.4,2.1,0.3,2.3,1.1
		c0.9,2.7,1-0.5,1.4-1.3c0.6-1.2,1.1-2.5,1.2-3.8c0.1-0.6,0.2-1.4,0-2.1c-0.1-0.5-0.4-1.4-0.9-1.6c-0.3,0-0.5,0.8-0.5,1
		c-0.1,0.3,0,1.2-0.4,1.3C118.4,37,118.3,34,118.3,33.7z"/>
	<path class="st0" d="M56.1,25.7c-0.3,0-0.6,0.1-0.9,0.1c-0.3,0.1-0.1,0.4,0,0.6c0,1.8,1,3.7,1.7,5.2c0.8,1.7,1.7,3.1,3.7,3.5
		c0.9,0.2,1.7,0.1,2.6,0c0.9-0.1,1.9-1,2.6-0.4c2.3,1.7,0.5-0.9,0.4-1.8c-0.2-1.3-0.6-2.6-1.3-3.8c-0.3-0.6-0.7-1.3-1.2-1.7
		c-0.4-0.4-1.1-0.9-1.7-0.8c-0.3,0.2,0.1,0.9,0.2,1.1c0.1,0.3,0.7,1,0.4,1.3c-0.3,0.7-2.1-1.6-2.3-1.9c-0.7-0.7-1.7-0.9-2.6-1.2
		C57.1,25.7,56.6,25.6,56.1,25.7z"/>
	<path class="st0" d="M63,13.2c-0.4-0.9-1.2-1.5-1.9-2.2c-0.4-0.3-0.8-0.6-1.3-0.8c-0.3-0.1-0.5-0.2-0.8-0.3
		c-0.3-0.1-0.2,0.3-0.3,0.5c-0.7,1.6-0.7,3.7-0.7,5.5c0,1.9,0.2,3.5,1.8,4.7c0.7,0.5,1.5,0.8,2.3,1.1c0.8,0.3,2.1-0.1,2.5,0.7
		c1.4,2.5,0.9-0.6,1.2-1.5c0.3-1.3,0.6-2.6,0.5-4c-0.1-0.6-0.1-1.4-0.4-2c-0.2-0.5-0.6-1.3-1.2-1.4c-0.3,0.1-0.3,0.8-0.3,1.1
		c0,0.3,0.2,1.2-0.2,1.4C63.8,16.4,63.1,13.5,63,13.2z"/>
	<path class="st0" d="M69.4,4c-0.4-0.9-1.2-1.5-1.9-2.2c-0.4-0.3-0.8-0.6-1.3-0.8c-0.3-0.1-0.5-0.2-0.8-0.3
		c-0.3-0.1-0.2,0.3-0.3,0.5c-0.7,1.6-0.7,3.7-0.7,5.5c0,1.9,0.2,3.5,1.8,4.7c0.7,0.5,1.5,0.8,2.3,1.1c0.8,0.3,2.1-0.1,2.5,0.7
		c1.4,2.5,0.9-0.6,1.2-1.5c0.3-1.3,0.6-2.6,0.5-4c-0.1-0.6-0.1-1.4-0.4-2c-0.2-0.5-0.6-1.3-1.2-1.4c-0.3,0.1-0.3,0.8-0.3,1.1
		c0,0.3,0.2,1.2-0.2,1.4C70.1,7.2,69.5,4.3,69.4,4z"/>
	<path class="st0" d="M51.6,10.7c-0.4-0.9-1.2-1.5-1.9-2.2c-0.4-0.3-0.8-0.6-1.3-0.8c-0.3-0.1-0.5-0.2-0.8-0.3
		c-0.3-0.1-0.2,0.3-0.3,0.5c-0.7,1.6-0.7,3.7-0.7,5.5c0,1.9,0.2,3.5,1.8,4.7c0.7,0.5,1.5,0.8,2.3,1.1c0.8,0.3,2.1-0.1,2.5,0.7
		c1.4,2.5,0.9-0.6,1.2-1.5c0.3-1.3,0.6-2.6,0.5-4c-0.1-0.6-0.1-1.4-0.4-2c-0.2-0.5-0.6-1.3-1.2-1.4c-0.3,0.1-0.3,0.8-0.3,1.1
		c0,0.3,0.2,1.2-0.2,1.4C52.4,13.9,51.7,11,51.6,10.7z"/>
	<path class="st0" d="M100,3.6c-0.1-0.5-0.3-1-0.6-1.4c-0.2-0.2-0.3-0.5-0.5-0.7c-0.2-0.2-0.4,0.2-0.5,0.3c-1.5,0.9-2.7,2.7-3.7,4.1
		c-1.1,1.6-1.8,3-1.1,4.9c0.3,0.8,0.8,1.5,1.3,2.2c0.5,0.7,1.8,1.1,1.7,2c-0.2,2.8,1.1,0,1.8-0.6c1-0.9,2-1.9,2.6-3
		c0.3-0.6,0.7-1.2,0.8-1.9c0.1-0.5,0.2-1.4-0.2-1.9c-0.3-0.1-0.7,0.5-0.9,0.7c-0.2,0.3-0.5,1.1-0.9,1.1c-0.7,0.1,0.3-2.6,0.4-3
		C100.5,5.5,100.2,4.5,100,3.6z"/>
	<path class="st0" d="M79.8,1.8c-0.2-0.4-0.5-0.9-0.9-1.2c-0.2-0.2-0.4-0.4-0.7-0.6c-0.2-0.2-0.3,0.2-0.5,0.4
		c-1.3,1.3-2,3.2-2.6,4.9c-0.7,1.8-1.1,3.4,0,5c0.5,0.7,1.1,1.3,1.8,1.8c0.7,0.5,2,0.7,2.1,1.5c0.4,2.8,1-0.3,1.6-1
		c0.8-1.1,1.5-2.3,1.9-3.5c0.2-0.6,0.4-1.4,0.4-2c0-0.5-0.1-1.4-0.6-1.8c-0.3,0-0.6,0.7-0.7,0.9c-0.1,0.3-0.3,1.2-0.6,1.2
		c-0.7,0.3-0.3-2.6-0.3-3C80.8,3.6,80.2,2.7,79.8,1.8z"/>
	<path class="st0" d="M33.7,58.2c-0.3-0.6-0.7-1.3-1.2-1.7c-0.4-0.4-1.1-0.9-1.7-0.8c-0.3,0.2,0.1,0.9,0.2,1.1
		c0.1,0.3,0.7,1,0.4,1.3c-0.3,0.7-2.1-1.6-2.3-1.9c-0.7-0.7-1.7-0.9-2.6-1.2c-0.5-0.1-1-0.2-1.5-0.2c-0.3,0-0.6,0.1-0.9,0.1
		c-0.3,0.1-0.1,0.4,0,0.6c0,1.8,1,3.7,1.7,5.2c0.8,1.7,1.7,3.1,3.7,3.5c0.9,0.2,1.7,0.1,2.6,0c0.9-0.1,1.9-1,2.6-0.4
		c2.3,1.7,0.5-0.9,0.4-1.8C34.7,60.7,34.4,59.3,33.7,58.2z"/>
	<path class="st0" d="M43.3,20.5c-0.5-0.1-1-0.2-1.5-0.2c-0.3,0-0.6,0.1-0.9,0.1c-0.3,0.1-0.1,0.4,0,0.6c0,1.8,1,3.7,1.7,5.2
		c0.8,1.7,1.7,3.1,3.7,3.5c0.9,0.2,1.7,0.1,2.6,0c0.9-0.1,1.9-1,2.6-0.4c2.3,1.7,0.5-0.9,0.4-1.8c-0.2-1.3-0.6-2.6-1.3-3.8
		c-0.3-0.6-0.7-1.3-1.2-1.7c-0.4-0.4-1.1-0.9-1.7-0.8c-0.3,0.2,0.1,0.9,0.2,1.1c0.1,0.3,0.7,1,0.4,1.3c-0.3,0.7-2.1-1.6-2.3-1.9
		C45.2,21,44.2,20.7,43.3,20.5z"/>
	<path class="st0" d="M93.1,22.1c-0.6,0.2-0.9,1-1.1,1.6c-0.2,0.6-0.2,1.4-0.2,2c0,1.3,0.4,2.7,0.9,3.9c0.4,0.8,0.2,4,1.3,1.4
		c0.3-0.8,1.6-0.6,2.4-0.9c0.8-0.3,1.6-0.7,2.2-1.3c1.5-1.3,1.6-3,1.4-4.9c-0.2-1.7-0.3-3.8-1.2-5.4c-0.1-0.2-0.1-0.6-0.3-0.5
		c-0.3,0.1-0.5,0.3-0.8,0.4c-0.4,0.2-0.9,0.6-1.2,0.9c-0.6,0.7-1.4,1.4-1.7,2.4c-0.1,0.3-0.5,3.3-1.1,2.8c-0.4-0.2-0.3-1-0.3-1.4
		C93.5,22.9,93.4,22.2,93.1,22.1z"/>
	<path class="st0" d="M71.9,21.1c-0.1,0.3-0.5,3.3-1.1,2.8c-0.4-0.2-0.3-1-0.3-1.4c0-0.2-0.1-1-0.4-1c-0.6,0.2-0.9,1-1.1,1.6
		c-0.2,0.6-0.2,1.4-0.2,2c0,1.3,0.4,2.7,0.9,3.9c0.4,0.8,0.2,4,1.3,1.4c0.3-0.8,1.6-0.6,2.4-0.9c0.8-0.3,1.6-0.7,2.2-1.3
		c1.5-1.3,1.6-3,1.4-4.9c-0.2-1.7-0.3-3.8-1.2-5.4c-0.1-0.2-0.1-0.6-0.3-0.5c-0.3,0.1-0.5,0.3-0.8,0.4c-0.4,0.2-0.9,0.6-1.2,0.9
		C72.9,19.4,72.2,20.2,71.9,21.1z"/>
	<path class="st0" d="M85.4,22.6c0.3-0.8,1.6-0.6,2.4-0.9c0.8-0.3,1.6-0.7,2.2-1.3c1.5-1.3,1.6-3,1.4-4.9c-0.2-1.7-0.3-3.8-1.2-5.4
		c-0.1-0.2-0.1-0.6-0.3-0.5c-0.3,0.1-0.5,0.3-0.8,0.4c-0.4,0.2-0.9,0.6-1.2,0.9c-0.6,0.7-1.4,1.4-1.7,2.4c-0.1,0.3-0.5,3.3-1.1,2.8
		c-0.4-0.2-0.3-1-0.3-1.4c0-0.2-0.1-1-0.4-1c-0.6,0.2-0.9,1-1.1,1.6c-0.2,0.6-0.2,1.4-0.2,2c0,1.3,0.4,2.7,0.9,3.9
		C84.5,22,84.2,25.2,85.4,22.6z"/>
	<path class="st0" d="M118.1,14.9c-0.1-0.2-0.1-0.6-0.3-0.5c-0.3,0.1-0.5,0.3-0.8,0.4c-0.4,0.2-0.9,0.6-1.2,0.9
		c-0.6,0.7-1.4,1.4-1.7,2.4c-0.1,0.3-0.5,3.3-1.1,2.8c-0.4-0.2-0.3-1-0.3-1.4c0-0.2-0.1-1-0.4-1c-0.6,0.2-0.9,1-1.1,1.6
		c-0.2,0.6-0.2,1.4-0.2,2c0,1.3,0.4,2.7,0.9,3.9c0.4,0.8,0.2,4,1.3,1.4c0.3-0.8,1.6-0.6,2.4-0.9c0.8-0.3,1.6-0.7,2.2-1.3
		c1.5-1.3,1.6-3,1.4-4.9C119.1,18.5,119,16.4,118.1,14.9z"/>
	<path class="st0" d="M108.9,7.9c-0.1-0.2-0.1-0.6-0.3-0.5c-0.3,0.1-0.5,0.3-0.8,0.4c-0.4,0.2-0.9,0.6-1.2,0.9
		c-0.6,0.7-1.4,1.4-1.7,2.4c-0.1,0.3-0.5,3.3-1.1,2.8c-0.4-0.2-0.3-1-0.3-1.4c0-0.2-0.1-1-0.4-1c-0.6,0.2-0.9,1-1.1,1.6
		c-0.2,0.6-0.2,1.4-0.2,2c0,1.3,0.4,2.7,0.9,3.9c0.4,0.8,0.2,4,1.3,1.4c0.3-0.8,1.6-0.6,2.4-0.9c0.8-0.3,1.6-0.7,2.2-1.3
		c1.5-1.3,1.6-3,1.4-4.9C109.9,11.5,109.8,9.4,108.9,7.9z"/>
	<path class="st0" d="M121.9,51.9c-0.3,0.1-0.5,0.3-0.8,0.4c-0.4,0.2-0.9,0.6-1.2,0.9c-0.6,0.7-1.4,1.4-1.7,2.4
		c-0.1,0.3-0.5,3.3-1.1,2.8c-0.4-0.2-0.3-1-0.3-1.4c0-0.2-0.1-1-0.4-1c-0.6,0.2-0.9,1-1.1,1.6c-0.2,0.6-0.2,1.4-0.2,2
		c0,1.3,0.4,2.7,0.9,3.9c0.4,0.8,0.2,4,1.3,1.4c0.3-0.8,1.6-0.6,2.4-0.9c0.8-0.3,1.6-0.7,2.2-1.3c1.5-1.3,1.6-3,1.4-4.9
		c-0.2-1.7-0.3-3.8-1.2-5.4C122.2,52.2,122.2,51.8,121.9,51.9z"/>
	<path class="st0" d="M124.4,31c0.4-0.8,1.6-0.6,2.4-0.9c0.8-0.3,1.6-0.7,2.2-1.3c1.5-1.3,1.6-3,1.4-4.9c-0.2-1.7-0.3-3.8-1.2-5.4
		c-0.1-0.2-0.1-0.6-0.3-0.5c-0.3,0.1-0.5,0.3-0.8,0.4c-0.4,0.2-0.9,0.6-1.2,0.9c-0.6,0.7-1.4,1.4-1.7,2.4c-0.1,0.3-0.5,3.3-1.1,2.8
		c-0.4-0.2-0.3-1-0.3-1.4c0-0.2-0.1-1-0.4-1c-0.6,0.2-0.9,1-1.1,1.6c-0.2,0.6-0.2,1.4-0.2,2c0,1.3,0.4,2.7,0.9,3.9
		C123.5,30.4,123.3,33.6,124.4,31z"/>
	<path class="st0" d="M109.2,27.6c-0.3,0-0.5,0.8-0.5,1c-0.1,0.3,0,1.2-0.4,1.3c-0.6,0.4-0.8-2.6-0.8-2.9c-0.2-1-0.9-1.7-1.5-2.5
		c-0.3-0.4-0.7-0.8-1.1-1c-0.2-0.2-0.5-0.3-0.7-0.5c-0.3-0.1-0.3,0.3-0.4,0.4c-1,1.5-1.3,3.5-1.7,5.2c-0.4,1.9-0.4,3.5,0.9,5
		c0.6,0.6,1.3,1.1,2.1,1.5c0.8,0.4,2.1,0.3,2.3,1.1c0.9,2.7,1-0.5,1.4-1.3c0.6-1.2,1.1-2.5,1.2-3.8c0.1-0.6,0.2-1.4,0-2.1
		C110,28.7,109.8,27.9,109.2,27.6z"/>
	<path class="st0" d="M144.2,44.2c-0.3,0-0.6-0.1-0.9-0.1c-0.5-0.1-1,0-1.5,0.1c-0.9,0.2-1.9,0.4-2.7,1c-0.3,0.2-2.2,2.4-2.4,1.7
		c-0.2-0.3,0.4-1,0.5-1.3c0.1-0.2,0.5-0.9,0.2-1.1c-0.6-0.2-1.3,0.4-1.7,0.7c-0.5,0.4-0.9,1.1-1.3,1.6c-0.3,0.5-0.6,1.1-0.9,1.7
		c0-0.1,0-0.2,0.1-0.4c0-0.2-0.1-0.3-0.3-0.4c-0.2,0-0.4,0.1-0.4,0.3c-0.6,2.3-1.4,4.6-2.5,6.7c-0.3-0.4-0.7-0.7-1.2-1
		c-0.4-0.2-0.9-0.5-0.9-0.8c0-0.1,0-0.3,0.6-0.6c0.1-0.1,0.2-0.3,0.1-0.4c-0.1-0.2-0.3-0.2-0.4-0.1c-1.5,0.6-2,2.5-1.6,3.9
		c0.2,0.8,0.8,1.2,1.2,1.5c0.7,0.5,0.7,0.5,0.2,1.2c-1.8,2.7-4.1,5.4-6.8,7.9c-2.6,2.4-5.4,4.4-8.3,6.2c0,0,0-0.1,0-0.1
		c0.5-1.2,1-2.5,1.1-3.8c0.1-0.6,0.1-1.4,0-2.1c-0.1-0.5-0.4-1.4-0.9-1.6c-0.3,0-0.4,0.8-0.5,1c-0.1,0.3,0,1.2-0.4,1.3
		c-0.6,0.4-0.8-2.5-0.9-2.9c-0.2-1-0.9-1.7-1.5-2.5c-0.3-0.4-0.7-0.7-1.1-1c-0.2-0.2-0.5-0.3-0.8-0.4c-0.3-0.1-0.3,0.3-0.4,0.5
		c-1,1.5-1.3,3.6-1.6,5.3c-0.3,1.9-0.4,3.5,1,4.9c0.6,0.6,1.3,1.1,2.1,1.4c0.7,0.3,1.7,0.3,2.2,0.8c-1.5,0.9-3,1.8-4.5,2.6
		c-0.6,0.3-1.2,0.7-1.8,1c-0.1-0.6-0.4-1.2-0.6-1.7c-0.3-0.7-0.7-1.4-0.6-2c0-0.5,0.7-0.6,1.2-0.6c0.3,0,0.6,0,0.8,0.1
		c0.2,0,0.3-0.1,0.4-0.2c0.1-0.2,0-0.3-0.2-0.4c-0.4-0.2-0.8-0.3-1.3-0.3c-1.9-0.2-3.9,1-5,2.9c-0.8,1.4-0.5,2.5-0.2,3.5
		c0.1,0.5,0.3,1,0.4,1.6c0.1,0.8-0.4,1.1-1.2,1.7c-0.2,0.1-0.4,0.3-0.6,0.4c-0.8,0.6-1.6,1.3-2.4,2c-0.7,0.6-1.3,1.2-1.9,1.8
		c0-0.1,0-0.3,0-0.4c0-0.4,0-0.9-0.2-1.3c-0.1-0.3-0.3-0.9-0.7-1c-0.2,0-0.2,0.5-0.2,0.7c0,0.2,0.1,0.8-0.1,0.9
		c-0.4,0.3-0.7-1.6-0.8-1.8c-0.2-0.6-0.7-1-1.1-1.5c-0.2-0.2-0.5-0.4-0.8-0.6c-0.2-0.1-0.3-0.1-0.5-0.2c-0.2,0-0.2,0.2-0.2,0.3
		c-0.5,1-0.6,2.4-0.6,3.5c-0.1,1.2,0,2.3,1,3.1c0.4,0.4,0.9,0.6,1.5,0.8c0.1,0,0.2,0.1,0.4,0.1c-2.7,3.1-4.8,6.4-6.5,10
		c0.3-7.8,1.4-14.4,3.3-20.1c2.3,1,4.2,0.8,6.2-0.6c1.7-1.3,3.4-3.5,2.8-6.1c0-0.2-0.2-0.3-0.4-0.3c-0.2,0-0.3,0.1-0.3,0.3
		c-0.2,1.9-0.7,2.7-1.7,2.4c-0.7-0.2-1.3-0.6-1.9-1c-0.5-0.3-1-0.7-1.6-0.9c2.2-3.2,5-6.3,8.3-9c2.8-2.3,5.7-4,8.8-5.9
		c0.6-0.4,1.3-0.8,1.9-1.1c2.1-1.3,3.9-2.5,5.5-3.7c0.8-0.6,1.6-1.2,2.4-1.9c0.1-0.1,0.2-0.2,0.4-0.3c0.5-0.5,0.8-0.7,1.4-0.6
		c0.4,0.1,0.7,0.3,1,0.5c0.5,0.3,1,0.6,1.7,0.7c0.8,0.1,1.7-0.1,2.5-0.6c1.3-0.7,3.2-2.3,2.8-4.2c0-0.2-0.2-0.3-0.3-0.3c0,0,0,0,0,0
		c-0.2,0-0.3,0.1-0.3,0.3c-0.1,0.4-0.4,1.5-1,1.5c-0.2,0-0.4-0.1-0.6-0.2c-0.1-0.1-0.2-0.2-0.3-0.3c-0.7-0.6-1.4-1.2-2-1.4
		c3-3.1,5.4-6.9,7-10.9c0.1,0.1,0.5-0.1,1.1-0.5c0.7-0.5,1.7,0.4,2.5,0.6c0.9,0.2,1.7,0.3,2.6,0.2c2-0.3,3-1.6,3.8-3.3
		c0.8-1.6,1.8-3.4,2-5.2c0-0.2,0.3-0.5,0-0.6c-0.3,0-0.6-0.1-0.9-0.1c-0.5-0.1-1,0-1.5,0.1c-0.9,0.2-1.9,0.4-2.7,1
		c-0.2,0.2-2.2,2.4-2.4,1.7c-0.2-0.3,0.4-1,0.5-1.3c0.1-0.2,0.5-0.9,0.2-1.1c-0.6-0.2-1.3,0.4-1.7,0.7c-0.5,0.4-0.9,1.1-1.3,1.6
		c-0.4,0.6-0.7,1.3-0.9,1.9c0.2-1,0.4-2,0.5-2.9c0-0.2-0.1-0.3-0.3-0.4c-0.2,0-0.4,0.1-0.4,0.3c-0.6,2.3-1.4,4.5-2.5,6.7
		c-0.3-0.4-0.7-0.7-1.2-1c-0.4-0.2-0.9-0.5-0.9-0.8c0-0.1,0-0.3,0.6-0.6c0.1-0.1,0.2-0.3,0.1-0.4c-0.1-0.2-0.3-0.2-0.4-0.1
		c-1.5,0.6-2,2.5-1.6,3.9c0.2,0.8,0.8,1.2,1.2,1.5c0.7,0.5,0.7,0.5,0.2,1.2c-1.8,2.7-4.1,5.4-6.8,7.9c-2.8,2.6-5.8,4.6-9,6.6
		c0-0.1,0.1-0.2,0.1-0.2c0.5-1.2,1-2.5,1.1-3.8c0.1-0.6,0.2-1.4,0-2.1c-0.1-0.5-0.4-1.4-0.9-1.6c-0.3,0-0.4,0.8-0.5,1
		c-0.1,0.3,0,1.2-0.4,1.3c-0.6,0.4-0.8-2.5-0.9-2.9c-0.2-1-0.9-1.7-1.5-2.5c-0.3-0.4-0.7-0.7-1.1-1c-0.2-0.2-0.5-0.3-0.8-0.4
		c-0.3-0.1-0.3,0.3-0.4,0.5c-1,1.5-1.3,3.6-1.6,5.3c-0.3,1.9-0.4,3.5,1,4.9c0.6,0.6,1.3,1.1,2.1,1.4c0.7,0.3,1.8,0.3,2.2,0.9
		c-1.3,0.8-2.6,1.5-4,2.3c-0.6,0.3-1.2,0.7-1.8,1c-0.1-0.6-0.4-1.2-0.6-1.7c-0.3-0.7-0.7-1.4-0.6-2c0-0.5,0.7-0.6,1.2-0.6
		c0.3,0,0.6,0,0.8,0.1c0.2,0,0.3-0.1,0.4-0.2c0.1-0.2,0-0.3-0.2-0.4c-0.4-0.2-0.8-0.3-1.3-0.3c-1.9-0.2-3.9,1-5,2.9
		c-0.8,1.4-0.5,2.5-0.2,3.5c0.1,0.5,0.3,1,0.4,1.6c0.1,0.8-0.4,1.1-1.2,1.7c-0.2,0.1-0.4,0.3-0.6,0.4c-0.4,0.3-0.9,0.7-1.3,1
		c0-0.4,0-0.7-0.2-1.1c-0.1-0.3-0.3-0.9-0.7-1c-0.2,0-0.2,0.5-0.2,0.7c0,0.2,0.1,0.8-0.2,0.9c-0.4,0.3-0.7-1.6-0.8-1.8
		c-0.2-0.6-0.7-1-1.1-1.5c-0.2-0.2-0.5-0.4-0.8-0.6c-0.2-0.1-0.3-0.1-0.5-0.2c-0.2,0-0.2,0.2-0.2,0.3c-0.5,1-0.6,2.4-0.6,3.5
		c-0.1,1.2,0,2.3,1,3.1c0.3,0.3,0.6,0.4,1,0.6c-0.6,0.6-1.3,1.3-1.9,2c-1.3,1.5-2.5,3-3.5,4.6c-0.1-0.3-0.3-0.5-0.6-0.6
		c-0.2,0-0.2,0.5-0.2,0.7c0,0.2,0.1,0.8-0.1,0.9c-0.4,0.3-0.7-1.6-0.8-1.8c-0.2-0.6-0.7-1-1.1-1.5c-0.2-0.2-0.5-0.4-0.8-0.6
		c-0.2-0.1-0.3-0.1-0.5-0.2C83,68.7,83,69,83,69.1c-0.5,1-0.6,2.4-0.6,3.5c-0.1,1.2,0,2.3,1,3.1c0.4,0.3,0.8,0.5,1.3,0.7
		c-2,4-3.3,8.3-3.8,12.7c-0.2,1.8-0.3,3.7-0.3,5.5c-0.1-0.2-0.1-0.4-0.2-0.5c-2.2-5.3-3.6-10-4.2-14.2c0-0.6,0-1.2,0-1.8
		c0,0,0,0,0-0.1c1.6-0.1,2.8-0.8,3.6-2.2c0.8-1.3,1.3-3.3,0.1-4.9c-0.1-0.1-0.3-0.2-0.4-0.1c-0.2,0.1-0.2,0.2-0.2,0.4
		c0.3,0.8,0.3,1.4,0.1,1.7c-0.1,0.1-0.2,0.2-0.4,0.2c-0.5,0.1-1,0-1.5-0.1c-0.4-0.1-0.8-0.1-1.2-0.1c0.4-2.2,1.2-4.4,2.2-6.6
		c0.1,0,0.2-0.1,0.3-0.2c0.7-0.5,1.7,0.4,2.5,0.6c0.9,0.2,1.7,0.3,2.6,0.2c2-0.3,3-1.6,3.8-3.3c0.8-1.6,1.8-3.4,2-5.2
		c0-0.2,0.3-0.5,0-0.6c-0.3,0-0.6-0.1-0.9-0.1c-0.5-0.1-1,0-1.5,0.1c-0.9,0.2-1.9,0.4-2.7,1c-0.2,0.2-2.2,2.4-2.4,1.7
		c-0.1-0.2,0-0.4,0.1-0.7c0.3-0.5,0.7-0.9,1-1.4c0.3-0.4,0.6-0.8,0.9-1.3c1-1.4,1.9-2.7,2.6-4c0.4-0.6,0.7-1.3,1-1.9
		c0.1-0.1,0.1-0.2,0.1-0.3c0.2-0.4,0.3-0.6,0.6-0.7c0.3,0,0.5,0,0.8,0.1c0.4,0.1,0.9,0.1,1.3,0c0.6-0.2,1.1-0.6,1.5-1.1
		c0.7-0.8,1.4-2.5,0.6-3.6c-0.1-0.1-0.3-0.2-0.4-0.1c-0.1,0.1-0.2,0.2-0.2,0.4c0.1,0.5,0.1,0.9-0.1,1.1c-0.1,0.1-0.2,0.1-0.5,0.1
		c-0.1,0-0.2,0-0.3-0.1c-0.4-0.1-1.1-0.3-1.6-0.3c0.3-0.8,0.5-1.5,0.7-2.3c0.2-0.1,0.4-0.2,0.6-0.4c0.7-0.5,1.7,0.4,2.5,0.6
		c0.9,0.2,1.7,0.3,2.6,0.2c2-0.3,3-1.6,3.8-3.3c0.8-1.6,1.8-3.4,2-5.2c0-0.2,0.3-0.5,0-0.6c-0.3,0-0.6-0.1-0.9-0.1
		c-0.5-0.1-1,0-1.5,0.1c-0.9,0.2-1.9,0.4-2.7,1c-0.2,0.2-2.2,2.4-2.4,1.7c-0.2-0.3,0.4-1,0.5-1.3c0.1-0.2,0.5-0.9,0.2-1.1
		c-0.6-0.2-1.3,0.4-1.7,0.7c-0.5,0.4-0.9,1.1-1.3,1.6c-0.5,0.8-0.9,1.8-1.2,2.7c0.3-2.9,0.1-5.9-0.6-8.5c-0.1-0.2-0.2-0.3-0.4-0.2
		c0,0,0,0,0,0c-0.2-1.2-0.6-2.4-1.2-3.4c-0.3-0.6-0.7-1.3-1.2-1.7c-0.4-0.4-1.1-0.9-1.7-0.8c-0.3,0.2,0.1,0.9,0.2,1.1
		c0.1,0.3,0.7,1,0.4,1.3c-0.3,0.7-2.1-1.6-2.3-1.9c-0.7-0.7-1.7-0.9-2.6-1.2c-0.5-0.1-1-0.2-1.5-0.2c-0.3,0-0.6,0.1-0.9,0.1
		c-0.3,0.1-0.1,0.4,0,0.6c0,1.8,1,3.7,1.7,5.2c0.8,1.7,1.7,3.1,3.7,3.5c0.9,0.2,1.7,0.1,2.6,0c0.9-0.1,1.9-1,2.6-0.4
		c0.1,0.1,0.2,0.2,0.3,0.2c0.1,0.9,0.1,1.9,0,2.9c-0.3-0.1-0.6-0.2-1-0.2c-0.2,0-0.7-0.1-0.7-0.2c0,0,0-0.1,0.2-0.5
		c0.1-0.1,0.1-0.3-0.1-0.5c-0.1-0.1-0.3-0.1-0.5,0c-0.8,0.8-0.6,2.3,0,3.1c0.4,0.5,0.9,0.6,1.2,0.7c0.1,0,0.4,0.1,0.4,0.1
		c0,0.1,0,0.4-0.1,0.5c-0.4,2.3-1.1,4.6-2.2,7c-0.2,0.6-0.5,1.1-0.8,1.6c0.5-1.2,1-2.4,1.1-3.7c0.1-0.6,0.1-1.4,0-2.1
		c-0.1-0.5-0.4-1.4-0.9-1.6c-0.3,0-0.4,0.8-0.5,1c-0.1,0.3,0,1.2-0.4,1.3c-0.6,0.4-0.8-2.5-0.9-2.9c-0.2-1-0.9-1.7-1.5-2.5
		c-0.3-0.4-0.7-0.7-1.1-1c-0.2-0.2-0.5-0.3-0.8-0.4c-0.3-0.1-0.3,0.3-0.4,0.5c-1,1.5-1.3,3.6-1.6,5.3c-0.3,1.9-0.4,3.5,1,4.9
		c0.6,0.6,1.3,1.1,2.1,1.4c0.8,0.4,2.1,0.3,2.4,1.1c0.1,0.3,0.2,0.5,0.3,0.7c-1.4,2.3-3,4.4-4.7,6.6c-0.3,0.4-0.5,0.7-0.8,1.1
		c-0.2-0.3-0.5-0.6-0.8-0.8c-0.4-0.4-0.8-0.7-0.9-1.1c0-0.1,0-0.2,0-0.2c0.1-0.3,0.6-0.5,1.1-0.6c0.2,0,0.3-0.2,0.3-0.4
		c0-0.2-0.2-0.3-0.3-0.3h0c-0.3,0-0.6,0.1-1,0.2c-1.5,0.5-2.4,2-2.5,3.4c-0.2,1.2,0.4,1.8,0.9,2.4c0.2,0.3,0.5,0.6,0.7,0.9
		c0.2,0.4,0.1,0.8-0.3,1.3c-0.1,0.1-0.2,0.3-0.3,0.4c-0.3,0.6-0.7,1.3-1,1.9c-0.5,1-0.9,2-1.3,3c-1-2.6-2.3-5-4-7.4
		c-0.8-1-1.7-2.1-2.6-3.1c0,0,0,0,0,0c0.7-0.4,1.7,0.4,2.5,0.6c0.9,0.2,1.7,0.3,2.6,0.2c2-0.3,3-1.6,3.8-3.3c0.8-1.6,1.8-3.4,2-5.2
		c0-0.2,0.3-0.5,0-0.6c-0.3,0-0.6-0.1-0.9-0.1c-0.5-0.1-1,0-1.5,0.1c-0.9,0.2-1.9,0.4-2.7,1c-0.2,0.2-2.2,2.4-2.4,1.7
		c-0.2-0.3,0.4-1,0.5-1.3c0.1-0.2,0.5-0.9,0.2-1.1c-0.6-0.2-1.3,0.4-1.7,0.7c-0.5,0.4-0.9,1.1-1.3,1.6c-0.7,1.1-1.1,2.4-1.4,3.7
		c0,0.3-0.2,0.6-0.4,1c-0.2-0.2-0.5-0.5-0.7-0.7c-0.1-0.1-0.2-0.2-0.4-0.3c-0.5-0.4-0.8-0.7-0.7-1.1c0.1-0.4,0.2-0.7,0.3-1.1
		c0.3-0.7,0.6-1.5,0.1-2.5c-0.4-0.9-1.3-1.9-2.5-2.3c0.1-0.2,0.2-0.3,0.3-0.5c0.5-1,1.2-2.2,1.3-3.3c0-0.1,0.2-0.3,0-0.4
		c-0.2,0-0.4-0.1-0.6-0.1c-0.3,0-0.7,0-1,0.1c-0.6,0.2-1.3,0.3-1.7,0.7c-0.2,0.1-1.4,1.6-1.6,1.1c-0.1-0.2,0.2-0.7,0.3-0.8
		c0.1-0.1,0.3-0.6,0.1-0.7c-0.4-0.1-0.8,0.2-1.1,0.5c-0.3,0.3-0.6,0.7-0.8,1c-0.5,0.7-0.7,1.6-0.9,2.4c0,0.1-0.1,0.3-0.2,0.5
		c-2-1.4-3.9-3-5.6-4.8c0.6,0,1.3,0.6,2,0.7c0.9,0.2,1.7,0.3,2.6,0.2c2-0.3,3-1.6,3.8-3.3c0.8-1.6,1.8-3.4,2-5.2
		c0-0.2,0.3-0.5,0-0.6c-0.3,0-0.6-0.1-0.9-0.1c-0.5-0.1-1,0-1.5,0.1c-0.9,0.2-1.9,0.4-2.7,1c-0.2,0.2-2.2,2.4-2.4,1.7
		c-0.2-0.3,0.4-1,0.5-1.3c0.1-0.2,0.5-0.9,0.2-1.1c-0.6-0.2-1.3,0.4-1.7,0.7c-0.5,0.4-0.9,1.1-1.3,1.6c-0.7,1.1-1.1,2.4-1.4,3.7
		c0,0.2-0.1,0.4-0.2,0.6c-1.6-1.8-2.9-3.7-3.9-5.5c-0.1-0.1-0.2-0.4-0.2-0.4c0-0.1,0.3-0.2,0.4-0.3c0.3-0.2,0.8-0.5,1-1.1
		c0.3-1,0.1-2.4-1-3c-0.2-0.1-0.3,0-0.4,0.1c-0.1,0.1-0.1,0.3,0.1,0.5c0.3,0.3,0.3,0.4,0.3,0.4c0,0.1-0.4,0.3-0.6,0.4
		c-0.3,0.1-0.6,0.3-0.8,0.5c-0.6-1.5-1-3.1-1.3-4.7c0-0.2-0.2-0.3-0.4-0.3c-0.2,0-0.3,0.2-0.3,0.4c0,0.2,0,0.3,0,0.5
		c-0.2-0.4-0.3-0.8-0.6-1.2c-0.3-0.6-0.7-1.3-1.2-1.7c-0.4-0.4-1.1-0.9-1.7-0.8c-0.3,0.2,0.1,0.9,0.2,1.1c0.1,0.3,0.7,1,0.4,1.3
		c-0.3,0.7-2.1-1.6-2.3-1.9c-0.7-0.7-1.7-0.9-2.6-1.2c-0.5-0.1-1-0.2-1.5-0.2c-0.3,0-0.6,0.1-0.9,0.1c-0.3,0.1-0.1,0.4,0,0.6
		c0,1.8,1,3.7,1.7,5.2c0.8,1.7,1.7,3.1,3.7,3.5c0.9,0.2,1.7,0.1,2.6,0c0.9-0.1,1.9-1,2.6-0.4c0.3,0.2,0.5,0.3,0.6,0.4
		c0.9,2.8,2.3,5.6,4.1,7.8c-0.4,0.2-0.9,0.5-1.4,0.8c-0.1,0.1-0.2,0.1-0.2,0.2c-0.1,0.1-0.3,0.1-0.4,0.1c-0.3,0-0.5-0.6-0.6-1
		c0-0.2-0.2-0.3-0.3-0.3c-0.2,0-0.3,0.1-0.4,0.2c-0.4,1.3,0.8,2.7,1.7,3.2c0.6,0.4,1.2,0.6,1.8,0.6c0.5,0,0.9-0.2,1.3-0.4
		c0.2-0.1,0.5-0.2,0.7-0.3c0.3-0.1,0.5,0.1,0.8,0.4c0.1,0.1,0.2,0.2,0.2,0.3c0.5,0.5,1,1,1.6,1.5c1.1,1,2.3,1.9,3.7,3
		c0.4,0.3,0.8,0.6,1.3,0.9c2.1,1.5,4,2.9,5.8,4.7c2.1,2.1,3.9,4.4,5.2,6.8c-0.4,0.1-0.8,0.3-1.1,0.5c-0.5,0.2-0.9,0.5-1.4,0.6
		c-0.1,0-0.1,0-0.2,0c0,0,0,0,0,0c-0.2,0-0.7,0-0.7-1.7c0-0.2-0.1-0.3-0.3-0.3c-0.2,0-0.3,0.1-0.4,0.2c-0.6,1.9,0.5,3.6,1.7,4.6
		c1.3,1.1,2.7,1.4,4.3,0.9c1,4.4,1.4,9.2,1,15.2c-0.4-0.4-0.8-0.7-1.2-1c-0.8-0.7-1.6-1.3-2.4-1.9c-0.2-0.1-0.4-0.3-0.6-0.4
		c-0.8-0.5-1.2-0.9-1.2-1.6c0-0.6,0.2-1.1,0.3-1.6c0.3-1,0.6-2.1-0.3-3.5c-1.1-1.9-3.2-3-5.1-2.8c-0.5,0.1-0.9,0.2-1.3,0.4
		c-0.2,0.1-0.2,0.3-0.2,0.4c0.1,0.2,0.2,0.3,0.4,0.2c0.2,0,0.5-0.1,0.9-0.1c0.7,0,1.1,0.2,1.2,0.6c0.1,0.7-0.2,1.4-0.6,2.1
		c-0.3,0.6-0.5,1.1-0.6,1.7c-0.6-0.3-1.2-0.7-1.8-1c-3.1-1.7-6.2-3.3-9.1-5.2c0.6,0,1.3,0.6,2,0.7c0.9,0.2,1.7,0.3,2.6,0.2
		c2-0.3,3-1.6,3.8-3.3c0.8-1.6,1.8-3.4,2-5.2c0-0.2,0.3-0.5,0-0.6c-0.3,0-0.6-0.1-0.9-0.1c-0.5-0.1-1,0-1.5,0.1
		c-0.9,0.2-1.9,0.4-2.7,1c-0.2,0.2-2.2,2.4-2.4,1.7c-0.2-0.3,0.4-1,0.5-1.3c0.1-0.2,0.5-0.9,0.2-1.1c-0.6-0.2-1.3,0.4-1.7,0.7
		c-0.5,0.4-0.9,1.1-1.3,1.6c-0.7,1.1-1.1,2.4-1.4,3.7c0,0.2-0.2,0.6-0.4,0.9c-1.5-1-2.9-2.1-4.3-3.3c-2.8-2.5-5.1-5.1-7-7.8
		c-0.5-0.7-0.5-0.7,0.2-1.2c0.4-0.3,1-0.8,1.1-1.6c0.3-1.4-0.3-3.3-1.7-3.9c-0.2-0.1-0.3,0-0.4,0.2c-0.1,0.2,0,0.3,0.1,0.4
		c0.5,0.4,0.6,0.6,0.6,0.6c0,0.2-0.5,0.5-0.9,0.8c-0.5,0.3-0.9,0.6-1.2,1c-0.7-1.3-1.3-2.7-1.8-4.1c0-0.1,0.1-0.2,0.1-0.3
		c0.6-1.2,1.1-2.5,1.2-3.8c0.1-0.6,0.2-1.4,0-2.1c-0.1-0.5-0.4-1.4-0.9-1.6c-0.3,0-0.5,0.8-0.5,1c-0.1,0.3,0,1.2-0.4,1.3
		c-0.6,0.4-0.8-2.6-0.8-2.9c-0.2-1-0.9-1.7-1.5-2.5c-0.3-0.4-0.7-0.8-1.1-1c-0.2-0.2-0.5-0.3-0.7-0.5c-0.3-0.1-0.3,0.3-0.4,0.4
		c-1,1.5-1.3,3.5-1.7,5.2c-0.4,1.9-0.4,3.5,0.9,5c0.6,0.6,1.3,1.1,2.1,1.5c0.8,0.4,2.1,0.3,2.3,1.1c0.4,1.2,0.6,1.2,0.8,0.9
		c1.6,5,4.5,9.8,8.2,13.5c-0.6,0.2-1.3,0.8-2,1.4c-0.1,0.1-0.3,0.2-0.3,0.3c-0.2,0.2-0.4,0.3-0.6,0.3c-0.6,0-0.9-1.1-1-1.5
		c0-0.2-0.2-0.3-0.3-0.3c-0.2,0-0.3,0.1-0.3,0.3c-0.3,1.9,1.5,3.5,2.9,4.1c0.7,0.3,1.5,0.5,2.2,0.5c0.1,0,0.2,0,0.4,0
		c0.7-0.1,1.2-0.4,1.6-0.7c0.3-0.2,0.6-0.4,1-0.5c0.6-0.2,0.9,0.1,1.4,0.5c0.1,0.1,0.2,0.2,0.4,0.3c0.8,0.6,1.6,1.3,2.4,1.8
		c1,0.7,2.1,1.5,3.3,2.2c-0.7-0.2-1.5-0.3-2.2-0.3c-0.6,0-1.4,0-2,0.2c-0.5,0.2-1.4,0.5-1.6,1.1c0.1,0.3,0.8,0.4,1,0.4
		c0.3,0,1.2-0.1,1.4,0.3c0.5,0.6-2.5,1-2.8,1.1c-0.9,0.3-1.6,1-2.4,1.7c-0.4,0.3-0.7,0.7-0.9,1.2c-0.1,0.3-0.3,0.5-0.4,0.8
		c-0.1,0.3,0.3,0.3,0.5,0.3c1.6,0.9,3.6,1,5.4,1.2c1.9,0.2,3.5,0.1,4.9-1.4c0.6-0.7,0.9-1.4,1.3-2.2c0.3-0.8,0.1-2.1,0.9-2.4
		c0.4,0.2,0.8,0.5,1.2,0.7c3,1.7,5.8,3.3,8.5,5.4c-0.9-0.3-1.9-0.5-2.8-0.5c-0.6,0-1.4,0-2,0.2c-0.5,0.2-1.4,0.5-1.6,1.1
		c0.1,0.3,0.8,0.4,1,0.4c0.3,0,1.2-0.1,1.4,0.3c0.5,0.6-2.5,1-2.8,1.1c-0.9,0.3-1.6,1-2.4,1.7c-0.4,0.3-0.7,0.7-0.9,1.2
		c-0.1,0.3-0.3,0.5-0.4,0.8c-0.1,0.3,0.3,0.3,0.5,0.3c1.6,0.9,3.6,1,5.4,1.2c1.9,0.2,3.5,0.1,4.9-1.4c0.6-0.7,0.9-1.4,1.3-2.2
		c0.3-0.7,0.2-1.8,0.7-2.3c2.6,2.3,4.9,4.8,6.7,7.4c-0.6,0.2-1.1,0.6-1.6,0.9c-0.6,0.4-1.2,0.8-1.9,1c-0.9,0.3-1.5-0.5-1.7-2.4
		c0-0.2-0.2-0.3-0.3-0.3c-0.2,0-0.3,0.1-0.3,0.3c-0.5,2.6,1.2,4.9,3,6.1c2,1.4,4,1.6,6.2,0.5c2.7,7.8-1,23.5-1,23.7
		c0,0.2,5,1.1,5.2,1.1l3.8,0c0,0,0,0,0,0c0.1,0,0.2,0,0.2-0.1c0.1-0.1,4.8-2,4.8-2.1c0-0.2-3.8-15-1.3-22.7c2.3,1,4.2,0.8,6.2-0.6
		c1.7-1.3,3.4-3.5,2.8-6.1c0-0.2-0.2-0.3-0.4-0.3c-0.2,0-0.3,0.1-0.3,0.3c-0.2,1.9-0.7,2.7-1.7,2.4c-0.7-0.2-1.3-0.6-1.9-1
		c-0.5-0.3-1-0.7-1.6-0.9c2.2-3.2,5-6.3,8.3-9c0.5-0.4,1-0.8,1.5-1.2c0.6,0.4,0.6,1.5,1,2.1c0.5,0.7,1,1.4,1.7,2
		c1.6,1.2,3.2,1,5,0.5c1.7-0.5,3.7-1,5.1-2.2c0.1-0.1,0.5-0.2,0.4-0.4c-0.2-0.2-0.3-0.5-0.5-0.7c-0.3-0.4-0.7-0.7-1.1-1
		c-0.8-0.5-1.7-1.1-2.6-1.2c-0.3,0-3.3,0.1-2.9-0.5c0.1-0.4,1-0.4,1.3-0.5c0.2-0.1,1-0.3,0.9-0.6c-0.3-0.5-1.2-0.7-1.7-0.8
		c-0.5-0.1-1,0-1.5,0.1c0.7-0.5,1.5-0.9,2.3-1.4c0.6-0.4,1.3-0.7,1.9-1.1c2.1-1.3,3.9-2.5,5.5-3.7c0.8-0.6,1.6-1.2,2.4-1.9
		c0.1-0.1,0.2-0.2,0.4-0.3c0.5-0.5,0.8-0.7,1.4-0.6c0.4,0.1,0.7,0.3,1,0.5c0.5,0.3,1,0.6,1.7,0.7c0.8,0.1,1.7-0.1,2.5-0.6
		c1.3-0.7,3.2-2.3,2.8-4.2c0-0.2-0.2-0.3-0.3-0.3c0,0,0,0,0,0c-0.2,0-0.3,0.1-0.3,0.3c-0.1,0.4-0.4,1.5-1,1.5
		c-0.2,0-0.4-0.1-0.6-0.2c-0.1-0.1-0.2-0.2-0.3-0.3c-0.7-0.6-1.4-1.2-2-1.4c3.6-3.7,6.4-8.5,7.8-13.4c0.2-0.1,0.4-0.2,0.7-0.4
		c0.7-0.5,1.7,0.4,2.5,0.6c0.9,0.2,1.7,0.3,2.6,0.2c2-0.3,3-1.6,3.8-3.3c0.8-1.6,1.8-3.4,2-5.2C144.2,44.6,144.4,44.3,144.2,44.2z
		 M62.2,52.4c-0.2,0.3-0.4,0.7-0.5,1.1c-0.4-0.3-0.7-0.5-1.1-0.8c-0.8-0.6-1.6-1.1-2.4-1.7c0.4,0.1,0.8,0.4,1.2,0.5
		c0.6,0.1,1.1,0.2,1.7,0.1c0.7-0.1,1.2-0.4,1.6-0.8c0.1,0.1,0.1,0.1,0.1,0.2C62.8,51.5,62.5,51.9,62.2,52.4z"/>
	<path class="st0" d="M135.9,41.8c0.6-0.4,1.1-1.1,1.5-1.7c0.2-0.3,0.4-0.7,0.5-1c0.1-0.2,0.1-0.4,0.2-0.7c0-0.2-0.3-0.1-0.4-0.2
		c-1.3-0.4-2.9-0.1-4.2,0c-1.4,0.2-2.7,0.5-3.4,1.9c-0.3,0.6-0.5,1.2-0.6,1.9c-0.1,0.7,0.3,1.6-0.3,2c-1.7,1.3,0.6,0.6,1.3,0.7
		c1,0.1,2.1,0.2,3.1-0.1c0.5-0.1,1.1-0.2,1.5-0.5c0.4-0.2,0.9-0.6,1-1.1c-0.1-0.2-0.7-0.1-0.9-0.1c-0.3,0-0.9,0.3-1.1,0
		C133.6,42.7,135.7,41.9,135.9,41.8z"/>
	<circle class="st1" cx="34.3" cy="173.4" r="34.3"/>
	<circle class="st2" cx="33.8" cy="172.9" r="28.2"/>
	<circle class="st1" cx="34.3" cy="173.4" r="20.2"/>
	<circle class="st2" cx="34.3" cy="173.4" r="13.6"/>
	<path class="st3" d="M120.5,156c0,18.8-15.4,34.1-34.6,34.1S51.4,174.8,51.4,156s15.4-34.1,34.6-34.1S120.5,137.2,120.5,156z"/>
	<circle class="st3" cx="85.5" cy="156" r="18.1"/>
	<path class="st4" d="M94.4,156c0,4.9-3.8,8.8-8.4,8.8c-4.6,0-8.4-3.9-8.4-8.8c0-4.9,3.8-8.8,8.4-8.8C90.5,147.2,94.4,151,94.4,156z
		"/>
	<circle class="st5" cx="138.1" cy="146.4" r="31.3"/>
	<circle class="st6" cx="138.1" cy="146.4" r="16.4"/>
	<circle class="st7" cx="138" cy="146.5" r="8.9"/>
	<circle class="st8" cx="89.6" cy="209.2" r="28.3"/>
	<circle class="st9" cx="89.6" cy="209.2" r="14.7"/>
	<circle class="st10" cx="89.5" cy="209.3" r="8"/>
	<circle class="st1" cx="34.3" cy="173.4" r="9.9"/>
	<circle class="st11" cx="33.8" cy="173.9" r="7.5"/>
</g>
</svg>
