<svg xmlns="http://www.w3.org/2000/svg" viewBox="0 0 237.27 90.25"><defs><style>.cls-1{fill:#00c853;}.cls-2{fill:#ef6c00;}.cls-3{fill:#fff;}.cls-10,.cls-11,.cls-4,.cls-5,.cls-6,.cls-7,.cls-8,.cls-9{fill:none;}.cls-4,.cls-5{stroke:#00c853;}.cls-4,.cls-6,.cls-9{stroke-width:2.62px;}.cls-11,.cls-5,.cls-8{stroke-width:1.12px;}.cls-6,.cls-7,.cls-8{stroke:#b71c1c;}.cls-10,.cls-7{stroke-width:1.87px;}.cls-10,.cls-11,.cls-9{stroke:#ffc400;}.cls-12{fill:#fbfbfb;}.cls-13{fill:#939598;}.cls-14{fill:#3e9600;}.cls-15{fill:#ecac00;}</style></defs><title>scoe FInal logoldpi</title><g id="Layer_2" data-name="Layer 2"><g id="Layer_1-2" data-name="Layer 1"><path class="cls-1" d="M35.32,18.71c-.14,0-.32.09-.42.17a1.59,1.59,0,0,0-.3.39,2.88,2.88,0,0,0-.35.89c0,.22-.5.82.08.45.18-.11.41.1.61.14a1.82,1.82,0,0,0,.62,0,1.22,1.22,0,0,0,.92-.79A3.39,3.39,0,0,0,37,18.76s.06-.12,0-.14l-.21,0a1,1,0,0,0-.36,0,1.64,1.64,0,0,0-.65.25c-.06,0-.53.59-.59.42s.09-.24.12-.31S35.38,18.76,35.32,18.71Z"/><path class="cls-1" d="M15.6,16.78c-.14.12-.26-.59-.29-.66a1.64,1.64,0,0,0-.43-.55,1,1,0,0,0-.29-.21l-.19-.09c-.07,0-.06.08-.08.12a3.38,3.38,0,0,0-.24,1.31,1.22,1.22,0,0,0,.38,1.16,1.81,1.81,0,0,0,.55.29c.2.07.5,0,.6.2.3.61.22-.14.3-.35a2.88,2.88,0,0,0,.16-.95,1.6,1.6,0,0,0-.06-.49c0-.12-.13-.33-.27-.36s-.09.2-.09.26S15.68,16.73,15.6,16.78Z"/><path class="cls-1" d="M16.35,22.89a2.81,2.81,0,0,0,.79.56c.29.15.77.12.88.42.34,1,.36-.18.53-.47A4.47,4.47,0,0,0,19,22a2.48,2.48,0,0,0,0-.77c0-.2-.13-.53-.34-.62s-.17.29-.19.37,0,.44-.15.5-.28-1-.31-1.08a2.55,2.55,0,0,0-.55-.94,1.59,1.59,0,0,0-.41-.38l-.28-.17c-.1,0-.11.11-.14.17A5.25,5.25,0,0,0,16,21,1.89,1.89,0,0,0,16.35,22.89Z"/><path class="cls-1" d="M28.42,14.55c-.12,0-.17.29-.19.37s0,.44-.15.5-.28-1-.31-1.08a2.54,2.54,0,0,0-.55-.94,1.59,1.59,0,0,0-.41-.38l-.28-.17c-.1,0-.11.11-.14.17a5.25,5.25,0,0,0-.63,2,1.9,1.9,0,0,0,.35,1.86,2.81,2.81,0,0,0,.79.56c.29.15.77.12.88.42.34,1,.36-.18.53-.47a4.48,4.48,0,0,0,.44-1.42,2.48,2.48,0,0,0,0-.77C28.72,15,28.64,14.64,28.42,14.55Z"/><path class="cls-1" d="M44.29,12.63a2.55,2.55,0,0,0-.55-.94,1.59,1.59,0,0,0-.41-.38L43,11.14c-.1,0-.11.11-.14.17a5.26,5.26,0,0,0-.63,2,1.9,1.9,0,0,0,.35,1.86,2.81,2.81,0,0,0,.79.56c.29.15.77.12.88.42.34,1,.36-.18.53-.47a4.48,4.48,0,0,0,.44-1.42,2.47,2.47,0,0,0,0-.77c0-.2-.13-.53-.34-.62s-.17.29-.19.37,0,.44-.15.5S44.31,12.75,44.29,12.63Z"/><path class="cls-1" d="M21,9.61l-.33,0c-.1,0,0,.15,0,.22a5.25,5.25,0,0,0,.63,2,1.9,1.9,0,0,0,1.37,1.3,2.82,2.82,0,0,0,1,0c.32,0,.7-.36,1-.17.86.62.19-.35.15-.69a4.48,4.48,0,0,0-.47-1.41,2.48,2.48,0,0,0-.44-.63c-.16-.13-.41-.35-.64-.3s0,.34.07.41.25.37.17.5-.79-.61-.88-.69a2.55,2.55,0,0,0-1-.44A1.59,1.59,0,0,0,21,9.61Z"/><path class="cls-1" d="M23.59,5a2.55,2.55,0,0,0-.71-.82,1.59,1.59,0,0,0-.47-.3l-.31-.12c-.1,0-.09.13-.11.19a5.25,5.25,0,0,0-.26,2,1.9,1.9,0,0,0,.69,1.76,2.82,2.82,0,0,0,.88.4c.31.09.78,0,.94.26.52.93.32-.24.43-.56a4.47,4.47,0,0,0,.18-1.48,2.47,2.47,0,0,0-.13-.76c-.08-.19-.23-.49-.45-.54s-.12.32-.12.4.07.44-.06.52S23.64,5.07,23.59,5Z"/><path class="cls-1" d="M26,1.5a2.55,2.55,0,0,0-.71-.82,1.59,1.59,0,0,0-.47-.3L24.49.27c-.1,0-.09.13-.11.19a5.25,5.25,0,0,0-.26,2,1.9,1.9,0,0,0,.69,1.76,2.82,2.82,0,0,0,.88.4c.31.09.78,0,.94.26.52.93.32-.24.43-.56a4.46,4.46,0,0,0,.18-1.48,2.47,2.47,0,0,0-.13-.76c-.08-.19-.23-.49-.45-.54s-.12.32-.12.4.07.44-.06.52S26,1.62,26,1.5Z"/><path class="cls-1" d="M19.32,4a2.55,2.55,0,0,0-.71-.82,1.59,1.59,0,0,0-.47-.3l-.31-.12c-.1,0-.09.13-.11.19a5.25,5.25,0,0,0-.26,2,1.9,1.9,0,0,0,.69,1.76,2.82,2.82,0,0,0,.88.4c.31.09.78,0,.94.26.52.93.32-.24.43-.56a4.46,4.46,0,0,0,.18-1.48,2.47,2.47,0,0,0-.13-.76c-.08-.19-.23-.49-.45-.54s-.12.32-.12.4.07.44-.06.52S19.37,4.12,19.32,4Z"/><path class="cls-1" d="M37.46,1.35a1.58,1.58,0,0,0-.22-.51L37,.56c-.07-.08-.14.06-.2.1A5.25,5.25,0,0,0,35.48,2.2,1.9,1.9,0,0,0,35.06,4a2.82,2.82,0,0,0,.5.83c.2.25.66.42.63.74-.09,1.06.4,0,.67-.22a4.48,4.48,0,0,0,1-1.12,2.45,2.45,0,0,0,.32-.7c0-.2.09-.54-.07-.7s-.27.2-.32.27-.19.4-.34.4.13-1,.15-1.11A2.54,2.54,0,0,0,37.46,1.35Z"/><path class="cls-1" d="M29.88.68a1.59,1.59,0,0,0-.34-.45L29.3,0c-.09-.06-.13.09-.17.14a5.25,5.25,0,0,0-1,1.82,1.9,1.9,0,0,0,0,1.89,2.83,2.83,0,0,0,.68.69c.25.2.74.25.79.58.15,1.05.39-.11.61-.37a4.47,4.47,0,0,0,.69-1.32,2.47,2.47,0,0,0,.15-.75c0-.21,0-.54-.23-.67s-.22.25-.25.33-.1.43-.24.46-.1-1-.11-1.11A2.54,2.54,0,0,0,29.88.68Z"/><path class="cls-1" d="M12.63,21.79a2.48,2.48,0,0,0-.44-.63c-.16-.13-.41-.35-.64-.3s0,.34.07.41.25.37.17.5-.79-.61-.88-.69a2.55,2.55,0,0,0-1-.44,1.58,1.58,0,0,0-.56-.07l-.33,0c-.1,0,0,.15,0,.22a5.25,5.25,0,0,0,.63,2A1.9,1.9,0,0,0,11,24.08a2.82,2.82,0,0,0,1,0c.32,0,.7-.36,1-.17.86.62.19-.35.15-.69A4.47,4.47,0,0,0,12.63,21.79Z"/><path class="cls-1" d="M16.2,7.66a1.59,1.59,0,0,0-.56-.07l-.33,0c-.1,0,0,.15,0,.22a5.25,5.25,0,0,0,.63,2,1.9,1.9,0,0,0,1.37,1.3,2.82,2.82,0,0,0,1,0c.32,0,.7-.36,1-.17.86.62.19-.35.15-.69a4.47,4.47,0,0,0-.47-1.41,2.48,2.48,0,0,0-.44-.63c-.16-.13-.41-.35-.64-.3s0,.34.07.41.25.37.17.5-.79-.61-.88-.69A2.55,2.55,0,0,0,16.2,7.66Z"/><path class="cls-1" d="M34.87,8.27c-.22.07-.33.39-.4.58a2.47,2.47,0,0,0-.06.77,4.47,4.47,0,0,0,.32,1.46c.14.31.06,1.49.49.52.13-.3.62-.22.91-.35a2.81,2.81,0,0,0,.83-.49,1.9,1.9,0,0,0,.51-1.82,5.25,5.25,0,0,0-.46-2c0-.06,0-.21-.13-.18l-.29.15a1.59,1.59,0,0,0-.44.34,2.55,2.55,0,0,0-.62.89c0,.12-.18,1.22-.4,1S35,8.79,35,8.66,35,8.3,34.87,8.27Z"/><path class="cls-1" d="M26.92,7.9c0,.12-.18,1.22-.4,1s-.1-.39-.11-.51,0-.37-.16-.39-.33.39-.4.58a2.47,2.47,0,0,0-.06.77,4.46,4.46,0,0,0,.32,1.46c.14.31.06,1.49.49.52.13-.3.62-.22.91-.35a2.82,2.82,0,0,0,.83-.49,1.9,1.9,0,0,0,.51-1.82,5.25,5.25,0,0,0-.46-2c0-.06,0-.21-.13-.18L28,6.67a1.58,1.58,0,0,0-.44.34A2.55,2.55,0,0,0,26.92,7.9Z"/><path class="cls-1" d="M32,8.46c.13-.3.62-.22.91-.35a2.81,2.81,0,0,0,.83-.49,1.9,1.9,0,0,0,.51-1.82,5.24,5.24,0,0,0-.46-2c0-.06,0-.21-.13-.18l-.29.15a1.59,1.59,0,0,0-.44.34,2.55,2.55,0,0,0-.62.89c0,.12-.18,1.22-.4,1s-.1-.39-.11-.51,0-.37-.16-.39-.33.39-.4.58a2.47,2.47,0,0,0-.06.77,4.47,4.47,0,0,0,.32,1.46C31.63,8.25,31.55,9.43,32,8.46Z"/><path class="cls-1" d="M44.23,5.56c0-.06,0-.21-.13-.18l-.29.15a1.59,1.59,0,0,0-.44.34,2.55,2.55,0,0,0-.62.89c0,.12-.18,1.22-.4,1s-.1-.39-.11-.51,0-.37-.16-.39-.33.39-.4.58a2.47,2.47,0,0,0-.06.77,4.48,4.48,0,0,0,.32,1.46c.14.31.06,1.49.49.52.13-.3.61-.22.91-.35a2.81,2.81,0,0,0,.83-.49,1.9,1.9,0,0,0,.51-1.82A5.26,5.26,0,0,0,44.23,5.56Z"/><path class="cls-1" d="M40.78,3c0-.06,0-.21-.13-.18l-.29.15a1.59,1.59,0,0,0-.44.34,2.55,2.55,0,0,0-.62.89c0,.12-.17,1.22-.4,1s-.1-.39-.11-.51,0-.37-.16-.39-.33.39-.4.58a2.46,2.46,0,0,0-.06.77,4.48,4.48,0,0,0,.32,1.46c.14.31.06,1.49.49.52.13-.3.61-.22.91-.35a2.81,2.81,0,0,0,.83-.49A1.9,1.9,0,0,0,41.24,5,5.25,5.25,0,0,0,40.78,3Z"/><path class="cls-1" d="M45.66,19.44l-.29.15a1.59,1.59,0,0,0-.44.34,2.55,2.55,0,0,0-.62.89c0,.12-.18,1.22-.4,1s-.1-.39-.11-.51,0-.37-.16-.39-.33.39-.4.58a2.47,2.47,0,0,0-.06.77,4.47,4.47,0,0,0,.32,1.46c.14.31.06,1.49.49.52.13-.3.61-.22.91-.35a2.81,2.81,0,0,0,.83-.49,1.9,1.9,0,0,0,.51-1.82,5.25,5.25,0,0,0-.46-2C45.75,19.56,45.76,19.41,45.66,19.44Z"/><path class="cls-1" d="M46.6,11.6c.13-.3.61-.22.91-.35a2.82,2.82,0,0,0,.83-.49,1.9,1.9,0,0,0,.51-1.82,5.25,5.25,0,0,0-.46-2c0-.06,0-.21-.13-.18L48,6.9a1.58,1.58,0,0,0-.44.34,2.55,2.55,0,0,0-.62.89c0,.12-.17,1.22-.4,1s-.1-.39-.11-.51,0-.37-.16-.39-.33.39-.4.58a2.47,2.47,0,0,0-.06.77,4.48,4.48,0,0,0,.32,1.46C46.25,11.39,46.17,12.57,46.6,11.6Z"/><path class="cls-1" d="M40.91,10.35c-.12,0-.17.29-.19.37s0,.44-.15.5-.28-1-.31-1.08a2.55,2.55,0,0,0-.55-.94,1.59,1.59,0,0,0-.41-.38L39,8.66c-.1,0-.11.11-.14.17a5.26,5.26,0,0,0-.63,2,1.9,1.9,0,0,0,.35,1.86,2.81,2.81,0,0,0,.79.56c.29.15.77.12.88.42.34,1,.36-.17.53-.47a4.46,4.46,0,0,0,.44-1.42,2.47,2.47,0,0,0,0-.77C41.2,10.76,41.12,10.44,40.91,10.35Z"/><path class="cls-1" d="M54,16.56l-.33,0a1.58,1.58,0,0,0-.56,0,2.54,2.54,0,0,0-1,.39c-.09.08-.82.92-.91.65s.13-.38.19-.49.18-.33.09-.41-.49.14-.65.27a2.47,2.47,0,0,0-.47.61,3.37,3.37,0,0,0-.32.65l0-.13a.13.13,0,0,0-.1-.14.13.13,0,0,0-.15.1,11.65,11.65,0,0,1-.94,2.52,1.32,1.32,0,0,0-.46-.37c-.15-.09-.33-.2-.33-.28s0-.1.21-.24a.13.13,0,0,0-.12-.22,1.28,1.28,0,0,0-.61,1.47,1,1,0,0,0,.44.57c.26.18.26.18.08.45a16.17,16.17,0,0,1-2.55,3,20,20,0,0,1-3.12,2.32l0,0a4.48,4.48,0,0,0,.42-1.43,2.48,2.48,0,0,0,0-.77c-.05-.2-.14-.52-.35-.61s-.17.29-.18.38,0,.44-.15.5-.3-1-.32-1.07a2.55,2.55,0,0,0-.56-.93,1.58,1.58,0,0,0-.42-.37l-.28-.17c-.1,0-.11.11-.14.17a5.25,5.25,0,0,0-.6,2,1.9,1.9,0,0,0,.38,1.85,2.82,2.82,0,0,0,.8.54c.25.13.65.11.83.31l-1.7,1-.67.38a2.53,2.53,0,0,0-.24-.64,1.53,1.53,0,0,1-.23-.77c0-.19.26-.23.46-.23a1.76,1.76,0,0,1,.3,0,.13.13,0,0,0,.07-.24A1.62,1.62,0,0,0,39.3,27,2,2,0,0,0,37.43,28a1.44,1.44,0,0,0-.07,1.31,2.88,2.88,0,0,1,.13.59c0,.29-.15.42-.43.62l-.21.15c-.3.24-.6.49-.88.74s-.48.44-.71.66c0-.05,0-.1,0-.15a1.6,1.6,0,0,0-.06-.49c0-.12-.13-.33-.27-.36s-.09.2-.09.26,0,.28-.06.33-.26-.59-.29-.66a1.64,1.64,0,0,0-.43-.55,1,1,0,0,0-.29-.21l-.19-.09c-.07,0-.06.08-.08.12a3.38,3.38,0,0,0-.24,1.31,1.22,1.22,0,0,0,.38,1.16,1.82,1.82,0,0,0,.55.29l.13,0a15.5,15.5,0,0,0-2.42,3.74,26.86,26.86,0,0,1,1.22-7.53,2.14,2.14,0,0,0,2.32-.24,2.33,2.33,0,0,0,1.06-2.3.13.13,0,0,0-.13-.1.13.13,0,0,0-.12.11c-.07.71-.26,1-.62.9a2.53,2.53,0,0,1-.72-.37,3.55,3.55,0,0,0-.61-.34,16.15,16.15,0,0,1,3.11-3.39,25.16,25.16,0,0,1,3.3-2.2l.71-.42a24.32,24.32,0,0,0,2.08-1.39c.3-.23.6-.47.89-.71l.14-.12c.19-.18.31-.27.51-.21a1.53,1.53,0,0,1,.37.2,1.36,1.36,0,0,0,.62.26,1.83,1.83,0,0,0,.95-.21c.5-.25,1.18-.87,1-1.57a.13.13,0,0,0-.12-.1h0a.13.13,0,0,0-.13.1c0,.13-.15.56-.38.56a.41.41,0,0,1-.22-.09l-.13-.1A2.75,2.75,0,0,0,46.3,17a12.63,12.63,0,0,0,2.62-4.1c.05,0,.17,0,.41-.17s.64.15,1,.22a2.82,2.82,0,0,0,1,.06,1.9,1.9,0,0,0,1.44-1.23,5.26,5.26,0,0,0,.73-1.93c0-.06.1-.19,0-.22l-.33,0a1.58,1.58,0,0,0-.56,0,2.54,2.54,0,0,0-1,.39c-.09.08-.82.92-.91.65s.14-.38.19-.49.18-.33.09-.41-.49.14-.65.27a2.47,2.47,0,0,0-.47.61,3.44,3.44,0,0,0-.35.73,10.09,10.09,0,0,0,.2-1.09.13.13,0,0,0-.1-.14.13.13,0,0,0-.15.1,11.64,11.64,0,0,1-.94,2.52,1.32,1.32,0,0,0-.46-.37c-.15-.09-.33-.2-.33-.28s0-.1.21-.24a.13.13,0,0,0-.12-.22,1.28,1.28,0,0,0-.61,1.47,1,1,0,0,0,.44.57c.26.18.26.18.08.45a16.2,16.2,0,0,1-2.55,3,20.56,20.56,0,0,1-3.36,2.46l0-.08a4.47,4.47,0,0,0,.42-1.43,2.46,2.46,0,0,0,0-.77c-.05-.2-.14-.52-.35-.61s-.17.29-.18.38,0,.44-.15.5-.3-1-.32-1.07a2.55,2.55,0,0,0-.56-.93,1.59,1.59,0,0,0-.42-.37L39.89,15c-.1,0-.11.11-.14.17a5.26,5.26,0,0,0-.6,2A1.9,1.9,0,0,0,39.54,19a2.81,2.81,0,0,0,.8.54c.26.13.68.11.84.33l-1.49.86-.68.39a2.52,2.52,0,0,0-.24-.65,1.54,1.54,0,0,1-.23-.77c0-.19.26-.23.46-.23a1.76,1.76,0,0,1,.3,0,.13.13,0,0,0,.07-.24,1.6,1.6,0,0,0-.49-.12A2,2,0,0,0,37,20.27a1.44,1.44,0,0,0-.07,1.31,2.89,2.89,0,0,1,.13.59c0,.29-.15.42-.43.62l-.21.15-.48.39a1.24,1.24,0,0,0-.06-.39c0-.12-.13-.33-.27-.36s-.09.2-.09.26,0,.28-.06.33-.26-.59-.29-.66a1.64,1.64,0,0,0-.43-.55,1,1,0,0,0-.29-.21l-.19-.09c-.07,0-.06.08-.08.12A3.38,3.38,0,0,0,34,23.08a1.22,1.22,0,0,0,.38,1.16,1.53,1.53,0,0,0,.37.22c-.24.24-.48.49-.69.73a16.08,16.08,0,0,0-1.32,1.72.39.39,0,0,0-.21-.22c-.08,0-.09.2-.09.26s0,.28-.06.33-.26-.59-.29-.66a1.64,1.64,0,0,0-.43-.55,1,1,0,0,0-.29-.21l-.19-.09c-.07,0-.06.08-.08.12a3.38,3.38,0,0,0-.24,1.31,1.22,1.22,0,0,0,.38,1.16,1.71,1.71,0,0,0,.5.27,14.29,14.29,0,0,0-1.41,4.74,19.41,19.41,0,0,0-.12,2.06l-.08-.2a21.42,21.42,0,0,1-1.56-5.33c0-.22,0-.45,0-.67v0a1.54,1.54,0,0,0,1.36-.82,1.69,1.69,0,0,0,0-1.83.13.13,0,0,0-.23.11.84.84,0,0,1,0,.62.21.21,0,0,1-.16.09,1.75,1.75,0,0,1-.56,0,2.8,2.8,0,0,0-.45-.05,11.09,11.09,0,0,1,.81-2.49l.09-.06c.28-.18.64.15,1,.22a2.81,2.81,0,0,0,1,.06,1.9,1.9,0,0,0,1.44-1.23,5.25,5.25,0,0,0,.73-1.93c0-.06.1-.19,0-.22l-.33,0a1.58,1.58,0,0,0-.56,0,2.54,2.54,0,0,0-1,.39c-.09.08-.82.92-.91.65a.28.28,0,0,1,0-.25l.37-.52.34-.47a17.25,17.25,0,0,0,1-1.49c.13-.23.26-.47.38-.71l.05-.12c.07-.17.11-.24.24-.26a1,1,0,0,1,.29,0,1.05,1.05,0,0,0,.5,0,1.35,1.35,0,0,0,.57-.41,1.21,1.21,0,0,0,.24-1.36.13.13,0,0,0-.23.1.57.57,0,0,1,0,.4s-.08.05-.18,0l-.11,0a2.32,2.32,0,0,0-.59-.13,8.32,8.32,0,0,0,.27-.87l.24-.14c.28-.18.64.15,1,.22a2.82,2.82,0,0,0,1,.06,1.9,1.9,0,0,0,1.44-1.23,5.26,5.26,0,0,0,.73-1.93c0-.06.1-.19,0-.22l-.33,0a1.58,1.58,0,0,0-.56,0,2.54,2.54,0,0,0-1,.39c-.09.08-.82.92-.91.65s.13-.38.19-.49.18-.33.09-.41-.49.14-.65.27a2.47,2.47,0,0,0-.47.61,3.88,3.88,0,0,0-.44,1,8.36,8.36,0,0,0-.23-3.19.13.13,0,0,0-.15-.09h0a4.24,4.24,0,0,0-.44-1.28,2.48,2.48,0,0,0-.44-.63c-.16-.13-.41-.35-.64-.3s0,.34.07.41.25.37.17.5-.79-.61-.88-.69a2.55,2.55,0,0,0-1-.44A1.59,1.59,0,0,0,30,9.62l-.33,0c-.1,0,0,.15,0,.22a5.25,5.25,0,0,0,.63,2,1.9,1.9,0,0,0,1.37,1.3,2.82,2.82,0,0,0,1,0c.32,0,.7-.36,1-.17l.12.08a8.39,8.39,0,0,1,0,1.07,1.2,1.2,0,0,0-.36-.09c-.08,0-.25,0-.27-.07s0,0,.07-.18a.13.13,0,0,0-.2-.16,1,1,0,0,0,0,1.17.75.75,0,0,0,.47.27l.17,0a.82.82,0,0,1,0,.19,11.42,11.42,0,0,1-.83,2.64c-.09.21-.19.41-.3.61a4.38,4.38,0,0,0,.4-1.38,2.47,2.47,0,0,0,0-.77c-.05-.2-.14-.52-.35-.61s-.17.29-.18.38,0,.44-.15.5-.3-1-.32-1.07a2.55,2.55,0,0,0-.56-.93,1.59,1.59,0,0,0-.42-.37l-.28-.17c-.1,0-.11.11-.14.17a5.25,5.25,0,0,0-.6,2,1.9,1.9,0,0,0,.38,1.85,2.81,2.81,0,0,0,.8.54c.29.14.78.1.89.41a2.12,2.12,0,0,0,.1.25,29.79,29.79,0,0,1-1.75,2.48l-.3.4a2,2,0,0,0-.31-.32,1.06,1.06,0,0,1-.35-.42.09.09,0,0,1,0-.08.69.69,0,0,1,.4-.21.13.13,0,0,0,0-.25h0a1.18,1.18,0,0,0-.36.06,1.49,1.49,0,0,0-.94,1.26,1,1,0,0,0,.33.9,2,2,0,0,1,.25.34c.09.16,0,.28-.11.49l-.09.16c-.13.24-.26.49-.37.73s-.34.77-.48,1.14a11.07,11.07,0,0,0-1.5-2.75,12.63,12.63,0,0,0-1-1.16h0c.27-.14.62.17.93.23a2.82,2.82,0,0,0,1,.06,1.9,1.9,0,0,0,1.44-1.23,5.25,5.25,0,0,0,.73-1.93c0-.06.1-.19,0-.22l-.33,0a1.58,1.58,0,0,0-.56,0,2.54,2.54,0,0,0-1,.39c-.09.08-.82.92-.91.65s.14-.38.19-.49.18-.33.09-.41-.49.14-.65.27a2.46,2.46,0,0,0-.47.61,4.47,4.47,0,0,0-.54,1.39,1.72,1.72,0,0,1-.16.38l-.27-.26-.14-.12c-.18-.15-.29-.25-.25-.43a2,2,0,0,1,.13-.4,1,1,0,0,0,0-1,1.6,1.6,0,0,0-.92-.84l.11-.19a3.39,3.39,0,0,0,.47-1.24s.06-.12,0-.14l-.21,0a1,1,0,0,0-.36,0,1.64,1.64,0,0,0-.65.25c-.06,0-.53.59-.59.42s.09-.24.12-.31.11-.21.06-.26-.32.09-.42.17a1.59,1.59,0,0,0-.3.39,2.88,2.88,0,0,0-.35.89.86.86,0,0,1-.08.2,15.84,15.84,0,0,1-2.11-1.78c.24,0,.5.22.74.27a2.82,2.82,0,0,0,1,.06,1.9,1.9,0,0,0,1.44-1.23,5.25,5.25,0,0,0,.73-1.93c0-.06.1-.19,0-.22l-.33,0a1.58,1.58,0,0,0-.56,0,2.54,2.54,0,0,0-1,.39c-.09.08-.82.92-.91.65s.13-.38.19-.49.18-.33.09-.41-.49.14-.65.27a2.47,2.47,0,0,0-.47.61,4.47,4.47,0,0,0-.54,1.39,1,1,0,0,1-.07.21,11.31,11.31,0,0,1-1.47-2.07l-.08-.16a.81.81,0,0,1,.15-.1.75.75,0,0,0,.36-.4,1,1,0,0,0-.36-1.12.13.13,0,0,0-.14.21c.12.1.12.15.12.15s-.16.12-.23.15a1.15,1.15,0,0,0-.32.2,8.19,8.19,0,0,1-.48-1.77.13.13,0,0,0-.14-.11.13.13,0,0,0-.12.13c0,.06,0,.12,0,.19a3.11,3.11,0,0,0-.21-.45,2.48,2.48,0,0,0-.44-.63c-.16-.13-.41-.35-.64-.3s0,.34.07.41.25.37.17.5-.79-.61-.88-.69a2.55,2.55,0,0,0-1-.44,1.59,1.59,0,0,0-.56-.07l-.33,0c-.1,0,0,.15,0,.22a5.25,5.25,0,0,0,.63,2,1.9,1.9,0,0,0,1.37,1.3,2.82,2.82,0,0,0,1,0c.32,0,.7-.36,1-.17l.23.15a9,9,0,0,0,1.54,2.93,2.27,2.27,0,0,0-.52.3l-.09.06a.28.28,0,0,1-.13,0c-.11,0-.18-.21-.21-.39a.13.13,0,0,0-.25,0c-.15.51.31,1,.65,1.21a1.35,1.35,0,0,0,.68.21,1,1,0,0,0,.47-.15,1.06,1.06,0,0,1,.27-.11c.13,0,.19,0,.31.17l.09.1c.19.19.39.38.58.56a17.35,17.35,0,0,0,1.38,1.11l.47.34a17.83,17.83,0,0,1,2.19,1.75,11.42,11.42,0,0,1,2,2.53,2.78,2.78,0,0,0-.41.19,1.76,1.76,0,0,1-.52.21H25c-.07,0-.27,0-.28-.64a.13.13,0,0,0-.25,0,1.69,1.69,0,0,0,.62,1.72,1.55,1.55,0,0,0,1.61.33,19.23,19.23,0,0,1,.37,5.71l-.45-.39c-.29-.24-.59-.49-.9-.72l-.21-.15c-.29-.19-.47-.32-.45-.61a2.9,2.9,0,0,1,.12-.59,1.44,1.44,0,0,0-.1-1.3,2,2,0,0,0-1.9-1.05,1.61,1.61,0,0,0-.49.13.13.13,0,0,0,.08.24,1.72,1.72,0,0,1,.33,0c.27,0,.42.07.43.22a1.54,1.54,0,0,1-.21.77,2.52,2.52,0,0,0-.23.65l-.68-.37c-1.18-.64-2.32-1.25-3.4-2,.24,0,.5.22.75.27a2.81,2.81,0,0,0,1,.06,1.9,1.9,0,0,0,1.44-1.23,5.25,5.25,0,0,0,.73-1.93c0-.06.1-.19,0-.22l-.33,0a1.58,1.58,0,0,0-.56,0,2.54,2.54,0,0,0-1,.39c-.09.08-.82.92-.91.65s.13-.38.19-.49.18-.33.09-.41-.49.14-.65.27a2.47,2.47,0,0,0-.47.61,4.47,4.47,0,0,0-.54,1.39,1.48,1.48,0,0,1-.13.34A17.09,17.09,0,0,1,17,25.21a16.21,16.21,0,0,1-2.62-2.92c-.18-.26-.18-.26.07-.45a1,1,0,0,0,.42-.58,1.28,1.28,0,0,0-.65-1.45.13.13,0,0,0-.12.23c.2.14.22.21.22.23s-.18.2-.33.29a1.31,1.31,0,0,0-.45.38,11.87,11.87,0,0,1-.68-1.54.66.66,0,0,1,0-.11,4.48,4.48,0,0,0,.44-1.42,2.48,2.48,0,0,0,0-.77c0-.2-.13-.53-.34-.62s-.17.29-.19.37,0,.44-.15.5-.28-1-.31-1.08a2.54,2.54,0,0,0-.55-.94A1.59,1.59,0,0,0,11.4,15l-.28-.17c-.1,0-.11.11-.14.17a5.25,5.25,0,0,0-.63,2,1.9,1.9,0,0,0,.35,1.86,2.82,2.82,0,0,0,.79.56c.29.15.77.12.88.42s.24.46.3.33a12.63,12.63,0,0,0,3.08,5.06,2.75,2.75,0,0,0-.75.53l-.12.11a.4.4,0,0,1-.23.1c-.23,0-.35-.42-.39-.55a.12.12,0,0,0-.13-.1.13.13,0,0,0-.12.11c-.13.7.57,1.31,1.07,1.55a1.91,1.91,0,0,0,.82.2H16a1.35,1.35,0,0,0,.61-.28,1.54,1.54,0,0,1,.37-.21c.21-.07.34,0,.51.2l.14.12c.29.24.6.47.9.69s.79.54,1.23.82a3.49,3.49,0,0,0-.84-.12,2.47,2.47,0,0,0-.77.06c-.19.07-.51.18-.58.4s.3.15.39.15.44,0,.51.11-.93.37-1,.4a2.55,2.55,0,0,0-.88.63,1.59,1.59,0,0,0-.34.44l-.15.29c0,.1.12.1.18.12a5.25,5.25,0,0,0,2,.45,1.9,1.9,0,0,0,1.82-.52,2.81,2.81,0,0,0,.48-.84c.12-.3,0-.78.34-.91l.46.26a26.45,26.45,0,0,1,3.18,2,3.8,3.8,0,0,0-1-.18,2.47,2.47,0,0,0-.77.06c-.19.07-.51.18-.58.4s.3.15.39.15.44,0,.51.11-.93.37-1,.4a2.55,2.55,0,0,0-.88.63,1.59,1.59,0,0,0-.34.44l-.15.29c0,.1.12.1.18.12a5.26,5.26,0,0,0,2,.45,1.9,1.9,0,0,0,1.82-.52,2.81,2.81,0,0,0,.48-.84c.11-.26.06-.66.25-.85a15.7,15.7,0,0,1,2.51,2.76,3.54,3.54,0,0,0-.6.35,2.53,2.53,0,0,1-.71.38c-.35.1-.55-.18-.64-.89a.13.13,0,0,0-.25,0,2.34,2.34,0,0,0,1.11,2.27,2.15,2.15,0,0,0,2.32.19c1,2.91-.36,8.8-.36,8.86a16.31,16.31,0,0,0,1.94.42l1.43,0h0a.13.13,0,0,0,.09,0s1.78-.74,1.78-.78-1.42-5.62-.49-8.52a2.14,2.14,0,0,0,2.32-.24,2.34,2.34,0,0,0,1.06-2.3.13.13,0,0,0-.25,0c-.07.71-.26,1-.62.9a2.52,2.52,0,0,1-.72-.37,3.56,3.56,0,0,0-.61-.34,16.15,16.15,0,0,1,3.11-3.39l.57-.44c.21.15.24.55.39.78a2.81,2.81,0,0,0,.63.73,1.9,1.9,0,0,0,1.88.17,5.25,5.25,0,0,0,1.89-.82c.05,0,.2-.06.15-.16l-.2-.26a1.59,1.59,0,0,0-.42-.37,2.55,2.55,0,0,0-1-.45c-.12,0-1.23,0-1.1-.2s.37-.17.48-.2.36-.1.35-.22-.44-.25-.65-.28a1.77,1.77,0,0,0-.56,0l.85-.51.71-.42a24.45,24.45,0,0,0,2.08-1.39c.3-.23.6-.47.89-.71l.14-.12c.19-.18.31-.27.51-.21a1.53,1.53,0,0,1,.37.2,1.35,1.35,0,0,0,.62.26,1.83,1.83,0,0,0,.95-.21c.5-.25,1.18-.87,1-1.57a.13.13,0,0,0-.12-.1h0a.13.13,0,0,0-.13.1c0,.13-.15.56-.38.56a.41.41,0,0,1-.22-.09l-.13-.1a2.74,2.74,0,0,0-.76-.51,12.64,12.64,0,0,0,2.94-5l.25-.14c.27-.18.64.15,1,.22a2.82,2.82,0,0,0,1,.06,1.9,1.9,0,0,0,1.44-1.23A5.26,5.26,0,0,0,54,16.78C54,16.71,54.09,16.59,54,16.56ZM23.3,19.63a2,2,0,0,0-.2.4l-.41-.28-.89-.62c.15,0,.31.14.46.17a1.82,1.82,0,0,0,.62,0,1,1,0,0,0,.58-.29.1.1,0,0,1,0,.08A1.06,1.06,0,0,1,23.3,19.63Z"/><path class="cls-1" d="M50.9,15.64a2,2,0,0,0,.55-.63,1.23,1.23,0,0,0,.18-.39c0-.08,0-.16.06-.25s-.11-.05-.16-.06a4,4,0,0,0-1.59,0,1.46,1.46,0,0,0-1.27.71,2.17,2.17,0,0,0-.21.71c0,.24.1.59-.1.75-.65.49.22.22.47.27a3.45,3.45,0,0,0,1.15,0,1.91,1.91,0,0,0,.56-.18c.13-.08.35-.22.37-.4s-.25-.06-.32,0-.33.1-.4,0S50.82,15.68,50.9,15.64Z"/><circle class="cls-2" cx="12.85" cy="64.93" r="12.85"/><circle class="cls-3" cx="12.67" cy="64.75" r="10.56"/><circle class="cls-2" cx="12.85" cy="64.93" r="7.57"/><circle class="cls-3" cx="12.85" cy="64.93" r="5.1"/><path class="cls-4" d="M45.14,58.42A12.94,12.94,0,1,1,32.2,45.65,12.86,12.86,0,0,1,45.14,58.42Z"/><circle class="cls-4" cx="32.03" cy="58.42" r="6.78"/><path class="cls-5" d="M35.33,58.42a3.14,3.14,0,1,1-3.13-3.31A3.23,3.23,0,0,1,35.33,58.42Z"/><circle class="cls-6" cx="51.71" cy="54.81" r="11.73"/><circle class="cls-7" cx="51.71" cy="54.81" r="6.14"/><circle class="cls-8" cx="51.67" cy="54.86" r="3.34"/><circle class="cls-9" cx="33.55" cy="78.34" r="10.6"/><circle class="cls-10" cx="33.55" cy="78.34" r="5.52"/><circle class="cls-11" cx="33.51" cy="78.39" r="3"/><circle class="cls-2" cx="12.85" cy="64.93" r="3.7"/><circle class="cls-12" cx="12.67" cy="65.11" r="2.82"/><path class="cls-13" d="M75.45,22.76a5,5,0,0,1-2-1,1.84,1.84,0,0,1-.62-1.41,1.94,1.94,0,0,1,.76-1.57,3,3,0,0,1,2-.62,3.29,3.29,0,0,1,1.48.32,2.43,2.43,0,0,1,1,.88,2.26,2.26,0,0,1,.36,1.23H77.34a1.47,1.47,0,0,0-.46-1.15,1.88,1.88,0,0,0-1.31-.42,1.93,1.93,0,0,0-1.22.35,1.15,1.15,0,0,0-.44,1,1,1,0,0,0,.42.83,4.09,4.09,0,0,0,1.42.62,6.59,6.59,0,0,1,1.57.62,2.37,2.37,0,0,1,.84.79,2,2,0,0,1,.27,1.06,1.88,1.88,0,0,1-.76,1.56,3.25,3.25,0,0,1-2,.59,3.78,3.78,0,0,1-1.55-.32A2.6,2.6,0,0,1,73,25.27,2.12,2.12,0,0,1,72.59,24h1.06a1.38,1.38,0,0,0,.54,1.15,2.27,2.27,0,0,0,1.44.42,2.08,2.08,0,0,0,1.29-.34,1.11,1.11,0,0,0,.45-.93,1.09,1.09,0,0,0-.41-.91A4.78,4.78,0,0,0,75.45,22.76Z"/><path class="cls-13" d="M83.31,26.35a2.13,2.13,0,0,1-.14-.63,2.28,2.28,0,0,1-1.7.74A2.11,2.11,0,0,1,80,26a1.62,1.62,0,0,1-.57-1.27,1.69,1.69,0,0,1,.71-1.45,3.34,3.34,0,0,1,2-.52h1v-.47a1.15,1.15,0,0,0-.32-.85,1.29,1.29,0,0,0-.94-.32,1.49,1.49,0,0,0-.92.28.81.81,0,0,0-.37.67h-1a1.41,1.41,0,0,1,.32-.86,2.17,2.17,0,0,1,.86-.66,2.9,2.9,0,0,1,1.19-.24,2.36,2.36,0,0,1,1.62.52,1.86,1.86,0,0,1,.61,1.42v2.75a3.35,3.35,0,0,0,.21,1.31v.09Zm-1.69-.78a1.79,1.79,0,0,0,.91-.25,1.5,1.5,0,0,0,.62-.65V23.45h-.8q-1.88,0-1.88,1.1a.93.93,0,0,0,.32.75A1.23,1.23,0,0,0,81.61,25.57Z"/><path class="cls-13" d="M88.66,21.29a3.1,3.1,0,0,0-.5,0,1.35,1.35,0,0,0-1.36.86v4.24h-1v-6h1l0,.69a1.59,1.59,0,0,1,1.42-.8,1,1,0,0,1,.45.08Z"/><path class="cls-13" d="M93.06,26.35a2.13,2.13,0,0,1-.14-.63,2.28,2.28,0,0,1-1.7.74,2.11,2.11,0,0,1-1.45-.5,1.62,1.62,0,0,1-.57-1.27,1.69,1.69,0,0,1,.71-1.45,3.34,3.34,0,0,1,2-.52h1v-.47a1.15,1.15,0,0,0-.32-.85,1.29,1.29,0,0,0-.94-.32,1.49,1.49,0,0,0-.92.28.81.81,0,0,0-.37.67h-1a1.41,1.41,0,0,1,.32-.86,2.17,2.17,0,0,1,.86-.66,2.9,2.9,0,0,1,1.19-.24,2.36,2.36,0,0,1,1.62.52,1.86,1.86,0,0,1,.61,1.42v2.75a3.35,3.35,0,0,0,.21,1.31v.09Zm-1.69-.78a1.79,1.79,0,0,0,.91-.25,1.5,1.5,0,0,0,.62-.65V23.45h-.8q-1.88,0-1.88,1.1a.93.93,0,0,0,.32.75A1.23,1.23,0,0,0,91.37,25.57Z"/><path class="cls-13" d="M99,24.76a.75.75,0,0,0-.31-.64,3,3,0,0,0-1.09-.39,5.17,5.17,0,0,1-1.23-.4,1.76,1.76,0,0,1-.67-.55,1.32,1.32,0,0,1-.22-.76,1.55,1.55,0,0,1,.62-1.24,2.43,2.43,0,0,1,1.59-.51,2.49,2.49,0,0,1,1.65.52,1.66,1.66,0,0,1,.63,1.34h-1a.92.92,0,0,0-.36-.72,1.33,1.33,0,0,0-.9-.3,1.4,1.4,0,0,0-.87.24.76.76,0,0,0-.31.63.62.62,0,0,0,.29.56,3.59,3.59,0,0,0,1.06.36,5.51,5.51,0,0,1,1.24.41,1.81,1.81,0,0,1,.7.57,1.4,1.4,0,0,1,.23.81A1.53,1.53,0,0,1,99.38,26a2.68,2.68,0,0,1-1.66.48,3,3,0,0,1-1.27-.25,2.07,2.07,0,0,1-.86-.71,1.71,1.71,0,0,1-.31-1h1a1.05,1.05,0,0,0,.41.81,1.59,1.59,0,0,0,1,.3,1.65,1.65,0,0,0,.93-.23A.72.72,0,0,0,99,24.76Z"/><path class="cls-13" d="M106.64,24.94l1.15-4.56h1l-1.74,6h-.83l-1.45-4.53-1.41,4.53h-.83l-1.73-6h1L103,24.84l1.39-4.47h.82Z"/><path class="cls-13" d="M113.53,26.35a2.13,2.13,0,0,1-.14-.63,2.28,2.28,0,0,1-1.7.74,2.11,2.11,0,0,1-1.45-.5,1.62,1.62,0,0,1-.57-1.27,1.69,1.69,0,0,1,.71-1.45,3.34,3.34,0,0,1,2-.52h1v-.47a1.15,1.15,0,0,0-.32-.85,1.29,1.29,0,0,0-.94-.32,1.49,1.49,0,0,0-.92.28.81.81,0,0,0-.37.67h-1a1.41,1.41,0,0,1,.32-.86,2.17,2.17,0,0,1,.86-.66,2.9,2.9,0,0,1,1.19-.24,2.36,2.36,0,0,1,1.62.52,1.86,1.86,0,0,1,.61,1.42v2.75a3.35,3.35,0,0,0,.21,1.31v.09Zm-1.69-.78a1.79,1.79,0,0,0,.91-.25,1.5,1.5,0,0,0,.62-.65V23.45h-.8q-1.88,0-1.88,1.1a.93.93,0,0,0,.32.75A1.23,1.23,0,0,0,111.83,25.57Z"/><path class="cls-13" d="M117.37,18.93v1.45h1.11v.79h-1.11v3.71a.83.83,0,0,0,.15.54.63.63,0,0,0,.51.18,2.49,2.49,0,0,0,.49-.07v.82a3,3,0,0,1-.78.11,1.27,1.27,0,0,1-1-.41,1.78,1.78,0,0,1-.35-1.18v-3.7h-1.09v-.79h1.09V18.93Z"/><path class="cls-13" d="M119.69,18.79a.61.61,0,0,1,.15-.42.57.57,0,0,1,.45-.17.58.58,0,0,1,.45.17.6.6,0,0,1,.15.42.58.58,0,0,1-.15.41.59.59,0,0,1-.45.17.58.58,0,0,1-.45-.17A.59.59,0,0,1,119.69,18.79Zm1.1,7.56h-1v-6h1Z"/><path class="cls-13" d="M129.52,22.63H126v2.85h4v.87H125v-8h5v.87h-4v2.59h3.48Z"/><path class="cls-13" d="M130.89,23.31a3.5,3.5,0,0,1,.65-2.21,2.22,2.22,0,0,1,3.37-.12V17.87h1v8.48H135l0-.64a2.08,2.08,0,0,1-1.71.75,2,2,0,0,1-1.69-.85,3.54,3.54,0,0,1-.65-2.22Zm1,.12a2.65,2.65,0,0,0,.42,1.59,1.35,1.35,0,0,0,1.16.57,1.49,1.49,0,0,0,1.42-.87V22a1.5,1.5,0,0,0-1.41-.84,1.36,1.36,0,0,0-1.17.58A2.91,2.91,0,0,0,131.91,23.43Z"/><path class="cls-13" d="M141.2,25.75a2.17,2.17,0,0,1-1.75.7A1.86,1.86,0,0,1,138,25.9a2.4,2.4,0,0,1-.5-1.64V20.37h1v3.86q0,1.36,1.1,1.36a1.53,1.53,0,0,0,1.56-.87V20.37h1v6h-1Z"/><path class="cls-13" d="M146.14,25.62a1.47,1.47,0,0,0,1-.33,1.16,1.16,0,0,0,.45-.83h1a1.85,1.85,0,0,1-.35,1,2.33,2.33,0,0,1-.87.74,2.51,2.51,0,0,1-1.15.28,2.46,2.46,0,0,1-1.94-.81,3.24,3.24,0,0,1-.72-2.23v-.17a3.6,3.6,0,0,1,.32-1.55,2.44,2.44,0,0,1,.92-1.05,2.61,2.61,0,0,1,1.42-.38,2.4,2.4,0,0,1,1.67.6,2.15,2.15,0,0,1,.71,1.56h-1a1.41,1.41,0,0,0-.44-1,1.36,1.36,0,0,0-1-.37,1.43,1.43,0,0,0-1.21.56,2.63,2.63,0,0,0-.43,1.62v.19a2.58,2.58,0,0,0,.42,1.59A1.44,1.44,0,0,0,146.14,25.62Z"/><path class="cls-13" d="M153.35,26.35a2.13,2.13,0,0,1-.14-.63,2.28,2.28,0,0,1-1.7.74,2.11,2.11,0,0,1-1.45-.5,1.62,1.62,0,0,1-.57-1.27,1.69,1.69,0,0,1,.71-1.45,3.34,3.34,0,0,1,2-.52h1v-.47a1.15,1.15,0,0,0-.32-.85,1.29,1.29,0,0,0-.94-.32,1.49,1.49,0,0,0-.92.28.81.81,0,0,0-.37.67h-1a1.41,1.41,0,0,1,.32-.86,2.17,2.17,0,0,1,.86-.66,2.9,2.9,0,0,1,1.19-.24,2.36,2.36,0,0,1,1.62.52,1.86,1.86,0,0,1,.61,1.42v2.75a3.35,3.35,0,0,0,.21,1.31v.09Zm-1.69-.78a1.79,1.79,0,0,0,.91-.25,1.5,1.5,0,0,0,.62-.65V23.45h-.8q-1.88,0-1.88,1.1a.93.93,0,0,0,.32.75A1.23,1.23,0,0,0,151.65,25.57Z"/><path class="cls-13" d="M157.19,18.93v1.45h1.11v.79h-1.11v3.71a.83.83,0,0,0,.15.54.63.63,0,0,0,.51.18,2.49,2.49,0,0,0,.49-.07v.82a3,3,0,0,1-.78.11,1.27,1.27,0,0,1-1-.41,1.78,1.78,0,0,1-.35-1.18v-3.7h-1.09v-.79h1.09V18.93Z"/><path class="cls-13" d="M159.51,18.79a.61.61,0,0,1,.15-.42.57.57,0,0,1,.45-.17.58.58,0,0,1,.45.17.6.6,0,0,1,.15.42.58.58,0,0,1-.15.41.59.59,0,0,1-.45.17.58.58,0,0,1-.45-.17A.59.59,0,0,1,159.51,18.79Zm1.1,7.56h-1v-6h1Z"/><path class="cls-13" d="M162,23.3a3.53,3.53,0,0,1,.35-1.58,2.57,2.57,0,0,1,1-1.08,2.61,2.61,0,0,1,1.4-.38,2.52,2.52,0,0,1,2,.84,3.25,3.25,0,0,1,.75,2.25v.07a3.55,3.55,0,0,1-.33,1.56,2.53,2.53,0,0,1-1,1.08,2.65,2.65,0,0,1-1.43.39,2.51,2.51,0,0,1-2-.84,3.23,3.23,0,0,1-.75-2.24Zm1,.12a2.56,2.56,0,0,0,.46,1.6,1.56,1.56,0,0,0,2.47,0,2.8,2.8,0,0,0,.46-1.71,2.55,2.55,0,0,0-.47-1.59,1.48,1.48,0,0,0-1.24-.61,1.47,1.47,0,0,0-1.22.6A2.77,2.77,0,0,0,163,23.43Z"/><path class="cls-13" d="M169.65,20.37l0,.75a2.18,2.18,0,0,1,1.79-.86q1.89,0,1.91,2.14v3.95h-1v-4a1.38,1.38,0,0,0-.29-1,1.19,1.19,0,0,0-.9-.31,1.47,1.47,0,0,0-.87.26,1.8,1.8,0,0,0-.58.7v4.25h-1v-6Z"/><path class="cls-13" d="M180.25,22.76a5,5,0,0,1-2-1,1.84,1.84,0,0,1-.62-1.41,1.94,1.94,0,0,1,.76-1.57,3,3,0,0,1,2-.62,3.29,3.29,0,0,1,1.48.32,2.43,2.43,0,0,1,1,.88,2.26,2.26,0,0,1,.36,1.23h-1.06a1.47,1.47,0,0,0-.46-1.15,1.88,1.88,0,0,0-1.31-.42,1.93,1.93,0,0,0-1.22.35,1.15,1.15,0,0,0-.44,1,1,1,0,0,0,.42.83,4.09,4.09,0,0,0,1.42.62,6.59,6.59,0,0,1,1.57.62,2.37,2.37,0,0,1,.84.79,2,2,0,0,1,.27,1.06,1.88,1.88,0,0,1-.76,1.56,3.25,3.25,0,0,1-2,.59,3.78,3.78,0,0,1-1.55-.32,2.6,2.6,0,0,1-1.11-.87,2.12,2.12,0,0,1-.39-1.25h1.06a1.38,1.38,0,0,0,.54,1.15,2.27,2.27,0,0,0,1.44.42,2.08,2.08,0,0,0,1.29-.34,1.11,1.11,0,0,0,.45-.93,1.09,1.09,0,0,0-.41-.91A4.78,4.78,0,0,0,180.25,22.76Z"/><path class="cls-13" d="M184.16,23.3a3.53,3.53,0,0,1,.35-1.58,2.57,2.57,0,0,1,1-1.08,2.61,2.61,0,0,1,1.4-.38,2.52,2.52,0,0,1,2,.84,3.25,3.25,0,0,1,.75,2.25v.07a3.55,3.55,0,0,1-.33,1.56,2.53,2.53,0,0,1-1,1.08,2.65,2.65,0,0,1-1.43.39,2.51,2.51,0,0,1-2-.84,3.23,3.23,0,0,1-.75-2.24Zm1,.12a2.56,2.56,0,0,0,.46,1.6,1.56,1.56,0,0,0,2.47,0,2.8,2.8,0,0,0,.46-1.71,2.55,2.55,0,0,0-.47-1.59,1.48,1.48,0,0,0-1.24-.61,1.47,1.47,0,0,0-1.22.6A2.77,2.77,0,0,0,185.18,23.43Z"/><path class="cls-13" d="M193.27,25.62a1.47,1.47,0,0,0,1-.33,1.16,1.16,0,0,0,.45-.83h1a1.85,1.85,0,0,1-.35,1,2.33,2.33,0,0,1-.87.74,2.51,2.51,0,0,1-1.15.28,2.46,2.46,0,0,1-1.94-.81,3.24,3.24,0,0,1-.72-2.23v-.17a3.6,3.6,0,0,1,.32-1.55,2.44,2.44,0,0,1,.92-1.05,2.61,2.61,0,0,1,1.42-.38,2.4,2.4,0,0,1,1.67.6,2.15,2.15,0,0,1,.71,1.56h-1a1.41,1.41,0,0,0-.44-1,1.36,1.36,0,0,0-1-.37,1.43,1.43,0,0,0-1.21.56,2.63,2.63,0,0,0-.43,1.62v.19a2.58,2.58,0,0,0,.42,1.59A1.44,1.44,0,0,0,193.27,25.62Z"/><path class="cls-13" d="M196.79,18.79a.61.61,0,0,1,.15-.42.57.57,0,0,1,.45-.17.58.58,0,0,1,.45.17.6.6,0,0,1,.15.42.58.58,0,0,1-.15.41.59.59,0,0,1-.45.17.58.58,0,0,1-.45-.17A.59.59,0,0,1,196.79,18.79Zm1.1,7.56h-1v-6h1Z"/><path class="cls-13" d="M202,26.46a2.61,2.61,0,0,1-2-.8,3,3,0,0,1-.76-2.13v-.19a3.58,3.58,0,0,1,.34-1.59,2.65,2.65,0,0,1,.95-1.09,2.39,2.39,0,0,1,1.32-.39,2.24,2.24,0,0,1,1.81.77,3.32,3.32,0,0,1,.65,2.2v.43h-4a2.12,2.12,0,0,0,.52,1.43,1.62,1.62,0,0,0,1.26.54,1.78,1.78,0,0,0,.92-.22,2.29,2.29,0,0,0,.66-.58l.62.49A2.51,2.51,0,0,1,202,26.46Zm-.13-5.35a1.36,1.36,0,0,0-1,.45,2.18,2.18,0,0,0-.52,1.26h3v-.08a2,2,0,0,0-.42-1.21A1.28,1.28,0,0,0,201.88,21.1Z"/><path class="cls-13" d="M206.9,18.93v1.45H208v.79H206.9v3.71a.83.83,0,0,0,.15.54.63.63,0,0,0,.51.18,2.49,2.49,0,0,0,.49-.07v.82a3,3,0,0,1-.78.11,1.27,1.27,0,0,1-1-.41,1.78,1.78,0,0,1-.35-1.18v-3.7H204.8v-.79h1.09V18.93Z"/><path class="cls-13" d="M211.16,24.85l1.39-4.48h1.09l-2.4,6.89q-.56,1.49-1.77,1.49l-.19,0-.38-.07v-.83l.28,0a1.36,1.36,0,0,0,.81-.21,1.52,1.52,0,0,0,.48-.77l.23-.61-2.13-5.9h1.11Z"/><path class="cls-13" d="M214.71,20.57l-.58-.4a2.65,2.65,0,0,0,.53-1.51v-.79h1v.72a2.73,2.73,0,0,1-1,2Z"/><path class="cls-13" d="M219.76,24.76a.75.75,0,0,0-.31-.64,3,3,0,0,0-1.09-.39,5.17,5.17,0,0,1-1.23-.4,1.76,1.76,0,0,1-.67-.55,1.32,1.32,0,0,1-.22-.76,1.55,1.55,0,0,1,.62-1.24,2.43,2.43,0,0,1,1.59-.51,2.49,2.49,0,0,1,1.65.52,1.66,1.66,0,0,1,.63,1.34h-1a.92.92,0,0,0-.36-.72,1.33,1.33,0,0,0-.9-.3,1.4,1.4,0,0,0-.87.24.76.76,0,0,0-.31.63.62.62,0,0,0,.29.56,3.59,3.59,0,0,0,1.06.36,5.51,5.51,0,0,1,1.24.41,1.81,1.81,0,0,1,.7.57,1.4,1.4,0,0,1,.23.81,1.53,1.53,0,0,1-.64,1.28,2.68,2.68,0,0,1-1.66.48,3,3,0,0,1-1.27-.25,2.07,2.07,0,0,1-.86-.71,1.71,1.71,0,0,1-.31-1h1a1.05,1.05,0,0,0,.41.81,1.59,1.59,0,0,0,1,.3,1.65,1.65,0,0,0,.93-.23A.72.72,0,0,0,219.76,24.76Z"/><path class="cls-14" d="M76,49.1a5.23,5.23,0,0,1-2.1-.42,4.44,4.44,0,0,1-1.71-1.33l.87-.73a3.81,3.81,0,0,0,1.28,1.07,3.61,3.61,0,0,0,1.7.4,2.68,2.68,0,0,0,1-.18,2.33,2.33,0,0,0,.77-.49,2.16,2.16,0,0,0,.49-.73,2.31,2.31,0,0,0,.17-.9,1.73,1.73,0,0,0-.16-.76,2,2,0,0,0-.42-.58,2.62,2.62,0,0,0-.63-.44q-.36-.19-.76-.34l-1.36-.53a7.19,7.19,0,0,1-.92-.43,3.19,3.19,0,0,1-.77-.6,2.83,2.83,0,0,1-.53-.82,2.77,2.77,0,0,1-.2-1.1A2.63,2.63,0,0,1,73,39a2.91,2.91,0,0,1,.71-.93,3.47,3.47,0,0,1,1.07-.63,3.75,3.75,0,0,1,1.33-.23,4.38,4.38,0,0,1,1.71.29,4.88,4.88,0,0,1,1.29.82l-.73.83a3.45,3.45,0,0,0-1-.68,3.18,3.18,0,0,0-1.27-.24,2.49,2.49,0,0,0-.85.14,2,2,0,0,0-.68.4,1.93,1.93,0,0,0-.46.61,1.73,1.73,0,0,0-.17.76,1.51,1.51,0,0,0,.14.68,1.81,1.81,0,0,0,.38.51,2.58,2.58,0,0,0,.56.4,5.94,5.94,0,0,0,.69.31L77,42.6a8.44,8.44,0,0,1,1,.46,3.78,3.78,0,0,1,.85.63,2.82,2.82,0,0,1,.59.88,3,3,0,0,1,.22,1.2,3.07,3.07,0,0,1-.28,1.31,3.29,3.29,0,0,1-.78,1.06,3.58,3.58,0,0,1-1.17.7A4.07,4.07,0,0,1,76,49.1Z"/><path class="cls-15" d="M85.69,36.85l5.15,12.09H89.53l-3.84-9.18-3.88,9.18H80.5Z"/><path class="cls-14" d="M93.26,48.95H92.06V37.4h4.12a6.69,6.69,0,0,1,1.08.08A3.32,3.32,0,0,1,99.56,39a3.51,3.51,0,0,1,.51,1.91,4,4,0,0,1-.25,1.43,3.84,3.84,0,0,1-.63,1.1,2.92,2.92,0,0,1-.88.72,2.62,2.62,0,0,1-1,.31l1.44,2.24,1.42,2.23H98.76l-1.39-2.18L96,44.56v-1l.83,0a3,3,0,0,0,.67-.13,1.43,1.43,0,0,0,.55-.32,2.28,2.28,0,0,0,.43-.55,3,3,0,0,0,.29-.73,3.31,3.31,0,0,0,.1-.83,2.76,2.76,0,0,0-.31-1.36,2.18,2.18,0,0,0-.84-.85A2.43,2.43,0,0,0,97,38.5a4.45,4.45,0,0,0-.83-.07H93.26Z"/><path class="cls-15" d="M106,36.85l5.15,12.09h-1.31L106,39.77l-3.88,9.18h-1.31Z"/><path class="cls-14" d="M115.6,49.1a5.23,5.23,0,0,1-2.1-.42,4.44,4.44,0,0,1-1.71-1.33l.87-.73a3.81,3.81,0,0,0,1.28,1.07,3.61,3.61,0,0,0,1.7.4,2.68,2.68,0,0,0,1-.18,2.33,2.33,0,0,0,.77-.49,2.16,2.16,0,0,0,.49-.73,2.31,2.31,0,0,0,.17-.9,1.73,1.73,0,0,0-.16-.76,2,2,0,0,0-.42-.58,2.62,2.62,0,0,0-.63-.44q-.36-.19-.76-.34l-1.36-.53a7.19,7.19,0,0,1-.92-.43,3.19,3.19,0,0,1-.77-.6,2.83,2.83,0,0,1-.53-.82,2.77,2.77,0,0,1-.2-1.1,2.63,2.63,0,0,1,.26-1.17,2.91,2.91,0,0,1,.71-.93,3.47,3.47,0,0,1,1.07-.63,3.75,3.75,0,0,1,1.33-.23,4.38,4.38,0,0,1,1.71.29,4.88,4.88,0,0,1,1.29.82l-.73.83a3.45,3.45,0,0,0-1-.68,3.18,3.18,0,0,0-1.27-.24,2.49,2.49,0,0,0-.85.14,2,2,0,0,0-.68.4,1.93,1.93,0,0,0-.46.61,1.73,1.73,0,0,0-.17.76,1.51,1.51,0,0,0,.14.68,1.81,1.81,0,0,0,.38.51,2.58,2.58,0,0,0,.56.4,5.94,5.94,0,0,0,.69.31l1.31.53a8.44,8.44,0,0,1,1,.46,3.78,3.78,0,0,1,.85.63,2.82,2.82,0,0,1,.59.88,3,3,0,0,1,.22,1.2,3.07,3.07,0,0,1-.28,1.31,3.29,3.29,0,0,1-.78,1.06,3.58,3.58,0,0,1-1.17.7A4.07,4.07,0,0,1,115.6,49.1Z"/><path class="cls-15" d="M120.08,37.4h1.25l3,8.77,3.82-9.34L132,46.15l2.91-8.75h1.27l-4.07,12-4-9.59-4,9.6Z"/><path class="cls-14" d="M141.78,36.85l5.15,12.09h-1.31l-3.84-9.18-3.88,9.18h-1.31Z"/><path class="cls-15" d="M150.44,38.42h-3.08v-1h7.35v1h-3.07V48.95h-1.21Z"/><path class="cls-14" d="M155.94,37.4h1.21V48.95h-1.21Z"/><path class="cls-13" d="M171.76,45.38a4.14,4.14,0,0,1-1.32,2.75,4.32,4.32,0,0,1-2.95,1,4,4,0,0,1-3.19-1.43,5.75,5.75,0,0,1-1.2-3.82V42.76a6.41,6.41,0,0,1,.56-2.76,4.19,4.19,0,0,1,1.59-1.83,4.42,4.42,0,0,1,2.38-.64,4.07,4.07,0,0,1,2.87,1,4.19,4.19,0,0,1,1.26,2.77h-1.49a3.24,3.24,0,0,0-.84-2,2.54,2.54,0,0,0-1.8-.6,2.65,2.65,0,0,0-2.23,1.05,4.83,4.83,0,0,0-.81,3v1.09a5,5,0,0,0,.76,2.92,2.47,2.47,0,0,0,2.14,1.08,2.85,2.85,0,0,0,1.9-.56,3.11,3.11,0,0,0,.88-2Z"/><path class="cls-13" d="M173.62,44.69a4.93,4.93,0,0,1,.48-2.21A3.6,3.6,0,0,1,175.45,41a3.66,3.66,0,0,1,2-.53,3.53,3.53,0,0,1,2.76,1.18,4.55,4.55,0,0,1,1.05,3.14v.1a5,5,0,0,1-.47,2.19,3.55,3.55,0,0,1-1.34,1.51,3.7,3.7,0,0,1-2,.54,3.52,3.52,0,0,1-2.75-1.18,4.52,4.52,0,0,1-1.05-3.13Zm1.44.17a3.58,3.58,0,0,0,.65,2.23,2.19,2.19,0,0,0,3.46,0,3.91,3.91,0,0,0,.64-2.39,3.57,3.57,0,0,0-.65-2.23,2.07,2.07,0,0,0-1.73-.85,2.05,2.05,0,0,0-1.71.84A3.88,3.88,0,0,0,175.06,44.86Z"/><path class="cls-13" d="M185,48.95h-1.43V37.08H185Z"/><path class="cls-13" d="M189.31,48.95h-1.43V37.08h1.43Z"/><path class="cls-13" d="M195.5,49.1A3.65,3.65,0,0,1,192.74,48a4.14,4.14,0,0,1-1.07-3v-.26a5,5,0,0,1,.48-2.22A3.7,3.7,0,0,1,193.48,41a3.34,3.34,0,0,1,1.85-.55,3.13,3.13,0,0,1,2.53,1.07,4.65,4.65,0,0,1,.9,3.07v.59H193.1a3,3,0,0,0,.72,2,2.27,2.27,0,0,0,1.76.76,2.49,2.49,0,0,0,1.28-.31,3.22,3.22,0,0,0,.92-.82l.87.68A3.51,3.51,0,0,1,195.5,49.1Zm-.18-7.49a1.91,1.91,0,0,0-1.45.63,3.06,3.06,0,0,0-.73,1.77h4.19v-.11a2.72,2.72,0,0,0-.59-1.69A1.79,1.79,0,0,0,195.33,41.61Z"/><path class="cls-13" d="M200.52,44.7a4.91,4.91,0,0,1,.9-3.11,3.12,3.12,0,0,1,4.78-.07l.07-.93h1.31v8.16a3.4,3.4,0,0,1-1,2.56,3.55,3.55,0,0,1-2.58.94,4.29,4.29,0,0,1-1.77-.39,3,3,0,0,1-1.32-1.06l.74-.86a2.79,2.79,0,0,0,2.25,1.14,2.19,2.19,0,0,0,1.63-.59,2.24,2.24,0,0,0,.58-1.65v-.72a2.94,2.94,0,0,1-2.34,1,2.86,2.86,0,0,1-2.38-1.18A5.17,5.17,0,0,1,200.52,44.7Zm1.44.16a3.75,3.75,0,0,0,.58,2.22,1.88,1.88,0,0,0,1.62.81,2.09,2.09,0,0,0,2-1.23V42.84a2.12,2.12,0,0,0-2-1.2,1.9,1.9,0,0,0-1.63.81A4.08,4.08,0,0,0,202,44.86Z"/><path class="cls-13" d="M213.65,49.1A3.65,3.65,0,0,1,210.88,48a4.14,4.14,0,0,1-1.07-3v-.26a5,5,0,0,1,.48-2.22A3.7,3.7,0,0,1,211.62,41a3.34,3.34,0,0,1,1.85-.55A3.13,3.13,0,0,1,216,41.51a4.65,4.65,0,0,1,.9,3.07v.59h-5.66a3,3,0,0,0,.72,2,2.27,2.27,0,0,0,1.76.76,2.49,2.49,0,0,0,1.28-.31,3.22,3.22,0,0,0,.92-.82l.87.68A3.51,3.51,0,0,1,213.65,49.1Zm-.18-7.49a1.91,1.91,0,0,0-1.45.63,3.06,3.06,0,0,0-.73,1.77h4.19v-.11a2.72,2.72,0,0,0-.59-1.69A1.79,1.79,0,0,0,213.47,41.61Z"/><path class="cls-13" d="M223,44.69a4.93,4.93,0,0,1,.48-2.21A3.6,3.6,0,0,1,224.82,41a3.66,3.66,0,0,1,2-.53,3.53,3.53,0,0,1,2.76,1.18,4.55,4.55,0,0,1,1.05,3.14v.1a5,5,0,0,1-.47,2.19,3.55,3.55,0,0,1-1.34,1.51,3.7,3.7,0,0,1-2,.54A3.52,3.52,0,0,1,224,47.92,4.52,4.52,0,0,1,223,44.79Zm1.44.17a3.58,3.58,0,0,0,.65,2.23,2.19,2.19,0,0,0,3.46,0,3.91,3.91,0,0,0,.64-2.39,3.57,3.57,0,0,0-.65-2.23,2.07,2.07,0,0,0-1.73-.85,2.05,2.05,0,0,0-1.71.84A3.88,3.88,0,0,0,224.43,44.86Z"/><path class="cls-13" d="M233.54,48.95V41.69h-1.32v-1.1h1.32v-.86a2.85,2.85,0,0,1,.72-2.08,2.71,2.71,0,0,1,2-.73,3.78,3.78,0,0,1,1,.13l-.08,1.15a4.1,4.1,0,0,0-.77-.07,1.39,1.39,0,0,0-1.07.41A1.65,1.65,0,0,0,235,39.7v.88h1.78v1.1H235v7.25Z"/><path class="cls-13" d="M79.61,64.09H74.74v4H80.4v1.21H73.26V58h7.07v1.21H74.74v3.62h4.88Z"/><path class="cls-13" d="M83.82,60.93l0,1.05a3,3,0,0,1,2.5-1.21q2.65,0,2.67,3v5.52H87.61V63.76a1.92,1.92,0,0,0-.41-1.34A1.66,1.66,0,0,0,85.94,62a2.06,2.06,0,0,0-1.22.37,2.52,2.52,0,0,0-.82,1v6H82.47V60.93Z"/><path class="cls-13" d="M91.3,65a4.91,4.91,0,0,1,.9-3.11A3.12,3.12,0,0,1,97,61.86l.07-.93h1.31v8.16a3.4,3.4,0,0,1-1,2.56,3.55,3.55,0,0,1-2.58.94A4.29,4.29,0,0,1,93,72.19a3,3,0,0,1-1.32-1.06l.74-.86a2.79,2.79,0,0,0,2.25,1.14,2.19,2.19,0,0,0,1.63-.59,2.24,2.24,0,0,0,.58-1.65v-.72a2.94,2.94,0,0,1-2.34,1,2.86,2.86,0,0,1-2.38-1.18A5.17,5.17,0,0,1,91.3,65Zm1.44.16a3.75,3.75,0,0,0,.58,2.22,1.88,1.88,0,0,0,1.62.81,2.09,2.09,0,0,0,2-1.23V63.19A2.12,2.12,0,0,0,95,62a1.9,1.9,0,0,0-1.63.81A4.08,4.08,0,0,0,92.74,65.2Z"/><path class="cls-13" d="M101,58.71a.85.85,0,0,1,.21-.59.8.8,0,0,1,.63-.24.81.81,0,0,1,.63.24.84.84,0,0,1,.22.59.85.85,0,1,1-1.69,0Zm1.55,10.58h-1.43V60.93h1.43Z"/><path class="cls-13" d="M106.6,60.93l0,1.05a3,3,0,0,1,2.5-1.21q2.65,0,2.67,3v5.52h-1.43V63.76a1.92,1.92,0,0,0-.41-1.34,1.66,1.66,0,0,0-1.26-.43,2.06,2.06,0,0,0-1.22.37,2.52,2.52,0,0,0-.82,1v6h-1.43V60.93Z"/><path class="cls-13" d="M117.89,69.44a3.65,3.65,0,0,1-2.77-1.12,4.14,4.14,0,0,1-1.07-3v-.26a5,5,0,0,1,.48-2.22,3.7,3.7,0,0,1,1.33-1.53,3.34,3.34,0,0,1,1.85-.55,3.13,3.13,0,0,1,2.53,1.07,4.65,4.65,0,0,1,.9,3.07v.59h-5.66a3,3,0,0,0,.72,2,2.27,2.27,0,0,0,1.76.76,2.49,2.49,0,0,0,1.28-.31,3.22,3.22,0,0,0,.92-.82l.87.68A3.51,3.51,0,0,1,117.89,69.44Zm-.18-7.49a1.91,1.91,0,0,0-1.45.63,3.06,3.06,0,0,0-.73,1.77h4.19v-.11a2.72,2.72,0,0,0-.59-1.69A1.79,1.79,0,0,0,117.71,61.95Z"/><path class="cls-13" d="M126.71,69.44a3.65,3.65,0,0,1-2.77-1.12,4.14,4.14,0,0,1-1.07-3v-.26a5,5,0,0,1,.48-2.22,3.7,3.7,0,0,1,1.33-1.53,3.34,3.34,0,0,1,1.85-.55,3.13,3.13,0,0,1,2.53,1.07,4.65,4.65,0,0,1,.9,3.07v.59h-5.66a3,3,0,0,0,.72,2,2.27,2.27,0,0,0,1.76.76,2.49,2.49,0,0,0,1.28-.31,3.22,3.22,0,0,0,.92-.82l.87.68A3.51,3.51,0,0,1,126.71,69.44Zm-.18-7.49a1.91,1.91,0,0,0-1.45.63,3.06,3.06,0,0,0-.73,1.77h4.19v-.11a2.72,2.72,0,0,0-.59-1.69A1.79,1.79,0,0,0,126.53,61.95Z"/><path class="cls-13" d="M136.11,62.21a4.33,4.33,0,0,0-.7-.05,1.88,1.88,0,0,0-1.91,1.2v5.93h-1.43V60.93h1.39l0,1a2.23,2.23,0,0,1,2-1.12,1.46,1.46,0,0,1,.63.11Z"/><path class="cls-13" d="M137.87,58.71a.85.85,0,0,1,.21-.59.8.8,0,0,1,.63-.24.81.81,0,0,1,.63.24.84.84,0,0,1,.22.59.85.85,0,1,1-1.69,0Zm1.55,10.58H138V60.93h1.43Z"/><path class="cls-13" d="M143.5,60.93l0,1.05a3,3,0,0,1,2.5-1.21q2.65,0,2.67,3v5.52h-1.43V63.76a1.92,1.92,0,0,0-.41-1.34,1.66,1.66,0,0,0-1.26-.43,2.06,2.06,0,0,0-1.22.37,2.52,2.52,0,0,0-.82,1v6h-1.43V60.93Z"/><path class="cls-13" d="M151,65a4.91,4.91,0,0,1,.9-3.11,3.12,3.12,0,0,1,4.78-.07l.07-.93H158v8.16a3.4,3.4,0,0,1-1,2.56,3.55,3.55,0,0,1-2.58.94,4.29,4.29,0,0,1-1.77-.39,3,3,0,0,1-1.32-1.06l.74-.86a2.79,2.79,0,0,0,2.25,1.14,2.19,2.19,0,0,0,1.63-.59,2.24,2.24,0,0,0,.58-1.65v-.72a2.94,2.94,0,0,1-2.34,1,2.86,2.86,0,0,1-2.38-1.18A5.17,5.17,0,0,1,151,65Zm1.44.16a3.75,3.75,0,0,0,.58,2.22,1.88,1.88,0,0,0,1.62.81,2.09,2.09,0,0,0,2-1.23V63.19a2.12,2.12,0,0,0-2-1.2,1.9,1.9,0,0,0-1.63.81A4.08,4.08,0,0,0,152.42,65.2Z"/></g></g></svg>