<svg xmlns="http://www.w3.org/2000/svg" viewBox="0 0 273.78 159.5"><defs><style>.cls-1,.cls-24{fill:#fff;}.cls-2{font-size:14.18px;}.cls-2,.cls-20,.cls-21,.cls-22{fill:#ecac00;}.cls-19,.cls-2{font-family:Pasajero, Pasajero;}.cls-22,.cls-3{font-family:MyriadPro-Regular, Myriad Pro;}.cls-23,.cls-4,.cls-5,.cls-6,.cls-7{fill:#939598;font-family:Roboto-Regular, Roboto;}.cls-4{letter-spacing:-0.01em;}.cls-6{letter-spacing:0.01em;}.cls-7{letter-spacing:-0.05em;}.cls-8{fill:#00c853;}.cls-9{fill:#ef6c00;}.cls-10,.cls-11,.cls-12,.cls-13,.cls-14,.cls-15,.cls-16,.cls-17{fill:none;}.cls-10,.cls-11{stroke:#00c853;}.cls-10,.cls-12,.cls-15{stroke-width:2.33px;}.cls-11,.cls-14,.cls-17{stroke-width:1px;}.cls-12,.cls-13,.cls-14{stroke:#b71c1c;}.cls-13,.cls-16{stroke-width:1.66px;}.cls-15,.cls-16,.cls-17{stroke:#ffc400;}.cls-18{fill:#fbfbfb;}.cls-19{font-size:24.14px;fill:#3e9600;letter-spacing:0.03em;}.cls-20,.cls-22{letter-spacing:0.03em;}.cls-23{letter-spacing:0.03em;}.cls-24{stroke:#231f20;stroke-miterlimit:10;stroke-width:0.92px;}.cls-25{font-size:9.8px;fill:#231f20;font-family:Rod, Rod;}.cls-26{letter-spacing:0.03em;}</style></defs><title>Asset 4ldpi</title><g id="Layer_2" data-name="Layer 2"><g id="Layer_1-2" data-name="Layer 1"><rect class="cls-1" width="273.78" height="159.5"/><text class="cls-2" transform="translate(37.41 24.72)">SARASWATI<tspan class="cls-3" x="73.89" y="0"> </tspan><tspan class="cls-4" x="76.9" y="0">E</tspan><tspan class="cls-5" x="84.82" y="0">ducation Societ</tspan><tspan class="cls-6" x="182.78" y="0">y</tspan><tspan class="cls-7" x="189.6" y="0">’</tspan><tspan class="cls-5" x="191.65" y="0">s</tspan></text><path class="cls-8" d="M62,62.19c-.13,0-.28.08-.37.15a1.41,1.41,0,0,0-.27.35,2.56,2.56,0,0,0-.31.79c0,.19-.44.73.07.4.16-.1.36.09.54.12a1.61,1.61,0,0,0,.55,0,1.08,1.08,0,0,0,.82-.7,3,3,0,0,0,.42-1.1s.05-.11,0-.12l-.19,0a.91.91,0,0,0-.32,0,1.46,1.46,0,0,0-.58.22c-.05,0-.47.52-.52.37s.08-.22.11-.28S62.07,62.24,62,62.19Z"/><path class="cls-8" d="M44.52,60.48c-.12.1-.23-.52-.25-.59a1.46,1.46,0,0,0-.38-.49.91.91,0,0,0-.26-.19l-.17-.08c-.06,0-.05.07-.07.1a3,3,0,0,0-.21,1.16,1.08,1.08,0,0,0,.34,1,1.61,1.61,0,0,0,.49.26c.17.06.45,0,.53.17.27.55.19-.13.26-.31a2.56,2.56,0,0,0,.14-.84,1.42,1.42,0,0,0-.05-.44c0-.11-.11-.29-.24-.32s-.08.18-.08.23S44.59,60.44,44.52,60.48Z"/><path class="cls-8" d="M45.19,65.9a2.5,2.5,0,0,0,.7.49c.25.13.69.1.78.38.3.89.32-.16.47-.42a4,4,0,0,0,.39-1.26,2.2,2.2,0,0,0,0-.68c0-.18-.12-.47-.31-.55s-.15.26-.17.33,0,.39-.14.44-.25-.85-.27-1a2.26,2.26,0,0,0-.48-.83,1.41,1.41,0,0,0-.36-.34l-.25-.15c-.09,0-.1.1-.13.15a4.66,4.66,0,0,0-.56,1.74A1.68,1.68,0,0,0,45.19,65.9Z"/><path class="cls-8" d="M55.9,58.5c-.11,0-.15.26-.17.33s0,.39-.14.44-.25-.85-.27-1a2.26,2.26,0,0,0-.48-.83,1.41,1.41,0,0,0-.36-.34L54.23,57c-.09,0-.1.1-.13.15a4.66,4.66,0,0,0-.56,1.74,1.68,1.68,0,0,0,.31,1.65,2.5,2.5,0,0,0,.7.49c.25.13.69.1.78.38.3.89.32-.16.47-.42a4,4,0,0,0,.39-1.26,2.2,2.2,0,0,0,0-.68C56.16,58.87,56.09,58.58,55.9,58.5Z"/><path class="cls-8" d="M70,56.8A2.26,2.26,0,0,0,69.5,56a1.42,1.42,0,0,0-.36-.34l-.25-.15c-.09,0-.1.1-.12.15a4.66,4.66,0,0,0-.56,1.74A1.68,1.68,0,0,0,68.51,59a2.5,2.5,0,0,0,.7.49c.25.13.69.1.78.38.3.89.32-.16.47-.42a4,4,0,0,0,.39-1.26,2.19,2.19,0,0,0,0-.68c0-.18-.12-.47-.31-.55s-.15.26-.17.33,0,.39-.14.44S70,56.9,70,56.8Z"/><path class="cls-8" d="M49.32,54.11l-.29,0c-.09,0,0,.14,0,.19a4.66,4.66,0,0,0,.56,1.74,1.68,1.68,0,0,0,1.22,1.15,2.5,2.5,0,0,0,.86,0c.28,0,.62-.32.85-.15.77.55.17-.31.14-.61a4,4,0,0,0-.42-1.26,2.2,2.2,0,0,0-.39-.56c-.14-.12-.37-.31-.57-.27s0,.3.06.37.22.33.15.44-.7-.54-.78-.62a2.26,2.26,0,0,0-.88-.39A1.41,1.41,0,0,0,49.32,54.11Z"/><path class="cls-8" d="M51.62,50a2.26,2.26,0,0,0-.63-.73,1.41,1.41,0,0,0-.42-.27l-.27-.1c-.09,0-.08.11-.1.17A4.66,4.66,0,0,0,50,50.87a1.68,1.68,0,0,0,.61,1.56,2.5,2.5,0,0,0,.78.36c.27.08.69,0,.84.23.46.82.29-.21.39-.5a4,4,0,0,0,.16-1.31,2.19,2.19,0,0,0-.12-.67c-.07-.17-.2-.44-.4-.48s-.1.28-.1.36.06.39-.05.46S51.66,50.09,51.62,50Z"/><path class="cls-8" d="M53.73,46.92a2.26,2.26,0,0,0-.63-.73,1.41,1.41,0,0,0-.42-.27l-.27-.1c-.09,0-.08.11-.1.17a4.66,4.66,0,0,0-.23,1.82,1.68,1.68,0,0,0,.61,1.56,2.5,2.5,0,0,0,.78.36c.27.08.69,0,.84.23.46.82.29-.21.39-.5a4,4,0,0,0,.16-1.31,2.19,2.19,0,0,0-.12-.67c-.07-.17-.2-.44-.4-.48s-.1.28-.1.36.06.39-.05.46S53.77,47,53.73,46.92Z"/><path class="cls-8" d="M47.83,49.14a2.26,2.26,0,0,0-.63-.73,1.41,1.41,0,0,0-.42-.27L46.5,48c-.09,0-.08.11-.1.17A4.66,4.66,0,0,0,46.18,50a1.68,1.68,0,0,0,.61,1.56,2.5,2.5,0,0,0,.78.36c.27.08.69,0,.84.23.46.82.29-.21.39-.5a4,4,0,0,0,.16-1.31,2.19,2.19,0,0,0-.12-.67c-.07-.17-.2-.44-.4-.48s-.1.28-.1.36.06.39-.05.46S47.87,49.24,47.83,49.14Z"/><path class="cls-8" d="M63.92,46.78a1.41,1.41,0,0,0-.2-.46l-.17-.24c-.07-.07-.13,0-.17.08a4.66,4.66,0,0,0-1.22,1.37,1.68,1.68,0,0,0-.38,1.64,2.5,2.5,0,0,0,.44.73c.18.22.59.37.56.66-.08.94.36,0,.6-.19a4,4,0,0,0,.87-1,2.17,2.17,0,0,0,.28-.62c0-.18.08-.48-.06-.62s-.24.17-.29.24-.17.36-.3.35.11-.88.14-1A2.25,2.25,0,0,0,63.92,46.78Z"/><path class="cls-8" d="M57.2,46.19a1.41,1.41,0,0,0-.3-.4l-.22-.19c-.08-.05-.11.08-.15.12a4.66,4.66,0,0,0-.87,1.61,1.68,1.68,0,0,0,0,1.68,2.51,2.51,0,0,0,.6.61c.23.18.66.23.7.51.14.93.34-.09.54-.33a4,4,0,0,0,.62-1.17,2.19,2.19,0,0,0,.13-.67c0-.18,0-.48-.2-.59s-.2.23-.23.3-.08.39-.21.41-.09-.88-.09-1A2.26,2.26,0,0,0,57.2,46.19Z"/><path class="cls-8" d="M41.88,64.93a2.2,2.2,0,0,0-.39-.56c-.14-.12-.37-.31-.57-.27s0,.3.06.37.22.33.15.44-.7-.54-.78-.62a2.26,2.26,0,0,0-.88-.39,1.41,1.41,0,0,0-.49-.06l-.29,0c-.09,0,0,.14,0,.19a4.66,4.66,0,0,0,.56,1.74A1.68,1.68,0,0,0,40.45,67a2.5,2.5,0,0,0,.86,0c.28,0,.62-.32.85-.15.77.55.17-.31.14-.61A4,4,0,0,0,41.88,64.93Z"/><path class="cls-8" d="M45.06,52.38a1.41,1.41,0,0,0-.49-.06l-.29,0c-.09,0,0,.14,0,.19a4.66,4.66,0,0,0,.56,1.74A1.68,1.68,0,0,0,46,55.44a2.5,2.5,0,0,0,.86,0c.28,0,.62-.32.85-.15.77.55.17-.31.14-.61a4,4,0,0,0-.42-1.26,2.2,2.2,0,0,0-.39-.56c-.14-.12-.37-.31-.57-.27s0,.3.06.37.22.33.15.44-.7-.54-.78-.62A2.26,2.26,0,0,0,45.06,52.38Z"/><path class="cls-8" d="M61.63,52.93c-.19.06-.29.35-.35.52a2.19,2.19,0,0,0-.05.68,4,4,0,0,0,.28,1.29c.13.28.05,1.32.43.46.12-.27.55-.2.81-.31a2.5,2.5,0,0,0,.74-.43,1.68,1.68,0,0,0,.45-1.62,4.66,4.66,0,0,0-.41-1.79c0-.05,0-.18-.11-.16l-.26.13a1.41,1.41,0,0,0-.39.31,2.26,2.26,0,0,0-.55.79c0,.1-.16,1.08-.35.93s-.09-.35-.1-.45S61.73,52.95,61.63,52.93Z"/><path class="cls-8" d="M54.57,52.6c0,.1-.16,1.08-.35.93s-.09-.35-.1-.45,0-.33-.14-.35-.29.35-.35.52a2.19,2.19,0,0,0-.05.68,4,4,0,0,0,.28,1.29c.13.27.05,1.32.43.46.12-.27.55-.2.81-.31a2.5,2.5,0,0,0,.74-.43,1.68,1.68,0,0,0,.45-1.62,4.66,4.66,0,0,0-.41-1.79c0-.05,0-.19-.11-.16l-.26.13a1.4,1.4,0,0,0-.39.31A2.26,2.26,0,0,0,54.57,52.6Z"/><path class="cls-8" d="M59.06,53.09c.12-.27.55-.2.81-.31a2.5,2.5,0,0,0,.74-.43,1.68,1.68,0,0,0,.45-1.62A4.65,4.65,0,0,0,60.65,49c0-.05,0-.19-.11-.16l-.26.13a1.41,1.41,0,0,0-.39.31,2.26,2.26,0,0,0-.55.79c0,.1-.16,1.08-.35.93s-.09-.35-.1-.45,0-.33-.14-.35-.29.35-.35.52a2.19,2.19,0,0,0-.05.68,4,4,0,0,0,.28,1.29C58.75,52.91,58.68,54,59.06,53.09Z"/><path class="cls-8" d="M69.93,50.53c0-.05,0-.19-.11-.16l-.26.13a1.41,1.41,0,0,0-.39.31,2.26,2.26,0,0,0-.55.79c0,.1-.16,1.08-.35.93s-.09-.35-.1-.45,0-.33-.14-.35-.29.35-.35.52a2.2,2.2,0,0,0-.05.68,4,4,0,0,0,.28,1.29c.13.27.05,1.32.43.46.12-.27.55-.2.81-.31a2.49,2.49,0,0,0,.74-.43,1.68,1.68,0,0,0,.45-1.62A4.67,4.67,0,0,0,69.93,50.53Z"/><path class="cls-8" d="M66.87,48.21c0-.05,0-.19-.11-.16l-.26.13a1.41,1.41,0,0,0-.39.31,2.26,2.26,0,0,0-.55.79c0,.1-.16,1.08-.35.93s-.09-.35-.1-.45,0-.33-.14-.35-.29.35-.35.52a2.19,2.19,0,0,0-.05.68,4,4,0,0,0,.28,1.29c.13.28.05,1.32.43.46.12-.27.55-.2.81-.31a2.5,2.5,0,0,0,.74-.43A1.68,1.68,0,0,0,67.28,50,4.66,4.66,0,0,0,66.87,48.21Z"/><path class="cls-8" d="M71.2,62.84l-.26.13a1.41,1.41,0,0,0-.39.31,2.26,2.26,0,0,0-.55.79c0,.1-.16,1.08-.35.93s-.09-.35-.1-.45,0-.33-.14-.35-.29.35-.35.52a2.2,2.2,0,0,0-.05.68,4,4,0,0,0,.28,1.29c.13.27.05,1.32.43.46.12-.27.55-.2.81-.31a2.49,2.49,0,0,0,.74-.43,1.68,1.68,0,0,0,.45-1.62A4.66,4.66,0,0,0,71.31,63C71.29,62.95,71.29,62.82,71.2,62.84Z"/><path class="cls-8" d="M72,55.88c.12-.27.55-.2.81-.31a2.5,2.5,0,0,0,.74-.43A1.68,1.68,0,0,0,74,53.52a4.66,4.66,0,0,0-.41-1.79c0-.05,0-.19-.11-.16l-.26.13a1.4,1.4,0,0,0-.39.31,2.26,2.26,0,0,0-.55.79c0,.1-.16,1.08-.35.93s-.09-.35-.1-.45,0-.33-.14-.35-.29.35-.35.52a2.2,2.2,0,0,0-.05.68,4,4,0,0,0,.28,1.29C71.73,55.7,71.65,56.74,72,55.88Z"/><path class="cls-8" d="M67,54.77c-.11,0-.15.26-.17.33s0,.39-.14.44-.25-.85-.27-1a2.26,2.26,0,0,0-.48-.83,1.42,1.42,0,0,0-.36-.34l-.25-.15c-.09,0-.1.1-.12.15a4.66,4.66,0,0,0-.56,1.74,1.68,1.68,0,0,0,.31,1.65,2.5,2.5,0,0,0,.7.49c.25.13.69.1.78.38.3.89.32-.16.47-.42A4,4,0,0,0,67.28,56a2.19,2.19,0,0,0,0-.68C67.24,55.14,67.17,54.85,67,54.77Z"/><path class="cls-8" d="M78.59,60.28l-.29,0a1.4,1.4,0,0,0-.5,0,2.26,2.26,0,0,0-.9.35c-.08.07-.73.81-.81.58s.12-.34.17-.43.16-.29.08-.36-.44.12-.58.24a2.2,2.2,0,0,0-.42.54,3,3,0,0,0-.28.58l0-.12a.11.11,0,0,0-.09-.13.12.12,0,0,0-.13.09A10.34,10.34,0,0,1,74,63.84a1.18,1.18,0,0,0-.41-.33c-.13-.08-.29-.18-.3-.25s0-.09.19-.21a.11.11,0,0,0-.11-.2,1.14,1.14,0,0,0-.54,1.3.89.89,0,0,0,.39.51c.23.16.23.16.07.4a14.36,14.36,0,0,1-2.27,2.64,17.73,17.73,0,0,1-2.77,2.06v0a4,4,0,0,0,.37-1.27,2.2,2.2,0,0,0,0-.68c0-.18-.12-.47-.31-.54s-.15.26-.16.34,0,.39-.13.45-.26-.85-.29-1a2.26,2.26,0,0,0-.5-.82,1.4,1.4,0,0,0-.37-.33l-.25-.15c-.09,0-.1.1-.12.15A4.66,4.66,0,0,0,66,67.66a1.68,1.68,0,0,0,.34,1.64,2.5,2.5,0,0,0,.71.48c.22.11.58.1.73.27l-1.51.87-.6.34a2.25,2.25,0,0,0-.22-.57,1.36,1.36,0,0,1-.2-.68c0-.17.23-.2.41-.2a1.56,1.56,0,0,1,.27,0,.11.11,0,0,0,.06-.22,1.43,1.43,0,0,0-.43-.11,1.8,1.8,0,0,0-1.66,1,1.28,1.28,0,0,0-.06,1.16,2.56,2.56,0,0,1,.12.52c0,.25-.13.38-.38.55l-.18.13c-.27.21-.53.43-.78.65s-.43.39-.63.59c0,0,0-.09,0-.14a1.42,1.42,0,0,0-.05-.44c0-.11-.11-.29-.24-.32s-.08.18-.08.23,0,.25,0,.3-.23-.52-.25-.59a1.45,1.45,0,0,0-.38-.49.91.91,0,0,0-.26-.19l-.17-.08c-.06,0-.05.07-.07.1a3,3,0,0,0-.21,1.16,1.08,1.08,0,0,0,.34,1,1.61,1.61,0,0,0,.49.26l.12,0A13.75,13.75,0,0,0,59,78.27a23.84,23.84,0,0,1,1.09-6.68,1.9,1.9,0,0,0,2.06-.22,2.07,2.07,0,0,0,.94-2,.11.11,0,0,0-.12-.09.11.11,0,0,0-.11.1c-.06.63-.23.88-.55.8a2.25,2.25,0,0,1-.64-.33,3.15,3.15,0,0,0-.54-.3,14.33,14.33,0,0,1,2.76-3,22.33,22.33,0,0,1,2.93-2l.63-.38a21.59,21.59,0,0,0,1.84-1.23c.27-.2.53-.41.79-.63l.12-.11c.17-.16.27-.24.45-.19a1.36,1.36,0,0,1,.33.18,1.2,1.2,0,0,0,.55.23,1.63,1.63,0,0,0,.84-.19c.44-.22,1.05-.77.92-1.39a.11.11,0,0,0-.11-.09h0a.11.11,0,0,0-.11.09c0,.12-.13.5-.34.5a.36.36,0,0,1-.2-.08l-.11-.09a2.44,2.44,0,0,0-.67-.46,11.21,11.21,0,0,0,2.32-3.64s.15,0,.37-.16.56.14.85.19a2.5,2.5,0,0,0,.85.05,1.68,1.68,0,0,0,1.27-1.09,4.67,4.67,0,0,0,.65-1.71c0-.06.08-.17,0-.19l-.29,0a1.41,1.41,0,0,0-.5,0,2.26,2.26,0,0,0-.9.35c-.08.07-.73.81-.81.58s.12-.34.17-.43.16-.29.08-.36-.44.12-.58.24a2.19,2.19,0,0,0-.42.54,3.06,3.06,0,0,0-.31.65,9,9,0,0,0,.18-1,.11.11,0,0,0-.09-.13.12.12,0,0,0-.13.09,10.33,10.33,0,0,1-.83,2.24,1.17,1.17,0,0,0-.41-.33c-.13-.08-.29-.18-.3-.25s0-.09.19-.21a.11.11,0,0,0-.11-.2,1.14,1.14,0,0,0-.54,1.3.89.89,0,0,0,.39.51c.23.16.23.16.07.4a14.38,14.38,0,0,1-2.27,2.64,18.25,18.25,0,0,1-3,2.19l0-.07a4,4,0,0,0,.37-1.27,2.18,2.18,0,0,0,0-.68c0-.18-.12-.47-.31-.54s-.15.26-.16.34,0,.39-.13.45-.26-.85-.29-1a2.26,2.26,0,0,0-.5-.82,1.42,1.42,0,0,0-.37-.33l-.25-.15c-.09,0-.1.1-.12.15a4.67,4.67,0,0,0-.53,1.75,1.68,1.68,0,0,0,.34,1.64,2.5,2.5,0,0,0,.71.48c.23.12.6.1.75.3L65.9,64l-.6.34a2.24,2.24,0,0,0-.22-.57,1.36,1.36,0,0,1-.2-.68c0-.17.23-.2.41-.2a1.56,1.56,0,0,1,.27,0,.11.11,0,0,0,.06-.22,1.42,1.42,0,0,0-.43-.11,1.8,1.8,0,0,0-1.66,1,1.28,1.28,0,0,0-.06,1.16,2.57,2.57,0,0,1,.12.52c0,.25-.13.38-.38.55l-.18.13-.42.34a1.1,1.1,0,0,0-.05-.35c0-.11-.11-.29-.24-.32s-.08.18-.08.23,0,.25,0,.3-.23-.52-.25-.59a1.46,1.46,0,0,0-.38-.49.91.91,0,0,0-.26-.19l-.17-.08c-.06,0-.05.07-.07.1a3,3,0,0,0-.21,1.16,1.08,1.08,0,0,0,.34,1,1.36,1.36,0,0,0,.33.19c-.22.22-.42.43-.62.65a14.27,14.27,0,0,0-1.17,1.52.34.34,0,0,0-.19-.2c-.07,0-.08.18-.08.23s0,.25,0,.3-.23-.52-.25-.59a1.45,1.45,0,0,0-.38-.49.91.91,0,0,0-.26-.19l-.17-.08c-.06,0-.05.07-.07.1A3,3,0,0,0,58,69.72a1.08,1.08,0,0,0,.34,1,1.52,1.52,0,0,0,.44.24,12.68,12.68,0,0,0-1.25,4.21A17.23,17.23,0,0,0,57.47,77l-.07-.18A19,19,0,0,1,56,72.11c0-.2,0-.4,0-.59v0a1.37,1.37,0,0,0,1.2-.73,1.5,1.5,0,0,0,0-1.63.11.11,0,0,0-.2.1.75.75,0,0,1,0,.55.18.18,0,0,1-.14.08,1.55,1.55,0,0,1-.5,0,2.49,2.49,0,0,0-.4,0,9.85,9.85,0,0,1,.72-2.21l.08-.05c.24-.16.56.14.85.19a2.5,2.5,0,0,0,.85.05,1.68,1.68,0,0,0,1.27-1.09A4.66,4.66,0,0,0,60.47,65c0-.06.08-.17,0-.19l-.29,0a1.4,1.4,0,0,0-.5,0,2.26,2.26,0,0,0-.9.35c-.08.07-.73.81-.81.58a.25.25,0,0,1,0-.22l.33-.46.3-.42a15.31,15.31,0,0,0,.86-1.32c.12-.21.23-.42.34-.63l0-.11c.06-.15.1-.21.22-.23a.92.92,0,0,1,.26,0,.94.94,0,0,0,.44,0,1.2,1.2,0,0,0,.51-.37,1.07,1.07,0,0,0,.21-1.2.11.11,0,0,0-.21.09.5.5,0,0,1,0,.36s-.07,0-.16,0l-.1,0a2.06,2.06,0,0,0-.53-.11,7.39,7.39,0,0,0,.24-.77L61,60.2c.24-.16.56.14.85.19a2.5,2.5,0,0,0,.85.05,1.68,1.68,0,0,0,1.27-1.09,4.67,4.67,0,0,0,.65-1.71c0-.06.08-.17,0-.19l-.29,0a1.4,1.4,0,0,0-.5,0,2.26,2.26,0,0,0-.9.35c-.08.07-.73.81-.81.58s.12-.34.17-.43.16-.29.08-.36-.44.12-.58.24a2.19,2.19,0,0,0-.42.54,3.44,3.44,0,0,0-.39.9,7.42,7.42,0,0,0-.2-2.83.11.11,0,0,0-.13-.08h0a3.76,3.76,0,0,0-.39-1.14,2.2,2.2,0,0,0-.39-.56c-.14-.12-.37-.31-.57-.27s0,.3.06.37.22.33.15.44-.7-.54-.78-.62a2.26,2.26,0,0,0-.88-.39,1.41,1.41,0,0,0-.49-.06l-.29,0c-.09,0,0,.14,0,.19a4.66,4.66,0,0,0,.56,1.74,1.68,1.68,0,0,0,1.22,1.15,2.5,2.5,0,0,0,.86,0c.28,0,.62-.32.85-.15l.11.07a7.45,7.45,0,0,1,0,.95,1.07,1.07,0,0,0-.32-.08c-.07,0-.22,0-.24-.06s0,0,.06-.16a.11.11,0,0,0-.18-.14.84.84,0,0,0,0,1,.66.66,0,0,0,.41.24l.15,0a.72.72,0,0,1,0,.17,10.14,10.14,0,0,1-.73,2.34c-.08.18-.17.36-.26.54a3.89,3.89,0,0,0,.35-1.23,2.19,2.19,0,0,0,0-.68c0-.18-.12-.47-.31-.54s-.15.26-.16.34,0,.39-.13.45-.26-.85-.29-1a2.26,2.26,0,0,0-.5-.82,1.41,1.41,0,0,0-.37-.33l-.25-.15c-.09,0-.1.1-.12.15A4.66,4.66,0,0,0,57.17,60a1.68,1.68,0,0,0,.34,1.64,2.5,2.5,0,0,0,.71.48c.26.13.69.09.79.36a1.89,1.89,0,0,0,.09.22,26.44,26.44,0,0,1-1.55,2.2l-.27.35A1.79,1.79,0,0,0,57,65a.94.94,0,0,1-.31-.37.08.08,0,0,1,0-.07.61.61,0,0,1,.36-.19.11.11,0,0,0,0-.22h0a1,1,0,0,0-.32.05,1.32,1.32,0,0,0-.83,1.12.93.93,0,0,0,.29.8,1.8,1.8,0,0,1,.22.3c.08.14,0,.25-.1.43L56.2,67c-.12.21-.23.43-.33.65s-.3.68-.42,1a9.83,9.83,0,0,0-1.33-2.44,11.21,11.21,0,0,0-.87-1h0c.24-.13.55.15.82.2a2.5,2.5,0,0,0,.85.05,1.68,1.68,0,0,0,1.27-1.09,4.66,4.66,0,0,0,.65-1.71c0-.06.08-.17,0-.19l-.29,0a1.4,1.4,0,0,0-.5,0,2.26,2.26,0,0,0-.9.35c-.08.07-.73.81-.81.58s.12-.34.17-.43.16-.29.08-.36-.44.12-.58.24a2.19,2.19,0,0,0-.42.54,4,4,0,0,0-.48,1.23,1.52,1.52,0,0,1-.14.34l-.24-.23-.12-.11c-.16-.14-.25-.22-.23-.38a1.8,1.8,0,0,1,.11-.35.93.93,0,0,0,0-.85,1.42,1.42,0,0,0-.82-.75L51.8,62a3,3,0,0,0,.42-1.1s.05-.11,0-.12l-.19,0a.91.91,0,0,0-.32,0,1.46,1.46,0,0,0-.58.22c-.05,0-.47.52-.52.37s.08-.22.11-.28.1-.19,0-.23-.28.08-.37.15a1.41,1.41,0,0,0-.27.35,2.56,2.56,0,0,0-.31.79.76.76,0,0,1-.07.18,14.06,14.06,0,0,1-1.87-1.58c.21,0,.45.19.66.24a2.5,2.5,0,0,0,.85.05A1.68,1.68,0,0,0,50.66,60a4.66,4.66,0,0,0,.65-1.71c0-.06.08-.17,0-.19L51,58a1.4,1.4,0,0,0-.5,0,2.26,2.26,0,0,0-.9.35c-.08.07-.73.81-.81.58s.12-.34.17-.43.16-.29.08-.36-.44.12-.58.24a2.19,2.19,0,0,0-.42.54,4,4,0,0,0-.48,1.23.86.86,0,0,1-.07.19,10,10,0,0,1-1.3-1.84l-.07-.14a.72.72,0,0,1,.13-.09A.66.66,0,0,0,46.6,58a.84.84,0,0,0-.32-1,.11.11,0,0,0-.13.19c.11.09.11.13.11.13s-.15.1-.21.13a1,1,0,0,0-.28.18A7.27,7.27,0,0,1,45.35,56a.12.12,0,0,0-.12-.1.11.11,0,0,0-.1.12c0,.05,0,.11,0,.16a2.76,2.76,0,0,0-.19-.4,2.2,2.2,0,0,0-.39-.56c-.14-.12-.37-.31-.57-.27s0,.3.06.37.22.33.15.44-.7-.54-.78-.62a2.26,2.26,0,0,0-.88-.39,1.41,1.41,0,0,0-.49-.06l-.29,0c-.09,0,0,.14,0,.19a4.66,4.66,0,0,0,.56,1.74,1.68,1.68,0,0,0,1.22,1.15,2.5,2.5,0,0,0,.86,0c.28,0,.62-.32.85-.15l.21.13a8,8,0,0,0,1.37,2.6,2,2,0,0,0-.47.27l-.08.06a.25.25,0,0,1-.12,0c-.1,0-.16-.19-.18-.34a.11.11,0,0,0-.22,0c-.13.45.27.89.58,1.08a1.2,1.2,0,0,0,.6.19.89.89,0,0,0,.42-.13.94.94,0,0,1,.24-.1c.11,0,.17,0,.28.15l.08.09.52.49a15.4,15.4,0,0,0,1.23,1l.42.3A15.82,15.82,0,0,1,52,65a10.14,10.14,0,0,1,1.74,2.25,2.47,2.47,0,0,0-.37.17,1.57,1.57,0,0,1-.46.19h-.05c-.06,0-.24,0-.25-.57a.11.11,0,0,0-.22,0A1.5,1.5,0,0,0,53,68.57a1.38,1.38,0,0,0,1.43.3,17.07,17.07,0,0,1,.33,5.06l-.4-.35c-.26-.22-.53-.43-.8-.64l-.19-.13c-.26-.17-.41-.29-.4-.54a2.58,2.58,0,0,1,.11-.52A1.28,1.28,0,0,0,53,70.59a1.81,1.81,0,0,0-1.68-.93,1.43,1.43,0,0,0-.43.12.11.11,0,0,0,.07.22,1.53,1.53,0,0,1,.29,0c.24,0,.37.07.39.19a1.37,1.37,0,0,1-.19.69,2.24,2.24,0,0,0-.2.58l-.61-.33c-1-.56-2.06-1.11-3-1.74.21,0,.45.19.66.24a2.5,2.5,0,0,0,.85.05,1.68,1.68,0,0,0,1.27-1.09A4.66,4.66,0,0,0,51,66.83c0-.06.08-.17,0-.19l-.29,0a1.41,1.41,0,0,0-.5,0,2.26,2.26,0,0,0-.9.35c-.08.07-.73.81-.81.58s.12-.34.17-.43.16-.29.08-.36-.44.12-.58.24a2.19,2.19,0,0,0-.42.54,4,4,0,0,0-.48,1.23,1.31,1.31,0,0,1-.12.3A15.17,15.17,0,0,1,45.75,68a14.38,14.38,0,0,1-2.32-2.59c-.16-.23-.16-.23.06-.4a.89.89,0,0,0,.38-.52,1.14,1.14,0,0,0-.57-1.29.11.11,0,0,0-.11.2c.18.12.19.19.19.21s-.16.17-.29.26a1.16,1.16,0,0,0-.4.34,10.54,10.54,0,0,1-.61-1.37.59.59,0,0,1,0-.1,4,4,0,0,0,.39-1.26,2.2,2.2,0,0,0,0-.68c0-.18-.12-.47-.31-.55s-.15.26-.17.33,0,.39-.14.44-.25-.85-.27-1a2.26,2.26,0,0,0-.48-.83,1.41,1.41,0,0,0-.36-.34l-.25-.15c-.09,0-.1.1-.13.15a4.66,4.66,0,0,0-.56,1.74,1.68,1.68,0,0,0,.31,1.65,2.5,2.5,0,0,0,.7.49c.25.13.69.1.78.38s.21.41.27.29a11.21,11.21,0,0,0,2.73,4.49,2.44,2.44,0,0,0-.66.47l-.11.09a.35.35,0,0,1-.2.09c-.2,0-.31-.38-.34-.49a.11.11,0,0,0-.11-.09.11.11,0,0,0-.11.09c-.11.62.51,1.16,1,1.37a1.7,1.7,0,0,0,.73.17h.12a1.2,1.2,0,0,0,.54-.24,1.36,1.36,0,0,1,.33-.18c.18-.06.3,0,.46.18l.12.11c.26.21.53.42.8.61s.7.48,1.09.73a3.1,3.1,0,0,0-.74-.11,2.2,2.2,0,0,0-.68.06c-.17.06-.45.16-.52.35s.27.13.35.14.39,0,.46.1-.82.33-.93.36a2.26,2.26,0,0,0-.78.56,1.41,1.41,0,0,0-.3.39l-.13.26c0,.09.11.09.16.11a4.66,4.66,0,0,0,1.79.4A1.68,1.68,0,0,0,48.54,73a2.5,2.5,0,0,0,.43-.74c.11-.26,0-.69.3-.81l.41.23a23.48,23.48,0,0,1,2.83,1.78,3.37,3.37,0,0,0-.93-.16,2.19,2.19,0,0,0-.68.06c-.17.06-.45.16-.52.35s.27.13.35.14.39,0,.46.1-.82.33-.93.36a2.26,2.26,0,0,0-.78.56,1.41,1.41,0,0,0-.3.39l-.13.26c0,.09.11.09.16.11A4.66,4.66,0,0,0,51,76a1.68,1.68,0,0,0,1.61-.46,2.5,2.5,0,0,0,.43-.74c.09-.23.05-.59.22-.75a13.94,13.94,0,0,1,2.23,2.45,3.14,3.14,0,0,0-.54.31,2.25,2.25,0,0,1-.63.34c-.31.09-.49-.16-.57-.79a.11.11,0,0,0-.22,0,2.07,2.07,0,0,0,1,2,1.9,1.9,0,0,0,2.06.17c.9,2.58-.32,7.81-.32,7.86a14.48,14.48,0,0,0,1.72.37h1.27a.11.11,0,0,0,.08,0s1.58-.66,1.58-.69-1.26-5-.43-7.56a1.9,1.9,0,0,0,2.05-.22,2.07,2.07,0,0,0,.95-2,.11.11,0,0,0-.22,0c-.06.63-.23.88-.55.8a2.24,2.24,0,0,1-.64-.33,3.16,3.16,0,0,0-.54-.3,14.33,14.33,0,0,1,2.76-3l.5-.39c.18.14.21.48.35.69a2.49,2.49,0,0,0,.56.65,1.68,1.68,0,0,0,1.67.15A4.66,4.66,0,0,0,69,73.78s.18-.06.13-.14L69,73.41a1.41,1.41,0,0,0-.37-.33,2.26,2.26,0,0,0-.87-.4c-.11,0-1.09,0-1-.18s.32-.15.43-.18.32-.09.31-.2-.39-.23-.57-.25a1.57,1.57,0,0,0-.5,0l.76-.45.63-.38a21.7,21.7,0,0,0,1.84-1.23c.27-.2.53-.42.79-.63l.12-.11c.17-.16.27-.24.45-.19a1.36,1.36,0,0,1,.33.18,1.2,1.2,0,0,0,.55.23,1.63,1.63,0,0,0,.84-.19c.44-.22,1-.77.92-1.39a.11.11,0,0,0-.11-.09h0a.11.11,0,0,0-.11.09c0,.12-.13.5-.34.5a.36.36,0,0,1-.2-.08l-.11-.09a2.43,2.43,0,0,0-.67-.46,11.22,11.22,0,0,0,2.61-4.45L75,63c.24-.16.56.14.85.19a2.5,2.5,0,0,0,.85.05,1.68,1.68,0,0,0,1.27-1.09,4.67,4.67,0,0,0,.65-1.71C78.61,60.42,78.68,60.31,78.59,60.28ZM51.35,63a1.78,1.78,0,0,0-.18.35l-.36-.25L50,62.56c.13,0,.27.12.41.15a1.61,1.61,0,0,0,.55,0,.87.87,0,0,0,.52-.26.09.09,0,0,1,0,.07A.94.94,0,0,1,51.35,63Z"/><path class="cls-8" d="M75.86,59.47a1.74,1.74,0,0,0,.49-.56,1.09,1.09,0,0,0,.16-.35l.05-.22c0-.07-.09,0-.14-.06a3.59,3.59,0,0,0-1.41,0,1.3,1.3,0,0,0-1.13.63,1.93,1.93,0,0,0-.19.63c0,.22.09.53-.09.66-.58.44.19.2.42.24a3.06,3.06,0,0,0,1,0,1.69,1.69,0,0,0,.5-.16c.12-.07.31-.2.33-.36s-.23,0-.28,0-.29.09-.36,0S75.79,59.51,75.86,59.47Z"/><circle class="cls-9" cx="42.07" cy="103.22" r="11.4"/><circle class="cls-1" cx="41.92" cy="103.06" r="9.37"/><circle class="cls-9" cx="42.07" cy="103.22" r="6.72"/><circle class="cls-1" cx="42.07" cy="103.22" r="4.53"/><path class="cls-10" d="M70.74,97.44A11.49,11.49,0,1,1,59.26,86.11,11.41,11.41,0,0,1,70.74,97.44Z"/><circle class="cls-10" cx="59.1" cy="97.44" r="6.02"/><path class="cls-11" d="M62,97.44a2.79,2.79,0,1,1-2.78-2.94A2.86,2.86,0,0,1,62,97.44Z"/><circle class="cls-12" cx="76.57" cy="94.24" r="10.41"/><circle class="cls-13" cx="76.57" cy="94.24" r="5.45"/><circle class="cls-14" cx="76.53" cy="94.28" r="2.97"/><circle class="cls-15" cx="60.45" cy="115.13" r="9.41"/><circle class="cls-16" cx="60.45" cy="115.13" r="4.9"/><circle class="cls-17" cx="60.42" cy="115.16" r="2.67"/><circle class="cls-9" cx="42.07" cy="103.22" r="3.28"/><circle class="cls-18" cx="41.92" cy="103.38" r="2.5"/><text class="cls-19" transform="translate(105.46 67.5)">S<tspan class="cls-20" x="13.04" y="0">A</tspan><tspan x="29.48" y="0">R</tspan><tspan class="cls-21" x="43.95" y="0">A</tspan><tspan x="60.39" y="0">S</tspan><tspan class="cls-21" x="73.43" y="0">W</tspan><tspan x="98.61" y="0">A</tspan><tspan class="cls-21" x="115.04" y="0">T</tspan><tspan x="126.94" y="0">I</tspan><tspan class="cls-22" x="131.86" y="0"> </tspan><tspan class="cls-23"><tspan x="0" y="24">College of </tspan></tspan><tspan class="cls-5"><tspan x="0" y="48">Engineering</tspan></tspan></text><rect class="cls-21" x="17.39" y="31.35" width="239" height="0.89"/><text></text><rect class="cls-24" x="16.99" y="131.21" width="239.81" height="14.44"/><text class="cls-25" transform="translate(27.58 141.07) scale(1.15 1)">Learn Live Achive and Contr<tspan class="cls-26" x="158.77" y="0">ibute</tspan></text></g></g></svg>