<svg xmlns="http://www.w3.org/2000/svg" xmlns:xlink="http://www.w3.org/1999/xlink" width="633" height="346.034" viewBox="0 0 633 346.034">
  <defs>
    <linearGradient id="linear-gradient" x1="0.468" y1="0.466" x2="-0.535" y2="0.461" gradientUnits="objectBoundingBox">
      <stop offset="0" stop-color="#fff"/>
      <stop offset="1" stop-color="gray"/>
    </linearGradient>
  </defs>
  <g id="server" transform="translate(-779.472 -258.106)">
    <path id="Path_11" data-name="Path 11" d="M880,556.822h428.665v-151.2H880Z" transform="translate(103.807 47.317)" fill="url(#linear-gradient)"/>
    <path id="Path_10" data-name="Path 10" d="M926.472,435.209l138.754,83.638" transform="translate(-145 -106.247)" fill="none" stroke="#00c2ff" stroke-linecap="round" stroke-width="4" stroke-dasharray="14 12"/>
    <g id="pc1" transform="translate(822.488 337.829)">
      <path id="Path_1" data-name="Path 1" d="M17.377,17.377,86.46,0,69.732,69.732,0,86.46Z" transform="translate(61.137 0) rotate(45)" fill="#4eedff"/>
      <path id="Path_3" data-name="Path 3" d="M771.106,341v73.9l60.952,37.981.026-74.595Z" transform="translate(-771.106 -279.863)" fill="#00c2ff"/>
      <path id="Path_5" data-name="Path 5" d="M771.105,341v4.432l3.656,2.278,0-4.474Z" transform="translate(-762.538 -259.58)" fill="#c9f2ff"/>
      <path id="Path_5-2" data-name="Path 5" d="M771.105,341v4.432l3.656,2.278,0-4.474Z" transform="translate(-762.538 -250.914)" fill="#c9f2ff"/>
      <path id="Path_5-3" data-name="Path 5" d="M771.105,341v4.432l3.656,2.278,0-4.474Z" transform="translate(-762.538 -242.248)" fill="#c9f2ff"/>
      <path id="Path_5-4" data-name="Path 5" d="M771.105,341v4.432l3.656,2.278,0-4.474Z" transform="translate(-762.538 -233.582)" fill="#c9f2ff"/>
      <path id="Path_5-5" data-name="Path 5" d="M771.105,341v4.432l3.656,2.278,0-4.474Z" transform="translate(-762.538 -224.916)" fill="#c9f2ff"/>
      <path id="Path_5-6" data-name="Path 5" d="M771.105,341v4.432l3.656,2.278,0-4.474Z" transform="translate(-762.538 -216.25)" fill="#c9f2ff"/>
      <path id="Path_5-7" data-name="Path 5" d="M771.105,341v4.432l19.042,11.54,0-4.474Z" transform="translate(-755.696 -255.019)" fill="#0058cb"/>
      <path id="Path_6" data-name="Path 6" d="M771.105,341v4.432l12.6,7.278,0-4.474Z" transform="translate(-731.955 -241.084)" fill="#84ffea"/>
      <path id="Path_6-2" data-name="Path 6" d="M771.105,341v4.432l12.6,7.278,0-4.474Z" transform="translate(-731.955 -232.827)" fill="#84ffea"/>
      <path id="Path_6-3" data-name="Path 6" d="M771.105,341v4.432l12.6,7.278,0-4.474Z" transform="translate(-731.955 -224.569)" fill="#84ffea"/>
      <path id="Path_6-4" data-name="Path 6" d="M771.105,341v4.432l12.6,7.278,0-4.474Z" transform="translate(-731.955 -216.311)" fill="#84ffea"/>
      <path id="Path_6-5" data-name="Path 6" d="M771.105,341v4.432l12.6,7.278,0-4.474Z" transform="translate(-731.955 -207.538)" fill="#84ffea"/>
      <path id="Path_6-6" data-name="Path 6" d="M771.105,341v4.432l12.6,7.278,0-4.474Z" transform="translate(-731.955 -198.764)" fill="#84ffea"/>
      <path id="Path_5-8" data-name="Path 5" d="M771.105,341v4.432l19.042,11.54,0-4.474Z" transform="translate(-755.696 -246.809)" fill="#0058cb"/>
      <path id="Path_5-9" data-name="Path 5" d="M771.105,341v4.432l19.042,11.54,0-4.474Z" transform="translate(-755.696 -238.599)" fill="#0058cb"/>
      <path id="Path_5-10" data-name="Path 5" d="M771.105,341v4.432l19.042,11.54,0-4.474Z" transform="translate(-755.696 -229.933)" fill="#0058cb"/>
      <path id="Path_5-11" data-name="Path 5" d="M771.105,341v4.432l19.042,11.54,0-4.474Z" transform="translate(-755.696 -221.267)" fill="#0058cb"/>
      <path id="Path_5-12" data-name="Path 5" d="M771.105,341v4.432l19.042,11.54,0-4.474Z" transform="translate(-755.696 -212.601)" fill="#0058cb"/>
      <path id="Path_4" data-name="Path 4" d="M832.4,341v73.9L771.132,452.88l-.026-74.595Z" transform="translate(-710.127 -279.863)" fill="#0060b4"/>
      <path id="Path_8" data-name="Path 8" d="M774.763,341v4.432l-3.656,2.278,0-4.474Z" transform="translate(-660.759 -262.949)" fill="#c9f2ff"/>
      <path id="Path_7" data-name="Path 7" d="M790.149,341v4.432l-19.042,11.54,0-4.474Z" transform="translate(-683.878 -258.388)" fill="#30ffc7"/>
      <ellipse id="Ellipse_1" data-name="Ellipse 1" cx="11.79" cy="17.404" rx="11.79" ry="17.404" transform="translate(86.952 98.311) rotate(17)" fill="#002a4e"/>
    </g>
    <g id="pc1-2" data-name="pc1" transform="translate(859.661 258.106)">
      <path id="Path_1-2" data-name="Path 1" d="M34.754,34.754,172.92,0,139.464,139.464,0,172.92Z" transform="translate(122.273 0) rotate(45)" fill="#4eedff"/>
      <path id="Path_3-2" data-name="Path 3" d="M771.106,341V488.8l121.9,75.962.052-149.19Z" transform="translate(-771.106 -218.727)" fill="#00c2ff"/>
      <path id="Path_5-13" data-name="Path 5" d="M771.105,341v8.864l7.311,4.556,0-8.948Z" transform="translate(-753.97 -178.161)" fill="#c9f2ff"/>
      <path id="Path_5-14" data-name="Path 5" d="M771.105,341v8.864l7.311,4.556,0-8.948Z" transform="translate(-753.97 -160.829)" fill="#c9f2ff"/>
      <path id="Path_5-15" data-name="Path 5" d="M771.105,341v8.864l7.311,4.556,0-8.948Z" transform="translate(-753.97 -143.496)" fill="#c9f2ff"/>
      <path id="Path_5-16" data-name="Path 5" d="M771.105,341v8.864l7.311,4.556,0-8.948Z" transform="translate(-753.97 -126.164)" fill="#c9f2ff"/>
      <path id="Path_5-17" data-name="Path 5" d="M771.105,341v8.864l7.311,4.556,0-8.948Z" transform="translate(-753.97 -108.832)" fill="#c9f2ff"/>
      <path id="Path_5-18" data-name="Path 5" d="M771.105,341v8.864l7.311,4.556,0-8.948Z" transform="translate(-753.97 -91.5)" fill="#c9f2ff"/>
      <path id="Path_5-19" data-name="Path 5" d="M771.105,341v8.864l38.084,23.08,0-8.948Z" transform="translate(-740.286 -169.039)" fill="#0058cb"/>
      <path id="Path_6-7" data-name="Path 6" d="M771.105,341v8.864l25.207,14.556,0-8.948Z" transform="translate(-692.805 -141.169)" fill="#84ffea"/>
      <path id="Path_6-8" data-name="Path 6" d="M771.105,341v8.864l25.207,14.556,0-8.948Z" transform="translate(-692.805 -124.653)" fill="#84ffea"/>
      <path id="Path_6-9" data-name="Path 6" d="M771.105,341v8.864l25.207,14.556,0-8.948Z" transform="translate(-692.805 -108.138)" fill="#84ffea"/>
      <path id="Path_6-10" data-name="Path 6" d="M771.105,341v8.864l25.207,14.556,0-8.948Z" transform="translate(-692.805 -91.623)" fill="#84ffea"/>
      <path id="Path_6-11" data-name="Path 6" d="M771.105,341v8.864l25.207,14.556,0-8.948Z" transform="translate(-692.805 -74.075)" fill="#84ffea"/>
      <path id="Path_6-12" data-name="Path 6" d="M771.105,341v8.864l25.207,14.556,0-8.948Z" transform="translate(-692.805 -56.527)" fill="#84ffea"/>
      <path id="Path_5-20" data-name="Path 5" d="M771.105,341v8.864l38.084,23.08,0-8.948Z" transform="translate(-740.286 -152.619)" fill="#0058cb"/>
      <path id="Path_5-21" data-name="Path 5" d="M771.105,341v8.864l38.084,23.08,0-8.948Z" transform="translate(-740.286 -136.199)" fill="#0058cb"/>
      <path id="Path_5-22" data-name="Path 5" d="M771.105,341v8.864l38.084,23.08,0-8.948Z" transform="translate(-740.286 -118.866)" fill="#0058cb"/>
      <path id="Path_5-23" data-name="Path 5" d="M771.105,341v8.864l38.084,23.08,0-8.948Z" transform="translate(-740.286 -101.534)" fill="#0058cb"/>
      <path id="Path_5-24" data-name="Path 5" d="M771.105,341v8.864l38.084,23.08,0-8.948Z" transform="translate(-740.286 -84.202)" fill="#0058cb"/>
      <path id="Path_4-2" data-name="Path 4" d="M893.7,341V488.8L771.158,564.761l-.053-149.19Z" transform="translate(-649.149 -218.727)" fill="#0060b4"/>
      <path id="Path_8-2" data-name="Path 8" d="M778.42,341v8.864l-7.311,4.556,0-8.948Z" transform="translate(-550.412 -184.898)" fill="#c9f2ff"/>
      <path id="Path_7-2" data-name="Path 7" d="M809.193,341v8.864l-38.084,23.08,0-8.948Z" transform="translate(-596.65 -175.776)" fill="#30ffc7"/>
      <ellipse id="Ellipse_1-2" data-name="Ellipse 1" cx="23.58" cy="34.809" rx="23.58" ry="34.809" transform="translate(173.903 196.623) rotate(17)" fill="#002a4e"/>
    </g>
    <path id="Path_9" data-name="Path 9" d="M926.472,435.209l138.754,83.638" transform="translate(107.643 50.953)" fill="none" stroke="#00c2ff" stroke-linecap="round" stroke-width="4" stroke-dasharray="14 12"/>
  </g>
</svg>
