<svg xmlns="http://www.w3.org/2000/svg" width="491" height="777">
  <path fill="#FFF" fill-rule="evenodd" d="M.5 214.2c0 55.2 39.1 121.7 87.4 148.5L265 461a60.8 60.8 0 0 1 28.4 48.2V605l94.6 43.5c8.6 4 15.5 14.7 15.5 24v1.2a17 17 0 0 1-17 17H104.3a17 17 0 0 1-17-17V668c0-9.3 7-20 15.7-23.5l93.7-39.3v-47.2c0-12-8.4-26.5-18.8-32.4L61 458.4C27.6 439 .5 454.8.5 493.4v183.8a99.7 99.7 0 0 0 100 99.7l290-.7c55.2-.2 100-45 100.2-100.3l.1-98.1c.1-55.2-39-121.6-87.5-148.1l-178.2-97.8a60.4 60.4 0 0 1-28.4-48.1v-101l-94.1-46.4a29.9 29.9 0 0 1-15.3-24.6v-9a17 17 0 0 1 17-17h282.2a17 17 0 0 1 17 17v9c0 9.4-6.8 20.4-15.3 24.5l-94.8 46.4v52.8c0 12 8.4 26.5 18.8 32.4l117.6 67.3c33.5 19.2 60.7 3.4 60.7-35.2V100a100 100 0 0 0-100-100h-290A100 100 0 0 0 .5 100v114.2z"/>
</svg>
