<svg xmlns="http://www.w3.org/2000/svg" width="1870" height="516" viewBox="0 0 1870 516"><g fill="#FFF"><path d="M771.8 139.2C795 139.2 814.7 145.5 830.9 158 832.4 159.1 834.2 160.7 836.3 162.6L836.3 162.6C840.1 166.2 840.5 172.2 837.2 176.3L822.2 194.6C818.8 198.8 812.7 199.5 808.4 196.2 807.5 195.5 806.7 194.9 806 194.4 802.4 192 798.7 190 794.8 188.4 787.2 185.2 779.4 183.6 771.4 183.6 765 183.6 759.9 184.7 756 187 752.1 189.3 750.2 192.8 750.2 197.6 750.2 201.6 751.9 204.8 755.2 207.2 758.5 209.6 763.8 212.3 771 215.2L790.2 223.2C808.1 230.4 821.8 238.4 831.4 247.2 841 256 845.8 268.1 845.8 283.6 845.8 293.7 843.8 302.7 839.8 310.6 835.8 318.5 830.3 325.1 823.4 330.4 816.5 335.7 808.3 339.8 798.8 342.6 789.3 345.4 779.3 346.8 768.6 346.8 751 346.8 735.1 343.3 721 336.4 713.3 332.6 706.3 328.1 700.2 322.9 698 321 695.4 318.4 692.3 315L692.3 315C689 311.3 688.8 305.7 692 301.9L707.1 283.7C710.6 279.4 716.9 278.8 721.2 282.3 721.3 282.4 721.3 282.5 721.4 282.5 723.2 284.1 724.7 285.3 726 286.3 730.5 289.7 735.1 292.7 739.8 295.2 748.9 300 758.7 302.4 769.4 302.4 776.3 302.4 782.3 301.1 787.2 298.4 792.1 295.7 794.6 291.6 794.6 286 794.6 281.5 792.7 278 789 275.6 785.3 273.2 780.3 270.7 774.2 268L753 259.2C744.5 255.7 736.9 252.1 730.2 248.4 723.5 244.7 717.9 240.4 713.4 235.6 708.9 230.8 705.3 225.4 702.8 219.4 700.3 213.4 699 206.5 699 198.8 699 189.2 700.8 180.7 704.4 173.4 708 166.1 713.1 159.9 719.6 154.8 726.1 149.7 733.9 145.9 742.8 143.2 751.7 140.5 761.4 139.2 771.8 139.2ZM989.8 78C1003.7 78 1016.4 80 1028 84 1039.6 88 1049.6 93.7 1058 101.2 1066.4 108.7 1072.9 117.7 1077.6 128.2 1082.3 138.7 1084.6 150.4 1084.6 163.2 1084.6 176 1082.3 187.6 1077.6 198 1072.9 208.4 1066.4 217.4 1058 225 1049.6 232.6 1039.6 238.5 1028 242.6 1016.4 246.7 1003.7 248.8 989.8 248.8L944.2 248.8 944.2 332C944.2 337.5 939.7 342 934.2 342L900.2 342C894.7 342 890.2 337.5 890.2 332L890.2 98C890.2 87 899.2 78 910.2 78L989.8 78ZM944.2 125.6L944.2 201.6 989.4 201.6C1002.2 201.6 1012.1 198.1 1019 191 1025.9 183.9 1029.4 174.7 1029.4 163.2 1029.4 152 1025.9 142.9 1019 136 1012.1 129.1 1002.2 125.6 989.4 125.6L944.2 125.6ZM1168.2 342L1134.2 342C1128.7 342 1124.2 337.5 1124.2 332L1124.2 154C1124.2 148.5 1128.7 144 1134.2 144L1168.2 144C1173.7 144 1178.2 148.5 1178.2 154L1178.2 332C1178.2 337.5 1173.7 342 1168.2 342ZM1151.4 38.4C1160.7 38.4 1168.8 41.6 1175.6 48 1182.4 54.4 1185.8 62.4 1185.8 72 1185.8 81.3 1182.4 89.2 1175.6 95.6 1168.8 102 1160.7 105.2 1151.4 105.2 1141.8 105.2 1133.6 102 1126.8 95.6 1120 89.2 1116.6 81.3 1116.6 72 1116.6 62.4 1120 54.4 1126.8 48 1133.6 41.6 1141.8 38.4 1151.4 38.4ZM1343 189.6L1296.6 189.6 1296.6 267.6C1296.6 279.1 1299.6 287.1 1305.6 291.6 1311.6 296.1 1320.9 298.4 1333.4 298.4 1336.6 298.4 1340.3 298.3 1344.6 298 1345.6 297.9 1346.8 297.9 1348.2 297.7L1348.2 297.7C1353.7 297.3 1358.5 301.4 1359 306.9 1359 307.2 1359 307.4 1359 307.7L1359 333.9C1359 338.7 1355.6 342.8 1351 343.7 1349.6 344 1348.4 344.2 1347.3 344.4 1345.4 344.8 1343.4 345.1 1341.4 345.4 1335.3 346.3 1328.7 346.8 1321.8 346.8 1297.3 346.8 1277.9 340.8 1263.8 328.8 1249.7 316.8 1242.6 298 1242.6 272.4L1242.6 189.6 1221.4 189.6C1215.9 189.6 1211.4 185.1 1211.4 179.6L1211.4 154C1211.4 148.5 1215.9 144 1221.4 144L1242.6 144 1242.6 104C1242.6 98.5 1247.1 94 1252.6 94L1286.6 94C1292.1 94 1296.6 98.5 1296.6 104L1296.6 144 1343 144C1348.5 144 1353 148.5 1353 154L1353 179.6C1353 185.1 1348.5 189.6 1343 189.6ZM1493.4 139.6C1513.1 139.6 1530.3 144 1544.8 152.8 1554.9 158.9 1563.6 166.6 1570.8 175.7 1571.8 176.9 1573 178.5 1574.3 180.5L1574.3 180.5C1577.3 184.9 1576.3 190.8 1572.2 194L1549.7 211.5C1545.4 214.8 1539.3 214.1 1535.8 209.9 1534.7 208.5 1533.7 207.4 1532.9 206.5 1529.4 202.8 1525.7 199.6 1521.8 196.8 1514.3 191.5 1505 188.8 1493.8 188.8 1486.1 188.8 1479.1 190.2 1472.8 193 1466.5 195.8 1461.1 199.6 1456.6 204.4 1452.1 209.2 1448.5 214.9 1446 221.4 1443.5 227.9 1442.2 235.1 1442.2 242.8 1442.2 250.5 1443.5 257.7 1446 264.4 1448.5 271.1 1452.1 276.8 1456.6 281.6 1461.1 286.4 1466.5 290.2 1472.8 293 1479.1 295.8 1486.1 297.2 1493.8 297.2 1505 297.2 1514.3 294.5 1521.8 289.2 1526 286.2 1530 282.7 1533.6 278.7 1534.2 278.1 1534.8 277.4 1535.5 276.5L1535.5 276.5C1539 272.3 1545.1 271.6 1549.3 274.9L1571.8 292.1C1576 295.3 1577 301.2 1574.1 305.5 1573.5 306.5 1572.9 307.3 1572.4 308 1565 318.2 1555.8 326.6 1544.8 333.4 1530.3 342.3 1513.1 346.8 1493.4 346.8 1478.5 346.8 1464.5 344.1 1451.6 338.8 1438.7 333.5 1427.4 326.1 1417.8 316.8 1408.2 307.5 1400.7 296.5 1395.2 283.8 1389.7 271.1 1387 257.5 1387 242.8 1387 228.1 1389.7 214.5 1395.2 202 1400.7 189.5 1408.2 178.6 1417.8 169.4 1427.4 160.2 1438.7 152.9 1451.6 147.6 1464.5 142.3 1478.5 139.6 1493.4 139.6ZM1673 160.8C1679.7 154.1 1687.5 148.9 1696.6 145.2 1705.7 141.5 1715.9 139.6 1727.4 139.6 1738.6 139.6 1748.7 141.5 1757.8 145.4 1766.9 149.3 1774.6 154.7 1781 161.6 1787.4 168.5 1792.3 176.9 1795.8 186.6 1799.3 196.3 1801 207.2 1801 219.2L1801 332C1801 337.5 1796.5 342 1791 342L1757.4 342C1751.9 342 1747.4 337.5 1747.4 332L1747.4 226.8C1747.4 215.1 1744.1 205.7 1737.4 198.8 1730.7 191.9 1721.8 188.4 1710.6 188.4 1699.4 188.4 1690.3 191.9 1683.4 199 1676.5 206.1 1673 215.3 1673 226.8L1673 332C1673 337.5 1668.5 342 1663 342L1629 342C1623.5 342 1619 337.5 1619 332L1619 52C1619 46.5 1623.5 42 1629 42L1663 42C1668.5 42 1673 46.5 1673 52L1673 160.8Z"/><path d="M692.8 448.3C692.8 443.6 694 439.2 696.3 435.3 698.7 431.4 701.8 428.3 705.8 426.1 709.8 423.9 714.2 422.8 718.9 422.8 723.5 422.8 727.8 423.9 731.8 426.1 735.7 428.3 738.9 431.3 741.3 435.2 743.6 439.1 744.8 443.4 744.8 448.2 745 462.4 732.9 474.2 718.8 473.9 714.1 473.9 709.8 472.7 705.8 470.5 701.8 468.3 698.7 465.2 696.3 461.3 694 457.4 692.8 453.1 692.8 448.3ZM704.1 448.2C704.1 452.4 705.4 456.2 708.2 459.2 711 462.3 714.6 463.9 718.9 463.9 723.3 463.9 726.7 462.4 729.5 459.3 732.2 456.4 733.6 452.7 733.6 448.3 733.6 444 732.2 440.2 729.4 437.3 726.7 434.2 723.2 432.7 718.8 432.7 714.5 432.7 710.9 434.2 708.1 437.2 705.3 440.1 704.1 443.8 704.1 448.2ZM812.3 473L812.3 445.5C812.3 438.1 808.6 433.2 801.4 433.2 797.9 433.2 795.2 434.3 793.1 436.6 791 438.8 790 441.8 790 445.6L790 473 779 473 779 423.8 789.7 423.8 789.7 430.4C791.2 428.5 793 426.9 795 425.7 797 424.5 798.6 423.7 800.2 423.3 801.7 423 803.3 422.8 804.8 422.8 810.8 422.8 815.4 424.6 818.5 428.4 821.7 432 823.2 436.9 823.2 442.7L823.2 473 812.3 473ZM871.3 398L871.3 473 860.3 473 860.3 398 871.3 398ZM909.4 412.9C908 411.5 907.2 409.8 907.2 407.9 907.2 405.8 908 404.1 909.4 402.7 910.8 401.2 912.5 400.5 914.4 400.5 916.5 400.5 918.2 401.2 919.6 402.7 921 404.1 921.7 405.8 921.7 407.9 921.7 409.8 921 411.5 919.6 412.9 918.2 414.3 916.5 415.1 914.4 415.1 912.5 415.1 910.8 414.3 909.4 412.9ZM909 473L909 423.8 920 423.8 920 473 909 473ZM990.9 473L990.9 445.5C990.9 438.1 987.2 433.2 980 433.2 976.5 433.2 973.8 434.3 971.7 436.6 969.6 438.8 968.6 441.8 968.6 445.6L968.6 473 957.6 473 957.6 423.8 968.3 423.8 968.3 430.4C969.8 428.5 971.6 426.9 973.6 425.7 975.5 424.5 977.2 423.7 978.8 423.3 980.3 423 981.9 422.8 983.4 422.8 989.4 422.8 994 424.6 997.1 428.4 1000.3 432 1001.8 436.9 1001.8 442.7L1001.8 473 990.9 473ZM1084.3 451.6L1046.9 451.6C1047.1 458.9 1054.2 464.6 1061.3 464.5 1067.7 464.5 1072.5 461.8 1074.4 456.2L1083.6 459C1081.8 465.1 1076.9 469.9 1070.9 472.2 1067.8 473.3 1064.8 473.9 1061.4 473.9 1047.3 474.2 1035.4 462.6 1035.7 448.3 1035.7 443.7 1036.8 439.4 1038.8 435.6 1041 431.6 1043.9 428.5 1047.8 426.3 1051.5 424 1055.8 422.8 1060.4 422.8 1067.9 422.8 1073.8 425.1 1078 429.8 1082.3 434.5 1084.5 440.6 1084.5 448.3 1084.5 449.4 1084.4 450.6 1084.3 451.6ZM1060.5 432.2C1057.2 432.2 1054.2 433.2 1051.8 435.3 1049.4 437.3 1048 439.9 1047.5 443.3L1073.3 443.3C1073.1 439.9 1071.8 437.3 1069.4 435.2 1067 433.2 1064 432.2 1060.5 432.2ZM1198.4 473L1198.4 445.4C1198.4 438 1195 433.1 1187.9 433.1 1184.4 433.1 1181.9 434.2 1180 436.5 1178 438.8 1177 441.8 1177 445.6L1177 473 1166 473 1166 423.8 1176.7 423.8 1176.7 430.4C1178.2 428.5 1179.9 426.9 1181.9 425.7 1183.7 424.5 1185.4 423.6 1186.9 423.2 1188.4 422.9 1190 422.7 1191.5 422.7 1198.5 422.7 1203.5 425.4 1206.6 430.7 1209.1 428 1211.7 426 1214.3 424.6 1217 423.3 1220.1 422.7 1223.7 422.7 1229.8 422.7 1234.5 424.9 1237.4 428.5 1240.3 432.1 1241.7 436.9 1241.7 442.6L1241.7 473 1230.7 473 1230.7 445.3C1230.7 437.9 1227.4 433.1 1220.2 433.1 1216.8 433.1 1214.1 434.2 1212.3 436.5 1210.3 438.7 1209.3 441.8 1209.3 445.5L1209.3 473 1198.4 473ZM1318 473L1307.3 473C1307 471.6 1306.8 469.4 1306.8 466.3 1305.1 469 1303.1 470.9 1300.5 472.1 1297.8 473.3 1295.2 473.9 1292.4 473.9 1287.6 473.9 1283.6 472.5 1280.5 469.7 1277.4 467.1 1275.8 463.6 1275.8 459.3L1275.8 458.8C1275.9 452 1280 447.9 1285.3 445.8 1289.1 444.3 1292.7 443.8 1296.2 443.8L1302.4 443.8C1305.4 443.8 1306.9 442.4 1306.9 439.6 1306.9 437.6 1306.1 435.8 1304.5 434.3 1302.8 432.9 1300.4 432.1 1297.2 432.1 1291.4 432.1 1287.3 435.4 1286.5 440.3L1276.5 438.1C1276.8 435.8 1277.9 433.3 1279.9 430.6 1281.9 428.1 1284.4 426.1 1287.6 424.7 1290.4 423.4 1293.8 422.8 1297.6 422.8 1306.8 422.8 1313 426.2 1316 432.9 1317.1 435.3 1317.7 438.2 1317.7 441.6L1317.7 465.1C1317.7 468.3 1317.8 471 1318 473ZM1306.8 453.1L1306.8 451.5 1296.2 451.5C1293.9 451.5 1291.8 452.1 1289.8 453.3 1287.8 454.6 1286.8 456.3 1286.8 458.3 1286.8 462.4 1290 465.1 1294.7 465.1 1298.3 465.1 1301.4 464 1303.6 461.8 1305.7 459.6 1306.8 456.8 1306.8 453.1ZM1381.7 423.6L1381.7 434.9C1380.8 434.7 1379.8 434.6 1378.6 434.6 1370.3 434.6 1365.8 439.4 1365.8 448L1365.8 473 1354.8 473 1354.8 423.8 1365.6 423.8 1365.6 431.4C1368.4 426.2 1373.7 423.4 1379 423.4 1380 423.4 1380.9 423.5 1381.7 423.6ZM1425 448.9L1425 473 1414 473 1414 398 1425 398 1425 443.2 1425.1 443.2 1444.2 423.8 1459.2 423.8 1436.9 446.1 1460.3 473 1445.8 473 1425.3 448.9 1425 448.9ZM1529.9 451.6L1492.5 451.6C1492.7 458.9 1499.8 464.6 1506.9 464.5 1513.2 464.5 1518.1 461.8 1520 456.2L1529.2 459C1527.4 465.1 1522.5 469.9 1516.5 472.2 1513.4 473.3 1510.4 473.9 1507 473.9 1492.9 474.2 1481 462.6 1481.3 448.3 1481.3 443.7 1482.4 439.4 1484.4 435.6 1486.6 431.6 1489.5 428.5 1493.3 426.3 1497.1 424 1501.4 422.8 1506 422.8 1513.5 422.8 1519.4 425.1 1523.6 429.8 1527.9 434.5 1530.1 440.6 1530.1 448.3 1530.1 449.4 1530 450.6 1529.9 451.6ZM1506.1 432.2C1502.8 432.2 1499.8 433.2 1497.4 435.3 1495 437.3 1493.5 439.9 1493 443.3L1518.9 443.3C1518.7 439.9 1517.4 437.3 1515 435.2 1512.6 433.2 1509.6 432.2 1506.1 432.2ZM1589.8 423.8L1589.8 433.7 1577.3 433.7 1577.3 457.2C1577.3 461.5 1579.5 463.5 1584.9 463.5 1585.9 463.5 1587.4 463.4 1589.3 463.1L1589.3 472.5C1587.1 473.1 1584.5 473.5 1581.5 473.5 1576.4 473.5 1572.6 472.3 1570.1 469.9 1567.6 467.6 1566.3 463.5 1566.3 457.8L1566.3 433.7 1556.8 433.7 1556.8 423.8 1566.3 423.8 1566.3 408.6 1577.3 408.6 1577.3 423.8 1589.8 423.8ZM1624.6 412.9C1623.2 411.5 1622.4 409.8 1622.4 407.9 1622.4 405.8 1623.2 404.1 1624.6 402.7 1626 401.2 1627.7 400.5 1629.6 400.5 1631.7 400.5 1633.4 401.2 1634.8 402.7 1636.2 404.1 1636.9 405.8 1636.9 407.9 1636.9 409.8 1636.2 411.5 1634.8 412.9 1633.4 414.3 1631.7 415.1 1629.6 415.1 1627.7 415.1 1626 414.3 1624.6 412.9ZM1624.2 473L1624.2 423.8 1635.2 423.8 1635.2 473 1624.2 473ZM1706.1 473L1706.1 445.5C1706.1 438.1 1702.4 433.2 1695.2 433.2 1691.7 433.2 1689 434.3 1686.9 436.6 1684.8 438.8 1683.8 441.8 1683.8 445.6L1683.8 473 1672.8 473 1672.8 423.8 1683.5 423.8 1683.5 430.4C1685 428.5 1686.8 426.9 1688.8 425.7 1690.7 424.5 1692.4 423.7 1694 423.3 1695.5 423 1697.1 422.8 1698.6 422.8 1704.6 422.8 1709.2 424.6 1712.3 428.4 1715.5 432 1717 436.9 1717 442.7L1717 473 1706.1 473ZM1774.7 473.4C1767.9 473.4 1761.6 470.4 1757.5 465.8 1753.3 461.1 1750.8 454.8 1750.8 448.3 1750.8 442.1 1753.2 436 1757.2 431.1 1761.2 426.3 1767.7 423 1775 423 1777.7 423 1780.6 423.6 1783.7 425 1786.9 426.5 1789.4 428.5 1791.2 431.3L1791.2 423.8 1801.9 423.8 1801.9 472.7C1801.9 477.9 1800.7 482.2 1798.3 486.1 1795.9 489.8 1792.8 492.8 1788.8 494.7 1784.8 496.7 1780.3 497.7 1775.2 497.7 1767.8 497.7 1761 495.5 1755.8 490.3 1753.2 487.8 1751.7 484.6 1751 481L1761.3 478C1761.9 480.7 1763.4 483 1766 484.9 1768.6 486.9 1771.5 487.9 1774.8 487.9 1782.9 487.9 1790.9 483.5 1790.9 473.2L1790.9 465.1C1789.7 467.1 1787.9 468.7 1785.8 470 1783.6 471.3 1781.7 472.2 1779.8 472.7 1778 473.1 1776.3 473.4 1774.7 473.4ZM1791.1 448.1C1791.1 443.7 1789.7 440 1787 437.2 1784.3 434.2 1780.8 432.8 1776.4 432.8 1772.1 432.8 1768.5 434.2 1765.7 437.2 1763.1 440 1761.7 443.7 1761.7 448.1 1761.7 452.4 1763.1 456.1 1765.8 459 1768.6 462.1 1772.1 463.6 1776.4 463.6 1780.8 463.6 1784.2 462.1 1787 459 1789.7 456.1 1791.1 452.4 1791.1 448.1Z"/><path d="M74.1 256.5C85 278.8 100.7 290.6 121.4 292 152.4 294 169.8 277.4 179.4 271.2 185.7 267.1 220.4 233.1 283.4 169.4L363.8 88.9C414.6 38.1 496.9 38.1 547.7 88.9 598.4 139.7 598.4 222 547.7 272.8L410.2 410.2C374.9 445.5 358.4 454.7 338.6 460.7 318.8 466.7 298.5 466.7 278.7 460.7 258.9 454.7 242.4 445.5 207.1 410.2L124.8 327.9 121.4 324.1 102.8 305.5C59 262 58.9 191.2 102.4 147.5 102.5 147.4 102.6 147.4 102.6 147.3 146.3 103.6 217.3 103.6 261 147.3L283.4 169.4C220.4 233.1 185.7 267.1 179.4 271.2 169.8 277.4 152.4 294 121.4 292 100.7 290.6 85 278.8 74.1 256.5Z" style="fill-opacity:0.2;stroke-width:60;stroke:#FFF"/></g></svg>
