<svg xmlns="http://www.w3.org/2000/svg" width="638" height="404" viewBox="0 0 638 404"><g fill="none"><path d="M88.1 140C78.2 140 69.8 136.7 64.7 131.8 59.4 126.9 56.3 120.8 55.7 114.4L69 110.8C70 116 72.1 120 75.5 123 78.8 126 83.2 127.6 88.3 127.6 92.8 127.6 96.5 126.4 99.6 124.1 102.6 121.8 104.2 119 104.2 115.4 104.2 108.5 99 104.2 91.2 102.5L80.4 100.4C73.4 98.9 68 96 64.2 91.7 60.2 87.4 58.3 82.4 58.3 76.6 58 62.4 71.8 50 87.1 50.2 99 50.3 106.9 54.5 111.4 60.2 114.6 64 116.2 67.7 117 71.8L104.2 75.8C103.3 72.4 101.4 69.3 98.4 66.6 95.4 64 91.8 62.7 87.5 62.7 83.3 62.7 79.7 63.9 76.8 66.4 73.8 68.9 72.4 71.8 72.4 75.3 72.4 77.9 73.3 80.3 75.4 82.6 77.4 84.8 80 86.2 83.4 86.9L94.4 89.1C109.9 92.2 118.3 101.3 118.3 114.4 118.3 120.9 115.4 127.1 110.5 131.9 105.5 136.7 97.4 140 88.1 140ZM163.8 79.4L163.8 91.4 148.7 91.4 148.7 119.8C148.7 125.1 151.3 127.5 157.8 127.5 159.1 127.5 160.9 127.4 163.2 127L163.2 138.4C160.6 139.1 157.3 139.6 153.7 139.6 147.6 139.6 142.9 138.2 139.9 135.3 136.9 132.4 135.4 127.5 135.4 120.5L135.4 91.4 123.9 91.4 123.9 79.4 135.4 79.4 135.4 60.9 148.7 60.9 148.7 79.4 163.8 79.4ZM223.8 139L210.9 139C210.5 137.3 210.3 134.7 210.3 130.8 208.2 134.2 205.7 136.5 202.6 137.9 199.4 139.4 196.1 140.1 192.8 140.1 187 140.1 182.1 138.4 178.4 135 174.6 131.8 172.7 127.6 172.7 122.4L172.7 121.8C172.8 113.6 177.8 108.5 184.2 106 188.8 104.2 193.1 103.6 197.4 103.6L204.9 103.6C208.6 103.6 210.4 101.9 210.4 98.6 210.4 96 209.4 93.9 207.4 92.1 205.4 90.4 202.5 89.4 198.6 89.4 191.6 89.4 186.6 93.4 185.7 99.4L173.6 96.6C173.9 93.9 175.2 90.9 177.6 87.6 180 84.5 183 82.1 187 80.4 190.4 78.9 194.4 78.2 199.1 78.2 210.3 78.2 217.7 82.2 221.4 90.4 222.8 93.3 223.5 96.8 223.5 101L223.5 129.4C223.5 133.4 223.6 136.6 223.8 139ZM210.3 114.9L210.3 113 197.4 113C194.6 113 192 113.7 189.6 115.1 187.2 116.7 186 118.7 186 121.2 186 126.2 189.9 129.4 195.5 129.4 200 129.4 203.7 128.1 206.3 125.4 209 122.8 210.3 119.3 210.3 114.9ZM271.7 79.4L271.7 91.4 256.6 91.4 256.6 119.8C256.6 125.1 259.3 127.5 265.7 127.5 267.1 127.5 268.9 127.4 271.1 127L271.1 138.4C268.5 139.1 265.3 139.6 261.7 139.6 255.5 139.6 250.9 138.2 247.9 135.3 244.9 132.4 243.3 127.5 243.3 120.5L243.3 91.4 231.8 91.4 231.8 79.4 243.3 79.4 243.3 60.9 256.6 60.9 256.6 79.4 271.7 79.4ZM284.7 66.2C283 64.5 282.1 62.4 282.1 60 282.1 57.5 283 55.5 284.7 53.8 286.4 52 288.4 51.2 290.8 51.2 293.4 51.2 295.4 52 297.1 53.8 298.8 55.5 299.6 57.5 299.6 60 299.6 62.4 298.8 64.5 297.1 66.2 295.4 67.8 293.4 68.8 290.8 68.8 288.4 68.8 286.4 67.8 284.7 66.2ZM284.2 139L284.2 79.4 297.6 79.4 297.6 139 284.2 139ZM309.9 109.1C309.9 103.4 311.4 98.1 314.3 93.3 317.1 88.6 320.9 84.8 325.8 82.1 330.6 79.5 335.9 78.2 341.6 78.2 347.1 78.2 352.4 79.5 357.2 82.1 362 84.8 365.9 88.5 368.7 93.2 371.5 98 372.9 103.1 372.9 108.9 373.3 126.2 358.5 140.4 341.5 140.1 335.7 140.1 330.6 138.6 325.8 136 320.9 133.4 317.1 129.5 314.3 124.8 311.4 120 309.9 114.9 309.9 109.1ZM323.6 108.9C323.6 114 325.3 118.6 328.7 122.3 332 126 336.3 128 341.6 128 346.9 128 351.1 126.2 354.5 122.4 357.7 118.8 359.4 114.4 359.4 109.1 359.4 103.8 357.7 99.3 354.3 95.7 351.1 92 346.8 90.2 341.5 90.2 336.2 90.2 331.9 92 328.5 95.6 325.2 99.2 323.6 103.6 323.6 108.9ZM425.6 139L425.6 105.6C425.6 96.6 421.2 90.8 412.4 90.8 408.2 90.8 404.9 92.1 402.4 94.8 399.8 97.6 398.6 101.2 398.6 105.8L398.6 139 385.3 139 385.3 79.4 398.3 79.4 398.3 87.4C400.1 85 402.2 83.1 404.6 81.6 407 80.2 409.1 79.2 411 78.8 412.8 78.4 414.7 78.2 416.5 78.2 423.8 78.2 429.4 80.3 433.2 84.9 437 89.3 438.8 95.2 438.8 102.3L438.8 139 425.6 139ZM474.1 140.1C464.5 140 458.1 136.2 454.6 131.7 452.1 128.4 450.9 125.6 450.6 122.7L462 119.7C463.2 125.2 467.4 129.2 474 129.2 479.4 129.2 482.4 126.4 482.4 122.2 482.4 119 480.4 116.8 475.3 115.6L467.8 113.8C457.2 111.4 451.9 104.8 451.9 96.8 451.9 91.6 454 87.3 458.1 83.6 462 80 467.1 78 473.1 78 482.3 78.2 488.2 81.6 491.4 86 493.7 89 494.7 91.5 495 94L483.9 97.1C482.8 92.6 479.4 88.8 473.1 88.8 470.9 88.8 469 89.4 467.3 90.8 465.6 92 464.9 93.6 464.9 95.6 464.9 98.9 467.3 101.1 470.9 101.8L479.1 103.5C484.3 104.7 488.5 106.8 491.5 110.1 494.4 113.3 496 117.2 496 121.5 496 130.6 489 140.1 474.1 140.1Z" fill="#DCA174"/><path d="M54.1 239.4C57.3 238.9 59.4 238.1 60.4 237 61.3 235.8 61.8 233.1 61.8 228.8L61.8 172.6C61.8 170.4 61.6 168.8 61 167.7 60.4 166.7 59.1 166.2 56.9 166.2 56.4 166.2 56 166.2 55.6 166.3 55.2 166.3 54.7 166.4 54.2 166.5L54.2 164.4C55.9 163.9 58.1 163.2 60.6 162.5 63.1 161.8 64.9 161.3 65.8 161L71.5 159.2 71.6 159.6 71.6 195.6C74 192.8 76.2 190.7 78.1 189.4 81.6 187 85.3 185.9 89.3 185.9 95.6 185.9 99.9 188.5 102.2 193.8 103.5 196.6 104.1 200.3 104.1 204.9L104.1 228.8C104.1 233 104.6 235.6 105.5 236.9 106.5 238.1 108.4 239 111.4 239.4L111.4 241 86 241 86 239.4C89.4 238.9 91.6 238.1 92.6 237 93.6 235.8 94.1 233.1 94.1 228.8L94.1 205.1C94.1 201.3 93.4 198.2 92.2 195.9 90.9 193.5 88.5 192.4 85 192.4 81.9 192.4 79 193.5 76.1 195.6 73.3 197.8 71.9 199.3 71.9 199.9L71.9 228.8C71.9 233.2 72.4 235.9 73.4 237 74.4 238.1 76.6 238.9 79.9 239.4L79.9 241 54.1 241 54.1 239.4ZM131.6 186.7L131.6 224.2C131.6 226.9 131.9 229 132.7 230.6 134.1 233.6 136.8 235.1 140.7 235.1 143.3 235.1 145.9 234.2 148.4 232.4 149.9 231.5 151.4 230.1 152.8 228.4L152.8 196.3C152.8 193.3 152.3 191.3 151.1 190.4 149.9 189.4 147.6 188.9 144.1 188.7L144.1 186.7 163 186.7 163 228C163 230.6 163.5 232.5 164.4 233.5 165.4 234.5 167.4 234.9 170.5 234.8L170.5 236.4C168.3 237 166.8 237.5 165.7 237.7 164.7 238 163 238.6 160.6 239.4 159.6 239.7 157.4 240.6 154 241.9 153.8 241.9 153.6 241.8 153.6 241.6 153.6 241.4 153.5 241.2 153.5 241L153.5 231.6C150.9 234.7 148.5 237.1 146.3 238.6 143 240.9 139.4 242.1 135.7 242.1 132.3 242.1 129.1 240.9 126.1 238.5 123.1 236.1 121.6 232.1 121.6 226.5L121.6 196.1C121.6 192.9 120.9 190.8 119.6 189.8 118.7 189.1 116.9 188.7 114.1 188.4L114.1 186.7 131.6 186.7ZM182.8 165.4C182.8 163.7 183.4 162.2 184.6 161 185.8 159.8 187.2 159.2 188.9 159.2 190.6 159.2 192.1 159.8 193.2 161 194.4 162.2 195 163.6 195 165.4 195 167 194.4 168.5 193.2 169.7 192.1 170.9 190.6 171.4 188.9 171.4 187.2 171.4 185.8 170.9 184.6 169.7 183.4 168.5 182.8 167 182.8 165.4ZM175.3 239.4C179.5 239 182.2 238.3 183.3 237.2 184.3 236.2 184.9 233.4 184.9 228.8L184.9 200.9C184.9 198.3 184.7 196.6 184.4 195.6 183.8 194 182.6 193.2 180.7 193.2 180.2 193.2 179.8 193.2 179.4 193.3 179 193.4 177.8 193.7 175.9 194.2L175.9 192.4 178.4 191.6C185.2 189.4 190 187.7 192.7 186.6 193.8 186.1 194.5 185.9 194.8 185.9 194.9 186.1 194.9 186.4 194.9 186.7L194.9 228.8C194.9 233.3 195.5 236.1 196.5 237.2 197.6 238.3 200 239 203.8 239.4L203.8 241 175.3 241 175.3 239.4ZM212.6 222.5L214.5 222.5C215.4 227 216.6 230.4 218.1 232.8 220.9 237.2 224.9 239.4 230.1 239.4 233.1 239.4 235.4 238.5 237.1 236.9 238.8 235.3 239.6 233.2 239.6 230.6 239.6 229 239.1 227.4 238.2 225.9 237.2 224.4 235.5 222.9 233 221.4L226.4 217.7C221.6 215.1 218.1 212.5 215.8 209.9 213.6 207.3 212.4 204.2 212.4 200.6 212.4 196.3 214 192.7 217.1 189.8 220.2 187 224.2 185.6 228.9 185.6 231 185.6 233.2 186 235.7 186.8 238.2 187.6 239.6 188 239.9 188 240.6 188 241.1 187.9 241.4 187.7 241.8 187.5 242 187.2 242.3 186.7L243.7 186.7 244.1 203.1 242.3 203.1C241.5 199.3 240.4 196.4 239.1 194.2 236.7 190.3 233.2 188.4 228.6 188.4 225.9 188.4 223.7 189.2 222.2 190.9 220.6 192.6 219.8 194.6 219.8 196.8 219.8 200.4 222.5 203.6 227.9 206.4L235.6 210.6C244 215.1 248.1 220.4 248.1 226.4 248.1 231 246.4 234.8 242.9 237.7 239.5 240.6 235 242.1 229.4 242.1 227 242.1 224.4 241.7 221.4 240.9 218.4 240.2 216.7 239.8 216.1 239.8 215.7 239.8 215.2 239.9 214.9 240.3 214.5 240.6 214.3 241 214.1 241.5L212.6 241.5 212.6 222.5ZM53.2 350.4C57 350.1 59.5 349.5 60.6 348.5 61.8 347.5 62.4 345.4 62.4 342.2L62.4 283.4C62.4 280.7 62 278.9 61 278.2 60.1 277.4 58.7 277.1 57 277.1 56.2 277.1 55.6 277.1 55.1 277.1 54.5 277.2 53.9 277.2 53.2 277.3L53.2 275.7 58.5 274.2C62.5 273.2 65.9 272.2 68.8 271.3 70.5 270.7 71.5 270.4 71.8 270.4 72 270.4 72.1 270.4 72.2 270.5 72.2 270.6 72.3 270.8 72.3 271.2L72.3 320.5 88.5 306.2C89.7 305.1 90.5 304.3 90.9 303.7 91.3 303 91.5 302.5 91.5 302 91.5 301.1 91.1 300.6 90.2 300.3 89.3 300.1 87.7 299.9 85.5 299.8L85.5 298.2 109.9 298.2 109.9 299.8C105.5 300.1 102 300.9 99.3 302.4 96.7 303.9 91.6 308.1 84.1 315L80.6 318.1 91.4 332.2C97 339.4 101.2 344.2 104 346.5 106.8 348.9 109.8 350.2 112.9 350.5L112.9 352 86.9 352 86.9 350.4 88.9 350.2C89.6 350.2 90.2 350.1 90.7 349.8 91.3 349.6 91.6 349.2 91.6 348.7 91.6 348.2 91.5 347.8 91.3 347.5 91.1 347.1 90.8 346.7 90.4 346.2L72.3 322.3 72.3 344C72.3 346.7 73.3 348.5 75.3 349.4 76.4 349.9 78.4 350.2 81.3 350.2L81.3 352 53.2 352 53.2 350.4ZM147.4 319.5C142.9 321 139.2 322.7 136.3 324.5 130.6 327.9 127.8 331.9 127.8 336.3 127.8 339.9 129 342.5 131.3 344.1 132.9 345.2 134.6 345.8 136.4 345.8 139 345.8 141.5 345.1 143.8 343.6 146.2 342.2 147.4 340.3 147.4 338.1L147.4 319.5ZM117.4 340.3C117.4 334.7 120.2 329.9 125.9 326.2 129.5 323.8 136.7 320.6 147.4 316.6L147.4 311.6C147.4 307.6 147 304.9 146.2 303.3 144.9 300.7 142.1 299.4 138 299.4 136 299.4 134.1 299.9 132.3 300.9 130.5 302 129.6 303.4 129.6 305.2 129.6 305.7 129.7 306.5 129.9 307.6 130.1 308.7 130.2 309.4 130.2 309.8 130.2 311.9 129.4 313.5 128 314.3 127.2 314.8 126.2 315.1 125.1 315.1 123.3 315.1 122 314.5 121 313.4 120.1 312.2 119.6 310.9 119.6 309.5 119.6 306.8 121.3 303.9 124.7 300.9 128.1 297.9 133 296.5 139.5 296.5 147.1 296.5 152.3 298.9 155 303.8 156.4 306.5 157.1 310.5 157.1 315.6L157.1 339.1C157.1 341.4 157.3 342.9 157.6 343.8 158.1 345.3 159.2 346.1 160.8 346.1 161.7 346.1 162.4 345.9 163 345.7 163.6 345.4 164.6 344.7 166 343.7L166 346.7C164.8 348.3 163.4 349.5 162 350.5 159.8 352 157.6 352.7 155.3 352.7 152.6 352.7 150.7 351.8 149.5 350.1 148.3 348.4 147.7 346.4 147.6 344 144.6 346.6 142.1 348.5 140 349.7 136.4 351.8 133 352.9 129.8 352.9 126.5 352.9 123.5 351.7 121.1 349.3 118.6 347 117.4 344 117.4 340.3ZM168.2 350.5C171.2 350.2 173.3 349.7 174.3 349 175.9 347.8 176.6 345.6 176.6 342.2L176.6 311.9C176.6 309 176.3 307.1 175.5 306.2 174.7 305.3 173.5 304.8 171.7 304.8 170.9 304.8 170.3 304.9 169.9 304.9 169.5 305 169 305.2 168.4 305.4L168.4 303.3 172.6 301.9C174.2 301.4 176.7 300.5 180.1 299.1 183.6 297.8 185.5 297.2 185.7 297.2 185.9 297.2 186 297.3 186 297.4 186 297.6 186.1 298 186.1 298.6L186.1 306.5C189.9 303 193.3 300.5 196.1 299.2 198.9 297.8 201.8 297.2 204.8 297.2 208.8 297.2 212 298.5 214.4 301.3 215.6 302.7 216.7 304.8 217.5 307.3 220.4 304.4 222.9 302.2 225 300.8 228.7 298.4 232.5 297.2 236.4 297.2 242.7 297.2 246.9 299.7 249 304.8 250.2 307.7 250.8 312.3 250.8 318.5L250.8 342.9C250.8 345.6 251.4 347.5 252.7 348.5 253.9 349.5 256.1 350.2 259.3 350.5L259.3 352 232.9 352 232.9 350.4C236.3 350 238.5 349.4 239.6 348.3 240.7 347.3 241.2 345.1 241.2 341.9L241.2 316.6C241.2 312.8 240.8 310 240 308.2 238.5 305 235.7 303.4 231.5 303.4 228.9 303.4 226.4 304.3 223.9 305.9 222.5 306.9 220.7 308.5 218.6 310.6L218.6 340.6C218.6 343.8 219.1 346.2 220.3 347.8 221.4 349.5 223.7 350.4 227.3 350.5L227.3 352 200.4 352 200.4 350.5C204.1 350 206.5 349.1 207.5 347.8 208.5 346.5 209 343.2 209 338L209 321.6C209 315.6 208.6 311.4 207.9 309.2 206.6 305.3 203.8 303.4 199.7 303.4 197.3 303.4 194.9 304.1 192.6 305.4 190.3 306.7 188.3 308.4 186.5 310.5L186.5 342.6C186.5 345.5 187.1 347.6 188.1 348.7 189.1 349.9 191.4 350.4 194.9 350.5L194.9 352 168.2 352 168.2 350.5ZM287.1 297C292.6 297 297.4 298.9 301.6 302.8 305.7 306.6 307.8 312 307.8 319L270.6 319C270.9 328 273 334.6 276.7 338.8 280.4 342.9 284.8 345 289.9 345 294 345 297.5 343.9 300.3 341.7 303.1 339.6 305.7 336.6 308.1 332.6L310.1 333.3C308.5 338.3 305.5 342.9 301.1 347.1 296.7 351.3 291.3 353.4 285 353.4 277.6 353.4 272 350.6 268 345.1 263.9 339.5 261.9 333.2 261.9 325.9 261.9 318.1 264.3 311.3 268.9 305.6 273.6 299.9 279.6 297 287.1 297ZM283.7 301.3C279.2 301.3 275.8 303.3 273.5 307.2 272.2 309.3 271.3 312 270.8 315.2L295.5 315.2C295.1 311.3 294.3 308.4 293.3 306.5 291.4 303 288.2 301.3 283.7 301.3ZM313.4 350.1C317 349.8 319.4 349.1 320.5 348.2 321.7 347.2 322.3 345.2 322.3 342L322.3 315.6C322.3 311.7 321.9 309 321.2 307.3 320.5 305.7 319.2 304.8 317.3 304.8 316.9 304.8 316.3 304.9 315.7 305 315.1 305.1 314.4 305.2 313.7 305.4L313.7 303.4C315.9 302.6 318.2 301.8 320.5 301 322.9 300.2 324.5 299.6 325.4 299.3 327.4 298.5 329.4 297.7 331.4 296.7 331.7 296.7 331.9 296.8 331.9 297 332 297.2 332 297.6 332 298.3L332 307.9C334.5 304.4 336.9 301.7 339.3 299.7 341.6 297.8 344 296.8 346.5 296.8 348.5 296.8 350.1 297.4 351.4 298.6 352.6 299.8 353.2 301.3 353.2 303.1 353.2 304.7 352.8 306 351.8 307.1 350.8 308.2 349.6 308.8 348.2 308.8 346.7 308.8 345.2 308.1 343.7 306.7 342.2 305.3 341 304.7 340.2 304.7 338.8 304.7 337.1 305.8 335.1 308 333.1 310.2 332.1 312.4 332.1 314.8L332.1 341.2C332.1 344.6 332.9 346.9 334.5 348.2 336 349.5 338.6 350.1 342.3 350.1L342.3 352 313.4 352 313.4 350.1Z" fill="#716662"/></g></svg>
