<svg xmlns="http://www.w3.org/2000/svg" width="256" height="256" viewBox="0 0 256 256"><path d="M187.3 154.8L187.3 161.7 79.3 208.9 69.3 223.2 68.1 223.2 68.1 184.7 69.3 184.7 79.3 200.2 178.7 158.4 80.3 120.3 69.1 139.2 68 139.2 68 89.9 68 89.9C68 89.7 68 89.5 68 89.3 68 72.2 73.3 58.6 83.9 48.3 94.4 38.2 108 33 124.8 32.8 125.2 32.8 126.5 32.8 126.6 32.8 128.5 32.8 130.4 32.8 132.3 32.9 137.8 33.1 143.2 33.8 148.4 35.1 152.3 36.1 156.9 37.6 162.5 40.3 168.1 43 172.1 44.4 174.3 44.4 176.5 44.4 178.2 43.7 179.4 42.4 180.7 41.1 181.8 37.9 182.9 32.8L186.6 32.8 188 89.1 182.9 89.1C180.5 75 174.6 63.6 165.2 55 162.5 52.6 159.7 50.5 156.9 48.7 150.9 44.9 139.6 39.8 131.6 38.4 130.6 38.3 128.1 38 126.5 37.8 125.4 37.8 123.8 37.8 123.3 37.8 115.4 37.8 108.4 39.9 102.4 44.1 96.3 48.4 93.3 54.8 93.3 63.4 93.3 72 96.5 78.5 103.1 83.1 109.6 87.7 118.9 91.7 131 95 143 98.4 151.7 101.4 157.2 103.9 162.6 106.4 167.8 109.7 172.7 113.8 182.4 122 187.3 134.7 187.3 151.9L187.3 154.8Z" fill="#FF9300"/></svg>
