<svg width="336" height="43" viewBox="0 0 336 43" fill="none" xmlns="http://www.w3.org/2000/svg">
<path d="M131.704 32.896C131.704 32.224 131.488 31.66 131.056 31.204C130.648 30.724 130.12 30.28 129.472 29.872C128.824 29.464 128.128 29.068 127.384 28.684C126.664 28.3 125.98 27.856 125.332 27.352C124.684 26.824 124.144 26.224 123.712 25.552C123.304 24.88 123.1 24.052 123.1 23.068C123.1 22.42 123.244 21.82 123.532 21.268C123.844 20.716 124.252 20.248 124.756 19.864C125.26 19.456 125.848 19.144 126.52 18.928C127.192 18.688 127.912 18.568 128.68 18.568C129.976 18.568 131.032 18.64 131.848 18.784C132.688 18.928 133.492 19.132 134.26 19.396C134.164 20.164 134.044 20.944 133.9 21.736C133.78 22.504 133.6 23.296 133.36 24.112H132.46L131.092 20.44C130.804 20.32 130.48 20.248 130.12 20.224C129.76 20.176 129.388 20.152 129.004 20.152C128.572 20.152 128.188 20.236 127.852 20.404C127.54 20.548 127.264 20.74 127.024 20.98C126.808 21.22 126.64 21.496 126.52 21.808C126.4 22.12 126.34 22.432 126.34 22.744C126.34 23.392 126.544 23.956 126.952 24.436C127.384 24.892 127.924 25.324 128.572 25.732C129.22 26.116 129.904 26.5 130.624 26.884C131.368 27.268 132.064 27.7 132.712 28.18C133.36 28.66 133.888 29.224 134.296 29.872C134.728 30.496 134.944 31.252 134.944 32.14C134.944 32.956 134.764 33.688 134.404 34.336C134.068 34.984 133.588 35.536 132.964 35.992C132.364 36.448 131.656 36.796 130.84 37.036C130.048 37.3 129.196 37.432 128.284 37.432C127.252 37.432 126.304 37.336 125.44 37.144C124.576 36.976 123.676 36.724 122.74 36.388C122.788 35.524 122.896 34.696 123.064 33.904C123.232 33.088 123.448 32.308 123.712 31.564H124.612L126.196 35.488C126.46 35.68 126.772 35.788 127.132 35.812C127.516 35.836 127.864 35.848 128.176 35.848C129.232 35.848 130.084 35.56 130.732 34.984C131.38 34.408 131.704 33.712 131.704 32.896ZM151.418 32.284C151.418 32.812 151.43 33.268 151.454 33.652C151.478 34.036 151.502 34.444 151.526 34.876L154.01 35.236V35.992C153.41 36.304 152.738 36.58 151.994 36.82C151.274 37.06 150.578 37.24 149.906 37.36H149.006C148.766 36.808 148.622 36.208 148.574 35.56C148.526 34.888 148.49 34.156 148.466 33.364H148.286C148.19 33.844 147.998 34.336 147.71 34.84C147.446 35.32 147.086 35.752 146.63 36.136C146.198 36.52 145.682 36.832 145.082 37.072C144.482 37.312 143.798 37.432 143.03 37.432C141.566 37.432 140.366 36.988 139.43 36.1C138.518 35.212 138.062 34.048 138.062 32.608C138.062 31.504 138.278 30.604 138.71 29.908C139.166 29.188 139.826 28.624 140.69 28.216C141.554 27.808 142.622 27.52 143.894 27.352C145.166 27.16 146.642 27.016 148.322 26.92C148.418 25.888 148.442 24.964 148.394 24.148C148.37 23.308 148.238 22.6 147.998 22.024C147.782 21.424 147.446 20.968 146.99 20.656C146.558 20.32 145.982 20.152 145.262 20.152C144.926 20.152 144.542 20.176 144.11 20.224C143.702 20.248 143.294 20.344 142.886 20.512L141.194 24.832H140.258C140.018 24.112 139.802 23.368 139.61 22.6C139.442 21.832 139.334 21.076 139.286 20.332C140.198 19.78 141.206 19.348 142.31 19.036C143.438 18.724 144.686 18.568 146.054 18.568C147.278 18.568 148.25 18.748 148.97 19.108C149.714 19.444 150.278 19.888 150.662 20.44C151.046 20.992 151.298 21.604 151.418 22.276C151.538 22.948 151.598 23.62 151.598 24.292C151.598 25.732 151.562 27.124 151.49 28.468C151.442 29.788 151.418 31.06 151.418 32.284ZM144.47 35.2C145.07 35.2 145.598 35.08 146.054 34.84C146.51 34.6 146.894 34.312 147.206 33.976C147.518 33.64 147.77 33.304 147.962 32.968C148.154 32.608 148.286 32.308 148.358 32.068V28.288C146.966 28.288 145.826 28.36 144.938 28.504C144.05 28.648 143.354 28.876 142.85 29.188C142.346 29.5 141.998 29.896 141.806 30.376C141.614 30.832 141.518 31.36 141.518 31.96C141.518 32.992 141.782 33.796 142.31 34.372C142.838 34.924 143.558 35.2 144.47 35.2ZM164.302 37H156.31V36.1C157.102 35.716 157.894 35.428 158.686 35.236V12.448L155.95 12.16V11.224C156.574 10.936 157.354 10.684 158.29 10.468C159.226 10.252 160.138 10.072 161.026 9.928H161.926V35.236C162.718 35.428 163.51 35.716 164.302 36.1V37ZM180.422 32.284C180.422 32.812 180.434 33.268 180.458 33.652C180.482 34.036 180.506 34.444 180.53 34.876L183.014 35.236V35.992C182.414 36.304 181.742 36.58 180.998 36.82C180.278 37.06 179.582 37.24 178.91 37.36H178.01C177.77 36.808 177.626 36.208 177.578 35.56C177.53 34.888 177.494 34.156 177.47 33.364H177.29C177.194 33.844 177.002 34.336 176.714 34.84C176.45 35.32 176.09 35.752 175.634 36.136C175.202 36.52 174.686 36.832 174.086 37.072C173.486 37.312 172.802 37.432 172.034 37.432C170.57 37.432 169.37 36.988 168.434 36.1C167.522 35.212 167.066 34.048 167.066 32.608C167.066 31.504 167.282 30.604 167.714 29.908C168.17 29.188 168.83 28.624 169.694 28.216C170.558 27.808 171.626 27.52 172.898 27.352C174.17 27.16 175.646 27.016 177.326 26.92C177.422 25.888 177.446 24.964 177.398 24.148C177.374 23.308 177.242 22.6 177.002 22.024C176.786 21.424 176.45 20.968 175.994 20.656C175.562 20.32 174.986 20.152 174.266 20.152C173.93 20.152 173.546 20.176 173.114 20.224C172.706 20.248 172.298 20.344 171.89 20.512L170.198 24.832H169.262C169.022 24.112 168.806 23.368 168.614 22.6C168.446 21.832 168.338 21.076 168.29 20.332C169.202 19.78 170.21 19.348 171.314 19.036C172.442 18.724 173.69 18.568 175.058 18.568C176.282 18.568 177.254 18.748 177.974 19.108C178.718 19.444 179.282 19.888 179.666 20.44C180.05 20.992 180.302 21.604 180.422 22.276C180.542 22.948 180.602 23.62 180.602 24.292C180.602 25.732 180.566 27.124 180.494 28.468C180.446 29.788 180.422 31.06 180.422 32.284ZM173.474 35.2C174.074 35.2 174.602 35.08 175.058 34.84C175.514 34.6 175.898 34.312 176.21 33.976C176.522 33.64 176.774 33.304 176.966 32.968C177.158 32.608 177.29 32.308 177.362 32.068V28.288C175.97 28.288 174.83 28.36 173.942 28.504C173.054 28.648 172.358 28.876 171.854 29.188C171.35 29.5 171.002 29.896 170.81 30.376C170.618 30.832 170.522 31.36 170.522 31.96C170.522 32.992 170.786 33.796 171.314 34.372C171.842 34.924 172.562 35.2 173.474 35.2ZM203.566 37H195.862V36.1C196.102 35.956 196.39 35.812 196.726 35.668C197.086 35.5 197.506 35.356 197.986 35.236V26.92C197.986 25.96 197.938 25.096 197.842 24.328C197.77 23.56 197.614 22.924 197.374 22.42C197.158 21.892 196.834 21.496 196.402 21.232C195.97 20.944 195.406 20.8 194.71 20.8C194.182 20.8 193.69 20.908 193.234 21.124C192.802 21.34 192.406 21.628 192.046 21.988C191.71 22.348 191.41 22.756 191.146 23.212C190.906 23.668 190.714 24.148 190.57 24.652V35.236C190.954 35.356 191.314 35.488 191.65 35.632C192.01 35.752 192.358 35.908 192.694 36.1V37H184.954V36.1C185.29 35.932 185.662 35.776 186.07 35.632C186.478 35.488 186.898 35.356 187.33 35.236V21.088L184.954 20.8V19.864C185.722 19.528 186.502 19.264 187.294 19.072C188.11 18.856 188.902 18.688 189.67 18.568H190.57V22.636H190.606C190.99 21.508 191.638 20.548 192.55 19.756C193.486 18.964 194.638 18.568 196.006 18.568C196.582 18.568 197.134 18.628 197.662 18.748C198.19 18.868 198.682 19.096 199.138 19.432C199.594 19.744 199.978 20.188 200.29 20.764C200.602 21.34 200.83 22.084 200.974 22.996C201.406 21.676 202.102 20.608 203.062 19.792C204.022 18.976 205.222 18.568 206.662 18.568C207.55 18.568 208.318 18.688 208.966 18.928C209.638 19.144 210.19 19.54 210.622 20.116C211.054 20.692 211.366 21.472 211.558 22.456C211.774 23.44 211.882 24.688 211.882 26.2V35.236C212.698 35.38 213.49 35.668 214.258 36.1V37H206.518V36.1C207.238 35.716 207.946 35.428 208.642 35.236V26.272C208.642 25.408 208.594 24.64 208.498 23.968C208.426 23.296 208.27 22.732 208.03 22.276C207.79 21.796 207.454 21.436 207.022 21.196C206.59 20.932 206.014 20.8 205.294 20.8C204.142 20.8 203.242 21.196 202.594 21.988C201.97 22.78 201.514 23.788 201.226 25.012V35.236C202.066 35.476 202.846 35.764 203.566 36.1V37Z" fill="#262626"/>
<path d="M102.167 21.6728V14.8332H95.3271L90.5 10.0061L85.6729 14.8332H78.8333V21.6728L74.0062 26.4999L78.8333 31.3269V38.1665H85.6729L90.5 42.9936L95.3271 38.1665H102.167V31.3269L106.994 26.4999L102.167 21.6728ZM90.5 35.2499C89.2021 35.2499 87.9625 34.9582 86.8541 34.4478C89.8583 33.0624 91.9583 30.029 91.9583 26.4999C91.9583 22.9707 89.8583 19.9374 86.8541 18.5519C87.9625 18.0415 89.2021 17.7499 90.5 17.7499C95.3271 17.7499 99.25 21.6728 99.25 26.4999C99.25 31.3269 95.3271 35.2499 90.5 35.2499Z" fill="#262626"/>
</svg>
