<svg width="149" height="207" viewBox="0 0 149 207" fill="none" xmlns="http://www.w3.org/2000/svg">
<path fill-rule="evenodd" clip-rule="evenodd" d="M56.561 8.71064C60.0699 3.08832 67.2605 1.68896 72.6218 5.58509C77.983 9.48121 79.4846 17.1974 75.9758 22.8198L44.6605 72.9965L97.807 98.9542C103.762 101.863 106.578 109.202 104.096 115.347C101.614 121.493 94.7741 124.116 88.819 121.208L25.7153 90.3866L25.7255 90.3614C21.9568 88.6251 18.8748 85.1805 17.5887 80.6955C16.1934 75.8294 17.24 70.8816 19.9791 67.3263L56.561 8.71064Z" fill="white"/>
<path fill-rule="evenodd" clip-rule="evenodd" d="M124.268 129.5C124.268 159.047 100.316 183 70.7683 183C60.4778 183 50.8658 180.095 42.708 175.059V177.603H10C24.1957 195.512 46.1405 207 70.7683 207C113.57 207 148.268 172.302 148.268 129.5C148.268 86.6979 113.57 52 70.7683 52C60.8721 52 51.4091 53.8549 42.708 57.2359V83.9405C50.8658 78.9053 60.4778 76 70.7683 76C100.316 76 124.268 99.9528 124.268 129.5Z" fill="white"/>
</svg>
