<svg width="40" height="40" viewBox="0 0 40 40" fill="none" xmlns="http://www.w3.org/2000/svg">
<path d="M14 19.0526L22.4737 10.5789C22.8947 10.1579 23.5263 10.1579 23.9474 10.5789C24.3684 11 24.3684 11.6316 23.9474 12.0526L16.2105 19.7895L24.3684 27.9474C24.7895 28.3684 24.7895 29 24.3684 29.4211C23.9474 29.8421 23.3158 29.8421 22.8947 29.4211L14 20.5263C13.5789 20.1053 13.5789 19.4737 14 19.0526ZM1.74846e-06 20C2.71471e-06 8.94736 8.94737 -2.71471e-06 20 -1.74846e-06C31.0526 -7.82204e-07 40 8.94737 40 20C40 31.0526 31.0526 40 20 40C8.94737 40 7.82204e-07 31.0526 1.74846e-06 20ZM2.10526 20C2.10526 29.8947 10.1053 37.8947 20 37.8947C29.8947 37.8947 37.8947 29.8947 37.8947 20C37.8947 10.1053 29.8947 2.10526 20 2.10526C10.1053 2.10526 2.10527 10.1053 2.10526 20Z" fill="black"/>
</svg>
