<svg width="17" height="17" viewBox="0 0 17 17" fill="none" xmlns="http://www.w3.org/2000/svg">
<path fill-rule="evenodd" clip-rule="evenodd" d="M12.1763 10.9637L16.7491 15.5366C16.9098 15.6974 17.0001 15.9155 17 16.1429C16.9999 16.3703 16.9095 16.5884 16.7487 16.7491C16.5878 16.9098 16.3697 17.0001 16.1424 17C15.915 16.9999 15.6969 16.9095 15.5362 16.7487L10.9634 12.1758C9.59644 13.2346 7.87745 13.7328 6.15615 13.5692C4.43486 13.4055 2.84055 12.5923 1.69756 11.2949C0.554579 9.99743 -0.0512229 8.31329 0.00339672 6.58505C0.0580164 4.85682 0.768955 3.21429 1.99158 1.99163C3.21421 0.768974 4.85669 0.0580178 6.58489 0.0033968C8.31309 -0.0512242 9.99718 0.554593 11.2946 1.69761C12.592 2.84062 13.4052 4.43497 13.5688 6.15631C13.7325 7.87765 13.2342 9.59668 12.1755 10.9637H12.1763ZM6.80032 11.8995C8.15286 11.8995 9.45 11.3622 10.4064 10.4058C11.3628 9.44939 11.9001 8.15221 11.9001 6.79964C11.9001 5.44706 11.3628 4.14988 10.4064 3.19347C9.45 2.23705 8.15286 1.69975 6.80032 1.69975C5.44777 1.69975 4.15063 2.23705 3.19424 3.19347C2.23785 4.14988 1.70055 5.44706 1.70055 6.79964C1.70055 8.15221 2.23785 9.44939 3.19424 10.4058C4.15063 11.3622 5.44777 11.8995 6.80032 11.8995Z" fill="#4C84C3"/>
</svg>
