<svg width="40" height="40" viewBox="0 0 40 40" fill="none" xmlns="http://www.w3.org/2000/svg">
<path d="M26 20.9474L17.5263 29.4211C17.1053 29.8421 16.4737 29.8421 16.0526 29.4211C15.6316 29 15.6316 28.3684 16.0526 27.9474L23.7895 20.2105L15.6316 12.0526C15.2105 11.6316 15.2105 11 15.6316 10.5789C16.0526 10.1579 16.6842 10.1579 17.1053 10.5789L26 19.4737C26.4211 19.8947 26.4211 20.5263 26 20.9474ZM40 20C40 31.0526 31.0526 40 20 40C8.94737 40 0 31.0526 0 20C0 8.94737 8.94737 0 20 0C31.0526 0 40 8.94737 40 20ZM37.8947 20C37.8947 10.1053 29.8947 2.10526 20 2.10526C10.1053 2.10526 2.10526 10.1053 2.10526 20C2.10526 29.8947 10.1053 37.8947 20 37.8947C29.8947 37.8947 37.8947 29.8947 37.8947 20Z" fill="black"/>
</svg>
