<svg width="32" height="32" viewBox="0 0 32 32" fill="none" xmlns="http://www.w3.org/2000/svg">
<path d="M29.46 8.11C29.301 8.03407 29.1248 8.00148 28.9492 8.01553C28.7736 8.02958 28.6049 8.08977 28.46 8.19L23 12.06V10.44L30 3.44L28.56 2L2 28.56L3.44 30L7.44 26H21C21.5304 26 22.0391 25.7893 22.4142 25.4142C22.7893 25.0391 23 24.5304 23 24V19.94L28.42 23.81C28.5693 23.9163 28.7448 23.9795 28.9276 23.9928C29.1103 24.006 29.2932 23.9689 29.4562 23.8853C29.6193 23.8017 29.7562 23.6749 29.8521 23.5188C29.948 23.3627 29.9992 23.1832 30 23V9C30.0004 8.81637 29.9502 8.63618 29.8549 8.47919C29.7597 8.3222 29.623 8.19447 29.46 8.11ZM28 21.06L22.58 17.19C22.4307 17.0837 22.2552 17.0205 22.0724 17.0072C21.8897 16.994 21.7068 17.0311 21.5438 17.1147C21.3807 17.1983 21.2438 17.3251 21.1479 17.4812C21.052 17.6373 21.0008 17.8168 21 18V24H9.44L21 12.44V14C21.0008 14.1832 21.052 14.3627 21.1479 14.5188C21.2438 14.6749 21.3807 14.8017 21.5438 14.8853C21.7068 14.9689 21.8897 15.006 22.0724 14.9928C22.2552 14.9795 22.4307 14.9163 22.58 14.81L28 10.94V21.06ZM4 24V8H20V6H4C3.46957 6 2.96086 6.21071 2.58579 6.58579C2.21071 6.96086 2 7.46957 2 8V24H4Z" fill="#5F6368"/>
</svg>
