<svg width="130" height="24" viewBox="0 0 130 24" fill="none" xmlns="http://www.w3.org/2000/svg">
<path d="M0.0894375 17.648L4.00144 8.768H0.425438V6.128H7.79344V8.288L3.85744 17.336H7.81744V20H0.0894375V17.648ZM9.7095 1.136H13.3575V3.848H9.7095V1.136ZM9.7335 6.128H13.3575V20H9.7335V6.128ZM20.241 20.24C18.721 20.24 17.561 19.824 16.761 18.992C15.977 18.16 15.585 16.96 15.585 15.392V10.736C15.585 9.168 15.985 7.968 16.785 7.136C17.585 6.304 18.737 5.888 20.241 5.888C21.793 5.888 22.929 6.304 23.649 7.136C24.369 7.968 24.729 9.2 24.729 10.832V13.256H19.185V15.944C19.185 16.536 19.273 16.968 19.449 17.24C19.641 17.512 19.913 17.648 20.265 17.648C20.985 17.648 21.345 17.128 21.345 16.088V14.744H24.705V15.944C24.705 17.336 24.321 18.4 23.553 19.136C22.785 19.872 21.681 20.24 20.241 20.24ZM21.345 11.528V10.184C21.345 9.576 21.257 9.144 21.081 8.888C20.905 8.616 20.625 8.48 20.241 8.48C19.873 8.48 19.601 8.624 19.425 8.912C19.265 9.2 19.185 9.712 19.185 10.448V11.528H21.345ZM27.0566 0.559999H30.6566V20H27.0566V0.559999ZM37.6088 20.24C36.1048 20.24 34.9448 19.84 34.1288 19.04C33.3288 18.24 32.9288 17.08 32.9288 15.56V10.568C32.9288 9.048 33.3288 7.888 34.1288 7.088C34.9448 6.288 36.1048 5.888 37.6088 5.888C39.1128 5.888 40.2648 6.288 41.0648 7.088C41.8808 7.888 42.2888 9.048 42.2888 10.568V15.56C42.2888 17.08 41.8808 18.24 41.0648 19.04C40.2648 19.84 39.1128 20.24 37.6088 20.24ZM37.6328 17.792C38.0488 17.792 38.3288 17.632 38.4728 17.312C38.6328 16.976 38.7128 16.48 38.7128 15.824V10.328C38.7128 9.672 38.6328 9.176 38.4728 8.84C38.3288 8.504 38.0488 8.336 37.6328 8.336C37.2008 8.336 36.9048 8.512 36.7448 8.864C36.5848 9.2 36.5048 9.688 36.5048 10.328V15.824C36.5048 16.464 36.5848 16.952 36.7448 17.288C36.9048 17.624 37.2008 17.792 37.6328 17.792ZM44.5136 6.128H48.1136V7.52C49.2336 6.432 50.3536 5.888 51.4736 5.888C52.2736 5.888 52.8816 6.184 53.2976 6.776C53.7296 7.368 53.9456 8.128 53.9456 9.056V20H50.3216V9.632C50.3216 9.248 50.2576 8.968 50.1296 8.792C50.0016 8.6 49.7856 8.504 49.4816 8.504C49.1136 8.504 48.6576 8.696 48.1136 9.08V20H44.5136V6.128ZM56.5896 21.368C57.4056 21.368 57.9896 21.28 58.3416 21.104C58.7096 20.944 58.8936 20.648 58.8936 20.216C58.8936 20.008 58.8376 19.68 58.7256 19.232C58.6296 18.784 58.5176 18.32 58.3896 17.84L55.2216 6.128H58.6776L60.4296 14.648L61.8696 6.128H65.3256L62.1096 20.432C61.8216 21.712 61.2856 22.608 60.5016 23.12C59.7176 23.648 58.6696 23.912 57.3576 23.912H56.5896V21.368Z" fill="black"/>
<path d="M69.8267 20.24C67.6507 20.24 66.5627 18.712 66.5627 15.656V10.568C66.5627 9.144 66.8347 8.008 67.3787 7.16C67.9227 6.312 68.7387 5.888 69.8267 5.888C70.7387 5.888 71.6187 6.256 72.4667 6.992V0.559999H76.0907V20H72.4667V18.968C71.6187 19.816 70.7387 20.24 69.8267 20.24ZM71.3147 17.84C71.6667 17.84 72.0507 17.704 72.4667 17.432V8.6C72.0507 8.36 71.6667 8.24 71.3147 8.24C70.9307 8.24 70.6507 8.408 70.4747 8.744C70.2987 9.064 70.2107 9.496 70.2107 10.04V15.92C70.2107 17.2 70.5787 17.84 71.3147 17.84ZM82.9603 20.24C81.4563 20.24 80.2963 19.84 79.4803 19.04C78.6803 18.24 78.2803 17.08 78.2803 15.56V10.568C78.2803 9.048 78.6803 7.888 79.4803 7.088C80.2963 6.288 81.4563 5.888 82.9603 5.888C84.4643 5.888 85.6163 6.288 86.4163 7.088C87.2323 7.888 87.6403 9.048 87.6403 10.568V15.56C87.6403 17.08 87.2323 18.24 86.4163 19.04C85.6163 19.84 84.4643 20.24 82.9603 20.24ZM82.9843 17.792C83.4003 17.792 83.6803 17.632 83.8243 17.312C83.9843 16.976 84.0643 16.48 84.0643 15.824V10.328C84.0643 9.672 83.9843 9.176 83.8243 8.84C83.6803 8.504 83.4003 8.336 82.9843 8.336C82.5523 8.336 82.2563 8.512 82.0963 8.864C81.9363 9.2 81.8563 9.688 81.8563 10.328V15.824C81.8563 16.464 81.9363 16.952 82.0963 17.288C82.2563 17.624 82.5523 17.792 82.9843 17.792ZM89.8652 6.128H93.3932V7.28C94.3212 6.336 95.4092 5.864 96.6572 5.864C97.2012 5.864 97.6732 6.008 98.0732 6.296C98.4892 6.568 98.8012 6.984 99.0092 7.544C100.001 6.424 101.177 5.864 102.537 5.864C103.337 5.864 103.969 6.16 104.433 6.752C104.913 7.328 105.153 8.144 105.153 9.2V20H101.649V9.56C101.649 9.112 101.569 8.8 101.409 8.624C101.265 8.432 101.041 8.336 100.737 8.336C100.529 8.336 100.289 8.392 100.017 8.504C99.7612 8.616 99.5132 8.776 99.2732 8.984V9.2V20H95.7692V9.56C95.7692 9.112 95.6892 8.8 95.5292 8.624C95.3852 8.432 95.1612 8.336 94.8572 8.336C94.6492 8.336 94.4092 8.392 94.1372 8.504C93.8812 8.616 93.6332 8.776 93.3932 8.984V20H89.8652V6.128ZM111.929 20.24C110.409 20.24 109.249 19.824 108.449 18.992C107.665 18.16 107.273 16.96 107.273 15.392V10.736C107.273 9.168 107.673 7.968 108.473 7.136C109.273 6.304 110.425 5.888 111.929 5.888C113.481 5.888 114.617 6.304 115.337 7.136C116.057 7.968 116.417 9.2 116.417 10.832V13.256H110.873V15.944C110.873 16.536 110.961 16.968 111.137 17.24C111.329 17.512 111.601 17.648 111.953 17.648C112.673 17.648 113.033 17.128 113.033 16.088V14.744H116.393V15.944C116.393 17.336 116.009 18.4 115.241 19.136C114.473 19.872 113.369 20.24 111.929 20.24ZM113.033 11.528V10.184C113.033 9.576 112.945 9.144 112.769 8.888C112.593 8.616 112.313 8.48 111.929 8.48C111.561 8.48 111.289 8.624 111.113 8.912C110.953 9.2 110.873 9.712 110.873 10.448V11.528H113.033ZM118.576 0.559999H122.176V11.504L125.656 6.128H129.688L126.088 11.768L129.64 20H125.728L123.256 13.28L122.176 14.72V20H118.576V0.559999Z" fill="#7C9473"/>
</svg>
