<svg width="32" height="32" viewBox="0 0 32 32" fill="none" xmlns="http://www.w3.org/2000/svg">
<path fill-rule="evenodd" clip-rule="evenodd" d="M0 16C0 7.16344 7.16344 0 16 0C24.8366 0 32 7.16344 32 16C32 24.8366 24.8366 32 16 32C7.16344 32 0 24.8366 0 16ZM8.2 13.3V24H11.6V13.3H8.2ZM8 9.9C8 11 8.8 11.8 9.9 11.8C11 11.8 11.8 11 11.8 9.9C11.8 8.8 11 8 9.9 8C8.9 8 8 8.8 8 9.9ZM20.6 24H23.8V17.4C23.8 14.1 21.8 13 19.9 13C18.2 13 17 14.1 16.7 14.8V13.3H13.5V24H16.9V18.3C16.9 16.8 17.9 16 18.9 16C19.9 16 20.6 16.5 20.6 18.2V24Z" 
fill="#C0B7E8"/>
</svg>
