<svg width="32" height="32" viewBox="0 0 32 32" fill="none" xmlns="http://www.w3.org/2000/svg">
<path fill-rule="evenodd" clip-rule="evenodd" d="M0 16C0 7.16344 7.16344 0 16 0C24.8366 0 32 7.16344 32 16C32 24.8366 24.8366 32 16 32C7.16344 32 0 24.8366 0 16ZM8 16C8 11.6 11.6 8 16 8C20.4 8 24 11.6 23.9 15.6C23.9 20 20.3 23.6 15.9 23.6C15.1 23.6 14.3 23.5 13.6 23.3C13.9 22.8 14.2 22.2 14.4 21.6C14.5 21.2 15 19.4 15 19.4C15.3 19.9 16.1 20.4 17 20.4C19.6 20.4 21.3 18 21.3 14.9C21.3 12.5 19.3 10.3 16.2 10.3C12.4 10.3 10.5 13 10.5 15.3C10.5 16.7 11 17.9 12.1 18.4C12.3 18.5 12.4 18.4 12.5 18.2C12.6 18.1 12.7 17.7 12.7 17.6C12.7707 17.4586 12.7414 17.4172 12.6828 17.3343C12.6586 17.3 12.6293 17.2586 12.6 17.2C12.3 16.8 12.1 16.3 12.1 15.6C12.1 13.6 13.6 11.8 16 11.8C18.1 11.8 19.3 13.1 19.3 14.9C19.3 17.3 18.3 19.2 16.8 19.2C15.9 19.2 15.3 18.5 15.5 17.7C15.5835 17.2826 15.7192 16.8477 15.8491 16.4318C16.0303 15.8514 16.2 15.3078 16.2 14.9C16.2 14.2 15.8 13.7 15.1 13.7C14.3 13.7 13.6 14.6 13.6 15.8C13.6 16.6 13.9 17.1 13.9 17.1C13.9 17.1 13.1 20.8 12.9 21.5C12.8 22.1 12.8 22.6999 12.8 23.2999C10 22.0999 8 19.3 8 16Z" 
fill="#C0B7E8"/>
</svg>
