<?xml version="1.0"?>
<svg xmlns="http://www.w3.org/2000/svg" id="Outline" viewBox="0 0 512 512" width="512" height="512"><path d="M472,72H288V32a8,8,0,0,0-8-8H232a8,8,0,0,0-8,8V72H40A24.028,24.028,0,0,0,16,96V352a24.028,24.028,0,0,0,24,24h61.394L72.308,477.8A8,8,0,0,0,80,488h48a8,8,0,0,0,7.692-5.8L166.035,376H184v24a8,8,0,0,0,8,8H320a8,8,0,0,0,8-8V376h17.965l30.343,106.2A8,8,0,0,0,384,488h48a8,8,0,0,0,7.692-10.2L410.606,376H472a24.028,24.028,0,0,0,24-24V96A24.028,24.028,0,0,0,472,72ZM240,40h32V72H240ZM32,352v-8H80v16H40A8.009,8.009,0,0,1,32,352Zm416-24H192v-8a8,8,0,0,0-8-8H88a8,8,0,0,0-8,8v8H64V120H448ZM176,360H96V328h80ZM121.966,472H90.605l27.43-96h31.359ZM312,392H200V376H312ZM421.4,472H390.034l-27.428-96h31.359ZM480,352a8.009,8.009,0,0,1-8,8H192V344H480Zm0-24H464V112a8,8,0,0,0-8-8H56a8,8,0,0,0-8,8V328H32V96a8.009,8.009,0,0,1,8-8H472a8.009,8.009,0,0,1,8,8Z"/><path d="M104,160H248a8,8,0,0,0,0-16H104a8,8,0,0,0,0,16Z"/><path d="M280,160h32a8,8,0,0,0,0-16H280a8,8,0,0,0,0,16Z"/><path d="M344,160h72a8,8,0,0,0,0-16H344a8,8,0,0,0,0,16Z"/><path d="M104,288h80a8,8,0,0,0,0-16H104a8,8,0,0,0,0,16Z"/><path d="M304,272H216a8,8,0,0,0,0,16h88a8,8,0,0,0,0-16Z"/><path d="M416,272H336a8,8,0,0,0,0,16h80a8,8,0,0,0,0-16Z"/><path d="M272,192H416a8,8,0,0,0,0-16H272a8,8,0,0,0,0,16Z"/><path d="M240,192a8,8,0,0,0,0-16H208a8,8,0,0,0,0,16Z"/><path d="M104,192h72a8,8,0,0,0,0-16H104a8,8,0,0,0,0,16Z"/><path d="M416,240H272a8,8,0,0,0,0,16H416a8,8,0,0,0,0-16Z"/><path d="M240,256a8,8,0,0,0,0-16H208a8,8,0,0,0,0,16Z"/><path d="M104,256h72a8,8,0,0,0,0-16H104a8,8,0,0,0,0,16Z"/><path d="M96,216a8,8,0,0,0,8,8H416a8,8,0,0,0,0-16H104A8,8,0,0,0,96,216Z"/></svg>
