<svg width="12" height="15" viewBox="0 0 12 15" fill="none" xmlns="http://www.w3.org/2000/svg">
<path d="M5.99998 0.5C3.12126 0.5 0.779297 2.84291 0.779297 5.72276C0.779297 10.0136 5.48033 14.2032 5.68052 14.3794C5.77178 14.4598 5.88586 14.5001 5.99998 14.5001C6.1141 14.5001 6.22817 14.4599 6.31948 14.3794C6.51958 14.2032 11.2207 10.0136 11.2207 5.72276C11.2207 2.84291 8.8787 0.5 5.99998 0.5ZM5.99998 4.25658C6.79963 4.25658 7.45018 4.9143 7.45018 5.72276C7.45018 6.53123 6.79963 7.18895 5.99998 7.18895C5.20033 7.18895 4.54977 6.53123 4.54977 5.72276C4.54977 4.9143 5.20033 4.25658 5.99998 4.25658Z" fill="#5D71DD"/>
</svg>
