<?xml version="1.0" encoding="UTF-8" standalone="no"?>
<!DOCTYPE svg PUBLIC "-//W3C//DTD SVG 1.1//EN" "http://www.w3.org/Graphics/SVG/1.1/DTD/svg11.dtd">
<svg width="100%" height="100%" viewBox="0 0 1122 1122" version="1.1" xmlns="http://www.w3.org/2000/svg" xmlns:xlink="http://www.w3.org/1999/xlink" xml:space="preserve" xmlns:serif="http://www.serif.com/" style="fill-rule:evenodd;clip-rule:evenodd;stroke-linejoin:round;stroke-miterlimit:2;">
    <g>
        <path d="M643.189,600.24C631.063,636.028 598.161,658.897 562.487,659.966C552.287,660.272 541.86,658.8 531.627,655.333C485.607,639.74 460.941,589.792 476.535,543.772C492.128,497.752 542.076,473.086 588.096,488.679C588.162,488.702 588.228,488.727 588.294,488.749C634.186,504.419 658.759,554.287 643.189,600.24ZM819.113,522.343C818.914,521.31 818.715,520.276 818.504,519.246C817.017,519.619 815.51,519.919 813.991,520.161C805.927,521.443 797.458,520.858 789.202,518.062C761.83,508.787 735.439,478.901 744.788,451.311C746.108,447.415 741.958,443.783 744.028,440.428C737.19,440.973 730.14,440.171 723.241,437.834C706.943,432.312 695.179,419.482 690.297,404.182C688.092,397.27 687.29,389.855 688.111,382.381C678.453,392.481 677.626,399.006 664.258,400.807C655.909,401.932 647.264,401.218 638.851,398.368C608.121,387.955 592.162,353.089 603.208,320.491C604.02,318.093 604.973,315.786 606.024,313.552C606.071,313.451 606.116,313.348 606.164,313.247C477.835,287.195 353.007,360.026 309.881,487.304C263.101,625.364 337.099,775.208 475.16,821.987C495.386,828.84 515.864,833.083 536.234,834.929C654.912,845.691 769.917,774.543 809.843,656.708C825.042,611.849 827.471,565.751 819.113,522.343Z" style="fill:rgb(228,185,135);fill-rule:nonzero;"/>
        <path d="M821.708,538.533C746.898,651.685 624.823,777.04 441.056,807.71C451.932,813.175 463.303,817.97 475.16,821.987C495.386,828.84 515.862,833.082 536.234,834.929C654.912,845.691 769.917,774.543 809.843,656.708C823.167,617.386 826.673,577.112 821.708,538.533Z" style="fill:rgb(218,165,106);fill-rule:nonzero;"/>
        <path d="M821.144,492.539C819.657,492.912 818.15,493.212 816.631,493.454C818.281,494.264 819.989,494.993 821.752,495.636C821.553,494.603 821.354,493.569 821.144,492.539Z" style="fill:rgb(215,124,156);fill-rule:nonzero;"/>
        <path d="M645.829,573.533C633.702,609.321 600.8,632.19 565.126,633.259C554.926,633.565 544.5,632.093 534.268,628.626C488.247,613.033 463.581,563.085 479.174,517.065C494.768,471.044 544.715,446.379 590.735,461.972C590.802,461.995 590.867,462.019 590.934,462.042C636.826,477.712 661.399,527.58 645.829,573.533ZM821.752,495.636C819.989,494.993 818.281,494.264 816.631,493.454C808.566,494.736 800.097,494.151 791.842,491.354C764.47,482.08 749.859,452.194 759.208,424.604C760.527,420.708 762.267,417.076 764.337,413.721C757.499,414.266 750.449,413.464 743.549,411.127C727.252,405.604 715.487,392.775 710.606,377.475C708.401,370.563 707.599,363.148 708.42,355.674C698.762,365.773 686.156,372.299 672.788,374.1C664.439,375.225 655.793,374.511 647.38,371.661C616.65,361.248 600.692,326.382 611.737,293.784C612.55,291.385 613.503,289.079 614.553,286.845C496.812,277.364 383.209,348.337 343.578,465.3C296.798,603.361 370.796,753.204 508.857,799.983C518.815,803.358 744.267,853.541 812.482,630.001C826.307,584.699 830.11,539.043 821.752,495.636Z" style="fill:rgb(208,82,127);fill-rule:nonzero;"/>
        <path d="M821.144,492.539C819.657,492.912 818.15,493.212 816.631,493.454C818.281,494.264 819.989,494.993 821.752,495.636C821.553,494.603 821.354,493.569 821.144,492.539Z" style="fill:rgb(215,124,156);fill-rule:nonzero;"/>
        <path d="M825.908,532.114C759.046,635.259 652.785,750.324 496.057,795.281C500.259,796.947 504.526,798.516 508.857,799.983C518.815,803.358 744.267,853.541 812.482,630.001C822.484,597.227 827.207,564.273 825.908,532.114Z" style="fill:rgb(205,65,118);fill-rule:nonzero;"/>
        <path d="M590.671,338.496L590.671,312.63C588.787,312.584 586.905,312.531 585.009,312.531C457.542,312.531 354.21,415.863 354.21,543.33C354.21,596.291 372.061,645.075 402.057,684.023C382.55,650.158 371.389,610.878 371.389,568.99C371.389,445.387 468.558,344.5 590.671,338.496Z" style="fill:rgb(211,106,153);fill-rule:nonzero;"/>
        <path d="M448.932,647.554L435.789,653.006L418.951,612.418L432.094,606.966L448.932,647.554Z" style="fill:rgb(161,198,217);fill-rule:nonzero;"/>
        <path d="M695.64,404.931L694.402,419.107L650.627,415.284L651.865,401.108L695.64,404.931Z" style="fill:rgb(161,198,217);fill-rule:nonzero;"/>
        <path d="M396.752,516.947L389.173,504.905L426.362,481.498L433.941,493.541L396.752,516.947Z" style="fill:rgb(244,211,49);fill-rule:nonzero;"/>
        <path d="M724.618,627.983L730.159,614.877L770.632,631.989L765.091,645.095L724.618,627.983Z" style="fill:rgb(161,198,217);fill-rule:nonzero;"/>
        <path d="M502.971,379.836L509.86,367.385L548.31,388.657L541.421,401.108L502.971,379.836Z" style="fill:rgb(199,43,44);fill-rule:nonzero;"/>
        <path d="M647.497,700.239L657.792,690.417L688.124,722.211L677.828,732.033L647.497,700.239Z" style="fill:rgb(244,211,49);fill-rule:nonzero;"/>
        <path d="M510.836,732.033L503.256,719.991L540.445,696.584L548.025,708.626L510.836,732.033Z" style="fill:rgb(199,43,44);fill-rule:nonzero;"/>
        <path d="M720.892,546.551L713.312,534.509L750.501,511.102L758.081,523.145L720.892,546.551Z" style="fill:rgb(244,211,49);fill-rule:nonzero;"/>
    </g>
</svg>
