<svg width="207" height="159" viewBox="0 0 207 159" fill="none" xmlns="http://www.w3.org/2000/svg">
<path d="M160.553 155.821C166.94 142.323 169.23 127.207 166.932 112.449C164.655 97.4866 157.444 83.4265 146.963 72.6317C137.266 62.6618 123.454 53.6781 108.941 54.3874C101.953 54.7489 95.3491 57.4252 90.223 62.2387C85.3225 66.8683 81.8357 73.0493 80.3754 79.6442C77.3426 93.5262 83.565 107.94 93.9602 117.154C99.2743 121.835 105.774 125.851 113.01 126.301C120.86 126.814 127.44 121.942 132.58 116.592C142.26 106.493 147.975 92.6784 148.452 78.7007C148.951 64.5183 143.611 50.7736 134.182 40.2104C124.858 29.8236 111.988 22.9636 98.0943 21.6674C84.7368 20.3847 70.9832 24.192 59.9449 31.794C57.2787 33.5902 54.8247 35.7391 52.5262 37.9867C50.4533 40.0505 53.4929 43.5058 55.6151 41.3643C64.2025 32.643 76.006 27.2708 88.1604 26.1549C100.774 25.0031 113.188 28.6306 123.242 36.32C133.346 43.9316 140.624 55.3092 142.947 67.794C145.271 80.2787 142.583 93.6167 136.01 104.489C132.685 109.9 128.307 115.08 123.102 118.644C120.309 120.468 117.197 121.764 113.851 121.711C110.759 121.602 107.751 120.674 104.961 119.23C93.8781 113.505 85.1882 101.776 84.1919 89.2612C83.2598 77.3324 90.0495 64.7449 101.494 60.4532C113.8 55.8357 127.453 62.3207 137.02 69.9189C147.937 78.4825 156.175 90.5789 160.201 103.817C164.198 116.928 164.11 131.152 160.116 144.315C159.138 147.401 158.034 150.516 156.618 153.433C156.133 154.542 156.163 155.869 157.328 156.609C158.31 157.123 159.99 156.881 160.553 155.821Z" fill="black"/>
<path d="M23.6025 93.6318L2.15194 72.7961C0.963457 71.6417 0.93584 69.7424 2.09025 68.5539L29.3874 40.4512C29.915 39.908 30.6285 39.5844 31.3847 39.5454L53.0668 38.4265C54.7198 38.3412 56.1296 39.6107 56.2172 41.2636L57.3093 61.8556C57.3536 62.6901 57.0477 63.5053 56.4654 64.1047L27.8447 93.5701C26.6903 94.7586 24.791 94.7862 23.6025 93.6318Z" fill="black"/>
<path d="M17.7351 67.0315L41.5577 66.6851M29.8832 54.525L30.2296 78.3475" stroke="white" stroke-width="3" stroke-linecap="round"/>
<circle cx="50" cy="45" r="2" fill="white"/>
</svg>
