<svg width="48" height="48" viewBox="0 0 48 48" fill="none" xmlns="http://www.w3.org/2000/svg">
<g clip-path="url(#clip0)">
<path d="M42.5886 12.5255H37.519V7.45592C37.519 6.55955 37.1629 5.6999 36.5291 5.06608C35.8953 4.43225 35.0356 4.07617 34.1393 4.07617H13.8608C12.9644 4.07617 12.1048 4.43225 11.4709 5.06608C10.8371 5.6999 10.481 6.55955 10.481 7.45592V12.5255H5.41142C4.06687 12.5255 2.77739 13.0597 1.82665 14.0104C0.875916 14.9611 0.341797 16.2506 0.341797 17.5952V41.2534C0.341797 42.1497 0.697876 43.0094 1.3317 43.6432C1.96553 44.2771 2.82518 44.6331 3.72154 44.6331H44.2785C45.1749 44.6331 46.0345 44.2771 46.6683 43.6432C47.3022 43.0094 47.6583 42.1497 47.6583 41.2534V17.5952C47.6583 16.2506 47.1241 14.9611 46.1734 14.0104C45.2227 13.0597 43.9332 12.5255 42.5886 12.5255ZM13.8608 7.45592H34.1393V12.5255H13.8608V7.45592ZM44.2785 41.2534H3.72154V26.0445H17.2405V34.4939H30.7595V26.0445H44.2785V41.2534ZM20.6203 26.0445H27.3798V31.1141H20.6203V26.0445ZM3.72154 22.6648V17.5952C3.72154 17.147 3.89958 16.7172 4.2165 16.4002C4.53341 16.0833 4.96323 15.9053 5.41142 15.9053H42.5886C43.0368 15.9053 43.4666 16.0833 43.7836 16.4002C44.1005 16.7172 44.2785 17.147 44.2785 17.5952V22.6648H3.72154Z" fill="#0D5C63"/>
</g>
<defs>
<clipPath id="clip0">
<rect width="48" height="40.7089" fill="white" transform="translate(0 4)"/>
</clipPath>
</defs>
</svg>
