<svg height='100px' width='100px'  fill="#FFFFFF" xmlns="http://www.w3.org/2000/svg" data-name="Layer 1" viewBox="0 0 100 100" x="0px" y="0px"><title>Bird</title><path d="M88.91,44s-17.12,11-32-11C45,15.49,40,14.73,33.65,14.73s-9.24,3.36-12.59,9.16-10,2.45-10,2.45c0,7.69,8.74,8.81,8.74,8.81s-3,11.36,4.17,24.59C28.12,67.33,39.94,70,46,70.87c-.12,1.82-.16,3.63-.16,5.45,0,1,0,2.09,0,3.13-1.15.21-2.29.43-3.44.67-2.06.43-4.12.9-6.16,1.51l.4,3.52c2.13.13,4.24.14,6.34.09s4.21-.14,6.3-.28l2.54-.18L52,82c.08-1.88.14-3.77.14-5.65,0-1.7,0-3.4-.15-5.09C81.36,70,88.91,44,88.91,44ZM29.24,30.43a2.95,2.95,0,1,1,2.94-2.94A2.95,2.95,0,0,1,29.24,30.43Z"></path></svg>