<svg width="16" height="22" viewBox="0 0 16 22" fill="none" xmlns="http://www.w3.org/2000/svg">
<rect y="8" width="16" height="14" rx="2" fill="white"/>
<circle cx="8" cy="15" r="2" fill="#26C552"/>
<rect x="7" y="16" width="2" height="2" fill="#26C552"/>
<rect x="2" y="2" width="3" height="7" fill="white"/>
<rect x="11" y="2" width="3" height="7" fill="white"/>
<path d="M5.86252 1.58911C5.76682 1.28338 5.62389 1.00419 5.44188 0.767505C5.25987 0.530818 5.04234 0.34126 4.80173 0.209655C4.56111 0.0780494 4.30211 0.00697458 4.03952 0.00048801C3.77692 -0.00599856 3.51588 0.0522302 3.27129 0.17185C3.0267 0.291469 2.80335 0.470137 2.614 0.697651C2.42465 0.925166 2.27301 1.19707 2.16772 1.49784C2.06244 1.79862 2.00558 2.12237 2.00039 2.45061C1.9952 2.77885 2.04178 3.10515 2.13748 3.41089L4 2.5L5.86252 1.58911Z" fill="white"/>
<path d="M13.4142 4.26777C13.5999 4.03562 13.7472 3.76002 13.8478 3.45671C13.9483 3.15339 14 2.8283 14 2.5C14 2.1717 13.9483 1.84661 13.8478 1.54329C13.7472 1.23998 13.5999 0.964379 13.4142 0.732233C13.2285 0.500086 13.008 0.315938 12.7654 0.190301C12.5227 0.0646643 12.2626 -5.83797e-08 12 0C11.7374 5.83798e-08 11.4773 0.0646645 11.2346 0.190301C10.992 0.315938 10.7715 0.500087 10.5858 0.732233L12 2.5L13.4142 4.26777Z" fill="white"/>
<rect x="4" width="8" height="3" fill="white"/>
</svg>
