<?xml version="1.0" encoding="UTF-8"?>
<svg width="40px" height="46px" viewBox="0 0 40 46" version="1.1" xmlns="http://www.w3.org/2000/svg" xmlns:xlink="http://www.w3.org/1999/xlink">
    <!-- Generator: Sketch 54.1 (76490) - https://sketchapp.com -->
    <title>icn_person</title>
    <desc>Created with Sketch.</desc>
    <g id="Page-1" stroke="none" stroke-width="1" fill="none" fill-rule="evenodd">
        <g id="FrontEndJr-Test_Result_Desktop" transform="translate(-295.000000, -297.000000)" fill="#F6BC25" fill-rule="nonzero">
            <g id="Section1" transform="translate(0.000000, 65.000000)">
                <g id="Card" transform="translate(230.000000, 169.000000)">
                    <g id="Person" transform="translate(40.000000, 40.000000)">
                        <path d="M45,46 C42.9166671,46 40.9970243,45.490885 39.2410714,44.4726562 C37.4851186,43.4544275 36.10119,42.0618494 35.0892857,40.2949219 C34.0773814,38.5279943 33.5714286,36.5963537 33.5714286,34.5 C33.5714286,32.4036463 34.0773814,30.4720057 35.0892857,28.7050781 C36.10119,26.9381506 37.4851186,25.5455725 39.2410714,24.5273438 C40.9970243,23.509115 42.9166671,23 45,23 C47.0833329,23 49.0029757,23.509115 50.7589286,24.5273438 C52.5148814,25.5455725 53.89881,26.9381506 54.9107143,28.7050781 C55.9226186,30.4720057 56.4285714,32.4036463 56.4285714,34.5 C56.4285714,36.5963537 55.9226186,38.5279943 54.9107143,40.2949219 C53.89881,42.0618494 52.5148814,43.4544275 50.7589286,44.4726562 C49.0029757,45.490885 47.0833329,46 45,46 Z M53.0357143,48.875 C55.1785714,48.875 57.1726186,49.4140625 59.0178571,50.4921875 C60.8630957,51.5703125 62.3214286,53.03776 63.3928571,54.8945312 C64.4642857,56.7513025 65,58.7578125 65,60.9140625 L65,64.6875 C65,65.8854162 64.5833329,66.9036463 63.75,67.7421875 C62.9166671,68.5807287 61.9047615,69 60.7142857,69 L29.2857143,69 C28.0952385,69 27.0833329,68.5807287 26.25,67.7421875 C25.4166671,66.9036463 25,65.8854162 25,64.6875 L25,60.9140625 C25,58.7578125 25.5357143,56.7513025 26.6071429,54.8945312 C27.6785714,53.03776 29.1369043,51.5703125 30.9821429,50.4921875 C32.8273814,49.4140625 34.8214286,48.875 36.9642857,48.875 L38.4821429,48.875 C40.5654757,49.8333338 42.7380957,50.3125 45,50.3125 C47.2619043,50.3125 49.4345243,49.8333338 51.5178571,48.875 L53.0357143,48.875 Z" id="icn_person"></path>
                    </g>
                </g>
            </g>
        </g>
    </g>
</svg>