<?xml version="1.0" encoding="UTF-8"?>
<svg width="23px" height="23px" viewBox="0 0 23 23" version="1.1" xmlns="http://www.w3.org/2000/svg" xmlns:xlink="http://www.w3.org/1999/xlink">
    <!-- Generator: Sketch 54.1 (76490) - https://sketchapp.com -->
    <title>icn_search</title>
    <desc>Created with Sketch.</desc>
    <g id="Page-1" stroke="none" stroke-width="1" fill="none" fill-rule="evenodd">
        <g id="FrontEnd-Test_Result_Desktop" transform="translate(-1142.000000, -20.000000)" fill="#F6BC25" fill-rule="nonzero">
            <g id="Header">
                <path d="M1164.68555,39.9003906 C1164.89518,40.1100263 1165,40.3645831 1165,40.6640625 C1165,40.9635419 1164.89518,41.2180987 1164.68555,41.4277344 L1163.42773,42.6855469 C1163.2181,42.8951825 1162.96354,43 1162.66406,43 C1162.36458,43 1162.11003,42.8951825 1161.90039,42.6855469 L1157.4082,38.1933594 C1157.19857,37.9837237 1157.09375,37.7291669 1157.09375,37.4296875 L1157.09375,36.7109375 C1155.41667,38.0286456 1153.5,38.6875 1151.34375,38.6875 C1149.63672,38.6875 1148.07194,38.2682294 1146.64941,37.4296875 C1145.22689,36.5911456 1144.09635,35.4606122 1143.25781,34.0380859 C1142.41927,32.6155597 1142,31.0507812 1142,29.34375 C1142,27.6367188 1142.41927,26.0719403 1143.25781,24.6494141 C1144.09635,23.2268878 1145.22689,22.0963544 1146.64941,21.2578125 C1148.07194,20.4192706 1149.63672,20 1151.34375,20 C1153.05078,20 1154.61556,20.4192706 1156.03809,21.2578125 C1157.46061,22.0963544 1158.59115,23.2268878 1159.42969,24.6494141 C1160.26823,26.0719403 1160.6875,27.6367188 1160.6875,29.34375 C1160.6875,31.5 1160.02865,33.4166669 1158.71094,35.09375 L1159.42969,35.09375 C1159.72917,35.09375 1159.98372,35.1985675 1160.19336,35.4082031 L1164.68555,39.9003906 Z M1151.34375,35.09375 C1152.39193,35.09375 1153.35775,34.8391925 1154.24121,34.3300781 C1155.12467,33.8209638 1155.82096,33.1246747 1156.33008,32.2412109 C1156.83919,31.3577472 1157.09375,30.3919269 1157.09375,29.34375 C1157.09375,28.2955731 1156.83919,27.3297528 1156.33008,26.4462891 C1155.82096,25.5628253 1155.12467,24.8665362 1154.24121,24.3574219 C1153.35775,23.8483075 1152.39193,23.59375 1151.34375,23.59375 C1150.29557,23.59375 1149.32975,23.8483075 1148.44629,24.3574219 C1147.56283,24.8665362 1146.86654,25.5628253 1146.35742,26.4462891 C1145.84831,27.3297528 1145.59375,28.2955731 1145.59375,29.34375 C1145.59375,30.3919269 1145.84831,31.3577472 1146.35742,32.2412109 C1146.86654,33.1246747 1147.56283,33.8209638 1148.44629,34.3300781 C1149.32975,34.8391925 1150.29557,35.09375 1151.34375,35.09375 Z" id="icn_search"></path>
            </g>
        </g>
    </g>
</svg>