<?xml version="1.0" encoding="UTF-8"?>
<svg width="15px" height="19px" viewBox="0 0 15 19" version="1.1" xmlns="http://www.w3.org/2000/svg" xmlns:xlink="http://www.w3.org/1999/xlink">
    <!-- Generator: Sketch 54.1 (76490) - https://sketchapp.com -->
    <title>lock</title>
    <desc>Created with Sketch.</desc>
    <defs>
        <linearGradient x1="196.826172%" y1="66.3085938%" x2="-55.4199219%" y2="66.3085938%" id="linearGradient-1">
            <stop stop-color="#F2DA56" offset="0%"></stop>
            <stop stop-color="#F1F1F1" offset="100%"></stop>
        </linearGradient>
    </defs>
    <g id="Page-1" stroke="none" stroke-width="1" fill="none" fill-rule="evenodd">
        <g id="FrontEnd-Test_Result_Desktop" transform="translate(-230.000000, -1036.000000)">
            <g id="Section2" transform="translate(0.000000, 706.000000)">
                <g id="Secure" transform="translate(230.000000, 330.000000)">
                    <g id="lock">
                        <path d="M3.16558442,9.53282828 L11.8344156,9.53282828 L11.8344156,5.35714286 C11.8344156,2.96331123 9.89383163,1.02272727 7.5,1.02272727 C5.10616837,1.02272727 3.16558442,2.96331123 3.16558442,5.35714286 L3.16558442,9.53282828 Z" id="Rectangle-9" stroke="#F7C031" stroke-width="2.04545455"></path>
                        <path d="M2.04545455,6.33333333 L12.9545455,6.33333333 C14.0842188,6.33333333 15,7.24911453 15,8.37878788 L15,16.9545455 C15,18.0842188 14.0842188,19 12.9545455,19 L2.04545455,19 C0.915781194,19 1.38345085e-16,18.0842188 0,16.9545455 L0,8.37878788 C-1.38345085e-16,7.24911453 0.915781194,6.33333333 2.04545455,6.33333333 Z" id="Rectangle-8" fill="#F7C02F"></path>
                        <path d="M2.04545455,6.33333333 L4.28571429,6.33333333 L4.28571429,19 L2.04545455,19 C0.915781194,19 1.38345085e-16,18.0842188 0,16.9545455 L0,8.37878788 C-1.38345085e-16,7.24911453 0.915781194,6.33333333 2.04545455,6.33333333 Z" id="Rectangle-8" fill="url(#linearGradient-1)" style="mix-blend-mode: multiply;"></path>
                    </g>
                </g>
            </g>
        </g>
    </g>
</svg>