<svg width="16" height="16" viewBox="0 0 16 16" fill="none" xmlns="http://www.w3.org/2000/svg">
<path d="M8.68539 1.33395C9.17188 1.33208 9.65837 1.33697 10.1447 1.34862L10.2741 1.35328C10.4234 1.35862 10.5707 1.36528 10.7487 1.37328C11.4581 1.40662 11.9421 1.51862 12.3667 1.68328C12.8067 1.85262 13.1774 2.08195 13.5481 2.45262C13.887 2.78569 14.1493 3.18858 14.3167 3.63328C14.4814 4.05795 14.5934 4.54262 14.6267 5.25195C14.6347 5.42928 14.6414 5.57728 14.6467 5.72662L14.6507 5.85595C14.6626 6.34208 14.6677 6.82835 14.6661 7.31462L14.6667 7.81195V8.68528C14.6684 9.17178 14.6633 9.65827 14.6514 10.1446L14.6474 10.2739C14.6421 10.4233 14.6354 10.5706 14.6274 10.7486C14.5941 11.4579 14.4807 11.9419 14.3167 12.3666C14.1498 12.8118 13.8875 13.215 13.5481 13.5479C13.2147 13.8868 12.8116 14.1491 12.3667 14.3166C11.9421 14.4813 11.4581 14.5933 10.7487 14.6266C10.5707 14.6346 10.4234 14.6413 10.2741 14.6466L10.1447 14.6506C9.65838 14.6625 9.17188 14.6676 8.68539 14.6659L8.18806 14.6666H7.31539C6.8289 14.6683 6.34241 14.6631 5.85606 14.6513L5.72673 14.6473C5.56847 14.6415 5.41024 14.6349 5.25206 14.6273C4.54273 14.5939 4.05873 14.4806 3.63339 14.3166C3.18851 14.1495 2.78555 13.8872 2.45273 13.5479C2.11342 13.2148 1.85088 12.8117 1.68339 12.3666C1.51873 11.9419 1.40673 11.4579 1.37339 10.7486C1.36597 10.5904 1.3593 10.4322 1.35339 10.2739L1.35006 10.1446C1.33777 9.65827 1.33221 9.17178 1.33339 8.68528V7.31462C1.33153 6.82835 1.33642 6.34208 1.34806 5.85595L1.35273 5.72662C1.35806 5.57728 1.36473 5.42928 1.37273 5.25195C1.40606 4.54195 1.51806 4.05862 1.68273 3.63328C1.85031 3.18836 2.11337 2.78558 2.45339 2.45328C2.78599 2.11378 3.1887 1.851 3.63339 1.68328C4.05873 1.51862 4.54206 1.40662 5.25206 1.37328L5.72673 1.35328L5.85606 1.34995C6.34218 1.33767 6.82845 1.33211 7.31473 1.33328L8.68539 1.33395ZM8.00006 4.66728C7.5584 4.66104 7.1199 4.74263 6.71004 4.90733C6.30019 5.07202 5.92716 5.31654 5.61262 5.62665C5.29809 5.93677 5.04833 6.30631 4.87785 6.71379C4.70738 7.12127 4.61959 7.55858 4.61959 8.00028C4.61959 8.44199 4.70738 8.87929 4.87785 9.28678C5.04833 9.69426 5.29809 10.0638 5.61262 10.3739C5.92716 10.684 6.30019 10.9285 6.71004 11.0932C7.1199 11.2579 7.5584 11.3395 8.00006 11.3333C8.88411 11.3333 9.73196 10.9821 10.3571 10.357C10.9822 9.73185 11.3334 8.88401 11.3334 7.99995C11.3334 7.1159 10.9822 6.26805 10.3571 5.64293C9.73196 5.01781 8.88411 4.66728 8.00006 4.66728ZM8.00006 6.00062C8.26573 5.99572 8.52971 6.04381 8.77659 6.14209C9.02347 6.24036 9.24828 6.38684 9.43791 6.57298C9.62754 6.75911 9.77818 6.98117 9.88102 7.22618C9.98387 7.47118 10.0369 7.73423 10.0369 7.99994C10.0369 8.26566 9.98404 8.52872 9.88128 8.77376C9.77852 9.0188 9.62795 9.24091 9.43839 9.42711C9.24882 9.61331 9.02405 9.75986 8.77721 9.85822C8.53037 9.95657 8.2664 10.0048 8.00073 9.99995C7.47029 9.99995 6.96159 9.78924 6.58651 9.41416C6.21144 9.03909 6.00073 8.53038 6.00073 7.99995C6.00073 7.46952 6.21144 6.96081 6.58651 6.58574C6.96159 6.21066 7.47029 5.99995 8.00073 5.99995L8.00006 6.00062ZM11.5001 3.66728C11.285 3.67589 11.0816 3.76738 10.9325 3.9226C10.7833 4.07781 10.7001 4.28471 10.7001 4.49995C10.7001 4.71519 10.7833 4.92209 10.9325 5.0773C11.0816 5.23252 11.285 5.32401 11.5001 5.33262C11.7211 5.33262 11.933 5.24482 12.0893 5.08854C12.2456 4.93226 12.3334 4.7203 12.3334 4.49928C12.3334 4.27827 12.2456 4.06631 12.0893 3.91003C11.933 3.75375 11.7211 3.66595 11.5001 3.66595V3.66728Z" fill="white"/>
</svg>
