<?xml version="1.0" encoding="UTF-8"?>
<svg width="173px" height="25px" viewBox="0 0 173 25" version="1.1" xmlns="http://www.w3.org/2000/svg" xmlns:xlink="http://www.w3.org/1999/xlink">
    <!-- Generator: Sketch 54.1 (76490) - https://sketchapp.com -->
    <title>Logo</title>
    <desc>Created with Sketch.</desc>
    <g id="Page-1" stroke="none" stroke-width="1" fill="none" fill-rule="evenodd">
        <g id="FrontEnd-Test_Result_Desktop" transform="translate(-230.000000, -20.000000)" fill="#FFFFFF">
            <g id="Header">
                <g id="Logo" transform="translate(230.000000, 20.000000)">
                    <path d="M39.4696373,17.861875 C39.4696373,18.0660417 39.4633843,18.2389583 39.4508783,18.380625 C39.4383723,18.5222917 39.4216976,18.6452083 39.3966855,18.7472917 C39.3716735,18.849375 39.3404084,18.936875 39.2987217,19.0097917 C39.2570349,19.0827083 39.1924205,19.1660417 39.102794,19.2597917 C39.0131675,19.3535417 38.8401675,19.4722917 38.583794,19.6202083 C38.3274205,19.7660417 38.0147699,19.905625 37.6437578,20.0410417 C37.2727458,20.174375 36.8496253,20.286875 36.3743964,20.3764583 C35.8970831,20.4660417 35.3822518,20.5097917 34.8278181,20.5097917 C33.746047,20.5097917 32.7684928,20.343125 31.8972398,20.0097917 C31.0259867,19.6764583 30.286047,19.1785417 29.6753361,18.5139583 C29.0646253,17.8514583 28.5956494,17.024375 28.2704928,16.030625 C27.9453361,15.0389583 27.7827578,13.8827083 27.7827578,12.5639583 C27.7827578,11.2202083 27.9620108,10.0285417 28.3184325,8.986875 C28.6769386,7.94520833 29.1792639,7.07020833 29.8212398,6.361875 C30.4653,5.655625 31.2365048,5.118125 32.1348542,4.75145833 C33.035288,4.38479167 34.0274325,4.20145833 35.1092036,4.20145833 C35.5489988,4.20145833 35.9721193,4.23895833 36.3806494,4.311875 C36.7870952,4.38479167 37.1643602,4.480625 37.5103602,4.599375 C37.8563602,4.71604167 38.1669265,4.85354167 38.4441434,5.00770833 C38.7213602,5.161875 38.9131193,5.29520833 39.0235892,5.405625 C39.134059,5.51395833 39.2090952,5.605625 39.2507819,5.67854167 C39.2903843,5.75354167 39.3237337,5.84520833 39.3466614,5.95979167 C39.3716735,6.074375 39.3904325,6.20770833 39.4029386,6.361875 C39.4154446,6.518125 39.4216976,6.70770833 39.4216976,6.936875 C39.4216976,7.180625 39.4133602,7.38895833 39.3966855,7.55979167 C39.3800108,7.730625 39.3508301,7.868125 39.3112277,7.974375 C39.269541,8.080625 39.2216012,8.15770833 39.1653241,8.205625 C39.1069627,8.255625 39.0423482,8.27854167 38.9693964,8.27854167 C38.8464205,8.27854167 38.6921795,8.20770833 38.5045892,8.06604167 C38.3169988,7.92229167 38.0752157,7.76395833 37.7771554,7.58895833 C37.4811795,7.41395833 37.1268422,7.255625 36.7162277,7.11395833 C36.3035289,6.97020833 35.8137096,6.899375 35.2446855,6.899375 C34.6173,6.899375 34.0566133,7.02854167 33.5647096,7.28479167 C33.072806,7.54104167 32.6517699,7.90770833 32.3057699,8.38270833 C31.9597699,8.85979167 31.6971434,9.43479167 31.5199747,10.1097917 C31.3407217,10.786875 31.2510952,11.5472917 31.2510952,12.393125 C31.2510952,13.3202083 31.3469747,14.124375 31.5366494,14.8035417 C31.7284084,15.4827083 32.0014566,16.043125 32.355794,16.4827083 C32.7101313,16.9222917 33.1374205,17.249375 33.6376614,17.4660417 C34.1379024,17.680625 34.7027578,17.7889583 35.3301434,17.7889583 C35.8991675,17.7889583 36.3910711,17.7222917 36.8079386,17.586875 C37.2227217,17.4535417 37.5791434,17.3035417 37.8751193,17.1410417 C38.1731795,16.9785417 38.417047,16.8327083 38.608806,16.7014583 C38.8005651,16.5722917 38.948553,16.5077083 39.0548542,16.5077083 C39.1361434,16.5077083 39.2007578,16.5222917 39.2507819,16.555625 C39.2987217,16.5889583 39.3404084,16.6535417 39.3716735,16.7514583 C39.4050229,16.849375 39.4279506,16.9847917 39.4446253,17.1597917 C39.4613,17.3347917 39.4696373,17.568125 39.4696373,17.861875" id="Fill-1"></path>
                    <path d="M49.4475687,14.4072917 C49.4475687,13.8697917 49.4037976,13.3760417 49.3183398,12.9239583 C49.2328819,12.471875 49.0890627,12.0802083 48.8847976,11.746875 C48.6826169,11.4135417 48.411653,11.153125 48.0739904,10.965625 C47.7363277,10.778125 47.3111229,10.684375 46.7983759,10.684375 C46.341906,10.684375 45.9417133,10.7677083 45.5998819,10.934375 C45.2580506,11.1010417 44.9766651,11.3447917 44.7578096,11.6677083 C44.5389542,11.9885417 44.3722072,12.3739583 44.2638217,12.8260417 C44.1533518,13.278125 44.099159,13.7927083 44.099159,14.3697917 C44.099159,14.9072917 44.1429301,15.403125 44.2325566,15.853125 C44.3221831,16.3052083 44.4660024,16.6989583 44.6660988,17.0322917 C44.8661952,17.365625 45.137159,17.6239583 45.4789904,17.8072917 C45.8208217,17.990625 46.2439422,18.0822917 46.7483518,18.0822917 C47.213159,18.0822917 47.6154361,17.9989583 47.9572675,17.8322917 C48.2990988,17.6635417 48.5804843,17.421875 48.7993398,17.1052083 C49.0202795,16.7885417 49.1828578,16.403125 49.289159,15.9510417 C49.3954602,15.4989583 49.4475687,14.984375 49.4475687,14.4072917 M52.6115928,14.284375 C52.6115928,15.2135417 52.4886169,16.059375 52.2447494,16.8239583 C52.0008819,17.5885417 51.6298699,18.2489583 51.1337976,18.8010417 C50.635641,19.3552083 50.0124241,19.7822917 49.264147,20.084375 C48.5158699,20.384375 47.6404482,20.534375 46.6378819,20.534375 C45.6707494,20.534375 44.8265928,20.4010417 44.1095807,20.1322917 C43.394653,19.8635417 42.8006169,19.4739583 42.3274723,18.9614583 C41.8543277,18.446875 41.504159,17.8177083 41.2769663,17.0677083 C41.0497735,16.3197917 40.9351349,15.465625 40.9351349,14.5052083 C40.9351349,13.578125 41.0601952,12.728125 41.3082313,11.959375 C41.5562675,11.190625 41.9293639,10.5322917 42.4254361,9.98229167 C42.9215084,9.43229167 43.542641,9.00729167 44.2867494,8.70729167 C45.0329422,8.40520833 45.9062795,8.25520833 46.9067614,8.25520833 C47.8843157,8.25520833 48.7305566,8.38645833 49.4475687,8.65104167 C50.1645807,8.915625 50.7565325,9.30520833 51.2255084,9.81770833 C51.6924,10.3302083 52.0404843,10.9614583 52.2697614,11.709375 C52.4969542,12.4572917 52.6115928,13.3177083 52.6115928,14.284375" id="Fill-3"></path>
                    <path d="M72.3713193,19.839375 C72.3713193,19.920625 72.3463072,19.9914583 72.2983675,20.0539583 C72.2483434,20.114375 72.1670542,20.164375 72.0545,20.2060417 C71.9398614,20.245625 71.7856205,20.276875 71.5896928,20.2977083 C71.3937651,20.3164583 71.1457289,20.326875 70.8455843,20.326875 C70.5350181,20.326875 70.2828133,20.3164583 70.0868855,20.2977083 C69.8930422,20.276875 69.7346325,20.245625 69.6179096,20.2060417 C69.4991024,20.164375 69.4178133,20.114375 69.3740422,20.0539583 C69.3281867,19.9914583 69.305259,19.920625 69.305259,19.839375 L69.305259,13.3810417 C69.305259,13.0164583 69.2719096,12.6810417 69.2010422,12.3810417 C69.132259,12.0789583 69.0280422,11.820625 68.8842229,11.6060417 C68.742488,11.389375 68.5632349,11.2227083 68.3464639,11.1060417 C68.1317771,10.9872917 67.8733193,10.9289583 67.5710904,10.9289583 C67.204247,10.9289583 66.8353193,11.070625 66.4601386,11.3560417 C66.0849578,11.639375 65.678512,12.0560417 65.2387169,12.5997917 L65.2387169,19.839375 C65.2387169,19.920625 65.2137048,19.9914583 65.1657651,20.0539583 C65.1178253,20.114375 65.0323675,20.164375 64.9156446,20.2060417 C64.7968373,20.245625 64.640512,20.276875 64.4445843,20.2977083 C64.250741,20.3164583 64.0047892,20.326875 63.7129819,20.326875 C63.410753,20.326875 63.1627169,20.3164583 62.9667892,20.2977083 C62.7729458,20.276875 62.6145361,20.245625 62.4978133,20.2060417 C62.379006,20.164375 62.2956325,20.114375 62.2476928,20.0539583 C62.1976687,19.9914583 62.1726566,19.920625 62.1726566,19.839375 L62.1726566,13.3810417 C62.1726566,13.0164583 62.1393072,12.6810417 62.0705241,12.3810417 C61.9996566,12.0789583 61.8975241,11.820625 61.7578735,11.6060417 C61.6203072,11.389375 61.4410542,11.2227083 61.2201145,11.1060417 C61.001259,10.9872917 60.7448855,10.9289583 60.450994,10.9289583 C60.0778976,10.9289583 59.7027169,11.070625 59.3275361,11.3560417 C58.9544398,11.639375 58.5500783,12.0560417 58.1186205,12.5997917 L58.1186205,19.839375 C58.1186205,19.920625 58.0936084,19.9914583 58.0456687,20.0539583 C57.9977289,20.114375 57.9122711,20.164375 57.7955482,20.2060417 C57.676741,20.245625 57.5204157,20.276875 57.324488,20.2977083 C57.1306446,20.3164583 56.8805241,20.326875 56.5803795,20.326875 C56.2781506,20.326875 56.0301145,20.3164583 55.8341867,20.2977083 C55.6403434,20.276875 55.4819337,20.245625 55.3652108,20.2060417 C55.2464036,20.164375 55.1630301,20.114375 55.1150904,20.0539583 C55.0650663,19.9914583 55.0421386,19.920625 55.0421386,19.839375 L55.0421386,8.94979167 C55.0421386,8.86854167 55.0608976,8.79770833 55.1025843,8.73729167 C55.1421867,8.676875 55.2172229,8.62479167 55.3214398,8.58520833 C55.427741,8.54354167 55.5653072,8.51229167 55.7320542,8.49354167 C55.8988012,8.47270833 56.1072349,8.46229167 56.3594398,8.46229167 C56.6199819,8.46229167 56.836753,8.47270833 57.0076687,8.49354167 C57.1785843,8.51229167 57.3098976,8.54354167 57.4036928,8.58520833 C57.497488,8.62479167 57.5641867,8.676875 57.6058735,8.73729167 C57.6475602,8.79770833 57.6663193,8.86854167 57.6663193,8.94979167 L57.6663193,10.208125 C58.2686928,9.55604167 58.8689819,9.06854167 59.4692711,8.74354167 C60.0674759,8.41854167 60.6906928,8.25395833 61.3430904,8.25395833 C61.7912229,8.25395833 62.1935,8.301875 62.552006,8.395625 C62.910512,8.489375 63.2294157,8.62270833 63.5108012,8.79770833 C63.7921867,8.97270833 64.0339699,9.183125 64.2382349,9.426875 C64.4404157,9.670625 64.6113313,9.94354167 64.7509819,10.245625 C65.0761386,9.895625 65.3950422,9.59354167 65.7097771,9.34145833 C66.0224277,9.089375 66.332994,8.883125 66.6373072,8.72479167 C66.9437048,8.56645833 67.2480181,8.44770833 67.5523313,8.370625 C67.8587289,8.29354167 68.1692952,8.25395833 68.4881988,8.25395833 C69.2114639,8.25395833 69.8221747,8.376875 70.3203313,8.620625 C70.8164036,8.864375 71.2165964,9.19770833 71.522994,9.61645833 C71.8273072,10.0352083 72.0461627,10.5247917 72.1753916,11.0872917 C72.3067048,11.6477083 72.3713193,12.2435417 72.3713193,12.8685417 L72.3713193,19.839375 Z" id="Fill-5"></path>
                    <path d="M83.1552639,14.4560417 C83.1552639,13.9914583 83.1198301,13.545625 83.051047,13.1185417 C82.9822639,12.6914583 82.8634566,12.3122917 82.6967096,11.9789583 C82.5299627,11.6435417 82.3111072,11.376875 82.038059,11.1789583 C81.7650108,10.9789583 81.4252639,10.8789583 81.0188181,10.8789583 C80.814553,10.8789583 80.6123723,10.9102083 80.4143602,10.970625 C80.2142639,11.0310417 80.0099988,11.1310417 79.8036494,11.270625 C79.5952157,11.408125 79.3805289,11.5872917 79.1616735,11.808125 C78.9428181,12.026875 78.7093723,12.2997917 78.4655048,12.6247917 L78.4655048,16.214375 C78.8969627,16.758125 79.3075771,17.1810417 79.6994325,17.476875 C80.0892036,17.7747917 80.4977337,17.9227083 80.9208542,17.9227083 C81.3189627,17.9227083 81.6587096,17.820625 81.9400952,17.6185417 C82.2214807,17.414375 82.4507578,17.1477083 82.6300108,16.8185417 C82.8092639,16.489375 82.9405771,16.1164583 83.0260349,15.701875 C83.1114928,15.2852083 83.1552639,14.870625 83.1552639,14.4560417 M86.3547217,14.2372917 C86.3547217,15.2039583 86.2505048,16.076875 86.0441554,16.8539583 C85.8357217,17.6310417 85.5334928,18.2935417 85.1333,18.839375 C84.7351916,19.383125 84.2391193,19.801875 83.6429988,20.095625 C83.0489627,20.389375 82.3694687,20.5352083 81.6045169,20.5352083 C81.2876976,20.5352083 80.9958904,20.5039583 80.7311795,20.4435417 C80.4664687,20.383125 80.2100952,20.289375 79.962059,20.1622917 C79.7140229,20.0372917 79.4659867,19.8810417 79.2221193,19.6935417 C78.9782518,19.5060417 78.726047,19.2852083 78.4655048,19.033125 L78.4655048,24.1602083 C78.4655048,24.2414583 78.4404928,24.314375 78.392553,24.3810417 C78.3425289,24.445625 78.2591554,24.4997917 78.1424325,24.545625 C78.0236253,24.589375 77.8673,24.6247917 77.6713723,24.6497917 C77.4754446,24.6727083 77.2274084,24.6852083 76.9272639,24.6852083 C76.6250349,24.6852083 76.3769988,24.6727083 76.1810711,24.6497917 C75.9872277,24.6247917 75.8288181,24.589375 75.7120952,24.545625 C75.593288,24.4997917 75.5099145,24.445625 75.4619747,24.3810417 C75.4119506,24.314375 75.3869386,24.2414583 75.3869386,24.1602083 L75.3869386,8.94979167 C75.3869386,8.86854167 75.4077819,8.79770833 75.4494687,8.73729167 C75.4890711,8.676875 75.5599386,8.62479167 75.6620711,8.58520833 C75.7642036,8.54354167 75.8996855,8.51229167 76.0664325,8.49354167 C76.2331795,8.47270833 76.4416133,8.46229167 76.6938181,8.46229167 C76.9397699,8.46229167 77.1440349,8.47270833 77.3107819,8.49354167 C77.4775289,8.51229167 77.6130108,8.54354167 77.7151434,8.58520833 C77.8151916,8.62479167 77.8881434,8.676875 77.9277458,8.73729167 C77.9694325,8.79770833 77.9881916,8.86854167 77.9881916,8.94979167 L77.9881916,10.233125 C78.3070952,9.90604167 78.6176614,9.620625 78.924059,9.37270833 C79.2283723,9.12270833 79.5410229,8.91645833 79.8578422,8.74979167 C80.1746614,8.583125 80.5039867,8.458125 80.8416494,8.376875 C81.179312,8.295625 81.5399024,8.25395833 81.9213361,8.25395833 C82.7196373,8.25395833 83.3991313,8.41229167 83.9619024,8.72479167 C84.5225892,9.03729167 84.9811434,9.46645833 85.3354807,10.0122917 C85.6898181,10.558125 85.9482759,11.1935417 86.1108542,11.9164583 C86.2734325,12.6414583 86.3547217,13.414375 86.3547217,14.2372917" id="Fill-7"></path>
                    <path d="M95.0751723,15.2129167 L93.9037747,15.2129167 C93.4056181,15.2129167 92.9824976,15.2504167 92.6323289,15.3233333 C92.2821602,15.39625 91.996606,15.5066667 91.7777506,15.6525 C91.5588952,15.7983333 91.3963169,15.9754167 91.2962687,16.18375 C91.1941361,16.39 91.1420277,16.6295833 91.1420277,16.8983333 C91.1420277,17.3525 91.2879313,17.7108333 91.5755699,17.97125 C91.8652928,18.2316667 92.2654855,18.3629167 92.7782325,18.3629167 C93.2096904,18.3629167 93.6077988,18.2525 93.9704735,18.03375 C94.3331482,17.8129167 94.6999916,17.4920833 95.0751723,17.0691667 L95.0751723,15.2129167 Z M98.0912084,19.8754167 C98.0912084,19.99 98.051606,20.0795833 97.9703169,20.1441667 C97.8890277,20.20875 97.7597988,20.2566667 97.5847145,20.2858333 C97.4096301,20.3129167 97.1511723,20.3275 96.809341,20.3275 C96.4424976,20.3275 96.1757024,20.3129167 96.0089554,20.2858333 C95.8422084,20.2566667 95.7254855,20.20875 95.6546181,20.1441667 C95.5858349,20.0795833 95.5524855,19.99 95.5524855,19.8754167 L95.5524855,19.00875 C95.104353,19.49 94.5936904,19.8629167 94.0184133,20.1316667 C93.4452205,20.4004167 92.8074133,20.5358333 92.1070759,20.5358333 C91.5297145,20.5358333 90.9982084,20.4608333 90.5146422,20.30875 C90.0289916,20.15875 89.6100398,19.9358333 89.2557024,19.6379167 C88.9013651,19.34 88.6262325,18.9733333 88.4303048,18.53375 C88.2364614,18.0941667 88.1384976,17.5816667 88.1384976,16.9941667 C88.1384976,16.3608333 88.2614735,15.80875 88.511594,15.3420833 C88.7596301,14.8733333 89.1285578,14.4858333 89.6225458,14.1816667 C90.1144494,13.8754167 90.7272446,13.6504167 91.4609313,13.5045833 C92.1925337,13.3566667 93.0429434,13.28375 94.0121602,13.28375 L95.0751723,13.28375 L95.0751723,12.6254167 C95.0751723,12.28375 95.0397386,11.98375 94.9709554,11.7275 C94.9021723,11.47125 94.7875337,11.25875 94.6291241,11.0879167 C94.4707145,10.915 94.258112,10.79 93.9934012,10.70875 C93.7286904,10.6275 93.4014494,10.5858333 93.0116783,10.5858333 C92.4989313,10.5858333 92.0403771,10.6441667 91.6381,10.7566667 C91.2337386,10.87125 90.8773169,10.9983333 90.5688349,11.1358333 C90.2582687,11.2733333 89.9998108,11.4004167 89.7934614,11.515 C89.5850277,11.6275 89.4161964,11.6858333 89.2869675,11.6858333 C89.197341,11.6858333 89.1181361,11.6566667 89.0472687,11.6004167 C88.9784855,11.5420833 88.9222084,11.4608333 88.876353,11.3545833 C88.8325819,11.2504167 88.7971482,11.1191667 88.7742205,10.965 C88.7492084,10.8108333 88.7367024,10.64 88.7367024,10.4525 C88.7367024,10.2004167 88.7575458,10.0004167 88.7971482,9.85458333 C88.8388349,9.70666667 88.9159554,9.57541667 89.030594,9.45666667 C89.1431482,9.34 89.3432446,9.20875 89.6287988,9.06708333 C89.9122687,8.92333333 90.247847,8.79208333 90.6292807,8.66916667 C91.0127988,8.54833333 91.4296663,8.44833333 91.8819675,8.37125 C92.3342687,8.29416667 92.7990759,8.25458333 93.2805578,8.25458333 C94.1351361,8.25458333 94.8646542,8.33791667 95.4711964,8.50458333 C96.0777386,8.67125 96.5779795,8.9275 96.9677506,9.27333333 C97.359606,9.61916667 97.6430759,10.065 97.8223289,10.6108333 C98.0015819,11.1566667 98.0912084,11.8025 98.0912084,12.5525 L98.0912084,19.8754167 Z" id="Fill-9"></path>
                    <path d="M111.562489,19.839375 C111.562489,19.920625 111.537477,19.9914583 111.489537,20.0539583 C111.439513,20.114375 111.358224,20.164375 111.24567,20.2060417 C111.131031,20.245625 110.974706,20.276875 110.77461,20.2977083 C110.574513,20.3164583 110.328561,20.326875 110.036754,20.326875 C109.734525,20.326875 109.484405,20.3164583 109.284308,20.2977083 C109.086296,20.276875 108.927887,20.245625 108.815333,20.2060417 C108.700694,20.164375 108.619405,20.114375 108.569381,20.0539583 C108.521441,19.9914583 108.496429,19.920625 108.496429,19.839375 L108.496429,13.626875 C108.496429,13.0977083 108.458911,12.6810417 108.38179,12.3810417 C108.30467,12.0789583 108.192116,11.820625 108.046212,11.6060417 C107.898224,11.389375 107.708549,11.2227083 107.477188,11.1060417 C107.245827,10.9872917 106.974863,10.9289583 106.664296,10.9289583 C106.274525,10.9289583 105.878501,11.070625 105.480393,11.3560417 C105.082284,11.639375 104.665417,12.0560417 104.233959,12.5997917 L104.233959,19.839375 C104.233959,19.920625 104.211031,19.9914583 104.161007,20.0539583 C104.113067,20.114375 104.029694,20.164375 103.910887,20.2060417 C103.79208,20.245625 103.635754,20.276875 103.441911,20.2977083 C103.245983,20.3164583 102.997947,20.326875 102.695718,20.326875 C102.395573,20.326875 102.145453,20.3164583 101.95161,20.2977083 C101.755682,20.276875 101.599357,20.245625 101.480549,20.2060417 C101.361742,20.164375 101.278369,20.114375 101.230429,20.0539583 C101.182489,19.9914583 101.157477,19.920625 101.157477,19.839375 L101.157477,8.94979167 C101.157477,8.86854167 101.17832,8.79770833 101.217923,8.73729167 C101.25961,8.676875 101.332561,8.62479167 101.438863,8.58520833 C101.54308,8.54354167 101.680646,8.51229167 101.847393,8.49354167 C102.01414,8.47270833 102.224658,8.46229167 102.476863,8.46229167 C102.737405,8.46229167 102.952092,8.47270833 103.123007,8.49354167 C103.293923,8.51229167 103.42732,8.54354167 103.521116,8.58520833 C103.614911,8.62479167 103.68161,8.676875 103.721212,8.73729167 C103.762899,8.79770833 103.783742,8.86854167 103.783742,8.94979167 L103.783742,10.208125 C104.386116,9.55604167 104.998911,9.06854167 105.620043,8.74354167 C106.24326,8.41854167 106.893573,8.25395833 107.568899,8.25395833 C108.308839,8.25395833 108.93414,8.376875 109.442718,8.620625 C109.953381,8.864375 110.363995,9.19770833 110.676646,9.61645833 C110.991381,10.0352083 111.216489,10.5247917 111.354055,11.0872917 C111.493706,11.6477083 111.562489,12.3247917 111.562489,13.1122917 L111.562489,19.839375 Z" id="Fill-11"></path>
                    <path d="M120.441349,20.254375 L119.121964,24.1127083 C119.049012,24.3147917 118.848916,24.4627083 118.523759,24.5522917 C118.198602,24.6397917 117.721289,24.685625 117.095988,24.685625 C116.768747,24.685625 116.508205,24.6710417 116.314361,24.641875 C116.118434,24.6147917 115.970446,24.566875 115.874566,24.5022917 C115.776602,24.4377083 115.72241,24.3564583 115.714072,24.2585417 C115.707819,24.160625 115.730747,24.041875 115.789108,23.904375 L117.241892,20.254375 C117.13559,20.2064583 117.039711,20.129375 116.954253,20.029375 C116.868795,19.9272917 116.806265,19.8189583 116.764578,19.704375 L113.014855,9.69604167 C112.910639,9.410625 112.856446,9.191875 112.856446,9.041875 C112.856446,8.891875 112.90647,8.773125 113.004434,8.68770833 C113.102398,8.60229167 113.26706,8.54395833 113.498422,8.510625 C113.729783,8.479375 114.038265,8.46270833 114.419699,8.46270833 C114.769867,8.46270833 115.047084,8.46895833 115.251349,8.48145833 C115.45353,8.491875 115.614024,8.523125 115.726578,8.573125 C115.841217,8.62104167 115.926675,8.69604167 115.982952,8.798125 C116.041313,8.90020833 116.09759,9.04395833 116.153867,9.23145833 L118.719687,16.5189583 L118.75512,16.5189583 L121.1,9.085625 C121.150024,8.873125 121.212554,8.73354167 121.289675,8.66479167 C121.366795,8.59395833 121.496024,8.54395833 121.675277,8.510625 C121.85453,8.479375 122.167181,8.46270833 122.615313,8.46270833 C122.965482,8.46270833 123.257289,8.479375 123.488651,8.510625 C123.720012,8.54395833 123.890928,8.604375 124.001398,8.69395833 C124.111867,8.78354167 124.16606,8.904375 124.16606,9.054375 C124.16606,9.204375 124.132711,9.38145833 124.068096,9.585625 L120.441349,20.254375 Z" id="Fill-13"></path>
                    <path d="M134.840369,18.9116667 C134.840369,19.1554167 134.829947,19.3616667 134.809104,19.5283333 C134.790345,19.695 134.75908,19.8325 134.717393,19.9429167 C134.67779,20.0533333 134.625682,20.1325 134.565236,20.1804167 C134.50479,20.2304167 134.433923,20.2554167 134.352634,20.2554167 L127.109561,20.2554167 C126.840682,20.2554167 126.615573,20.1741667 126.432152,20.0158333 C126.24873,19.8575 126.157019,19.5991667 126.157019,19.2408333 L126.157019,4.89708333 C126.157019,4.81583333 126.184116,4.74291667 126.236224,4.67833333 C126.288333,4.61375 126.375875,4.55958333 126.498851,4.52 C126.621827,4.47833333 126.786489,4.44708333 126.992839,4.42208333 C127.201272,4.39708333 127.45973,4.38458333 127.768212,4.38458333 C128.087116,4.38458333 128.347658,4.39708333 128.549839,4.42208333 C128.754104,4.44708333 128.916682,4.47833333 129.039658,4.52 C129.160549,4.55958333 129.248092,4.61375 129.302284,4.67833333 C129.354393,4.74291667 129.381489,4.81583333 129.381489,4.89708333 L129.381489,17.6054167 L134.352634,17.6054167 C134.433923,17.6054167 134.50479,17.6283333 134.565236,17.6720833 C134.625682,17.7179167 134.67779,17.7908333 134.717393,17.8929167 C134.75908,17.995 134.790345,18.1283333 134.809104,18.295 C134.829947,18.4616667 134.840369,18.6679167 134.840369,18.9116667" id="Fill-15"></path>
                    <path d="M144.4031,14.4072917 C144.4031,13.8697917 144.359329,13.3760417 144.273871,12.9239583 C144.188413,12.471875 144.044594,12.0802083 143.840329,11.746875 C143.638148,11.4135417 143.367184,11.153125 143.029522,10.965625 C142.691859,10.778125 142.266654,10.684375 141.753907,10.684375 C141.297437,10.684375 140.897245,10.7677083 140.555413,10.934375 C140.213582,11.1010417 139.932196,11.3447917 139.713341,11.6677083 C139.494486,11.9885417 139.327739,12.3739583 139.219353,12.8260417 C139.108883,13.278125 139.05469,13.7927083 139.05469,14.3697917 C139.05469,14.9072917 139.098461,15.403125 139.188088,15.853125 C139.277714,16.3052083 139.421534,16.6989583 139.62163,17.0322917 C139.821727,17.365625 140.09269,17.6239583 140.434522,17.8072917 C140.776353,17.990625 141.199473,18.0822917 141.703883,18.0822917 C142.16869,18.0822917 142.570967,17.9989583 142.912799,17.8322917 C143.25463,17.6635417 143.536016,17.421875 143.754871,17.1052083 C143.975811,16.7885417 144.138389,16.403125 144.24469,15.9510417 C144.350992,15.4989583 144.4031,14.984375 144.4031,14.4072917 M147.567124,14.284375 C147.567124,15.2135417 147.444148,16.059375 147.200281,16.8239583 C146.956413,17.5885417 146.585401,18.2489583 146.089329,18.8010417 C145.591172,19.3552083 144.967955,19.7822917 144.219678,20.084375 C143.471401,20.384375 142.59598,20.534375 141.593413,20.534375 C140.626281,20.534375 139.782124,20.4010417 139.065112,20.1322917 C138.350184,19.8635417 137.756148,19.4739583 137.283004,18.9614583 C136.809859,18.446875 136.45969,17.8177083 136.232498,17.0677083 C136.005305,16.3197917 135.890666,15.465625 135.890666,14.5052083 C135.890666,13.578125 136.015727,12.728125 136.263763,11.959375 C136.511799,11.190625 136.884895,10.5322917 137.380967,9.98229167 C137.87704,9.43229167 138.498172,9.00729167 139.242281,8.70729167 C139.988473,8.40520833 140.861811,8.25520833 141.862293,8.25520833 C142.839847,8.25520833 143.686088,8.38645833 144.4031,8.65104167 C145.120112,8.915625 145.712064,9.30520833 146.18104,9.81770833 C146.647931,10.3302083 146.996016,10.9614583 147.225293,11.709375 C147.452486,12.4572917 147.567124,13.3177083 147.567124,14.284375" id="Fill-17"></path>
                    <path d="M155.870916,12.283125 C155.870916,11.6977083 155.708337,11.2414583 155.383181,10.9164583 C155.05594,10.5914583 154.597386,10.426875 154.003349,10.426875 C153.70112,10.426875 153.43641,10.4789583 153.209217,10.5810417 C152.97994,10.6810417 152.790265,10.820625 152.640193,10.995625 C152.49012,11.170625 152.377566,11.3727083 152.304614,11.6060417 C152.231663,11.8372917 152.194145,12.0789583 152.194145,12.3310417 C152.194145,12.8852083 152.356723,13.3227083 152.683964,13.6435417 C153.00912,13.9664583 153.461422,14.126875 154.038783,14.126875 C154.349349,14.126875 154.616145,14.076875 154.845422,13.9789583 C155.072614,13.883125 155.262289,13.7477083 155.412361,13.576875 C155.564518,13.4060417 155.677072,13.208125 155.754193,12.9852083 C155.831313,12.7602083 155.870916,12.526875 155.870916,12.283125 M156.592096,20.9747917 C156.592096,20.608125 156.444108,20.326875 156.152301,20.133125 C155.85841,19.9372917 155.456133,19.8310417 154.943386,19.814375 L152.756916,19.7539583 C152.544313,19.908125 152.375482,20.0560417 152.250422,20.1997917 C152.123277,20.3414583 152.021145,20.4789583 151.944024,20.608125 C151.866904,20.739375 151.81688,20.864375 151.791867,20.9872917 C151.766855,21.108125 151.754349,21.2352083 151.754349,21.364375 C151.754349,21.7727083 151.960699,22.0810417 152.371313,22.2935417 C152.784012,22.5039583 153.363458,22.6102083 154.111735,22.6102083 C154.576542,22.6102083 154.966313,22.564375 155.285217,22.470625 C155.602036,22.376875 155.85841,22.251875 156.054337,22.0977083 C156.250265,21.9435417 156.387831,21.770625 156.46912,21.5789583 C156.55041,21.3872917 156.592096,21.1852083 156.592096,20.9747917 M159.816566,9.708125 C159.816566,10.0977083 159.770711,10.3872917 159.681084,10.5747917 C159.591458,10.7622917 159.480988,10.8539583 159.351759,10.8539583 L158.069892,10.8539583 C158.249145,11.0497917 158.376289,11.2727083 158.45341,11.520625 C158.53053,11.7685417 158.570133,12.026875 158.570133,12.295625 C158.570133,12.9310417 158.463831,13.4935417 158.253313,13.9852083 C158.040711,14.4789583 157.738482,14.8935417 157.342458,15.2310417 C156.948518,15.5685417 156.471205,15.8247917 155.914687,15.9997917 C155.356084,16.1747917 154.734952,16.2622917 154.051289,16.2622917 C153.70112,16.2622917 153.367627,16.220625 153.048723,16.1352083 C152.731904,16.0497917 152.488036,15.9497917 152.31712,15.8352083 C152.219157,15.9414583 152.131614,16.0664583 152.054494,16.214375 C151.977373,16.3602083 151.937771,16.5227083 151.937771,16.701875 C151.937771,16.9372917 152.041988,17.1310417 152.250422,17.2810417 C152.456771,17.433125 152.748578,17.5164583 153.123759,17.533125 L155.772952,17.6289583 C156.392,17.6539583 156.944349,17.7414583 157.427916,17.8914583 C157.911482,18.0435417 158.320012,18.2539583 158.649337,18.526875 C158.978663,18.7997917 159.230867,19.126875 159.405952,19.5102083 C159.581036,19.8914583 159.668578,20.326875 159.668578,20.8164583 C159.668578,21.3539583 159.551855,21.8602083 159.314241,22.3352083 C159.078711,22.8122917 158.724373,23.2247917 158.253313,23.5747917 C157.780169,23.9247917 157.188217,24.201875 156.475373,24.4039583 C155.76253,24.608125 154.93088,24.7102083 153.978337,24.7102083 C153.048723,24.7102083 152.258759,24.6372917 151.602193,24.489375 C150.947711,24.3435417 150.409952,24.139375 149.991,23.8789583 C149.572048,23.6185417 149.265651,23.308125 149.073892,22.945625 C148.882133,22.583125 148.788337,22.1872917 148.788337,21.7560417 C148.788337,21.4872917 148.821687,21.2310417 148.89047,20.9872917 C148.961337,20.7435417 149.061386,20.508125 149.196867,20.2852083 C149.330265,20.0602083 149.494928,19.8477083 149.690855,19.6435417 C149.886783,19.4414583 150.109807,19.245625 150.362012,19.058125 C150.011843,18.870625 149.742964,18.6164583 149.551205,18.295625 C149.359446,17.9727083 149.263566,17.6227083 149.263566,17.239375 C149.263566,16.758125 149.374036,16.320625 149.592892,15.926875 C149.813831,15.533125 150.097301,15.176875 150.44747,14.858125 C150.164,14.5747917 149.934723,14.233125 149.763807,13.833125 C149.592892,13.4352083 149.507434,12.9372917 149.507434,12.3435417 C149.507434,11.7102083 149.619988,11.1414583 149.843012,10.6414583 C150.06812,10.1414583 150.378687,9.71854167 150.77888,9.37270833 C151.176988,9.026875 151.654301,8.76229167 152.206651,8.57895833 C152.761084,8.395625 153.371795,8.30395833 154.038783,8.30395833 C154.380614,8.30395833 154.707855,8.32479167 155.02259,8.364375 C155.335241,8.40604167 155.627048,8.46229167 155.895928,8.53520833 L159.351759,8.53520833 C159.489325,8.53520833 159.60188,8.62479167 159.687337,8.80395833 C159.772795,8.983125 159.816566,9.28520833 159.816566,9.708125" id="Fill-19"></path>
                    <path d="M169.463922,14.4072917 C169.463922,13.8697917 169.420151,13.3760417 169.334693,12.9239583 C169.249235,12.471875 169.105416,12.0802083 168.901151,11.746875 C168.69897,11.4135417 168.428006,11.153125 168.090343,10.965625 C167.752681,10.778125 167.327476,10.684375 166.814729,10.684375 C166.358259,10.684375 165.958066,10.7677083 165.616235,10.934375 C165.274404,11.1010417 164.993018,11.3447917 164.774163,11.6677083 C164.555307,11.9885417 164.38856,12.3739583 164.280175,12.8260417 C164.169705,13.278125 164.115512,13.7927083 164.115512,14.3697917 C164.115512,14.9072917 164.159283,15.403125 164.24891,15.853125 C164.338536,16.3052083 164.482355,16.6989583 164.682452,17.0322917 C164.882548,17.365625 165.153512,17.6239583 165.495343,17.8072917 C165.837175,17.990625 166.260295,18.0822917 166.764705,18.0822917 C167.229512,18.0822917 167.631789,17.9989583 167.97362,17.8322917 C168.315452,17.6635417 168.596837,17.421875 168.815693,17.1052083 C169.036633,16.7885417 169.199211,16.403125 169.305512,15.9510417 C169.411813,15.4989583 169.463922,14.984375 169.463922,14.4072917 M172.627946,14.284375 C172.627946,15.2135417 172.50497,16.059375 172.261102,16.8239583 C172.017235,17.5885417 171.646223,18.2489583 171.150151,18.8010417 C170.651994,19.3552083 170.028777,19.7822917 169.2805,20.084375 C168.532223,20.384375 167.656801,20.534375 166.654235,20.534375 C165.687102,20.534375 164.842946,20.4010417 164.125934,20.1322917 C163.411006,19.8635417 162.81697,19.4739583 162.343825,18.9614583 C161.870681,18.446875 161.520512,17.8177083 161.293319,17.0677083 C161.066127,16.3197917 160.951488,15.465625 160.951488,14.5052083 C160.951488,13.578125 161.076548,12.728125 161.324584,11.959375 C161.57262,11.190625 161.945717,10.5322917 162.441789,9.98229167 C162.937861,9.43229167 163.558994,9.00729167 164.303102,8.70729167 C165.049295,8.40520833 165.922633,8.25520833 166.923114,8.25520833 C167.900669,8.25520833 168.74691,8.38645833 169.463922,8.65104167 C170.180934,8.915625 170.772886,9.30520833 171.241861,9.81770833 C171.708753,10.3302083 172.056837,10.9614583 172.286114,11.709375 C172.513307,12.4572917 172.627946,13.3177083 172.627946,14.284375" id="Fill-21"></path>
                    <path d="M6.48166386,19.3245833 C6.21486867,19.59125 5.61666386,19.7725 5.00595301,19.8745833 C5.11225422,19.26 5.2956759,18.6620833 5.55621807,18.40375 C5.73338675,18.2266667 5.90013373,18.11 6.08355542,18.11 C6.22320602,18.11 6.37327831,18.17875 6.5400253,18.3454167 C6.69009759,18.4975 6.77555542,18.6620833 6.77555542,18.8016667 C6.77555542,18.99125 6.61506145,19.19125 6.48166386,19.3245833 M4.02631446,16.8725 C2.78196506,18.1141667 2.73194096,20.60375 2.73610964,21.085 C2.74027831,21.6766667 3.2196759,22.17875 3.81162771,22.17875 L3.84706145,22.17875 C4.40357952,22.17875 6.79431446,22.0870833 8.01156747,20.8745833 C8.78068795,20.1058333 8.94118193,19.3245833 8.94118193,18.81 C8.94118193,18.09125 8.63061566,17.3808333 8.06992892,16.8183333 C6.69843494,15.4516667 5.01220602,15.8870833 4.02631446,16.8725 M19.2628205,5.63916667 C19.5900614,5.96625 19.7776518,6.42041667 19.7776518,6.88291667 C19.7776518,7.34541667 19.5900614,7.7975 19.2628205,8.12458333 C18.9355795,8.45166667 18.481194,8.64125 18.0184711,8.64125 C17.5557482,8.64125 17.103447,8.45166667 16.776206,8.12458333 C16.4489651,7.7975 16.2592904,7.34541667 16.2592904,6.88291667 C16.2592904,6.42041667 16.4489651,5.96625 16.776206,5.63916667 C17.1013627,5.31208333 17.5557482,5.12666667 18.0184711,5.12666667 C18.481194,5.12666667 18.9355795,5.31208333 19.2628205,5.63916667 M12.2698687,16.4183333 L8.45553133,12.6079167 C10.3668687,7.48916667 15.1170735,2.02041667 22.7228205,2.16833333 C22.979194,11.22875 15.4943386,15.15375 12.2698687,16.4183333 M14.4104831,21.26 C14.4480012,20.1620833 14.2041337,19.1016667 13.6976398,18.1745833 C14.4834349,17.84125 15.2442181,17.4641667 15.9737361,17.0516667 C16.2655434,18.6058333 15.5735434,20.0995833 14.4104831,21.26 M3.63029036,10.4870833 C4.78084458,9.33916667 6.25863976,8.65166667 7.79896506,8.9225 C7.37376024,9.66833333 7.00691687,10.4266667 6.69218193,11.185 C5.77090482,10.6891667 4.71623012,10.4495833 3.63029036,10.4870833 M24.8259169,1.04333333 C24.7821458,0.51625 24.3611096,0.0975 23.831688,0.0558333333 C16.9971458,-0.475416667 12.0760253,2.83083333 9.03497711,7.00583333 C7.3550012,6.45583333 5.54996506,6.65166667 3.90542289,7.57875 C2.31924217,8.47041667 0.968591566,9.97458333 0.103591566,11.8120833 C-0.0944204819,12.2329167 -0.00270963855,12.7329167 0.334953012,13.0558333 C0.670531325,13.3766667 1.1770253,13.4475 1.58763976,13.2308333 C3.3197241,12.31625 5.27066386,12.4891667 6.44206145,13.6579167 L11.215194,18.4225 C11.2235313,18.4308333 11.2277,18.44125 11.2381217,18.4516667 C12.4074349,19.6204167 12.5804349,21.56625 11.6654108,23.2954167 C11.4486398,23.7079167 11.5195072,24.2120833 11.8404952,24.5475 C12.0489289,24.76625 12.3344831,24.8829167 12.624206,24.8829167 C12.778447,24.8829167 12.9368566,24.8495833 13.0827602,24.7808333 C14.9253145,23.91625 16.430206,22.5683333 17.3243867,20.985 C18.2581699,19.3308333 18.4520133,17.5183333 17.8892422,15.8308333 C19.1169169,14.9495833 20.2132783,13.9579167 21.1366398,12.8808333 C23.9692542,9.57666667 25.2115193,5.59333333 24.8259169,1.04333333" id="Fill-24"></path>
                </g>
            </g>
        </g>
    </g>
</svg>