<svg height='100px' width='100px'  fill="#FFFFFF" xmlns:cc="http://creativecommons.org/ns#" xmlns:inkscape="http://www.inkscape.org/namespaces/inkscape" xmlns:svg="http://www.w3.org/2000/svg" xmlns:sodipodi="http://sodipodi.sourceforge.net/DTD/sodipodi-0.dtd" xmlns:dc="http://purl.org/dc/elements/1.1/" xmlns:rdf="http://www.w3.org/1999/02/22-rdf-syntax-ns#" xmlns="http://www.w3.org/2000/svg" xmlns:xlink="http://www.w3.org/1999/xlink" version="1.1" x="0px" y="0px" viewBox="0 0 800 800" enable-background="new 0 0 800 800" xml:space="preserve"><path fill="#FFFFFF" d="M715.968,413.668c-5.151-5.157-12.812-6.895-19.685-4.469c-27.729,9.768-56.754,14.723-86.275,14.723  c-69.178,0-134.215-26.938-183.124-75.853c-70.097-70.095-94.09-175.841-61.126-269.4c2.42-6.873,0.683-14.532-4.474-19.684  c-5.152-5.157-12.811-6.895-19.683-4.474c-42,14.799-79.372,38.377-111.068,70.073c-56.072,56.072-86.948,130.62-86.948,209.92  c0,79.295,30.876,153.842,86.948,209.915c56.072,56.071,130.62,86.953,209.921,86.953c79.296,0,153.849-30.882,209.915-86.953  c31.701-31.696,55.273-69.063,70.073-111.067C722.861,426.479,721.124,418.82,715.968,413.668z M623.583,517.634  c-48.916,48.92-113.951,75.858-183.13,75.858c-69.179,0-134.22-26.938-183.135-75.858c-100.983-100.978-100.983-265.287,0-366.264  c18.486-18.487,39.169-33.805,61.786-45.78c-8.206,40.333-7.976,82.092,0.853,122.692c12.073,55.531,39.786,106.211,80.142,146.572  c56.067,56.066,130.615,86.943,209.91,86.943c20.043,0,39.892-1.994,59.355-5.949C657.388,478.464,642.069,499.152,623.583,517.634z  "></path><path fill="#FFFFFF" d="M702.785,172.844c-12.073-17.825-31.347-29.691-52.822-32.346c-7.281-15.684-18.322-29.27-32.428-39.792  c-18.208-13.581-39.863-20.759-62.627-20.759c-22.771,0-44.427,7.179-62.633,20.759c-14.105,10.522-25.146,24.108-32.43,39.787  c-36.962,4.535-65.676,36.116-65.676,74.285c0,41.268,33.571,74.837,74.838,74.837h229.104c32.248,0,58.48-26.233,58.48-58.476  C756.595,200.465,732.853,175.227,702.785,172.844z M698.113,251.741H469.009c-20.383,0-36.963-16.586-36.963-36.963  c0-20.382,16.58-36.962,36.963-36.962c0.737,0,1.568,0.033,2.622,0.109c8.769,0.601,16.755-4.867,19.377-13.226  c8.801-28.036,34.478-46.878,63.9-46.878c29.418,0,55.094,18.842,63.895,46.878c2.622,8.358,10.631,13.827,19.384,13.226  c1.049-0.076,1.879-0.109,2.616-0.109c14.586,0,27.845,8.621,33.782,21.972c3.48,7.834,11.795,12.346,20.262,11.008  c1.088-0.169,2.19-0.257,3.268-0.257c11.357,0,20.602,9.238,20.602,20.601C718.715,242.497,709.472,251.741,698.113,251.741z"></path><path fill="#FFFFFF" d="M293.373,646.565c-9.795-13.571-24.66-22.766-41.256-25.408c-14.45-29.287-44.234-48.18-77.766-48.18  c-18.847,0-36.776,5.944-51.849,17.192c-11.084,8.265-19.886,18.825-25.906,30.975c-30.106,4.765-53.193,30.898-53.193,62.322  c0,34.788,28.304,63.098,63.097,63.098h180.971c27.67,0,50.178-22.509,50.178-50.179  C337.65,670.717,318.273,649.488,293.373,646.565z M287.473,708.685H106.501c-13.908,0-25.217-11.313-25.217-25.217  c0-13.91,11.309-25.217,25.217-25.217c0.497,0,1.071,0.021,1.808,0.07c8.735,0.61,16.744-4.867,19.366-13.222  c6.425-20.479,25.185-34.241,46.676-34.241c21.491,0,40.246,13.762,46.676,34.241c2.622,8.354,10.63,13.815,19.36,13.222  c0.743-0.05,1.322-0.07,1.813-0.07c9.954,0,19,5.883,23.054,14.989c3.48,7.834,11.789,12.352,20.263,11.014  c0.655-0.104,1.311-0.159,1.955-0.159c6.786,0,12.298,5.52,12.298,12.292C299.771,703.172,294.258,708.685,287.473,708.685z"></path><g><g><path fill="#FFFFFF" d="M173.205,117.27c0-20.918-16.958-37.875-37.88-37.875c-20.918,0-37.875,16.957-37.875,37.875    c0,20.923,16.957,37.88,37.875,37.88C156.247,155.15,173.205,138.193,173.205,117.27z"></path></g><g><path fill="#FFFFFF" d="M120.175,448.702c0-12.549-10.178-22.727-22.726-22.727c-12.554,0-22.731,10.178-22.731,22.727    c0,12.554,10.178,22.729,22.731,22.729C109.998,471.433,120.175,461.256,120.175,448.702z"></path></g><g><path fill="#FFFFFF" d="M673.192,612.433c0-12.554-10.172-22.726-22.727-22.726s-22.727,10.172-22.727,22.726    c0,12.555,10.172,22.727,22.727,22.727C663.021,635.158,673.192,624.986,673.192,612.433z"></path></g><g><circle fill="#FFFFFF" cx="598.109" cy="354.007" r="22.726"></circle></g><g><path fill="#FFFFFF" d="M455.274,682.5c0-12.554-10.173-22.726-22.727-22.726c-12.555,0-22.728,10.172-22.728,22.726    c0,12.549,10.173,22.727,22.728,22.727S455.274,695.049,455.274,682.5z"></path></g></g></svg>