<svg width="25" height="25" viewBox="0 0 25 25" fill="none" xmlns="http://www.w3.org/2000/svg">
<path d="M12.5 0C5.59644 0 0 5.59644 0 12.5C0 19.4036 5.59644 25 12.5 25C19.4036 25 25 19.4036 25 12.5C24.9927 5.59953 19.4005 0.00737655 12.5 0ZM17.7642 12.8983C17.6777 13.0719 17.537 13.2126 17.3634 13.2991V13.3036L10.2205 16.875C9.77942 17.0954 9.24318 16.9166 9.02272 16.4754C8.96004 16.35 8.92776 16.2116 8.92855 16.0715V8.9286C8.92834 8.43547 9.32788 8.03557 9.82101 8.03531C9.9597 8.03525 10.0965 8.06748 10.2205 8.12948L17.3634 11.7009C17.8047 11.9209 17.9842 12.4569 17.7642 12.8983Z" fill="#5671F6"/>
</svg>
