<svg height='100px' width='100px'  fill="#FFFFFF" xmlns="http://www.w3.org/2000/svg" viewBox="0 0 48 48" x="0px" y="0px"><title>Rain</title><g><path d="M29.84,25A5,5,0,1,0,29,15.1a6,6,0,0,0-8.46-5.57C17.94,2.57,7.37,4,7,11.44,6.93,13.12,7.21,13,7,13a6,6,0,0,0-5.85,7.34,6.1,6.1,0,0,0,6,4.66Z"></path><path d="M41.93,8A5.83,5.83,0,0,0,30.71,5.11a5,5,0,0,0-6.39,2A8,8,0,0,1,30.76,13a7,7,0,0,1,5.95,5H42C48.64,18,48.69,8,41.93,8Z"></path><path d="M7,45a2,2,0,0,0,4,0c0-1.1-2-4-2-4S7,43.9,7,45Z"></path><path d="M17,45a2,2,0,0,0,4,0c0-1.1-2-4-2-4S17,43.9,17,45Z"></path><path d="M27,45a2,2,0,0,0,4,0c0-1.1-2-4-2-4S27,43.9,27,45Z"></path><path d="M12,34a2,2,0,0,0,4,0c0-1.1-2-4-2-4S12,32.9,12,34Z"></path><path d="M22,34a2,2,0,0,0,4,0c0-1.1-2-4-2-4S22,32.9,22,34Z"></path><path d="M32,34a2,2,0,0,0,4,0c0-1.1-2-4-2-4S32,32.9,32,34Z"></path><path d="M37,45a2,2,0,0,0,4,0c0-1.1-2-4-2-4S37,43.9,37,45Z"></path></g></svg>