<?xml version="1.0"?>
<svg xmlns="http://www.w3.org/2000/svg" height="512px" viewBox="0 0 512 512" width="512px"><g><path d="m224 282.675781c0-14.695312-11.980469-26.675781-26.675781-26.675781-14.691407 0-26.675781 11.980469-26.675781 26.675781 0 14.691407 11.984374 26.675781 26.675781 26.675781 14.695312 0 26.675781-11.980468 26.675781-26.675781zm0 0" data-original="#000000" class="active-path" data-old_color="#000000" fill="#FFFFFF"/><path d="m309.605469 343.347656c-11.46875 11.46875-36.042969 15.5625-53.554688 15.5625-17.5625 0-42.085937-4.09375-53.554687-15.5625-2.714844-2.714844-7.066406-2.714844-9.777344 0-2.714844 2.714844-2.714844 7.066406 0 9.777344 18.175781 18.175781 53.09375 19.609375 63.332031 19.609375s45.105469-1.433594 63.335938-19.609375c2.660156-2.714844 2.660156-7.066406 0-9.777344-2.714844-2.714844-7.066407-2.714844-9.78125 0zm0 0" data-original="#000000" class="active-path" data-old_color="#000000" fill="#FFFFFF"/><path d="m314.675781 256c-14.695312 0-26.675781 11.980469-26.675781 26.675781 0 14.691407 11.980469 26.675781 26.675781 26.675781 14.691407 0 26.675781-11.984374 26.675781-26.675781 0-14.695312-11.980468-26.675781-26.675781-26.675781zm0 0" data-original="#000000" class="active-path" data-old_color="#000000" fill="#FFFFFF"/><path d="m475.074219 0h-438.148438c-20.394531 0-36.925781 16.53125-36.925781 36.925781v438.148438c0 20.394531 16.53125 36.925781 36.925781 36.925781h438.148438c20.394531 0 36.925781-16.53125 36.925781-36.925781v-438.148438c0-20.394531-16.53125-36.925781-36.925781-36.925781zm-70.542969 290.148438c.5625 3.6875.871094 7.425781.871094 11.214843 0 57.445313-66.867188 103.988281-149.351563 103.988281s-149.351562-46.542968-149.351562-103.988281c0-3.839843.308593-7.628906.871093-11.316406-13.003906-5.835937-22.066406-18.890625-22.066406-34.046875 0-20.582031 16.691406-37.324219 37.324219-37.324219 10.035156 0 19.097656 3.941407 25.804687 10.394531 25.90625-18.6875 61.75-30.621093 101.632813-31.644531 0-.511719 18.636719-89.292969 18.636719-89.292969.359375-1.738281 1.382812-3.226562 2.867187-4.195312 1.484375-.972656 3.277344-1.28125 5.019531-.921875l62.054688 13.207031c4.351562-8.804687 13.308594-14.898437 23.804688-14.898437 14.746093 0 26.675781 11.929687 26.675781 26.675781s-11.929688 26.675781-26.675781 26.675781c-14.285157 0-25.855469-11.265625-26.519532-25.394531l-55.554687-11.828125-16.996094 80.027344c39.167969 1.378906 74.34375 13.257812 99.839844 31.691406 6.707031-6.5 15.820312-10.496094 25.90625-10.496094 20.636719 0 37.324219 16.691407 37.324219 37.324219 0 15.257812-9.164063 28.3125-22.117188 34.148438zm0 0" data-original="#000000" class="active-path" data-old_color="#000000" fill="#FFFFFF"/></g> </svg>
