<svg width="16" height="16" viewBox="0 0 16 16" fill="none" xmlns="http://www.w3.org/2000/svg">
<path d="M7.04617 0C3.16102 0 0 3.16102 0 7.04617C0 10.9315 3.16102 14.0923 7.04617 14.0923C10.9315 14.0923 14.0923 10.9315 14.0923 7.04617C14.0923 3.16102 10.9315 0 7.04617 0ZM7.04617 12.7915C3.87821 12.7915 1.30083 10.2142 1.30083 7.0462C1.30083 3.87824 3.87821 1.30083 7.04617 1.30083C10.2141 1.30083 12.7915 3.87821 12.7915 7.04617C12.7915 10.2141 10.2141 12.7915 7.04617 12.7915Z" fill="#363636"/>
<path d="M15.8097 14.8898L12.0806 11.1608C11.8265 10.9067 11.415 10.9067 11.1609 11.1608C10.9068 11.4147 10.9068 11.8266 11.1609 12.0805L14.89 15.8095C15.017 15.9366 15.1833 16.0001 15.3498 16.0001C15.5161 16.0001 15.6826 15.9366 15.8097 15.8095C16.0638 15.5557 16.0638 15.1437 15.8097 14.8898Z" fill="#363636"/>
</svg>
