<svg width="153" height="46" viewBox="0 0 153 46" fill="none" xmlns="http://www.w3.org/2000/svg">
<path fill-rule="evenodd" clip-rule="evenodd" d="M0 14.815L2.21379 3.56396H25.49L23.4251 14.815H17.8191L13.9836 34.3238C13.9337 34.5141 13.9173 34.7197 13.9173 34.94C13.9173 35.4245 14.0155 36.348 14.7368 36.348C15.8351 36.348 16.9007 35.6008 17.8183 35.1603L15.2773 45.2228C13.4087 45.6487 11.5236 46 9.57318 46C4.88554 46 0.344294 44.6952 0.344294 39.8542C0.344294 39.751 0.344294 39.6485 0.377824 39.5453L5.2462 14.8157H0V14.815Z" fill="white"/>
<path fill-rule="evenodd" clip-rule="evenodd" d="M52.6833 24.1296L33.8003 35.2042C34.9804 36.2602 36.2594 37.1984 38.0128 37.1984C42.7994 37.1984 46.356 33.1646 49.3066 30.3047L47.061 41.702C42.8975 44.3717 37.6522 45.8668 32.5213 45.8668C24.3089 45.8668 18.6865 39.781 18.6865 32.7094C18.6865 23.0428 29.3899 13.1567 40.2904 13.1567C43.8805 13.1567 47.2899 14.7118 49.5847 17.1465C51.5523 19.2447 52.519 21.4445 52.6833 24.1296ZM49.3884 45.2221L55.6168 13.5387H68.1562C68.1071 14.1256 68.058 14.7125 68.058 15.2841C68.058 15.8271 68.206 16.3401 68.3696 16.8538C70.4026 14.8296 73.2543 13.1428 76.3849 13.1428C80.8926 13.1428 84.9579 16.0766 84.9579 20.2568C84.9579 20.7698 84.908 21.2835 84.8107 21.7819L80.1885 45.2221H67.3539L71.2556 25.4644C71.2883 25.2727 71.3047 25.097 71.3047 24.9068C71.3047 23.7622 70.2391 22.9257 68.9772 22.9257C67.6009 22.9257 66.6988 23.9232 66.4698 25.067L62.3228 45.2221H49.3884ZM81.6809 45.2221L87.9265 13.5387H100.481V14.272C100.481 15.328 100.696 16.1937 101.35 17.0741C102.088 16.2376 102.907 15.4458 103.941 14.8889C106.203 13.7004 109.071 13.1435 111.676 13.1435C112.726 13.1435 113.628 13.4077 114.579 13.8036C115.365 15.8424 116.644 17.4115 118.233 19.0105L113.071 45.2228H100.038L103.891 25.6993C103.941 25.4351 103.956 25.1702 103.956 24.9075C103.956 23.7768 103.3 22.7647 101.891 22.7647C100.449 22.7647 99.5147 23.9239 99.2841 25.0978L95.3006 45.2228H81.6809V45.2221ZM114.628 45.2221L119.61 19.9048C121.84 21.5916 123.855 22.3981 126.807 22.3981C128.528 22.3981 130.184 22.0461 131.838 21.6502L127.2 45.2221H114.628Z" fill="white"/>
<path fill-rule="evenodd" clip-rule="evenodd" d="M120.544 19.0098C121.808 18.687 123.069 18.3789 124.397 18.3789C126.741 18.3789 128.873 19.4642 130.888 20.4324C129.609 20.7991 128.281 21.1803 126.939 21.1803C124.528 21.1811 122.463 20.2568 120.544 19.0098ZM117.299 15.9442C116.218 14.272 115.218 12.5412 115.218 10.5609C115.218 7.67093 116.939 5.44181 119.037 3.40296C122.791 5.92628 126.431 7.42212 131.216 7.42212C133.447 7.42212 135.593 6.87984 137.708 6.27828C138.478 7.6424 139.232 9.07969 139.232 10.6348C139.232 13.5826 137.544 16.0027 135.364 18.1008C132.135 16.1798 128.693 14.5222 124.693 14.5222C122.136 14.5215 119.693 15.2248 117.299 15.9442ZM122.921 1.05602C124.431 0.49837 125.938 0 127.577 0C130.478 0 132.839 0.777197 134.987 2.52259C133.675 3.10951 132.347 3.60787 130.855 3.60787C127.889 3.60787 125.266 2.64041 122.921 1.05602ZM128.823 44.049L130.969 33.2232C131.822 34.045 134.035 36.3919 135.526 36.3919C136.657 36.3919 136.854 34.7636 136.854 34.045C136.854 32.9443 136.575 31.9322 135.821 31.0233C134.165 29.0437 132.034 27.283 132.034 24.6287C132.034 23.5426 132.296 22.472 132.576 21.4306C136.361 19.9494 138.444 17.5286 139.607 14.0378H153L151.115 23.6312C150.197 22.7647 149.116 21.7533 147.689 21.7533C146.426 21.7533 145.493 23.0004 145.493 24.0271C145.493 25.6108 146.378 27.3862 147.524 28.5739L149.606 30.7167C150.606 31.7427 151.082 33.1068 151.082 34.4555C151.082 36.9942 149.459 39.4136 147.608 41.2337C144.459 44.3139 141.279 45.296 136.591 45.296C133.904 45.2953 131.38 44.7676 128.823 44.049Z" fill="white"/>
<path fill-rule="evenodd" clip-rule="evenodd" d="M30.9807 30.0998C34.2748 29.2479 39.2912 25.1702 40.0125 22.1632C39.4548 22.0461 38.8815 21.9283 38.3082 21.9283C34.9806 21.9283 30.7681 25.3752 30.7681 28.3968C30.7681 28.9691 30.8662 29.5421 30.9807 30.0998Z" fill="white"/>
</svg>
