<svg height='100px' width='100px'  fill="#FFFFFF" xmlns="http://www.w3.org/2000/svg" xmlns:xlink="http://www.w3.org/1999/xlink" version="1.1" x="0px" y="0px" viewBox="0 0 48 48" enable-background="new 0 0 48 48" xml:space="preserve"><g><path d="M37.2,8.6c-1.7,0-3.4,0.4-4.9,1.2C31.8,4.3,27.1,0,21.5,0c-5.2,0-9.6,3.7-10.6,8.6c0,0,0,0,0,0C4.9,8.6,0,13.5,0,19.5   s4.9,10.8,10.8,10.8h1.6l-1.6,1.3c-0.3,0.3-0.4,0.7-0.3,1.1c0.1,0.4,0.5,0.7,0.9,0.7h9.3l-6.4,13.2c-0.2,0.4-0.1,1,0.3,1.2   c0.2,0.1,0.6,0.4,1.3-0.1l18.5-17.4h2.8c6,0,10.8-4.9,10.8-10.8S43.1,8.6,37.2,8.6z M18.6,42.5l4.7-9.7c0.2-0.3,0.1-0.7-0.1-1   c-0.2-0.3-0.5-0.5-0.8-0.5h-8.1l14.8-12.2l-4.5,7.3c-0.2,0.3-0.2,0.7,0,1c0.2,0.3,0.5,0.5,0.9,0.5H34L18.6,42.5z M37.2,28.3h-0.6   l0.6-0.6c0.3-0.3,0.4-0.7,0.2-1.1c-0.2-0.4-0.5-0.6-0.9-0.6h-9.2L34,15.1c0.3-0.4,0.2-1-0.2-1.3c-0.4-0.3-0.9-0.3-1.3,0L14.9,28.3   h-4.1c-4.9,0-8.8-4-8.8-8.8c0-4.9,4-8.8,8.8-8.8c0.3,0,0.5,0,0.8,0c0.5,0.1,1-0.3,1.1-0.9C13.2,5.4,17,2,21.5,2   c4.9,0,8.8,4,8.8,8.8c0,0.2,0,0.4,0,0.7c0,0.4,0.2,0.8,0.5,1c0.3,0.2,0.8,0.2,1.1-0.1c1.5-1.2,3.4-1.8,5.3-1.8c4.9,0,8.8,4,8.8,8.8   C46,24.4,42,28.3,37.2,28.3z"></path></g></svg>