<svg height='100px' width='100px'  fill="#FFFFFF" xmlns="http://www.w3.org/2000/svg" xmlns:xlink="http://www.w3.org/1999/xlink" viewBox="0 0 60 50" version="1.1" x="0px" y="0px"><title>007-Train</title><desc>Created with Sketch.</desc><g stroke="none" stroke-width="1" fill="none" fill-rule="evenodd"><g transform="translate(1.000000, 0.000000)" stroke="#FFFFFF" stroke-width="2"><path d="M0,49 L58,49" stroke-linecap="round"></path><path d="M16,44 C16,45.657 14.657,47 13,47 C11.343,47 10,45.657 10,44"></path><path d="M10,44 C10,43.649 10.06,43.313 10.171,43"></path><path d="M4,43 L55,43" stroke-linecap="round"></path><path d="M55,39 L55,43" stroke-linecap="round"></path><path d="M4,39 L4,43" stroke-linecap="round"></path><path d="M55,39 L20,39" stroke-linecap="round"></path><path d="M10,39 L10,29" stroke-linecap="round"></path><path d="M6,28 L10,29" stroke-linecap="round"></path><path d="M6,25 L6,28" stroke-linecap="round"></path><path d="M20,25 L6,25" stroke-linecap="round"></path><path d="M20,39 L20,25" stroke-linecap="round"></path><path d="M29,28 L20,28" stroke-linecap="round"></path><path d="M35,28 L42,28" stroke-linecap="round"></path><path d="M46,28 L52,28" stroke-linecap="round"></path><path d="M50,36 L52,39" stroke-linecap="round"></path><path d="M52,36 L50,36" stroke-linecap="round"></path><path d="M54,32 C54,29.789 53.105,28 52,28" stroke-linecap="round"></path><path d="M54,32 C54,34.211 53.105,36 52,36" stroke-linecap="round"></path><path d="M42,28 L42,25" stroke-linecap="round"></path><path d="M46,28 L46,25" stroke-linecap="round"></path><path d="M29,28 C29,26.895 30.342,26 32,26" stroke-linecap="round"></path><path d="M35,28 C35,26.895 33.658,26 32,26" stroke-linecap="round"></path><path d="M42,25 C42,23.895 42.895,23 44,23" stroke-linecap="round"></path><path d="M46,25 C46,23.895 45.105,23 44,23" stroke-linecap="round"></path><path d="M4,39 L10,39" stroke-linecap="round"></path><path d="M49,44 C49,45.657 47.657,47 46,47 C44.343,47 43,45.657 43,44"></path><path d="M38,44 C38,45.657 36.657,47 35,47 C33.343,47 32,45.657 32,44"></path><path d="M27,44 C27,45.657 25.657,47 24,47 C22.343,47 21,45.657 21,44"></path><path d="M43,19 C43.792,17.542 43.562,14.5 40,15" stroke-linecap="round"></path><path d="M40,15 C41.562,10.969 36.687,7.813 33,10" stroke-linecap="round"></path><path d="M33,10 C32.917,8.5 32.167,7.583 30,8" stroke-linecap="round"></path><path d="M30,8 C31.406,4.375 28.906,0.906 25,1" stroke-linecap="round"></path><path d="M20,8 C17.906,4.094 21.684,1 25,1" stroke-linecap="round"></path><path d="M20,8 C15.063,11.313 18.125,17.708 24,16" stroke-linecap="round"></path><path d="M24,16 C24.125,17.875 27.667,20.167 31,18" stroke-linecap="round"></path><path d="M31,18 C30,21.917 35.062,23.042 39,22" stroke-linecap="round"></path><path d="M43,23 C41.531,23.437 39.781,22.875 39,22" stroke-linecap="round"></path><path d="M43,23 C44.375,22.563 44.687,20.094 43,19" stroke-linecap="round"></path></g></g></svg>