<svg height='100px' width='100px'  fill="#FFFFFF" xmlns="http://www.w3.org/2000/svg" xmlns:xlink="http://www.w3.org/1999/xlink" version="1.1" x="0px" y="0px" viewBox="-230 -91 91 91" enable-background="new -230 -91 91 91" xml:space="preserve"><g><path fill-rule="evenodd" clip-rule="evenodd" fill="#FFFFFF" d="M-196.033-61.749c0.133,0.054,0.235,0.079,0.319,0.132   c7.383,4.696,14.786,4.738,22.23,0.132c0.229-0.142,0.689-0.091,0.958,0.041c0.882,0.433,1.691,1.02,2.587,1.415   c6.544,2.887,12.876,2.452,18.944-1.34c0.584-0.365,0.946-0.359,1.518,0.003c0.998,0.634,2.049,1.209,3.136,1.675   c2.354,1.009,4.823,1.519,7.423,1.5c0-2.198,0-4.315,0-6.432c-4.971-0.221-8.699-2.474-11.33-6.641   c-2.728,4.258-6.451,6.577-11.406,6.584c-4.986,0.007-8.713-2.367-11.421-6.576c-2.696,4.256-6.422,6.626-11.415,6.643   c-5.028,0.017-8.775-2.381-11.462-6.581c-2.731,4.197-6.449,6.525-11.409,6.515c-4.981-0.01-8.695-2.405-11.396-6.586   c-2.667,4.266-6.452,6.43-11.324,6.66c0,2.178,0,4.269,0,6.425c3.713-0.027,7.1-0.985,10.175-2.929   c0.849-0.537,1.398-0.615,2.296-0.033c3.09,2.007,6.538,2.954,10.223,2.965C-203.225-58.164-199.44-59.412-196.033-61.749z"></path><path fill-rule="evenodd" clip-rule="evenodd" d="M-196.033-61.749c-3.407,2.337-7.191,3.585-11.355,3.572   c-3.685-0.011-7.133-0.958-10.223-2.965c-0.897-0.583-1.447-0.504-2.296,0.033c-3.075,1.944-6.462,2.902-10.175,2.929   c0-2.156,0-4.247,0-6.425c4.872-0.229,8.657-2.394,11.324-6.66c2.701,4.181,6.415,6.576,11.396,6.586   c4.96,0.01,8.678-2.318,11.409-6.515c2.687,4.2,6.434,6.598,11.462,6.581c4.993-0.017,8.719-2.387,11.415-6.643   c2.708,4.209,6.435,6.583,11.421,6.576c4.955-0.007,8.679-2.326,11.406-6.584c2.631,4.167,6.359,6.42,11.33,6.641   c0,2.117,0,4.233,0,6.432c-2.6,0.018-5.068-0.492-7.423-1.5c-1.087-0.465-2.138-1.041-3.136-1.675   c-0.571-0.363-0.934-0.369-1.518-0.003c-6.068,3.792-12.4,4.228-18.944,1.34c-0.896-0.395-1.705-0.981-2.587-1.415   c-0.269-0.132-0.729-0.183-0.958-0.041c-7.444,4.606-14.848,4.564-22.23-0.132C-195.798-61.67-195.9-61.695-196.033-61.749z"></path></g><g><path fill-rule="evenodd" clip-rule="evenodd" fill="#FFFFFF" d="M-196.033-41.585c0.133,0.054,0.235,0.079,0.319,0.132   c7.383,4.696,14.786,4.738,22.23,0.132c0.229-0.142,0.689-0.091,0.958,0.041c0.882,0.433,1.691,1.02,2.587,1.415   c6.544,2.887,12.876,2.452,18.944-1.341c0.584-0.365,0.946-0.359,1.518,0.004c0.998,0.634,2.049,1.209,3.136,1.675   c2.354,1.009,4.823,1.518,7.423,1.5c0-2.198,0-4.315,0-6.432c-4.971-0.221-8.699-2.474-11.33-6.641   c-2.728,4.258-6.451,6.577-11.406,6.584c-4.986,0.007-8.713-2.367-11.421-6.576c-2.696,4.256-6.422,6.626-11.415,6.643   c-5.028,0.017-8.775-2.381-11.462-6.581c-2.731,4.197-6.449,6.525-11.409,6.515c-4.981-0.01-8.695-2.405-11.396-6.586   c-2.667,4.266-6.452,6.43-11.324,6.66c0,2.178,0,4.269,0,6.425c3.713-0.027,7.1-0.985,10.175-2.929   c0.849-0.537,1.398-0.615,2.296-0.033c3.09,2.007,6.538,2.954,10.223,2.965C-203.225-38-199.44-39.249-196.033-41.585z"></path><path fill-rule="evenodd" clip-rule="evenodd" d="M-196.033-41.585c-3.407,2.337-7.191,3.585-11.355,3.572   c-3.685-0.011-7.133-0.958-10.223-2.965c-0.897-0.583-1.447-0.504-2.296,0.033c-3.075,1.944-6.462,2.902-10.175,2.929   c0-2.156,0-4.247,0-6.425c4.872-0.229,8.657-2.394,11.324-6.66c2.701,4.181,6.415,6.576,11.396,6.586   c4.96,0.01,8.678-2.318,11.409-6.515c2.687,4.2,6.434,6.598,11.462,6.581c4.993-0.017,8.719-2.387,11.415-6.643   c2.708,4.209,6.435,6.583,11.421,6.576c4.955-0.007,8.679-2.326,11.406-6.584c2.631,4.167,6.359,6.42,11.33,6.641   c0,2.117,0,4.233,0,6.432c-2.6,0.018-5.068-0.492-7.423-1.5c-1.087-0.465-2.138-1.041-3.136-1.675   c-0.571-0.363-0.934-0.369-1.518-0.004c-6.068,3.792-12.4,4.228-18.944,1.341c-0.896-0.395-1.705-0.981-2.587-1.415   c-0.269-0.132-0.729-0.183-0.958-0.041c-7.444,4.606-14.848,4.564-22.23-0.132C-195.798-41.507-195.9-41.532-196.033-41.585z"></path></g><g><path fill-rule="evenodd" clip-rule="evenodd" fill="#FFFFFF" d="M-196.033-21.422c0.133,0.054,0.235,0.079,0.319,0.132   c7.383,4.696,14.786,4.738,22.23,0.132c0.229-0.142,0.689-0.091,0.958,0.041c0.882,0.433,1.691,1.02,2.587,1.415   c6.544,2.887,12.876,2.452,18.944-1.341c0.584-0.365,0.946-0.359,1.518,0.004c0.998,0.634,2.049,1.209,3.136,1.675   c2.354,1.009,4.823,1.518,7.423,1.5c0-2.198,0-4.315,0-6.432c-4.971-0.221-8.699-2.474-11.33-6.641   c-2.728,4.258-6.451,6.577-11.406,6.584c-4.986,0.007-8.713-2.367-11.421-6.576c-2.696,4.256-6.422,6.626-11.415,6.643   c-5.028,0.017-8.775-2.381-11.462-6.581c-2.731,4.197-6.449,6.525-11.409,6.515c-4.981-0.01-8.695-2.405-11.396-6.586   c-2.667,4.266-6.452,6.43-11.324,6.66c0,2.178,0,4.269,0,6.425c3.713-0.027,7.1-0.985,10.175-2.929   c0.849-0.537,1.398-0.615,2.296-0.033c3.09,2.007,6.538,2.954,10.223,2.965C-203.225-17.837-199.44-19.085-196.033-21.422z"></path><path fill-rule="evenodd" clip-rule="evenodd" d="M-196.033-21.422c-3.407,2.337-7.191,3.585-11.355,3.572   c-3.685-0.011-7.133-0.958-10.223-2.965c-0.897-0.583-1.447-0.504-2.296,0.033c-3.075,1.944-6.462,2.902-10.175,2.929   c0-2.156,0-4.247,0-6.425c4.872-0.229,8.657-2.394,11.324-6.66c2.701,4.181,6.415,6.576,11.396,6.586   c4.96,0.01,8.678-2.318,11.409-6.515c2.687,4.2,6.434,6.598,11.462,6.581c4.993-0.017,8.719-2.387,11.415-6.643   c2.708,4.209,6.435,6.583,11.421,6.576c4.955-0.007,8.679-2.326,11.406-6.584c2.631,4.167,6.359,6.42,11.33,6.641   c0,2.117,0,4.233,0,6.432c-2.6,0.018-5.068-0.492-7.423-1.5c-1.087-0.465-2.138-1.041-3.136-1.675   c-0.571-0.363-0.934-0.369-1.518-0.004c-6.068,3.792-12.4,4.228-18.944,1.341c-0.896-0.395-1.705-0.981-2.587-1.415   c-0.269-0.132-0.729-0.183-0.958-0.041c-7.444,4.606-14.848,4.564-22.23-0.132C-195.798-21.344-195.9-21.369-196.033-21.422z"></path></g></svg>