<svg width="24" height="25" viewBox="0 0 24 25" fill="none" xmlns="http://www.w3.org/2000/svg">
<path d="M16.6 14.5C16.4 14.4 15.1 13.8 14.9 13.7C14.7 13.6 14.5 13.6 14.3 13.8C14.1 14 13.7 14.6 13.5 14.8C13.4 15 13.2 15 13 14.9C12.3 14.6 11.6 14.2 11 13.7C10.5 13.2 10 12.6 9.6 12C9.5 11.8 9.6 11.6 9.7 11.5C9.8 11.4 9.9 11.2 10.1 11.1C10.2 11 10.3 10.8 10.3 10.7C10.4 10.6 10.4 10.4 10.3 10.3C10.2 10.2 9.7 9.00001 9.5 8.50001C9.4 7.80001 9.2 7.80001 9 7.80001C8.9 7.80001 8.7 7.80001 8.5 7.80001C8.3 7.80001 8 8.00001 7.9 8.10001C7.3 8.70001 7 9.40001 7 10.2C7.1 11.1 7.4 12 8 12.8C9.1 14.4 10.5 15.7 12.2 16.5C12.7 16.7 13.1 16.9 13.6 17C14.1 17.2 14.6 17.2 15.2 17.1C15.9 17 16.5 16.5 16.9 15.9C17.1 15.5 17.1 15.1 17 14.7C17 14.7 16.8 14.6 16.6 14.5ZM19.1 5.40001C15.2 1.50001 8.9 1.50001 5 5.40001C1.8 8.60001 1.2 13.5 3.4 17.4L2 22.5L7.3 21.1C8.8 21.9 10.4 22.3 12 22.3C17.5 22.3 21.9 17.9 21.9 12.4C22 9.80001 20.9 7.30001 19.1 5.40001ZM16.4 19.4C15.1 20.2 13.6 20.7 12 20.7C10.5 20.7 9.1 20.3 7.8 19.6L7.5 19.4L4.4 20.2L5.2 17.2L5 16.9C2.6 12.9 3.8 7.90001 7.7 5.40001C11.6 2.90001 16.6 4.20001 19 8.00001C21.4 11.9 20.3 17 16.4 19.4Z" fill="#F9F9F9"/>
</svg>
