<svg height='100px' width='100px'  fill="#FFFFFF" xmlns="http://www.w3.org/2000/svg" data-name="Layer 1" viewBox="0 0 100 100" x="0px" y="0px"><title>Artboard 12</title><path d="M24,35.62h0a2.4,2.4,0,0,1,1-1.91l8.39-6.36a1.78,1.78,0,0,1,2.16,0l9.34,7.08,6.49-4.92.08,0,2.78-2.11a1.78,1.78,0,0,1,2.16,0l9.34,7.08,6.49-4.92a2.4,2.4,0,0,1,2.9,3.83l-8.32,6.3a1.78,1.78,0,0,1-2.16,0l-9.34-7.08-6.57,5-.09,0-2.71,2.05a1.78,1.78,0,0,1-2.16,0L34.4,32.56l-6.57,5A2.4,2.4,0,0,1,24,35.62Zm3.85,13.69,6.57-5,9.34,7.08a1.78,1.78,0,0,0,2.16,0l2.71-2.05.09,0,6.57-5,9.34,7.08a1.78,1.78,0,0,0,2.16,0l8.32-6.3a2.4,2.4,0,0,0-2.9-3.83L65.67,46.2l-9.34-7.08a1.78,1.78,0,0,0-2.16,0l-2.78,2.11-.08,0L44.82,46.2l-9.34-7.08a1.78,1.78,0,0,0-2.16,0l-8.39,6.36a2.4,2.4,0,0,0-1,1.91h0A2.4,2.4,0,0,0,27.83,49.31Zm0,11.77,6.57-5,9.34,7.08a1.78,1.78,0,0,0,2.16,0l2.71-2.05.09,0,6.57-5,9.34,7.08a1.78,1.78,0,0,0,2.16,0l8.32-6.3a2.4,2.4,0,0,0-2.9-3.83L65.67,58,56.33,50.9a1.78,1.78,0,0,0-2.16,0L51.39,53l-.08,0L44.82,58,35.48,50.9a1.78,1.78,0,0,0-2.16,0l-8.39,6.36a2.4,2.4,0,0,0-1,1.91h0A2.4,2.4,0,0,0,27.83,61.08Zm-26.37,11V18.41A10.44,10.44,0,0,1,11.9,8H88.1A10.44,10.44,0,0,1,98.53,18.41v53.7A10.44,10.44,0,0,1,88.1,82.56h-22v4.9A4.57,4.57,0,0,1,61.53,92H38.47a4.57,4.57,0,0,1-4.57-4.57v-4.9h-22A10.44,10.44,0,0,1,1.47,72.12Zm11.8-2.67a1.3,1.3,0,0,0,1.3,1.3H85.43a1.3,1.3,0,0,0,1.3-1.3V21.08a1.3,1.3,0,0,0-1.3-1.3H14.57a1.3,1.3,0,0,0-1.3,1.3Z"></path></svg>