<svg width="16" height="16" viewBox="0 0 16 16" fill="none" xmlns="http://www.w3.org/2000/svg">
<path d="M8.16271 2.66663C8.51871 2.66863 9.40937 2.67729 10.356 2.71529L10.692 2.72996C11.6447 2.77463 12.5967 2.85196 13.0694 2.98329C13.6994 3.16063 14.194 3.67663 14.3614 4.33129C14.628 5.37129 14.6614 7.39929 14.6654 7.89063L14.666 7.99196V8.10796C14.6614 8.59929 14.628 10.628 14.3614 11.6673C14.192 12.324 13.6967 12.8406 13.0694 13.0153C12.5967 13.1466 11.6447 13.224 10.692 13.2686L10.356 13.284C9.40937 13.3213 8.51871 13.3306 8.16271 13.332L8.00604 13.3326H7.83604C7.08271 13.328 3.93204 13.294 2.92937 13.0153C2.30004 12.838 1.80471 12.322 1.63737 11.6673C1.37071 10.6273 1.33737 8.59929 1.33337 8.10796V7.89063C1.33737 7.39929 1.37071 5.37063 1.63737 4.33129C1.80671 3.67463 2.30204 3.15796 2.93004 2.98396C3.93204 2.70463 7.08337 2.67063 7.83671 2.66663H8.16271ZM6.66604 5.66663V10.3333L10.666 7.99996L6.66604 5.66663Z" fill="white"/>
</svg>
