<?xml version="1.0" encoding="UTF-8"?>
<svg width="752pt" height="752pt" version="1.1" viewBox="0 0 752 752" xmlns="http://www.w3.org/2000/svg">
 <g>
  <rect width="752" height="752" fill="#fff"/>
  <path d="m229.29 229.29c-81.031 81.031-81.031 212.4 0 293.43 81.031 81.031 212.4 81.031 293.43 0 81.031-81.031 81.031-212.4 0-293.43-81.027-81.027-212.4-81.027-293.43 0zm182.03 117.7c29.035 0.023437 58.066-0.15234 87.098 0.11328 22.258 0.20312 36.145 23.543 25.594 42.699-5.6406 10.242-14.602 15.32-26.25 15.359-28.898 0.085937-57.793 0.050781-86.688 0.074218-5.7109 0.003907-5.7344 0.027344-5.7344 5.6211-0.007812 28.484-0.027343 56.973 0.015625 85.457 0.015625 8.5859-2.4844 16.164-8.5781 22.73-8.668 7.707-18.812 10.711-30.191 6.5742-10.91-3.9688-17.438-11.957-19.051-23.617-0.33594-2.4297-0.32812-4.9141-0.32812-7.3789-0.023438-27.805-0.015625-55.602-0.019531-83.406 0-5.9844-0.015626-5.9922-6.1602-5.9922-27.801 0-55.602-0.027344-83.402 0.019531-7.5625 0.015625-14.645-1.2461-20.934-5.8945-9.4609-6.9883-13.84-19.461-10.621-31.07 3.125-11.289 13.227-20.332 24.824-20.836 14.355-0.62891 28.746-0.38281 43.125-0.4375 15.883-0.050782 31.773-0.007813 47.656-0.015625 5.4844 0 5.5078-0.015625 5.5117-5.4102 0.015624-28.762-0.042969-57.52 0.03125-86.281 0.042968-15.156 8.6484-26.41 22.344-29.59 16.473-3.8281 32.195 6.4453 35.164 23.086 0.50391 2.8086 0.59375 5.7227 0.59375 8.5859 0.042969 27.805 0.019531 55.602 0.023438 83.406-0.011719 6.1758 0 6.1992 5.9766 6.2031z" fill="#00449e"/>
 </g>
</svg>
