<svg width="20" height="22" viewBox="0 0 20 22" fill="none" xmlns="http://www.w3.org/2000/svg">
<path d="M13.5926 2.02719C12.6805 1.04234 11.4064 0.5 10.0001 0.5C8.5864 0.5 7.30811 1.03906 6.40015 2.01781C5.48233 3.00734 5.03515 4.35219 5.14015 5.80437C5.34827 8.66937 7.52843 11 10.0001 11C12.4719 11 14.6483 8.66984 14.8597 5.80531C14.9661 4.36625 14.5161 3.02422 13.5926 2.02719Z" fill="#B52184"/>
<path d="M18.2501 21.5H1.75015C1.53418 21.5028 1.3203 21.4574 1.12407 21.3672C0.927837 21.2769 0.754194 21.1441 0.615771 20.9783C0.311084 20.6141 0.188271 20.1167 0.279209 19.6137C0.674834 17.4191 1.90952 15.5755 3.85015 14.2812C5.57421 13.1323 7.75811 12.5 10.0001 12.5C12.2422 12.5 14.4261 13.1328 16.1501 14.2812C18.0908 15.575 19.3255 17.4186 19.7211 19.6133C19.812 20.1162 19.6892 20.6136 19.3845 20.9778C19.2461 21.1437 19.0725 21.2766 18.8763 21.367C18.6801 21.4573 18.4662 21.5028 18.2501 21.5Z" fill="#B52184"/>
</svg>
