<svg width="20" height="19" viewBox="0 0 20 19" fill="none" xmlns="http://www.w3.org/2000/svg">
<path d="M17.1528 3.42737C15.6481 1.78674 13.4262 0.919556 10.7262 0.919556C8.33559 0.919556 6.0059 1.84768 4.17309 3.53518C2.34027 5.22268 1.21527 7.46331 1.00434 9.85393C0.7934 12.2774 1.5434 14.5555 3.11371 16.2711C4.67934 17.9774 6.86371 18.9196 9.27309 18.9196C10.7965 18.9196 11.7856 18.8071 13.2809 18.1836C13.6606 18.0242 13.8434 17.5836 13.684 17.2039C13.5246 16.8242 13.084 16.6414 12.7043 16.8008C11.4293 17.3352 10.6512 17.4242 9.27777 17.4242C7.29496 17.4242 5.49965 16.6555 4.22465 15.2633C2.94027 13.8617 2.32621 11.9867 2.50434 9.98987C2.86996 5.81799 6.56371 2.42424 10.7356 2.42424C13.0043 2.42424 14.8418 3.12268 16.0559 4.44456C17.209 5.70549 17.7246 7.44456 17.5465 9.46955C17.3918 11.2227 16.7122 12.0852 16.1731 12.4977C15.6575 12.8914 15.1418 12.9758 14.8606 12.9242C14.0309 12.7789 13.5996 11.9633 13.7075 10.7539L14.1059 6.23987C14.1434 5.82737 13.8387 5.46174 13.4262 5.42893C13.0137 5.39143 12.6481 5.69612 12.6153 6.10862L12.5778 6.53518C11.8653 5.81799 10.9184 5.42424 9.90121 5.42424C8.78559 5.42424 7.72152 5.89768 6.90121 6.75549C6.11371 7.57581 5.62621 8.68206 5.52309 9.85862C5.4059 11.1664 5.79496 12.4039 6.57777 13.2617C7.26215 14.0117 8.20902 14.4242 9.24496 14.4242C10.3887 14.4242 11.4668 14.0024 12.2778 13.243C12.3903 13.1399 12.4981 13.0274 12.5965 12.9102C13.0606 13.8055 13.8575 14.2696 14.6075 14.4055C15.3996 14.5461 16.3278 14.2789 17.0965 13.693C17.8793 13.093 18.8496 11.8977 19.0512 9.60549C19.2434 7.17268 18.5778 4.98362 17.1528 3.42737ZM9.22621 12.9196C8.60746 12.9196 8.0684 12.6852 7.66527 12.2446C7.16371 11.6961 6.91996 10.8711 6.99965 9.98518C7.14965 8.26487 8.41996 6.91956 9.88715 6.91956C10.534 6.91956 11.1293 7.18206 11.57 7.66018C12.0809 8.21799 12.3293 9.01487 12.2543 9.85393C12.0668 11.968 10.595 12.9196 9.22621 12.9196Z" fill="#B52184"/>
</svg>
